<svg xmlns="http://www.w3.org/2000/svg" viewBox="0 0 1280 400" width="1280" height="400">
<defs>

  <!-- BACKGROUNDS -->
  <linearGradient id="bg" x1="0" y1="0" x2="0" y2="1">
    <stop offset="0%"   stop-color="#040e0c"/>
    <stop offset="100%" stop-color="#071612"/>
  </linearGradient>

  <!-- NEBULA CLOUDS -->
  <radialGradient id="neb0" cx="50%" cy="42%" r="40%">
    <stop offset="0%"   stop-color="#1f4d47" stop-opacity="0.18"/>
    <stop offset="50%"  stop-color="#1f4d47" stop-opacity="0.06"/>
    <stop offset="100%" stop-color="#1f4d47" stop-opacity="0"/>
  </radialGradient>
  <radialGradient id="neb1" cx="50%" cy="48%" r="25%">
    <stop offset="0%"   stop-color="#3db8a0" stop-opacity="0.10"/>
    <stop offset="100%" stop-color="#3db8a0" stop-opacity="0"/>
  </radialGradient>
  <radialGradient id="nebL" cx="8%" cy="55%" r="24%">
    <stop offset="0%"   stop-color="#2d6b62" stop-opacity="0.08"/>
    <stop offset="100%" stop-color="transparent" stop-opacity="0"/>
  </radialGradient>
  <radialGradient id="nebR" cx="92%" cy="52%" r="22%">
    <stop offset="0%"   stop-color="#3db8a0" stop-opacity="0.07"/>
    <stop offset="100%" stop-color="transparent" stop-opacity="0"/>
  </radialGradient>

  <!-- GRID GRADIENTS -->
  <linearGradient id="gV" x1="0" y1="0" x2="0" y2="1">
    <stop offset="0%"   stop-color="#3db8a0" stop-opacity="0"/>
    <stop offset="50%"  stop-color="#3db8a0" stop-opacity="0.03"/>
    <stop offset="78%"  stop-color="#3db8a0" stop-opacity="0.12"/>
    <stop offset="100%" stop-color="#3db8a0" stop-opacity="0.24"/>
  </linearGradient>
  <linearGradient id="gH" x1="0" y1="0" x2="0" y2="1">
    <stop offset="55%"  stop-color="#1f4d47" stop-opacity="0"/>
    <stop offset="78%"  stop-color="#1f4d47" stop-opacity="0.08"/>
    <stop offset="100%" stop-color="#1f4d47" stop-opacity="0.18"/>
  </linearGradient>
  <linearGradient id="horizGlow" x1="0" y1="0" x2="1" y2="0">
    <stop offset="0%"   stop-color="#3db8a0" stop-opacity="0"/>
    <stop offset="25%"  stop-color="#3db8a0" stop-opacity="0.09"/>
    <stop offset="50%"  stop-color="#fff"    stop-opacity="0.14"/>
    <stop offset="75%"  stop-color="#3db8a0" stop-opacity="0.09"/>
    <stop offset="100%" stop-color="#3db8a0" stop-opacity="0"/>
  </linearGradient>

  <!-- SCAN-LINE -->
  <linearGradient id="scanLine" x1="0" y1="0" x2="1" y2="0">
    <stop offset="0%"   stop-color="#3db8a0" stop-opacity="0"/>
    <stop offset="40%"  stop-color="#3db8a0" stop-opacity="0.38"/>
    <stop offset="50%"  stop-color="#fff"    stop-opacity="0.72"/>
    <stop offset="60%"  stop-color="#3db8a0" stop-opacity="0.38"/>
    <stop offset="100%" stop-color="#3db8a0" stop-opacity="0"/>
  </linearGradient>

  <!-- ORB -->
  <radialGradient id="orbFill" cx="46%" cy="40%" r="50%">
    <stop offset="0%"   stop-color="#fff"    stop-opacity="0.85"/>
    <stop offset="15%"  stop-color="#a8f0de"/>
    <stop offset="35%"  stop-color="#2d6b62"/>
    <stop offset="60%"  stop-color="#122e2a" stop-opacity="0.7"/>
    <stop offset="100%" stop-color="#040e0c" stop-opacity="0"/>
  </radialGradient>
  <radialGradient id="orbAtmo" cx="50%" cy="50%" r="50%">
    <stop offset="0%"   stop-color="#2d6b62" stop-opacity="0.28"/>
    <stop offset="45%"  stop-color="#2d6b62" stop-opacity="0.06"/>
    <stop offset="100%" stop-color="#2d6b62" stop-opacity="0"/>
  </radialGradient>

  <!-- TITLE COLORS -->
  <linearGradient id="awesomeFill" x1="0" y1="0" x2="1" y2="0">
    <stop offset="0%"   stop-color="#5ce0c5"/>
    <stop offset="100%" stop-color="#3db8a0"/>
  </linearGradient>
  <linearGradient id="slmFill" x1="0" y1="0" x2="0" y2="1">
    <stop offset="0%"   stop-color="#ffffff"/>
    <stop offset="100%" stop-color="#c2f5e8"/>
  </linearGradient>
  <linearGradient id="judgeFill" x1="0" y1="0" x2="1" y2="1">
    <stop offset="0%"   stop-color="#3db8a0"/>
    <stop offset="100%" stop-color="#1f4d47"/>
  </linearGradient>
  <linearGradient id="neonEdge" x1="0" y1="0" x2="1" y2="0">
    <stop offset="0%"   stop-color="#1f4d47"/>
    <stop offset="50%"  stop-color="#3db8a0"/>
    <stop offset="100%" stop-color="#5ce0c5"/>
  </linearGradient>

  <!-- LIGHT-RAY -->
  <linearGradient id="ray" x1="0" y1="0" x2="1" y2="0">
    <stop offset="0%"   stop-color="#fff" stop-opacity="0"/>
    <stop offset="47%"  stop-color="#fff" stop-opacity="0"/>
    <stop offset="50%"  stop-color="#fff" stop-opacity="0.42"/>
    <stop offset="53%"  stop-color="#fff" stop-opacity="0"/>
    <stop offset="100%" stop-color="#fff" stop-opacity="0"/>
  </linearGradient>

  <!-- CIRCUIT TRACES -->
  <linearGradient id="traceA" x1="0" y1="0" x2="1" y2="0">
    <stop offset="0%" stop-color="#3db8a0" stop-opacity="0.35"/>
    <stop offset="100%" stop-color="#3db8a0" stop-opacity="0.06"/>
  </linearGradient>
  <linearGradient id="traceB" x1="1" y1="0" x2="0" y2="0">
    <stop offset="0%" stop-color="#3db8a0" stop-opacity="0.35"/>
    <stop offset="100%" stop-color="#3db8a0" stop-opacity="0.06"/>
  </linearGradient>
  <linearGradient id="traceC" x1="0" y1="0" x2="1" y2="0">
    <stop offset="0%" stop-color="#5ce0c5" stop-opacity="0.28"/>
    <stop offset="100%" stop-color="#5ce0c5" stop-opacity="0.05"/>
  </linearGradient>
  <linearGradient id="traceD" x1="1" y1="0" x2="0" y2="0">
    <stop offset="0%" stop-color="#5ce0c5" stop-opacity="0.28"/>
    <stop offset="100%" stop-color="#5ce0c5" stop-opacity="0.05"/>
  </linearGradient>

  <!-- HEX RING -->
  <linearGradient id="hexStroke" x1="0" y1="0" x2="1" y2="1">
    <stop offset="0%" stop-color="#3db8a0"/>
    <stop offset="100%" stop-color="#1f4d47"/>
  </linearGradient>

  <!-- BOTTOM EDGE -->
  <linearGradient id="bottomEdge" x1="0" y1="0" x2="1" y2="0">
    <stop offset="0%"   stop-color="#1f4d47" stop-opacity="0"/>
    <stop offset="30%"  stop-color="#1f4d47" stop-opacity="0.42"/>
    <stop offset="50%"  stop-color="#3db8a0" stop-opacity="0.78"/>
    <stop offset="70%"  stop-color="#1f4d47" stop-opacity="0.42"/>
    <stop offset="100%" stop-color="#1f4d47" stop-opacity="0"/>
  </linearGradient>

  <!-- TOP EDGE -->
  <linearGradient id="topEdge" x1="0" y1="0" x2="1" y2="0">
    <stop offset="0%"   stop-color="#1f4d47" stop-opacity="0"/>
    <stop offset="30%"  stop-color="#1f4d47" stop-opacity="0.22"/>
    <stop offset="50%"  stop-color="#3db8a0" stop-opacity="0.48"/>
    <stop offset="70%"  stop-color="#1f4d47" stop-opacity="0.22"/>
    <stop offset="100%" stop-color="#1f4d47" stop-opacity="0"/>
  </linearGradient>

  <!-- FILTERS -->
  <filter id="bloom" x="-50%" y="-50%" width="200%" height="200%">
    <feGaussianBlur in="SourceGraphic" stdDeviation="8"/>
  </filter>
  <filter id="titleNeon" x="-20%" y="-30%" width="140%" height="160%">
    <feGaussianBlur in="SourceAlpha" stdDeviation="5" result="b"/>
    <feFlood flood-color="#1f4d47" flood-opacity="0.48" result="c"/>
    <feComposite in="c" in2="b" operator="in" result="s"/>
    <feMerge><feMergeNode in="s"/><feMergeNode in="SourceGraphic"/></feMerge>
  </filter>
  <filter id="dotBloom" x="-100%" y="-100%" width="300%" height="300%">
    <feGaussianBlur in="SourceGraphic" stdDeviation="2"/>
  </filter>
  <filter id="softGlow" x="-30%" y="-30%" width="160%" height="160%">
    <feGaussianBlur in="SourceGraphic" stdDeviation="1.8"/>
  </filter>
  <filter id="awesomeGlow" x="-20%" y="-30%" width="140%" height="160%">
    <feGaussianBlur in="SourceAlpha" stdDeviation="3" result="b"/>
    <feFlood flood-color="#3db8a0" flood-opacity="0.35" result="c"/>
    <feComposite in="c" in2="b" operator="in" result="s"/>
    <feMerge><feMergeNode in="s"/><feMergeNode in="SourceGraphic"/></feMerge>
  </filter>

  <!-- CLIP -->
  <clipPath id="main"><rect width="1280" height="400"/></clipPath>
  <clipPath id="titleBox"><rect x="120" y="100" width="1040" height="140"/></clipPath>

</defs>

<!-- STYLES -->
<style>
  @keyframes starDriftA { 0%{transform:translateX(0)} 100%{transform:translateX(-40px)} }
  @keyframes starDriftB { 0%{transform:translateX(0)} 100%{transform:translateX(25px)}  }
  @keyframes starDriftC { 0%{transform:translateX(0)} 100%{transform:translateX(-18px)} }
  .sA{animation:starDriftA 30s linear infinite}
  .sB{animation:starDriftB 45s linear infinite}
  .sC{animation:starDriftC 60s linear infinite}

  @keyframes tw1{0%,100%{opacity:.1}  50%{opacity:.9}}
  @keyframes tw2{0%,100%{opacity:.2}  50%{opacity:.7}}
  @keyframes tw3{0%,100%{opacity:.05} 50%{opacity:.5}}
  .t1{animation:tw1 2s   ease-in-out infinite}
  .t2{animation:tw2 3s   ease-in-out infinite}
  .t3{animation:tw3 1.7s ease-in-out infinite}

  @keyframes scanDown{
    0%  {transform:translateY(-80px);opacity:0}
    12% {opacity:1}
    88% {opacity:1}
    100%{transform:translateY(420px);opacity:0}
  }
  .scanDown{animation:scanDown 4.5s ease-in-out infinite}

  @keyframes orbPulse{0%,100%{transform:scale(1)}50%{transform:scale(1.06)}}
  .orbPulse{animation:orbPulse 3.5s ease-in-out infinite;transform-origin:640px 148px}
  @keyframes orbGlowPulse{0%,100%{opacity:.42}50%{opacity:.72}}
  .orbGP{animation:orbGlowPulse 3.5s ease-in-out infinite}

  @keyframes arcSpin1{from{transform:rotate(0deg)}to{transform:rotate(360deg)}}
  @keyframes arcSpin2{from{transform:rotate(0deg)}to{transform:rotate(-360deg)}}
  .arc1{animation:arcSpin1 9s  linear infinite;transform-origin:640px 148px}
  .arc2{animation:arcSpin2 13s linear infinite;transform-origin:640px 148px}
  .arc3{animation:arcSpin1 20s linear infinite;transform-origin:640px 148px}

  @keyframes raySweep{0%{transform:translateX(-500px)}100%{transform:translateX(500px)}}
  .raySweep{animation:raySweep 4s ease-in-out infinite}

  @keyframes subBreath{0%,100%{opacity:.38;letter-spacing:3.5px}50%{opacity:.62;letter-spacing:2.5px}}
  .subBreath{animation:subBreath 4.5s ease-in-out infinite}

  @keyframes hexSpin{from{transform:rotate(0deg)}to{transform:rotate(360deg)}}
  .hexSpin{animation:hexSpin 22s linear infinite;transform-origin:640px 148px}

  @keyframes nodePulse{0%,100%{r:2;opacity:.28}50%{r:3.2;opacity:.62}}
  .nP{animation:nodePulse 2.8s ease-in-out infinite}

  @keyframes bookFloat{0%,100%{transform:translateY(0px)}50%{transform:translateY(-3px)}}
  .bookFloat{animation:bookFloat 3s ease-in-out infinite}
</style>

<!-- LAYER 0 - background -->
<rect width="1280" height="400" fill="url(#bg)"/>

<!-- LAYER 1 - nebula -->
<rect width="1280" height="400" fill="url(#neb0)"/>
<rect width="1280" height="400" fill="url(#neb1)"/>
<rect width="1280" height="400" fill="url(#nebL)"/>
<rect width="1280" height="400" fill="url(#nebR)"/>

<!-- TOP EDGE GLOW -->
<line x1="0" y1="0.4" x2="1280" y2="0.4" stroke="url(#topEdge)" stroke-width="1" opacity=".6"/>

<!-- LAYER 2 - star fields -->
<g class="sC">
  <circle class="t3" cx="38"   cy="28"  r=".65" fill="#fff" style="animation-delay:.4s"/>
  <circle class="t3" cx="142"  cy="104" r=".55" fill="#fff" style="animation-delay:1.0s"/>
  <circle class="t3" cx="305"  cy="18"  r=".7"  fill="#fff" style="animation-delay:.7s"/>
  <circle class="t3" cx="478"  cy="80"  r=".5"  fill="#fff" style="animation-delay:1.9s"/>
  <circle class="t3" cx="672"  cy="14"  r=".6"  fill="#fff" style="animation-delay:.3s"/>
  <circle class="t3" cx="811"  cy="72"  r=".55" fill="#fff" style="animation-delay:1.4s"/>
  <circle class="t3" cx="988"  cy="24"  r=".65" fill="#fff" style="animation-delay:.8s"/>
  <circle class="t3" cx="1138" cy="96"  r=".5"  fill="#fff" style="animation-delay:1.7s"/>
  <circle class="t3" cx="1228" cy="38"  r=".6"  fill="#fff" style="animation-delay:.15s"/>
  <circle class="t3" cx="82"   cy="176" r=".45" fill="#fff" style="animation-delay:1.3s"/>
  <circle class="t3" cx="1052" cy="144" r=".55" fill="#fff" style="animation-delay:.6s"/>
  <circle class="t3" cx="560"  cy="152" r=".5"  fill="#fff" style="animation-delay:2.1s"/>
</g>
<g class="sB">
  <circle class="t2" cx="72"   cy="64"  r=".9"  fill="#fff" style="animation-delay:.5s"/>
  <circle class="t2" cx="215"  cy="150" r=".85" fill="#fff" style="animation-delay:1.2s"/>
  <circle class="t2" cx="392"  cy="50"  r="1.0" fill="#fff" style="animation-delay:.1s"/>
  <circle class="t2" cx="542"  cy="128" r=".75" fill="#fff" style="animation-delay:1.6s"/>
  <circle class="t2" cx="728"  cy="38"  r=".9"  fill="#fff" style="animation-delay:.75s"/>
  <circle class="t2" cx="902"  cy="110" r=".85" fill="#fff" style="animation-delay:2.0s"/>
  <circle class="t2" cx="1068" cy="56"  r=".95" fill="#fff" style="animation-delay:.3s"/>
  <circle class="t2" cx="1198" cy="130" r=".8"  fill="#fff" style="animation-delay:.95s"/>
  <circle class="t2" cx="175"  cy="84"  r=".9"  fill="#3db8a0" style="animation-delay:1.1s"/>
  <circle class="t2" cx="1105" cy="104" r=".85" fill="#2d6b62" style="animation-delay:.65s"/>
</g>
<g class="sA">
  <circle class="t1" cx="115"  cy="116" r="1.3" fill="#fff" style="animation-delay:.2s"/>
  <circle class="t1" cx="255"  cy="34"  r="1.2" fill="#fff" style="animation-delay:.85s"/>
  <circle class="t1" cx="1158" cy="80"  r="1.4" fill="#fff" style="animation-delay:.4s"/>
  <circle class="t1" cx="1018" cy="30"  r="1.15" fill="#fff" style="animation-delay:1.5s"/>
  <circle class="t1" cx="330"  cy="140" r="1.0" fill="#5ce0c5" style="animation-delay:1.8s"/>
  <circle class="t1" cx="948"  cy="76"  r="1.1" fill="#3db8a0" style="animation-delay:.5s"/>
</g>

<!-- LAYER 3 - perspective grid -->
<g clip-path="url(#main)">
  <path d="M640,200 L-2,400   L62,400  Z" fill="url(#gV)" opacity=".58"/>
  <path d="M640,200 L62,400   L142,400 Z" fill="url(#gV)" opacity=".58"/>
  <path d="M640,200 L142,400  L222,400 Z" fill="url(#gV)" opacity=".58"/>
  <path d="M640,200 L222,400  L302,400 Z" fill="url(#gV)" opacity=".58"/>
  <path d="M640,200 L302,400  L382,400 Z" fill="url(#gV)" opacity=".58"/>
  <path d="M640,200 L382,400  L462,400 Z" fill="url(#gV)" opacity=".58"/>
  <path d="M640,200 L462,400  L542,400 Z" fill="url(#gV)" opacity=".58"/>
  <path d="M640,200 L542,400  L622,400 Z" fill="url(#gV)" opacity=".58"/>
  <path d="M640,200 L622,400  L660,400 Z" fill="url(#gV)" opacity=".58"/>
  <path d="M640,200 L660,400  L740,400 Z" fill="url(#gV)" opacity=".58"/>
  <path d="M640,200 L740,400  L820,400 Z" fill="url(#gV)" opacity=".58"/>
  <path d="M640,200 L820,400  L900,400 Z" fill="url(#gV)" opacity=".58"/>
  <path d="M640,200 L900,400  L980,400 Z" fill="url(#gV)" opacity=".58"/>
  <path d="M640,200 L980,400  L1060,400 Z" fill="url(#gV)" opacity=".58"/>
  <path d="M640,200 L1060,400 L1140,400 Z" fill="url(#gV)" opacity=".58"/>
  <path d="M640,200 L1140,400 L1220,400 Z" fill="url(#gV)" opacity=".58"/>
  <path d="M640,200 L1220,400 L1282,400 Z" fill="url(#gV)" opacity=".58"/>

  <line x1="640" y1="200" x2="-2"    y2="400" stroke="url(#gV)" stroke-width=".5"/>
  <line x1="640" y1="200" x2="142"   y2="400" stroke="url(#gV)" stroke-width=".5"/>
  <line x1="640" y1="200" x2="302"   y2="400" stroke="url(#gV)" stroke-width=".5"/>
  <line x1="640" y1="200" x2="462"   y2="400" stroke="url(#gV)" stroke-width=".5"/>
  <line x1="640" y1="200" x2="640"   y2="400" stroke="url(#gV)" stroke-width=".5"/>
  <line x1="640" y1="200" x2="820"   y2="400" stroke="url(#gV)" stroke-width=".5"/>
  <line x1="640" y1="200" x2="980"   y2="400" stroke="url(#gV)" stroke-width=".5"/>
  <line x1="640" y1="200" x2="1140"  y2="400" stroke="url(#gV)" stroke-width=".5"/>
  <line x1="640" y1="200" x2="1282"  y2="400" stroke="url(#gV)" stroke-width=".5"/>

  <line x1="588" y1="216" x2="692"  y2="216" stroke="url(#gH)" stroke-width=".4"/>
  <line x1="530" y1="234" x2="750"  y2="234" stroke="url(#gH)" stroke-width=".45"/>
  <line x1="448" y1="256" x2="832"  y2="256" stroke="url(#gH)" stroke-width=".5"/>
  <line x1="330" y1="284" x2="950"  y2="284" stroke="url(#gH)" stroke-width=".55"/>
  <line x1="168" y1="316" x2="1112" y2="316" stroke="url(#gH)" stroke-width=".6"/>
  <line x1="0"   y1="356" x2="1280" y2="356" stroke="url(#gH)" stroke-width=".65"/>

  <rect x="0" y="196" width="1280" height="8" fill="url(#horizGlow)" opacity=".58"/>

  <g class="scanDown">
    <line x1="0" y1="280" x2="1280" y2="280" stroke="url(#scanLine)" stroke-width="2" opacity=".72"/>
  </g>
</g>

<!-- LAYER 4 - circuit traces -->
<path d="M530,182  L420,182  L420,256 L280,256" fill="none" stroke="url(#traceA)" stroke-width=".9"/>
<path d="M420,182  L350,182  L350,118 L200,118" fill="none" stroke="url(#traceC)" stroke-width=".8"/>
<path d="M280,256 L180,256 L180,316 L80,316"   fill="none" stroke="url(#traceA)" stroke-width=".7"/>
<path d="M750,182  L860,182  L860,256 L1000,256" fill="none" stroke="url(#traceB)" stroke-width=".9"/>
<path d="M860,182  L930,182  L930,118 L1080,118" fill="none" stroke="url(#traceD)" stroke-width=".8"/>
<path d="M1000,256 L1100,256 L1100,316 L1200,316" fill="none" stroke="url(#traceB)" stroke-width=".7"/>

<!-- node dots -->
<circle class="nP" cx="280" cy="256" r="2"   fill="#3db8a0" style="animation-delay:0s"/>
<circle class="nP" cx="200" cy="118" r="2"   fill="#5ce0c5" style="animation-delay:.6s"/>
<circle class="nP" cx="80"  cy="316" r="1.8" fill="#3db8a0" style="animation-delay:1.2s"/>
<circle class="nP" cx="1000" cy="256" r="2"   fill="#3db8a0" style="animation-delay:.3s"/>
<circle class="nP" cx="1080" cy="118" r="2"  fill="#5ce0c5" style="animation-delay:.9s"/>
<circle class="nP" cx="1200" cy="316" r="1.8" fill="#3db8a0" style="animation-delay:1.5s"/>

<!-- travelling pulse dots -->
<circle r="2.8" fill="#3db8a0" filter="url(#dotBloom)" opacity=".85">
  <animateMotion dur="2.8s" repeatCount="indefinite"><mpath href="#pL1"/></animateMotion>
</circle>
<path id="pL1" d="M530,182 L420,182 L420,256 L280,256" fill="none"/>

<circle r="2.2" fill="#3db8a0" filter="url(#dotBloom)" opacity=".6">
  <animateMotion dur="2.8s" begin="1.4s" repeatCount="indefinite"><mpath href="#pL1"/></animateMotion>
</circle>

<circle r="2.4" fill="#5ce0c5" filter="url(#dotBloom)" opacity=".8">
  <animateMotion dur="3.4s" repeatCount="indefinite"><mpath href="#pL2"/></animateMotion>
</circle>
<path id="pL2" d="M420,182 L350,182 L350,118 L200,118" fill="none"/>

<circle r="2.0" fill="#3db8a0" filter="url(#dotBloom)" opacity=".7">
  <animateMotion dur="4s" repeatCount="indefinite"><mpath href="#pL3"/></animateMotion>
</circle>
<path id="pL3" d="M280,256 L180,256 L180,316 L80,316" fill="none"/>

<circle r="2.8" fill="#3db8a0" filter="url(#dotBloom)" opacity=".85">
  <animateMotion dur="2.8s" repeatCount="indefinite"><mpath href="#pR1"/></animateMotion>
</circle>
<path id="pR1" d="M750,182 L860,182 L860,256 L1000,256" fill="none"/>

<circle r="2.2" fill="#3db8a0" filter="url(#dotBloom)" opacity=".6">
  <animateMotion dur="2.8s" begin="1.4s" repeatCount="indefinite"><mpath href="#pR1"/></animateMotion>
</circle>

<circle r="2.4" fill="#5ce0c5" filter="url(#dotBloom)" opacity=".8">
  <animateMotion dur="3.4s" repeatCount="indefinite"><mpath href="#pR2"/></animateMotion>
</circle>
<path id="pR2" d="M860,182 L930,182 L930,118 L1080,118" fill="none"/>

<circle r="2.0" fill="#3db8a0" filter="url(#dotBloom)" opacity=".7">
  <animateMotion dur="4s" repeatCount="indefinite"><mpath href="#pR3"/></animateMotion>
</circle>
<path id="pR3" d="M1000,256 L1100,256 L1100,316 L1200,316" fill="none"/>

<!-- LAYER 5 - orb -->
<circle class="orbGP" cx="640" cy="148" r="68" fill="url(#orbAtmo)" filter="url(#bloom)"/>

<g class="arc1">
  <ellipse cx="640" cy="148" rx="40" ry="10" fill="none" stroke="#3db8a0" stroke-width=".7" opacity=".25"
           stroke-dasharray="75 55"/>
</g>
<g class="arc2">
  <ellipse cx="640" cy="148" rx="36" ry="20" fill="none" stroke="#5ce0c5" stroke-width=".6" opacity=".2"
           stroke-dasharray="60 72" transform="rotate(35 640 148)"/>
</g>
<g class="arc3">
  <ellipse cx="640" cy="148" rx="12" ry="38" fill="none" stroke="#1f4d47" stroke-width=".55" opacity=".18"
           stroke-dasharray="48 78" transform="rotate(-20 640 148)"/>
</g>

<g class="orbPulse">
  <circle cx="640" cy="148" r="30" fill="url(#orbFill)"/>
  <circle cx="640" cy="148" r="30" fill="none" stroke="#3db8a0" stroke-width=".5" opacity=".18"/>
  <ellipse cx="631" cy="132" rx="7" ry="4" fill="#fff" opacity=".14" filter="url(#softGlow)"/>
</g>

<!-- Book icon inside orb -->
<g class="bookFloat" opacity=".88">
  <g transform="translate(640,148) scale(0.6)">
    <path d="M0,-14 C-6,-14 -14,-12 -14,-4 L-14,10 C-14,12 -6,14 0,12" fill="none" stroke="#fff" stroke-width="1.8" stroke-linecap="round" opacity=".7"/>
    <path d="M0,-14 C6,-14 14,-12 14,-4 L14,10 C14,12 6,14 0,12" fill="none" stroke="#fff" stroke-width="1.8" stroke-linecap="round" opacity=".7"/>
    <line x1="-10" y1="-6" x2="-2" y2="-6" stroke="#5ce0c5" stroke-width=".8" opacity=".5"/>
    <line x1="-10" y1="-2" x2="-2" y2="-2" stroke="#5ce0c5" stroke-width=".8" opacity=".4"/>
    <line x1="-10" y1="2"  x2="-2" y2="2"  stroke="#5ce0c5" stroke-width=".8" opacity=".3"/>
    <line x1="2"   y1="-6" x2="10" y2="-6" stroke="#3db8a0" stroke-width=".8" opacity=".5"/>
    <line x1="2"   y1="-2" x2="10" y2="-2" stroke="#3db8a0" stroke-width=".8" opacity=".4"/>
    <line x1="2"   y1="2"  x2="10" y2="2"  stroke="#3db8a0" stroke-width=".8" opacity=".3"/>
    <line x1="0" y1="-14" x2="0" y2="12" stroke="#fff" stroke-width="1" opacity=".4"/>
  </g>
</g>

<!-- LAYER 6 - hex glyph -->
<g class="hexSpin">
  <polygon points="692,148 666,238.2 614,238.2 588,148 614,57.8 666,57.8"
           fill="none" stroke="url(#hexStroke)" stroke-width=".7"
           stroke-dasharray="22 18" opacity=".18"/>
</g>
<g style="animation:arcSpin2 15s linear infinite;transform-origin:640px 148px">
  <polygon points="672,148 656,203.4 624,203.4 608,148 624,92.6 656,92.6"
           fill="none" stroke="#3db8a0" stroke-width=".55"
           stroke-dasharray="14 22" opacity=".14"/>
</g>

<!-- LAYER 7 - "Awesome" label -->
<text x="640" y="100" text-anchor="middle"
      font-family="'Segoe UI',Inter,'Helvetica Neue',Arial,sans-serif"
      font-size="26" font-weight="600" letter-spacing="6"
      fill="url(#awesomeFill)" filter="url(#awesomeGlow)" opacity=".85">AWESOME</text>

<!-- LAYER 8 - TITLE "SLM-as-a-Judge" -->
<text x="640" y="210" text-anchor="middle"
      font-family="'Segoe UI',Inter,'Helvetica Neue',Arial,sans-serif"
      font-size="100" font-weight="800" letter-spacing="-1"
      fill="#1f4d47" opacity=".35" filter="url(#bloom)">SLM-as-a-Judge</text>

<text x="434" y="210" text-anchor="end"
      font-family="'Segoe UI',Inter,'Helvetica Neue',Arial,sans-serif"
      font-size="100" font-weight="800" letter-spacing="-1"
      fill="url(#slmFill)" filter="url(#titleNeon)">SLM</text>

<text x="441" y="210" text-anchor="start"
      font-family="'Segoe UI',Inter,'Helvetica Neue',Arial,sans-serif"
      font-size="100" font-weight="300" letter-spacing="-1"
      fill="#7ae8d0" filter="url(#titleNeon)" opacity=".82">-as-a-</text>

<text x="704" y="210" text-anchor="start"
      font-family="'Segoe UI',Inter,'Helvetica Neue',Arial,sans-serif"
      font-size="100" font-weight="800" letter-spacing="-1"
      fill="url(#judgeFill)" filter="url(#titleNeon)">Judge</text>

<g clip-path="url(#titleBox)">
  <rect class="raySweep" x="120" y="100" width="1040" height="140" fill="url(#ray)" opacity=".62"/>
</g>

<text x="434" y="210" text-anchor="end"
      font-family="'Segoe UI',Inter,'Helvetica Neue',Arial,sans-serif"
      font-size="100" font-weight="800" letter-spacing="-1"
      fill="none" stroke="url(#neonEdge)" stroke-width=".6" opacity=".42">SLM</text>
<text x="704" y="210" text-anchor="start"
      font-family="'Segoe UI',Inter,'Helvetica Neue',Arial,sans-serif"
      font-size="100" font-weight="800" letter-spacing="-1"
      fill="none" stroke="url(#neonEdge)" stroke-width=".6" opacity=".42">Judge</text>

<!-- LAYER 9 - subtitle -->
<text class="subBreath" x="640" y="262" text-anchor="middle"
      font-family="'Segoe UI',Inter,'Helvetica Neue',Arial,sans-serif"
      font-size="18" font-weight="300" fill="#7ae8d0" letter-spacing="3.5">
  A Curated Survey of Small Language Models as Judges
</text>

<!-- LAYER 10 - stat badges -->
<g opacity=".72">
  <rect x="245" y="290" width="120" height="28" rx="14" fill="none" stroke="#1f4d47" stroke-width=".6" opacity=".5"/>
  <text x="305" y="309" text-anchor="middle" font-family="'Segoe UI',Inter,sans-serif" font-size="13" font-weight="600" fill="#7ae8d0">📑 60+ Papers</text>

  <rect x="380" y="290" width="120" height="28" rx="14" fill="none" stroke="#3db8a0" stroke-width=".6" opacity=".5"/>
  <text x="440" y="309" text-anchor="middle" font-family="'Segoe UI',Inter,sans-serif" font-size="13" font-weight="600" fill="#3db8a0">🎯 ≤14B Params</text>

  <rect x="515" y="290" width="155" height="28" rx="14" fill="none" stroke="#5ce0c5" stroke-width=".6" opacity=".5"/>
  <text x="592" y="309" text-anchor="middle" font-family="'Segoe UI',Inter,sans-serif" font-size="13" font-weight="600" fill="#5ce0c5">⚖️ 15+ Judge Systems</text>

  <rect x="685" y="290" width="145" height="28" rx="14" fill="#1f4d47" fill-opacity=".15" stroke="#2d6b62" stroke-width=".6" opacity=".55"/>
  <text x="757" y="309" text-anchor="middle" font-family="'Segoe UI',Inter,sans-serif" font-size="13" font-weight="700" fill="#a8f0de">🧬 5 Model Families</text>

  <rect x="845" y="290" width="140" height="28" rx="14" fill="none" stroke="#3db8a0" stroke-width=".6" opacity=".4"/>
  <text x="915" y="309" text-anchor="middle" font-family="'Segoe UI',Inter,sans-serif" font-size="13" font-weight="600" fill="#7ae8d0">🔬 10 Benchmarks</text>
</g>

<!-- LAYER 11 - corner accents -->
<path d="M0,0 L45,0" stroke="#1f4d47" stroke-width="1" opacity=".3"/>
<path d="M0,0 L0,45" stroke="#1f4d47" stroke-width="1" opacity=".3"/>
<circle cx="45" cy="0" r="1.5" fill="#2d6b62" opacity=".4"/>
<circle cx="0" cy="45" r="1.5" fill="#2d6b62" opacity=".4"/>

<path d="M1280,0 L1235,0" stroke="#3db8a0" stroke-width="1" opacity=".3"/>
<path d="M1280,0 L1280,45" stroke="#3db8a0" stroke-width="1" opacity=".3"/>
<circle cx="1235" cy="0" r="1.5" fill="#3db8a0" opacity=".4"/>
<circle cx="1280" cy="45" r="1.5" fill="#3db8a0" opacity=".4"/>

<path d="M0,400 L45,400" stroke="#3db8a0" stroke-width="1" opacity=".3"/>
<path d="M0,400 L0,355" stroke="#3db8a0" stroke-width="1" opacity=".3"/>
<circle cx="45" cy="400" r="1.5" fill="#3db8a0" opacity=".4"/>
<circle cx="0" cy="355" r="1.5" fill="#3db8a0" opacity=".4"/>

<path d="M1280,400 L1235,400" stroke="#1f4d47" stroke-width="1" opacity=".3"/>
<path d="M1280,400 L1280,355" stroke="#1f4d47" stroke-width="1" opacity=".3"/>
<circle cx="1235" cy="400" r="1.5" fill="#2d6b62" opacity=".4"/>
<circle cx="1280" cy="355" r="1.5" fill="#2d6b62" opacity=".4"/>

<!-- LAYER 12 - bottom edge -->
<line x1="0" y1="399.6" x2="1280" y2="399.6" stroke="url(#bottomEdge)" stroke-width="1.1" opacity=".68"/>
</svg>
