<svg xmlns="http://www.w3.org/2000/svg" xmlns:xlink="http://www.w3.org/1999/xlink" xmlns:inkscape="http://www.inkscape.org/namespaces/inkscape" version="1.1" width="292.34687" height="225.97107" viewBox="0 0 292.34687 225.97107">
<defs>
<path id="font_1_9" d="M.1171875 .12988281H.28320313V.6015625L.11279297 .56640627V.69433596L.28222657 .7294922H.4609375V.12988281H.6269531V0H.1171875V.12988281Z"/>
<path id="font_1_41" d="M.22216797 .27978517 .024902344 .546875H.20996094L.32177735 .38476563 .4350586 .546875H.6201172L.42285157 .28076173 .6298828 0H.44482423L.32177735 .17285156 .20019531 0H.015136719L.22216797 .27978517Z"/>
<path id="font_1_11" d="M.4658203 .39257813C.51497396 .3798828 .55232748 .35782878 .57788088 .32641603 .60343429 .29500328 .61621096 .25504557 .61621096 .20654297 .61621096 .13427735 .5885417 .0793457 .5332031 .041748048 .4778646 .0041503908 .3971354-.0146484379 .29101563-.0146484379 .25358073-.0146484379 .21606446-.01163737 .1784668-.0056152346 .14086914 .00040690104 .10367838 .0094401049 .06689453 .021484375V.16699219C.10205078 .1492513 .13696289 .13586426 .17163086 .12683106 .20629883 .11779785 .24039714 .11328125 .27392579 .11328125 .32373048 .11328125 .3618978 .121907558 .38842774 .13916016 .41495768 .15641277 .42822267 .18115235 .42822267 .2133789 .42822267 .24658203 .41463218 .27172853 .38745118 .28881837 .36027018 .3059082 .32014976 .31445313 .26708985 .31445313H.19189453V.43554688H.2709961C.31819663 .43554688 .35335288 .44295249 .37646485 .45776368 .3995768 .47257487 .4111328 .4951172 .4111328 .5253906 .4111328 .55338546 .39990235 .57503256 .3774414 .59033206 .35498048 .60563156 .3232422 .61328127 .28222657 .61328127 .25195313 .61328127 .22135417 .6098226 .19042969 .6029053 .1595052 .595988 .12874349 .5857747 .09814453 .5722656V.70996096C.1352539 .7207031 .17203777 .72875979 .2084961 .73413088 .24495442 .73950198 .28076173 .7421875 .31591798 .7421875 .41064454 .7421875 .4815267 .72661849 .52856448 .69548037 .57560226 .6643524 .5991211 .61749777 .5991211 .5549164 .5991211 .5122121 .5878906 .47724916 .5654297 .45002748 .54296877 .42281596 .5097656 .40366618 .4658203 .39257813Z"/>
<path id="font_1_14" d="M.06689453 .7294922H.61621096V.62345889L.33203126 0H.14892578L.41796876 .5908203H.06689453V.7294922Z"/>
<path id="font_1_10" d="M.28808595 .13867188H.6088867V0H.07910156V.13867188L.34521485 .37324525C.36897788 .39466859 .386556 .41560365 .39794923 .43605042 .40934245 .4564972 .41503907 .47775779 .41503907 .49983216 .41503907 .5339203 .40356446 .5613505 .38061524 .5821228 .35766603 .6028951 .32714845 .61328127 .2890625 .61328127 .25976563 .61328127 .22770183 .60705569 .1928711 .5946045 .15804036 .5821533 .12076823 .56363937 .08105469 .5390625V.69921877C.1233724 .7132161 .16520183 .72387698 .20654297 .7312012 .24788411 .7385254 .28841148 .7421875 .328125 .7421875 .4153646 .7421875 .4831543 .72299197 .53149417 .68460085 .579834 .6462199 .6040039 .5927124 .6040039 .52407839 .6040039 .48438517 .59375 .44737754 .5732422 .41305543 .5527344 .3787435 .50960287 .3327993 .44384767 .27522279L.28808595 .13867188Z"/>
<path id="font_1_22" d="M.35888673 .40625C.39827476 .40625 .42651368 .41355387 .44360353 .42816163 .46069337 .44276939 .46923829 .46679688 .46923829 .50024417 .46923829 .5333557 .46069337 .5570526 .44360353 .57133486 .42651368 .58562728 .39827476 .59277346 .35888673 .59277346H.27978517V.40625H.35888673M.27978517 .2763672V0H.091796878V.7294922H.37890626C.4749349 .7294922 .5453288 .7133789 .5900879 .68115237 .634847 .6489258 .65722659 .59798178 .65722659 .5283203 .65722659 .48014323 .6455892 .44059245 .62231448 .40966798 .59903976 .3787435 .56396487 .35595704 .51708987 .3413086 .54280599 .33543907 .5658366 .3221588 .58618167 .3014679 .6065267 .28078715 .6271159 .24943035 .6479492 .20739746L.75 0H.5498047L.4609375 .18147278C.44303385 .21799214 .42488609 .24293518 .40649415 .25630189 .3881022 .26967875 .36360679 .2763672 .3330078 .2763672H.27978517Z"/>
<path id="font_1_27" d="M.6298828 .2756195V.22558594H.2211914C.22542317 .1842448 .24023438 .15323894 .265625 .13256836 .29101563 .11189779 .3264974 .1015625 .3720703 .1015625 .40885417 .1015625 .4465332 .107055667 .48510743 .11804199 .52368167 .12902832 .5633138 .14567058 .6040039 .16796875V.033203126C.5626628 .017415366 .5213216 .005493164 .47998048-.0025634766 .4386393-.010620117 .3972982-.0146484379 .35595704-.0146484379 .2569987-.0146484379 .1800944 .010538737 .12524414 .060913087 .07039388 .11129761 .04296875 .18197632 .04296875 .27294923 .04296875 .36229453 .0699056 .43256126 .1237793 .4837494 .177653 .5349477 .25179038 .5605469 .3461914 .5605469 .4321289 .5605469 .5008952 .5346883 .55249026 .4829712 .60408529 .43125407 .6298828 .36213685 .6298828 .2756195M.4501953 .33398438C.4501953 .36704508 .44051109 .39370219 .42114259 .4139557 .40177409 .4342092 .37646485 .44433595 .34521485 .44433595 .3113607 .44433595 .28385417 .43485514 .2626953 .41589356 .24153646 .39693199 .22835286 .3696289 .22314453 .33398438H.4501953Z"/>
<path id="font_1_31" d="M.083984378 .7597656H.25878907V0H.083984378V.7597656Z"/>
<path id="font_1_25" d="M.32910157 .24511719C.29264323 .24511719 .2652181 .23895264 .24682617 .22662354 .22843425 .21429444 .21923828 .1961263 .21923828 .17211914 .21923828 .15006511 .22664388 .13279216 .24145508 .12030029 .25626628 .10780843 .27685548 .1015625 .30322267 .1015625 .33610026 .1015625 .36376954 .11332194 .38623048 .13684082 .4086914 .1603597 .41992188 .189799 .41992188 .22515869V.24511719H.32910157M.5961914 .31134034V0H.41992188V.08105469C.39648438 .04767863 .3701172 .023381552 .3408203 .008163452 .31152345-.007044474 .2758789-.0146484379 .23388672-.0146484379 .1772461-.0146484379 .13126628 .0018717448 .095947269 .03491211 .060628255 .06795248 .04296875 .110839847 .04296875 .16357422 .04296875 .22770183 .06502279 .2747396 .10913086 .3046875 .15323894 .3346354 .22249349 .34960938 .31689454 .34960938H.41992188V.3635559C.41992188 .39146934 .40901695 .411911 .38720704 .42488099 .36539714 .43785096 .33138023 .44433595 .28515626 .44433595 .24772136 .44433595 .21289063 .44059245 .18066406 .43310548 .1484375 .4256185 .118489589 .41438804 .09082031 .39941407V.5332031C.1282552 .54215499 .16585286 .5489502 .20361328 .55358889 .2413737 .55822756 .27913413 .5605469 .31689454 .5605469 .41552735 .5605469 .48673503 .54100546 .5305176 .5019226 .5743001 .46283976 .5961914 .39931236 .5961914 .31134034Z"/>
<path id="font_1_38" d="M.27490235 .70214846V.546875H.45507813V.421875H.27490235V.1899414C.27490235 .16455078 .2799479 .14737956 .29003907 .13842774 .30013023 .1294759 .32014976 .125 .35009767 .125H.4399414V0H.29003907C.22102864 0 .17211914 .014404297 .14331055 .04321289 .11450195 .072021488 .100097659 .12093099 .100097659 .1899414V.421875H.013183594V.546875H.100097659V.70214846H.27490235Z"/>
<path id="font_1_30" d="M.083984378 .546875H.25878907V0H.083984378V.546875M.083984378 .7597656H.25878907V.6171875H.083984378V.7597656Z"/>
<path id="font_1_40" d="M.015136719 .546875H.1899414L.32617188 .16894531 .46191407 .546875H.63720706L.421875 0H.22998047L.015136719 .546875Z"/>
<path id="font_1_3" d=""/>
<path id="font_1_26" d="M.5258789 .53027346V.3876953C.5021159 .40397135 .47827149 .41601563 .4543457 .42382813 .43041993 .43164063 .40559898 .43554688 .3798828 .43554688 .3310547 .43554688 .29305015 .42125956 .26586915 .39268495 .23868816 .36412049 .22509766 .3242086 .22509766 .27294923 .22509766 .22168987 .23868816 .18177288 .26586915 .15319824 .29305015 .12463379 .3310547 .11035156 .3798828 .11035156 .40722657 .11035156 .43318687 .114461269 .45776368 .122680667 .48234049 .13090007 .5050456 .1430664 .5258789 .15917969V.015625C.49853517 .005533854 .47078453-.0020345052 .44262696-.007080078 .4144694-.012125651 .38623048-.0146484379 .35791017-.0146484379 .25927735-.0146484379 .1821289 .010701497 .12646485 .061401369 .07080078 .11211141 .04296875 .18262737 .04296875 .27294923 .04296875 .3632711 .07080078 .43378196 .12646485 .4844818 .1821289 .53519186 .25927735 .5605469 .35791017 .5605469 .386556 .5605469 .41479493 .5580241 .44262696 .5529785 .47045899 .5479329 .49820964 .54036459 .5258789 .53027346Z"/>
<path id="font_1_34" d="M.34423829 .43554688C.3055013 .43554688 .2759603 .42159019 .25561524 .39367677 .23527019 .36576335 .22509766 .32552085 .22509766 .27294923 .22509766 .22037761 .23527019 .18013509 .25561524 .15222168 .2759603 .124308269 .3055013 .11035156 .34423829 .11035156 .38232423 .11035156 .41145835 .124308269 .43164063 .15222168 .4518229 .18013509 .46191407 .22037761 .46191407 .27294923 .46191407 .32552085 .4518229 .36576335 .43164063 .39367677 .41145835 .42159019 .38232423 .43554688 .34423829 .43554688M.34423829 .5605469C.4383138 .5605469 .5118001 .5351105 .56469729 .48423768 .6175944 .43337504 .64404299 .36294557 .64404299 .27294923 .64404299 .18295288 .6175944 .11251831 .56469729 .061645509 .5118001 .010782878 .4383138-.0146484379 .34423829-.0146484379 .24983724-.0146484379 .17602539 .010782878 .122802738 .061645509 .06958008 .11251831 .04296875 .18295288 .04296875 .27294923 .04296875 .36294557 .06958008 .43337504 .122802738 .48423768 .17602539 .5351105 .24983724 .5605469 .34423829 .5605469Z"/>
<path id="font_1_37" d="M.51123049 .53027346V.39746095C.47379557 .41308595 .43766276 .4248047 .40283204 .4326172 .3680013 .4404297 .3351237 .44433595 .30419923 .44433595 .2709961 .44433595 .24633789 .44017539 .23022461 .43185426 .21411133 .4235433 .20605469 .41074119 .20605469 .39344789 .20605469 .37941996 .2121582 .36865235 .22436524 .36114503 .23657227 .35364787 .25846354 .34810386 .29003907 .34451295L.32080079 .34010316C.410319 .32868959 .47054038 .30993144 .50146487 .28382875 .53238937 .2577362 .54785159 .21679688 .54785159 .16101074 .54785159 .102620448 .5263672 .058746339 .48339845 .029388428 .4404297 .000030517579 .3763021-.0146484379 .29101563-.0146484379 .2548828-.0146484379 .2175293-.01180013 .17895508-.0061035158 .14038086-.00040690104 .100748699 .0081380209 .060058595 .01953125V.15234375C.09488932 .13541667 .13061524 .12272135 .16723633 .11425781 .20385742 .10579427 .24104817 .1015625 .2788086 .1015625 .31298829 .1015625 .33870445 .106292728 .35595704 .115753177 .37320964 .12521363 .38183595 .13924153 .38183595 .15783692 .38183595 .17349243 .37589518 .18515015 .36401368 .19281006 .35213218 .20048015 .32845054 .20643616 .29296876 .2106781L.26220704 .21459961C.18440755 .22438558 .12988281 .2424876 .09863281 .26890565 .06738281 .29533387 .051757814 .33545939 .051757814 .38928224 .051757814 .44734703 .071614589 .49040733 .111328128 .51846316 .15104167 .546519 .21191406 .5605469 .2939453 .5605469 .32617188 .5605469 .36002604 .55810549 .3955078 .55322268 .4309896 .54833987 .4695638 .5406901 .51123049 .53027346Z"/>
<path id="font_1_4" d="M.37695313-.13183594H.2319336C.1821289-.051432294 .14534505 .024983725 .12158203 .09741211 .09781901 .1698405 .0859375 .24169922 .0859375 .31298829 .0859375 .38427735 .09790039 .45646159 .12182617 .529541 .14575196 .6026204 .18245442 .67903646 .2319336 .75878909H.37695313C.33528648 .6816406 .30403648 .6062012 .28320313 .5324707 .26236979 .45874024 .25195313 .38590495 .25195313 .31396485 .25195313 .24202474 .26228843 .16910808 .28295899 .095214847 .30362956 .021321616 .33496095-.05436198 .37695313-.13183594Z"/>
<path id="font_1_29" d="M.4560547 .09277344C.43196617 .060872396 .4054362 .037434896 .37646485 .022460938 .3474935 .007486979 .31396485 0 .2758789 0 .20914714 0 .15397136 .026306153 .11035156 .07891846 .06673177 .13154094 .044921876 .19857788 .044921876 .2800293 .044921876 .36180625 .06673177 .4288381 .11035156 .48112489 .15397136 .5334218 .20914714 .5595703 .2758789 .5595703 .31396485 .5595703 .3474935 .55204269 .37646485 .5369873 .4054362 .52194216 .43196617 .49821983 .4560547 .4658203V.546875H.63183596V.05517578C.63183596-.032714845 .60408529-.099853519 .548584-.14624024 .49308268-.19262696 .41259767-.21582031 .3071289-.21582031 .27294923-.21582031 .23990886-.21317546 .20800781-.20788574 .17610677-.20259603 .14404297-.1944987 .111816409-.18359375V-.046875C.14241536-.06461588 .17236328-.07784017 .20166016-.08654785 .23095703-.09525553 .26041667-.099609378 .29003907-.099609378 .34733073-.099609378 .3893229-.08711243 .41601563-.06211853 .44270835-.037134809 .4560547 .0019632977 .4560547 .05517578V.09277344M.3408203 .43359376C.3046875 .43359376 .27652995 .42022706 .25634767 .39349366 .23616536 .36676026 .22607422 .3289388 .22607422 .2800293 .22607422 .2298177 .23583985 .19175212 .2553711 .16583252 .27490235 .13991292 .3033854 .12695313 .3408203 .12695313 .37727867 .12695313 .40559898 .14031983 .42578126 .16705323 .44596354 .19378662 .4560547 .23144531 .4560547 .2800293 .4560547 .3289388 .44596354 .36676026 .42578126 .39349366 .40559898 .42022706 .37727867 .43359376 .3408203 .43359376Z"/>
<path id="font_1_5" d="M.080078128-.13183594C.12174479-.05436198 .1529948 .021321616 .17382813 .095214847 .19466146 .16910808 .20507813 .24202474 .20507813 .31396485 .20507813 .38590495 .19466146 .45874024 .17382813 .5324707 .1529948 .6062012 .12174479 .6816406 .080078128 .75878909H.22509766C.2745768 .67903646 .3112793 .6026204 .33520509 .529541 .35913087 .45646159 .37109376 .38427735 .37109376 .31298829 .37109376 .24169922 .35921226 .1698405 .33544923 .09741211 .3116862 .024983725 .27490235-.051432294 .22509766-.13183594H.080078128Z"/>
<clipPath id="clip_2">
<path transform="matrix(1,0,0,-1,0,225.97107)" d="M51.866876 36.679376H288.0269V217.47138H51.866876Z"/>
</clipPath>
<path id="font_1_8" d="M.45996095 .3647461C.45996095 .45589195 .45141603 .5201009 .43432618 .55737307 .41723634 .5946452 .38850913 .61328127 .34814454 .61328127 .30777995 .61328127 .27897135 .5946452 .26171876 .55737307 .24446614 .5201009 .23583985 .45589195 .23583985 .3647461 .23583985 .2726237 .24446614 .2076823 .26171876 .16992188 .27897135 .13216146 .30777995 .11328125 .34814454 .11328125 .3881836 .11328125 .41682945 .13216146 .43408204 .16992188 .45133464 .2076823 .45996095 .2726237 .45996095 .3647461M.6479492 .3635254C.6479492 .24267578 .62190756 .1494344 .5698242 .08380127 .5177409 .01816813 .44384767-.0146484379 .34814454-.0146484379 .25211589-.0146484379 .17805989 .01816813 .12597656 .08380127 .07389323 .1494344 .047851564 .24267578 .047851564 .3635254 .047851564 .48470054 .07389323 .5781047 .12597656 .6437378 .17805989 .7093709 .25211589 .7421875 .34814454 .7421875 .44384767 .7421875 .5177409 .7093709 .5698242 .6437378 .62190756 .5781047 .6479492 .48470054 .6479492 .3635254Z"/>
<path id="font_1_7" d="M.10205078 .18945313H.27783204V0H.10205078V.18945313Z"/>
<path id="font_1_13" d="M.10595703 .7294922H.5732422V.5908203H.25585938V.47798158C.27018229 .48189799 .28458659 .48491923 .29907228 .4870453 .31355796 .48917137 .32861329 .49023438 .34423829 .49023438 .43310548 .49023438 .5022786 .46799723 .5517578 .42352296 .601237 .37904869 .62597659 .31705729 .62597659 .23754883 .62597659 .1586914 .59903976 .096944179 .545166 .05230713 .49129234 .0076700847 .4165039-.0146484379 .32080079-.0146484379 .27945964-.0146484379 .23852539-.010701497 .19799805-.0028076173 .1574707 .005086263 .1171875 .017089844 .07714844 .033203126V.18164063C.11686198 .15885417 .15454102 .14176433 .19018555 .1303711 .22583008 .11897787 .2594401 .11328125 .29101563 .11328125 .33658854 .11328125 .3724772 .124430339 .39868165 .14672852 .42488609 .16902669 .43798829 .19921875 .43798829 .23730469 .43798829 .27571617 .42488609 .3059896 .39868165 .328125 .3724772 .3502604 .33658854 .36132813 .29101563 .36132813 .2639974 .36132813 .2351888 .35782878 .20458985 .35083009 .17399089 .3438314 .14111328 .3330078 .10595703 .31835938V.7294922Z"/>
<clipPath id="clip_3">
<path transform="matrix(1,0,0,-1,0,225.97107)" d="M51.866876 36.679376H288.0269V217.47138H51.866876Z"/>
</clipPath>
<path id="font_1_15" d="M.34814454 .32617188C.31298829 .32617188 .28597007 .31654869 .26708985 .29730226 .24820964 .27805583 .23876953 .25048829 .23876953 .21459961 .23876953 .17871094 .24820964 .15122478 .26708985 .13214112 .28597007 .11305746 .31298829 .103515628 .34814454 .103515628 .38297526 .103515628 .40966798 .11305746 .42822267 .13214112 .44677735 .15122478 .4560547 .17871094 .4560547 .21459961 .4560547 .2508138 .44677735 .27846275 .42822267 .2975464 .40966798 .31663005 .38297526 .32617188 .34814454 .32617188M.2109375 .388443C.16666667 .40177918 .13330078 .42227174 .110839847 .44992066 .088378909 .47756959 .07714844 .5120494 .07714844 .55336 .07714844 .6148427 .100097659 .6616821 .1459961 .6938782 .19189453 .7260844 .25927735 .7421875 .34814454 .7421875 .4363607 .7421875 .50341799 .7261658 .5493164 .6941223 .59521487 .66208907 .61816409 .6151683 .61816409 .55336 .61816409 .5120494 .60685226 .47756959 .5842285 .44992066 .5616048 .42227174 .52815756 .40177918 .48388673 .388443 .5333659 .37475077 .5707194 .3524933 .59594729 .32167054 .6211751 .29084779 .63378909 .25195823 .63378909 .20500183 .63378909 .1325938 .6097819 .07788086 .5617676 .040863038 .51375326 .0038553875 .44254557-.0146484379 .34814454-.0146484379 .25341798-.0146484379 .18188477 .0038553875 .13354492 .040863038 .08520508 .07788086 .061035158 .1325938 .061035158 .20500183 .061035158 .25195823 .073649089 .29084779 .09887695 .32167054 .12410482 .3524933 .16145833 .37475077 .2109375 .388443M.2548828 .5344238C.2548828 .5055339 .26293946 .48329673 .27905274 .4677124 .29516603 .45212809 .31819663 .44433595 .34814454 .44433595 .3774414 .44433595 .4000651 .45212809 .41601563 .4677124 .43196617 .48329673 .4399414 .5055339 .4399414 .5344238 .4399414 .5633138 .43196617 .58546957 .41601563 .6008911 .4000651 .6163127 .3774414 .62402346 .34814454 .62402346 .31819663 .62402346 .29516603 .61623129 .27905274 .600647 .26293946 .5850627 .2548828 .5629883 .2548828 .5344238Z"/>
<clipPath id="clip_4">
<path transform="matrix(1,0,0,-1,0,225.97107)" d="M51.866876 36.679376H288.0269V217.47138H51.866876Z"/>
</clipPath>
<clipPath id="clip_5">
<path transform="matrix(1,0,0,-1,0,225.97107)" d="M51.866876 36.679376H288.0269V217.47138H51.866876Z"/>
</clipPath>
<path id="font_1_16" d="M.100097659 .015625V.15039063C.13004558 .13639324 .1586914 .12589519 .18603516 .118896488 .2133789 .11189779 .24039714 .10839844 .26708985 .10839844 .32307945 .10839844 .36669923 .12398275 .39794923 .15515137 .42919923 .18631999 .44759117 .23258464 .453125 .2939453 .4309896 .27766929 .4073893 .26546226 .38232423 .25732423 .35725913 .2491862 .33007813 .24511719 .30078126 .24511719 .22623699 .24511719 .166097 .2668457 .12036133 .31030274 .07462565 .35375978 .051757814 .41097007 .051757814 .4819336 .051757814 .5603841 .07722982 .62320968 .12817383 .67041018 .17911785 .71761068 .24739583 .74121096 .3330078 .74121096 .4280599 .74121096 .5016276 .7091268 .55371096 .6449585 .60579428 .5807902 .63183596 .49007163 .63183596 .37280274 .63183596 .25228883 .6013997 .1575826 .54052737 .08868408 .47965495 .019795737 .39615885-.0146484379 .29003907-.0146484379 .25585938-.0146484379 .22314453-.012125651 .19189453-.007080078 .16064453-.0020345052 .13004558 .005533854 .100097659 .015625M.33203126 .3671875C.36490885 .3671875 .38964845 .3778483 .40625 .39916993 .42285157 .42049156 .43115235 .45247398 .43115235 .4951172 .43115235 .5374349 .42285157 .56933596 .40625 .5908203 .38964845 .6123047 .36490885 .6230469 .33203126 .6230469 .29915367 .6230469 .27441407 .6123047 .2578125 .5908203 .24121094 .56933596 .23291016 .5374349 .23291016 .4951172 .23291016 .45247398 .24121094 .42049156 .2578125 .39916993 .27441407 .3778483 .29915367 .3671875 .33203126 .3671875Z"/>
<clipPath id="clip_6">
<path transform="matrix(1,0,0,-1,0,225.97107)" d="M51.866876 36.679376H288.0269V217.47138H51.866876Z"/>
</clipPath>
<path id="font_1_18" d="M.091796878 .7294922H.27978517V.45214845H.5571289V.7294922H.7451172V0H.5571289V.3095703H.27978517V0H.091796878V.7294922Z"/>
<path id="font_1_39" d="M.078125 .21289063V.546875H.25390626V.4921875C.25390626 .4625651 .2537435 .42537437 .25341798 .38061524 .25309245 .3358561 .2529297 .3059896 .2529297 .29101563 .2529297 .24707031 .254069 .2154134 .25634767 .19604492 .2586263 .17667644 .26253257 .16259766 .2680664 .1538086 .27522788 .14241536 .28458659 .1336263 .29614259 .1274414 .30769859 .12125651 .32096354 .11816406 .3359375 .11816406 .37239585 .11816406 .40104167 .13216146 .421875 .16015625 .44270835 .18815105 .453125 .22705078 .453125 .27685548V.546875H.6279297V0H.453125V.07910156C.4267578 .04703776 .3988444 .02339681 .36938478 .008178711 .33992515-.007039388 .30745445-.0146484379 .27197267-.0146484379 .20882161-.0146484379 .1607259 .004760742 .12768555 .0435791 .09464518 .08239746 .078125 .13883464 .078125 .21289063Z"/>
<path id="font_1_32" d="M.5908203 .45619203C.61295577 .49015809 .6392415 .51604208 .66967776 .533844 .70011398 .55164596 .7335612 .5605469 .77001956 .5605469 .83284506 .5605469 .8806966 .5411682 .9135742 .5024109 .94645187 .46365357 .9628906 .40731303 .9628906 .33338929V0H.7871094V.28547669C.7874349 .28970848 .787679 .29410807 .7878418 .29867555 .7880046 .303243 .78808596 .30976359 .78808596 .3182373 .78808596 .35701499 .78238937 .38512168 .7709961 .40255738 .75960287 .41999308 .74121096 .42871095 .7158203 .42871095 .6826172 .42871095 .6569824 .4150238 .638916 .38764955 .6208496 .36027528 .6114909 .3206787 .61083987 .26885987V0H.4350586V.28547669C.4350586 .34609477 .42985026 .38512168 .4194336 .40255738 .40901695 .41999308 .39046226 .42871095 .36376954 .42871095 .33024089 .42871095 .30436198 .4149424 .2861328 .3874054 .26790367 .35986839 .25878907 .32051597 .25878907 .26934815V0H.08300781V.546875H.25878907V.46679688C.28027345 .49788413 .30493165 .52128097 .33276368 .5369873 .3605957 .55269369 .39127604 .5605469 .4248047 .5605469 .4625651 .5605469 .495931 .5514018 .52490237 .5331116 .5538737 .51482138 .5758464 .48918153 .5908203 .45619203Z"/>
<path id="font_1_33" d="M.63378909 .33338929V0H.4580078V.054260255 .25517274C.4580078 .3024241 .45694987 .3350118 .45483399 .3529358 .4527181 .37085978 .449056 .38405863 .44384767 .39253236 .43701173 .40394593 .42773438 .41282655 .41601563 .4191742 .40429688 .425532 .39095054 .42871095 .37597657 .42871095 .33951823 .42871095 .3108724 .4146169 .29003907 .38642884 .26920573 .35824076 .25878907 .31921388 .25878907 .26934815V0H.083984378V.546875H.25878907V.46679688C.28515626 .4988607 .31315104 .52250167 .34277345 .5377197 .37239585 .5529378 .4051107 .5605469 .44091798 .5605469 .50406906 .5605469 .55200198 .5411682 .5847168 .5024109 .61743167 .46365357 .63378909 .40731303 .63378909 .33338929Z"/>
<path id="font_1_36" d="M.49023438 .39746095C.4749349 .40478517 .4597168 .41019694 .44458009 .4136963 .42944337 .41719566 .41422526 .4189453 .39892579 .4189453 .3540039 .4189453 .31941734 .4045156 .29516603 .37565614 .2709147 .34679667 .25878907 .3054606 .25878907 .25164796V0H.083984378V.546875H.25878907V.45703126C.28125 .49301148 .30704753 .5192566 .33618165 .5357666 .36531578 .5522868 .40022788 .5605469 .44091798 .5605469 .44677735 .5605469 .453125 .56029257 .45996095 .55978396 .46679688 .55928549 .47672526 .55819198 .4897461 .5565033L.49023438 .39746095Z"/>
<clipPath id="clip_7">
<path transform="matrix(1,0,0,-1,0,225.97107)" d="M51.866876 36.679376H288.0269V217.47138H51.866876Z"/>
</clipPath>
<path id="font_1_23" d="M.5991211 .7059326V.55078127C.55908206 .56884768 .52001956 .5824788 .4819336 .5916748 .44384767 .6008708 .4078776 .60546877 .37402345 .60546877 .32910157 .60546877 .29589845 .59927877 .27441407 .5868988 .2529297 .574529 .2421875 .5553131 .2421875 .5292511 .2421875 .50970968 .24943035 .4944814 .26391603 .48356629 .2784017 .47265116 .3046875 .46328736 .34277345 .45547486L.42285157 .4394226C.50390627 .42314659 .56152346 .39840699 .5957031 .36520387 .6298828 .3320109 .64697268 .28481547 .64697268 .22361756 .64697268 .14321392 .62312826 .08339945 .57543948 .044174196 .5277507 .0049591066 .45491538-.0146484379 .3569336-.0146484379 .31070964-.0146484379 .2643229-.010238647 .21777344-.0014190674 .17122396 .0074005129 .12467448 .020467123 .078125 .03778076V.19726563C.12467448 .17236328 .16967774 .15360515 .21313477 .14099121 .2565918 .12837728 .2985026 .12207031 .3388672 .12207031 .3798828 .12207031 .41129557 .12891133 .43310548 .14259339 .45491538 .15627544 .4658203 .17582195 .4658203 .20123291 .4658203 .22402954 .4584147 .24161785 .44360353 .2539978 .42879234 .26637779 .3992513 .27745567 .35498048 .28723146L.28222657 .30326844C.20930989 .31889344 .15600586 .34379069 .12231445 .3779602 .08862305 .4121399 .071777347 .45820109 .071777347 .5161438 .071777347 .5887248 .095214847 .64454147 .14208985 .68359377 .18896485 .72265627 .25634767 .7421875 .34423829 .7421875 .38427735 .7421875 .42545573 .73916628 .46777345 .7331238 .5100911 .7270813 .5538737 .7180176 .5991211 .7059326Z"/>
<path id="font_1_19" d="M.091796878 .7294922H.27978517V.14257813H.6098633V0H.091796878V.7294922Z"/>
<path id="font_1_20" d="M.091796878 .7294922H.3310547L.4970703 .33935548 .6640625 .7294922H.90283206V0H.72509768V.5336914L.5571289 .140625H.43798829L.27001954 .5336914V0H.091796878V.7294922Z"/>
<path id="font_1_28" d="M.44384767 .7597656V.64453127H.34716798C.32242839 .64453127 .30517579 .6400757 .29541017 .63116458 .28564454 .6222636 .28076173 .60680136 .28076173 .58477786V.546875H.43017579V.421875H.28076173V0H.10595703V.421875H.019042969V.546875H.10595703V.58477786C.10595703 .6444092 .122558597 .6884816 .15576172 .71699526 .18896485 .74550887 .24039714 .7597656 .3100586 .7597656H.44384767Z"/>
<path id="font_1_6" d="M.05419922 .359375H.36083985V.21679688H.05419922V.359375Z"/>
<path id="font_1_35" d="M.25878907 .07910156V-.20800781H.083984378V.546875H.25878907V.46679688C.2828776 .4988607 .3095703 .52250167 .3388672 .5377197 .36816407 .5529378 .40185548 .5605469 .4399414 .5605469 .5073242 .5605469 .5626628 .533727 .60595706 .48008729 .6492513 .42644755 .67089846 .35740153 .67089846 .27294923 .67089846 .1884969 .6492513 .11945089 .60595706 .06581116 .5626628 .012171428 .5073242-.0146484379 .4399414-.0146484379 .40185548-.0146484379 .36816407-.007039388 .3388672 .008178711 .3095703 .02339681 .2828776 .04703776 .25878907 .07910156M.375 .43359376C.3375651 .43359376 .3088379 .4197998 .28881837 .3922119 .26879884 .36462403 .25878907 .32486979 .25878907 .27294923 .25878907 .22102864 .26879884 .18127442 .28881837 .15368653 .3088379 .12609864 .3375651 .11230469 .375 .11230469 .4124349 .11230469 .44099937 .12601726 .46069337 .15344239 .48038737 .18086751 .49023438 .22070313 .49023438 .27294923 .49023438 .3251953 .48038737 .3650309 .46069337 .39245606 .44099937 .4198812 .4124349 .43359376 .375 .43359376Z"/>
<path id="font_1_17" d="M.7470703 .053955079C.7001953 .03108724 .65152999 .01393636 .6010742 .0025024415 .55061849-.008931478 .49853517-.0146484379 .44482423-.0146484379 .32340495-.0146484379 .22721355 .019307455 .15625 .08721924 .08528646 .15514119 .049804689 .24724324 .049804689 .3635254 .049804689 .48110963 .0859375 .57361349 .15820313 .641037 .23046875 .70847067 .3294271 .7421875 .45507813 .7421875 .50358077 .7421875 .5500488 .73760989 .5944824 .7284546 .638916 .7193095 .68082687 .7057546 .72021487 .6877899V.5361328C.6795247 .55940756 .6390788 .5767822 .59887698 .58825686 .5586751 .59973147 .5183919 .60546877 .47802735 .60546877 .40315757 .60546877 .34545899 .5845744 .30493165 .54278567 .2644043 .5009969 .24414063 .4412435 .24414063 .3635254 .24414063 .28645835 .26367188 .22694905 .30273438 .18499756 .34179688 .14304607 .3972982 .12207031 .46923829 .12207031 .48876954 .12207031 .5069173 .123291019 .52368167 .12573242 .540446 .128184 .5555013 .13202413 .56884768 .13725281V.27929688H.45410157V.40527345H.7470703V.053955079Z"/>
<path id="font_1_21" d="M.091796878 .7294922H.4038086C.49658204 .7294922 .56778976 .70888265 .61743167 .6676636 .66707357 .6264445 .69189456 .5677083 .69189456 .49145509 .69189456 .4148763 .66707357 .3559774 .61743167 .3147583 .56778976 .27353923 .49658204 .2529297 .4038086 .2529297H.27978517V0H.091796878V.7294922M.27978517 .59277346V.38964845H.38378907C.4202474 .38964845 .44840495 .39849855 .46826173 .41619874 .4881185 .43389894 .49804688 .45898438 .49804688 .49145509 .49804688 .5239258 .4881185 .54892989 .46826173 .5664673 .44840495 .5840047 .4202474 .59277346 .38378907 .59277346H.27978517Z"/>
<path id="font_1_24" d="M.0048828127 .7294922H.6767578V.58691409H.4350586V0H.24707031V.58691409H.0048828127V.7294922Z"/>
<path id="font_1_12" d="M.36816407 .57470706 .16210938 .26953126H.36816407V.57470706M.33691407 .7294922H.54589846V.26953126H.64990237V.1328125H.54589846V0H.36816407V.1328125H.044921876V.29408265L.33691407 .7294922Z"/>
<path id="font_8_6" d="M.10595703 .47558595V.59765627L.7319336 .37158204V.25634767L.10595703 .030273438V.15234375L.57714846 .31347657 .10595703 .47558595Z"/>
<path id="font_8_4" d="M.14404297 .7294922H.69384768L.671875 .6224823 .26611329 0H.078125L.4638672 .5908203H.11816406L.14404297 .7294922Z"/>
<path id="font_1_42" d="M.7128906 .5253906 .50097659 .31347657 .7128906 .10253906 .6308594 .020507813 .4189453 .23144531 .20703125 .020507813 .125 .10253906 .33691407 .31347657 .125 .5253906 .20703125 .6074219 .4189453 .3955078 .6308594 .6074219 .7128906 .5253906Z"/>
<path id="font_8_3" d=""/>
<path id="font_8_8" d="M.5810547 .53027346 .55322268 .3876953C.52978518 .4033203 .50667318 .4152018 .48388673 .42333985 .46110026 .43147788 .4388021 .43554688 .4169922 .43554688 .36002604 .43554688 .31347657 .41636149 .27734376 .37799073 .24121094 .33963014 .22314453 .29057823 .22314453 .23083496 .22314453 .19262696 .234375 .16299439 .25683595 .14193726 .27929688 .12088013 .31103517 .11035156 .35205079 .11035156 .37939454 .11035156 .40625 .114461269 .4326172 .122680667 .45898438 .13090007 .48404948 .1430664 .5078125 .15917969L.48095704 .015625C.4519857 .005533854 .42285157-.0020345052 .3935547-.007080078 .3642578-.012125651 .3347982-.0146484379 .30517579-.0146484379 .21923828-.0146484379 .15307617 .0046691896 .10668945 .043304445 .060302736 .08194987 .037109376 .13681539 .037109376 .207901 .037109376 .25256858 .045654298 .29593406 .06274414 .33799745 .079833988 .38006083 .10432943 .41788737 .13623047 .45147706 .17171224 .48832194 .21240235 .5157115 .25830079 .53364565 .30419923 .5515798 .35709635 .5605469 .4169922 .5605469 .44466148 .5605469 .47216798 .5580241 .49951173 .5529785 .52685549 .5479329 .55403646 .54036459 .5810547 .53027346Z"/>
<path id="font_8_10" d="M.64501956 .33338929 .5800781 0H.40478517L.45996095 .28547669C.4638672 .30405174 .46687828 .31977336 .46899415 .3326416 .47111003 .34552003 .47216798 .3557078 .47216798 .36320497 .47216798 .38405863 .46638999 .40018717 .45483399 .41159059 .44327799 .42300416 .42692057 .42871095 .40576173 .42871095 .3696289 .42871095 .33862306 .4146169 .31274415 .38642884 .28686524 .35824076 .26888023 .31921388 .25878907 .26934815L.20605469 0H.030761719L.17822266 .7597656H.3540039L.296875 .46728517C.32910157 .4988607 .36149089 .52229818 .39404298 .53759768 .42659507 .55289718 .46061198 .5605469 .49609376 .5605469 .5465495 .5605469 .5854492 .5473582 .61279299 .52098086 .6401367 .49460349 .6538086 .45747376 .6538086 .40959168 .6538086 .39917503 .6530762 .38761393 .6516113 .37490846 .6501465 .36221314 .6479492 .3483734 .64501956 .33338929Z"/>
<path id="font_8_9" d="M.62890627 .25354005 .6230469 .22558594H.21386719C.21386719 .22361247 .21370442 .22073873 .2133789 .21696472 .21305339 .21320088 .21289063 .21033223 .21289063 .20835877 .21289063 .17259217 .22355144 .14584859 .24487305 .12812805 .26619468 .11041769 .2981771 .1015625 .3408203 .1015625 .37760417 .1015625 .41642253 .10713705 .4572754 .11828613 .49812828 .12943523 .5410156 .1459961 .5859375 .16796875L.55908206 .032226564C.5164388 .016438803 .4740397 .004679362 .43188478-.0030517579 .38972984-.010782878 .34684245-.0146484379 .30322267-.0146484379 .2179362-.0146484379 .15209961 .0050760905 .10571289 .044525148 .059326173 .083984378 .036132814 .13974507 .036132814 .21180725 .036132814 .25354515 .04353841 .29405723 .05834961 .3333435 .073160808 .37263999 .09472656 .40859477 .123046878 .4412079 .15657552 .48033143 .19669597 .5099996 .2434082 .5302124 .29012046 .55043539 .34195964 .5605469 .39892579 .5605469 .472819 .5605469 .53149417 .540858 .5749512 .5014801 .6184082 .46211244 .6401367 .40907798 .6401367 .3423767 .6401367 .32935588 .6392415 .31560264 .6374512 .30111695 .6356608 .28664146 .6328125 .27078248 .62890627 .25354005M.4638672 .33398438C.46484376 .3381958 .46557618 .34248863 .46606446 .3468628 .46655274 .35123698 .46679688 .35553489 .46679688 .35975648 .46679688 .38567607 .45898438 .40625 .44335938 .42147828 .42773438 .4367167 .40657554 .44433595 .3798828 .44433595 .34570313 .44433595 .3166504 .4350179 .2927246 .41638185 .26879884 .39774577 .25048829 .37027995 .23779297 .33398438H.4638672Z"/>
<path id="font_8_7" d="M.32910157 .24511719C.28548179 .24511719 .2525228 .23838298 .23022461 .22491455 .20792644 .2114563 .19677735 .19158936 .19677735 .16531372 .19677735 .14551799 .20336914 .12994385 .21655274 .11859131 .22973633 .10723877 .24788411 .1015625 .2709961 .1015625 .30680339 .1015625 .3367513 .112345378 .36083985 .13391114 .38492839 .15548706 .40104167 .18590291 .4091797 .22515869L.41308595 .24511719H.32910157M.6020508 .31134034 .5410156 0H.36621095L.38085938 .08067322C.35221354 .048080446 .3219401 .024042765 .29003907 .008560181 .25813804-.0069122316 .22347005-.0146484379 .18603516-.0146484379 .13427735-.0146484379 .093180339-.0012207031 .06274414 .025634766 .03230794 .052490236 .017089844 .08870443 .017089844 .13427735 .017089844 .2039388 .04402669 .25724284 .09790039 .29418946 .1517741 .33113609 .22949219 .34960938 .3310547 .34960938H.43408204L.43603517 .3635559C.43701173 .3681539 .4375814 .37143455 .43774415 .37339784 .4379069 .3753713 .43798829 .377182 .43798829 .37882997 .43798829 .40049745 .42781578 .41682945 .4074707 .42782594 .38712565 .4388326 .3569336 .44433595 .31689454 .44433595 .28076173 .44433595 .24576824 .44059245 .21191406 .43310548 .17805989 .4256185 .14534505 .41438804 .11376953 .39941407L.14013672 .5332031C.17659505 .54215499 .21394857 .5489502 .25219728 .55358889 .29044596 .55822756 .33007813 .5605469 .37109376 .5605469 .45214845 .5605469 .5123698 .54656478 .5517578 .51860049 .5911458 .4906362 .61083987 .44803874 .61083987 .3908081 .61083987 .37968955 .6101074 .36750794 .6086426 .3542633 .60717776 .34101869 .60498049 .32671104 .6020508 .31134034Z"/>
<path id="font_8_11" d="M.22216797 .07861328 .16601563-.20800781H-.009765625L.13720703 .546875H.31298829L.296875 .46714784C.32356773 .49909974 .3515625 .52265426 .38085938 .5378113 .41015626 .5529683 .44222007 .5605469 .47705079 .5605469 .5385742 .5605469 .58723959 .54098007 .6230469 .5018463 .6588542 .46272279 .6767578 .40941368 .6767578 .34191896 .6767578 .29985557 .6704915 .2589315 .657959 .21914673 .64542648 .17936199 .6274414 .14316814 .6040039 .110565189 .57438156 .069478359 .54093429 .038335165 .5036621 .01713562 .46638999-.0040537517 .42643229-.0146484379 .38378907-.0146484379 .34635417-.0146484379 .31453453-.007080078 .28833009 .008056641 .26212565 .02319336 .24007161 .04671224 .22216797 .07861328M.40576173 .43359376C.36083985 .43359376 .32413737 .41277568 .2956543 .37113954 .26717124 .32951356 .2529297 .27539573 .2529297 .20878601 .2529297 .17874654 .26098634 .15515645 .2770996 .13801575 .2932129 .12087504 .31559245 .11230469 .34423829 .11230469 .3881836 .11230469 .42447917 .13279216 .453125 .17376709 .48177085 .21474202 .49609376 .26723228 .49609376 .3312378 .49609376 .36454264 .48836265 .3899282 .4729004 .4073944 .45743815 .42486064 .4350586 .43359376 .40576173 .43359376Z"/>
<path id="font_8_12" d="M.51416018 .39746095C.5021159 .40445964 .48876954 .40979005 .4741211 .41345216 .45947267 .41711427 .4436849 .4189453 .4267578 .4189453 .38216148 .4189453 .34513346 .40459696 .31567384 .37590028 .2862142 .34720359 .26627604 .30578614 .25585938 .25164796L.20605469 0H.030761719L.13720703 .546875H.31298829L.2939453 .453125C.31705729 .4877828 .34594728 .5143483 .38061524 .53282168 .4152832 .5513051 .45377604 .5605469 .49609376 .5605469 .5022786 .5605469 .50927737 .5602112 .51708987 .5595398 .52490237 .5588684 .5341797 .55785629 .5449219 .5565033L.51416018 .39746095Z"/>
</defs>
<path transform="matrix(1,0,0,-1,0,225.97107)" d="M0 0H292.34687V225.97107H0Z" fill="#ffffff"/>
<path transform="matrix(1,0,0,-1,0,225.97107)" d="M51.866876 36.679376H288.0269V217.47138H51.866876Z" fill="#ffffff"/>
<path transform="matrix(1,0,0,-1,0,225.97107)" d="M72.68784 36.679376V33.679376" fill="#1f2937"/>
<path transform="matrix(1,0,0,-1,0,225.97107)" stroke-width=".7" stroke-linecap="butt" stroke-linejoin="round" fill="none" stroke="#1f2937" d="M72.68784 36.679376V33.679376"/>
<use data-text="1" xlink:href="#font_1_9" transform="matrix(10.5,0,0,-10.5,65.64097,203.65106)" fill="#1f2937"/>
<use data-text="x" xlink:href="#font_1_41" transform="matrix(10.5,0,0,-10.5,72.94897,203.65106)" fill="#1f2937"/>
<path transform="matrix(1,0,0,-1,0,225.97107)" d="M136.81954 36.679376V33.679376" fill="#1f2937"/>
<path transform="matrix(1,0,0,-1,0,225.97107)" stroke-width=".7" stroke-linecap="butt" stroke-linejoin="round" fill="none" stroke="#1f2937" d="M136.81954 36.679376V33.679376"/>
<use data-text="3" xlink:href="#font_1_11" transform="matrix(10.5,0,0,-10.5,129.77266,203.65106)" fill="#1f2937"/>
<use data-text="x" xlink:href="#font_1_41" transform="matrix(10.5,0,0,-10.5,137.08066,203.65106)" fill="#1f2937"/>
<path transform="matrix(1,0,0,-1,0,225.97107)" d="M186.28072 36.679376V33.679376" fill="#1f2937"/>
<path transform="matrix(1,0,0,-1,0,225.97107)" stroke-width=".7" stroke-linecap="butt" stroke-linejoin="round" fill="none" stroke="#1f2937" d="M186.28072 36.679376V33.679376"/>
<use data-text="7" xlink:href="#font_1_14" transform="matrix(10.5,0,0,-10.5,179.23384,203.65106)" fill="#1f2937"/>
<use data-text="x" xlink:href="#font_1_41" transform="matrix(10.5,0,0,-10.5,186.54184,203.65106)" fill="#1f2937"/>
<path transform="matrix(1,0,0,-1,0,225.97107)" d="M250.41242 36.679376V33.679376" fill="#1f2937"/>
<path transform="matrix(1,0,0,-1,0,225.97107)" stroke-width=".7" stroke-linecap="butt" stroke-linejoin="round" fill="none" stroke="#1f2937" d="M250.41242 36.679376V33.679376"/>
<use data-text="2" xlink:href="#font_1_10" transform="matrix(10.5,0,0,-10.5,239.70929,203.65106)" fill="#1f2937"/>
<use data-text="1" xlink:href="#font_1_9" transform="matrix(10.5,0,0,-10.5,247.01729,203.65106)" fill="#1f2937"/>
<use data-text="x" xlink:href="#font_1_41" transform="matrix(10.5,0,0,-10.5,254.32529,203.65106)" fill="#1f2937"/>
<path transform="matrix(1,0,0,-1,0,225.97107)" d="M51.866876 36.679376V34.679376" fill="#1f2937"/>
<path transform="matrix(1,0,0,-1,0,225.97107)" stroke-width=".6" stroke-linecap="butt" stroke-linejoin="round" fill="none" stroke="#1f2937" d="M51.866876 36.679376V34.679376"/>
<path transform="matrix(1,0,0,-1,0,225.97107)" d="M59.661798 36.679376V34.679376" fill="#1f2937"/>
<path transform="matrix(1,0,0,-1,0,225.97107)" stroke-width=".6" stroke-linecap="butt" stroke-linejoin="round" fill="none" stroke="#1f2937" d="M59.661798 36.679376V34.679376"/>
<path transform="matrix(1,0,0,-1,0,225.97107)" d="M66.5374 36.679376V34.679376" fill="#1f2937"/>
<path transform="matrix(1,0,0,-1,0,225.97107)" stroke-width=".6" stroke-linecap="butt" stroke-linejoin="round" fill="none" stroke="#1f2937" d="M66.5374 36.679376V34.679376"/>
<path transform="matrix(1,0,0,-1,0,225.97107)" d="M113.15044 36.679376V34.679376" fill="#1f2937"/>
<path transform="matrix(1,0,0,-1,0,225.97107)" stroke-width=".6" stroke-linecap="butt" stroke-linejoin="round" fill="none" stroke="#1f2937" d="M113.15044 36.679376V34.679376"/>
<path transform="matrix(1,0,0,-1,0,225.97107)" d="M153.61304 36.679376V34.679376" fill="#1f2937"/>
<path transform="matrix(1,0,0,-1,0,225.97107)" stroke-width=".6" stroke-linecap="butt" stroke-linejoin="round" fill="none" stroke="#1f2937" d="M153.61304 36.679376V34.679376"/>
<path transform="matrix(1,0,0,-1,0,225.97107)" d="M166.63909 36.679376V34.679376" fill="#1f2937"/>
<path transform="matrix(1,0,0,-1,0,225.97107)" stroke-width=".6" stroke-linecap="butt" stroke-linejoin="round" fill="none" stroke="#1f2937" d="M166.63909 36.679376V34.679376"/>
<path transform="matrix(1,0,0,-1,0,225.97107)" d="M177.28214 36.679376V34.679376" fill="#1f2937"/>
<path transform="matrix(1,0,0,-1,0,225.97107)" stroke-width=".6" stroke-linecap="butt" stroke-linejoin="round" fill="none" stroke="#1f2937" d="M177.28214 36.679376V34.679376"/>
<path transform="matrix(1,0,0,-1,0,225.97107)" d="M194.07564 36.679376V34.679376" fill="#1f2937"/>
<path transform="matrix(1,0,0,-1,0,225.97107)" stroke-width=".6" stroke-linecap="butt" stroke-linejoin="round" fill="none" stroke="#1f2937" d="M194.07564 36.679376V34.679376"/>
<path transform="matrix(1,0,0,-1,0,225.97107)" d="M200.95125 36.679376V34.679376" fill="#1f2937"/>
<path transform="matrix(1,0,0,-1,0,225.97107)" stroke-width=".6" stroke-linecap="butt" stroke-linejoin="round" fill="none" stroke="#1f2937" d="M200.95125 36.679376V34.679376"/>
<path transform="matrix(1,0,0,-1,0,225.97107)" d="M247.56429 36.679376V34.679376" fill="#1f2937"/>
<path transform="matrix(1,0,0,-1,0,225.97107)" stroke-width=".6" stroke-linecap="butt" stroke-linejoin="round" fill="none" stroke="#1f2937" d="M247.56429 36.679376V34.679376"/>
<path transform="matrix(1,0,0,-1,0,225.97107)" d="M271.23338 36.679376V34.679376" fill="#1f2937"/>
<path transform="matrix(1,0,0,-1,0,225.97107)" stroke-width=".6" stroke-linecap="butt" stroke-linejoin="round" fill="none" stroke="#1f2937" d="M271.23338 36.679376V34.679376"/>
<path transform="matrix(1,0,0,-1,0,225.97107)" d="M288.0269 36.679376V34.679376" fill="#1f2937"/>
<path transform="matrix(1,0,0,-1,0,225.97107)" stroke-width=".6" stroke-linecap="butt" stroke-linejoin="round" fill="none" stroke="#1f2937" d="M288.0269 36.679376V34.679376"/>
<use data-text="R" xlink:href="#font_1_22" transform="matrix(12,0,0,-12,108.001567,219.05731)" fill="#1f2937"/>
<use data-text="e" xlink:href="#font_1_27" transform="matrix(12,0,0,-12,117.24156,219.05731)" fill="#1f2937"/>
<use data-text="l" xlink:href="#font_1_31" transform="matrix(12,0,0,-12,125.37756,219.05731)" fill="#1f2937"/>
<use data-text="a" xlink:href="#font_1_25" transform="matrix(12,0,0,-12,129.49356,219.05731)" fill="#1f2937"/>
<use data-text="t" xlink:href="#font_1_38" transform="matrix(12,0,0,-12,137.59357,219.05731)" fill="#1f2937"/>
<use data-text="i" xlink:href="#font_1_30" transform="matrix(12,0,0,-12,143.32956,219.05731)" fill="#1f2937"/>
<use data-text="v" xlink:href="#font_1_40" transform="matrix(12,0,0,-12,147.44557,219.05731)" fill="#1f2937"/>
<use data-text="e" xlink:href="#font_1_27" transform="matrix(12,0,0,-12,155.26956,219.05731)" fill="#1f2937"/>
<use data-text=" " xlink:href="#font_1_3" transform="matrix(12,0,0,-12,163.40558,219.05731)" fill="#1f2937"/>
<use data-text="c" xlink:href="#font_1_26" transform="matrix(12,0,0,-12,167.58158,219.05731)" fill="#1f2937"/>
<use data-text="o" xlink:href="#font_1_34" transform="matrix(12,0,0,-12,174.69757,219.05731)" fill="#1f2937"/>
<use data-text="s" xlink:href="#font_1_37" transform="matrix(12,0,0,-12,182.94158,219.05731)" fill="#1f2937"/>
<use data-text="t" xlink:href="#font_1_38" transform="matrix(12,0,0,-12,190.08158,219.05731)" fill="#1f2937"/>
<use data-text=" " xlink:href="#font_1_3" transform="matrix(12,0,0,-12,195.81757,219.05731)" fill="#1f2937"/>
<use data-text="(" xlink:href="#font_1_4" transform="matrix(12,0,0,-12,199.99358,219.05731)" fill="#1f2937"/>
<use data-text="l" xlink:href="#font_1_31" transform="matrix(12,0,0,-12,205.47757,219.05731)" fill="#1f2937"/>
<use data-text="o" xlink:href="#font_1_34" transform="matrix(12,0,0,-12,209.59357,219.05731)" fill="#1f2937"/>
<use data-text="g" xlink:href="#font_1_29" transform="matrix(12,0,0,-12,217.83759,219.05731)" fill="#1f2937"/>
<use data-text=")" xlink:href="#font_1_5" transform="matrix(12,0,0,-12,226.42958,219.05731)" fill="#1f2937"/>
<g clip-path="url(#clip_2)">
<path transform="matrix(1,0,0,-1,0,225.97107)" stroke-width=".5" stroke-linecap="square" stroke-linejoin="round" fill="none" stroke="#e5e7eb" stroke-opacity=".5" d="M51.866876 45.288518H288.0269"/>
</g>
<path transform="matrix(1,0,0,-1,0,225.97107)" d="M51.866876 45.288518H48.866876" fill="#1f2937"/>
<path transform="matrix(1,0,0,-1,0,225.97107)" stroke-width=".7" stroke-linecap="butt" stroke-linejoin="round" fill="none" stroke="#1f2937" d="M51.866876 45.288518H48.866876"/>
<use data-text="0" xlink:href="#font_1_8" transform="matrix(10.5,0,0,-10.5,19.945,184.86225)" fill="#1f2937"/>
<use data-text="." xlink:href="#font_1_7" transform="matrix(10.5,0,0,-10.5,27.253,184.86225)" fill="#1f2937"/>
<use data-text="7" xlink:href="#font_1_14" transform="matrix(10.5,0,0,-10.5,31.243,184.86225)" fill="#1f2937"/>
<use data-text="5" xlink:href="#font_1_13" transform="matrix(10.5,0,0,-10.5,38.551004,184.86225)" fill="#1f2937"/>
<g clip-path="url(#clip_3)">
<path transform="matrix(1,0,0,-1,0,225.97107)" stroke-width=".5" stroke-linecap="square" stroke-linejoin="round" fill="none" stroke="#e5e7eb" stroke-opacity=".5" d="M51.866876 88.33423H288.0269"/>
</g>
<path transform="matrix(1,0,0,-1,0,225.97107)" d="M51.866876 88.33423H48.866876" fill="#1f2937"/>
<path transform="matrix(1,0,0,-1,0,225.97107)" stroke-width=".7" stroke-linecap="butt" stroke-linejoin="round" fill="none" stroke="#1f2937" d="M51.866876 88.33423H48.866876"/>
<use data-text="0" xlink:href="#font_1_8" transform="matrix(10.5,0,0,-10.5,19.945,141.81653)" fill="#1f2937"/>
<use data-text="." xlink:href="#font_1_7" transform="matrix(10.5,0,0,-10.5,27.253,141.81653)" fill="#1f2937"/>
<use data-text="8" xlink:href="#font_1_15" transform="matrix(10.5,0,0,-10.5,31.243,141.81653)" fill="#1f2937"/>
<use data-text="0" xlink:href="#font_1_8" transform="matrix(10.5,0,0,-10.5,38.551004,141.81653)" fill="#1f2937"/>
<g clip-path="url(#clip_4)">
<path transform="matrix(1,0,0,-1,0,225.97107)" stroke-width=".5" stroke-linecap="square" stroke-linejoin="round" fill="none" stroke="#e5e7eb" stroke-opacity=".5" d="M51.866876 131.37995H288.0269"/>
</g>
<path transform="matrix(1,0,0,-1,0,225.97107)" d="M51.866876 131.37995H48.866876" fill="#1f2937"/>
<path transform="matrix(1,0,0,-1,0,225.97107)" stroke-width=".7" stroke-linecap="butt" stroke-linejoin="round" fill="none" stroke="#1f2937" d="M51.866876 131.37995H48.866876"/>
<use data-text="0" xlink:href="#font_1_8" transform="matrix(10.5,0,0,-10.5,19.945,98.77081)" fill="#1f2937"/>
<use data-text="." xlink:href="#font_1_7" transform="matrix(10.5,0,0,-10.5,27.253,98.77081)" fill="#1f2937"/>
<use data-text="8" xlink:href="#font_1_15" transform="matrix(10.5,0,0,-10.5,31.243,98.77081)" fill="#1f2937"/>
<use data-text="5" xlink:href="#font_1_13" transform="matrix(10.5,0,0,-10.5,38.551004,98.77081)" fill="#1f2937"/>
<g clip-path="url(#clip_5)">
<path transform="matrix(1,0,0,-1,0,225.97107)" stroke-width=".5" stroke-linecap="square" stroke-linejoin="round" fill="none" stroke="#e5e7eb" stroke-opacity=".5" d="M51.866876 174.42566H288.0269"/>
</g>
<path transform="matrix(1,0,0,-1,0,225.97107)" d="M51.866876 174.42566H48.866876" fill="#1f2937"/>
<path transform="matrix(1,0,0,-1,0,225.97107)" stroke-width=".7" stroke-linecap="butt" stroke-linejoin="round" fill="none" stroke="#1f2937" d="M51.866876 174.42566H48.866876"/>
<use data-text="0" xlink:href="#font_1_8" transform="matrix(10.5,0,0,-10.5,19.945,55.725099)" fill="#1f2937"/>
<use data-text="." xlink:href="#font_1_7" transform="matrix(10.5,0,0,-10.5,27.253,55.725099)" fill="#1f2937"/>
<use data-text="9" xlink:href="#font_1_16" transform="matrix(10.5,0,0,-10.5,31.243,55.725099)" fill="#1f2937"/>
<use data-text="0" xlink:href="#font_1_8" transform="matrix(10.5,0,0,-10.5,38.551004,55.725099)" fill="#1f2937"/>
<g clip-path="url(#clip_6)">
<path transform="matrix(1,0,0,-1,0,225.97107)" stroke-width=".5" stroke-linecap="square" stroke-linejoin="round" fill="none" stroke="#e5e7eb" stroke-opacity=".5" d="M51.866876 217.47138H288.0269"/>
</g>
<path transform="matrix(1,0,0,-1,0,225.97107)" d="M51.866876 217.47138H48.866876" fill="#1f2937"/>
<path transform="matrix(1,0,0,-1,0,225.97107)" stroke-width=".7" stroke-linecap="butt" stroke-linejoin="round" fill="none" stroke="#1f2937" d="M51.866876 217.47138H48.866876"/>
<use data-text="0" xlink:href="#font_1_8" transform="matrix(10.5,0,0,-10.5,19.945,12.679382)" fill="#1f2937"/>
<use data-text="." xlink:href="#font_1_7" transform="matrix(10.5,0,0,-10.5,27.253,12.679382)" fill="#1f2937"/>
<use data-text="9" xlink:href="#font_1_16" transform="matrix(10.5,0,0,-10.5,31.243,12.679382)" fill="#1f2937"/>
<use data-text="5" xlink:href="#font_1_13" transform="matrix(10.5,0,0,-10.5,38.551004,12.679382)" fill="#1f2937"/>
<use data-text="H" xlink:href="#font_1_18" transform="matrix(0,-12,-12,-0,13.445,161.94257)" fill="#1f2937"/>
<use data-text="u" xlink:href="#font_1_39" transform="matrix(0,-12,-12,-0,13.445,151.89856)" fill="#1f2937"/>
<use data-text="m" xlink:href="#font_1_32" transform="matrix(0,-12,-12,-0,13.445,143.35457)" fill="#1f2937"/>
<use data-text="a" xlink:href="#font_1_25" transform="matrix(0,-12,-12,-0,13.445,130.85056)" fill="#1f2937"/>
<use data-text="n" xlink:href="#font_1_33" transform="matrix(0,-12,-12,-0,13.445,122.750568)" fill="#1f2937"/>
<use data-text=" " xlink:href="#font_1_3" transform="matrix(0,-12,-12,-0,13.445,114.206569)" fill="#1f2937"/>
<use data-text="c" xlink:href="#font_1_26" transform="matrix(0,-12,-12,-0,13.445,110.03056)" fill="#1f2937"/>
<use data-text="o" xlink:href="#font_1_34" transform="matrix(0,-12,-12,-0,13.445,102.914569)" fill="#1f2937"/>
<use data-text="r" xlink:href="#font_1_36" transform="matrix(0,-12,-12,-0,13.445,94.67056)" fill="#1f2937"/>
<use data-text="r" xlink:href="#font_1_36" transform="matrix(0,-12,-12,-0,13.445,88.75456)" fill="#1f2937"/>
<use data-text="e" xlink:href="#font_1_27" transform="matrix(0,-12,-12,-0,13.445,82.83856)" fill="#1f2937"/>
<use data-text="l" xlink:href="#font_1_31" transform="matrix(0,-12,-12,-0,13.445,74.70256)" fill="#1f2937"/>
<use data-text="a" xlink:href="#font_1_25" transform="matrix(0,-12,-12,-0,13.445,70.58656)" fill="#1f2937"/>
<use data-text="t" xlink:href="#font_1_38" transform="matrix(0,-12,-12,-0,13.445,62.486566)" fill="#1f2937"/>
<use data-text="i" xlink:href="#font_1_30" transform="matrix(0,-12,-12,-0,13.445,56.750566)" fill="#1f2937"/>
<use data-text="o" xlink:href="#font_1_34" transform="matrix(0,-12,-12,-0,13.445,52.634569)" fill="#1f2937"/>
<use data-text="n" xlink:href="#font_1_33" transform="matrix(0,-12,-12,-0,13.445,44.390565)" fill="#1f2937"/>
<g clip-path="url(#clip_7)">
<path transform="matrix(1,0,0,-1,0,225.97107)" stroke-width="1.4" stroke-linecap="butt" stroke-dasharray="7,3.5" stroke-linejoin="round" fill="none" stroke="#9ca3af" d="M72.68784 71.115947 136.81954 174.42566 250.41242 157.20738"/>
</g>
<path transform="matrix(1,0,0,-1,0,225.97107)" stroke-width=".7" stroke-linecap="square" stroke-miterlimit="10" stroke-linejoin="miter" fill="none" stroke="#9ca3af" d="M51.866876 36.679376V217.47138"/>
<path transform="matrix(1,0,0,-1,0,225.97107)" stroke-width=".7" stroke-linecap="square" stroke-miterlimit="10" stroke-linejoin="miter" fill="none" stroke="#9ca3af" d="M51.866876 36.679376H288.0269"/>
<use data-text="S" xlink:href="#font_1_23" transform="matrix(8.5,0,0,-8.5,81.68784,159.30826)" fill="#3b6ea5"/>
<use data-text="i" xlink:href="#font_1_30" transform="matrix(8.5,0,0,-8.5,87.807849,159.30826)" fill="#3b6ea5"/>
<use data-text="n" xlink:href="#font_1_33" transform="matrix(8.5,0,0,-8.5,90.72334,159.30826)" fill="#3b6ea5"/>
<use data-text="g" xlink:href="#font_1_29" transform="matrix(8.5,0,0,-8.5,96.775348,159.30826)" fill="#3b6ea5"/>
<use data-text="l" xlink:href="#font_1_31" transform="matrix(8.5,0,0,-8.5,102.86134,159.30826)" fill="#3b6ea5"/>
<use data-text="e" xlink:href="#font_1_27" transform="matrix(8.5,0,0,-8.5,105.77684,159.30826)" fill="#3b6ea5"/>
<use data-text=" " xlink:href="#font_1_3" transform="matrix(8.5,0,0,-8.5,111.53984,159.30826)" fill="#3b6ea5"/>
<use data-text="S" xlink:href="#font_1_23" transform="matrix(8.5,0,0,-8.5,114.49785,159.30826)" fill="#3b6ea5"/>
<use data-text="L" xlink:href="#font_1_19" transform="matrix(8.5,0,0,-8.5,120.61784,159.30826)" fill="#3b6ea5"/>
<use data-text="M" xlink:href="#font_1_20" transform="matrix(8.5,0,0,-8.5,126.03235,159.30826)" fill="#3b6ea5"/>
<use data-text="S" xlink:href="#font_1_23" transform="matrix(8.5,0,0,-8.5,145.81954,138.51207)" fill="#5a8c4a"/>
<use data-text="e" xlink:href="#font_1_27" transform="matrix(8.5,0,0,-8.5,151.93953,138.51207)" fill="#5a8c4a"/>
<use data-text="l" xlink:href="#font_1_31" transform="matrix(8.5,0,0,-8.5,157.70253,138.51207)" fill="#5a8c4a"/>
<use data-text="f" xlink:href="#font_1_28" transform="matrix(8.5,0,0,-8.5,160.61804,138.51207)" fill="#5a8c4a"/>
<use data-text="-" xlink:href="#font_1_6" transform="matrix(8.5,0,0,-8.5,164.17491,138.51207)" fill="#5a8c4a"/>
<use data-text="c" xlink:href="#font_1_26" transform="matrix(8.5,0,0,-8.5,167.70241,138.51207)" fill="#5a8c4a"/>
<use data-text="o" xlink:href="#font_1_34" transform="matrix(8.5,0,0,-8.5,172.74292,138.51207)" fill="#5a8c4a"/>
<use data-text="n" xlink:href="#font_1_33" transform="matrix(8.5,0,0,-8.5,178.58242,138.51207)" fill="#5a8c4a"/>
<use data-text="s" xlink:href="#font_1_37" transform="matrix(8.5,0,0,-8.5,184.63442,138.51207)" fill="#5a8c4a"/>
<use data-text="i" xlink:href="#font_1_30" transform="matrix(8.5,0,0,-8.5,189.69191,138.51207)" fill="#5a8c4a"/>
<use data-text="s" xlink:href="#font_1_37" transform="matrix(8.5,0,0,-8.5,192.60742,138.51207)" fill="#5a8c4a"/>
<use data-text="t" xlink:href="#font_1_38" transform="matrix(8.5,0,0,-8.5,197.66492,138.51207)" fill="#5a8c4a"/>
<use data-text="." xlink:href="#font_1_7" transform="matrix(8.5,0,0,-8.5,201.7279,138.51207)" fill="#5a8c4a"/>
<use data-text="H" xlink:href="#font_1_18" transform="matrix(8.5,0,0,-8.5,145.81954,107.262538)" fill="#d4a017"/>
<use data-text="o" xlink:href="#font_1_34" transform="matrix(8.5,0,0,-8.5,152.93404,107.262538)" fill="#d4a017"/>
<use data-text="m" xlink:href="#font_1_32" transform="matrix(8.5,0,0,-8.5,158.77353,107.262538)" fill="#d4a017"/>
<use data-text="o" xlink:href="#font_1_34" transform="matrix(8.5,0,0,-8.5,167.63054,107.262538)" fill="#d4a017"/>
<use data-text="g" xlink:href="#font_1_29" transform="matrix(8.5,0,0,-8.5,173.47003,107.262538)" fill="#d4a017"/>
<use data-text="." xlink:href="#font_1_7" transform="matrix(8.5,0,0,-8.5,179.55603,107.262538)" fill="#d4a017"/>
<use data-text=" " xlink:href="#font_1_3" transform="matrix(8.5,0,0,-8.5,182.78604,107.262538)" fill="#d4a017"/>
<use data-text="p" xlink:href="#font_1_35" transform="matrix(8.5,0,0,-8.5,185.74404,107.262538)" fill="#d4a017"/>
<use data-text="a" xlink:href="#font_1_25" transform="matrix(8.5,0,0,-8.5,191.83003,107.262538)" fill="#d4a017"/>
<use data-text="n" xlink:href="#font_1_33" transform="matrix(8.5,0,0,-8.5,197.56754,107.262538)" fill="#d4a017"/>
<use data-text="e" xlink:href="#font_1_27" transform="matrix(8.5,0,0,-8.5,203.61954,107.262538)" fill="#d4a017"/>
<use data-text="l" xlink:href="#font_1_31" transform="matrix(8.5,0,0,-8.5,209.38254,107.262538)" fill="#d4a017"/>
<use data-text="H" xlink:href="#font_1_18" transform="matrix(8.5,0,0,-8.5,145.81954,46.998537)" fill="#1f6f6f"/>
<use data-text="e" xlink:href="#font_1_27" transform="matrix(8.5,0,0,-8.5,152.93404,46.998537)" fill="#1f6f6f"/>
<use data-text="t" xlink:href="#font_1_38" transform="matrix(8.5,0,0,-8.5,158.69704,46.998537)" fill="#1f6f6f"/>
<use data-text="e" xlink:href="#font_1_27" transform="matrix(8.5,0,0,-8.5,162.76004,46.998537)" fill="#1f6f6f"/>
<use data-text="r" xlink:href="#font_1_36" transform="matrix(8.5,0,0,-8.5,168.52304,46.998537)" fill="#1f6f6f"/>
<use data-text="o" xlink:href="#font_1_34" transform="matrix(8.5,0,0,-8.5,172.71353,46.998537)" fill="#1f6f6f"/>
<use data-text="g" xlink:href="#font_1_29" transform="matrix(8.5,0,0,-8.5,178.55304,46.998537)" fill="#1f6f6f"/>
<use data-text="." xlink:href="#font_1_7" transform="matrix(8.5,0,0,-8.5,184.63904,46.998537)" fill="#1f6f6f"/>
<use data-text=" " xlink:href="#font_1_3" transform="matrix(8.5,0,0,-8.5,187.86904,46.998537)" fill="#1f6f6f"/>
<use data-text="p" xlink:href="#font_1_35" transform="matrix(8.5,0,0,-8.5,190.82703,46.998537)" fill="#1f6f6f"/>
<use data-text="a" xlink:href="#font_1_25" transform="matrix(8.5,0,0,-8.5,196.91303,46.998537)" fill="#1f6f6f"/>
<use data-text="n" xlink:href="#font_1_33" transform="matrix(8.5,0,0,-8.5,202.65053,46.998537)" fill="#1f6f6f"/>
<use data-text="e" xlink:href="#font_1_27" transform="matrix(8.5,0,0,-8.5,208.70253,46.998537)" fill="#1f6f6f"/>
<use data-text="l" xlink:href="#font_1_31" transform="matrix(8.5,0,0,-8.5,214.46553,46.998537)" fill="#1f6f6f"/>
<use data-text="G" xlink:href="#font_1_17" transform="matrix(8.5,0,0,-8.5,236.80304,86.24806)" fill="#0d4747"/>
<use data-text="P" xlink:href="#font_1_21" transform="matrix(8.5,0,0,-8.5,243.78154,86.24806)" fill="#0d4747"/>
<use data-text="T" xlink:href="#font_1_24" transform="matrix(8.5,0,0,-8.5,250.01204,86.24806)" fill="#0d4747"/>
<use data-text="-" xlink:href="#font_1_6" transform="matrix(8.5,0,0,-8.5,254.55904,86.24806)" fill="#0d4747"/>
<use data-text="4" xlink:href="#font_1_12" transform="matrix(8.5,0,0,-8.5,258.08656,86.24806)" fill="#0d4747"/>
<path transform="matrix(1,0,0,-1,0,225.97107)" stroke-width="1.5" stroke-linecap="round" stroke-linejoin="round" fill="none" stroke="#9ca3af" d="M241.02748 162.58757C210.50258 165.88793 180.53347 169.1282 151.12014 172.30838"/>
<path transform="matrix(1,0,0,-1,0,225.97107)" d="M155.25815 169.64815 151.12014 172.30838 155.73111 174.02266Z" fill="#9ca3af"/>
<path transform="matrix(1,0,0,-1,0,225.97107)" stroke-width="1.5" stroke-linecap="round" stroke-linejoin="round" fill="none" stroke="#9ca3af" d="M155.25815 169.64815 151.12014 172.30838 155.73111 174.02266Z"/>
<use data-text="&#x003e;" xlink:href="#font_8_6" transform="matrix(8.5,0,0,-8.5,163.07564,35.8927)" fill="#9ca3af"/>
<use data-text="7" xlink:href="#font_8_4" transform="matrix(8.5,0,0,-8.5,170.19771,35.8927)" fill="#9ca3af"/>
<use data-text="&#x00d7;" xlink:href="#font_1_42" transform="matrix(8.5,0,0,-8.5,176.11202,35.8927)" fill="#9ca3af"/>
<use data-text=" " xlink:href="#font_8_3" transform="matrix(8.5,0,0,-8.5,183.23409,35.8927)" fill="#9ca3af"/>
<use data-text="c" xlink:href="#font_8_8" transform="matrix(8.5,0,0,-8.5,186.19332,35.8927)" fill="#9ca3af"/>
<use data-text="h" xlink:href="#font_8_10" transform="matrix(8.5,0,0,-8.5,191.23189,35.8927)" fill="#9ca3af"/>
<use data-text="e" xlink:href="#font_8_9" transform="matrix(8.5,0,0,-8.5,197.28316,35.8927)" fill="#9ca3af"/>
<use data-text="a" xlink:href="#font_8_7" transform="matrix(8.5,0,0,-8.5,203.04805,35.8927)" fill="#9ca3af"/>
<use data-text="p" xlink:href="#font_8_11" transform="matrix(8.5,0,0,-8.5,208.78389,35.8927)" fill="#9ca3af"/>
<use data-text="e" xlink:href="#font_8_9" transform="matrix(8.5,0,0,-8.5,214.86837,35.8927)" fill="#9ca3af"/>
<use data-text="r" xlink:href="#font_8_12" transform="matrix(8.5,0,0,-8.5,220.63326,35.8927)" fill="#9ca3af"/>
<path transform="matrix(1,0,0,-1,0,225.97107)" d="M72.68784 65.41507C74.19973 65.41507 75.6499 66.01575 76.71897 67.084819 77.78804 68.153888 78.38872 69.60406 78.38872 71.115947 78.38872 72.62784 77.78804 74.07801 76.71897 75.14707 75.6499 76.21614 74.19973 76.816829 72.68784 76.816829 71.17595 76.816829 69.725788 76.21614 68.656719 75.14707 67.58765 74.07801 66.98696 72.62784 66.98696 71.115947 66.98696 69.60406 67.58765 68.153888 68.656719 67.084819 69.725788 66.01575 71.17595 65.41507 72.68784 65.41507Z" fill="#3b6ea5"/>
<path transform="matrix(1,0,0,-1,0,225.97107)" stroke-width="1.3" stroke-linecap="butt" stroke-linejoin="round" fill="none" stroke="#ffffff" d="M72.68784 65.41507C74.19973 65.41507 75.6499 66.01575 76.71897 67.084819 77.78804 68.153888 78.38872 69.60406 78.38872 71.115947 78.38872 72.62784 77.78804 74.07801 76.71897 75.14707 75.6499 76.21614 74.19973 76.816829 72.68784 76.816829 71.17595 76.816829 69.725788 76.21614 68.656719 75.14707 67.58765 74.07801 66.98696 72.62784 66.98696 71.115947 66.98696 69.60406 67.58765 68.153888 68.656719 67.084819 69.725788 66.01575 71.17595 65.41507 72.68784 65.41507Z"/>
<path transform="matrix(1,0,0,-1,0,225.97107)" d="M136.81954 91.2425C138.33144 91.2425 139.7816 91.84318 140.85068 92.91225 141.91974 93.981319 142.52042 95.43149 142.52042 96.943378 142.52042 98.45526 141.91974 99.90543 140.85068 100.9745 139.7816 102.04357 138.33144 102.64425 136.81954 102.64425 135.30765 102.64425 133.85749 102.04357 132.7884 100.9745 131.71935 99.90543 131.11867 98.45526 131.11867 96.943378 131.11867 95.43149 131.71935 93.981319 132.7884 92.91225 133.85749 91.84318 135.30765 91.2425 136.81954 91.2425Z" fill="#5a8c4a"/>
<path transform="matrix(1,0,0,-1,0,225.97107)" stroke-width="1.3" stroke-linecap="butt" stroke-linejoin="round" fill="none" stroke="#ffffff" d="M136.81954 91.2425C138.33144 91.2425 139.7816 91.84318 140.85068 92.91225 141.91974 93.981319 142.52042 95.43149 142.52042 96.943378 142.52042 98.45526 141.91974 99.90543 140.85068 100.9745 139.7816 102.04357 138.33144 102.64425 136.81954 102.64425 135.30765 102.64425 133.85749 102.04357 132.7884 100.9745 131.71935 99.90543 131.11867 98.45526 131.11867 96.943378 131.11867 95.43149 131.71935 93.981319 132.7884 92.91225 133.85749 91.84318 135.30765 91.2425 136.81954 91.2425Z"/>
<path transform="matrix(1,0,0,-1,0,225.97107)" d="M131.11867 108.460788H142.52042V119.86254H131.11867Z" fill="#d4a017"/>
<path transform="matrix(1,0,0,-1,0,225.97107)" stroke-width="1.3" stroke-linecap="butt" stroke-linejoin="round" fill="none" stroke="#ffffff" d="M131.11867 108.460788H142.52042V119.86254H131.11867Z"/>
<path transform="matrix(1,0,0,-1,0,225.97107)" d="M136.81954 166.3634 144.8818 174.42566 136.81954 182.48792 128.75728 174.42566Z" fill="#1f6f6f"/>
<path transform="matrix(1,0,0,-1,0,225.97107)" stroke-width="1.3" stroke-linecap="butt" stroke-linejoin="round" fill="none" stroke="#ffffff" d="M136.81954 166.3634 144.8818 174.42566 136.81954 182.48792 128.75728 174.42566Z"/>
<path transform="matrix(1,0,0,-1,0,225.97107)" d="M248.51212 151.5065H252.3127V155.30709H256.11329V159.10767H252.3127V162.90825H248.51212V159.10767H244.71154V155.30709H248.51212Z" fill="#0d4747"/>
<path transform="matrix(1,0,0,-1,0,225.97107)" stroke-width="1.3" stroke-linecap="butt" stroke-linejoin="round" fill="none" stroke="#ffffff" d="M248.51212 151.5065H252.3127V155.30709H256.11329V159.10767H252.3127V162.90825H248.51212V159.10767H244.71154V155.30709H248.51212Z"/>
</svg>
