<svg xmlns="http://www.w3.org/2000/svg" xmlns:xlink="http://www.w3.org/1999/xlink" xmlns:inkscape="http://www.inkscape.org/namespaces/inkscape" version="1.1" width="407.12037" height="262.12663" viewBox="0 0 407.12037 262.12663">
<defs>
<path id="font_1_22" d="M.091796878 .7294922H.4038086C.49658204 .7294922 .56778976 .70888265 .61743167 .6676636 .66707357 .6264445 .69189456 .5677083 .69189456 .49145509 .69189456 .4148763 .66707357 .3559774 .61743167 .3147583 .56778976 .27353923 .49658204 .2529297 .4038086 .2529297H.27978517V0H.091796878V.7294922M.27978517 .59277346V.38964845H.38378907C.4202474 .38964845 .44840495 .39849855 .46826173 .41619874 .4881185 .43389894 .49804688 .45898438 .49804688 .49145509 .49804688 .5239258 .4881185 .54892989 .46826173 .5664673 .44840495 .5840047 .4202474 .59277346 .38378907 .59277346H.27978517Z"/>
<path id="font_1_14" d="M.6699219 .039749147C.6354167 .021784464 .5994466 .008229573 .5620117-.00091552737 .52457687-.010070801 .4855143-.0146484379 .44482423-.0146484379 .32340495-.0146484379 .22721355 .019307455 .15625 .08721924 .08528646 .15514119 .049804689 .24724324 .049804689 .3635254 .049804689 .48013307 .08528646 .57239279 .15625 .64030459 .22721355 .7082265 .32340495 .7421875 .44482423 .7421875 .4855143 .7421875 .52457687 .73760989 .5620117 .7284546 .5994466 .7193095 .6354167 .7057546 .6699219 .6877899V.5361328C.6350911 .5600688 .6007487 .5776062 .56689456 .5887451 .53304037 .5998942 .49739585 .60546877 .45996095 .60546877 .39290367 .60546877 .34016929 .5840047 .3017578 .54107668 .26334635 .49815879 .24414063 .438975 .24414063 .3635254 .24414063 .28840129 .26334635 .2293752 .3017578 .18644715 .34016929 .14352925 .39290367 .12207031 .45996095 .12207031 .49739585 .12207031 .53304037 .12763977 .56689456 .13877869 .6007487 .14992778 .6350911 .16747029 .6699219 .19140625V.039749147Z"/>
<path id="font_1_4" d="M.05419922 .359375H.36083985V.21679688H.05419922V.359375Z"/>
<path id="font_1_12" d="M.5341797 .1328125H.24023438L.19384766 0H.0048828127L.27490235 .7294922H.49902345L.76904299 0H.5800781L.5341797 .1328125M.28710938 .2685547H.4868164L.38720704 .55859377 .28710938 .2685547Z"/>
<path id="font_1_26" d="M.5258789 .53027346V.3876953C.5021159 .40397135 .47827149 .41601563 .4543457 .42382813 .43041993 .43164063 .40559898 .43554688 .3798828 .43554688 .3310547 .43554688 .29305015 .42125956 .26586915 .39268495 .23868816 .36412049 .22509766 .3242086 .22509766 .27294923 .22509766 .22168987 .23868816 .18177288 .26586915 .15319824 .29305015 .12463379 .3310547 .11035156 .3798828 .11035156 .40722657 .11035156 .43318687 .114461269 .45776368 .122680667 .48234049 .13090007 .5050456 .1430664 .5258789 .15917969V.015625C.49853517 .005533854 .47078453-.0020345052 .44262696-.007080078 .4144694-.012125651 .38623048-.0146484379 .35791017-.0146484379 .25927735-.0146484379 .1821289 .010701497 .12646485 .061401369 .07080078 .11211141 .04296875 .18262737 .04296875 .27294923 .04296875 .3632711 .07080078 .43378196 .12646485 .4844818 .1821289 .53519186 .25927735 .5605469 .35791017 .5605469 .386556 .5605469 .41479493 .5580241 .44262696 .5529785 .47045899 .5479329 .49820964 .54036459 .5258789 .53027346Z"/>
<path id="font_1_18" d="M.091796878 .7294922H.27978517V.45214845H.5571289V.7294922H.7451172V0H.5571289V.3095703H.27978517V0H.091796878V.7294922Z"/>
<path id="font_1_40" d="M.078125 .21289063V.546875H.25390626V.4921875C.25390626 .4625651 .2537435 .42537437 .25341798 .38061524 .25309245 .3358561 .2529297 .3059896 .2529297 .29101563 .2529297 .24707031 .254069 .2154134 .25634767 .19604492 .2586263 .17667644 .26253257 .16259766 .2680664 .1538086 .27522788 .14241536 .28458659 .1336263 .29614259 .1274414 .30769859 .12125651 .32096354 .11816406 .3359375 .11816406 .37239585 .11816406 .40104167 .13216146 .421875 .16015625 .44270835 .18815105 .453125 .22705078 .453125 .27685548V.546875H.6279297V0H.453125V.07910156C.4267578 .04703776 .3988444 .02339681 .36938478 .008178711 .33992515-.007039388 .30745445-.0146484379 .27197267-.0146484379 .20882161-.0146484379 .1607259 .004760742 .12768555 .0435791 .09464518 .08239746 .078125 .13883464 .078125 .21289063Z"/>
<path id="font_1_34" d="M.5908203 .45619203C.61295577 .49015809 .6392415 .51604208 .66967776 .533844 .70011398 .55164596 .7335612 .5605469 .77001956 .5605469 .83284506 .5605469 .8806966 .5411682 .9135742 .5024109 .94645187 .46365357 .9628906 .40731303 .9628906 .33338929V0H.7871094V.28547669C.7874349 .28970848 .787679 .29410807 .7878418 .29867555 .7880046 .303243 .78808596 .30976359 .78808596 .3182373 .78808596 .35701499 .78238937 .38512168 .7709961 .40255738 .75960287 .41999308 .74121096 .42871095 .7158203 .42871095 .6826172 .42871095 .6569824 .4150238 .638916 .38764955 .6208496 .36027528 .6114909 .3206787 .61083987 .26885987V0H.4350586V.28547669C.4350586 .34609477 .42985026 .38512168 .4194336 .40255738 .40901695 .41999308 .39046226 .42871095 .36376954 .42871095 .33024089 .42871095 .30436198 .4149424 .2861328 .3874054 .26790367 .35986839 .25878907 .32051597 .25878907 .26934815V0H.08300781V.546875H.25878907V.46679688C.28027345 .49788413 .30493165 .52128097 .33276368 .5369873 .3605957 .55269369 .39127604 .5605469 .4248047 .5605469 .4625651 .5605469 .495931 .5514018 .52490237 .5331116 .5538737 .51482138 .5758464 .48918153 .5908203 .45619203Z"/>
<path id="font_1_25" d="M.32910157 .24511719C.29264323 .24511719 .2652181 .23895264 .24682617 .22662354 .22843425 .21429444 .21923828 .1961263 .21923828 .17211914 .21923828 .15006511 .22664388 .13279216 .24145508 .12030029 .25626628 .10780843 .27685548 .1015625 .30322267 .1015625 .33610026 .1015625 .36376954 .11332194 .38623048 .13684082 .4086914 .1603597 .41992188 .189799 .41992188 .22515869V.24511719H.32910157M.5961914 .31134034V0H.41992188V.08105469C.39648438 .04767863 .3701172 .023381552 .3408203 .008163452 .31152345-.007044474 .2758789-.0146484379 .23388672-.0146484379 .1772461-.0146484379 .13126628 .0018717448 .095947269 .03491211 .060628255 .06795248 .04296875 .110839847 .04296875 .16357422 .04296875 .22770183 .06502279 .2747396 .10913086 .3046875 .15323894 .3346354 .22249349 .34960938 .31689454 .34960938H.41992188V.3635559C.41992188 .39146934 .40901695 .411911 .38720704 .42488099 .36539714 .43785096 .33138023 .44433595 .28515626 .44433595 .24772136 .44433595 .21289063 .44059245 .18066406 .43310548 .1484375 .4256185 .118489589 .41438804 .09082031 .39941407V.5332031C.1282552 .54215499 .16585286 .5489502 .20361328 .55358889 .2413737 .55822756 .27913413 .5605469 .31689454 .5605469 .41552735 .5605469 .48673503 .54100546 .5305176 .5019226 .5743001 .46283976 .5961914 .39931236 .5961914 .31134034Z"/>
<path id="font_1_35" d="M.63378909 .33338929V0H.4580078V.054260255 .25517274C.4580078 .3024241 .45694987 .3350118 .45483399 .3529358 .4527181 .37085978 .449056 .38405863 .44384767 .39253236 .43701173 .40394593 .42773438 .41282655 .41601563 .4191742 .40429688 .425532 .39095054 .42871095 .37597657 .42871095 .33951823 .42871095 .3108724 .4146169 .29003907 .38642884 .26920573 .35824076 .25878907 .31921388 .25878907 .26934815V0H.083984378V.546875H.25878907V.46679688C.28515626 .4988607 .31315104 .52250167 .34277345 .5377197 .37239585 .5529378 .4051107 .5605469 .44091798 .5605469 .50406906 .5605469 .55200198 .5411682 .5847168 .5024109 .61743167 .46365357 .63378909 .40731303 .63378909 .33338929Z"/>
<path id="font_1_36" d="M.34423829 .43554688C.3055013 .43554688 .2759603 .42159019 .25561524 .39367677 .23527019 .36576335 .22509766 .32552085 .22509766 .27294923 .22509766 .22037761 .23527019 .18013509 .25561524 .15222168 .2759603 .124308269 .3055013 .11035156 .34423829 .11035156 .38232423 .11035156 .41145835 .124308269 .43164063 .15222168 .4518229 .18013509 .46191407 .22037761 .46191407 .27294923 .46191407 .32552085 .4518229 .36576335 .43164063 .39367677 .41145835 .42159019 .38232423 .43554688 .34423829 .43554688M.34423829 .5605469C.4383138 .5605469 .5118001 .5351105 .56469729 .48423768 .6175944 .43337504 .64404299 .36294557 .64404299 .27294923 .64404299 .18295288 .6175944 .11251831 .56469729 .061645509 .5118001 .010782878 .4383138-.0146484379 .34423829-.0146484379 .24983724-.0146484379 .17602539 .010782878 .122802738 .061645509 .06958008 .11251831 .04296875 .18295288 .04296875 .27294923 .04296875 .36294557 .06958008 .43337504 .122802738 .48423768 .17602539 .5351105 .24983724 .5605469 .34423829 .5605469Z"/>
<path id="font_1_37" d="M.49023438 .39746095C.4749349 .40478517 .4597168 .41019694 .44458009 .4136963 .42944337 .41719566 .41422526 .4189453 .39892579 .4189453 .3540039 .4189453 .31941734 .4045156 .29516603 .37565614 .2709147 .34679667 .25878907 .3054606 .25878907 .25164796V0H.083984378V.546875H.25878907V.45703126C.28125 .49301148 .30704753 .5192566 .33618165 .5357666 .36531578 .5522868 .40022788 .5605469 .44091798 .5605469 .44677735 .5605469 .453125 .56029257 .45996095 .55978396 .46679688 .55928549 .47672526 .55819198 .4897461 .5565033L.49023438 .39746095Z"/>
<path id="font_1_5" d="M.10205078 .18945313H.27783204V0H.10205078V.18945313Z"/>
<path id="font_1_15" d="M.27978517 .58691409V.14257813H.34716798C.42399089 .14257813 .48266603 .16160076 .52319338 .199646 .5637207 .23769124 .5839844 .29296876 .5839844 .36547853 .5839844 .43766276 .56380209 .49261476 .5234375 .5303345 .4830729 .5680542 .4243164 .58691409 .34716798 .58691409H.27978517M.091796878 .7294922H.29003907C.40071617 .7294922 .4831543 .7215932 .5373535 .7057953 .59155276 .6899974 .6380208 .66320297 .6767578 .625412 .7109375 .59251406 .7363281 .5545654 .7529297 .51156619 .76953127 .46857707 .77783206 .4198812 .77783206 .36547853 .77783206 .3104248 .76953127 .26131694 .7529297 .2181549 .7363281 .17500305 .7109375 .13697815 .6767578 .1040802 .6376953 .06628927 .5908203 .03949483 .5361328 .0236969 .4814453 .007898967 .39941407 0 .29003907 0H.091796878V.7294922Z"/>
<path id="font_1_32" d="M.083984378 .546875H.25878907V0H.083984378V.546875M.083984378 .7597656H.25878907V.6171875H.083984378V.7597656Z"/>
<path id="font_1_41" d="M.015136719 .546875H.1899414L.32617188 .16894531 .46191407 .546875H.63720706L.421875 0H.22998047L.015136719 .546875Z"/>
<path id="font_1_28" d="M.6298828 .2756195V.22558594H.2211914C.22542317 .1842448 .24023438 .15323894 .265625 .13256836 .29101563 .11189779 .3264974 .1015625 .3720703 .1015625 .40885417 .1015625 .4465332 .107055667 .48510743 .11804199 .52368167 .12902832 .5633138 .14567058 .6040039 .16796875V.033203126C.5626628 .017415366 .5213216 .005493164 .47998048-.0025634766 .4386393-.010620117 .3972982-.0146484379 .35595704-.0146484379 .2569987-.0146484379 .1800944 .010538737 .12524414 .060913087 .07039388 .11129761 .04296875 .18197632 .04296875 .27294923 .04296875 .36229453 .0699056 .43256126 .1237793 .4837494 .177653 .5349477 .25179038 .5605469 .3461914 .5605469 .4321289 .5605469 .5008952 .5346883 .55249026 .4829712 .60408529 .43125407 .6298828 .36213685 .6298828 .2756195M.4501953 .33398438C.4501953 .36704508 .44051109 .39370219 .42114259 .4139557 .40177409 .4342092 .37646485 .44433595 .34521485 .44433595 .3113607 .44433595 .28385417 .43485514 .2626953 .41589356 .24153646 .39693199 .22835286 .3696289 .22314453 .33398438H.4501953Z"/>
<path id="font_1_30" d="M.4560547 .09277344C.43196617 .060872396 .4054362 .037434896 .37646485 .022460938 .3474935 .007486979 .31396485 0 .2758789 0 .20914714 0 .15397136 .026306153 .11035156 .07891846 .06673177 .13154094 .044921876 .19857788 .044921876 .2800293 .044921876 .36180625 .06673177 .4288381 .11035156 .48112489 .15397136 .5334218 .20914714 .5595703 .2758789 .5595703 .31396485 .5595703 .3474935 .55204269 .37646485 .5369873 .4054362 .52194216 .43196617 .49821983 .4560547 .4658203V.546875H.63183596V.05517578C.63183596-.032714845 .60408529-.099853519 .548584-.14624024 .49308268-.19262696 .41259767-.21582031 .3071289-.21582031 .27294923-.21582031 .23990886-.21317546 .20800781-.20788574 .17610677-.20259603 .14404297-.1944987 .111816409-.18359375V-.046875C.14241536-.06461588 .17236328-.07784017 .20166016-.08654785 .23095703-.09525553 .26041667-.099609378 .29003907-.099609378 .34733073-.099609378 .3893229-.08711243 .41601563-.06211853 .44270835-.037134809 .4560547 .0019632977 .4560547 .05517578V.09277344M.3408203 .43359376C.3046875 .43359376 .27652995 .42022706 .25634767 .39349366 .23616536 .36676026 .22607422 .3289388 .22607422 .2800293 .22607422 .2298177 .23583985 .19175212 .2553711 .16583252 .27490235 .13991292 .3033854 .12695313 .3408203 .12695313 .37727867 .12695313 .40559898 .14031983 .42578126 .16705323 .44596354 .19378662 .4560547 .23144531 .4560547 .2800293 .4560547 .3289388 .44596354 .36676026 .42578126 .39349366 .40559898 .42022706 .37727867 .43359376 .3408203 .43359376Z"/>
<path id="font_1_27" d="M.4560547 .46679688V.7597656H.63183596V0H.4560547V.07910156C.43196617 .04670207 .4054362 .02297465 .37646485 .0079193119 .3474935-.0071258547 .31396485-.0146484379 .2758789-.0146484379 .2084961-.0146484379 .15315755 .012171428 .10986328 .06581116 .06656901 .11945089 .044921876 .1884969 .044921876 .27294923 .044921876 .35740153 .06656901 .42644755 .10986328 .48008729 .15315755 .533727 .2084961 .5605469 .2758789 .5605469 .3136393 .5605469 .34708659 .5529378 .3762207 .5377197 .40535484 .52250167 .43196617 .4988607 .4560547 .46679688M.3408203 .11230469C.37825523 .11230469 .40681968 .12601726 .42651368 .15344239 .44620768 .18086751 .4560547 .22070313 .4560547 .27294923 .4560547 .3251953 .44620768 .3650309 .42651368 .39245606 .40681968 .4198812 .37825523 .43359376 .3408203 .43359376 .30371095 .43359376 .27530924 .4198812 .25561524 .39245606 .23592122 .3650309 .22607422 .3251953 .22607422 .27294923 .22607422 .22070313 .23592122 .18086751 .25561524 .15344239 .27530924 .12601726 .30371095 .11230469 .3408203 .11230469Z"/>
<path id="font_1_38" d="M.51123049 .53027346V.39746095C.47379557 .41308595 .43766276 .4248047 .40283204 .4326172 .3680013 .4404297 .3351237 .44433595 .30419923 .44433595 .2709961 .44433595 .24633789 .44017539 .23022461 .43185426 .21411133 .4235433 .20605469 .41074119 .20605469 .39344789 .20605469 .37941996 .2121582 .36865235 .22436524 .36114503 .23657227 .35364787 .25846354 .34810386 .29003907 .34451295L.32080079 .34010316C.410319 .32868959 .47054038 .30993144 .50146487 .28382875 .53238937 .2577362 .54785159 .21679688 .54785159 .16101074 .54785159 .102620448 .5263672 .058746339 .48339845 .029388428 .4404297 .000030517579 .3763021-.0146484379 .29101563-.0146484379 .2548828-.0146484379 .2175293-.01180013 .17895508-.0061035158 .14038086-.00040690104 .100748699 .0081380209 .060058595 .01953125V.15234375C.09488932 .13541667 .13061524 .12272135 .16723633 .11425781 .20385742 .10579427 .24104817 .1015625 .2788086 .1015625 .31298829 .1015625 .33870445 .106292728 .35595704 .115753177 .37320964 .12521363 .38183595 .13924153 .38183595 .15783692 .38183595 .17349243 .37589518 .18515015 .36401368 .19281006 .35213218 .20048015 .32845054 .20643616 .29296876 .2106781L.26220704 .21459961C.18440755 .22438558 .12988281 .2424876 .09863281 .26890565 .06738281 .29533387 .051757814 .33545939 .051757814 .38928224 .051757814 .44734703 .071614589 .49040733 .111328128 .51846316 .15104167 .546519 .21191406 .5605469 .2939453 .5605469 .32617188 .5605469 .36002604 .55810549 .3955078 .55322268 .4309896 .54833987 .4695638 .5406901 .51123049 .53027346Z"/>
<path id="font_1_33" d="M.083984378 .7597656H.25878907V0H.083984378V.7597656Z"/>
<path id="font_1_16" d="M.091796878 .7294922H.5991211V.58691409H.27978517V.45214845H.5800781V.3095703H.27978517V.14257813H.6098633V0H.091796878V.7294922Z"/>
<path id="font_1_29" d="M.44384767 .7597656V.64453127H.34716798C.32242839 .64453127 .30517579 .6400757 .29541017 .63116458 .28564454 .6222636 .28076173 .60680136 .28076173 .58477786V.546875H.43017579V.421875H.28076173V0H.10595703V.421875H.019042969V.546875H.10595703V.58477786C.10595703 .6444092 .122558597 .6884816 .15576172 .71699526 .18896485 .74550887 .24039714 .7597656 .3100586 .7597656H.44384767Z"/>
<path id="font_1_44" d="M.012207031 .546875H.18701172L.33398438 .17578125 .45898438 .546875H.63378909L.4038086-.05130005C.38069663-.112345378 .35375978-.15502422 .32299806-.17933655 .29223634-.20365906 .2516276-.21582031 .20117188-.21582031H.100097659V-.10058594H.15478516C.18440755-.10058594 .20597331-.09588623 .21948242-.08648682 .23299153-.07709757 .24348958-.060256959 .25097657-.035964967L.25585938-.020828248 .012207031 .546875Z"/>
<path id="font_1_19" d="M.091796878 .7294922H.27978517V0H.091796878V.7294922Z"/>
<path id="font_1_17" d="M.091796878 .7294922H.5991211V.58691409H.27978517V.45214845H.5800781V.3095703H.27978517V0H.091796878V.7294922Z"/>
<path id="font_1_23" d="M.35888673 .40625C.39827476 .40625 .42651368 .41355387 .44360353 .42816163 .46069337 .44276939 .46923829 .46679688 .46923829 .50024417 .46923829 .5333557 .46069337 .5570526 .44360353 .57133486 .42651368 .58562728 .39827476 .59277346 .35888673 .59277346H.27978517V.40625H.35888673M.27978517 .2763672V0H.091796878V.7294922H.37890626C.4749349 .7294922 .5453288 .7133789 .5900879 .68115237 .634847 .6489258 .65722659 .59798178 .65722659 .5283203 .65722659 .48014323 .6455892 .44059245 .62231448 .40966798 .59903976 .3787435 .56396487 .35595704 .51708987 .3413086 .54280599 .33543907 .5658366 .3221588 .58618167 .3014679 .6065267 .28078715 .6271159 .24943035 .6479492 .20739746L.75 0H.5498047L.4609375 .18147278C.44303385 .21799214 .42488609 .24293518 .40649415 .25630189 .3881022 .26967875 .36360679 .2763672 .3330078 .2763672H.27978517Z"/>
<path id="font_1_21" d="M.091796878 .7294922H.3310547L.4970703 .33935548 .6640625 .7294922H.90283206V0H.72509768V.5336914L.5571289 .140625H.43798829L.27001954 .5336914V0H.091796878V.7294922Z"/>
<path id="font_1_24" d="M.0048828127 .7294922H.6767578V.58691409H.4350586V0H.24707031V.58691409H.0048828127V.7294922Z"/>
<path id="font_1_13" d="M.38378907 .44726563C.41341148 .44726563 .4358724 .45377604 .45117188 .46679688 .46647135 .47981773 .4741211 .49902345 .4741211 .52441409 .4741211 .5494792 .46647135 .5686035 .45117188 .5817871 .4358724 .5949707 .41341148 .6015625 .38378907 .6015625H.27978517V.44726563H.38378907M.39013673 .12792969C.42789714 .12792969 .45629884 .1359253 .4753418 .1519165 .49438478 .16790772 .50390627 .1920573 .50390627 .22436524 .50390627 .25602214 .49446617 .2797648 .47558595 .29559327 .45670573 .31142173 .42822267 .31933595 .39013673 .31933595H.27978517V.12792969H.39013673M.5649414 .390625C.60530599 .3788961 .63655599 .3572235 .6586914 .3256073 .68082687 .2939911 .69189456 .25520326 .69189456 .20924378 .69189456 .13883972 .66813156 .086364749 .62060549 .051818849 .5730794 .01727295 .5008138 0 .4038086 0H.091796878V.7294922H.37402345C.4752604 .7294922 .548584 .7141927 .59399417 .68359377 .6394043 .6529948 .6621094 .6040039 .6621094 .5366211 .6621094 .50113937 .6538086 .47094728 .63720706 .44604493 .62060549 .42114259 .5965169 .40266929 .5649414 .390625Z"/>
<path id="font_1_31" d="M.63378909 .33338929V0H.4580078V.054260255 .25419618C.4580078 .3020986 .45694987 .3350118 .45483399 .3529358 .4527181 .37085978 .449056 .38405863 .44384767 .39253236 .43701173 .40394593 .42773438 .41282655 .41601563 .4191742 .40429688 .425532 .39095054 .42871095 .37597657 .42871095 .33951823 .42871095 .3108724 .4146169 .29003907 .38642884 .26920573 .35824076 .25878907 .31921388 .25878907 .26934815V0H.083984378V.7597656H.25878907V.46679688C.28515626 .4988607 .31315104 .52250167 .34277345 .5377197 .37239585 .5529378 .4051107 .5605469 .44091798 .5605469 .50406906 .5605469 .55200198 .5411682 .5847168 .5024109 .61743167 .46365357 .63378909 .40731303 .63378909 .33338929Z"/>
<path id="font_1_20" d="M.091796878 .7294922H.27978517V.07128906C.27978517-.01969401 .25512696-.08768717 .20581055-.13269043 .15649414-.17769368 .08186849-.20019531-.018066407-.20019531H-.056152345V-.057617189H-.026855469C.012207031-.057617189 .041748048-.04671224 .061767579-.024902344 .08178711-.003092448 .091796878 .028971354 .091796878 .07128906V.7294922Z"/>
<path id="font_1_42" d="M.03515625 .546875H.20507813L.296875 .16992188 .38916017 .546875H.53515627L.6269531 .17382813 .7192383 .546875H.88916018L.7451172 0H.5541992L.46191407 .37597657 .3701172 0H.17919922L.03515625 .546875Z"/>
<path id="font_1_39" d="M.27490235 .70214846V.546875H.45507813V.421875H.27490235V.1899414C.27490235 .16455078 .2799479 .14737956 .29003907 .13842774 .30013023 .1294759 .32014976 .125 .35009767 .125H.4399414V0H.29003907C.22102864 0 .17211914 .014404297 .14331055 .04321289 .11450195 .072021488 .100097659 .12093099 .100097659 .1899414V.421875H.013183594V.546875H.100097659V.70214846H.27490235Z"/>
<path id="font_1_43" d="M.22216797 .27978517 .024902344 .546875H.20996094L.32177735 .38476563 .4350586 .546875H.6201172L.42285157 .28076173 .6298828 0H.44482423L.32177735 .17285156 .20019531 0H.015136719L.22216797 .27978517Z"/>
<clipPath id="clip_2">
<path transform="matrix(1,0,0,-1,0,262.12663)" d="M88.304378 4.32H402.80039V217.44H88.304378Z"/>
</clipPath>
<clipPath id="clip_3">
<path transform="matrix(1,0,0,-1,0,262.12663)" d="M88.304378 4.32H402.80039V217.44H88.304378Z"/>
</clipPath>
<clipPath id="clip_4">
<path transform="matrix(1,0,0,-1,0,262.12663)" d="M88.304378 4.32H402.80039V217.44H88.304378Z"/>
</clipPath>
<clipPath id="clip_5">
<path transform="matrix(1,0,0,-1,0,262.12663)" d="M88.304378 4.32H402.80039V217.44H88.304378Z"/>
</clipPath>
<clipPath id="clip_6">
<path transform="matrix(1,0,0,-1,0,262.12663)" d="M88.304378 4.32H402.80039V217.44H88.304378Z"/>
</clipPath>
<clipPath id="clip_7">
<path transform="matrix(1,0,0,-1,0,262.12663)" d="M88.304378 4.32H402.80039V217.44H88.304378Z"/>
</clipPath>
<clipPath id="clip_8">
<path transform="matrix(1,0,0,-1,0,262.12663)" d="M88.304378 4.32H402.80039V217.44H88.304378Z"/>
</clipPath>
<clipPath id="clip_9">
<path transform="matrix(1,0,0,-1,0,262.12663)" d="M88.304378 4.32H402.80039V217.44H88.304378Z"/>
</clipPath>
<clipPath id="clip_10">
<path transform="matrix(1,0,0,-1,0,262.12663)" d="M88.304378 4.32H402.80039V217.44H88.304378Z"/>
</clipPath>
<clipPath id="clip_11">
<path transform="matrix(1,0,0,-1,0,262.12663)" d="M88.304378 4.32H402.80039V217.44H88.304378Z"/>
</clipPath>
<clipPath id="clip_12">
<path transform="matrix(1,0,0,-1,0,262.12663)" d="M88.304378 4.32H402.80039V217.44H88.304378Z"/>
</clipPath>
<clipPath id="clip_13">
<path transform="matrix(1,0,0,-1,0,262.12663)" d="M88.304378 4.32H402.80039V217.44H88.304378Z"/>
</clipPath>
<clipPath id="clip_14">
<path transform="matrix(1,0,0,-1,0,262.12663)" d="M88.304378 4.32H402.80039V217.44H88.304378Z"/>
</clipPath>
<clipPath id="clip_15">
<path transform="matrix(1,0,0,-1,0,262.12663)" d="M88.304378 4.32H402.80039V217.44H88.304378Z"/>
</clipPath>
<clipPath id="clip_16">
<path transform="matrix(1,0,0,-1,0,262.12663)" d="M88.304378 4.32H402.80039V217.44H88.304378Z"/>
</clipPath>
<clipPath id="clip_17">
<path transform="matrix(1,0,0,-1,0,262.12663)" d="M88.304378 4.32H402.80039V217.44H88.304378Z"/>
</clipPath>
<clipPath id="clip_18">
<path transform="matrix(1,0,0,-1,0,262.12663)" d="M88.304378 4.32H402.80039V217.44H88.304378Z"/>
</clipPath>
<clipPath id="clip_19">
<path transform="matrix(1,0,0,-1,0,262.12663)" d="M88.304378 4.32H402.80039V217.44H88.304378Z"/>
</clipPath>
<clipPath id="clip_20">
<path transform="matrix(1,0,0,-1,0,262.12663)" d="M88.304378 4.32H402.80039V217.44H88.304378Z"/>
</clipPath>
<clipPath id="clip_21">
<path transform="matrix(1,0,0,-1,0,262.12663)" d="M88.304378 4.32H402.80039V217.44H88.304378Z"/>
</clipPath>
<clipPath id="clip_22">
<path transform="matrix(1,0,0,-1,0,262.12663)" d="M88.304378 4.32H402.80039V217.44H88.304378Z"/>
</clipPath>
<clipPath id="clip_23">
<path transform="matrix(1,0,0,-1,0,262.12663)" d="M88.304378 4.32H402.80039V217.44H88.304378Z"/>
</clipPath>
<clipPath id="clip_24">
<path transform="matrix(1,0,0,-1,0,262.12663)" d="M88.304378 4.32H402.80039V217.44H88.304378Z"/>
</clipPath>
<clipPath id="clip_25">
<path transform="matrix(1,0,0,-1,0,262.12663)" d="M88.304378 4.32H402.80039V217.44H88.304378Z"/>
</clipPath>
<clipPath id="clip_26">
<path transform="matrix(1,0,0,-1,0,262.12663)" d="M88.304378 4.32H402.80039V217.44H88.304378Z"/>
</clipPath>
<clipPath id="clip_27">
<path transform="matrix(1,0,0,-1,0,262.12663)" d="M88.304378 4.32H402.80039V217.44H88.304378Z"/>
</clipPath>
<clipPath id="clip_28">
<path transform="matrix(1,0,0,-1,0,262.12663)" d="M88.304378 4.32H402.80039V217.44H88.304378Z"/>
</clipPath>
<clipPath id="clip_29">
<path transform="matrix(1,0,0,-1,0,262.12663)" d="M88.304378 4.32H402.80039V217.44H88.304378Z"/>
</clipPath>
<clipPath id="clip_30">
<path transform="matrix(1,0,0,-1,0,262.12663)" d="M88.304378 4.32H402.80039V217.44H88.304378Z"/>
</clipPath>
<clipPath id="clip_31">
<path transform="matrix(1,0,0,-1,0,262.12663)" d="M88.304378 4.32H402.80039V217.44H88.304378Z"/>
</clipPath>
<clipPath id="clip_32">
<path transform="matrix(1,0,0,-1,0,262.12663)" d="M88.304378 4.32H402.80039V217.44H88.304378Z"/>
</clipPath>
<clipPath id="clip_33">
<path transform="matrix(1,0,0,-1,0,262.12663)" d="M88.304378 4.32H402.80039V217.44H88.304378Z"/>
</clipPath>
<clipPath id="clip_34">
<path transform="matrix(1,0,0,-1,0,262.12663)" d="M88.304378 4.32H402.80039V217.44H88.304378Z"/>
</clipPath>
<clipPath id="clip_35">
<path transform="matrix(1,0,0,-1,0,262.12663)" d="M88.304378 4.32H402.80039V217.44H88.304378Z"/>
</clipPath>
<clipPath id="clip_36">
<path transform="matrix(1,0,0,-1,0,262.12663)" d="M88.304378 4.32H402.80039V217.44H88.304378Z"/>
</clipPath>
<clipPath id="clip_37">
<path transform="matrix(1,0,0,-1,0,262.12663)" d="M88.304378 4.32H402.80039V217.44H88.304378Z"/>
</clipPath>
<clipPath id="clip_38">
<path transform="matrix(1,0,0,-1,0,262.12663)" d="M88.304378 4.32H402.80039V217.44H88.304378Z"/>
</clipPath>
<clipPath id="clip_39">
<path transform="matrix(1,0,0,-1,0,262.12663)" d="M88.304378 4.32H402.80039V217.44H88.304378Z"/>
</clipPath>
<clipPath id="clip_40">
<path transform="matrix(1,0,0,-1,0,262.12663)" d="M88.304378 4.32H402.80039V217.44H88.304378Z"/>
</clipPath>
<clipPath id="clip_41">
<path transform="matrix(1,0,0,-1,0,262.12663)" d="M88.304378 4.32H402.80039V217.44H88.304378Z"/>
</clipPath>
<clipPath id="clip_42">
<path transform="matrix(1,0,0,-1,0,262.12663)" d="M88.304378 4.32H402.80039V217.44H88.304378Z"/>
</clipPath>
<clipPath id="clip_43">
<path transform="matrix(1,0,0,-1,0,262.12663)" d="M88.304378 4.32H402.80039V217.44H88.304378Z"/>
</clipPath>
<clipPath id="clip_44">
<path transform="matrix(1,0,0,-1,0,262.12663)" d="M88.304378 4.32H402.80039V217.44H88.304378Z"/>
</clipPath>
<clipPath id="clip_45">
<path transform="matrix(1,0,0,-1,0,262.12663)" d="M88.304378 4.32H402.80039V217.44H88.304378Z"/>
</clipPath>
<clipPath id="clip_46">
<path transform="matrix(1,0,0,-1,0,262.12663)" d="M88.304378 4.32H402.80039V217.44H88.304378Z"/>
</clipPath>
<clipPath id="clip_47">
<path transform="matrix(1,0,0,-1,0,262.12663)" d="M88.304378 4.32H402.80039V217.44H88.304378Z"/>
</clipPath>
<clipPath id="clip_48">
<path transform="matrix(1,0,0,-1,0,262.12663)" d="M88.304378 4.32H402.80039V217.44H88.304378Z"/>
</clipPath>
<clipPath id="clip_49">
<path transform="matrix(1,0,0,-1,0,262.12663)" d="M88.304378 4.32H402.80039V217.44H88.304378Z"/>
</clipPath>
<path id="font_1_45" d="M.2211914 .31933595C.23388672 .31933595 .24348958 .30891929 .25 .28808595 .26302085 .24902344 .2722982 .22949219 .27783204 .22949219 .2820638 .22949219 .28645835 .23274739 .29101563 .23925781 .38248698 .3857422 .4671224 .50423178 .5449219 .59472659 .5651042 .61816409 .59716799 .6298828 .6411133 .6298828 .65152999 .6298828 .6585286 .62890627 .6621094 .6269531 .6656901 .625 .66748049 .6225586 .66748049 .6196289 .66748049 .6150716 .6621094 .6061198 .6513672 .59277346 .5257161 .44173179 .4091797 .28222657 .3017578 .11425781 .29427085 .10253906 .27897135 .09667969 .25585938 .09667969 .23242188 .09667969 .21858724 .09765625 .21435547 .099609378 .20328777 .10449219 .19026692 .12939453 .17529297 .1743164 .15836589 .2241211 .14990235 .2553711 .14990235 .2680664 .14990235 .28173829 .16129558 .29492188 .18408203 .3076172 .19807942 .3154297 .21044922 .31933595 .2211914 .31933595Z"/>
<path id="font_1_7" d="M.1171875 .12988281H.28320313V.6015625L.11279297 .56640627V.69433596L.28222657 .7294922H.4609375V.12988281H.6269531V0H.1171875V.12988281Z"/>
<path id="font_1_6" d="M.25683595 .7294922H.36523438L.107910159-.09277344H0L.25683595 .7294922Z"/>
<path id="font_1_11" d="M.3618164 .359375C.3289388 .359375 .3042806 .3487142 .2878418 .32739259 .27140299 .30607096 .2631836 .27408854 .2631836 .23144531 .2631836 .18880208 .27140299 .15681966 .2878418 .13549805 .3042806 .11417643 .3289388 .103515628 .3618164 .103515628 .39501954 .103515628 .41984049 .11417643 .4362793 .13549805 .4527181 .15681966 .4609375 .18880208 .4609375 .23144531 .4609375 .27408854 .4527181 .30607096 .4362793 .32739259 .41984049 .3487142 .39501954 .359375 .3618164 .359375M.5942383 .70996096V.5751953C.5633138 .58984377 .5341797 .6006673 .50683596 .607666 .4794922 .61466476 .45279948 .61816409 .4267578 .61816409 .37076823 .61816409 .32714845 .6025798 .29589845 .57141116 .26464845 .5402425 .24641927 .49397788 .24121094 .4326172 .2626953 .44856773 .28597007 .4605306 .31103517 .46850587 .33610026 .4764811 .363444 .48046876 .3930664 .48046876 .4676107 .48046876 .5277507 .45865885 .5734863 .41503907 .619222 .37141929 .64208987 .31429038 .64208987 .24365235 .64208987 .16552735 .61653646 .10294596 .5654297 .055908204 .51432296 .008870442 .44580079-.0146484379 .35986329-.0146484379 .26513673-.0146484379 .19181316 .01735433 .13989258 .08135986 .08797201 .1453654 .06201172 .23616536 .06201172 .35375978 .06201172 .47427369 .09236654 .5689748 .15307617 .63786318 .21378581 .70676168 .29703776 .74121096 .40283204 .74121096 .4363607 .74121096 .46891276 .73860678 .5004883 .73339846 .5320638 .7281901 .5633138 .7203776 .5942383 .70996096Z"/>
<path id="font_1_8" d="M.28808595 .13867188H.6088867V0H.07910156V.13867188L.34521485 .37324525C.36897788 .39466859 .386556 .41560365 .39794923 .43605042 .40934245 .4564972 .41503907 .47775779 .41503907 .49983216 .41503907 .5339203 .40356446 .5613505 .38061524 .5821228 .35766603 .6028951 .32714845 .61328127 .2890625 .61328127 .25976563 .61328127 .22770183 .60705569 .1928711 .5946045 .15804036 .5821533 .12076823 .56363937 .08105469 .5390625V.69921877C.1233724 .7132161 .16520183 .72387698 .20654297 .7312012 .24788411 .7385254 .28841148 .7421875 .328125 .7421875 .4153646 .7421875 .4831543 .72299197 .53149417 .68460085 .579834 .6462199 .6040039 .5927124 .6040039 .52407839 .6040039 .48438517 .59375 .44737754 .5732422 .41305543 .5527344 .3787435 .50960287 .3327993 .44384767 .27522279L.28808595 .13867188Z"/>
<path id="font_1_9" d="M.4658203 .39257813C.51497396 .3798828 .55232748 .35782878 .57788088 .32641603 .60343429 .29500328 .61621096 .25504557 .61621096 .20654297 .61621096 .13427735 .5885417 .0793457 .5332031 .041748048 .4778646 .0041503908 .3971354-.0146484379 .29101563-.0146484379 .25358073-.0146484379 .21606446-.01163737 .1784668-.0056152346 .14086914 .00040690104 .10367838 .0094401049 .06689453 .021484375V.16699219C.10205078 .1492513 .13696289 .13586426 .17163086 .12683106 .20629883 .11779785 .24039714 .11328125 .27392579 .11328125 .32373048 .11328125 .3618978 .121907558 .38842774 .13916016 .41495768 .15641277 .42822267 .18115235 .42822267 .2133789 .42822267 .24658203 .41463218 .27172853 .38745118 .28881837 .36027018 .3059082 .32014976 .31445313 .26708985 .31445313H.19189453V.43554688H.2709961C.31819663 .43554688 .35335288 .44295249 .37646485 .45776368 .3995768 .47257487 .4111328 .4951172 .4111328 .5253906 .4111328 .55338546 .39990235 .57503256 .3774414 .59033206 .35498048 .60563156 .3232422 .61328127 .28222657 .61328127 .25195313 .61328127 .22135417 .6098226 .19042969 .6029053 .1595052 .595988 .12874349 .5857747 .09814453 .5722656V.70996096C.1352539 .7207031 .17203777 .72875979 .2084961 .73413088 .24495442 .73950198 .28076173 .7421875 .31591798 .7421875 .41064454 .7421875 .4815267 .72661849 .52856448 .69548037 .57560226 .6643524 .5991211 .61749777 .5991211 .5549164 .5991211 .5122121 .5878906 .47724916 .5654297 .45002748 .54296877 .42281596 .5097656 .40366618 .4658203 .39257813Z"/>
<path id="font_1_10" d="M.10595703 .7294922H.5732422V.5908203H.25585938V.47798158C.27018229 .48189799 .28458659 .48491923 .29907228 .4870453 .31355796 .48917137 .32861329 .49023438 .34423829 .49023438 .43310548 .49023438 .5022786 .46799723 .5517578 .42352296 .601237 .37904869 .62597659 .31705729 .62597659 .23754883 .62597659 .1586914 .59903976 .096944179 .545166 .05230713 .49129234 .0076700847 .4165039-.0146484379 .32080079-.0146484379 .27945964-.0146484379 .23852539-.010701497 .19799805-.0028076173 .1574707 .005086263 .1171875 .017089844 .07714844 .033203126V.18164063C.11686198 .15885417 .15454102 .14176433 .19018555 .1303711 .22583008 .11897787 .2594401 .11328125 .29101563 .11328125 .33658854 .11328125 .3724772 .124430339 .39868165 .14672852 .42488609 .16902669 .43798829 .19921875 .43798829 .23730469 .43798829 .27571617 .42488609 .3059896 .39868165 .328125 .3724772 .3502604 .33658854 .36132813 .29101563 .36132813 .2639974 .36132813 .2351888 .35782878 .20458985 .35083009 .17399089 .3438314 .14111328 .3330078 .10595703 .31835938V.7294922Z"/>
<clipPath id="clip_50">
<path transform="matrix(1,0,0,-1,0,262.12663)" d="M88.304378 4.32H402.80039V217.44H88.304378Z"/>
</clipPath>
<clipPath id="clip_51">
<path transform="matrix(1,0,0,-1,0,262.12663)" d="M88.304378 4.32H402.80039V217.44H88.304378Z"/>
</clipPath>
<clipPath id="clip_52">
<path transform="matrix(1,0,0,-1,0,262.12663)" d="M88.304378 4.32H402.80039V217.44H88.304378Z"/>
</clipPath>
<clipPath id="clip_53">
<path transform="matrix(1,0,0,-1,0,262.12663)" d="M88.304378 4.32H402.80039V217.44H88.304378Z"/>
</clipPath>
<clipPath id="clip_54">
<path transform="matrix(1,0,0,-1,0,262.12663)" d="M88.304378 4.32H402.80039V217.44H88.304378Z"/>
</clipPath>
<clipPath id="clip_55">
<path transform="matrix(1,0,0,-1,0,262.12663)" d="M88.304378 4.32H402.80039V217.44H88.304378Z"/>
</clipPath>
<clipPath id="clip_56">
<path transform="matrix(1,0,0,-1,0,262.12663)" d="M88.304378 4.32H402.80039V217.44H88.304378Z"/>
</clipPath>
<clipPath id="clip_57">
<path transform="matrix(1,0,0,-1,0,262.12663)" d="M88.304378 4.32H402.80039V217.44H88.304378Z"/>
</clipPath>
<clipPath id="clip_58">
<path transform="matrix(1,0,0,-1,0,262.12663)" d="M88.304378 4.32H402.80039V217.44H88.304378Z"/>
</clipPath>
<clipPath id="clip_59">
<path transform="matrix(1,0,0,-1,0,262.12663)" d="M88.304378 4.32H402.80039V217.44H88.304378Z"/>
</clipPath>
<clipPath id="clip_60">
<path transform="matrix(1,0,0,-1,0,262.12663)" d="M88.304378 4.32H402.80039V217.44H88.304378Z"/>
</clipPath>
<clipPath id="clip_61">
<path transform="matrix(1,0,0,-1,0,262.12663)" d="M88.304378 4.32H402.80039V217.44H88.304378Z"/>
</clipPath>
<clipPath id="clip_62">
<path transform="matrix(1,0,0,-1,0,262.12663)" d="M88.304378 4.32H402.80039V217.44H88.304378Z"/>
</clipPath>
<clipPath id="clip_63">
<path transform="matrix(1,0,0,-1,0,262.12663)" d="M88.304378 4.32H402.80039V217.44H88.304378Z"/>
</clipPath>
<clipPath id="clip_64">
<path transform="matrix(1,0,0,-1,0,262.12663)" d="M88.304378 4.32H402.80039V217.44H88.304378Z"/>
</clipPath>
<clipPath id="clip_65">
<path transform="matrix(1,0,0,-1,0,262.12663)" d="M88.304378 4.32H402.80039V217.44H88.304378Z"/>
</clipPath>
</defs>
<path transform="matrix(1,0,0,-1,0,262.12663)" d="M0 0H407.12037V262.12663H0Z" fill="#ffffff"/>
<path transform="matrix(1,0,0,-1,0,262.12663)" d="M88.304378 4.32H402.80039V217.44H88.304378Z" fill="#ffffff"/>
<use data-text="P" xlink:href="#font_1_22" transform="matrix(9.396926,-3.4202016,-3.4202016,-9.396926,113.691158,39.733827)" fill="#1f2937"/>
<use data-text="C" xlink:href="#font_1_14" transform="matrix(9.396926,-3.4202016,-3.4202016,-9.396926,120.5791,37.226819)" fill="#1f2937"/>
<use data-text="-" xlink:href="#font_1_4" transform="matrix(9.396926,-3.4202016,-3.4202016,-9.396926,127.68201,34.64157)" fill="#1f2937"/>
<use data-text="A" xlink:href="#font_1_12" transform="matrix(9.396926,-3.4202016,-3.4202016,-9.396926,131.58173,33.22219)" fill="#1f2937"/>
<use data-text="c" xlink:href="#font_1_26" transform="matrix(9.396926,-3.4202016,-3.4202016,-9.396926,138.85495,30.574954)" fill="#1f2937"/>
<use data-text="c" xlink:href="#font_1_26" transform="matrix(9.396926,-3.4202016,-3.4202016,-9.396926,144.42733,28.546772)" fill="#1f2937"/>
<use data-text="H" xlink:href="#font_1_18" transform="matrix(9.396926,-3.4202016,-3.4202016,-9.396926,159.27028,29.218079)" fill="#1f2937"/>
<use data-text="u" xlink:href="#font_1_40" transform="matrix(9.396926,-3.4202016,-3.4202016,-9.396926,167.13552,26.35537)" fill="#1f2937"/>
<use data-text="m" xlink:href="#font_1_34" transform="matrix(9.396926,-3.4202016,-3.4202016,-9.396926,173.82611,23.920187)" fill="#1f2937"/>
<use data-text="a" xlink:href="#font_1_25" transform="matrix(9.396926,-3.4202016,-3.4202016,-9.396926,183.6177,20.356337)" fill="#1f2937"/>
<use data-text="n" xlink:href="#font_1_35" transform="matrix(9.396926,-3.4202016,-3.4202016,-9.396926,189.96063,18.0477)" fill="#1f2937"/>
<use data-text="c" xlink:href="#font_1_26" transform="matrix(9.396926,-3.4202016,-3.4202016,-9.396926,163.0977,39.733827)" fill="#1f2937"/>
<use data-text="o" xlink:href="#font_1_36" transform="matrix(9.396926,-3.4202016,-3.4202016,-9.396926,168.67008,37.705648)" fill="#1f2937"/>
<use data-text="r" xlink:href="#font_1_37" transform="matrix(9.396926,-3.4202016,-3.4202016,-9.396926,175.12577,35.35597)" fill="#1f2937"/>
<use data-text="r" xlink:href="#font_1_37" transform="matrix(9.396926,-3.4202016,-3.4202016,-9.396926,179.75846,33.669809)" fill="#1f2937"/>
<use data-text="." xlink:href="#font_1_5" transform="matrix(9.396926,-3.4202016,-3.4202016,-9.396926,183.05501,32.46996)" fill="#1f2937"/>
<use data-text="D" xlink:href="#font_1_15" transform="matrix(9.396926,-3.4202016,-3.4202016,-9.396926,204.84941,29.144654)" fill="#1f2937"/>
<use data-text="o" xlink:href="#font_1_36" transform="matrix(9.396926,-3.4202016,-3.4202016,-9.396926,212.64887,26.305886)" fill="#1f2937"/>
<use data-text="m" xlink:href="#font_1_34" transform="matrix(9.396926,-3.4202016,-3.4202016,-9.396926,219.10456,23.956208)" fill="#1f2937"/>
<use data-text="a" xlink:href="#font_1_25" transform="matrix(9.396926,-3.4202016,-3.4202016,-9.396926,228.89615,20.392357)" fill="#1f2937"/>
<use data-text="i" xlink:href="#font_1_32" transform="matrix(9.396926,-3.4202016,-3.4202016,-9.396926,235.23908,18.083722)" fill="#1f2937"/>
<use data-text="n" xlink:href="#font_1_35" transform="matrix(9.396926,-3.4202016,-3.4202016,-9.396926,238.46222,16.910592)" fill="#1f2937"/>
<use data-text="c" xlink:href="#font_1_26" transform="matrix(9.396926,-3.4202016,-3.4202016,-9.396926,208.67684,39.6604)" fill="#1f2937"/>
<use data-text="o" xlink:href="#font_1_36" transform="matrix(9.396926,-3.4202016,-3.4202016,-9.396926,214.2492,37.63222)" fill="#1f2937"/>
<use data-text="v" xlink:href="#font_1_41" transform="matrix(9.396926,-3.4202016,-3.4202016,-9.396926,220.7049,35.282545)" fill="#1f2937"/>
<use data-text="e" xlink:href="#font_1_28" transform="matrix(9.396926,-3.4202016,-3.4202016,-9.396926,226.8317,33.05257)" fill="#1f2937"/>
<use data-text="r" xlink:href="#font_1_37" transform="matrix(9.396926,-3.4202016,-3.4202016,-9.396926,233.20282,30.733674)" fill="#1f2937"/>
<use data-text="a" xlink:href="#font_1_25" transform="matrix(9.396926,-3.4202016,-3.4202016,-9.396926,237.8355,29.047514)" fill="#1f2937"/>
<use data-text="g" xlink:href="#font_1_30" transform="matrix(9.396926,-3.4202016,-3.4202016,-9.396926,244.17842,26.738879)" fill="#1f2937"/>
<use data-text="e" xlink:href="#font_1_28" transform="matrix(9.396926,-3.4202016,-3.4202016,-9.396926,250.90662,24.290015)" fill="#1f2937"/>
<use data-text="A" xlink:href="#font_1_12" transform="matrix(9.396926,-3.4202016,-3.4202016,-9.396926,250.42855,39.733827)" fill="#1f2937"/>
<use data-text="d" xlink:href="#font_1_27" transform="matrix(9.396926,-3.4202016,-3.4202016,-9.396926,257.70176,37.08659)" fill="#1f2937"/>
<use data-text="v" xlink:href="#font_1_41" transform="matrix(9.396926,-3.4202016,-3.4202016,-9.396926,264.42997,34.637727)" fill="#1f2937"/>
<use data-text="e" xlink:href="#font_1_28" transform="matrix(9.396926,-3.4202016,-3.4202016,-9.396926,270.55677,32.407754)" fill="#1f2937"/>
<use data-text="r" xlink:href="#font_1_37" transform="matrix(9.396926,-3.4202016,-3.4202016,-9.396926,276.9279,30.088856)" fill="#1f2937"/>
<use data-text="s" xlink:href="#font_1_38" transform="matrix(9.396926,-3.4202016,-3.4202016,-9.396926,281.56059,28.402697)" fill="#1f2937"/>
<use data-text="a" xlink:href="#font_1_25" transform="matrix(9.396926,-3.4202016,-3.4202016,-9.396926,287.15174,26.367676)" fill="#1f2937"/>
<use data-text="r" xlink:href="#font_1_37" transform="matrix(9.396926,-3.4202016,-3.4202016,-9.396926,293.49467,24.05904)" fill="#1f2937"/>
<use data-text="i" xlink:href="#font_1_32" transform="matrix(9.396926,-3.4202016,-3.4202016,-9.396926,298.12736,22.37288)" fill="#1f2937"/>
<use data-text="a" xlink:href="#font_1_25" transform="matrix(9.396926,-3.4202016,-3.4202016,-9.396926,301.3505,21.19975)" fill="#1f2937"/>
<use data-text="l" xlink:href="#font_1_33" transform="matrix(9.396926,-3.4202016,-3.4202016,-9.396926,307.69343,18.891116)" fill="#1f2937"/>
<use data-text="E" xlink:href="#font_1_16" transform="matrix(9.396926,-3.4202016,-3.4202016,-9.396926,296.0077,39.6604)" fill="#1f2937"/>
<use data-text="f" xlink:href="#font_1_29" transform="matrix(9.396926,-3.4202016,-3.4202016,-9.396926,302.42579,37.3244)" fill="#1f2937"/>
<use data-text="f" xlink:href="#font_1_29" transform="matrix(9.396926,-3.4202016,-3.4202016,-9.396926,306.51347,35.836618)" fill="#1f2937"/>
<use data-text="i" xlink:href="#font_1_32" transform="matrix(9.396926,-3.4202016,-3.4202016,-9.396926,310.6011,34.348829)" fill="#1f2937"/>
<use data-text="c" xlink:href="#font_1_26" transform="matrix(9.396926,-3.4202016,-3.4202016,-9.396926,313.82426,33.175699)" fill="#1f2937"/>
<use data-text="i" xlink:href="#font_1_32" transform="matrix(9.396926,-3.4202016,-3.4202016,-9.396926,319.39665,31.147519)" fill="#1f2937"/>
<use data-text="e" xlink:href="#font_1_28" transform="matrix(9.396926,-3.4202016,-3.4202016,-9.396926,322.61979,29.974389)" fill="#1f2937"/>
<use data-text="n" xlink:href="#font_1_35" transform="matrix(9.396926,-3.4202016,-3.4202016,-9.396926,328.9909,27.65549)" fill="#1f2937"/>
<use data-text="c" xlink:href="#font_1_26" transform="matrix(9.396926,-3.4202016,-3.4202016,-9.396926,335.68153,25.22031)" fill="#1f2937"/>
<use data-text="y" xlink:href="#font_1_44" transform="matrix(9.396926,-3.4202016,-3.4202016,-9.396926,341.2539,23.19213)" fill="#1f2937"/>
<use data-text="I" xlink:href="#font_1_19" transform="matrix(9.396926,-3.4202016,-3.4202016,-9.396926,341.5868,39.733827)" fill="#1f2937"/>
<use data-text="F" xlink:href="#font_1_17" transform="matrix(9.396926,-3.4202016,-3.4202016,-9.396926,345.08247,38.46151)" fill="#1f2937"/>
<use data-text="R" xlink:href="#font_1_23" transform="matrix(9.396926,-3.4202016,-3.4202016,-9.396926,351.50056,36.12551)" fill="#1f2937"/>
<use data-text="M" xlink:href="#font_1_21" transform="matrix(10.5,0,0,-10.5,28.554375,62.18631)" fill="#1f2937"/>
<use data-text="T" xlink:href="#font_1_24" transform="matrix(10.5,0,0,-10.5,39.001878,62.18631)" fill="#1f2937"/>
<use data-text="-" xlink:href="#font_1_4" transform="matrix(10.5,0,0,-10.5,44.631628,62.18631)" fill="#1f2937"/>
<use data-text="B" xlink:href="#font_1_13" transform="matrix(10.5,0,0,-10.5,48.98913,62.18631)" fill="#1f2937"/>
<use data-text="e" xlink:href="#font_1_28" transform="matrix(10.5,0,0,-10.5,56.990129,62.18631)" fill="#1f2937"/>
<use data-text="n" xlink:href="#font_1_35" transform="matrix(10.5,0,0,-10.5,64.10913,62.18631)" fill="#1f2937"/>
<use data-text="c" xlink:href="#font_1_26" transform="matrix(10.5,0,0,-10.5,71.58513,62.18631)" fill="#1f2937"/>
<use data-text="h" xlink:href="#font_1_31" transform="matrix(10.5,0,0,-10.5,77.81163,62.18631)" fill="#1f2937"/>
<use data-text="A" xlink:href="#font_1_12" transform="matrix(10.5,0,0,-10.5,17.398125,88.82631)" fill="#1f2937"/>
<use data-text="r" xlink:href="#font_1_37" transform="matrix(10.5,0,0,-10.5,25.525126,88.82631)" fill="#1f2937"/>
<use data-text="e" xlink:href="#font_1_28" transform="matrix(10.5,0,0,-10.5,30.701626,88.82631)" fill="#1f2937"/>
<use data-text="n" xlink:href="#font_1_35" transform="matrix(10.5,0,0,-10.5,37.820627,88.82631)" fill="#1f2937"/>
<use data-text="a" xlink:href="#font_1_25" transform="matrix(10.5,0,0,-10.5,45.296625,88.82631)" fill="#1f2937"/>
<use data-text="-" xlink:href="#font_1_4" transform="matrix(10.5,0,0,-10.5,52.384126,88.82631)" fill="#1f2937"/>
<use data-text="H" xlink:href="#font_1_18" transform="matrix(10.5,0,0,-10.5,56.741624,88.82631)" fill="#1f2937"/>
<use data-text="a" xlink:href="#font_1_25" transform="matrix(10.5,0,0,-10.5,65.53012,88.82631)" fill="#1f2937"/>
<use data-text="r" xlink:href="#font_1_37" transform="matrix(10.5,0,0,-10.5,72.61762,88.82631)" fill="#1f2937"/>
<use data-text="d" xlink:href="#font_1_27" transform="matrix(10.5,0,0,-10.5,77.79412,88.82631)" fill="#1f2937"/>
<use data-text="J" xlink:href="#font_1_20" transform="matrix(10.5,0,0,-10.5,15.491875,115.46631)" fill="#1f2937"/>
<use data-text="u" xlink:href="#font_1_40" transform="matrix(10.5,0,0,-10.5,19.397875,115.46631)" fill="#1f2937"/>
<use data-text="d" xlink:href="#font_1_27" transform="matrix(10.5,0,0,-10.5,26.873875,115.46631)" fill="#1f2937"/>
<use data-text="g" xlink:href="#font_1_30" transform="matrix(10.5,0,0,-10.5,34.391878,115.46631)" fill="#1f2937"/>
<use data-text="e" xlink:href="#font_1_28" transform="matrix(10.5,0,0,-10.5,41.909875,115.46631)" fill="#1f2937"/>
<use data-text="B" xlink:href="#font_1_13" transform="matrix(10.5,0,0,-10.5,49.028875,115.46631)" fill="#1f2937"/>
<use data-text="e" xlink:href="#font_1_28" transform="matrix(10.5,0,0,-10.5,57.029874,115.46631)" fill="#1f2937"/>
<use data-text="n" xlink:href="#font_1_35" transform="matrix(10.5,0,0,-10.5,64.14887,115.46631)" fill="#1f2937"/>
<use data-text="c" xlink:href="#font_1_26" transform="matrix(10.5,0,0,-10.5,71.62488,115.46631)" fill="#1f2937"/>
<use data-text="h" xlink:href="#font_1_31" transform="matrix(10.5,0,0,-10.5,77.85138,115.46631)" fill="#1f2937"/>
<use data-text="R" xlink:href="#font_1_23" transform="matrix(10.5,0,0,-10.5,4.32,142.10631)" fill="#1f2937"/>
<use data-text="e" xlink:href="#font_1_28" transform="matrix(10.5,0,0,-10.5,12.405001,142.10631)" fill="#1f2937"/>
<use data-text="w" xlink:href="#font_1_42" transform="matrix(10.5,0,0,-10.5,19.524,142.10631)" fill="#1f2937"/>
<use data-text="a" xlink:href="#font_1_25" transform="matrix(10.5,0,0,-10.5,29.226002,142.10631)" fill="#1f2937"/>
<use data-text="r" xlink:href="#font_1_37" transform="matrix(10.5,0,0,-10.5,36.313505,142.10631)" fill="#1f2937"/>
<use data-text="d" xlink:href="#font_1_27" transform="matrix(10.5,0,0,-10.5,41.49,142.10631)" fill="#1f2937"/>
<use data-text="B" xlink:href="#font_1_13" transform="matrix(10.5,0,0,-10.5,49.008005,142.10631)" fill="#1f2937"/>
<use data-text="e" xlink:href="#font_1_28" transform="matrix(10.5,0,0,-10.5,57.009004,142.10631)" fill="#1f2937"/>
<use data-text="n" xlink:href="#font_1_35" transform="matrix(10.5,0,0,-10.5,64.128009,142.10631)" fill="#1f2937"/>
<use data-text="c" xlink:href="#font_1_26" transform="matrix(10.5,0,0,-10.5,71.604007,142.10631)" fill="#1f2937"/>
<use data-text="h" xlink:href="#font_1_31" transform="matrix(10.5,0,0,-10.5,77.830509,142.10631)" fill="#1f2937"/>
<use data-text="J" xlink:href="#font_1_20" transform="matrix(10.5,0,0,-10.5,16.773125,168.7463)" fill="#1f2937"/>
<use data-text="u" xlink:href="#font_1_40" transform="matrix(10.5,0,0,-10.5,20.679125,168.7463)" fill="#1f2937"/>
<use data-text="d" xlink:href="#font_1_27" transform="matrix(10.5,0,0,-10.5,28.155125,168.7463)" fill="#1f2937"/>
<use data-text="g" xlink:href="#font_1_30" transform="matrix(10.5,0,0,-10.5,35.673128,168.7463)" fill="#1f2937"/>
<use data-text="e" xlink:href="#font_1_28" transform="matrix(10.5,0,0,-10.5,43.191125,168.7463)" fill="#1f2937"/>
<use data-text="B" xlink:href="#font_1_13" transform="matrix(10.5,0,0,-10.5,50.310125,168.7463)" fill="#1f2937"/>
<use data-text="o" xlink:href="#font_1_36" transform="matrix(10.5,0,0,-10.5,58.311124,168.7463)" fill="#1f2937"/>
<use data-text="a" xlink:href="#font_1_25" transform="matrix(10.5,0,0,-10.5,65.52463,168.7463)" fill="#1f2937"/>
<use data-text="r" xlink:href="#font_1_37" transform="matrix(10.5,0,0,-10.5,72.61212,168.7463)" fill="#1f2937"/>
<use data-text="d" xlink:href="#font_1_27" transform="matrix(10.5,0,0,-10.5,77.78863,168.7463)" fill="#1f2937"/>
<use data-text="C" xlink:href="#font_1_14" transform="matrix(10.5,0,0,-10.5,18.22625,195.3863)" fill="#1f2937"/>
<use data-text="o" xlink:href="#font_1_36" transform="matrix(10.5,0,0,-10.5,25.93325,195.3863)" fill="#1f2937"/>
<use data-text="d" xlink:href="#font_1_27" transform="matrix(10.5,0,0,-10.5,33.14675,195.3863)" fill="#1f2937"/>
<use data-text="e" xlink:href="#font_1_28" transform="matrix(10.5,0,0,-10.5,40.66475,195.3863)" fill="#1f2937"/>
<use data-text="J" xlink:href="#font_1_20" transform="matrix(10.5,0,0,-10.5,47.783754,195.3863)" fill="#1f2937"/>
<use data-text="u" xlink:href="#font_1_40" transform="matrix(10.5,0,0,-10.5,51.68975,195.3863)" fill="#1f2937"/>
<use data-text="d" xlink:href="#font_1_27" transform="matrix(10.5,0,0,-10.5,59.165754,195.3863)" fill="#1f2937"/>
<use data-text="g" xlink:href="#font_1_30" transform="matrix(10.5,0,0,-10.5,66.683757,195.3863)" fill="#1f2937"/>
<use data-text="e" xlink:href="#font_1_28" transform="matrix(10.5,0,0,-10.5,74.20175,195.3863)" fill="#1f2937"/>
<use data-text="." xlink:href="#font_1_5" transform="matrix(10.5,0,0,-10.5,81.320758,195.3863)" fill="#1f2937"/>
<use data-text="C" xlink:href="#font_1_14" transform="matrix(10.5,0,0,-10.5,12.929375,222.0263)" fill="#1f2937"/>
<use data-text="o" xlink:href="#font_1_36" transform="matrix(10.5,0,0,-10.5,20.636376,222.0263)" fill="#1f2937"/>
<use data-text="n" xlink:href="#font_1_35" transform="matrix(10.5,0,0,-10.5,27.849877,222.0263)" fill="#1f2937"/>
<use data-text="t" xlink:href="#font_1_39" transform="matrix(10.5,0,0,-10.5,35.325876,222.0263)" fill="#1f2937"/>
<use data-text="e" xlink:href="#font_1_28" transform="matrix(10.5,0,0,-10.5,40.344877,222.0263)" fill="#1f2937"/>
<use data-text="x" xlink:href="#font_1_43" transform="matrix(10.5,0,0,-10.5,47.463876,222.0263)" fill="#1f2937"/>
<use data-text="t" xlink:href="#font_1_39" transform="matrix(10.5,0,0,-10.5,54.236375,222.0263)" fill="#1f2937"/>
<use data-text="u" xlink:href="#font_1_40" transform="matrix(10.5,0,0,-10.5,59.255376,222.0263)" fill="#1f2937"/>
<use data-text="a" xlink:href="#font_1_25" transform="matrix(10.5,0,0,-10.5,66.73138,222.0263)" fill="#1f2937"/>
<use data-text="l" xlink:href="#font_1_33" transform="matrix(10.5,0,0,-10.5,73.81888,222.0263)" fill="#1f2937"/>
<use data-text="J" xlink:href="#font_1_20" transform="matrix(10.5,0,0,-10.5,77.42038,222.0263)" fill="#1f2937"/>
<use data-text="." xlink:href="#font_1_5" transform="matrix(10.5,0,0,-10.5,81.32638,222.0263)" fill="#1f2937"/>
<use data-text="M" xlink:href="#font_1_21" transform="matrix(10.5,0,0,-10.5,13.804375,248.6663)" fill="#1f2937"/>
<use data-text="-" xlink:href="#font_1_4" transform="matrix(10.5,0,0,-10.5,24.251875,248.6663)" fill="#1f2937"/>
<use data-text="R" xlink:href="#font_1_23" transform="matrix(10.5,0,0,-10.5,28.609375,248.6663)" fill="#1f2937"/>
<use data-text="e" xlink:href="#font_1_28" transform="matrix(10.5,0,0,-10.5,36.694375,248.6663)" fill="#1f2937"/>
<use data-text="w" xlink:href="#font_1_42" transform="matrix(10.5,0,0,-10.5,43.813375,248.6663)" fill="#1f2937"/>
<use data-text="a" xlink:href="#font_1_25" transform="matrix(10.5,0,0,-10.5,53.515375,248.6663)" fill="#1f2937"/>
<use data-text="r" xlink:href="#font_1_37" transform="matrix(10.5,0,0,-10.5,60.602876,248.6663)" fill="#1f2937"/>
<use data-text="d" xlink:href="#font_1_27" transform="matrix(10.5,0,0,-10.5,65.77937,248.6663)" fill="#1f2937"/>
<use data-text="B" xlink:href="#font_1_13" transform="matrix(10.5,0,0,-10.5,73.29738,248.6663)" fill="#1f2937"/>
<use data-text="." xlink:href="#font_1_5" transform="matrix(10.5,0,0,-10.5,81.29838,248.6663)" fill="#1f2937"/>
<g clip-path="url(#clip_2)">
<path transform="matrix(1,0,0,-1,0,262.12663)" d="M88.304378 217.44H133.8835V190.8H88.304378Z" fill="#eef1f1"/>
</g>
<g clip-path="url(#clip_3)">
<path transform="matrix(1,0,0,-1,0,262.12663)" d="M133.8835 217.44H179.46263V190.8H133.8835Z" fill="#1f6f6f"/>
</g>
<g clip-path="url(#clip_4)">
<path transform="matrix(1,0,0,-1,0,262.12663)" d="M179.46263 217.44H225.04177V190.8H179.46263Z" fill="#eef1f1"/>
</g>
<g clip-path="url(#clip_5)">
<path transform="matrix(1,0,0,-1,0,262.12663)" d="M225.04177 217.44H270.6209V190.8H225.04177Z" fill="#eef1f1"/>
</g>
<g clip-path="url(#clip_6)">
<path transform="matrix(1,0,0,-1,0,262.12663)" d="M270.6209 217.44H316.2V190.8H270.6209Z" fill="#eef1f1"/>
</g>
<g clip-path="url(#clip_7)">
<path transform="matrix(1,0,0,-1,0,262.12663)" d="M316.2 217.44H361.77915V190.8H316.2Z" fill="#eef1f1"/>
</g>
<g clip-path="url(#clip_8)">
<path transform="matrix(1,0,0,-1,0,262.12663)" d="M88.304378 190.8H133.8835V164.16H88.304378Z" fill="#eef1f1"/>
</g>
<g clip-path="url(#clip_9)">
<path transform="matrix(1,0,0,-1,0,262.12663)" d="M133.8835 190.8H179.46263V164.16H133.8835Z" fill="#1f6f6f"/>
</g>
<g clip-path="url(#clip_10)">
<path transform="matrix(1,0,0,-1,0,262.12663)" d="M179.46263 190.8H225.04177V164.16H179.46263Z" fill="#eef1f1"/>
</g>
<g clip-path="url(#clip_11)">
<path transform="matrix(1,0,0,-1,0,262.12663)" d="M225.04177 190.8H270.6209V164.16H225.04177Z" fill="#1f6f6f"/>
</g>
<g clip-path="url(#clip_12)">
<path transform="matrix(1,0,0,-1,0,262.12663)" d="M270.6209 190.8H316.2V164.16H270.6209Z" fill="#eef1f1"/>
</g>
<g clip-path="url(#clip_13)">
<path transform="matrix(1,0,0,-1,0,262.12663)" d="M316.2 190.8H361.77915V164.16H316.2Z" fill="#eef1f1"/>
</g>
<g clip-path="url(#clip_14)">
<path transform="matrix(1,0,0,-1,0,262.12663)" d="M88.304378 164.16H133.8835V137.52H88.304378Z" fill="#1f6f6f"/>
</g>
<g clip-path="url(#clip_15)">
<path transform="matrix(1,0,0,-1,0,262.12663)" d="M133.8835 164.16H179.46263V137.52H133.8835Z" fill="#eef1f1"/>
</g>
<g clip-path="url(#clip_16)">
<path transform="matrix(1,0,0,-1,0,262.12663)" d="M179.46263 164.16H225.04177V137.52H179.46263Z" fill="#1f6f6f"/>
</g>
<g clip-path="url(#clip_17)">
<path transform="matrix(1,0,0,-1,0,262.12663)" d="M225.04177 164.16H270.6209V137.52H225.04177Z" fill="#eef1f1"/>
</g>
<g clip-path="url(#clip_18)">
<path transform="matrix(1,0,0,-1,0,262.12663)" d="M270.6209 164.16H316.2V137.52H270.6209Z" fill="#eef1f1"/>
</g>
<g clip-path="url(#clip_19)">
<path transform="matrix(1,0,0,-1,0,262.12663)" d="M316.2 164.16H361.77915V137.52H316.2Z" fill="#eef1f1"/>
</g>
<g clip-path="url(#clip_20)">
<path transform="matrix(1,0,0,-1,0,262.12663)" d="M88.304378 137.52H133.8835V110.88H88.304378Z" fill="#eef1f1"/>
</g>
<g clip-path="url(#clip_21)">
<path transform="matrix(1,0,0,-1,0,262.12663)" d="M133.8835 137.52H179.46263V110.88H133.8835Z" fill="#1f6f6f"/>
</g>
<g clip-path="url(#clip_22)">
<path transform="matrix(1,0,0,-1,0,262.12663)" d="M179.46263 137.52H225.04177V110.88H179.46263Z" fill="#1f6f6f"/>
</g>
<g clip-path="url(#clip_23)">
<path transform="matrix(1,0,0,-1,0,262.12663)" d="M225.04177 137.52H270.6209V110.88H225.04177Z" fill="#1f6f6f"/>
</g>
<g clip-path="url(#clip_24)">
<path transform="matrix(1,0,0,-1,0,262.12663)" d="M270.6209 137.52H316.2V110.88H270.6209Z" fill="#eef1f1"/>
</g>
<g clip-path="url(#clip_25)">
<path transform="matrix(1,0,0,-1,0,262.12663)" d="M316.2 137.52H361.77915V110.88H316.2Z" fill="#eef1f1"/>
</g>
<g clip-path="url(#clip_26)">
<path transform="matrix(1,0,0,-1,0,262.12663)" d="M88.304378 110.88H133.8835V84.24H88.304378Z" fill="#1f6f6f"/>
</g>
<g clip-path="url(#clip_27)">
<path transform="matrix(1,0,0,-1,0,262.12663)" d="M133.8835 110.88H179.46263V84.24H133.8835Z" fill="#1f6f6f"/>
</g>
<g clip-path="url(#clip_28)">
<path transform="matrix(1,0,0,-1,0,262.12663)" d="M179.46263 110.88H225.04177V84.24H179.46263Z" fill="#1f6f6f"/>
</g>
<g clip-path="url(#clip_29)">
<path transform="matrix(1,0,0,-1,0,262.12663)" d="M225.04177 110.88H270.6209V84.24H225.04177Z" fill="#eef1f1"/>
</g>
<g clip-path="url(#clip_30)">
<path transform="matrix(1,0,0,-1,0,262.12663)" d="M270.6209 110.88H316.2V84.24H270.6209Z" fill="#1f6f6f"/>
</g>
<g clip-path="url(#clip_31)">
<path transform="matrix(1,0,0,-1,0,262.12663)" d="M316.2 110.88H361.77915V84.24H316.2Z" fill="#1f6f6f"/>
</g>
<g clip-path="url(#clip_32)">
<path transform="matrix(1,0,0,-1,0,262.12663)" d="M88.304378 84.24H133.8835V57.6H88.304378Z" fill="#1f6f6f"/>
</g>
<g clip-path="url(#clip_33)">
<path transform="matrix(1,0,0,-1,0,262.12663)" d="M133.8835 84.24H179.46263V57.6H133.8835Z" fill="#eef1f1"/>
</g>
<g clip-path="url(#clip_34)">
<path transform="matrix(1,0,0,-1,0,262.12663)" d="M179.46263 84.24H225.04177V57.6H179.46263Z" fill="#1f6f6f"/>
</g>
<g clip-path="url(#clip_35)">
<path transform="matrix(1,0,0,-1,0,262.12663)" d="M225.04177 84.24H270.6209V57.6H225.04177Z" fill="#eef1f1"/>
</g>
<g clip-path="url(#clip_36)">
<path transform="matrix(1,0,0,-1,0,262.12663)" d="M270.6209 84.24H316.2V57.6H270.6209Z" fill="#eef1f1"/>
</g>
<g clip-path="url(#clip_37)">
<path transform="matrix(1,0,0,-1,0,262.12663)" d="M316.2 84.24H361.77915V57.6H316.2Z" fill="#eef1f1"/>
</g>
<g clip-path="url(#clip_38)">
<path transform="matrix(1,0,0,-1,0,262.12663)" d="M88.304378 57.6H133.8835V30.96H88.304378Z" fill="#1f6f6f"/>
</g>
<g clip-path="url(#clip_39)">
<path transform="matrix(1,0,0,-1,0,262.12663)" d="M133.8835 57.6H179.46263V30.96H133.8835Z" fill="#eef1f1"/>
</g>
<g clip-path="url(#clip_40)">
<path transform="matrix(1,0,0,-1,0,262.12663)" d="M179.46263 57.6H225.04177V30.96H179.46263Z" fill="#1f6f6f"/>
</g>
<g clip-path="url(#clip_41)">
<path transform="matrix(1,0,0,-1,0,262.12663)" d="M225.04177 57.6H270.6209V30.96H225.04177Z" fill="#eef1f1"/>
</g>
<g clip-path="url(#clip_42)">
<path transform="matrix(1,0,0,-1,0,262.12663)" d="M270.6209 57.6H316.2V30.96H270.6209Z" fill="#eef1f1"/>
</g>
<g clip-path="url(#clip_43)">
<path transform="matrix(1,0,0,-1,0,262.12663)" d="M316.2 57.6H361.77915V30.96H316.2Z" fill="#eef1f1"/>
</g>
<g clip-path="url(#clip_44)">
<path transform="matrix(1,0,0,-1,0,262.12663)" d="M88.304378 30.96H133.8835V4.32H88.304378Z" fill="#eef1f1"/>
</g>
<g clip-path="url(#clip_45)">
<path transform="matrix(1,0,0,-1,0,262.12663)" d="M133.8835 30.96H179.46263V4.32H133.8835Z" fill="#1f6f6f"/>
</g>
<g clip-path="url(#clip_46)">
<path transform="matrix(1,0,0,-1,0,262.12663)" d="M179.46263 30.96H225.04177V4.32H179.46263Z" fill="#1f6f6f"/>
</g>
<g clip-path="url(#clip_47)">
<path transform="matrix(1,0,0,-1,0,262.12663)" d="M225.04177 30.96H270.6209V4.32H225.04177Z" fill="#eef1f1"/>
</g>
<g clip-path="url(#clip_48)">
<path transform="matrix(1,0,0,-1,0,262.12663)" d="M270.6209 30.96H316.2V4.32H270.6209Z" fill="#eef1f1"/>
</g>
<g clip-path="url(#clip_49)">
<path transform="matrix(1,0,0,-1,0,262.12663)" d="M316.2 30.96H361.77915V4.32H316.2Z" fill="#eef1f1"/>
</g>
<use data-text="&#x2713;" xlink:href="#font_1_45" transform="matrix(11,0,0,-11,152.06369,61.045686)" fill="#ffffff"/>
<use data-text="&#x2713;" xlink:href="#font_1_45" transform="matrix(11,0,0,-11,152.06369,87.685688)" fill="#ffffff"/>
<use data-text="&#x2713;" xlink:href="#font_1_45" transform="matrix(11,0,0,-11,243.22196,87.685688)" fill="#ffffff"/>
<use data-text="&#x2713;" xlink:href="#font_1_45" transform="matrix(11,0,0,-11,106.484569,114.32568)" fill="#ffffff"/>
<use data-text="&#x2713;" xlink:href="#font_1_45" transform="matrix(11,0,0,-11,197.64282,114.32568)" fill="#ffffff"/>
<use data-text="&#x2713;" xlink:href="#font_1_45" transform="matrix(11,0,0,-11,152.06369,140.96569)" fill="#ffffff"/>
<use data-text="&#x2713;" xlink:href="#font_1_45" transform="matrix(11,0,0,-11,197.64282,140.96569)" fill="#ffffff"/>
<use data-text="&#x2713;" xlink:href="#font_1_45" transform="matrix(11,0,0,-11,243.22196,140.96569)" fill="#ffffff"/>
<use data-text="&#x2713;" xlink:href="#font_1_45" transform="matrix(11,0,0,-11,106.484569,167.60569)" fill="#ffffff"/>
<use data-text="&#x2713;" xlink:href="#font_1_45" transform="matrix(11,0,0,-11,152.06369,167.60569)" fill="#ffffff"/>
<use data-text="&#x2713;" xlink:href="#font_1_45" transform="matrix(11,0,0,-11,197.64282,167.60569)" fill="#ffffff"/>
<use data-text="&#x2713;" xlink:href="#font_1_45" transform="matrix(11,0,0,-11,288.8011,167.60569)" fill="#ffffff"/>
<use data-text="&#x2713;" xlink:href="#font_1_45" transform="matrix(11,0,0,-11,334.38023,167.60569)" fill="#ffffff"/>
<use data-text="&#x2713;" xlink:href="#font_1_45" transform="matrix(11,0,0,-11,106.484569,194.24568)" fill="#ffffff"/>
<use data-text="&#x2713;" xlink:href="#font_1_45" transform="matrix(11,0,0,-11,197.64282,194.24568)" fill="#ffffff"/>
<use data-text="&#x2713;" xlink:href="#font_1_45" transform="matrix(11,0,0,-11,106.484569,220.88568)" fill="#ffffff"/>
<use data-text="&#x2713;" xlink:href="#font_1_45" transform="matrix(11,0,0,-11,197.64282,220.88568)" fill="#ffffff"/>
<use data-text="&#x2713;" xlink:href="#font_1_45" transform="matrix(11,0,0,-11,152.06369,247.52568)" fill="#ffffff"/>
<use data-text="&#x2713;" xlink:href="#font_1_45" transform="matrix(11,0,0,-11,197.64282,247.52568)" fill="#ffffff"/>
<use data-text="1" xlink:href="#font_1_7" transform="matrix(7.5,0,0,-7.5,366.33708,60.209749)" fill="#1f2937"/>
<use data-text="/" xlink:href="#font_1_6" transform="matrix(7.5,0,0,-7.5,371.55708,60.209749)" fill="#1f2937"/>
<use data-text="6" xlink:href="#font_1_11" transform="matrix(7.5,0,0,-7.5,374.29457,60.209749)" fill="#1f2937"/>
<use data-text="2" xlink:href="#font_1_8" transform="matrix(7.5,0,0,-7.5,366.33708,86.84975)" fill="#1f2937"/>
<use data-text="/" xlink:href="#font_1_6" transform="matrix(7.5,0,0,-7.5,371.55708,86.84975)" fill="#1f2937"/>
<use data-text="6" xlink:href="#font_1_11" transform="matrix(7.5,0,0,-7.5,374.29457,86.84975)" fill="#1f2937"/>
<use data-text="2" xlink:href="#font_1_8" transform="matrix(7.5,0,0,-7.5,366.33708,113.489749)" fill="#1f2937"/>
<use data-text="/" xlink:href="#font_1_6" transform="matrix(7.5,0,0,-7.5,371.55708,113.489749)" fill="#1f2937"/>
<use data-text="6" xlink:href="#font_1_11" transform="matrix(7.5,0,0,-7.5,374.29457,113.489749)" fill="#1f2937"/>
<use data-text="3" xlink:href="#font_1_9" transform="matrix(7.5,0,0,-7.5,366.33708,140.12975)" fill="#1f2937"/>
<use data-text="/" xlink:href="#font_1_6" transform="matrix(7.5,0,0,-7.5,371.55708,140.12975)" fill="#1f2937"/>
<use data-text="6" xlink:href="#font_1_11" transform="matrix(7.5,0,0,-7.5,374.29457,140.12975)" fill="#1f2937"/>
<use data-text="5" xlink:href="#font_1_10" transform="matrix(7.5,0,0,-7.5,366.33708,166.76975)" fill="#1f2937"/>
<use data-text="/" xlink:href="#font_1_6" transform="matrix(7.5,0,0,-7.5,371.55708,166.76975)" fill="#1f2937"/>
<use data-text="6" xlink:href="#font_1_11" transform="matrix(7.5,0,0,-7.5,374.29457,166.76975)" fill="#1f2937"/>
<use data-text="2" xlink:href="#font_1_8" transform="matrix(7.5,0,0,-7.5,366.33708,193.40975)" fill="#1f2937"/>
<use data-text="/" xlink:href="#font_1_6" transform="matrix(7.5,0,0,-7.5,371.55708,193.40975)" fill="#1f2937"/>
<use data-text="6" xlink:href="#font_1_11" transform="matrix(7.5,0,0,-7.5,374.29457,193.40975)" fill="#1f2937"/>
<use data-text="2" xlink:href="#font_1_8" transform="matrix(7.5,0,0,-7.5,366.33708,220.04975)" fill="#1f2937"/>
<use data-text="/" xlink:href="#font_1_6" transform="matrix(7.5,0,0,-7.5,371.55708,220.04975)" fill="#1f2937"/>
<use data-text="6" xlink:href="#font_1_11" transform="matrix(7.5,0,0,-7.5,374.29457,220.04975)" fill="#1f2937"/>
<use data-text="2" xlink:href="#font_1_8" transform="matrix(7.5,0,0,-7.5,366.33708,246.68975)" fill="#1f2937"/>
<use data-text="/" xlink:href="#font_1_6" transform="matrix(7.5,0,0,-7.5,371.55708,246.68975)" fill="#1f2937"/>
<use data-text="6" xlink:href="#font_1_11" transform="matrix(7.5,0,0,-7.5,374.29457,246.68975)" fill="#1f2937"/>
<g clip-path="url(#clip_50)">
<path transform="matrix(1,0,0,-1,0,262.12663)" stroke-width="1.8" stroke-linecap="square" stroke-linejoin="round" fill="none" stroke="#ffffff" d="M88.304378 4.32V217.44"/>
</g>
<g clip-path="url(#clip_51)">
<path transform="matrix(1,0,0,-1,0,262.12663)" stroke-width="1.8" stroke-linecap="square" stroke-linejoin="round" fill="none" stroke="#ffffff" d="M133.8835 4.32V217.44"/>
</g>
<g clip-path="url(#clip_52)">
<path transform="matrix(1,0,0,-1,0,262.12663)" stroke-width="1.8" stroke-linecap="square" stroke-linejoin="round" fill="none" stroke="#ffffff" d="M179.46263 4.32V217.44"/>
</g>
<g clip-path="url(#clip_53)">
<path transform="matrix(1,0,0,-1,0,262.12663)" stroke-width="1.8" stroke-linecap="square" stroke-linejoin="round" fill="none" stroke="#ffffff" d="M225.04177 4.32V217.44"/>
</g>
<g clip-path="url(#clip_54)">
<path transform="matrix(1,0,0,-1,0,262.12663)" stroke-width="1.8" stroke-linecap="square" stroke-linejoin="round" fill="none" stroke="#ffffff" d="M270.6209 4.32V217.44"/>
</g>
<g clip-path="url(#clip_55)">
<path transform="matrix(1,0,0,-1,0,262.12663)" stroke-width="1.8" stroke-linecap="square" stroke-linejoin="round" fill="none" stroke="#ffffff" d="M316.2 4.32V217.44"/>
</g>
<g clip-path="url(#clip_56)">
<path transform="matrix(1,0,0,-1,0,262.12663)" stroke-width="1.8" stroke-linecap="square" stroke-linejoin="round" fill="none" stroke="#ffffff" d="M361.77915 4.32V217.44"/>
</g>
<g clip-path="url(#clip_57)">
<path transform="matrix(1,0,0,-1,0,262.12663)" stroke-width="1.8" stroke-linecap="square" stroke-linejoin="round" fill="none" stroke="#ffffff" d="M88.304378 217.44H402.80039"/>
</g>
<g clip-path="url(#clip_58)">
<path transform="matrix(1,0,0,-1,0,262.12663)" stroke-width="1.8" stroke-linecap="square" stroke-linejoin="round" fill="none" stroke="#ffffff" d="M88.304378 190.8H402.80039"/>
</g>
<g clip-path="url(#clip_59)">
<path transform="matrix(1,0,0,-1,0,262.12663)" stroke-width="1.8" stroke-linecap="square" stroke-linejoin="round" fill="none" stroke="#ffffff" d="M88.304378 164.16H402.80039"/>
</g>
<g clip-path="url(#clip_60)">
<path transform="matrix(1,0,0,-1,0,262.12663)" stroke-width="1.8" stroke-linecap="square" stroke-linejoin="round" fill="none" stroke="#ffffff" d="M88.304378 137.52H402.80039"/>
</g>
<g clip-path="url(#clip_61)">
<path transform="matrix(1,0,0,-1,0,262.12663)" stroke-width="1.8" stroke-linecap="square" stroke-linejoin="round" fill="none" stroke="#ffffff" d="M88.304378 110.88H402.80039"/>
</g>
<g clip-path="url(#clip_62)">
<path transform="matrix(1,0,0,-1,0,262.12663)" stroke-width="1.8" stroke-linecap="square" stroke-linejoin="round" fill="none" stroke="#ffffff" d="M88.304378 84.24H402.80039"/>
</g>
<g clip-path="url(#clip_63)">
<path transform="matrix(1,0,0,-1,0,262.12663)" stroke-width="1.8" stroke-linecap="square" stroke-linejoin="round" fill="none" stroke="#ffffff" d="M88.304378 57.6H402.80039"/>
</g>
<g clip-path="url(#clip_64)">
<path transform="matrix(1,0,0,-1,0,262.12663)" stroke-width="1.8" stroke-linecap="square" stroke-linejoin="round" fill="none" stroke="#ffffff" d="M88.304378 30.96H402.80039"/>
</g>
<g clip-path="url(#clip_65)">
<path transform="matrix(1,0,0,-1,0,262.12663)" stroke-width="1.8" stroke-linecap="square" stroke-linejoin="round" fill="none" stroke="#ffffff" d="M88.304378 4.32H402.80039"/>
</g>
</svg>
