<svg xmlns="http://www.w3.org/2000/svg" xmlns:xlink="http://www.w3.org/1999/xlink" xmlns:inkscape="http://www.inkscape.org/namespaces/inkscape" version="1.1" width="507.27723" height="168.35942" viewBox="0 0 507.27723 168.35942">
<defs>
<path id="font_1_20" d="M.091796878 .7294922H.4038086C.49658204 .7294922 .56778976 .70888265 .61743167 .6676636 .66707357 .6264445 .69189456 .5677083 .69189456 .49145509 .69189456 .4148763 .66707357 .3559774 .61743167 .3147583 .56778976 .27353923 .49658204 .2529297 .4038086 .2529297H.27978517V0H.091796878V.7294922M.27978517 .59277346V.38964845H.38378907C.4202474 .38964845 .44840495 .39849855 .46826173 .41619874 .4881185 .43389894 .49804688 .45898438 .49804688 .49145509 .49804688 .5239258 .4881185 .54892989 .46826173 .5664673 .44840495 .5840047 .4202474 .59277346 .38378907 .59277346H.27978517Z"/>
<path id="font_1_35" d="M.34423829 .43554688C.3055013 .43554688 .2759603 .42159019 .25561524 .39367677 .23527019 .36576335 .22509766 .32552085 .22509766 .27294923 .22509766 .22037761 .23527019 .18013509 .25561524 .15222168 .2759603 .124308269 .3055013 .11035156 .34423829 .11035156 .38232423 .11035156 .41145835 .124308269 .43164063 .15222168 .4518229 .18013509 .46191407 .22037761 .46191407 .27294923 .46191407 .32552085 .4518229 .36576335 .43164063 .39367677 .41145835 .42159019 .38232423 .43554688 .34423829 .43554688M.34423829 .5605469C.4383138 .5605469 .5118001 .5351105 .56469729 .48423768 .6175944 .43337504 .64404299 .36294557 .64404299 .27294923 .64404299 .18295288 .6175944 .11251831 .56469729 .061645509 .5118001 .010782878 .4383138-.0146484379 .34423829-.0146484379 .24983724-.0146484379 .17602539 .010782878 .122802738 .061645509 .06958008 .11251831 .04296875 .18295288 .04296875 .27294923 .04296875 .36294557 .06958008 .43337504 .122802738 .48423768 .17602539 .5351105 .24983724 .5605469 .34423829 .5605469Z"/>
<path id="font_1_38" d="M.51123049 .53027346V.39746095C.47379557 .41308595 .43766276 .4248047 .40283204 .4326172 .3680013 .4404297 .3351237 .44433595 .30419923 .44433595 .2709961 .44433595 .24633789 .44017539 .23022461 .43185426 .21411133 .4235433 .20605469 .41074119 .20605469 .39344789 .20605469 .37941996 .2121582 .36865235 .22436524 .36114503 .23657227 .35364787 .25846354 .34810386 .29003907 .34451295L.32080079 .34010316C.410319 .32868959 .47054038 .30993144 .50146487 .28382875 .53238937 .2577362 .54785159 .21679688 .54785159 .16101074 .54785159 .102620448 .5263672 .058746339 .48339845 .029388428 .4404297 .000030517579 .3763021-.0146484379 .29101563-.0146484379 .2548828-.0146484379 .2175293-.01180013 .17895508-.0061035158 .14038086-.00040690104 .100748699 .0081380209 .060058595 .01953125V.15234375C.09488932 .13541667 .13061524 .12272135 .16723633 .11425781 .20385742 .10579427 .24104817 .1015625 .2788086 .1015625 .31298829 .1015625 .33870445 .106292728 .35595704 .115753177 .37320964 .12521363 .38183595 .13924153 .38183595 .15783692 .38183595 .17349243 .37589518 .18515015 .36401368 .19281006 .35213218 .20048015 .32845054 .20643616 .29296876 .2106781L.26220704 .21459961C.18440755 .22438558 .12988281 .2424876 .09863281 .26890565 .06738281 .29533387 .051757814 .33545939 .051757814 .38928224 .051757814 .44734703 .071614589 .49040733 .111328128 .51846316 .15104167 .546519 .21191406 .5605469 .2939453 .5605469 .32617188 .5605469 .36002604 .55810549 .3955078 .55322268 .4309896 .54833987 .4695638 .5406901 .51123049 .53027346Z"/>
<path id="font_1_31" d="M.083984378 .546875H.25878907V0H.083984378V.546875M.083984378 .7597656H.25878907V.6171875H.083984378V.7597656Z"/>
<path id="font_1_39" d="M.27490235 .70214846V.546875H.45507813V.421875H.27490235V.1899414C.27490235 .16455078 .2799479 .14737956 .29003907 .13842774 .30013023 .1294759 .32014976 .125 .35009767 .125H.4399414V0H.29003907C.22102864 0 .17211914 .014404297 .14331055 .04321289 .11450195 .072021488 .100097659 .12093099 .100097659 .1899414V.421875H.013183594V.546875H.100097659V.70214846H.27490235Z"/>
<path id="font_1_34" d="M.63378909 .33338929V0H.4580078V.054260255 .25517274C.4580078 .3024241 .45694987 .3350118 .45483399 .3529358 .4527181 .37085978 .449056 .38405863 .44384767 .39253236 .43701173 .40394593 .42773438 .41282655 .41601563 .4191742 .40429688 .425532 .39095054 .42871095 .37597657 .42871095 .33951823 .42871095 .3108724 .4146169 .29003907 .38642884 .26920573 .35824076 .25878907 .31921388 .25878907 .26934815V0H.083984378V.546875H.25878907V.46679688C.28515626 .4988607 .31315104 .52250167 .34277345 .5377197 .37239585 .5529378 .4051107 .5605469 .44091798 .5605469 .50406906 .5605469 .55200198 .5411682 .5847168 .5024109 .61743167 .46365357 .63378909 .40731303 .63378909 .33338929Z"/>
<path id="font_1_22" d="M.0048828127 .7294922H.19384766L.38720704 .19104004 .5800781 .7294922H.76904299L.49902345 0H.27490235L.0048828127 .7294922Z"/>
<path id="font_1_27" d="M.6298828 .2756195V.22558594H.2211914C.22542317 .1842448 .24023438 .15323894 .265625 .13256836 .29101563 .11189779 .3264974 .1015625 .3720703 .1015625 .40885417 .1015625 .4465332 .107055667 .48510743 .11804199 .52368167 .12902832 .5633138 .14567058 .6040039 .16796875V.033203126C.5626628 .017415366 .5213216 .005493164 .47998048-.0025634766 .4386393-.010620117 .3972982-.0146484379 .35595704-.0146484379 .2569987-.0146484379 .1800944 .010538737 .12524414 .060913087 .07039388 .11129761 .04296875 .18197632 .04296875 .27294923 .04296875 .36229453 .0699056 .43256126 .1237793 .4837494 .177653 .5349477 .25179038 .5605469 .3461914 .5605469 .4321289 .5605469 .5008952 .5346883 .55249026 .4829712 .60408529 .43125407 .6298828 .36213685 .6298828 .2756195M.4501953 .33398438C.4501953 .36704508 .44051109 .39370219 .42114259 .4139557 .40177409 .4342092 .37646485 .44433595 .34521485 .44433595 .3113607 .44433595 .28385417 .43485514 .2626953 .41589356 .24153646 .39693199 .22835286 .3696289 .22314453 .33398438H.4501953Z"/>
<path id="font_1_37" d="M.49023438 .39746095C.4749349 .40478517 .4597168 .41019694 .44458009 .4136963 .42944337 .41719566 .41422526 .4189453 .39892579 .4189453 .3540039 .4189453 .31941734 .4045156 .29516603 .37565614 .2709147 .34679667 .25878907 .3054606 .25878907 .25164796V0H.083984378V.546875H.25878907V.45703126C.28125 .49301148 .30704753 .5192566 .33618165 .5357666 .36531578 .5522868 .40022788 .5605469 .44091798 .5605469 .44677735 .5605469 .453125 .56029257 .45996095 .55978396 .46679688 .55928549 .47672526 .55819198 .4897461 .5565033L.49023438 .39746095Z"/>
<path id="font_1_24" d="M.375 .11230469C.4124349 .11230469 .44099937 .12601726 .46069337 .15344239 .48038737 .18086751 .49023438 .22070313 .49023438 .27294923 .49023438 .3251953 .48038737 .3650309 .46069337 .39245606 .44099937 .4198812 .4124349 .43359376 .375 .43359376 .3375651 .43359376 .3088379 .4197998 .28881837 .3922119 .26879884 .36462403 .25878907 .32486979 .25878907 .27294923 .25878907 .22102864 .26879884 .18127442 .28881837 .15368653 .3088379 .12609864 .3375651 .11230469 .375 .11230469M.25878907 .46679688C.2828776 .4988607 .3095703 .52250167 .3388672 .5377197 .36816407 .5529378 .40185548 .5605469 .4399414 .5605469 .5073242 .5605469 .5626628 .533727 .60595706 .48008729 .6492513 .42644755 .67089846 .35740153 .67089846 .27294923 .67089846 .1884969 .6492513 .11945089 .60595706 .06581116 .5626628 .012171428 .5073242-.0146484379 .4399414-.0146484379 .40185548-.0146484379 .36816407-.007039388 .3388672 .008178711 .3095703 .02339681 .2828776 .04703776 .25878907 .07910156V0H.083984378V.7597656H.25878907V.46679688Z"/>
<path id="font_1_42" d="M.012207031 .546875H.18701172L.33398438 .17578125 .45898438 .546875H.63378909L.4038086-.05130005C.38069663-.112345378 .35375978-.15502422 .32299806-.17933655 .29223634-.20365906 .2516276-.21582031 .20117188-.21582031H.100097659V-.10058594H.15478516C.18440755-.10058594 .20597331-.09588623 .21948242-.08648682 .23299153-.07709757 .24348958-.060256959 .25097657-.035964967L.25585938-.020828248 .012207031 .546875Z"/>
<path id="font_1_21" d="M.5991211 .7059326V.55078127C.55908206 .56884768 .52001956 .5824788 .4819336 .5916748 .44384767 .6008708 .4078776 .60546877 .37402345 .60546877 .32910157 .60546877 .29589845 .59927877 .27441407 .5868988 .2529297 .574529 .2421875 .5553131 .2421875 .5292511 .2421875 .50970968 .24943035 .4944814 .26391603 .48356629 .2784017 .47265116 .3046875 .46328736 .34277345 .45547486L.42285157 .4394226C.50390627 .42314659 .56152346 .39840699 .5957031 .36520387 .6298828 .3320109 .64697268 .28481547 .64697268 .22361756 .64697268 .14321392 .62312826 .08339945 .57543948 .044174196 .5277507 .0049591066 .45491538-.0146484379 .3569336-.0146484379 .31070964-.0146484379 .2643229-.010238647 .21777344-.0014190674 .17122396 .0074005129 .12467448 .020467123 .078125 .03778076V.19726563C.12467448 .17236328 .16967774 .15360515 .21313477 .14099121 .2565918 .12837728 .2985026 .12207031 .3388672 .12207031 .3798828 .12207031 .41129557 .12891133 .43310548 .14259339 .45491538 .15627544 .4658203 .17582195 .4658203 .20123291 .4658203 .22402954 .4584147 .24161785 .44360353 .2539978 .42879234 .26637779 .3992513 .27745567 .35498048 .28723146L.28222657 .30326844C.20930989 .31889344 .15600586 .34379069 .12231445 .3779602 .08862305 .4121399 .071777347 .45820109 .071777347 .5161438 .071777347 .5887248 .095214847 .64454147 .14208985 .68359377 .18896485 .72265627 .25634767 .7421875 .34423829 .7421875 .38427735 .7421875 .42545573 .73916628 .46777345 .7331238 .5100911 .7270813 .5538737 .7180176 .5991211 .7059326Z"/>
<path id="font_1_32" d="M.083984378 .7597656H.25878907V0H.083984378V.7597656Z"/>
<path id="font_1_28" d="M.44384767 .7597656V.64453127H.34716798C.32242839 .64453127 .30517579 .6400757 .29541017 .63116458 .28564454 .6222636 .28076173 .60680136 .28076173 .58477786V.546875H.43017579V.421875H.28076173V0H.10595703V.421875H.019042969V.546875H.10595703V.58477786C.10595703 .6444092 .122558597 .6884816 .15576172 .71699526 .18896485 .74550887 .24039714 .7597656 .3100586 .7597656H.44384767Z"/>
<path id="font_1_6" d="M.05419922 .359375H.36083985V.21679688H.05419922V.359375Z"/>
<path id="font_1_36" d="M.25878907 .07910156V-.20800781H.083984378V.546875H.25878907V.46679688C.2828776 .4988607 .3095703 .52250167 .3388672 .5377197 .36816407 .5529378 .40185548 .5605469 .4399414 .5605469 .5073242 .5605469 .5626628 .533727 .60595706 .48008729 .6492513 .42644755 .67089846 .35740153 .67089846 .27294923 .67089846 .1884969 .6492513 .11945089 .60595706 .06581116 .5626628 .012171428 .5073242-.0146484379 .4399414-.0146484379 .40185548-.0146484379 .36816407-.007039388 .3388672 .008178711 .3095703 .02339681 .2828776 .04703776 .25878907 .07910156M.375 .43359376C.3375651 .43359376 .3088379 .4197998 .28881837 .3922119 .26879884 .36462403 .25878907 .32486979 .25878907 .27294923 .25878907 .22102864 .26879884 .18127442 .28881837 .15368653 .3088379 .12609864 .3375651 .11230469 .375 .11230469 .4124349 .11230469 .44099937 .12601726 .46069337 .15344239 .48038737 .18086751 .49023438 .22070313 .49023438 .27294923 .49023438 .3251953 .48038737 .3650309 .46069337 .39245606 .44099937 .4198812 .4124349 .43359376 .375 .43359376Z"/>
<path id="font_1_7" d="M.10205078 .18945313H.27783204V0H.10205078V.18945313Z"/>
<path id="font_1_25" d="M.5258789 .53027346V.3876953C.5021159 .40397135 .47827149 .41601563 .4543457 .42382813 .43041993 .43164063 .40559898 .43554688 .3798828 .43554688 .3310547 .43554688 .29305015 .42125956 .26586915 .39268495 .23868816 .36412049 .22509766 .3242086 .22509766 .27294923 .22509766 .22168987 .23868816 .18177288 .26586915 .15319824 .29305015 .12463379 .3310547 .11035156 .3798828 .11035156 .40722657 .11035156 .43318687 .114461269 .45776368 .122680667 .48234049 .13090007 .5050456 .1430664 .5258789 .15917969V.015625C.49853517 .005533854 .47078453-.0020345052 .44262696-.007080078 .4144694-.012125651 .38623048-.0146484379 .35791017-.0146484379 .25927735-.0146484379 .1821289 .010701497 .12646485 .061401369 .07080078 .11211141 .04296875 .18262737 .04296875 .27294923 .04296875 .3632711 .07080078 .43378196 .12646485 .4844818 .1821289 .53519186 .25927735 .5605469 .35791017 .5605469 .386556 .5605469 .41479493 .5580241 .44262696 .5529785 .47045899 .5479329 .49820964 .54036459 .5258789 .53027346Z"/>
<path id="font_1_30" d="M.63378909 .33338929V0H.4580078V.054260255 .25419618C.4580078 .3020986 .45694987 .3350118 .45483399 .3529358 .4527181 .37085978 .449056 .38405863 .44384767 .39253236 .43701173 .40394593 .42773438 .41282655 .41601563 .4191742 .40429688 .425532 .39095054 .42871095 .37597657 .42871095 .33951823 .42871095 .3108724 .4146169 .29003907 .38642884 .26920573 .35824076 .25878907 .31921388 .25878907 .26934815V0H.083984378V.7597656H.25878907V.46679688C.28515626 .4988607 .31315104 .52250167 .34277345 .5377197 .37239585 .5529378 .4051107 .5605469 .44091798 .5605469 .50406906 .5605469 .55200198 .5411682 .5847168 .5024109 .61743167 .46365357 .63378909 .40731303 .63378909 .33338929Z"/>
<path id="font_1_23" d="M.32910157 .24511719C.29264323 .24511719 .2652181 .23895264 .24682617 .22662354 .22843425 .21429444 .21923828 .1961263 .21923828 .17211914 .21923828 .15006511 .22664388 .13279216 .24145508 .12030029 .25626628 .10780843 .27685548 .1015625 .30322267 .1015625 .33610026 .1015625 .36376954 .11332194 .38623048 .13684082 .4086914 .1603597 .41992188 .189799 .41992188 .22515869V.24511719H.32910157M.5961914 .31134034V0H.41992188V.08105469C.39648438 .04767863 .3701172 .023381552 .3408203 .008163452 .31152345-.007044474 .2758789-.0146484379 .23388672-.0146484379 .1772461-.0146484379 .13126628 .0018717448 .095947269 .03491211 .060628255 .06795248 .04296875 .110839847 .04296875 .16357422 .04296875 .22770183 .06502279 .2747396 .10913086 .3046875 .15323894 .3346354 .22249349 .34960938 .31689454 .34960938H.41992188V.3635559C.41992188 .39146934 .40901695 .411911 .38720704 .42488099 .36539714 .43785096 .33138023 .44433595 .28515626 .44433595 .24772136 .44433595 .21289063 .44059245 .18066406 .43310548 .1484375 .4256185 .118489589 .41438804 .09082031 .39941407V.5332031C.1282552 .54215499 .16585286 .5489502 .20361328 .55358889 .2413737 .55822756 .27913413 .5605469 .31689454 .5605469 .41552735 .5605469 .48673503 .54100546 .5305176 .5019226 .5743001 .46283976 .5961914 .39931236 .5961914 .31134034Z"/>
<path id="font_1_15" d="M.38378907 .44726563C.41341148 .44726563 .4358724 .45377604 .45117188 .46679688 .46647135 .47981773 .4741211 .49902345 .4741211 .52441409 .4741211 .5494792 .46647135 .5686035 .45117188 .5817871 .4358724 .5949707 .41341148 .6015625 .38378907 .6015625H.27978517V.44726563H.38378907M.39013673 .12792969C.42789714 .12792969 .45629884 .1359253 .4753418 .1519165 .49438478 .16790772 .50390627 .1920573 .50390627 .22436524 .50390627 .25602214 .49446617 .2797648 .47558595 .29559327 .45670573 .31142173 .42822267 .31933595 .39013673 .31933595H.27978517V.12792969H.39013673M.5649414 .390625C.60530599 .3788961 .63655599 .3572235 .6586914 .3256073 .68082687 .2939911 .69189456 .25520326 .69189456 .20924378 .69189456 .13883972 .66813156 .086364749 .62060549 .051818849 .5730794 .01727295 .5008138 0 .4038086 0H.091796878V.7294922H.37402345C.4752604 .7294922 .548584 .7141927 .59399417 .68359377 .6394043 .6529948 .6621094 .6040039 .6621094 .5366211 .6621094 .50113937 .6538086 .47094728 .63720706 .44604493 .62060549 .42114259 .5965169 .40266929 .5649414 .390625Z"/>
<path id="font_1_16" d="M.091796878 .7294922H.5991211V.58691409H.27978517V.45214845H.5800781V.3095703H.27978517V0H.091796878V.7294922Z"/>
<path id="font_1_33" d="M.5908203 .45619203C.61295577 .49015809 .6392415 .51604208 .66967776 .533844 .70011398 .55164596 .7335612 .5605469 .77001956 .5605469 .83284506 .5605469 .8806966 .5411682 .9135742 .5024109 .94645187 .46365357 .9628906 .40731303 .9628906 .33338929V0H.7871094V.28547669C.7874349 .28970848 .787679 .29410807 .7878418 .29867555 .7880046 .303243 .78808596 .30976359 .78808596 .3182373 .78808596 .35701499 .78238937 .38512168 .7709961 .40255738 .75960287 .41999308 .74121096 .42871095 .7158203 .42871095 .6826172 .42871095 .6569824 .4150238 .638916 .38764955 .6208496 .36027528 .6114909 .3206787 .61083987 .26885987V0H.4350586V.28547669C.4350586 .34609477 .42985026 .38512168 .4194336 .40255738 .40901695 .41999308 .39046226 .42871095 .36376954 .42871095 .33024089 .42871095 .30436198 .4149424 .2861328 .3874054 .26790367 .35986839 .25878907 .32051597 .25878907 .26934815V0H.08300781V.546875H.25878907V.46679688C.28027345 .49788413 .30493165 .52128097 .33276368 .5369873 .3605957 .55269369 .39127604 .5605469 .4248047 .5605469 .4625651 .5605469 .495931 .5514018 .52490237 .5331116 .5538737 .51482138 .5758464 .48918153 .5908203 .45619203Z"/>
<path id="font_1_14" d="M.5341797 .1328125H.24023438L.19384766 0H.0048828127L.27490235 .7294922H.49902345L.76904299 0H.5800781L.5341797 .1328125M.28710938 .2685547H.4868164L.38720704 .55859377 .28710938 .2685547Z"/>
<path id="font_1_26" d="M.4560547 .46679688V.7597656H.63183596V0H.4560547V.07910156C.43196617 .04670207 .4054362 .02297465 .37646485 .0079193119 .3474935-.0071258547 .31396485-.0146484379 .2758789-.0146484379 .2084961-.0146484379 .15315755 .012171428 .10986328 .06581116 .06656901 .11945089 .044921876 .1884969 .044921876 .27294923 .044921876 .35740153 .06656901 .42644755 .10986328 .48008729 .15315755 .533727 .2084961 .5605469 .2758789 .5605469 .3136393 .5605469 .34708659 .5529378 .3762207 .5377197 .40535484 .52250167 .43196617 .4988607 .4560547 .46679688M.3408203 .11230469C.37825523 .11230469 .40681968 .12601726 .42651368 .15344239 .44620768 .18086751 .4560547 .22070313 .4560547 .27294923 .4560547 .3251953 .44620768 .3650309 .42651368 .39245606 .40681968 .4198812 .37825523 .43359376 .3408203 .43359376 .30371095 .43359376 .27530924 .4198812 .25561524 .39245606 .23592122 .3650309 .22607422 .3251953 .22607422 .27294923 .22607422 .22070313 .23592122 .18086751 .25561524 .15344239 .27530924 .12601726 .30371095 .11230469 .3408203 .11230469Z"/>
<path id="font_1_40" d="M.015136719 .546875H.1899414L.32617188 .16894531 .46191407 .546875H.63720706L.421875 0H.22998047L.015136719 .546875Z"/>
<path id="font_1_18" d="M.091796878 .7294922H.27978517V.14257813H.6098633V0H.091796878V.7294922Z"/>
<path id="font_1_19" d="M.091796878 .7294922H.3310547L.4970703 .33935548 .6640625 .7294922H.90283206V0H.72509768V.5336914L.5571289 .140625H.43798829L.27001954 .5336914V0H.091796878V.7294922Z"/>
<path id="font_1_4" d="M.37695313-.13183594H.2319336C.1821289-.051432294 .14534505 .024983725 .12158203 .09741211 .09781901 .1698405 .0859375 .24169922 .0859375 .31298829 .0859375 .38427735 .09790039 .45646159 .12182617 .529541 .14575196 .6026204 .18245442 .67903646 .2319336 .75878909H.37695313C.33528648 .6816406 .30403648 .6062012 .28320313 .5324707 .26236979 .45874024 .25195313 .38590495 .25195313 .31396485 .25195313 .24202474 .26228843 .16910808 .28295899 .095214847 .30362956 .021321616 .33496095-.05436198 .37695313-.13183594Z"/>
<path id="font_1_13" d="M.10595703 .47558595V.59765627L.7319336 .37158204V.25634767L.10595703 .030273438V.15234375L.57714846 .31347657 .10595703 .47558595Z"/>
<path id="font_1_11" d="M.06689453 .7294922H.61621096V.62345889L.33203126 0H.14892578L.41796876 .5908203H.06689453V.7294922Z"/>
<path id="font_1_8" d="M.45996095 .3647461C.45996095 .45589195 .45141603 .5201009 .43432618 .55737307 .41723634 .5946452 .38850913 .61328127 .34814454 .61328127 .30777995 .61328127 .27897135 .5946452 .26171876 .55737307 .24446614 .5201009 .23583985 .45589195 .23583985 .3647461 .23583985 .2726237 .24446614 .2076823 .26171876 .16992188 .27897135 .13216146 .30777995 .11328125 .34814454 .11328125 .3881836 .11328125 .41682945 .13216146 .43408204 .16992188 .45133464 .2076823 .45996095 .2726237 .45996095 .3647461M.6479492 .3635254C.6479492 .24267578 .62190756 .1494344 .5698242 .08380127 .5177409 .01816813 .44384767-.0146484379 .34814454-.0146484379 .25211589-.0146484379 .17805989 .01816813 .12597656 .08380127 .07389323 .1494344 .047851564 .24267578 .047851564 .3635254 .047851564 .48470054 .07389323 .5781047 .12597656 .6437378 .17805989 .7093709 .25211589 .7421875 .34814454 .7421875 .44384767 .7421875 .5177409 .7093709 .5698242 .6437378 .62190756 .5781047 .6479492 .48470054 .6479492 .3635254Z"/>
<path id="font_1_5" d="M.080078128-.13183594C.12174479-.05436198 .1529948 .021321616 .17382813 .095214847 .19466146 .16910808 .20507813 .24202474 .20507813 .31396485 .20507813 .38590495 .19466146 .45874024 .17382813 .5324707 .1529948 .6062012 .12174479 .6816406 .080078128 .75878909H.22509766C.2745768 .67903646 .3112793 .6026204 .33520509 .529541 .35913087 .45646159 .37109376 .38427735 .37109376 .31298829 .37109376 .24169922 .35921226 .1698405 .33544923 .09741211 .3116862 .024983725 .27490235-.051432294 .22509766-.13183594H.080078128Z"/>
<path id="font_1_43" d="M.7319336 .11621094V0H.10595703V.11621094H.7319336M.7319336 .46302796 .2939453 .36108399 .7319336 .25914V.140625L.10595703 .3045044V.41912843L.7319336 .58203127V.46302796Z"/>
<path id="font_1_9" d="M.1171875 .12988281H.28320313V.6015625L.11279297 .56640627V.69433596L.28222657 .7294922H.4609375V.12988281H.6269531V0H.1171875V.12988281Z"/>
<path id="font_1_10" d="M.36816407 .57470706 .16210938 .26953126H.36816407V.57470706M.33691407 .7294922H.54589846V.26953126H.64990237V.1328125H.54589846V0H.36816407V.1328125H.044921876V.29408265L.33691407 .7294922Z"/>
<clipPath id="clip_2">
<path transform="matrix(1,0,0,-1,0,168.35942)" d="M53.32 4.32H466.74403V121.536H53.32Z"/>
</clipPath>
<clipPath id="clip_3">
<path transform="matrix(1,0,0,-1,0,168.35942)" d="M53.32 4.32H466.74403V121.536H53.32Z"/>
</clipPath>
<clipPath id="clip_4">
<path transform="matrix(1,0,0,-1,0,168.35942)" d="M53.32 4.32H466.74403V121.536H53.32Z"/>
</clipPath>
<clipPath id="clip_5">
<path transform="matrix(1,0,0,-1,0,168.35942)" d="M53.32 4.32H466.74403V121.536H53.32Z"/>
</clipPath>
<clipPath id="clip_6">
<path transform="matrix(1,0,0,-1,0,168.35942)" d="M53.32 4.32H466.74403V121.536H53.32Z"/>
</clipPath>
<clipPath id="clip_7">
<path transform="matrix(1,0,0,-1,0,168.35942)" d="M53.32 4.32H466.74403V121.536H53.32Z"/>
</clipPath>
<clipPath id="clip_8">
<path transform="matrix(1,0,0,-1,0,168.35942)" d="M53.32 4.32H466.74403V121.536H53.32Z"/>
</clipPath>
<clipPath id="clip_9">
<path transform="matrix(1,0,0,-1,0,168.35942)" d="M53.32 4.32H466.74403V121.536H53.32Z"/>
</clipPath>
<clipPath id="clip_10">
<path transform="matrix(1,0,0,-1,0,168.35942)" d="M53.32 4.32H466.74403V121.536H53.32Z"/>
</clipPath>
<clipPath id="clip_11">
<path transform="matrix(1,0,0,-1,0,168.35942)" d="M53.32 4.32H466.74403V121.536H53.32Z"/>
</clipPath>
<clipPath id="clip_12">
<path transform="matrix(1,0,0,-1,0,168.35942)" d="M53.32 4.32H466.74403V121.536H53.32Z"/>
</clipPath>
<clipPath id="clip_13">
<path transform="matrix(1,0,0,-1,0,168.35942)" d="M53.32 4.32H466.74403V121.536H53.32Z"/>
</clipPath>
<clipPath id="clip_14">
<path transform="matrix(1,0,0,-1,0,168.35942)" d="M53.32 4.32H466.74403V121.536H53.32Z"/>
</clipPath>
<clipPath id="clip_15">
<path transform="matrix(1,0,0,-1,0,168.35942)" d="M53.32 4.32H466.74403V121.536H53.32Z"/>
</clipPath>
<path id="font_1_17" d="M.091796878 .7294922H.27978517V.45214845H.5571289V.7294922H.7451172V0H.5571289V.3095703H.27978517V0H.091796878V.7294922Z"/>
<path id="font_1_29" d="M.4560547 .09277344C.43196617 .060872396 .4054362 .037434896 .37646485 .022460938 .3474935 .007486979 .31396485 0 .2758789 0 .20914714 0 .15397136 .026306153 .11035156 .07891846 .06673177 .13154094 .044921876 .19857788 .044921876 .2800293 .044921876 .36180625 .06673177 .4288381 .11035156 .48112489 .15397136 .5334218 .20914714 .5595703 .2758789 .5595703 .31396485 .5595703 .3474935 .55204269 .37646485 .5369873 .4054362 .52194216 .43196617 .49821983 .4560547 .4658203V.546875H.63183596V.05517578C.63183596-.032714845 .60408529-.099853519 .548584-.14624024 .49308268-.19262696 .41259767-.21582031 .3071289-.21582031 .27294923-.21582031 .23990886-.21317546 .20800781-.20788574 .17610677-.20259603 .14404297-.1944987 .111816409-.18359375V-.046875C.14241536-.06461588 .17236328-.07784017 .20166016-.08654785 .23095703-.09525553 .26041667-.099609378 .29003907-.099609378 .34733073-.099609378 .3893229-.08711243 .41601563-.06211853 .44270835-.037134809 .4560547 .0019632977 .4560547 .05517578V.09277344M.3408203 .43359376C.3046875 .43359376 .27652995 .42022706 .25634767 .39349366 .23616536 .36676026 .22607422 .3289388 .22607422 .2800293 .22607422 .2298177 .23583985 .19175212 .2553711 .16583252 .27490235 .13991292 .3033854 .12695313 .3408203 .12695313 .37727867 .12695313 .40559898 .14031983 .42578126 .16705323 .44596354 .19378662 .4560547 .23144531 .4560547 .2800293 .4560547 .3289388 .44596354 .36676026 .42578126 .39349366 .40559898 .42022706 .37727867 .43359376 .3408203 .43359376Z"/>
<path id="font_1_41" d="M.03515625 .546875H.20507813L.296875 .16992188 .38916017 .546875H.53515627L.6269531 .17382813 .7192383 .546875H.88916018L.7451172 0H.5541992L.46191407 .37597657 .3701172 0H.17919922L.03515625 .546875Z"/>
<clipPath id="clip_16">
<path transform="matrix(1,0,0,-1,0,168.35942)" d="M53.32 4.32H466.74403V121.536H53.32Z"/>
</clipPath>
<clipPath id="clip_17">
<path transform="matrix(1,0,0,-1,0,168.35942)" d="M53.32 4.32H466.74403V121.536H53.32Z"/>
</clipPath>
<clipPath id="clip_18">
<path transform="matrix(1,0,0,-1,0,168.35942)" d="M53.32 4.32H466.74403V121.536H53.32Z"/>
</clipPath>
<clipPath id="clip_19">
<path transform="matrix(1,0,0,-1,0,168.35942)" d="M53.32 4.32H466.74403V121.536H53.32Z"/>
</clipPath>
<clipPath id="clip_20">
<path transform="matrix(1,0,0,-1,0,168.35942)" d="M53.32 4.32H466.74403V121.536H53.32Z"/>
</clipPath>
<clipPath id="clip_21">
<path transform="matrix(1,0,0,-1,0,168.35942)" d="M53.32 4.32H466.74403V121.536H53.32Z"/>
</clipPath>
<clipPath id="clip_22">
<path transform="matrix(1,0,0,-1,0,168.35942)" d="M53.32 4.32H466.74403V121.536H53.32Z"/>
</clipPath>
<clipPath id="clip_23">
<path transform="matrix(1,0,0,-1,0,168.35942)" d="M53.32 4.32H466.74403V121.536H53.32Z"/>
</clipPath>
<clipPath id="clip_24">
<path transform="matrix(1,0,0,-1,0,168.35942)" d="M53.32 4.32H466.74403V121.536H53.32Z"/>
</clipPath>
<clipPath id="clip_25">
<path transform="matrix(1,0,0,-1,0,168.35942)" d="M53.32 4.32H466.74403V121.536H53.32Z"/>
</clipPath>
<clipPath id="clip_26">
<path transform="matrix(1,0,0,-1,0,168.35942)" d="M53.32 4.32H466.74403V121.536H53.32Z"/>
</clipPath>
<clipPath id="clip_27">
<path transform="matrix(1,0,0,-1,0,168.35942)" d="M53.32 4.32H466.74403V121.536H53.32Z"/>
</clipPath>
</defs>
<path transform="matrix(1,0,0,-1,0,168.35942)" d="M0 0H507.27723V168.35942H0Z" fill="#ffffff"/>
<path transform="matrix(1,0,0,-1,0,168.35942)" d="M53.32 4.32H466.744V121.536H53.32Z" fill="#ffffff"/>
<use data-text="P" xlink:href="#font_1_20" transform="matrix(9.5162329,-4.437492,-4.437492,-9.5162329,86.38311,41.755907)" fill="#1f2937"/>
<use data-text="o" xlink:href="#font_1_35" transform="matrix(9.5162329,-4.437492,-4.437492,-9.5162329,93.358509,38.503225)" fill="#1f2937"/>
<use data-text="s" xlink:href="#font_1_38" transform="matrix(9.5162329,-4.437492,-4.437492,-9.5162329,99.896167,35.454668)" fill="#1f2937"/>
<use data-text="i" xlink:href="#font_1_31" transform="matrix(9.5162329,-4.437492,-4.437492,-9.5162329,105.55832,32.814359)" fill="#1f2937"/>
<use data-text="t" xlink:href="#font_1_39" transform="matrix(9.5162329,-4.437492,-4.437492,-9.5162329,108.82239,31.2923)" fill="#1f2937"/>
<use data-text="i" xlink:href="#font_1_31" transform="matrix(9.5162329,-4.437492,-4.437492,-9.5162329,113.37114,29.171179)" fill="#1f2937"/>
<use data-text="o" xlink:href="#font_1_35" transform="matrix(9.5162329,-4.437492,-4.437492,-9.5162329,116.635219,27.649119)" fill="#1f2937"/>
<use data-text="n" xlink:href="#font_1_34" transform="matrix(9.5162329,-4.437492,-4.437492,-9.5162329,123.17287,24.600562)" fill="#1f2937"/>
<use data-text="V" xlink:href="#font_1_22" transform="matrix(9.5162329,-4.437492,-4.437492,-9.5162329,145.44368,41.670946)" fill="#1f2937"/>
<use data-text="e" xlink:href="#font_1_27" transform="matrix(9.5162329,-4.437492,-4.437492,-9.5162329,152.29944,38.47405)" fill="#1f2937"/>
<use data-text="r" xlink:href="#font_1_37" transform="matrix(9.5162329,-4.437492,-4.437492,-9.5162329,158.75145,35.465429)" fill="#1f2937"/>
<use data-text="b" xlink:href="#font_1_24" transform="matrix(9.5162329,-4.437492,-4.437492,-9.5162329,163.44295,33.277746)" fill="#1f2937"/>
<use data-text="o" xlink:href="#font_1_35" transform="matrix(9.5162329,-4.437492,-4.437492,-9.5162329,170.25658,30.100502)" fill="#1f2937"/>
<use data-text="s" xlink:href="#font_1_38" transform="matrix(9.5162329,-4.437492,-4.437492,-9.5162329,176.79422,27.051945)" fill="#1f2937"/>
<use data-text="i" xlink:href="#font_1_31" transform="matrix(9.5162329,-4.437492,-4.437492,-9.5162329,182.45639,24.411637)" fill="#1f2937"/>
<use data-text="t" xlink:href="#font_1_39" transform="matrix(9.5162329,-4.437492,-4.437492,-9.5162329,185.72046,22.889576)" fill="#1f2937"/>
<use data-text="y" xlink:href="#font_1_42" transform="matrix(9.5162329,-4.437492,-4.437492,-9.5162329,190.26921,20.768454)" fill="#1f2937"/>
<use data-text="S" xlink:href="#font_1_21" transform="matrix(9.5162329,-4.437492,-4.437492,-9.5162329,204.50426,41.755907)" fill="#1f2937"/>
<use data-text="e" xlink:href="#font_1_27" transform="matrix(9.5162329,-4.437492,-4.437492,-9.5162329,211.35594,38.56091)" fill="#1f2937"/>
<use data-text="l" xlink:href="#font_1_32" transform="matrix(9.5162329,-4.437492,-4.437492,-9.5162329,217.80796,35.55229)" fill="#1f2937"/>
<use data-text="f" xlink:href="#font_1_28" transform="matrix(9.5162329,-4.437492,-4.437492,-9.5162329,221.07202,34.03023)" fill="#1f2937"/>
<use data-text="-" xlink:href="#font_1_6" transform="matrix(9.5162329,-4.437492,-4.437492,-9.5162329,225.0558,32.17256)" fill="#1f2937"/>
<use data-text="p" xlink:href="#font_1_36" transform="matrix(9.5162329,-4.437492,-4.437492,-9.5162329,229.00504,30.331002)" fill="#1f2937"/>
<use data-text="r" xlink:href="#font_1_37" transform="matrix(9.5162329,-4.437492,-4.437492,-9.5162329,235.81867,27.153758)" fill="#1f2937"/>
<use data-text="e" xlink:href="#font_1_27" transform="matrix(9.5162329,-4.437492,-4.437492,-9.5162329,240.51016,24.966074)" fill="#1f2937"/>
<use data-text="f" xlink:href="#font_1_28" transform="matrix(9.5162329,-4.437492,-4.437492,-9.5162329,246.96218,21.957455)" fill="#1f2937"/>
<use data-text="." xlink:href="#font_1_7" transform="matrix(9.5162329,-4.437492,-4.437492,-9.5162329,250.59194,20.264868)" fill="#1f2937"/>
<use data-text="S" xlink:href="#font_1_21" transform="matrix(9.5162329,-4.437492,-4.437492,-9.5162329,263.56483,41.670946)" fill="#1f2937"/>
<use data-text="y" xlink:href="#font_1_42" transform="matrix(9.5162329,-4.437492,-4.437492,-9.5162329,270.4165,38.47595)" fill="#1f2937"/>
<use data-text="c" xlink:href="#font_1_25" transform="matrix(9.5162329,-4.437492,-4.437492,-9.5162329,276.6211,35.582708)" fill="#1f2937"/>
<use data-text="o" xlink:href="#font_1_35" transform="matrix(9.5162329,-4.437492,-4.437492,-9.5162329,282.26423,32.95127)" fill="#1f2937"/>
<use data-text="p" xlink:href="#font_1_36" transform="matrix(9.5162329,-4.437492,-4.437492,-9.5162329,288.80189,29.902716)" fill="#1f2937"/>
<use data-text="h" xlink:href="#font_1_30" transform="matrix(9.5162329,-4.437492,-4.437492,-9.5162329,295.61549,26.725472)" fill="#1f2937"/>
<use data-text="a" xlink:href="#font_1_23" transform="matrix(9.5162329,-4.437492,-4.437492,-9.5162329,302.39106,23.565976)" fill="#1f2937"/>
<use data-text="n" xlink:href="#font_1_34" transform="matrix(9.5162329,-4.437492,-4.437492,-9.5162329,308.8145,20.57067)" fill="#1f2937"/>
<use data-text="c" xlink:href="#font_1_25" transform="matrix(9.5162329,-4.437492,-4.437492,-9.5162329,315.59007,17.411173)" fill="#1f2937"/>
<use data-text="y" xlink:href="#font_1_42" transform="matrix(9.5162329,-4.437492,-4.437492,-9.5162329,321.2332,14.779739)" fill="#1f2937"/>
<use data-text="B" xlink:href="#font_1_15" transform="matrix(9.5162329,-4.437492,-4.437492,-9.5162329,322.6254,41.755907)" fill="#1f2937"/>
<use data-text="a" xlink:href="#font_1_23" transform="matrix(9.5162329,-4.437492,-4.437492,-9.5162329,329.87678,38.374536)" fill="#1f2937"/>
<use data-text="l" xlink:href="#font_1_32" transform="matrix(9.5162329,-4.437492,-4.437492,-9.5162329,336.30024,35.37923)" fill="#1f2937"/>
<use data-text="a" xlink:href="#font_1_23" transform="matrix(9.5162329,-4.437492,-4.437492,-9.5162329,339.5643,33.85717)" fill="#1f2937"/>
<use data-text="n" xlink:href="#font_1_34" transform="matrix(9.5162329,-4.437492,-4.437492,-9.5162329,345.98774,30.861863)" fill="#1f2937"/>
<use data-text="c" xlink:href="#font_1_25" transform="matrix(9.5162329,-4.437492,-4.437492,-9.5162329,352.7633,27.702368)" fill="#1f2937"/>
<use data-text="e" xlink:href="#font_1_27" transform="matrix(9.5162329,-4.437492,-4.437492,-9.5162329,358.40644,25.070935)" fill="#1f2937"/>
<use data-text="F" xlink:href="#font_1_16" transform="matrix(9.5162329,-4.437492,-4.437492,-9.5162329,381.68598,41.755907)" fill="#1f2937"/>
<use data-text="o" xlink:href="#font_1_35" transform="matrix(9.5162329,-4.437492,-4.437492,-9.5162329,387.80323,38.90339)" fill="#1f2937"/>
<use data-text="r" xlink:href="#font_1_37" transform="matrix(9.5162329,-4.437492,-4.437492,-9.5162329,394.34086,35.85483)" fill="#1f2937"/>
<use data-text="m" xlink:href="#font_1_33" transform="matrix(9.5162329,-4.437492,-4.437492,-9.5162329,399.03239,33.66715)" fill="#1f2937"/>
<use data-text="a" xlink:href="#font_1_23" transform="matrix(9.5162329,-4.437492,-4.437492,-9.5162329,408.94828,29.043282)" fill="#1f2937"/>
<use data-text="t" xlink:href="#font_1_39" transform="matrix(9.5162329,-4.437492,-4.437492,-9.5162329,415.37174,26.047974)" fill="#1f2937"/>
<use data-text="A" xlink:href="#font_1_14" transform="matrix(9.5162329,-4.437492,-4.437492,-9.5162329,440.74656,41.755907)" fill="#1f2937"/>
<use data-text="d" xlink:href="#font_1_26" transform="matrix(9.5162329,-4.437492,-4.437492,-9.5162329,448.11213,38.321287)" fill="#1f2937"/>
<use data-text="v" xlink:href="#font_1_40" transform="matrix(9.5162329,-4.437492,-4.437492,-9.5162329,454.92576,35.144044)" fill="#1f2937"/>
<use data-text="e" xlink:href="#font_1_27" transform="matrix(9.5162329,-4.437492,-4.437492,-9.5162329,461.1303,32.250799)" fill="#1f2937"/>
<use data-text="r" xlink:href="#font_1_37" transform="matrix(9.5162329,-4.437492,-4.437492,-9.5162329,467.58235,29.242178)" fill="#1f2937"/>
<use data-text="s" xlink:href="#font_1_38" transform="matrix(9.5162329,-4.437492,-4.437492,-9.5162329,472.27384,27.054495)" fill="#1f2937"/>
<use data-text="a" xlink:href="#font_1_23" transform="matrix(9.5162329,-4.437492,-4.437492,-9.5162329,477.93598,24.414187)" fill="#1f2937"/>
<use data-text="r" xlink:href="#font_1_37" transform="matrix(9.5162329,-4.437492,-4.437492,-9.5162329,484.35945,21.418879)" fill="#1f2937"/>
<use data-text="i" xlink:href="#font_1_31" transform="matrix(9.5162329,-4.437492,-4.437492,-9.5162329,489.05097,19.231196)" fill="#1f2937"/>
<use data-text="a" xlink:href="#font_1_23" transform="matrix(9.5162329,-4.437492,-4.437492,-9.5162329,492.315,17.709136)" fill="#1f2937"/>
<use data-text="l" xlink:href="#font_1_32" transform="matrix(9.5162329,-4.437492,-4.437492,-9.5162329,498.73847,14.713827)" fill="#1f2937"/>
<use data-text="L" xlink:href="#font_1_18" transform="matrix(10.5,0,0,-10.5,26.491875,74.98679)" fill="#1f2937"/>
<use data-text="L" xlink:href="#font_1_18" transform="matrix(10.5,0,0,-10.5,33.180376,74.98679)" fill="#1f2937"/>
<use data-text="M" xlink:href="#font_1_19" transform="matrix(10.5,0,0,-10.5,39.868875,74.98679)" fill="#1f2937"/>
<use data-text="(" xlink:href="#font_1_4" transform="matrix(10.5,0,0,-10.5,9.304375,87.29929)" fill="#1f2937"/>
<use data-text="&#x003e;" xlink:href="#font_1_13" transform="matrix(10.5,0,0,-10.5,14.102875,87.29929)" fill="#1f2937"/>
<use data-text="7" xlink:href="#font_1_11" transform="matrix(10.5,0,0,-10.5,22.901875,87.29929)" fill="#1f2937"/>
<use data-text="0" xlink:href="#font_1_8" transform="matrix(10.5,0,0,-10.5,30.209877,87.29929)" fill="#1f2937"/>
<use data-text="B" xlink:href="#font_1_15" transform="matrix(10.5,0,0,-10.5,37.517877,87.29929)" fill="#1f2937"/>
<use data-text=")" xlink:href="#font_1_5" transform="matrix(10.5,0,0,-10.5,45.51888,87.29929)" fill="#1f2937"/>
<use data-text="S" xlink:href="#font_1_21" transform="matrix(10.5,0,0,-10.5,25.616875,133.4151)" fill="#1f2937"/>
<use data-text="L" xlink:href="#font_1_18" transform="matrix(10.5,0,0,-10.5,33.176877,133.4151)" fill="#1f2937"/>
<use data-text="M" xlink:href="#font_1_19" transform="matrix(10.5,0,0,-10.5,39.865377,133.4151)" fill="#1f2937"/>
<use data-text="(" xlink:href="#font_1_4" transform="matrix(10.5,0,0,-10.5,4.32,145.50261)" fill="#1f2937"/>
<use data-text="&#x2264;" xlink:href="#font_1_43" transform="matrix(10.5,0,0,-10.5,11.307013,145.50261)" fill="#1f2937"/>
<use data-text="1" xlink:href="#font_1_9" transform="matrix(10.5,0,0,-10.5,22.293047,145.50261)" fill="#1f2937"/>
<use data-text="4" xlink:href="#font_1_10" transform="matrix(10.5,0,0,-10.5,29.598956,145.50261)" fill="#1f2937"/>
<use data-text="B" xlink:href="#font_1_15" transform="matrix(10.5,0,0,-10.5,36.90486,145.50261)" fill="#1f2937"/>
<use data-text=")" xlink:href="#font_1_5" transform="matrix(10.5,0,0,-10.5,44.908037,145.50261)" fill="#1f2937"/>
<g clip-path="url(#clip_2)">
<path transform="matrix(1,0,0,-1,0,168.35942)" d="M53.32 121.536H112.38057V62.928H53.32Z" fill="#4a9292"/>
</g>
<g clip-path="url(#clip_3)">
<path transform="matrix(1,0,0,-1,0,168.35942)" d="M112.38057 121.536H171.44115V62.928H112.38057Z" fill="#4a9292"/>
</g>
<g clip-path="url(#clip_4)">
<path transform="matrix(1,0,0,-1,0,168.35942)" d="M171.44115 121.536H230.50171V62.928H171.44115Z" fill="#4a9292"/>
</g>
<g clip-path="url(#clip_5)">
<path transform="matrix(1,0,0,-1,0,168.35942)" d="M230.50171 121.536H289.5623V62.928H230.50171Z" fill="#4a9292"/>
</g>
<g clip-path="url(#clip_6)">
<path transform="matrix(1,0,0,-1,0,168.35942)" d="M289.5623 121.536H348.62287V62.928H289.5623Z" fill="#4a9292"/>
</g>
<g clip-path="url(#clip_7)">
<path transform="matrix(1,0,0,-1,0,168.35942)" d="M348.62287 121.536H407.68345V62.928H348.62287Z" fill="#4a9292"/>
</g>
<g clip-path="url(#clip_8)">
<path transform="matrix(1,0,0,-1,0,168.35942)" d="M407.68345 121.536H466.744V62.928H407.68345Z" fill="#4a9292"/>
</g>
<g clip-path="url(#clip_9)">
<path transform="matrix(1,0,0,-1,0,168.35942)" d="M53.32 62.928H112.38057V4.32H53.32Z" fill="#115050"/>
</g>
<g clip-path="url(#clip_10)">
<path transform="matrix(1,0,0,-1,0,168.35942)" d="M112.38057 62.928H171.44115V4.32H112.38057Z" fill="#115050"/>
</g>
<g clip-path="url(#clip_11)">
<path transform="matrix(1,0,0,-1,0,168.35942)" d="M171.44115 62.928H230.50171V4.32H171.44115Z" fill="#acd6d6"/>
</g>
<g clip-path="url(#clip_12)">
<path transform="matrix(1,0,0,-1,0,168.35942)" d="M230.50171 62.928H289.5623V4.32H230.50171Z" fill="#115050"/>
</g>
<g clip-path="url(#clip_13)">
<path transform="matrix(1,0,0,-1,0,168.35942)" d="M289.5623 62.928H348.62287V4.32H289.5623Z" fill="#115050"/>
</g>
<g clip-path="url(#clip_14)">
<path transform="matrix(1,0,0,-1,0,168.35942)" d="M348.62287 62.928H407.68345V4.32H348.62287Z" fill="#115050"/>
</g>
<g clip-path="url(#clip_15)">
<path transform="matrix(1,0,0,-1,0,168.35942)" d="M407.68345 62.928H466.744V4.32H407.68345Z" fill="#115050"/>
</g>
<use data-text="M" xlink:href="#font_1_19" transform="matrix(8.5,0,0,-8.5,72.70185,78.61179)" fill="#ffffff"/>
<use data-text="e" xlink:href="#font_1_27" transform="matrix(8.5,0,0,-8.5,81.15935,78.61179)" fill="#ffffff"/>
<use data-text="d" xlink:href="#font_1_26" transform="matrix(8.5,0,0,-8.5,86.92235,78.61179)" fill="#ffffff"/>
<use data-text="M" xlink:href="#font_1_19" transform="matrix(8.5,0,0,-8.5,131.76242,78.61179)" fill="#ffffff"/>
<use data-text="e" xlink:href="#font_1_27" transform="matrix(8.5,0,0,-8.5,140.21993,78.61179)" fill="#ffffff"/>
<use data-text="d" xlink:href="#font_1_26" transform="matrix(8.5,0,0,-8.5,145.98293,78.61179)" fill="#ffffff"/>
<use data-text="M" xlink:href="#font_1_19" transform="matrix(8.5,0,0,-8.5,190.823,78.61179)" fill="#ffffff"/>
<use data-text="e" xlink:href="#font_1_27" transform="matrix(8.5,0,0,-8.5,199.2805,78.61179)" fill="#ffffff"/>
<use data-text="d" xlink:href="#font_1_26" transform="matrix(8.5,0,0,-8.5,205.0435,78.61179)" fill="#ffffff"/>
<use data-text="M" xlink:href="#font_1_19" transform="matrix(8.5,0,0,-8.5,249.88356,78.61179)" fill="#ffffff"/>
<use data-text="e" xlink:href="#font_1_27" transform="matrix(8.5,0,0,-8.5,258.34107,78.61179)" fill="#ffffff"/>
<use data-text="d" xlink:href="#font_1_26" transform="matrix(8.5,0,0,-8.5,264.10408,78.61179)" fill="#ffffff"/>
<use data-text="M" xlink:href="#font_1_19" transform="matrix(8.5,0,0,-8.5,308.94413,78.61179)" fill="#ffffff"/>
<use data-text="e" xlink:href="#font_1_27" transform="matrix(8.5,0,0,-8.5,317.4016,78.61179)" fill="#ffffff"/>
<use data-text="d" xlink:href="#font_1_26" transform="matrix(8.5,0,0,-8.5,323.1646,78.61179)" fill="#ffffff"/>
<use data-text="M" xlink:href="#font_1_19" transform="matrix(8.5,0,0,-8.5,368.0047,78.61179)" fill="#ffffff"/>
<use data-text="e" xlink:href="#font_1_27" transform="matrix(8.5,0,0,-8.5,376.4622,78.61179)" fill="#ffffff"/>
<use data-text="d" xlink:href="#font_1_26" transform="matrix(8.5,0,0,-8.5,382.2252,78.61179)" fill="#ffffff"/>
<use data-text="M" xlink:href="#font_1_19" transform="matrix(8.5,0,0,-8.5,427.06529,78.61179)" fill="#ffffff"/>
<use data-text="e" xlink:href="#font_1_27" transform="matrix(8.5,0,0,-8.5,435.52278,78.61179)" fill="#ffffff"/>
<use data-text="d" xlink:href="#font_1_26" transform="matrix(8.5,0,0,-8.5,441.28578,78.61179)" fill="#ffffff"/>
<use data-text="H" xlink:href="#font_1_17" transform="matrix(8.5,0,0,-8.5,71.77216,137.18854)" fill="#ffffff"/>
<use data-text="i" xlink:href="#font_1_31" transform="matrix(8.5,0,0,-8.5,78.886669,137.18854)" fill="#ffffff"/>
<use data-text="g" xlink:href="#font_1_29" transform="matrix(8.5,0,0,-8.5,81.80216,137.18854)" fill="#ffffff"/>
<use data-text="h" xlink:href="#font_1_30" transform="matrix(8.5,0,0,-8.5,87.88817,137.18854)" fill="#ffffff"/>
<use data-text="H" xlink:href="#font_1_17" transform="matrix(8.5,0,0,-8.5,130.83274,137.18854)" fill="#ffffff"/>
<use data-text="i" xlink:href="#font_1_31" transform="matrix(8.5,0,0,-8.5,137.94724,137.18854)" fill="#ffffff"/>
<use data-text="g" xlink:href="#font_1_29" transform="matrix(8.5,0,0,-8.5,140.86273,137.18854)" fill="#ffffff"/>
<use data-text="h" xlink:href="#font_1_30" transform="matrix(8.5,0,0,-8.5,146.94873,137.18854)" fill="#ffffff"/>
<use data-text="L" xlink:href="#font_1_18" transform="matrix(8.5,0,0,-8.5,191.40894,137.21979)" fill="#1f2937"/>
<use data-text="o" xlink:href="#font_1_35" transform="matrix(8.5,0,0,-8.5,196.82344,137.21979)" fill="#1f2937"/>
<use data-text="w" xlink:href="#font_1_41" transform="matrix(8.5,0,0,-8.5,202.66294,137.21979)" fill="#1f2937"/>
<use data-text="H" xlink:href="#font_1_17" transform="matrix(8.5,0,0,-8.5,248.95388,137.18854)" fill="#ffffff"/>
<use data-text="i" xlink:href="#font_1_31" transform="matrix(8.5,0,0,-8.5,256.06837,137.18854)" fill="#ffffff"/>
<use data-text="g" xlink:href="#font_1_29" transform="matrix(8.5,0,0,-8.5,258.9839,137.18854)" fill="#ffffff"/>
<use data-text="h" xlink:href="#font_1_30" transform="matrix(8.5,0,0,-8.5,265.0699,137.18854)" fill="#ffffff"/>
<use data-text="H" xlink:href="#font_1_17" transform="matrix(8.5,0,0,-8.5,308.01445,137.18854)" fill="#ffffff"/>
<use data-text="i" xlink:href="#font_1_31" transform="matrix(8.5,0,0,-8.5,315.12895,137.18854)" fill="#ffffff"/>
<use data-text="g" xlink:href="#font_1_29" transform="matrix(8.5,0,0,-8.5,318.04444,137.18854)" fill="#ffffff"/>
<use data-text="h" xlink:href="#font_1_30" transform="matrix(8.5,0,0,-8.5,324.13044,137.18854)" fill="#ffffff"/>
<use data-text="H" xlink:href="#font_1_17" transform="matrix(8.5,0,0,-8.5,367.075,137.18854)" fill="#ffffff"/>
<use data-text="i" xlink:href="#font_1_31" transform="matrix(8.5,0,0,-8.5,374.1895,137.18854)" fill="#ffffff"/>
<use data-text="g" xlink:href="#font_1_29" transform="matrix(8.5,0,0,-8.5,377.105,137.18854)" fill="#ffffff"/>
<use data-text="h" xlink:href="#font_1_30" transform="matrix(8.5,0,0,-8.5,383.191,137.18854)" fill="#ffffff"/>
<use data-text="H" xlink:href="#font_1_17" transform="matrix(8.5,0,0,-8.5,426.1356,137.18854)" fill="#ffffff"/>
<use data-text="i" xlink:href="#font_1_31" transform="matrix(8.5,0,0,-8.5,433.2501,137.18854)" fill="#ffffff"/>
<use data-text="g" xlink:href="#font_1_29" transform="matrix(8.5,0,0,-8.5,436.1656,137.18854)" fill="#ffffff"/>
<use data-text="h" xlink:href="#font_1_30" transform="matrix(8.5,0,0,-8.5,442.2516,137.18854)" fill="#ffffff"/>
<g clip-path="url(#clip_16)">
<path transform="matrix(1,0,0,-1,0,168.35942)" stroke-width="1.6" stroke-linecap="square" stroke-linejoin="round" fill="none" stroke="#ffffff" d="M53.32 4.32V121.536"/>
</g>
<g clip-path="url(#clip_17)">
<path transform="matrix(1,0,0,-1,0,168.35942)" stroke-width="1.6" stroke-linecap="square" stroke-linejoin="round" fill="none" stroke="#ffffff" d="M112.38057 4.32V121.536"/>
</g>
<g clip-path="url(#clip_18)">
<path transform="matrix(1,0,0,-1,0,168.35942)" stroke-width="1.6" stroke-linecap="square" stroke-linejoin="round" fill="none" stroke="#ffffff" d="M171.44115 4.32V121.536"/>
</g>
<g clip-path="url(#clip_19)">
<path transform="matrix(1,0,0,-1,0,168.35942)" stroke-width="1.6" stroke-linecap="square" stroke-linejoin="round" fill="none" stroke="#ffffff" d="M230.50171 4.32V121.536"/>
</g>
<g clip-path="url(#clip_20)">
<path transform="matrix(1,0,0,-1,0,168.35942)" stroke-width="1.6" stroke-linecap="square" stroke-linejoin="round" fill="none" stroke="#ffffff" d="M289.5623 4.32V121.536"/>
</g>
<g clip-path="url(#clip_21)">
<path transform="matrix(1,0,0,-1,0,168.35942)" stroke-width="1.6" stroke-linecap="square" stroke-linejoin="round" fill="none" stroke="#ffffff" d="M348.62287 4.32V121.536"/>
</g>
<g clip-path="url(#clip_22)">
<path transform="matrix(1,0,0,-1,0,168.35942)" stroke-width="1.6" stroke-linecap="square" stroke-linejoin="round" fill="none" stroke="#ffffff" d="M407.68345 4.32V121.536"/>
</g>
<g clip-path="url(#clip_23)">
<path transform="matrix(1,0,0,-1,0,168.35942)" stroke-width="1.6" stroke-linecap="square" stroke-linejoin="round" fill="none" stroke="#ffffff" d="M466.744 4.32V121.536"/>
</g>
<g clip-path="url(#clip_24)">
<path transform="matrix(1,0,0,-1,0,168.35942)" stroke-width="1.6" stroke-linecap="square" stroke-linejoin="round" fill="none" stroke="#ffffff" d="M53.32 121.536H466.744"/>
</g>
<g clip-path="url(#clip_25)">
<path transform="matrix(1,0,0,-1,0,168.35942)" stroke-width="1.6" stroke-linecap="square" stroke-linejoin="round" fill="none" stroke="#ffffff" d="M53.32 62.928H466.744"/>
</g>
<g clip-path="url(#clip_26)">
<path transform="matrix(1,0,0,-1,0,168.35942)" stroke-width="1.6" stroke-linecap="square" stroke-linejoin="round" fill="none" stroke="#ffffff" d="M53.32 4.32H466.744"/>
</g>
<g clip-path="url(#clip_27)">
<path transform="matrix(1,0,0,-1,0,168.35942)" stroke-width="1.6" stroke-linecap="butt" stroke-miterlimit="10" stroke-linejoin="miter" fill="none" stroke="#d4a017" d="M172.62236 61.75584H229.3205V5.49216H172.62236V61.75584Z"/>
</g>
</svg>
