<svg xmlns="http://www.w3.org/2000/svg" xmlns:xlink="http://www.w3.org/1999/xlink" xmlns:inkscape="http://www.inkscape.org/namespaces/inkscape" version="1.1" width="398.67988" height="170.90876" viewBox="0 0 398.67988 170.90876">
<defs>
<path id="font_1_6" d="M.5341797 .1328125H.24023438L.19384766 0H.0048828127L.27490235 .7294922H.49902345L.76904299 0H.5800781L.5341797 .1328125M.28710938 .2685547H.4868164L.38720704 .55859377 .28710938 .2685547Z"/>
<path id="font_1_17" d="M.4560547 .46679688V.7597656H.63183596V0H.4560547V.07910156C.43196617 .04670207 .4054362 .02297465 .37646485 .0079193119 .3474935-.0071258547 .31396485-.0146484379 .2758789-.0146484379 .2084961-.0146484379 .15315755 .012171428 .10986328 .06581116 .06656901 .11945089 .044921876 .1884969 .044921876 .27294923 .044921876 .35740153 .06656901 .42644755 .10986328 .48008729 .15315755 .533727 .2084961 .5605469 .2758789 .5605469 .3136393 .5605469 .34708659 .5529378 .3762207 .5377197 .40535484 .52250167 .43196617 .4988607 .4560547 .46679688M.3408203 .11230469C.37825523 .11230469 .40681968 .12601726 .42651368 .15344239 .44620768 .18086751 .4560547 .22070313 .4560547 .27294923 .4560547 .3251953 .44620768 .3650309 .42651368 .39245606 .40681968 .4198812 .37825523 .43359376 .3408203 .43359376 .30371095 .43359376 .27530924 .4198812 .25561524 .39245606 .23592122 .3650309 .22607422 .3251953 .22607422 .27294923 .22607422 .22070313 .23592122 .18086751 .25561524 .15344239 .27530924 .12601726 .30371095 .11230469 .3408203 .11230469Z"/>
<path id="font_1_34" d="M.015136719 .546875H.1899414L.32617188 .16894531 .46191407 .546875H.63720706L.421875 0H.22998047L.015136719 .546875Z"/>
<path id="font_1_5" d="M.10205078 .18945313H.27783204V0H.10205078V.18945313Z"/>
<path id="font_1_31" d="M.51123049 .53027346V.39746095C.47379557 .41308595 .43766276 .4248047 .40283204 .4326172 .3680013 .4404297 .3351237 .44433595 .30419923 .44433595 .2709961 .44433595 .24633789 .44017539 .23022461 .43185426 .21411133 .4235433 .20605469 .41074119 .20605469 .39344789 .20605469 .37941996 .2121582 .36865235 .22436524 .36114503 .23657227 .35364787 .25846354 .34810386 .29003907 .34451295L.32080079 .34010316C.410319 .32868959 .47054038 .30993144 .50146487 .28382875 .53238937 .2577362 .54785159 .21679688 .54785159 .16101074 .54785159 .102620448 .5263672 .058746339 .48339845 .029388428 .4404297 .000030517579 .3763021-.0146484379 .29101563-.0146484379 .2548828-.0146484379 .2175293-.01180013 .17895508-.0061035158 .14038086-.00040690104 .100748699 .0081380209 .060058595 .01953125V.15234375C.09488932 .13541667 .13061524 .12272135 .16723633 .11425781 .20385742 .10579427 .24104817 .1015625 .2788086 .1015625 .31298829 .1015625 .33870445 .106292728 .35595704 .115753177 .37320964 .12521363 .38183595 .13924153 .38183595 .15783692 .38183595 .17349243 .37589518 .18515015 .36401368 .19281006 .35213218 .20048015 .32845054 .20643616 .29296876 .2106781L.26220704 .21459961C.18440755 .22438558 .12988281 .2424876 .09863281 .26890565 .06738281 .29533387 .051757814 .33545939 .051757814 .38928224 .051757814 .44734703 .071614589 .49040733 .111328128 .51846316 .15104167 .546519 .21191406 .5605469 .2939453 .5605469 .32617188 .5605469 .36002604 .55810549 .3955078 .55322268 .4309896 .54833987 .4695638 .5406901 .51123049 .53027346Z"/>
<path id="font_1_33" d="M.078125 .21289063V.546875H.25390626V.4921875C.25390626 .4625651 .2537435 .42537437 .25341798 .38061524 .25309245 .3358561 .2529297 .3059896 .2529297 .29101563 .2529297 .24707031 .254069 .2154134 .25634767 .19604492 .2586263 .17667644 .26253257 .16259766 .2680664 .1538086 .27522788 .14241536 .28458659 .1336263 .29614259 .1274414 .30769859 .12125651 .32096354 .11816406 .3359375 .11816406 .37239585 .11816406 .40104167 .13216146 .421875 .16015625 .44270835 .18815105 .453125 .22705078 .453125 .27685548V.546875H.6279297V0H.453125V.07910156C.4267578 .04703776 .3988444 .02339681 .36938478 .008178711 .33992515-.007039388 .30745445-.0146484379 .27197267-.0146484379 .20882161-.0146484379 .1607259 .004760742 .12768555 .0435791 .09464518 .08239746 .078125 .13883464 .078125 .21289063Z"/>
<path id="font_1_19" d="M.44384767 .7597656V.64453127H.34716798C.32242839 .64453127 .30517579 .6400757 .29541017 .63116458 .28564454 .6222636 .28076173 .60680136 .28076173 .58477786V.546875H.43017579V.421875H.28076173V0H.10595703V.421875H.019042969V.546875H.10595703V.58477786C.10595703 .6444092 .122558597 .6884816 .15576172 .71699526 .18896485 .74550887 .24039714 .7597656 .3100586 .7597656H.44384767Z"/>
<path id="font_1_22" d="M.083984378 .546875H.25878907V0H.083984378V.546875M.083984378 .7597656H.25878907V.6171875H.083984378V.7597656Z"/>
<path id="font_1_36" d="M.22216797 .27978517 .024902344 .546875H.20996094L.32177735 .38476563 .4350586 .546875H.6201172L.42285157 .28076173 .6298828 0H.44482423L.32177735 .17285156 .20019531 0H.015136719L.22216797 .27978517Z"/>
<path id="font_1_10" d="M.091796878 .7294922H.3017578L.56689456 .2291565V.7294922H.7451172V0H.53515627L.27001954 .5003357V0H.091796878V.7294922Z"/>
<path id="font_1_25" d="M.083984378 .7597656H.25878907V0H.083984378V.7597656Z"/>
<path id="font_1_26" d="M.5908203 .45619203C.61295577 .49015809 .6392415 .51604208 .66967776 .533844 .70011398 .55164596 .7335612 .5605469 .77001956 .5605469 .83284506 .5605469 .8806966 .5411682 .9135742 .5024109 .94645187 .46365357 .9628906 .40731303 .9628906 .33338929V0H.7871094V.28547669C.7874349 .28970848 .787679 .29410807 .7878418 .29867555 .7880046 .303243 .78808596 .30976359 .78808596 .3182373 .78808596 .35701499 .78238937 .38512168 .7709961 .40255738 .75960287 .41999308 .74121096 .42871095 .7158203 .42871095 .6826172 .42871095 .6569824 .4150238 .638916 .38764955 .6208496 .36027528 .6114909 .3206787 .61083987 .26885987V0H.4350586V.28547669C.4350586 .34609477 .42985026 .38512168 .4194336 .40255738 .40901695 .41999308 .39046226 .42871095 .36376954 .42871095 .33024089 .42871095 .30436198 .4149424 .2861328 .3874054 .26790367 .35986839 .25878907 .32051597 .25878907 .26934815V0H.08300781V.546875H.25878907V.46679688C.28027345 .49788413 .30493165 .52128097 .33276368 .5369873 .3605957 .55269369 .39127604 .5605469 .4248047 .5605469 .4625651 .5605469 .495931 .5514018 .52490237 .5331116 .5538737 .51482138 .5758464 .48918153 .5908203 .45619203Z"/>
<path id="font_1_28" d="M.34423829 .43554688C.3055013 .43554688 .2759603 .42159019 .25561524 .39367677 .23527019 .36576335 .22509766 .32552085 .22509766 .27294923 .22509766 .22037761 .23527019 .18013509 .25561524 .15222168 .2759603 .124308269 .3055013 .11035156 .34423829 .11035156 .38232423 .11035156 .41145835 .124308269 .43164063 .15222168 .4518229 .18013509 .46191407 .22037761 .46191407 .27294923 .46191407 .32552085 .4518229 .36576335 .43164063 .39367677 .41145835 .42159019 .38232423 .43554688 .34423829 .43554688M.34423829 .5605469C.4383138 .5605469 .5118001 .5351105 .56469729 .48423768 .6175944 .43337504 .64404299 .36294557 .64404299 .27294923 .64404299 .18295288 .6175944 .11251831 .56469729 .061645509 .5118001 .010782878 .4383138-.0146484379 .34423829-.0146484379 .24983724-.0146484379 .17602539 .010782878 .122802738 .061645509 .06958008 .11251831 .04296875 .18295288 .04296875 .27294923 .04296875 .36294557 .06958008 .43337504 .122802738 .48423768 .17602539 .5351105 .24983724 .5605469 .34423829 .5605469Z"/>
<path id="font_1_18" d="M.6298828 .2756195V.22558594H.2211914C.22542317 .1842448 .24023438 .15323894 .265625 .13256836 .29101563 .11189779 .3264974 .1015625 .3720703 .1015625 .40885417 .1015625 .4465332 .107055667 .48510743 .11804199 .52368167 .12902832 .5633138 .14567058 .6040039 .16796875V.033203126C.5626628 .017415366 .5213216 .005493164 .47998048-.0025634766 .4386393-.010620117 .3972982-.0146484379 .35595704-.0146484379 .2569987-.0146484379 .1800944 .010538737 .12524414 .060913087 .07039388 .11129761 .04296875 .18197632 .04296875 .27294923 .04296875 .36229453 .0699056 .43256126 .1237793 .4837494 .177653 .5349477 .25179038 .5605469 .3461914 .5605469 .4321289 .5605469 .5008952 .5346883 .55249026 .4829712 .60408529 .43125407 .6298828 .36213685 .6298828 .2756195M.4501953 .33398438C.4501953 .36704508 .44051109 .39370219 .42114259 .4139557 .40177409 .4342092 .37646485 .44433595 .34521485 .44433595 .3113607 .44433595 .28385417 .43485514 .2626953 .41589356 .24153646 .39693199 .22835286 .3696289 .22314453 .33398438H.4501953Z"/>
<path id="font_1_11" d="M.091796878 .7294922H.4038086C.49658204 .7294922 .56778976 .70888265 .61743167 .6676636 .66707357 .6264445 .69189456 .5677083 .69189456 .49145509 .69189456 .4148763 .66707357 .3559774 .61743167 .3147583 .56778976 .27353923 .49658204 .2529297 .4038086 .2529297H.27978517V0H.091796878V.7294922M.27978517 .59277346V.38964845H.38378907C.4202474 .38964845 .44840495 .39849855 .46826173 .41619874 .4881185 .43389894 .49804688 .45898438 .49804688 .49145509 .49804688 .5239258 .4881185 .54892989 .46826173 .5664673 .44840495 .5840047 .4202474 .59277346 .38378907 .59277346H.27978517Z"/>
<path id="font_1_30" d="M.49023438 .39746095C.4749349 .40478517 .4597168 .41019694 .44458009 .4136963 .42944337 .41719566 .41422526 .4189453 .39892579 .4189453 .3540039 .4189453 .31941734 .4045156 .29516603 .37565614 .2709147 .34679667 .25878907 .3054606 .25878907 .25164796V0H.083984378V.546875H.25878907V.45703126C.28125 .49301148 .30704753 .5192566 .33618165 .5357666 .36531578 .5522868 .40022788 .5605469 .44091798 .5605469 .44677735 .5605469 .453125 .56029257 .45996095 .55978396 .46679688 .55928549 .47672526 .55819198 .4897461 .5565033L.49023438 .39746095Z"/>
<path id="font_1_29" d="M.25878907 .07910156V-.20800781H.083984378V.546875H.25878907V.46679688C.2828776 .4988607 .3095703 .52250167 .3388672 .5377197 .36816407 .5529378 .40185548 .5605469 .4399414 .5605469 .5073242 .5605469 .5626628 .533727 .60595706 .48008729 .6492513 .42644755 .67089846 .35740153 .67089846 .27294923 .67089846 .1884969 .6492513 .11945089 .60595706 .06581116 .5626628 .012171428 .5073242-.0146484379 .4399414-.0146484379 .40185548-.0146484379 .36816407-.007039388 .3388672 .008178711 .3095703 .02339681 .2828776 .04703776 .25878907 .07910156M.375 .43359376C.3375651 .43359376 .3088379 .4197998 .28881837 .3922119 .26879884 .36462403 .25878907 .32486979 .25878907 .27294923 .25878907 .22102864 .26879884 .18127442 .28881837 .15368653 .3088379 .12609864 .3375651 .11230469 .375 .11230469 .4124349 .11230469 .44099937 .12601726 .46069337 .15344239 .48038737 .18086751 .49023438 .22070313 .49023438 .27294923 .49023438 .3251953 .48038737 .3650309 .46069337 .39245606 .44099937 .4198812 .4124349 .43359376 .375 .43359376Z"/>
<path id="font_1_32" d="M.27490235 .70214846V.546875H.45507813V.421875H.27490235V.1899414C.27490235 .16455078 .2799479 .14737956 .29003907 .13842774 .30013023 .1294759 .32014976 .125 .35009767 .125H.4399414V0H.29003907C.22102864 0 .17211914 .014404297 .14331055 .04321289 .11450195 .072021488 .100097659 .12093099 .100097659 .1899414V.421875H.013183594V.546875H.100097659V.70214846H.27490235Z"/>
<path id="font_1_27" d="M.63378909 .33338929V0H.4580078V.054260255 .25517274C.4580078 .3024241 .45694987 .3350118 .45483399 .3529358 .4527181 .37085978 .449056 .38405863 .44384767 .39253236 .43701173 .40394593 .42773438 .41282655 .41601563 .4191742 .40429688 .425532 .39095054 .42871095 .37597657 .42871095 .33951823 .42871095 .3108724 .4146169 .29003907 .38642884 .26920573 .35824076 .25878907 .31921388 .25878907 .26934815V0H.083984378V.546875H.25878907V.46679688C.28515626 .4988607 .31315104 .52250167 .34277345 .5377197 .37239585 .5529378 .4051107 .5605469 .44091798 .5605469 .50406906 .5605469 .55200198 .5411682 .5847168 .5024109 .61743167 .46365357 .63378909 .40731303 .63378909 .33338929Z"/>
<path id="font_1_23" d="M.083984378 .546875H.25878907V.010177612C.25878907-.063196819 .24121094-.11920675 .20605469-.15785218 .17089844-.1964976 .11995443-.21582031 .053222658-.21582031H-.033203126V-.10058594H-.0029296876C.030273438-.10058594 .053059896-.09310404 .06542969-.07814026 .07779948-.063176479 .083984378-.033737184 .083984378 .010177612V.546875M.083984378 .7597656H.25878907V.6171875H.083984378V.7597656Z"/>
<path id="font_1_12" d="M.35888673 .40625C.39827476 .40625 .42651368 .41355387 .44360353 .42816163 .46069337 .44276939 .46923829 .46679688 .46923829 .50024417 .46923829 .5333557 .46069337 .5570526 .44360353 .57133486 .42651368 .58562728 .39827476 .59277346 .35888673 .59277346H.27978517V.40625H.35888673M.27978517 .2763672V0H.091796878V.7294922H.37890626C.4749349 .7294922 .5453288 .7133789 .5900879 .68115237 .634847 .6489258 .65722659 .59798178 .65722659 .5283203 .65722659 .48014323 .6455892 .44059245 .62231448 .40966798 .59903976 .3787435 .56396487 .35595704 .51708987 .3413086 .54280599 .33543907 .5658366 .3221588 .58618167 .3014679 .6065267 .28078715 .6271159 .24943035 .6479492 .20739746L.75 0H.5498047L.4609375 .18147278C.44303385 .21799214 .42488609 .24293518 .40649415 .25630189 .3881022 .26967875 .36360679 .2763672 .3330078 .2763672H.27978517Z"/>
<path id="font_1_35" d="M.03515625 .546875H.20507813L.296875 .16992188 .38916017 .546875H.53515627L.6269531 .17382813 .7192383 .546875H.88916018L.7451172 0H.5541992L.46191407 .37597657 .3701172 0H.17919922L.03515625 .546875Z"/>
<path id="font_1_15" d="M.32910157 .24511719C.29264323 .24511719 .2652181 .23895264 .24682617 .22662354 .22843425 .21429444 .21923828 .1961263 .21923828 .17211914 .21923828 .15006511 .22664388 .13279216 .24145508 .12030029 .25626628 .10780843 .27685548 .1015625 .30322267 .1015625 .33610026 .1015625 .36376954 .11332194 .38623048 .13684082 .4086914 .1603597 .41992188 .189799 .41992188 .22515869V.24511719H.32910157M.5961914 .31134034V0H.41992188V.08105469C.39648438 .04767863 .3701172 .023381552 .3408203 .008163452 .31152345-.007044474 .2758789-.0146484379 .23388672-.0146484379 .1772461-.0146484379 .13126628 .0018717448 .095947269 .03491211 .060628255 .06795248 .04296875 .110839847 .04296875 .16357422 .04296875 .22770183 .06502279 .2747396 .10913086 .3046875 .15323894 .3346354 .22249349 .34960938 .31689454 .34960938H.41992188V.3635559C.41992188 .39146934 .40901695 .411911 .38720704 .42488099 .36539714 .43785096 .33138023 .44433595 .28515626 .44433595 .24772136 .44433595 .21289063 .44059245 .18066406 .43310548 .1484375 .4256185 .118489589 .41438804 .09082031 .39941407V.5332031C.1282552 .54215499 .16585286 .5489502 .20361328 .55358889 .2413737 .55822756 .27913413 .5605469 .31689454 .5605469 .41552735 .5605469 .48673503 .54100546 .5305176 .5019226 .5743001 .46283976 .5961914 .39931236 .5961914 .31134034Z"/>
<path id="font_1_21" d="M.63378909 .33338929V0H.4580078V.054260255 .25419618C.4580078 .3020986 .45694987 .3350118 .45483399 .3529358 .4527181 .37085978 .449056 .38405863 .44384767 .39253236 .43701173 .40394593 .42773438 .41282655 .41601563 .4191742 .40429688 .425532 .39095054 .42871095 .37597657 .42871095 .33951823 .42871095 .3108724 .4146169 .29003907 .38642884 .26920573 .35824076 .25878907 .31921388 .25878907 .26934815V0H.083984378V.7597656H.25878907V.46679688C.28515626 .4988607 .31315104 .52250167 .34277345 .5377197 .37239585 .5529378 .4051107 .5605469 .44091798 .5605469 .50406906 .5605469 .55200198 .5411682 .5847168 .5024109 .61743167 .46365357 .63378909 .40731303 .63378909 .33338929Z"/>
<path id="font_1_16" d="M.5258789 .53027346V.3876953C.5021159 .40397135 .47827149 .41601563 .4543457 .42382813 .43041993 .43164063 .40559898 .43554688 .3798828 .43554688 .3310547 .43554688 .29305015 .42125956 .26586915 .39268495 .23868816 .36412049 .22509766 .3242086 .22509766 .27294923 .22509766 .22168987 .23868816 .18177288 .26586915 .15319824 .29305015 .12463379 .3310547 .11035156 .3798828 .11035156 .40722657 .11035156 .43318687 .114461269 .45776368 .122680667 .48234049 .13090007 .5050456 .1430664 .5258789 .15917969V.015625C.49853517 .005533854 .47078453-.0020345052 .44262696-.007080078 .4144694-.012125651 .38623048-.0146484379 .35791017-.0146484379 .25927735-.0146484379 .1821289 .010701497 .12646485 .061401369 .07080078 .11211141 .04296875 .18262737 .04296875 .27294923 .04296875 .3632711 .07080078 .43378196 .12646485 .4844818 .1821289 .53519186 .25927735 .5605469 .35791017 .5605469 .386556 .5605469 .41479493 .5580241 .44262696 .5529785 .47045899 .5479329 .49820964 .54036459 .5258789 .53027346Z"/>
<path id="font_1_24" d="M.083984378 .7597656H.25878907V.3461914L.45996095 .546875H.66308596L.3959961 .29589845 .68408206 0H.47216798L.25878907 .22802735V0H.083984378V.7597656Z"/>
<path id="font_1_13" d="M.5991211 .7059326V.55078127C.55908206 .56884768 .52001956 .5824788 .4819336 .5916748 .44384767 .6008708 .4078776 .60546877 .37402345 .60546877 .32910157 .60546877 .29589845 .59927877 .27441407 .5868988 .2529297 .574529 .2421875 .5553131 .2421875 .5292511 .2421875 .50970968 .24943035 .4944814 .26391603 .48356629 .2784017 .47265116 .3046875 .46328736 .34277345 .45547486L.42285157 .4394226C.50390627 .42314659 .56152346 .39840699 .5957031 .36520387 .6298828 .3320109 .64697268 .28481547 .64697268 .22361756 .64697268 .14321392 .62312826 .08339945 .57543948 .044174196 .5277507 .0049591066 .45491538-.0146484379 .3569336-.0146484379 .31070964-.0146484379 .2643229-.010238647 .21777344-.0014190674 .17122396 .0074005129 .12467448 .020467123 .078125 .03778076V.19726563C.12467448 .17236328 .16967774 .15360515 .21313477 .14099121 .2565918 .12837728 .2985026 .12207031 .3388672 .12207031 .3798828 .12207031 .41129557 .12891133 .43310548 .14259339 .45491538 .15627544 .4658203 .17582195 .4658203 .20123291 .4658203 .22402954 .4584147 .24161785 .44360353 .2539978 .42879234 .26637779 .3992513 .27745567 .35498048 .28723146L.28222657 .30326844C.20930989 .31889344 .15600586 .34379069 .12231445 .3779602 .08862305 .4121399 .071777347 .45820109 .071777347 .5161438 .071777347 .5887248 .095214847 .64454147 .14208985 .68359377 .18896485 .72265627 .25634767 .7421875 .34423829 .7421875 .38427735 .7421875 .42545573 .73916628 .46777345 .7331238 .5100911 .7270813 .5538737 .7180176 .5991211 .7059326Z"/>
<path id="font_1_37" d="M.012207031 .546875H.18701172L.33398438 .17578125 .45898438 .546875H.63378909L.4038086-.05130005C.38069663-.112345378 .35375978-.15502422 .32299806-.17933655 .29223634-.20365906 .2516276-.21582031 .20117188-.21582031H.100097659V-.10058594H.15478516C.18440755-.10058594 .20597331-.09588623 .21948242-.08648682 .23299153-.07709757 .24348958-.060256959 .25097657-.035964967L.25585938-.020828248 .012207031 .546875Z"/>
<clipPath id="clip_2">
<path transform="matrix(1,0,0,-1,0,170.90876)" d="M59.991876 4.32H394.3599V144.72H59.991876Z"/>
</clipPath>
<path id="font_1_8" d="M.091796878 .7294922H.27978517V.14257813H.6098633V0H.091796878V.7294922Z"/>
<path id="font_1_9" d="M.091796878 .7294922H.3310547L.4970703 .33935548 .6640625 .7294922H.90283206V0H.72509768V.5336914L.5571289 .140625H.43798829L.27001954 .5336914V0H.091796878V.7294922Z"/>
<clipPath id="clip_3">
<path transform="matrix(1,0,0,-1,0,170.90876)" d="M59.991876 4.32H394.3599V144.72H59.991876Z"/>
</clipPath>
<path id="font_1_14" d="M.0048828127 .7294922H.6767578V.58691409H.4350586V0H.24707031V.58691409H.0048828127V.7294922Z"/>
<clipPath id="clip_4">
<path transform="matrix(1,0,0,-1,0,170.90876)" d="M59.991876 4.32H394.3599V144.72H59.991876Z"/>
</clipPath>
<path id="font_1_7" d="M.091796878 .7294922H.27978517V.45214845H.5571289V.7294922H.7451172V0H.5571289V.3095703H.27978517V0H.091796878V.7294922Z"/>
<path id="font_1_20" d="M.4560547 .09277344C.43196617 .060872396 .4054362 .037434896 .37646485 .022460938 .3474935 .007486979 .31396485 0 .2758789 0 .20914714 0 .15397136 .026306153 .11035156 .07891846 .06673177 .13154094 .044921876 .19857788 .044921876 .2800293 .044921876 .36180625 .06673177 .4288381 .11035156 .48112489 .15397136 .5334218 .20914714 .5595703 .2758789 .5595703 .31396485 .5595703 .3474935 .55204269 .37646485 .5369873 .4054362 .52194216 .43196617 .49821983 .4560547 .4658203V.546875H.63183596V.05517578C.63183596-.032714845 .60408529-.099853519 .548584-.14624024 .49308268-.19262696 .41259767-.21582031 .3071289-.21582031 .27294923-.21582031 .23990886-.21317546 .20800781-.20788574 .17610677-.20259603 .14404297-.1944987 .111816409-.18359375V-.046875C.14241536-.06461588 .17236328-.07784017 .20166016-.08654785 .23095703-.09525553 .26041667-.099609378 .29003907-.099609378 .34733073-.099609378 .3893229-.08711243 .41601563-.06211853 .44270835-.037134809 .4560547 .0019632977 .4560547 .05517578V.09277344M.3408203 .43359376C.3046875 .43359376 .27652995 .42022706 .25634767 .39349366 .23616536 .36676026 .22607422 .3289388 .22607422 .2800293 .22607422 .2298177 .23583985 .19175212 .2553711 .16583252 .27490235 .13991292 .3033854 .12695313 .3408203 .12695313 .37727867 .12695313 .40559898 .14031983 .42578126 .16705323 .44596354 .19378662 .4560547 .23144531 .4560547 .2800293 .4560547 .3289388 .44596354 .36676026 .42578126 .39349366 .40559898 .42022706 .37727867 .43359376 .3408203 .43359376Z"/>
<clipPath id="clip_5">
<path transform="matrix(1,0,0,-1,0,170.90876)" d="M59.991876 4.32H394.3599V144.72H59.991876Z"/>
</clipPath>
<path id="font_1_3" d=""/>
<path id="font_1_4" d="M.47705079 .6269531V.37109376H.7319336V.25585938H.47705079V0H.36083985V.25585938H.10595703V.37109376H.36083985V.6269531H.47705079Z"/>
<path id="font_1_38" d="M.057128908 .546875H.5341797V.4248047L.24609375 .125H.5341797V0H.044921876V.12207031L.3330078 .421875H.057128908V.546875Z"/>
<clipPath id="clip_6">
<path transform="matrix(1,0,0,-1,0,170.90876)" d="M59.991876 4.32H394.3599V144.72H59.991876Z"/>
</clipPath>
<clipPath id="clip_7">
<path transform="matrix(1,0,0,-1,0,170.90876)" d="M59.991876 4.32H394.3599V144.72H59.991876Z"/>
</clipPath>
<clipPath id="clip_8">
<path transform="matrix(1,0,0,-1,0,170.90876)" d="M59.991876 4.32H394.3599V144.72H59.991876Z"/>
</clipPath>
<clipPath id="clip_9">
<path transform="matrix(1,0,0,-1,0,170.90876)" d="M59.991876 4.32H394.3599V144.72H59.991876Z"/>
</clipPath>
<clipPath id="clip_10">
<path transform="matrix(1,0,0,-1,0,170.90876)" d="M59.991876 4.32H394.3599V144.72H59.991876Z"/>
</clipPath>
<clipPath id="clip_11">
<path transform="matrix(1,0,0,-1,0,170.90876)" d="M59.991876 4.32H394.3599V144.72H59.991876Z"/>
</clipPath>
<clipPath id="clip_12">
<path transform="matrix(1,0,0,-1,0,170.90876)" d="M59.991876 4.32H394.3599V144.72H59.991876Z"/>
</clipPath>
<clipPath id="clip_13">
<path transform="matrix(1,0,0,-1,0,170.90876)" d="M59.991876 4.32H394.3599V144.72H59.991876Z"/>
</clipPath>
<clipPath id="clip_14">
<path transform="matrix(1,0,0,-1,0,170.90876)" d="M59.991876 4.32H394.3599V144.72H59.991876Z"/>
</clipPath>
<clipPath id="clip_15">
<path transform="matrix(1,0,0,-1,0,170.90876)" d="M59.991876 4.32H394.3599V144.72H59.991876Z"/>
</clipPath>
<clipPath id="clip_16">
<path transform="matrix(1,0,0,-1,0,170.90876)" d="M59.991876 4.32H394.3599V144.72H59.991876Z"/>
</clipPath>
<clipPath id="clip_17">
<path transform="matrix(1,0,0,-1,0,170.90876)" d="M59.991876 4.32H394.3599V144.72H59.991876Z"/>
</clipPath>
<clipPath id="clip_18">
<path transform="matrix(1,0,0,-1,0,170.90876)" d="M59.991876 4.32H394.3599V144.72H59.991876Z"/>
</clipPath>
<clipPath id="clip_19">
<path transform="matrix(1,0,0,-1,0,170.90876)" d="M59.991876 4.32H394.3599V144.72H59.991876Z"/>
</clipPath>
<clipPath id="clip_20">
<path transform="matrix(1,0,0,-1,0,170.90876)" d="M59.991876 4.32H394.3599V144.72H59.991876Z"/>
</clipPath>
<clipPath id="clip_21">
<path transform="matrix(1,0,0,-1,0,170.90876)" d="M59.991876 4.32H394.3599V144.72H59.991876Z"/>
</clipPath>
<clipPath id="clip_22">
<path transform="matrix(1,0,0,-1,0,170.90876)" d="M59.991876 4.32H394.3599V144.72H59.991876Z"/>
</clipPath>
<clipPath id="clip_23">
<path transform="matrix(1,0,0,-1,0,170.90876)" d="M59.991876 4.32H394.3599V144.72H59.991876Z"/>
</clipPath>
<clipPath id="clip_24">
<path transform="matrix(1,0,0,-1,0,170.90876)" d="M59.991876 4.32H394.3599V144.72H59.991876Z"/>
</clipPath>
<clipPath id="clip_25">
<path transform="matrix(1,0,0,-1,0,170.90876)" d="M59.991876 4.32H394.3599V144.72H59.991876Z"/>
</clipPath>
<clipPath id="clip_26">
<path transform="matrix(1,0,0,-1,0,170.90876)" d="M59.991876 4.32H394.3599V144.72H59.991876Z"/>
</clipPath>
<clipPath id="clip_27">
<path transform="matrix(1,0,0,-1,0,170.90876)" d="M59.991876 4.32H394.3599V144.72H59.991876Z"/>
</clipPath>
<clipPath id="clip_28">
<path transform="matrix(1,0,0,-1,0,170.90876)" d="M59.991876 4.32H394.3599V144.72H59.991876Z"/>
</clipPath>
<clipPath id="clip_29">
<path transform="matrix(1,0,0,-1,0,170.90876)" d="M59.991876 4.32H394.3599V144.72H59.991876Z"/>
</clipPath>
<clipPath id="clip_30">
<path transform="matrix(1,0,0,-1,0,170.90876)" d="M59.991876 4.32H394.3599V144.72H59.991876Z"/>
</clipPath>
<clipPath id="clip_31">
<path transform="matrix(1,0,0,-1,0,170.90876)" d="M59.991876 4.32H394.3599V144.72H59.991876Z"/>
</clipPath>
<clipPath id="clip_32">
<path transform="matrix(1,0,0,-1,0,170.90876)" d="M59.991876 4.32H394.3599V144.72H59.991876Z"/>
</clipPath>
<clipPath id="clip_33">
<path transform="matrix(1,0,0,-1,0,170.90876)" d="M59.991876 4.32H394.3599V144.72H59.991876Z"/>
</clipPath>
<clipPath id="clip_34">
<path transform="matrix(1,0,0,-1,0,170.90876)" d="M59.991876 4.32H394.3599V144.72H59.991876Z"/>
</clipPath>
<clipPath id="clip_35">
<path transform="matrix(1,0,0,-1,0,170.90876)" d="M59.991876 4.32H394.3599V144.72H59.991876Z"/>
</clipPath>
<clipPath id="clip_36">
<path transform="matrix(1,0,0,-1,0,170.90876)" d="M59.991876 4.32H394.3599V144.72H59.991876Z"/>
</clipPath>
<clipPath id="clip_37">
<path transform="matrix(1,0,0,-1,0,170.90876)" d="M59.991876 4.32H394.3599V144.72H59.991876Z"/>
</clipPath>
<clipPath id="clip_38">
<path transform="matrix(1,0,0,-1,0,170.90876)" d="M59.991876 4.32H394.3599V144.72H59.991876Z"/>
</clipPath>
<clipPath id="clip_39">
<path transform="matrix(1,0,0,-1,0,170.90876)" d="M59.991876 4.32H394.3599V144.72H59.991876Z"/>
</clipPath>
<clipPath id="clip_40">
<path transform="matrix(1,0,0,-1,0,170.90876)" d="M59.991876 4.32H394.3599V144.72H59.991876Z"/>
</clipPath>
<clipPath id="clip_41">
<path transform="matrix(1,0,0,-1,0,170.90876)" d="M59.991876 4.32H394.3599V144.72H59.991876Z"/>
</clipPath>
</defs>
<path transform="matrix(1,0,0,-1,0,170.90876)" d="M0 0H398.67988V170.90876H0Z" fill="#ffffff"/>
<path transform="matrix(1,0,0,-1,0,170.90876)" d="M59.991876 4.32H394.35987V144.72H59.991876Z" fill="#ffffff"/>
<use data-text="A" xlink:href="#font_1_6" transform="matrix(9,0,0,-9,76.87931,11.226257)" fill="#1f2937"/>
<use data-text="d" xlink:href="#font_1_17" transform="matrix(9,0,0,-9,83.845317,11.226257)" fill="#1f2937"/>
<use data-text="v" xlink:href="#font_1_34" transform="matrix(9,0,0,-9,90.289318,11.226257)" fill="#1f2937"/>
<use data-text="." xlink:href="#font_1_5" transform="matrix(9,0,0,-9,95.422939,11.226257)" fill="#1f2937"/>
<use data-text="s" xlink:href="#font_1_31" transform="matrix(9,0,0,-9,73.59806,21.313752)" fill="#1f2937"/>
<use data-text="u" xlink:href="#font_1_33" transform="matrix(9,0,0,-9,78.953067,21.313752)" fill="#1f2937"/>
<use data-text="f" xlink:href="#font_1_19" transform="matrix(9,0,0,-9,85.36106,21.313752)" fill="#1f2937"/>
<use data-text="f" xlink:href="#font_1_19" transform="matrix(9,0,0,-9,89.27606,21.313752)" fill="#1f2937"/>
<use data-text="i" xlink:href="#font_1_22" transform="matrix(9,0,0,-9,93.19106,21.313752)" fill="#1f2937"/>
<use data-text="x" xlink:href="#font_1_36" transform="matrix(9,0,0,-9,96.27806,21.313752)" fill="#1f2937"/>
<use data-text="N" xlink:href="#font_1_10" transform="matrix(9,0,0,-9,133.52138,11.226257)" fill="#1f2937"/>
<use data-text="u" xlink:href="#font_1_33" transform="matrix(9,0,0,-9,141.05438,11.226257)" fill="#1f2937"/>
<use data-text="l" xlink:href="#font_1_25" transform="matrix(9,0,0,-9,147.46237,11.226257)" fill="#1f2937"/>
<use data-text="l" xlink:href="#font_1_25" transform="matrix(9,0,0,-9,150.54938,11.226257)" fill="#1f2937"/>
<use data-text="m" xlink:href="#font_1_26" transform="matrix(9,0,0,-9,127.982318,21.313752)" fill="#1f2937"/>
<use data-text="o" xlink:href="#font_1_28" transform="matrix(9,0,0,-9,137.36032,21.313752)" fill="#1f2937"/>
<use data-text="d" xlink:href="#font_1_17" transform="matrix(9,0,0,-9,143.54332,21.313752)" fill="#1f2937"/>
<use data-text="e" xlink:href="#font_1_18" transform="matrix(9,0,0,-9,149.98732,21.313752)" fill="#1f2937"/>
<use data-text="l" xlink:href="#font_1_25" transform="matrix(9,0,0,-9,156.08933,21.313752)" fill="#1f2937"/>
<use data-text="P" xlink:href="#font_1_11" transform="matrix(9,0,0,-9,180.64781,11.163757)" fill="#1f2937"/>
<use data-text="r" xlink:href="#font_1_30" transform="matrix(9,0,0,-9,187.24481,11.163757)" fill="#1f2937"/>
<use data-text="o" xlink:href="#font_1_28" transform="matrix(9,0,0,-9,191.68181,11.163757)" fill="#1f2937"/>
<use data-text="m" xlink:href="#font_1_26" transform="matrix(9,0,0,-9,197.8648,11.163757)" fill="#1f2937"/>
<use data-text="p" xlink:href="#font_1_29" transform="matrix(9,0,0,-9,207.24282,11.163757)" fill="#1f2937"/>
<use data-text="t" xlink:href="#font_1_32" transform="matrix(9,0,0,-9,213.68682,11.163757)" fill="#1f2937"/>
<use data-text="i" xlink:href="#font_1_22" transform="matrix(9,0,0,-9,191.30406,21.251252)" fill="#1f2937"/>
<use data-text="n" xlink:href="#font_1_27" transform="matrix(9,0,0,-9,194.39107,21.251252)" fill="#1f2937"/>
<use data-text="j" xlink:href="#font_1_23" transform="matrix(9,0,0,-9,200.79906,21.251252)" fill="#1f2937"/>
<use data-text="." xlink:href="#font_1_5" transform="matrix(9,0,0,-9,203.88607,21.251252)" fill="#1f2937"/>
<use data-text="R" xlink:href="#font_1_12" transform="matrix(9,0,0,-9,235.88362,11.226257)" fill="#1f2937"/>
<use data-text="e" xlink:href="#font_1_18" transform="matrix(9,0,0,-9,242.81363,11.226257)" fill="#1f2937"/>
<use data-text="w" xlink:href="#font_1_35" transform="matrix(9,0,0,-9,248.91562,11.226257)" fill="#1f2937"/>
<use data-text="a" xlink:href="#font_1_15" transform="matrix(9,0,0,-9,257.23164,11.226257)" fill="#1f2937"/>
<use data-text="r" xlink:href="#font_1_30" transform="matrix(9,0,0,-9,263.3066,11.226257)" fill="#1f2937"/>
<use data-text="d" xlink:href="#font_1_17" transform="matrix(9,0,0,-9,267.74363,11.226257)" fill="#1f2937"/>
<use data-text="h" xlink:href="#font_1_21" transform="matrix(9,0,0,-9,243.13362,21.313752)" fill="#1f2937"/>
<use data-text="a" xlink:href="#font_1_15" transform="matrix(9,0,0,-9,249.54163,21.313752)" fill="#1f2937"/>
<use data-text="c" xlink:href="#font_1_16" transform="matrix(9,0,0,-9,255.61663,21.313752)" fill="#1f2937"/>
<use data-text="k" xlink:href="#font_1_24" transform="matrix(9,0,0,-9,260.9536,21.313752)" fill="#1f2937"/>
<use data-text="S" xlink:href="#font_1_13" transform="matrix(9,0,0,-9,290.68977,21.251252)" fill="#1f2937"/>
<use data-text="y" xlink:href="#font_1_37" transform="matrix(9,0,0,-9,297.16978,21.251252)" fill="#1f2937"/>
<use data-text="c" xlink:href="#font_1_16" transform="matrix(9,0,0,-9,303.03776,21.251252)" fill="#1f2937"/>
<use data-text="o" xlink:href="#font_1_28" transform="matrix(9,0,0,-9,308.37477,21.251252)" fill="#1f2937"/>
<use data-text="p" xlink:href="#font_1_29" transform="matrix(9,0,0,-9,314.55778,21.251252)" fill="#1f2937"/>
<use data-text="h" xlink:href="#font_1_21" transform="matrix(9,0,0,-9,321.00178,21.251252)" fill="#1f2937"/>
<use data-text="." xlink:href="#font_1_5" transform="matrix(9,0,0,-9,327.40977,21.251252)" fill="#1f2937"/>
<use data-text="P" xlink:href="#font_1_11" transform="matrix(9,0,0,-9,345.90995,21.313752)" fill="#1f2937"/>
<use data-text="e" xlink:href="#font_1_18" transform="matrix(9,0,0,-9,352.50697,21.313752)" fill="#1f2937"/>
<use data-text="r" xlink:href="#font_1_30" transform="matrix(9,0,0,-9,358.60896,21.313752)" fill="#1f2937"/>
<use data-text="s" xlink:href="#font_1_31" transform="matrix(9,0,0,-9,363.04597,21.313752)" fill="#1f2937"/>
<use data-text="o" xlink:href="#font_1_28" transform="matrix(9,0,0,-9,368.40095,21.313752)" fill="#1f2937"/>
<use data-text="n" xlink:href="#font_1_27" transform="matrix(9,0,0,-9,374.58396,21.313752)" fill="#1f2937"/>
<use data-text="a" xlink:href="#font_1_15" transform="matrix(9,0,0,-9,380.99195,21.313752)" fill="#1f2937"/>
<g clip-path="url(#clip_2)">
<path transform="matrix(1,0,0,-1,0,170.90876)" stroke-width=".5" stroke-linecap="square" stroke-linejoin="round" fill="none" stroke="#e5e7eb" stroke-opacity=".7" d="M59.991876 127.17H394.35987"/>
</g>
<use data-text="P" xlink:href="#font_1_11" transform="matrix(9.5,0,0,-9.5,4.32,42.69969)" fill="#1f2937"/>
<use data-text="r" xlink:href="#font_1_30" transform="matrix(9.5,0,0,-9.5,11.283501,42.69969)" fill="#1f2937"/>
<use data-text="o" xlink:href="#font_1_28" transform="matrix(9.5,0,0,-9.5,15.967001,42.69969)" fill="#1f2937"/>
<use data-text="m" xlink:href="#font_1_26" transform="matrix(9.5,0,0,-9.5,22.493502,42.69969)" fill="#1f2937"/>
<use data-text="p" xlink:href="#font_1_29" transform="matrix(9.5,0,0,-9.5,32.3925,42.69969)" fill="#1f2937"/>
<use data-text="t" xlink:href="#font_1_32" transform="matrix(9.5,0,0,-9.5,39.194505,42.69969)" fill="#1f2937"/>
<use data-text="e" xlink:href="#font_1_18" transform="matrix(9.5,0,0,-9.5,43.735506,42.69969)" fill="#1f2937"/>
<use data-text="d" xlink:href="#font_1_17" transform="matrix(9.5,0,0,-9.5,50.176507,42.69969)" fill="#1f2937"/>
<use data-text="S" xlink:href="#font_1_13" transform="matrix(9.5,0,0,-9.5,34.648126,53.890314)" fill="#1f2937"/>
<use data-text="L" xlink:href="#font_1_8" transform="matrix(9.5,0,0,-9.5,41.488126,53.890314)" fill="#1f2937"/>
<use data-text="M" xlink:href="#font_1_9" transform="matrix(9.5,0,0,-9.5,47.539628,53.890314)" fill="#1f2937"/>
<g clip-path="url(#clip_3)">
<path transform="matrix(1,0,0,-1,0,170.90876)" stroke-width=".5" stroke-linecap="square" stroke-linejoin="round" fill="none" stroke="#e5e7eb" stroke-opacity=".7" d="M59.991876 92.07H394.35987"/>
</g>
<use data-text="T" xlink:href="#font_1_14" transform="matrix(9.5,0,0,-9.5,17.16375,77.79969)" fill="#1f2937"/>
<use data-text="r" xlink:href="#font_1_30" transform="matrix(9.5,0,0,-9.5,22.6115,77.79969)" fill="#1f2937"/>
<use data-text="a" xlink:href="#font_1_15" transform="matrix(9.5,0,0,-9.5,27.295,77.79969)" fill="#1f2937"/>
<use data-text="i" xlink:href="#font_1_22" transform="matrix(9.5,0,0,-9.5,33.7075,77.79969)" fill="#1f2937"/>
<use data-text="n" xlink:href="#font_1_27" transform="matrix(9.5,0,0,-9.5,36.966005,77.79969)" fill="#1f2937"/>
<use data-text="e" xlink:href="#font_1_18" transform="matrix(9.5,0,0,-9.5,43.730005,77.79969)" fill="#1f2937"/>
<use data-text="d" xlink:href="#font_1_17" transform="matrix(9.5,0,0,-9.5,50.171,77.79969)" fill="#1f2937"/>
<use data-text="S" xlink:href="#font_1_13" transform="matrix(9.5,0,0,-9.5,34.648126,88.99032)" fill="#1f2937"/>
<use data-text="L" xlink:href="#font_1_8" transform="matrix(9.5,0,0,-9.5,41.488126,88.99032)" fill="#1f2937"/>
<use data-text="M" xlink:href="#font_1_9" transform="matrix(9.5,0,0,-9.5,47.539628,88.99032)" fill="#1f2937"/>
<g clip-path="url(#clip_4)">
<path transform="matrix(1,0,0,-1,0,170.90876)" stroke-width=".5" stroke-linecap="square" stroke-linejoin="round" fill="none" stroke="#e5e7eb" stroke-opacity=".7" d="M59.991876 56.97H394.35987"/>
</g>
<use data-text="H" xlink:href="#font_1_7" transform="matrix(9.5,0,0,-9.5,9.991875,112.82156)" fill="#1f2937"/>
<use data-text="e" xlink:href="#font_1_18" transform="matrix(9.5,0,0,-9.5,17.943375,112.82156)" fill="#1f2937"/>
<use data-text="t" xlink:href="#font_1_32" transform="matrix(9.5,0,0,-9.5,24.384375,112.82156)" fill="#1f2937"/>
<use data-text="e" xlink:href="#font_1_18" transform="matrix(9.5,0,0,-9.5,28.925375,112.82156)" fill="#1f2937"/>
<use data-text="r" xlink:href="#font_1_30" transform="matrix(9.5,0,0,-9.5,35.366376,112.82156)" fill="#1f2937"/>
<use data-text="o" xlink:href="#font_1_28" transform="matrix(9.5,0,0,-9.5,40.049875,112.82156)" fill="#1f2937"/>
<use data-text="g" xlink:href="#font_1_20" transform="matrix(9.5,0,0,-9.5,46.576375,112.82156)" fill="#1f2937"/>
<use data-text="." xlink:href="#font_1_5" transform="matrix(9.5,0,0,-9.5,53.378374,112.82156)" fill="#1f2937"/>
<use data-text="p" xlink:href="#font_1_29" transform="matrix(9.5,0,0,-9.5,27.335625,124.09032)" fill="#1f2937"/>
<use data-text="a" xlink:href="#font_1_15" transform="matrix(9.5,0,0,-9.5,34.137628,124.09032)" fill="#1f2937"/>
<use data-text="n" xlink:href="#font_1_27" transform="matrix(9.5,0,0,-9.5,40.550127,124.09032)" fill="#1f2937"/>
<use data-text="e" xlink:href="#font_1_18" transform="matrix(9.5,0,0,-9.5,47.314126,124.09032)" fill="#1f2937"/>
<use data-text="l" xlink:href="#font_1_25" transform="matrix(9.5,0,0,-9.5,53.755128,124.09032)" fill="#1f2937"/>
<g clip-path="url(#clip_5)">
<path transform="matrix(1,0,0,-1,0,170.90876)" stroke-width=".5" stroke-linecap="square" stroke-linejoin="round" fill="none" stroke="#e5e7eb" stroke-opacity=".7" d="M59.991876 21.87H394.35987"/>
</g>
<use data-text="P" xlink:href="#font_1_11" transform="matrix(9.5,0,0,-9.5,16.1325,147.9997)" fill="#1f2937"/>
<use data-text="a" xlink:href="#font_1_15" transform="matrix(9.5,0,0,-9.5,22.846,147.9997)" fill="#1f2937"/>
<use data-text="n" xlink:href="#font_1_27" transform="matrix(9.5,0,0,-9.5,29.2585,147.9997)" fill="#1f2937"/>
<use data-text="e" xlink:href="#font_1_18" transform="matrix(9.5,0,0,-9.5,36.0225,147.9997)" fill="#1f2937"/>
<use data-text="l" xlink:href="#font_1_25" transform="matrix(9.5,0,0,-9.5,42.4635,147.9997)" fill="#1f2937"/>
<use data-text=" " xlink:href="#font_1_3" transform="matrix(9.5,0,0,-9.5,45.722,147.9997)" fill="#1f2937"/>
<use data-text="+" xlink:href="#font_1_4" transform="matrix(9.5,0,0,-9.5,49.028,147.9997)" fill="#1f2937"/>
<use data-text="s" xlink:href="#font_1_31" transform="matrix(9.5,0,0,-9.5,15.148125,159.1903)" fill="#1f2937"/>
<use data-text="a" xlink:href="#font_1_15" transform="matrix(9.5,0,0,-9.5,20.800625,159.1903)" fill="#1f2937"/>
<use data-text="n" xlink:href="#font_1_27" transform="matrix(9.5,0,0,-9.5,27.213126,159.1903)" fill="#1f2937"/>
<use data-text="i" xlink:href="#font_1_22" transform="matrix(9.5,0,0,-9.5,33.977128,159.1903)" fill="#1f2937"/>
<use data-text="t" xlink:href="#font_1_32" transform="matrix(9.5,0,0,-9.5,37.235628,159.1903)" fill="#1f2937"/>
<use data-text="i" xlink:href="#font_1_22" transform="matrix(9.5,0,0,-9.5,41.776628,159.1903)" fill="#1f2937"/>
<use data-text="z" xlink:href="#font_1_38" transform="matrix(9.5,0,0,-9.5,45.035127,159.1903)" fill="#1f2937"/>
<use data-text="e" xlink:href="#font_1_18" transform="matrix(9.5,0,0,-9.5,50.56413,159.1903)" fill="#1f2937"/>
<g clip-path="url(#clip_6)">
<path transform="matrix(1,0,0,-1,0,170.90876)" d="M59.991876 144.72H115.71987V109.62H59.991876Z" fill="#e4f0f0"/>
</g>
<g clip-path="url(#clip_7)">
<path transform="matrix(1,0,0,-1,0,170.90876)" d="M115.71987 144.72H171.44788V109.62H115.71987Z" fill="#e4f0f0"/>
</g>
<g clip-path="url(#clip_8)">
<path transform="matrix(1,0,0,-1,0,170.90876)" d="M171.44788 144.72H227.17588V109.62H171.44788Z" fill="#e4f0f0"/>
</g>
<g clip-path="url(#clip_9)">
<path transform="matrix(1,0,0,-1,0,170.90876)" d="M227.17588 144.72H282.90388V109.62H227.17588Z" fill="#e4f0f0"/>
</g>
<g clip-path="url(#clip_10)">
<path transform="matrix(1,0,0,-1,0,170.90876)" d="M282.90388 144.72H338.63188V109.62H282.90388Z" fill="#e4f0f0"/>
</g>
<g clip-path="url(#clip_11)">
<path transform="matrix(1,0,0,-1,0,170.90876)" d="M338.63188 144.72H394.35987V109.62H338.63188Z" fill="#e4f0f0"/>
</g>
<g clip-path="url(#clip_12)">
<path transform="matrix(1,0,0,-1,0,170.90876)" d="M59.991876 109.62H115.71987V74.52H59.991876Z" fill="#7cb6b6"/>
</g>
<g clip-path="url(#clip_13)">
<path transform="matrix(1,0,0,-1,0,170.90876)" d="M115.71987 109.62H171.44788V74.52H115.71987Z" fill="#7cb6b6"/>
</g>
<g clip-path="url(#clip_14)">
<path transform="matrix(1,0,0,-1,0,170.90876)" d="M171.44788 109.62H227.17588V74.52H171.44788Z" fill="#7cb6b6"/>
</g>
<g clip-path="url(#clip_15)">
<path transform="matrix(1,0,0,-1,0,170.90876)" d="M227.17588 109.62H282.90388V74.52H227.17588Z" fill="#7cb6b6"/>
</g>
<g clip-path="url(#clip_16)">
<path transform="matrix(1,0,0,-1,0,170.90876)" d="M282.90388 109.62H338.63188V74.52H282.90388Z" fill="#7cb6b6"/>
</g>
<g clip-path="url(#clip_17)">
<path transform="matrix(1,0,0,-1,0,170.90876)" d="M338.63188 109.62H394.35987V74.52H338.63188Z" fill="#7cb6b6"/>
</g>
<g clip-path="url(#clip_18)">
<path transform="matrix(1,0,0,-1,0,170.90876)" d="M59.991876 74.52H115.71987V39.42H59.991876Z" fill="#145757"/>
</g>
<g clip-path="url(#clip_19)">
<path transform="matrix(1,0,0,-1,0,170.90876)" d="M115.71987 74.52H171.44788V39.42H115.71987Z" fill="#7cb6b6"/>
</g>
<g clip-path="url(#clip_20)">
<path transform="matrix(1,0,0,-1,0,170.90876)" d="M171.44788 74.52H227.17588V39.42H171.44788Z" fill="#7cb6b6"/>
</g>
<g clip-path="url(#clip_21)">
<path transform="matrix(1,0,0,-1,0,170.90876)" d="M227.17588 74.52H282.90388V39.42H227.17588Z" fill="#145757"/>
</g>
<g clip-path="url(#clip_22)">
<path transform="matrix(1,0,0,-1,0,170.90876)" d="M282.90388 74.52H338.63188V39.42H282.90388Z" fill="#145757"/>
</g>
<g clip-path="url(#clip_23)">
<path transform="matrix(1,0,0,-1,0,170.90876)" d="M338.63188 74.52H394.35987V39.42H338.63188Z" fill="#145757"/>
</g>
<g clip-path="url(#clip_24)">
<path transform="matrix(1,0,0,-1,0,170.90876)" d="M59.991876 39.42H115.71987V4.32H59.991876Z" fill="#145757"/>
</g>
<g clip-path="url(#clip_25)">
<path transform="matrix(1,0,0,-1,0,170.90876)" d="M115.71987 39.42H171.44788V4.32H115.71987Z" fill="#145757"/>
</g>
<g clip-path="url(#clip_26)">
<path transform="matrix(1,0,0,-1,0,170.90876)" d="M171.44788 39.42H227.17588V4.32H171.44788Z" fill="#145757"/>
</g>
<g clip-path="url(#clip_27)">
<path transform="matrix(1,0,0,-1,0,170.90876)" d="M227.17588 39.42H282.90388V4.32H227.17588Z" fill="#145757"/>
</g>
<g clip-path="url(#clip_28)">
<path transform="matrix(1,0,0,-1,0,170.90876)" d="M282.90388 39.42H338.63188V4.32H282.90388Z" fill="#145757"/>
</g>
<g clip-path="url(#clip_29)">
<path transform="matrix(1,0,0,-1,0,170.90876)" d="M338.63188 39.42H394.35987V4.32H338.63188Z" fill="#145757"/>
</g>
<use data-text="L" xlink:href="#font_1_8" transform="matrix(8,0,0,-8,78.863689,45.94188)" fill="#1f2937"/>
<use data-text="o" xlink:href="#font_1_28" transform="matrix(8,0,0,-8,83.95969,45.94188)" fill="#1f2937"/>
<use data-text="w" xlink:href="#font_1_35" transform="matrix(8,0,0,-8,89.45569,45.94188)" fill="#1f2937"/>
<use data-text="L" xlink:href="#font_1_8" transform="matrix(8,0,0,-8,134.59169,45.94188)" fill="#1f2937"/>
<use data-text="o" xlink:href="#font_1_28" transform="matrix(8,0,0,-8,139.68769,45.94188)" fill="#1f2937"/>
<use data-text="w" xlink:href="#font_1_35" transform="matrix(8,0,0,-8,145.18369,45.94188)" fill="#1f2937"/>
<use data-text="L" xlink:href="#font_1_8" transform="matrix(8,0,0,-8,190.31969,45.94188)" fill="#1f2937"/>
<use data-text="o" xlink:href="#font_1_28" transform="matrix(8,0,0,-8,195.41568,45.94188)" fill="#1f2937"/>
<use data-text="w" xlink:href="#font_1_35" transform="matrix(8,0,0,-8,200.91168,45.94188)" fill="#1f2937"/>
<use data-text="L" xlink:href="#font_1_8" transform="matrix(8,0,0,-8,246.04769,45.94188)" fill="#1f2937"/>
<use data-text="o" xlink:href="#font_1_28" transform="matrix(8,0,0,-8,251.14368,45.94188)" fill="#1f2937"/>
<use data-text="w" xlink:href="#font_1_35" transform="matrix(8,0,0,-8,256.63969,45.94188)" fill="#1f2937"/>
<use data-text="L" xlink:href="#font_1_8" transform="matrix(8,0,0,-8,301.7757,45.94188)" fill="#1f2937"/>
<use data-text="o" xlink:href="#font_1_28" transform="matrix(8,0,0,-8,306.8717,45.94188)" fill="#1f2937"/>
<use data-text="w" xlink:href="#font_1_35" transform="matrix(8,0,0,-8,312.3677,45.94188)" fill="#1f2937"/>
<use data-text="L" xlink:href="#font_1_8" transform="matrix(8,0,0,-8,357.5037,45.94188)" fill="#1f2937"/>
<use data-text="o" xlink:href="#font_1_28" transform="matrix(8,0,0,-8,362.5997,45.94188)" fill="#1f2937"/>
<use data-text="w" xlink:href="#font_1_35" transform="matrix(8,0,0,-8,368.0957,45.94188)" fill="#1f2937"/>
<use data-text="M" xlink:href="#font_1_9" transform="matrix(8,0,0,-8,78.29337,81.04188)" fill="#1f2937"/>
<use data-text="e" xlink:href="#font_1_18" transform="matrix(8,0,0,-8,86.25337,81.04188)" fill="#1f2937"/>
<use data-text="d" xlink:href="#font_1_17" transform="matrix(8,0,0,-8,91.677379,81.04188)" fill="#1f2937"/>
<use data-text="M" xlink:href="#font_1_9" transform="matrix(8,0,0,-8,134.02138,81.04188)" fill="#1f2937"/>
<use data-text="e" xlink:href="#font_1_18" transform="matrix(8,0,0,-8,141.98139,81.04188)" fill="#1f2937"/>
<use data-text="d" xlink:href="#font_1_17" transform="matrix(8,0,0,-8,147.40538,81.04188)" fill="#1f2937"/>
<use data-text="M" xlink:href="#font_1_9" transform="matrix(8,0,0,-8,189.74938,81.04188)" fill="#1f2937"/>
<use data-text="e" xlink:href="#font_1_18" transform="matrix(8,0,0,-8,197.70938,81.04188)" fill="#1f2937"/>
<use data-text="d" xlink:href="#font_1_17" transform="matrix(8,0,0,-8,203.13338,81.04188)" fill="#1f2937"/>
<use data-text="M" xlink:href="#font_1_9" transform="matrix(8,0,0,-8,245.47737,81.04188)" fill="#1f2937"/>
<use data-text="e" xlink:href="#font_1_18" transform="matrix(8,0,0,-8,253.43738,81.04188)" fill="#1f2937"/>
<use data-text="d" xlink:href="#font_1_17" transform="matrix(8,0,0,-8,258.86137,81.04188)" fill="#1f2937"/>
<use data-text="M" xlink:href="#font_1_9" transform="matrix(8,0,0,-8,301.20539,81.04188)" fill="#1f2937"/>
<use data-text="e" xlink:href="#font_1_18" transform="matrix(8,0,0,-8,309.16539,81.04188)" fill="#1f2937"/>
<use data-text="d" xlink:href="#font_1_17" transform="matrix(8,0,0,-8,314.5894,81.04188)" fill="#1f2937"/>
<use data-text="M" xlink:href="#font_1_9" transform="matrix(8,0,0,-8,356.93339,81.04188)" fill="#1f2937"/>
<use data-text="e" xlink:href="#font_1_18" transform="matrix(8,0,0,-8,364.89338,81.04188)" fill="#1f2937"/>
<use data-text="d" xlink:href="#font_1_17" transform="matrix(8,0,0,-8,370.31739,81.04188)" fill="#1f2937"/>
<use data-text="H" xlink:href="#font_1_7" transform="matrix(8,0,0,-8,77.41056,116.11063)" fill="#ffffff"/>
<use data-text="i" xlink:href="#font_1_22" transform="matrix(8,0,0,-8,84.10656,116.11063)" fill="#ffffff"/>
<use data-text="g" xlink:href="#font_1_20" transform="matrix(8,0,0,-8,86.85056,116.11063)" fill="#ffffff"/>
<use data-text="h" xlink:href="#font_1_21" transform="matrix(8,0,0,-8,92.57856,116.11063)" fill="#ffffff"/>
<use data-text="M" xlink:href="#font_1_9" transform="matrix(8,0,0,-8,134.02138,116.14188)" fill="#1f2937"/>
<use data-text="e" xlink:href="#font_1_18" transform="matrix(8,0,0,-8,141.98139,116.14188)" fill="#1f2937"/>
<use data-text="d" xlink:href="#font_1_17" transform="matrix(8,0,0,-8,147.40538,116.14188)" fill="#1f2937"/>
<use data-text="M" xlink:href="#font_1_9" transform="matrix(8,0,0,-8,189.74938,116.14188)" fill="#1f2937"/>
<use data-text="e" xlink:href="#font_1_18" transform="matrix(8,0,0,-8,197.70938,116.14188)" fill="#1f2937"/>
<use data-text="d" xlink:href="#font_1_17" transform="matrix(8,0,0,-8,203.13338,116.14188)" fill="#1f2937"/>
<use data-text="H" xlink:href="#font_1_7" transform="matrix(8,0,0,-8,244.59456,116.11063)" fill="#ffffff"/>
<use data-text="i" xlink:href="#font_1_22" transform="matrix(8,0,0,-8,251.29056,116.11063)" fill="#ffffff"/>
<use data-text="g" xlink:href="#font_1_20" transform="matrix(8,0,0,-8,254.03456,116.11063)" fill="#ffffff"/>
<use data-text="h" xlink:href="#font_1_21" transform="matrix(8,0,0,-8,259.76258,116.11063)" fill="#ffffff"/>
<use data-text="H" xlink:href="#font_1_7" transform="matrix(8,0,0,-8,300.32258,116.11063)" fill="#ffffff"/>
<use data-text="i" xlink:href="#font_1_22" transform="matrix(8,0,0,-8,307.0186,116.11063)" fill="#ffffff"/>
<use data-text="g" xlink:href="#font_1_20" transform="matrix(8,0,0,-8,309.76258,116.11063)" fill="#ffffff"/>
<use data-text="h" xlink:href="#font_1_21" transform="matrix(8,0,0,-8,315.49058,116.11063)" fill="#ffffff"/>
<use data-text="H" xlink:href="#font_1_7" transform="matrix(8,0,0,-8,356.05058,116.11063)" fill="#ffffff"/>
<use data-text="i" xlink:href="#font_1_22" transform="matrix(8,0,0,-8,362.74659,116.11063)" fill="#ffffff"/>
<use data-text="g" xlink:href="#font_1_20" transform="matrix(8,0,0,-8,365.49058,116.11063)" fill="#ffffff"/>
<use data-text="h" xlink:href="#font_1_21" transform="matrix(8,0,0,-8,371.21858,116.11063)" fill="#ffffff"/>
<use data-text="H" xlink:href="#font_1_7" transform="matrix(8,0,0,-8,77.41056,151.21063)" fill="#ffffff"/>
<use data-text="i" xlink:href="#font_1_22" transform="matrix(8,0,0,-8,84.10656,151.21063)" fill="#ffffff"/>
<use data-text="g" xlink:href="#font_1_20" transform="matrix(8,0,0,-8,86.85056,151.21063)" fill="#ffffff"/>
<use data-text="h" xlink:href="#font_1_21" transform="matrix(8,0,0,-8,92.57856,151.21063)" fill="#ffffff"/>
<use data-text="H" xlink:href="#font_1_7" transform="matrix(8,0,0,-8,133.13857,151.21063)" fill="#ffffff"/>
<use data-text="i" xlink:href="#font_1_22" transform="matrix(8,0,0,-8,139.83457,151.21063)" fill="#ffffff"/>
<use data-text="g" xlink:href="#font_1_20" transform="matrix(8,0,0,-8,142.57857,151.21063)" fill="#ffffff"/>
<use data-text="h" xlink:href="#font_1_21" transform="matrix(8,0,0,-8,148.30657,151.21063)" fill="#ffffff"/>
<use data-text="H" xlink:href="#font_1_7" transform="matrix(8,0,0,-8,188.86656,151.21063)" fill="#ffffff"/>
<use data-text="i" xlink:href="#font_1_22" transform="matrix(8,0,0,-8,195.56256,151.21063)" fill="#ffffff"/>
<use data-text="g" xlink:href="#font_1_20" transform="matrix(8,0,0,-8,198.30657,151.21063)" fill="#ffffff"/>
<use data-text="h" xlink:href="#font_1_21" transform="matrix(8,0,0,-8,204.03456,151.21063)" fill="#ffffff"/>
<use data-text="H" xlink:href="#font_1_7" transform="matrix(8,0,0,-8,244.59456,151.21063)" fill="#ffffff"/>
<use data-text="i" xlink:href="#font_1_22" transform="matrix(8,0,0,-8,251.29056,151.21063)" fill="#ffffff"/>
<use data-text="g" xlink:href="#font_1_20" transform="matrix(8,0,0,-8,254.03456,151.21063)" fill="#ffffff"/>
<use data-text="h" xlink:href="#font_1_21" transform="matrix(8,0,0,-8,259.76258,151.21063)" fill="#ffffff"/>
<use data-text="H" xlink:href="#font_1_7" transform="matrix(8,0,0,-8,300.32258,151.21063)" fill="#ffffff"/>
<use data-text="i" xlink:href="#font_1_22" transform="matrix(8,0,0,-8,307.0186,151.21063)" fill="#ffffff"/>
<use data-text="g" xlink:href="#font_1_20" transform="matrix(8,0,0,-8,309.76258,151.21063)" fill="#ffffff"/>
<use data-text="h" xlink:href="#font_1_21" transform="matrix(8,0,0,-8,315.49058,151.21063)" fill="#ffffff"/>
<use data-text="H" xlink:href="#font_1_7" transform="matrix(8,0,0,-8,356.05058,151.21063)" fill="#ffffff"/>
<use data-text="i" xlink:href="#font_1_22" transform="matrix(8,0,0,-8,362.74659,151.21063)" fill="#ffffff"/>
<use data-text="g" xlink:href="#font_1_20" transform="matrix(8,0,0,-8,365.49058,151.21063)" fill="#ffffff"/>
<use data-text="h" xlink:href="#font_1_21" transform="matrix(8,0,0,-8,371.21858,151.21063)" fill="#ffffff"/>
<g clip-path="url(#clip_30)">
<path transform="matrix(1,0,0,-1,0,170.90876)" stroke-width="1.8" stroke-linecap="square" stroke-linejoin="round" fill="none" stroke="#ffffff" d="M59.991876 4.32V144.72"/>
</g>
<g clip-path="url(#clip_31)">
<path transform="matrix(1,0,0,-1,0,170.90876)" stroke-width="1.8" stroke-linecap="square" stroke-linejoin="round" fill="none" stroke="#ffffff" d="M115.71987 4.32V144.72"/>
</g>
<g clip-path="url(#clip_32)">
<path transform="matrix(1,0,0,-1,0,170.90876)" stroke-width="1.8" stroke-linecap="square" stroke-linejoin="round" fill="none" stroke="#ffffff" d="M171.44788 4.32V144.72"/>
</g>
<g clip-path="url(#clip_33)">
<path transform="matrix(1,0,0,-1,0,170.90876)" stroke-width="1.8" stroke-linecap="square" stroke-linejoin="round" fill="none" stroke="#ffffff" d="M227.17588 4.32V144.72"/>
</g>
<g clip-path="url(#clip_34)">
<path transform="matrix(1,0,0,-1,0,170.90876)" stroke-width="1.8" stroke-linecap="square" stroke-linejoin="round" fill="none" stroke="#ffffff" d="M282.90388 4.32V144.72"/>
</g>
<g clip-path="url(#clip_35)">
<path transform="matrix(1,0,0,-1,0,170.90876)" stroke-width="1.8" stroke-linecap="square" stroke-linejoin="round" fill="none" stroke="#ffffff" d="M338.63188 4.32V144.72"/>
</g>
<g clip-path="url(#clip_36)">
<path transform="matrix(1,0,0,-1,0,170.90876)" stroke-width="1.8" stroke-linecap="square" stroke-linejoin="round" fill="none" stroke="#ffffff" d="M394.35987 4.32V144.72"/>
</g>
<g clip-path="url(#clip_37)">
<path transform="matrix(1,0,0,-1,0,170.90876)" stroke-width="1.8" stroke-linecap="square" stroke-linejoin="round" fill="none" stroke="#ffffff" d="M59.991876 144.72H394.35987"/>
</g>
<g clip-path="url(#clip_38)">
<path transform="matrix(1,0,0,-1,0,170.90876)" stroke-width="1.8" stroke-linecap="square" stroke-linejoin="round" fill="none" stroke="#ffffff" d="M59.991876 109.62H394.35987"/>
</g>
<g clip-path="url(#clip_39)">
<path transform="matrix(1,0,0,-1,0,170.90876)" stroke-width="1.8" stroke-linecap="square" stroke-linejoin="round" fill="none" stroke="#ffffff" d="M59.991876 74.52H394.35987"/>
</g>
<g clip-path="url(#clip_40)">
<path transform="matrix(1,0,0,-1,0,170.90876)" stroke-width="1.8" stroke-linecap="square" stroke-linejoin="round" fill="none" stroke="#ffffff" d="M59.991876 39.42H394.35987"/>
</g>
<g clip-path="url(#clip_41)">
<path transform="matrix(1,0,0,-1,0,170.90876)" stroke-width="1.8" stroke-linecap="square" stroke-linejoin="round" fill="none" stroke="#ffffff" d="M59.991876 4.32H394.35987"/>
</g>
</svg>
