<svg xmlns="http://www.w3.org/2000/svg" xmlns:xlink="http://www.w3.org/1999/xlink" xmlns:inkscape="http://www.inkscape.org/namespaces/inkscape" version="1.1" width="397.8075" height="172.42075" viewBox="0 0 397.8075 172.42075">
<defs>
<path id="font_1_17" d="M.091796878 .7294922H.27978517V0H.091796878V.7294922Z"/>
<path id="font_1_14" d="M.091796878 .7294922H.5991211V.58691409H.27978517V.45214845H.5800781V.3095703H.27978517V0H.091796878V.7294922Z"/>
<path id="font_1_22" d="M.35888673 .40625C.39827476 .40625 .42651368 .41355387 .44360353 .42816163 .46069337 .44276939 .46923829 .46679688 .46923829 .50024417 .46923829 .5333557 .46069337 .5570526 .44360353 .57133486 .42651368 .58562728 .39827476 .59277346 .35888673 .59277346H.27978517V.40625H.35888673M.27978517 .2763672V0H.091796878V.7294922H.37890626C.4749349 .7294922 .5453288 .7133789 .5900879 .68115237 .634847 .6489258 .65722659 .59798178 .65722659 .5283203 .65722659 .48014323 .6455892 .44059245 .62231448 .40966798 .59903976 .3787435 .56396487 .35595704 .51708987 .3413086 .54280599 .33543907 .5658366 .3221588 .58618167 .3014679 .6065267 .28078715 .6271159 .24943035 .6479492 .20739746L.75 0H.5498047L.4609375 .18147278C.44303385 .21799214 .42488609 .24293518 .40649415 .25630189 .3881022 .26967875 .36360679 .2763672 .3330078 .2763672H.27978517Z"/>
<path id="font_1_3" d=""/>
<path id="font_1_6" d="M.25683595 .7294922H.36523438L.107910159-.09277344H0L.25683595 .7294922Z"/>
<path id="font_1_29" d="M.083984378 .546875H.25878907V0H.083984378V.546875M.083984378 .7597656H.25878907V.6171875H.083984378V.7597656Z"/>
<path id="font_1_32" d="M.63378909 .33338929V0H.4580078V.054260255 .25517274C.4580078 .3024241 .45694987 .3350118 .45483399 .3529358 .4527181 .37085978 .449056 .38405863 .44384767 .39253236 .43701173 .40394593 .42773438 .41282655 .41601563 .4191742 .40429688 .425532 .39095054 .42871095 .37597657 .42871095 .33951823 .42871095 .3108724 .4146169 .29003907 .38642884 .26920573 .35824076 .25878907 .31921388 .25878907 .26934815V0H.083984378V.546875H.25878907V.46679688C.28515626 .4988607 .31315104 .52250167 .34277345 .5377197 .37239585 .5529378 .4051107 .5605469 .44091798 .5605469 .50406906 .5605469 .55200198 .5411682 .5847168 .5024109 .61743167 .46365357 .63378909 .40731303 .63378909 .33338929Z"/>
<path id="font_1_35" d="M.51123049 .53027346V.39746095C.47379557 .41308595 .43766276 .4248047 .40283204 .4326172 .3680013 .4404297 .3351237 .44433595 .30419923 .44433595 .2709961 .44433595 .24633789 .44017539 .23022461 .43185426 .21411133 .4235433 .20605469 .41074119 .20605469 .39344789 .20605469 .37941996 .2121582 .36865235 .22436524 .36114503 .23657227 .35364787 .25846354 .34810386 .29003907 .34451295L.32080079 .34010316C.410319 .32868959 .47054038 .30993144 .50146487 .28382875 .53238937 .2577362 .54785159 .21679688 .54785159 .16101074 .54785159 .102620448 .5263672 .058746339 .48339845 .029388428 .4404297 .000030517579 .3763021-.0146484379 .29101563-.0146484379 .2548828-.0146484379 .2175293-.01180013 .17895508-.0061035158 .14038086-.00040690104 .100748699 .0081380209 .060058595 .01953125V.15234375C.09488932 .13541667 .13061524 .12272135 .16723633 .11425781 .20385742 .10579427 .24104817 .1015625 .2788086 .1015625 .31298829 .1015625 .33870445 .106292728 .35595704 .115753177 .37320964 .12521363 .38183595 .13924153 .38183595 .15783692 .38183595 .17349243 .37589518 .18515015 .36401368 .19281006 .35213218 .20048015 .32845054 .20643616 .29296876 .2106781L.26220704 .21459961C.18440755 .22438558 .12988281 .2424876 .09863281 .26890565 .06738281 .29533387 .051757814 .33545939 .051757814 .38928224 .051757814 .44734703 .071614589 .49040733 .111328128 .51846316 .15104167 .546519 .21191406 .5605469 .2939453 .5605469 .32617188 .5605469 .36002604 .55810549 .3955078 .55322268 .4309896 .54833987 .4695638 .5406901 .51123049 .53027346Z"/>
<path id="font_1_36" d="M.27490235 .70214846V.546875H.45507813V.421875H.27490235V.1899414C.27490235 .16455078 .2799479 .14737956 .29003907 .13842774 .30013023 .1294759 .32014976 .125 .35009767 .125H.4399414V0H.29003907C.22102864 0 .17211914 .014404297 .14331055 .04321289 .11450195 .072021488 .100097659 .12093099 .100097659 .1899414V.421875H.013183594V.546875H.100097659V.70214846H.27490235Z"/>
<path id="font_1_34" d="M.49023438 .39746095C.4749349 .40478517 .4597168 .41019694 .44458009 .4136963 .42944337 .41719566 .41422526 .4189453 .39892579 .4189453 .3540039 .4189453 .31941734 .4045156 .29516603 .37565614 .2709147 .34679667 .25878907 .3054606 .25878907 .25164796V0H.083984378V.546875H.25878907V.45703126C.28125 .49301148 .30704753 .5192566 .33618165 .5357666 .36531578 .5522868 .40022788 .5605469 .44091798 .5605469 .44677735 .5605469 .453125 .56029257 .45996095 .55978396 .46679688 .55928549 .47672526 .55819198 .4897461 .5565033L.49023438 .39746095Z"/>
<path id="font_1_37" d="M.078125 .21289063V.546875H.25390626V.4921875C.25390626 .4625651 .2537435 .42537437 .25341798 .38061524 .25309245 .3358561 .2529297 .3059896 .2529297 .29101563 .2529297 .24707031 .254069 .2154134 .25634767 .19604492 .2586263 .17667644 .26253257 .16259766 .2680664 .1538086 .27522788 .14241536 .28458659 .1336263 .29614259 .1274414 .30769859 .12125651 .32096354 .11816406 .3359375 .11816406 .37239585 .11816406 .40104167 .13216146 .421875 .16015625 .44270835 .18815105 .453125 .22705078 .453125 .27685548V.546875H.6279297V0H.453125V.07910156C.4267578 .04703776 .3988444 .02339681 .36938478 .008178711 .33992515-.007039388 .30745445-.0146484379 .27197267-.0146484379 .20882161-.0146484379 .1607259 .004760742 .12768555 .0435791 .09464518 .08239746 .078125 .13883464 .078125 .21289063Z"/>
<path id="font_1_24" d="M.5258789 .53027346V.3876953C.5021159 .40397135 .47827149 .41601563 .4543457 .42382813 .43041993 .43164063 .40559898 .43554688 .3798828 .43554688 .3310547 .43554688 .29305015 .42125956 .26586915 .39268495 .23868816 .36412049 .22509766 .3242086 .22509766 .27294923 .22509766 .22168987 .23868816 .18177288 .26586915 .15319824 .29305015 .12463379 .3310547 .11035156 .3798828 .11035156 .40722657 .11035156 .43318687 .114461269 .45776368 .122680667 .48234049 .13090007 .5050456 .1430664 .5258789 .15917969V.015625C.49853517 .005533854 .47078453-.0020345052 .44262696-.007080078 .4144694-.012125651 .38623048-.0146484379 .35791017-.0146484379 .25927735-.0146484379 .1821289 .010701497 .12646485 .061401369 .07080078 .11211141 .04296875 .18262737 .04296875 .27294923 .04296875 .3632711 .07080078 .43378196 .12646485 .4844818 .1821289 .53519186 .25927735 .5605469 .35791017 .5605469 .386556 .5605469 .41479493 .5580241 .44262696 .5529785 .47045899 .5479329 .49820964 .54036459 .5258789 .53027346Z"/>
<path id="font_1_26" d="M.6298828 .2756195V.22558594H.2211914C.22542317 .1842448 .24023438 .15323894 .265625 .13256836 .29101563 .11189779 .3264974 .1015625 .3720703 .1015625 .40885417 .1015625 .4465332 .107055667 .48510743 .11804199 .52368167 .12902832 .5633138 .14567058 .6040039 .16796875V.033203126C.5626628 .017415366 .5213216 .005493164 .47998048-.0025634766 .4386393-.010620117 .3972982-.0146484379 .35595704-.0146484379 .2569987-.0146484379 .1800944 .010538737 .12524414 .060913087 .07039388 .11129761 .04296875 .18197632 .04296875 .27294923 .04296875 .36229453 .0699056 .43256126 .1237793 .4837494 .177653 .5349477 .25179038 .5605469 .3461914 .5605469 .4321289 .5605469 .5008952 .5346883 .55249026 .4829712 .60408529 .43125407 .6298828 .36213685 .6298828 .2756195M.4501953 .33398438C.4501953 .36704508 .44051109 .39370219 .42114259 .4139557 .40177409 .4342092 .37646485 .44433595 .34521485 .44433595 .3113607 .44433595 .28385417 .43485514 .2626953 .41589356 .24153646 .39693199 .22835286 .3696289 .22314453 .33398438H.4501953Z"/>
<path id="font_1_23" d="M.32910157 .24511719C.29264323 .24511719 .2652181 .23895264 .24682617 .22662354 .22843425 .21429444 .21923828 .1961263 .21923828 .17211914 .21923828 .15006511 .22664388 .13279216 .24145508 .12030029 .25626628 .10780843 .27685548 .1015625 .30322267 .1015625 .33610026 .1015625 .36376954 .11332194 .38623048 .13684082 .4086914 .1603597 .41992188 .189799 .41992188 .22515869V.24511719H.32910157M.5961914 .31134034V0H.41992188V.08105469C.39648438 .04767863 .3701172 .023381552 .3408203 .008163452 .31152345-.007044474 .2758789-.0146484379 .23388672-.0146484379 .1772461-.0146484379 .13126628 .0018717448 .095947269 .03491211 .060628255 .06795248 .04296875 .110839847 .04296875 .16357422 .04296875 .22770183 .06502279 .2747396 .10913086 .3046875 .15323894 .3346354 .22249349 .34960938 .31689454 .34960938H.41992188V.3635559C.41992188 .39146934 .40901695 .411911 .38720704 .42488099 .36539714 .43785096 .33138023 .44433595 .28515626 .44433595 .24772136 .44433595 .21289063 .44059245 .18066406 .43310548 .1484375 .4256185 .118489589 .41438804 .09082031 .39941407V.5332031C.1282552 .54215499 .16585286 .5489502 .20361328 .55358889 .2413737 .55822756 .27913413 .5605469 .31689454 .5605469 .41552735 .5605469 .48673503 .54100546 .5305176 .5019226 .5743001 .46283976 .5961914 .39931236 .5961914 .31134034Z"/>
<path id="font_1_33" d="M.34423829 .43554688C.3055013 .43554688 .2759603 .42159019 .25561524 .39367677 .23527019 .36576335 .22509766 .32552085 .22509766 .27294923 .22509766 .22037761 .23527019 .18013509 .25561524 .15222168 .2759603 .124308269 .3055013 .11035156 .34423829 .11035156 .38232423 .11035156 .41145835 .124308269 .43164063 .15222168 .4518229 .18013509 .46191407 .22037761 .46191407 .27294923 .46191407 .32552085 .4518229 .36576335 .43164063 .39367677 .41145835 .42159019 .38232423 .43554688 .34423829 .43554688M.34423829 .5605469C.4383138 .5605469 .5118001 .5351105 .56469729 .48423768 .6175944 .43337504 .64404299 .36294557 .64404299 .27294923 .64404299 .18295288 .6175944 .11251831 .56469729 .061645509 .5118001 .010782878 .4383138-.0146484379 .34423829-.0146484379 .24983724-.0146484379 .17602539 .010782878 .122802738 .061645509 .06958008 .11251831 .04296875 .18295288 .04296875 .27294923 .04296875 .36294557 .06958008 .43337504 .122802738 .48423768 .17602539 .5351105 .24983724 .5605469 .34423829 .5605469Z"/>
<path id="font_1_27" d="M.4560547 .09277344C.43196617 .060872396 .4054362 .037434896 .37646485 .022460938 .3474935 .007486979 .31396485 0 .2758789 0 .20914714 0 .15397136 .026306153 .11035156 .07891846 .06673177 .13154094 .044921876 .19857788 .044921876 .2800293 .044921876 .36180625 .06673177 .4288381 .11035156 .48112489 .15397136 .5334218 .20914714 .5595703 .2758789 .5595703 .31396485 .5595703 .3474935 .55204269 .37646485 .5369873 .4054362 .52194216 .43196617 .49821983 .4560547 .4658203V.546875H.63183596V.05517578C.63183596-.032714845 .60408529-.099853519 .548584-.14624024 .49308268-.19262696 .41259767-.21582031 .3071289-.21582031 .27294923-.21582031 .23990886-.21317546 .20800781-.20788574 .17610677-.20259603 .14404297-.1944987 .111816409-.18359375V-.046875C.14241536-.06461588 .17236328-.07784017 .20166016-.08654785 .23095703-.09525553 .26041667-.099609378 .29003907-.099609378 .34733073-.099609378 .3893229-.08711243 .41601563-.06211853 .44270835-.037134809 .4560547 .0019632977 .4560547 .05517578V.09277344M.3408203 .43359376C.3046875 .43359376 .27652995 .42022706 .25634767 .39349366 .23616536 .36676026 .22607422 .3289388 .22607422 .2800293 .22607422 .2298177 .23583985 .19175212 .2553711 .16583252 .27490235 .13991292 .3033854 .12695313 .3408203 .12695313 .37727867 .12695313 .40559898 .14031983 .42578126 .16705323 .44596354 .19378662 .4560547 .23144531 .4560547 .2800293 .4560547 .3289388 .44596354 .36676026 .42578126 .39349366 .40559898 .42022706 .37727867 .43359376 .3408203 .43359376Z"/>
<path id="font_1_19" d="M.091796878 .7294922H.3310547L.4970703 .33935548 .6640625 .7294922H.90283206V0H.72509768V.5336914L.5571289 .140625H.43798829L.27001954 .5336914V0H.091796878V.7294922Z"/>
<path id="font_1_30" d="M.083984378 .7597656H.25878907V0H.083984378V.7597656Z"/>
<path id="font_1_5" d="M.10205078 .18945313H.27783204V0H.10205078V.18945313Z"/>
<path id="font_1_11" d="M.6699219 .039749147C.6354167 .021784464 .5994466 .008229573 .5620117-.00091552737 .52457687-.010070801 .4855143-.0146484379 .44482423-.0146484379 .32340495-.0146484379 .22721355 .019307455 .15625 .08721924 .08528646 .15514119 .049804689 .24724324 .049804689 .3635254 .049804689 .48013307 .08528646 .57239279 .15625 .64030459 .22721355 .7082265 .32340495 .7421875 .44482423 .7421875 .4855143 .7421875 .52457687 .73760989 .5620117 .7284546 .5994466 .7193095 .6354167 .7057546 .6699219 .6877899V.5361328C.6350911 .5600688 .6007487 .5776062 .56689456 .5887451 .53304037 .5998942 .49739585 .60546877 .45996095 .60546877 .39290367 .60546877 .34016929 .5840047 .3017578 .54107668 .26334635 .49815879 .24414063 .438975 .24414063 .3635254 .24414063 .28840129 .26334635 .2293752 .3017578 .18644715 .34016929 .14352925 .39290367 .12207031 .45996095 .12207031 .49739585 .12207031 .53304037 .12763977 .56689456 .13877869 .6007487 .14992778 .6350911 .16747029 .6699219 .19140625V.039749147Z"/>
<path id="font_1_39" d="M.22216797 .27978517 .024902344 .546875H.20996094L.32177735 .38476563 .4350586 .546875H.6201172L.42285157 .28076173 .6298828 0H.44482423L.32177735 .17285156 .20019531 0H.015136719L.22216797 .27978517Z"/>
<path id="font_1_4" d="M.05419922 .359375H.36083985V.21679688H.05419922V.359375Z"/>
<path id="font_1_31" d="M.5908203 .45619203C.61295577 .49015809 .6392415 .51604208 .66967776 .533844 .70011398 .55164596 .7335612 .5605469 .77001956 .5605469 .83284506 .5605469 .8806966 .5411682 .9135742 .5024109 .94645187 .46365357 .9628906 .40731303 .9628906 .33338929V0H.7871094V.28547669C.7874349 .28970848 .787679 .29410807 .7878418 .29867555 .7880046 .303243 .78808596 .30976359 .78808596 .3182373 .78808596 .35701499 .78238937 .38512168 .7709961 .40255738 .75960287 .41999308 .74121096 .42871095 .7158203 .42871095 .6826172 .42871095 .6569824 .4150238 .638916 .38764955 .6208496 .36027528 .6114909 .3206787 .61083987 .26885987V0H.4350586V.28547669C.4350586 .34609477 .42985026 .38512168 .4194336 .40255738 .40901695 .41999308 .39046226 .42871095 .36376954 .42871095 .33024089 .42871095 .30436198 .4149424 .2861328 .3874054 .26790367 .35986839 .25878907 .32051597 .25878907 .26934815V0H.08300781V.546875H.25878907V.46679688C.28027345 .49788413 .30493165 .52128097 .33276368 .5369873 .3605957 .55269369 .39127604 .5605469 .4248047 .5605469 .4625651 .5605469 .495931 .5514018 .52490237 .5331116 .5538737 .51482138 .5758464 .48918153 .5908203 .45619203Z"/>
<path id="font_1_25" d="M.4560547 .46679688V.7597656H.63183596V0H.4560547V.07910156C.43196617 .04670207 .4054362 .02297465 .37646485 .0079193119 .3474935-.0071258547 .31396485-.0146484379 .2758789-.0146484379 .2084961-.0146484379 .15315755 .012171428 .10986328 .06581116 .06656901 .11945089 .044921876 .1884969 .044921876 .27294923 .044921876 .35740153 .06656901 .42644755 .10986328 .48008729 .15315755 .533727 .2084961 .5605469 .2758789 .5605469 .3136393 .5605469 .34708659 .5529378 .3762207 .5377197 .40535484 .52250167 .43196617 .4988607 .4560547 .46679688M.3408203 .11230469C.37825523 .11230469 .40681968 .12601726 .42651368 .15344239 .44620768 .18086751 .4560547 .22070313 .4560547 .27294923 .4560547 .3251953 .44620768 .3650309 .42651368 .39245606 .40681968 .4198812 .37825523 .43359376 .3408203 .43359376 .30371095 .43359376 .27530924 .4198812 .25561524 .39245606 .23592122 .3650309 .22607422 .3251953 .22607422 .27294923 .22607422 .22070313 .23592122 .18086751 .25561524 .15344239 .27530924 .12601726 .30371095 .11230469 .3408203 .11230469Z"/>
<path id="font_1_13" d="M.091796878 .7294922H.5991211V.58691409H.27978517V.45214845H.5800781V.3095703H.27978517V.14257813H.6098633V0H.091796878V.7294922Z"/>
<path id="font_1_40" d="M.012207031 .546875H.18701172L.33398438 .17578125 .45898438 .546875H.63378909L.4038086-.05130005C.38069663-.112345378 .35375978-.15502422 .32299806-.17933655 .29223634-.20365906 .2516276-.21582031 .20117188-.21582031H.100097659V-.10058594H.15478516C.18440755-.10058594 .20597331-.09588623 .21948242-.08648682 .23299153-.07709757 .24348958-.060256959 .25097657-.035964967L.25585938-.020828248 .012207031 .546875Z"/>
<clipPath id="clip_2">
<path transform="matrix(1,0,0,-1,0,172.42075)" d="M63.0075 4.32H393.48753V146.23201H63.0075Z"/>
</clipPath>
<path id="font_1_20" d="M.091796878 .7294922H.4038086C.49658204 .7294922 .56778976 .70888265 .61743167 .6676636 .66707357 .6264445 .69189456 .5677083 .69189456 .49145509 .69189456 .4148763 .66707357 .3559774 .61743167 .3147583 .56778976 .27353923 .49658204 .2529297 .4038086 .2529297H.27978517V0H.091796878V.7294922M.27978517 .59277346V.38964845H.38378907C.4202474 .38964845 .44840495 .39849855 .46826173 .41619874 .4881185 .43389894 .49804688 .45898438 .49804688 .49145509 .49804688 .5239258 .4881185 .54892989 .46826173 .5664673 .44840495 .5840047 .4202474 .59277346 .38378907 .59277346H.27978517Z"/>
<path id="font_1_28" d="M.63378909 .33338929V0H.4580078V.054260255 .25419618C.4580078 .3020986 .45694987 .3350118 .45483399 .3529358 .4527181 .37085978 .449056 .38405863 .44384767 .39253236 .43701173 .40394593 .42773438 .41282655 .41601563 .4191742 .40429688 .425532 .39095054 .42871095 .37597657 .42871095 .33951823 .42871095 .3108724 .4146169 .29003907 .38642884 .26920573 .35824076 .25878907 .31921388 .25878907 .26934815V0H.083984378V.7597656H.25878907V.46679688C.28515626 .4988607 .31315104 .52250167 .34277345 .5377197 .37239585 .5529378 .4051107 .5605469 .44091798 .5605469 .50406906 .5605469 .55200198 .5411682 .5847168 .5024109 .61743167 .46365357 .63378909 .40731303 .63378909 .33338929Z"/>
<path id="font_1_9" d="M.36816407 .57470706 .16210938 .26953126H.36816407V.57470706M.33691407 .7294922H.54589846V.26953126H.64990237V.1328125H.54589846V0H.36816407V.1328125H.044921876V.29408265L.33691407 .7294922Z"/>
<clipPath id="clip_3">
<path transform="matrix(1,0,0,-1,0,172.42075)" d="M63.0075 4.32H393.48753V146.23201H63.0075Z"/>
</clipPath>
<path id="font_1_15" d="M.7470703 .053955079C.7001953 .03108724 .65152999 .01393636 .6010742 .0025024415 .55061849-.008931478 .49853517-.0146484379 .44482423-.0146484379 .32340495-.0146484379 .22721355 .019307455 .15625 .08721924 .08528646 .15514119 .049804689 .24724324 .049804689 .3635254 .049804689 .48110963 .0859375 .57361349 .15820313 .641037 .23046875 .70847067 .3294271 .7421875 .45507813 .7421875 .50358077 .7421875 .5500488 .73760989 .5944824 .7284546 .638916 .7193095 .68082687 .7057546 .72021487 .6877899V.5361328C.6795247 .55940756 .6390788 .5767822 .59887698 .58825686 .5586751 .59973147 .5183919 .60546877 .47802735 .60546877 .40315757 .60546877 .34545899 .5845744 .30493165 .54278567 .2644043 .5009969 .24414063 .4412435 .24414063 .3635254 .24414063 .28645835 .26367188 .22694905 .30273438 .18499756 .34179688 .14304607 .3972982 .12207031 .46923829 .12207031 .48876954 .12207031 .5069173 .123291019 .52368167 .12573242 .540446 .128184 .5555013 .13202413 .56884768 .13725281V.27929688H.45410157V.40527345H.7470703V.053955079Z"/>
<path id="font_1_8" d="M.4658203 .39257813C.51497396 .3798828 .55232748 .35782878 .57788088 .32641603 .60343429 .29500328 .61621096 .25504557 .61621096 .20654297 .61621096 .13427735 .5885417 .0793457 .5332031 .041748048 .4778646 .0041503908 .3971354-.0146484379 .29101563-.0146484379 .25358073-.0146484379 .21606446-.01163737 .1784668-.0056152346 .14086914 .00040690104 .10367838 .0094401049 .06689453 .021484375V.16699219C.10205078 .1492513 .13696289 .13586426 .17163086 .12683106 .20629883 .11779785 .24039714 .11328125 .27392579 .11328125 .32373048 .11328125 .3618978 .121907558 .38842774 .13916016 .41495768 .15641277 .42822267 .18115235 .42822267 .2133789 .42822267 .24658203 .41463218 .27172853 .38745118 .28881837 .36027018 .3059082 .32014976 .31445313 .26708985 .31445313H.19189453V.43554688H.2709961C.31819663 .43554688 .35335288 .44295249 .37646485 .45776368 .3995768 .47257487 .4111328 .4951172 .4111328 .5253906 .4111328 .55338546 .39990235 .57503256 .3774414 .59033206 .35498048 .60563156 .3232422 .61328127 .28222657 .61328127 .25195313 .61328127 .22135417 .6098226 .19042969 .6029053 .1595052 .595988 .12874349 .5857747 .09814453 .5722656V.70996096C.1352539 .7207031 .17203777 .72875979 .2084961 .73413088 .24495442 .73950198 .28076173 .7421875 .31591798 .7421875 .41064454 .7421875 .4815267 .72661849 .52856448 .69548037 .57560226 .6643524 .5991211 .61749777 .5991211 .5549164 .5991211 .5122121 .5878906 .47724916 .5654297 .45002748 .54296877 .42281596 .5097656 .40366618 .4658203 .39257813Z"/>
<clipPath id="clip_4">
<path transform="matrix(1,0,0,-1,0,172.42075)" d="M63.0075 4.32H393.48753V146.23201H63.0075Z"/>
</clipPath>
<path id="font_1_21" d="M.44482423-.013671875H.43017579C.3100586-.013671875 .21663411 .019551596 .14990235 .085998538 .08317057 .15244548 .049804689 .24495442 .049804689 .3635254 .049804689 .48176066 .083089198 .5744273 .1496582 .64152529 .21622722 .7086334 .30794273 .7421875 .4248047 .7421875 .54296877 .7421875 .63500979 .70896407 .70092776 .6425171 .7668457 .5760803 .7998047 .48309837 .7998047 .36357118 .7998047 .28149925 .7823079 .2108256 .74731448 .1515503 .712321 .092274989 .6619466 .0476532 .5961914 .017684937L.74316409-.14648438H.56396487L.44482423-.013671875M.4248047 .60546877C.36751304 .60546877 .32307945 .58433029 .2915039 .5420532 .25992839 .4997762 .24414063 .44026695 .24414063 .3635254 .24414063 .28548179 .25960288 .22572835 .29052735 .18426514 .3214518 .14280193 .36621095 .12207031 .4248047 .12207031 .48242188 .12207031 .52701827 .14320882 .55859377 .18548584 .59016928 .22776287 .60595706 .28710938 .60595706 .3635254 .60595706 .44026695 .59016928 .4997762 .55859377 .5420532 .52701827 .58433029 .48242188 .60546877 .4248047 .60546877Z"/>
<path id="font_1_38" d="M.03515625 .546875H.20507813L.296875 .16992188 .38916017 .546875H.53515627L.6269531 .17382813 .7192383 .546875H.88916018L.7451172 0H.5541992L.46191407 .37597657 .3701172 0H.17919922L.03515625 .546875Z"/>
<clipPath id="clip_5">
<path transform="matrix(1,0,0,-1,0,172.42075)" d="M63.0075 4.32H393.48753V146.23201H63.0075Z"/>
</clipPath>
<path id="font_1_18" d="M.091796878 .7294922H.27978517V.14257813H.6098633V0H.091796878V.7294922Z"/>
<path id="font_1_10" d="M.5341797 .1328125H.24023438L.19384766 0H.0048828127L.27490235 .7294922H.49902345L.76904299 0H.5800781L.5341797 .1328125M.28710938 .2685547H.4868164L.38720704 .55859377 .28710938 .2685547Z"/>
<clipPath id="clip_6">
<path transform="matrix(1,0,0,-1,0,172.42075)" d="M63.0075 4.32H393.48753V146.23201H63.0075Z"/>
</clipPath>
<path id="font_1_7" d="M.1171875 .12988281H.28320313V.6015625L.11279297 .56640627V.69433596L.28222657 .7294922H.4609375V.12988281H.6269531V0H.1171875V.12988281Z"/>
<path id="font_1_12" d="M.27978517 .58691409V.14257813H.34716798C.42399089 .14257813 .48266603 .16160076 .52319338 .199646 .5637207 .23769124 .5839844 .29296876 .5839844 .36547853 .5839844 .43766276 .56380209 .49261476 .5234375 .5303345 .4830729 .5680542 .4243164 .58691409 .34716798 .58691409H.27978517M.091796878 .7294922H.29003907C.40071617 .7294922 .4831543 .7215932 .5373535 .7057953 .59155276 .6899974 .6380208 .66320297 .6767578 .625412 .7109375 .59251406 .7363281 .5545654 .7529297 .51156619 .76953127 .46857707 .77783206 .4198812 .77783206 .36547853 .77783206 .3104248 .76953127 .26131694 .7529297 .2181549 .7363281 .17500305 .7109375 .13697815 .6767578 .1040802 .6376953 .06628927 .5908203 .03949483 .5361328 .0236969 .4814453 .007898967 .39941407 0 .29003907 0H.091796878V.7294922Z"/>
<clipPath id="clip_7">
<path transform="matrix(1,0,0,-1,0,172.42075)" d="M63.0075 4.32H393.48753V146.23201H63.0075Z"/>
</clipPath>
<clipPath id="clip_8">
<path transform="matrix(1,0,0,-1,0,172.42075)" d="M63.0075 4.32H393.48753V146.23201H63.0075Z"/>
</clipPath>
<clipPath id="clip_9">
<path transform="matrix(1,0,0,-1,0,172.42075)" d="M63.0075 4.32H393.48753V146.23201H63.0075Z"/>
</clipPath>
<clipPath id="clip_10">
<path transform="matrix(1,0,0,-1,0,172.42075)" d="M63.0075 4.32H393.48753V146.23201H63.0075Z"/>
</clipPath>
<clipPath id="clip_11">
<path transform="matrix(1,0,0,-1,0,172.42075)" d="M63.0075 4.32H393.48753V146.23201H63.0075Z"/>
</clipPath>
<clipPath id="clip_12">
<path transform="matrix(1,0,0,-1,0,172.42075)" d="M63.0075 4.32H393.48753V146.23201H63.0075Z"/>
</clipPath>
<clipPath id="clip_13">
<path transform="matrix(1,0,0,-1,0,172.42075)" d="M63.0075 4.32H393.48753V146.23201H63.0075Z"/>
</clipPath>
<clipPath id="clip_14">
<path transform="matrix(1,0,0,-1,0,172.42075)" d="M63.0075 4.32H393.48753V146.23201H63.0075Z"/>
</clipPath>
<clipPath id="clip_15">
<path transform="matrix(1,0,0,-1,0,172.42075)" d="M63.0075 4.32H393.48753V146.23201H63.0075Z"/>
</clipPath>
<clipPath id="clip_16">
<path transform="matrix(1,0,0,-1,0,172.42075)" d="M63.0075 4.32H393.48753V146.23201H63.0075Z"/>
</clipPath>
<clipPath id="clip_17">
<path transform="matrix(1,0,0,-1,0,172.42075)" d="M63.0075 4.32H393.48753V146.23201H63.0075Z"/>
</clipPath>
<clipPath id="clip_18">
<path transform="matrix(1,0,0,-1,0,172.42075)" d="M63.0075 4.32H393.48753V146.23201H63.0075Z"/>
</clipPath>
<clipPath id="clip_19">
<path transform="matrix(1,0,0,-1,0,172.42075)" d="M63.0075 4.32H393.48753V146.23201H63.0075Z"/>
</clipPath>
<clipPath id="clip_20">
<path transform="matrix(1,0,0,-1,0,172.42075)" d="M63.0075 4.32H393.48753V146.23201H63.0075Z"/>
</clipPath>
<clipPath id="clip_21">
<path transform="matrix(1,0,0,-1,0,172.42075)" d="M63.0075 4.32H393.48753V146.23201H63.0075Z"/>
</clipPath>
<clipPath id="clip_22">
<path transform="matrix(1,0,0,-1,0,172.42075)" d="M63.0075 4.32H393.48753V146.23201H63.0075Z"/>
</clipPath>
<clipPath id="clip_23">
<path transform="matrix(1,0,0,-1,0,172.42075)" d="M63.0075 4.32H393.48753V146.23201H63.0075Z"/>
</clipPath>
<clipPath id="clip_24">
<path transform="matrix(1,0,0,-1,0,172.42075)" d="M63.0075 4.32H393.48753V146.23201H63.0075Z"/>
</clipPath>
<clipPath id="clip_25">
<path transform="matrix(1,0,0,-1,0,172.42075)" d="M63.0075 4.32H393.48753V146.23201H63.0075Z"/>
</clipPath>
<clipPath id="clip_26">
<path transform="matrix(1,0,0,-1,0,172.42075)" d="M63.0075 4.32H393.48753V146.23201H63.0075Z"/>
</clipPath>
<clipPath id="clip_27">
<path transform="matrix(1,0,0,-1,0,172.42075)" d="M63.0075 4.32H393.48753V146.23201H63.0075Z"/>
</clipPath>
<clipPath id="clip_28">
<path transform="matrix(1,0,0,-1,0,172.42075)" d="M63.0075 4.32H393.48753V146.23201H63.0075Z"/>
</clipPath>
<clipPath id="clip_29">
<path transform="matrix(1,0,0,-1,0,172.42075)" d="M63.0075 4.32H393.48753V146.23201H63.0075Z"/>
</clipPath>
<clipPath id="clip_30">
<path transform="matrix(1,0,0,-1,0,172.42075)" d="M63.0075 4.32H393.48753V146.23201H63.0075Z"/>
</clipPath>
<clipPath id="clip_31">
<path transform="matrix(1,0,0,-1,0,172.42075)" d="M63.0075 4.32H393.48753V146.23201H63.0075Z"/>
</clipPath>
<clipPath id="clip_32">
<path transform="matrix(1,0,0,-1,0,172.42075)" d="M63.0075 4.32H393.48753V146.23201H63.0075Z"/>
</clipPath>
<clipPath id="clip_33">
<path transform="matrix(1,0,0,-1,0,172.42075)" d="M63.0075 4.32H393.48753V146.23201H63.0075Z"/>
</clipPath>
<clipPath id="clip_34">
<path transform="matrix(1,0,0,-1,0,172.42075)" d="M63.0075 4.32H393.48753V146.23201H63.0075Z"/>
</clipPath>
<clipPath id="clip_35">
<path transform="matrix(1,0,0,-1,0,172.42075)" d="M63.0075 4.32H393.48753V146.23201H63.0075Z"/>
</clipPath>
<clipPath id="clip_36">
<path transform="matrix(1,0,0,-1,0,172.42075)" d="M63.0075 4.32H393.48753V146.23201H63.0075Z"/>
</clipPath>
<path id="font_1_16" d="M.091796878 .7294922H.27978517V.45214845H.5571289V.7294922H.7451172V0H.5571289V.3095703H.27978517V0H.091796878V.7294922Z"/>
<clipPath id="clip_37">
<path transform="matrix(1,0,0,-1,0,172.42075)" d="M63.0075 4.32H393.48753V146.23201H63.0075Z"/>
</clipPath>
<clipPath id="clip_38">
<path transform="matrix(1,0,0,-1,0,172.42075)" d="M63.0075 4.32H393.48753V146.23201H63.0075Z"/>
</clipPath>
<clipPath id="clip_39">
<path transform="matrix(1,0,0,-1,0,172.42075)" d="M63.0075 4.32H393.48753V146.23201H63.0075Z"/>
</clipPath>
<clipPath id="clip_40">
<path transform="matrix(1,0,0,-1,0,172.42075)" d="M63.0075 4.32H393.48753V146.23201H63.0075Z"/>
</clipPath>
<clipPath id="clip_41">
<path transform="matrix(1,0,0,-1,0,172.42075)" d="M63.0075 4.32H393.48753V146.23201H63.0075Z"/>
</clipPath>
<clipPath id="clip_42">
<path transform="matrix(1,0,0,-1,0,172.42075)" d="M63.0075 4.32H393.48753V146.23201H63.0075Z"/>
</clipPath>
<clipPath id="clip_43">
<path transform="matrix(1,0,0,-1,0,172.42075)" d="M63.0075 4.32H393.48753V146.23201H63.0075Z"/>
</clipPath>
<clipPath id="clip_44">
<path transform="matrix(1,0,0,-1,0,172.42075)" d="M63.0075 4.32H393.48753V146.23201H63.0075Z"/>
</clipPath>
<clipPath id="clip_45">
<path transform="matrix(1,0,0,-1,0,172.42075)" d="M63.0075 4.32H393.48753V146.23201H63.0075Z"/>
</clipPath>
<clipPath id="clip_46">
<path transform="matrix(1,0,0,-1,0,172.42075)" d="M63.0075 4.32H393.48753V146.23201H63.0075Z"/>
</clipPath>
<clipPath id="clip_47">
<path transform="matrix(1,0,0,-1,0,172.42075)" d="M63.0075 4.32H393.48753V146.23201H63.0075Z"/>
</clipPath>
<clipPath id="clip_48">
<path transform="matrix(1,0,0,-1,0,172.42075)" d="M63.0075 4.32H393.48753V146.23201H63.0075Z"/>
</clipPath>
<clipPath id="clip_49">
<path transform="matrix(1,0,0,-1,0,172.42075)" d="M63.0075 4.32H393.48753V146.23201H63.0075Z"/>
</clipPath>
</defs>
<path transform="matrix(1,0,0,-1,0,172.42075)" d="M0 0H397.8075V172.42075H0Z" fill="#0d1b19"/>
<path transform="matrix(1,0,0,-1,0,172.42075)" d="M63.0075 4.32H393.4875V146.232H63.0075Z" fill="#0d1b19"/>
<use data-text="I" xlink:href="#font_1_17" transform="matrix(9,0,0,-9,79.11781,11.226242)" fill="#d0e8e0"/>
<use data-text="F" xlink:href="#font_1_14" transform="matrix(9,0,0,-9,82.46581,11.226242)" fill="#d0e8e0"/>
<use data-text="R" xlink:href="#font_1_22" transform="matrix(9,0,0,-9,88.612819,11.226242)" fill="#d0e8e0"/>
<use data-text=" " xlink:href="#font_1_3" transform="matrix(9,0,0,-9,95.542819,11.226242)" fill="#d0e8e0"/>
<use data-text="/" xlink:href="#font_1_6" transform="matrix(9,0,0,-9,98.67481,11.226242)" fill="#d0e8e0"/>
<use data-text="i" xlink:href="#font_1_29" transform="matrix(9,0,0,-9,70.72719,21.313752)" fill="#d0e8e0"/>
<use data-text="n" xlink:href="#font_1_32" transform="matrix(9,0,0,-9,73.814189,21.313752)" fill="#d0e8e0"/>
<use data-text="s" xlink:href="#font_1_35" transform="matrix(9,0,0,-9,80.22219,21.313752)" fill="#d0e8e0"/>
<use data-text="t" xlink:href="#font_1_36" transform="matrix(9,0,0,-9,85.57719,21.313752)" fill="#d0e8e0"/>
<use data-text="r" xlink:href="#font_1_34" transform="matrix(9,0,0,-9,89.87919,21.313752)" fill="#d0e8e0"/>
<use data-text="u" xlink:href="#font_1_37" transform="matrix(9,0,0,-9,94.31619,21.313752)" fill="#d0e8e0"/>
<use data-text="c" xlink:href="#font_1_24" transform="matrix(9,0,0,-9,100.72419,21.313752)" fill="#d0e8e0"/>
<use data-text="t" xlink:href="#font_1_36" transform="matrix(9,0,0,-9,106.06119,21.313752)" fill="#d0e8e0"/>
<use data-text="R" xlink:href="#font_1_22" transform="matrix(9,0,0,-9,119.11969,21.251252)" fill="#d0e8e0"/>
<use data-text="e" xlink:href="#font_1_26" transform="matrix(9,0,0,-9,126.04969,21.251252)" fill="#d0e8e0"/>
<use data-text="a" xlink:href="#font_1_23" transform="matrix(9,0,0,-9,132.15169,21.251252)" fill="#d0e8e0"/>
<use data-text="s" xlink:href="#font_1_35" transform="matrix(9,0,0,-9,138.22669,21.251252)" fill="#d0e8e0"/>
<use data-text="o" xlink:href="#font_1_33" transform="matrix(9,0,0,-9,143.5817,21.251252)" fill="#d0e8e0"/>
<use data-text="n" xlink:href="#font_1_32" transform="matrix(9,0,0,-9,149.7647,21.251252)" fill="#d0e8e0"/>
<use data-text="i" xlink:href="#font_1_29" transform="matrix(9,0,0,-9,156.1727,21.251252)" fill="#d0e8e0"/>
<use data-text="n" xlink:href="#font_1_32" transform="matrix(9,0,0,-9,159.25969,21.251252)" fill="#d0e8e0"/>
<use data-text="g" xlink:href="#font_1_27" transform="matrix(9,0,0,-9,165.6677,21.251252)" fill="#d0e8e0"/>
<use data-text="M" xlink:href="#font_1_19" transform="matrix(9,0,0,-9,176.55907,21.251252)" fill="#d0e8e0"/>
<use data-text="u" xlink:href="#font_1_37" transform="matrix(9,0,0,-9,185.51407,21.251252)" fill="#d0e8e0"/>
<use data-text="l" xlink:href="#font_1_30" transform="matrix(9,0,0,-9,191.92208,21.251252)" fill="#d0e8e0"/>
<use data-text="t" xlink:href="#font_1_36" transform="matrix(9,0,0,-9,195.00907,21.251252)" fill="#d0e8e0"/>
<use data-text="i" xlink:href="#font_1_29" transform="matrix(9,0,0,-9,199.31107,21.251252)" fill="#d0e8e0"/>
<use data-text="l" xlink:href="#font_1_30" transform="matrix(9,0,0,-9,202.39807,21.251252)" fill="#d0e8e0"/>
<use data-text="i" xlink:href="#font_1_29" transform="matrix(9,0,0,-9,205.48506,21.251252)" fill="#d0e8e0"/>
<use data-text="n" xlink:href="#font_1_32" transform="matrix(9,0,0,-9,208.57207,21.251252)" fill="#d0e8e0"/>
<use data-text="g" xlink:href="#font_1_27" transform="matrix(9,0,0,-9,214.98007,21.251252)" fill="#d0e8e0"/>
<use data-text="." xlink:href="#font_1_5" transform="matrix(9,0,0,-9,221.42407,21.251252)" fill="#d0e8e0"/>
<use data-text="C" xlink:href="#font_1_11" transform="matrix(9,0,0,-9,235.92813,11.226242)" fill="#d0e8e0"/>
<use data-text="o" xlink:href="#font_1_33" transform="matrix(9,0,0,-9,242.53414,11.226242)" fill="#d0e8e0"/>
<use data-text="n" xlink:href="#font_1_32" transform="matrix(9,0,0,-9,248.71714,11.226242)" fill="#d0e8e0"/>
<use data-text="t" xlink:href="#font_1_36" transform="matrix(9,0,0,-9,255.12514,11.226242)" fill="#d0e8e0"/>
<use data-text="e" xlink:href="#font_1_26" transform="matrix(9,0,0,-9,259.42713,11.226242)" fill="#d0e8e0"/>
<use data-text="x" xlink:href="#font_1_39" transform="matrix(9,0,0,-9,265.52915,11.226242)" fill="#d0e8e0"/>
<use data-text="t" xlink:href="#font_1_36" transform="matrix(9,0,0,-9,271.33415,11.226242)" fill="#d0e8e0"/>
<use data-text="l" xlink:href="#font_1_30" transform="matrix(9,0,0,-9,246.27188,21.313752)" fill="#d0e8e0"/>
<use data-text="e" xlink:href="#font_1_26" transform="matrix(9,0,0,-9,249.35889,21.313752)" fill="#d0e8e0"/>
<use data-text="n" xlink:href="#font_1_32" transform="matrix(9,0,0,-9,255.46088,21.313752)" fill="#d0e8e0"/>
<use data-text="." xlink:href="#font_1_5" transform="matrix(9,0,0,-9,261.8689,21.313752)" fill="#d0e8e0"/>
<use data-text="M" xlink:href="#font_1_19" transform="matrix(9,0,0,-9,296.07844,11.226242)" fill="#d0e8e0"/>
<use data-text="u" xlink:href="#font_1_37" transform="matrix(9,0,0,-9,305.03343,11.226242)" fill="#d0e8e0"/>
<use data-text="l" xlink:href="#font_1_30" transform="matrix(9,0,0,-9,311.44145,11.226242)" fill="#d0e8e0"/>
<use data-text="t" xlink:href="#font_1_36" transform="matrix(9,0,0,-9,314.52845,11.226242)" fill="#d0e8e0"/>
<use data-text="i" xlink:href="#font_1_29" transform="matrix(9,0,0,-9,318.83045,11.226242)" fill="#d0e8e0"/>
<use data-text="-" xlink:href="#font_1_4" transform="matrix(9,0,0,-9,321.91743,11.226242)" fill="#d0e8e0"/>
<use data-text="m" xlink:href="#font_1_31" transform="matrix(9,0,0,-9,295.28157,21.313752)" fill="#d0e8e0"/>
<use data-text="o" xlink:href="#font_1_33" transform="matrix(9,0,0,-9,304.65956,21.313752)" fill="#d0e8e0"/>
<use data-text="d" xlink:href="#font_1_25" transform="matrix(9,0,0,-9,310.84257,21.313752)" fill="#d0e8e0"/>
<use data-text="a" xlink:href="#font_1_23" transform="matrix(9,0,0,-9,317.28657,21.313752)" fill="#d0e8e0"/>
<use data-text="l" xlink:href="#font_1_30" transform="matrix(9,0,0,-9,323.36158,21.313752)" fill="#d0e8e0"/>
<use data-text="E" xlink:href="#font_1_13" transform="matrix(9,0,0,-9,355.23658,11.163742)" fill="#d0e8e0"/>
<use data-text="c" xlink:href="#font_1_24" transform="matrix(9,0,0,-9,361.38359,11.163742)" fill="#d0e8e0"/>
<use data-text="o" xlink:href="#font_1_33" transform="matrix(9,0,0,-9,366.72059,11.163742)" fill="#d0e8e0"/>
<use data-text="-" xlink:href="#font_1_4" transform="matrix(9,0,0,-9,372.90357,11.163742)" fill="#d0e8e0"/>
<use data-text="s" xlink:href="#font_1_35" transform="matrix(9,0,0,-9,347.76,21.251252)" fill="#d0e8e0"/>
<use data-text="y" xlink:href="#font_1_40" transform="matrix(9,0,0,-9,353.11503,21.251252)" fill="#d0e8e0"/>
<use data-text="s" xlink:href="#font_1_35" transform="matrix(9,0,0,-9,358.983,21.251252)" fill="#d0e8e0"/>
<use data-text="t" xlink:href="#font_1_36" transform="matrix(9,0,0,-9,364.338,21.251252)" fill="#d0e8e0"/>
<use data-text="e" xlink:href="#font_1_26" transform="matrix(9,0,0,-9,368.64,21.251252)" fill="#d0e8e0"/>
<use data-text="m" xlink:href="#font_1_31" transform="matrix(9,0,0,-9,374.742,21.251252)" fill="#d0e8e0"/>
<g clip-path="url(#clip_2)">
<path transform="matrix(1,0,0,-1,0,172.42075)" stroke-width=".5" stroke-linecap="square" stroke-linejoin="round" fill="none" stroke="#1a3a34" stroke-opacity=".7" d="M63.0075 132.0408H393.4875"/>
</g>
<use data-text="P" xlink:href="#font_1_20" transform="matrix(10.5,0,0,-10.5,29.57,44.55963)" fill="#d0e8e0"/>
<use data-text="h" xlink:href="#font_1_28" transform="matrix(10.5,0,0,-10.5,37.2665,44.55963)" fill="#d0e8e0"/>
<use data-text="i" xlink:href="#font_1_29" transform="matrix(10.5,0,0,-10.5,44.7425,44.55963)" fill="#d0e8e0"/>
<use data-text="-" xlink:href="#font_1_4" transform="matrix(10.5,0,0,-10.5,48.344,44.55963)" fill="#d0e8e0"/>
<use data-text="4" xlink:href="#font_1_9" transform="matrix(10.5,0,0,-10.5,52.7015,44.55963)" fill="#d0e8e0"/>
<g clip-path="url(#clip_3)">
<path transform="matrix(1,0,0,-1,0,172.42075)" stroke-width=".5" stroke-linecap="square" stroke-linejoin="round" fill="none" stroke="#1a3a34" stroke-opacity=".7" d="M63.0075 103.6584H393.4875"/>
</g>
<use data-text="G" xlink:href="#font_1_15" transform="matrix(10.5,0,0,-10.5,4.32,72.94203)" fill="#d0e8e0"/>
<use data-text="e" xlink:href="#font_1_26" transform="matrix(10.5,0,0,-10.5,12.9405,72.94203)" fill="#d0e8e0"/>
<use data-text="m" xlink:href="#font_1_31" transform="matrix(10.5,0,0,-10.5,20.059502,72.94203)" fill="#d0e8e0"/>
<use data-text="m" xlink:href="#font_1_31" transform="matrix(10.5,0,0,-10.5,31.000502,72.94203)" fill="#d0e8e0"/>
<use data-text="a" xlink:href="#font_1_23" transform="matrix(10.5,0,0,-10.5,41.9415,72.94203)" fill="#d0e8e0"/>
<use data-text=" " xlink:href="#font_1_3" transform="matrix(10.5,0,0,-10.5,49.029005,72.94203)" fill="#d0e8e0"/>
<use data-text="3" xlink:href="#font_1_8" transform="matrix(10.5,0,0,-10.5,52.683004,72.94203)" fill="#d0e8e0"/>
<g clip-path="url(#clip_4)">
<path transform="matrix(1,0,0,-1,0,172.42075)" stroke-width=".5" stroke-linecap="square" stroke-linejoin="round" fill="none" stroke="#1a3a34" stroke-opacity=".7" d="M63.0075 75.276H393.4875"/>
</g>
<use data-text="Q" xlink:href="#font_1_21" transform="matrix(10.5,0,0,-10.5,15.82,101.32443)" fill="#d0e8e0"/>
<use data-text="w" xlink:href="#font_1_38" transform="matrix(10.5,0,0,-10.5,24.744999,101.32443)" fill="#d0e8e0"/>
<use data-text="e" xlink:href="#font_1_26" transform="matrix(10.5,0,0,-10.5,34.447,101.32443)" fill="#d0e8e0"/>
<use data-text="n" xlink:href="#font_1_32" transform="matrix(10.5,0,0,-10.5,41.566,101.32443)" fill="#d0e8e0"/>
<use data-text=" " xlink:href="#font_1_3" transform="matrix(10.5,0,0,-10.5,49.042005,101.32443)" fill="#d0e8e0"/>
<use data-text="3" xlink:href="#font_1_8" transform="matrix(10.5,0,0,-10.5,52.696004,101.32443)" fill="#d0e8e0"/>
<g clip-path="url(#clip_5)">
<path transform="matrix(1,0,0,-1,0,172.42075)" stroke-width=".5" stroke-linecap="square" stroke-linejoin="round" fill="none" stroke="#1a3a34" stroke-opacity=".7" d="M63.0075 46.8936H393.4875"/>
</g>
<use data-text="L" xlink:href="#font_1_18" transform="matrix(10.5,0,0,-10.5,9.991875,129.70684)" fill="#d0e8e0"/>
<use data-text="L" xlink:href="#font_1_18" transform="matrix(10.5,0,0,-10.5,16.680375,129.70684)" fill="#d0e8e0"/>
<use data-text="a" xlink:href="#font_1_23" transform="matrix(10.5,0,0,-10.5,23.368876,129.70684)" fill="#d0e8e0"/>
<use data-text="M" xlink:href="#font_1_19" transform="matrix(10.5,0,0,-10.5,30.456376,129.70684)" fill="#d0e8e0"/>
<use data-text="A" xlink:href="#font_1_10" transform="matrix(10.5,0,0,-10.5,40.903879,129.70684)" fill="#d0e8e0"/>
<use data-text=" " xlink:href="#font_1_3" transform="matrix(10.5,0,0,-10.5,49.030878,129.70684)" fill="#d0e8e0"/>
<use data-text="3" xlink:href="#font_1_8" transform="matrix(10.5,0,0,-10.5,52.684877,129.70684)" fill="#d0e8e0"/>
<g clip-path="url(#clip_6)">
<path transform="matrix(1,0,0,-1,0,172.42075)" stroke-width=".5" stroke-linecap="square" stroke-linejoin="round" fill="none" stroke="#1a3a34" stroke-opacity=".7" d="M63.0075 18.5112H393.4875"/>
</g>
<use data-text="R" xlink:href="#font_1_22" transform="matrix(10.5,0,0,-10.5,5.8825,158.08924)" fill="#d0e8e0"/>
<use data-text="1" xlink:href="#font_1_7" transform="matrix(10.5,0,0,-10.5,13.967501,158.08924)" fill="#d0e8e0"/>
<use data-text="-" xlink:href="#font_1_4" transform="matrix(10.5,0,0,-10.5,21.275502,158.08924)" fill="#d0e8e0"/>
<use data-text="D" xlink:href="#font_1_12" transform="matrix(10.5,0,0,-10.5,25.633,158.08924)" fill="#d0e8e0"/>
<use data-text="i" xlink:href="#font_1_29" transform="matrix(10.5,0,0,-10.5,34.348,158.08924)" fill="#d0e8e0"/>
<use data-text="s" xlink:href="#font_1_35" transform="matrix(10.5,0,0,-10.5,37.9495,158.08924)" fill="#d0e8e0"/>
<use data-text="t" xlink:href="#font_1_36" transform="matrix(10.5,0,0,-10.5,44.197004,158.08924)" fill="#d0e8e0"/>
<use data-text="i" xlink:href="#font_1_29" transform="matrix(10.5,0,0,-10.5,49.216005,158.08924)" fill="#d0e8e0"/>
<use data-text="l" xlink:href="#font_1_30" transform="matrix(10.5,0,0,-10.5,52.817506,158.08924)" fill="#d0e8e0"/>
<use data-text="l" xlink:href="#font_1_30" transform="matrix(10.5,0,0,-10.5,56.419008,158.08924)" fill="#d0e8e0"/>
<g clip-path="url(#clip_7)">
<path transform="matrix(1,0,0,-1,0,172.42075)" d="M63.0075 146.232H118.0875V117.8496H63.0075Z" fill="#4dd8b8"/>
</g>
<g clip-path="url(#clip_8)">
<path transform="matrix(1,0,0,-1,0,172.42075)" d="M118.0875 146.232H173.1675V117.8496H118.0875Z" fill="#4dd8b8"/>
</g>
<g clip-path="url(#clip_9)">
<path transform="matrix(1,0,0,-1,0,172.42075)" d="M173.1675 146.232H228.2475V117.8496H173.1675Z" fill="#2a7a72"/>
</g>
<g clip-path="url(#clip_10)">
<path transform="matrix(1,0,0,-1,0,172.42075)" d="M228.2475 146.232H283.3275V117.8496H228.2475Z" fill="#4dd8b8"/>
</g>
<g clip-path="url(#clip_11)">
<path transform="matrix(1,0,0,-1,0,172.42075)" d="M283.3275 146.232H338.4075V117.8496H283.3275Z" fill="#1a3530"/>
</g>
<g clip-path="url(#clip_12)">
<path transform="matrix(1,0,0,-1,0,172.42075)" d="M338.4075 146.232H393.4875V117.8496H338.4075Z" fill="#2a7a72"/>
</g>
<g clip-path="url(#clip_13)">
<path transform="matrix(1,0,0,-1,0,172.42075)" d="M63.0075 117.8496H118.0875V89.4672H63.0075Z" fill="#4dd8b8"/>
</g>
<g clip-path="url(#clip_14)">
<path transform="matrix(1,0,0,-1,0,172.42075)" d="M118.0875 117.8496H173.1675V89.4672H118.0875Z" fill="#2a7a72"/>
</g>
<g clip-path="url(#clip_15)">
<path transform="matrix(1,0,0,-1,0,172.42075)" d="M173.1675 117.8496H228.2475V89.4672H173.1675Z" fill="#4dd8b8"/>
</g>
<g clip-path="url(#clip_16)">
<path transform="matrix(1,0,0,-1,0,172.42075)" d="M228.2475 117.8496H283.3275V89.4672H228.2475Z" fill="#4dd8b8"/>
</g>
<g clip-path="url(#clip_17)">
<path transform="matrix(1,0,0,-1,0,172.42075)" d="M283.3275 117.8496H338.4075V89.4672H283.3275Z" fill="#4dd8b8"/>
</g>
<g clip-path="url(#clip_18)">
<path transform="matrix(1,0,0,-1,0,172.42075)" d="M338.4075 117.8496H393.4875V89.4672H338.4075Z" fill="#4dd8b8"/>
</g>
<g clip-path="url(#clip_19)">
<path transform="matrix(1,0,0,-1,0,172.42075)" d="M63.0075 89.4672H118.0875V61.0848H63.0075Z" fill="#4dd8b8"/>
</g>
<g clip-path="url(#clip_20)">
<path transform="matrix(1,0,0,-1,0,172.42075)" d="M118.0875 89.4672H173.1675V61.0848H118.0875Z" fill="#4dd8b8"/>
</g>
<g clip-path="url(#clip_21)">
<path transform="matrix(1,0,0,-1,0,172.42075)" d="M173.1675 89.4672H228.2475V61.0848H173.1675Z" fill="#4dd8b8"/>
</g>
<g clip-path="url(#clip_22)">
<path transform="matrix(1,0,0,-1,0,172.42075)" d="M228.2475 89.4672H283.3275V61.0848H228.2475Z" fill="#4dd8b8"/>
</g>
<g clip-path="url(#clip_23)">
<path transform="matrix(1,0,0,-1,0,172.42075)" d="M283.3275 89.4672H338.4075V61.0848H283.3275Z" fill="#2a7a72"/>
</g>
<g clip-path="url(#clip_24)">
<path transform="matrix(1,0,0,-1,0,172.42075)" d="M338.4075 89.4672H393.4875V61.0848H338.4075Z" fill="#4dd8b8"/>
</g>
<g clip-path="url(#clip_25)">
<path transform="matrix(1,0,0,-1,0,172.42075)" d="M63.0075 61.0848H118.0875V32.7024H63.0075Z" fill="#4dd8b8"/>
</g>
<g clip-path="url(#clip_26)">
<path transform="matrix(1,0,0,-1,0,172.42075)" d="M118.0875 61.0848H173.1675V32.7024H118.0875Z" fill="#2a7a72"/>
</g>
<g clip-path="url(#clip_27)">
<path transform="matrix(1,0,0,-1,0,172.42075)" d="M173.1675 61.0848H228.2475V32.7024H173.1675Z" fill="#2a7a72"/>
</g>
<g clip-path="url(#clip_28)">
<path transform="matrix(1,0,0,-1,0,172.42075)" d="M228.2475 61.0848H283.3275V32.7024H228.2475Z" fill="#4dd8b8"/>
</g>
<g clip-path="url(#clip_29)">
<path transform="matrix(1,0,0,-1,0,172.42075)" d="M283.3275 61.0848H338.4075V32.7024H283.3275Z" fill="#1a3530"/>
</g>
<g clip-path="url(#clip_30)">
<path transform="matrix(1,0,0,-1,0,172.42075)" d="M338.4075 61.0848H393.4875V32.7024H338.4075Z" fill="#4dd8b8"/>
</g>
<g clip-path="url(#clip_31)">
<path transform="matrix(1,0,0,-1,0,172.42075)" d="M63.0075 32.7024H118.0875V4.32H63.0075Z" fill="#2a7a72"/>
</g>
<g clip-path="url(#clip_32)">
<path transform="matrix(1,0,0,-1,0,172.42075)" d="M118.0875 32.7024H173.1675V4.32H118.0875Z" fill="#4dd8b8"/>
</g>
<g clip-path="url(#clip_33)">
<path transform="matrix(1,0,0,-1,0,172.42075)" d="M173.1675 32.7024H228.2475V4.32H173.1675Z" fill="#2a7a72"/>
</g>
<g clip-path="url(#clip_34)">
<path transform="matrix(1,0,0,-1,0,172.42075)" d="M228.2475 32.7024H283.3275V4.32H228.2475Z" fill="#4dd8b8"/>
</g>
<g clip-path="url(#clip_35)">
<path transform="matrix(1,0,0,-1,0,172.42075)" d="M283.3275 32.7024H338.4075V4.32H283.3275Z" fill="#1a3530"/>
</g>
<g clip-path="url(#clip_36)">
<path transform="matrix(1,0,0,-1,0,172.42075)" d="M338.4075 32.7024H393.4875V4.32H338.4075Z" fill="#2a7a72"/>
</g>
<use data-text="H" xlink:href="#font_1_16" transform="matrix(8,0,0,-8,80.10219,42.55182)" fill="#0d1b19"/>
<use data-text="i" xlink:href="#font_1_29" transform="matrix(8,0,0,-8,86.79819,42.55182)" fill="#0d1b19"/>
<use data-text="g" xlink:href="#font_1_27" transform="matrix(8,0,0,-8,89.54219,42.55182)" fill="#0d1b19"/>
<use data-text="h" xlink:href="#font_1_28" transform="matrix(8,0,0,-8,95.27019,42.55182)" fill="#0d1b19"/>
<use data-text="H" xlink:href="#font_1_16" transform="matrix(8,0,0,-8,135.18219,42.55182)" fill="#0d1b19"/>
<use data-text="i" xlink:href="#font_1_29" transform="matrix(8,0,0,-8,141.87819,42.55182)" fill="#0d1b19"/>
<use data-text="g" xlink:href="#font_1_27" transform="matrix(8,0,0,-8,144.6222,42.55182)" fill="#0d1b19"/>
<use data-text="h" xlink:href="#font_1_28" transform="matrix(8,0,0,-8,150.35019,42.55182)" fill="#0d1b19"/>
<use data-text="M" xlink:href="#font_1_19" transform="matrix(8,0,0,-8,191.145,42.58307)" fill="#d0e8e0"/>
<use data-text="e" xlink:href="#font_1_26" transform="matrix(8,0,0,-8,199.10501,42.58307)" fill="#d0e8e0"/>
<use data-text="d" xlink:href="#font_1_25" transform="matrix(8,0,0,-8,204.529,42.58307)" fill="#d0e8e0"/>
<use data-text="H" xlink:href="#font_1_16" transform="matrix(8,0,0,-8,245.3422,42.55182)" fill="#0d1b19"/>
<use data-text="i" xlink:href="#font_1_29" transform="matrix(8,0,0,-8,252.0382,42.55182)" fill="#0d1b19"/>
<use data-text="g" xlink:href="#font_1_27" transform="matrix(8,0,0,-8,254.7822,42.55182)" fill="#0d1b19"/>
<use data-text="h" xlink:href="#font_1_28" transform="matrix(8,0,0,-8,260.5102,42.55182)" fill="#0d1b19"/>
<use data-text="L" xlink:href="#font_1_18" transform="matrix(8,0,0,-8,301.8753,42.58307)" fill="#d0e8e0"/>
<use data-text="o" xlink:href="#font_1_33" transform="matrix(8,0,0,-8,306.9713,42.58307)" fill="#d0e8e0"/>
<use data-text="w" xlink:href="#font_1_38" transform="matrix(8,0,0,-8,312.46733,42.58307)" fill="#d0e8e0"/>
<use data-text="M" xlink:href="#font_1_19" transform="matrix(8,0,0,-8,356.385,42.58307)" fill="#d0e8e0"/>
<use data-text="e" xlink:href="#font_1_26" transform="matrix(8,0,0,-8,364.345,42.58307)" fill="#d0e8e0"/>
<use data-text="d" xlink:href="#font_1_25" transform="matrix(8,0,0,-8,369.769,42.58307)" fill="#d0e8e0"/>
<use data-text="H" xlink:href="#font_1_16" transform="matrix(8,0,0,-8,80.10219,70.93422)" fill="#0d1b19"/>
<use data-text="i" xlink:href="#font_1_29" transform="matrix(8,0,0,-8,86.79819,70.93422)" fill="#0d1b19"/>
<use data-text="g" xlink:href="#font_1_27" transform="matrix(8,0,0,-8,89.54219,70.93422)" fill="#0d1b19"/>
<use data-text="h" xlink:href="#font_1_28" transform="matrix(8,0,0,-8,95.27019,70.93422)" fill="#0d1b19"/>
<use data-text="M" xlink:href="#font_1_19" transform="matrix(8,0,0,-8,136.065,70.96547)" fill="#d0e8e0"/>
<use data-text="e" xlink:href="#font_1_26" transform="matrix(8,0,0,-8,144.02501,70.96547)" fill="#d0e8e0"/>
<use data-text="d" xlink:href="#font_1_25" transform="matrix(8,0,0,-8,149.449,70.96547)" fill="#d0e8e0"/>
<use data-text="H" xlink:href="#font_1_16" transform="matrix(8,0,0,-8,190.26219,70.93422)" fill="#0d1b19"/>
<use data-text="i" xlink:href="#font_1_29" transform="matrix(8,0,0,-8,196.95819,70.93422)" fill="#0d1b19"/>
<use data-text="g" xlink:href="#font_1_27" transform="matrix(8,0,0,-8,199.7022,70.93422)" fill="#0d1b19"/>
<use data-text="h" xlink:href="#font_1_28" transform="matrix(8,0,0,-8,205.43019,70.93422)" fill="#0d1b19"/>
<use data-text="H" xlink:href="#font_1_16" transform="matrix(8,0,0,-8,245.3422,70.93422)" fill="#0d1b19"/>
<use data-text="i" xlink:href="#font_1_29" transform="matrix(8,0,0,-8,252.0382,70.93422)" fill="#0d1b19"/>
<use data-text="g" xlink:href="#font_1_27" transform="matrix(8,0,0,-8,254.7822,70.93422)" fill="#0d1b19"/>
<use data-text="h" xlink:href="#font_1_28" transform="matrix(8,0,0,-8,260.5102,70.93422)" fill="#0d1b19"/>
<use data-text="H" xlink:href="#font_1_16" transform="matrix(8,0,0,-8,300.42219,70.93422)" fill="#0d1b19"/>
<use data-text="i" xlink:href="#font_1_29" transform="matrix(8,0,0,-8,307.1182,70.93422)" fill="#0d1b19"/>
<use data-text="g" xlink:href="#font_1_27" transform="matrix(8,0,0,-8,309.86219,70.93422)" fill="#0d1b19"/>
<use data-text="h" xlink:href="#font_1_28" transform="matrix(8,0,0,-8,315.59019,70.93422)" fill="#0d1b19"/>
<use data-text="H" xlink:href="#font_1_16" transform="matrix(8,0,0,-8,355.5022,70.93422)" fill="#0d1b19"/>
<use data-text="i" xlink:href="#font_1_29" transform="matrix(8,0,0,-8,362.1982,70.93422)" fill="#0d1b19"/>
<use data-text="g" xlink:href="#font_1_27" transform="matrix(8,0,0,-8,364.9422,70.93422)" fill="#0d1b19"/>
<use data-text="h" xlink:href="#font_1_28" transform="matrix(8,0,0,-8,370.6702,70.93422)" fill="#0d1b19"/>
<use data-text="H" xlink:href="#font_1_16" transform="matrix(8,0,0,-8,80.10219,99.31662)" fill="#0d1b19"/>
<use data-text="i" xlink:href="#font_1_29" transform="matrix(8,0,0,-8,86.79819,99.31662)" fill="#0d1b19"/>
<use data-text="g" xlink:href="#font_1_27" transform="matrix(8,0,0,-8,89.54219,99.31662)" fill="#0d1b19"/>
<use data-text="h" xlink:href="#font_1_28" transform="matrix(8,0,0,-8,95.27019,99.31662)" fill="#0d1b19"/>
<use data-text="H" xlink:href="#font_1_16" transform="matrix(8,0,0,-8,135.18219,99.31662)" fill="#0d1b19"/>
<use data-text="i" xlink:href="#font_1_29" transform="matrix(8,0,0,-8,141.87819,99.31662)" fill="#0d1b19"/>
<use data-text="g" xlink:href="#font_1_27" transform="matrix(8,0,0,-8,144.6222,99.31662)" fill="#0d1b19"/>
<use data-text="h" xlink:href="#font_1_28" transform="matrix(8,0,0,-8,150.35019,99.31662)" fill="#0d1b19"/>
<use data-text="H" xlink:href="#font_1_16" transform="matrix(8,0,0,-8,190.26219,99.31662)" fill="#0d1b19"/>
<use data-text="i" xlink:href="#font_1_29" transform="matrix(8,0,0,-8,196.95819,99.31662)" fill="#0d1b19"/>
<use data-text="g" xlink:href="#font_1_27" transform="matrix(8,0,0,-8,199.7022,99.31662)" fill="#0d1b19"/>
<use data-text="h" xlink:href="#font_1_28" transform="matrix(8,0,0,-8,205.43019,99.31662)" fill="#0d1b19"/>
<use data-text="H" xlink:href="#font_1_16" transform="matrix(8,0,0,-8,245.3422,99.31662)" fill="#0d1b19"/>
<use data-text="i" xlink:href="#font_1_29" transform="matrix(8,0,0,-8,252.0382,99.31662)" fill="#0d1b19"/>
<use data-text="g" xlink:href="#font_1_27" transform="matrix(8,0,0,-8,254.7822,99.31662)" fill="#0d1b19"/>
<use data-text="h" xlink:href="#font_1_28" transform="matrix(8,0,0,-8,260.5102,99.31662)" fill="#0d1b19"/>
<use data-text="M" xlink:href="#font_1_19" transform="matrix(8,0,0,-8,301.305,99.34787)" fill="#d0e8e0"/>
<use data-text="e" xlink:href="#font_1_26" transform="matrix(8,0,0,-8,309.26499,99.34787)" fill="#d0e8e0"/>
<use data-text="d" xlink:href="#font_1_25" transform="matrix(8,0,0,-8,314.689,99.34787)" fill="#d0e8e0"/>
<use data-text="H" xlink:href="#font_1_16" transform="matrix(8,0,0,-8,355.5022,99.31662)" fill="#0d1b19"/>
<use data-text="i" xlink:href="#font_1_29" transform="matrix(8,0,0,-8,362.1982,99.31662)" fill="#0d1b19"/>
<use data-text="g" xlink:href="#font_1_27" transform="matrix(8,0,0,-8,364.9422,99.31662)" fill="#0d1b19"/>
<use data-text="h" xlink:href="#font_1_28" transform="matrix(8,0,0,-8,370.6702,99.31662)" fill="#0d1b19"/>
<use data-text="H" xlink:href="#font_1_16" transform="matrix(8,0,0,-8,80.10219,127.69902)" fill="#0d1b19"/>
<use data-text="i" xlink:href="#font_1_29" transform="matrix(8,0,0,-8,86.79819,127.69902)" fill="#0d1b19"/>
<use data-text="g" xlink:href="#font_1_27" transform="matrix(8,0,0,-8,89.54219,127.69902)" fill="#0d1b19"/>
<use data-text="h" xlink:href="#font_1_28" transform="matrix(8,0,0,-8,95.27019,127.69902)" fill="#0d1b19"/>
<use data-text="M" xlink:href="#font_1_19" transform="matrix(8,0,0,-8,136.065,127.73027)" fill="#d0e8e0"/>
<use data-text="e" xlink:href="#font_1_26" transform="matrix(8,0,0,-8,144.02501,127.73027)" fill="#d0e8e0"/>
<use data-text="d" xlink:href="#font_1_25" transform="matrix(8,0,0,-8,149.449,127.73027)" fill="#d0e8e0"/>
<use data-text="M" xlink:href="#font_1_19" transform="matrix(8,0,0,-8,191.145,127.73027)" fill="#d0e8e0"/>
<use data-text="e" xlink:href="#font_1_26" transform="matrix(8,0,0,-8,199.10501,127.73027)" fill="#d0e8e0"/>
<use data-text="d" xlink:href="#font_1_25" transform="matrix(8,0,0,-8,204.529,127.73027)" fill="#d0e8e0"/>
<use data-text="H" xlink:href="#font_1_16" transform="matrix(8,0,0,-8,245.3422,127.69902)" fill="#0d1b19"/>
<use data-text="i" xlink:href="#font_1_29" transform="matrix(8,0,0,-8,252.0382,127.69902)" fill="#0d1b19"/>
<use data-text="g" xlink:href="#font_1_27" transform="matrix(8,0,0,-8,254.7822,127.69902)" fill="#0d1b19"/>
<use data-text="h" xlink:href="#font_1_28" transform="matrix(8,0,0,-8,260.5102,127.69902)" fill="#0d1b19"/>
<use data-text="L" xlink:href="#font_1_18" transform="matrix(8,0,0,-8,301.8753,127.73027)" fill="#d0e8e0"/>
<use data-text="o" xlink:href="#font_1_33" transform="matrix(8,0,0,-8,306.9713,127.73027)" fill="#d0e8e0"/>
<use data-text="w" xlink:href="#font_1_38" transform="matrix(8,0,0,-8,312.46733,127.73027)" fill="#d0e8e0"/>
<use data-text="H" xlink:href="#font_1_16" transform="matrix(8,0,0,-8,355.5022,127.69902)" fill="#0d1b19"/>
<use data-text="i" xlink:href="#font_1_29" transform="matrix(8,0,0,-8,362.1982,127.69902)" fill="#0d1b19"/>
<use data-text="g" xlink:href="#font_1_27" transform="matrix(8,0,0,-8,364.9422,127.69902)" fill="#0d1b19"/>
<use data-text="h" xlink:href="#font_1_28" transform="matrix(8,0,0,-8,370.6702,127.69902)" fill="#0d1b19"/>
<use data-text="M" xlink:href="#font_1_19" transform="matrix(8,0,0,-8,80.985,156.11267)" fill="#d0e8e0"/>
<use data-text="e" xlink:href="#font_1_26" transform="matrix(8,0,0,-8,88.945,156.11267)" fill="#d0e8e0"/>
<use data-text="d" xlink:href="#font_1_25" transform="matrix(8,0,0,-8,94.369,156.11267)" fill="#d0e8e0"/>
<use data-text="H" xlink:href="#font_1_16" transform="matrix(8,0,0,-8,135.18219,156.08142)" fill="#0d1b19"/>
<use data-text="i" xlink:href="#font_1_29" transform="matrix(8,0,0,-8,141.87819,156.08142)" fill="#0d1b19"/>
<use data-text="g" xlink:href="#font_1_27" transform="matrix(8,0,0,-8,144.6222,156.08142)" fill="#0d1b19"/>
<use data-text="h" xlink:href="#font_1_28" transform="matrix(8,0,0,-8,150.35019,156.08142)" fill="#0d1b19"/>
<use data-text="M" xlink:href="#font_1_19" transform="matrix(8,0,0,-8,191.145,156.11267)" fill="#d0e8e0"/>
<use data-text="e" xlink:href="#font_1_26" transform="matrix(8,0,0,-8,199.10501,156.11267)" fill="#d0e8e0"/>
<use data-text="d" xlink:href="#font_1_25" transform="matrix(8,0,0,-8,204.529,156.11267)" fill="#d0e8e0"/>
<use data-text="H" xlink:href="#font_1_16" transform="matrix(8,0,0,-8,245.3422,156.08142)" fill="#0d1b19"/>
<use data-text="i" xlink:href="#font_1_29" transform="matrix(8,0,0,-8,252.0382,156.08142)" fill="#0d1b19"/>
<use data-text="g" xlink:href="#font_1_27" transform="matrix(8,0,0,-8,254.7822,156.08142)" fill="#0d1b19"/>
<use data-text="h" xlink:href="#font_1_28" transform="matrix(8,0,0,-8,260.5102,156.08142)" fill="#0d1b19"/>
<use data-text="L" xlink:href="#font_1_18" transform="matrix(8,0,0,-8,301.8753,156.11267)" fill="#d0e8e0"/>
<use data-text="o" xlink:href="#font_1_33" transform="matrix(8,0,0,-8,306.9713,156.11267)" fill="#d0e8e0"/>
<use data-text="w" xlink:href="#font_1_38" transform="matrix(8,0,0,-8,312.46733,156.11267)" fill="#d0e8e0"/>
<use data-text="M" xlink:href="#font_1_19" transform="matrix(8,0,0,-8,356.385,156.11267)" fill="#d0e8e0"/>
<use data-text="e" xlink:href="#font_1_26" transform="matrix(8,0,0,-8,364.345,156.11267)" fill="#d0e8e0"/>
<use data-text="d" xlink:href="#font_1_25" transform="matrix(8,0,0,-8,369.769,156.11267)" fill="#d0e8e0"/>
<g clip-path="url(#clip_37)">
<path transform="matrix(1,0,0,-1,0,172.42075)" stroke-width="1.8" stroke-linecap="square" stroke-linejoin="round" fill="none" stroke="#0d1b19" d="M63.0075 4.32V146.232"/>
</g>
<g clip-path="url(#clip_38)">
<path transform="matrix(1,0,0,-1,0,172.42075)" stroke-width="1.8" stroke-linecap="square" stroke-linejoin="round" fill="none" stroke="#0d1b19" d="M118.0875 4.32V146.232"/>
</g>
<g clip-path="url(#clip_39)">
<path transform="matrix(1,0,0,-1,0,172.42075)" stroke-width="1.8" stroke-linecap="square" stroke-linejoin="round" fill="none" stroke="#0d1b19" d="M173.1675 4.32V146.232"/>
</g>
<g clip-path="url(#clip_40)">
<path transform="matrix(1,0,0,-1,0,172.42075)" stroke-width="1.8" stroke-linecap="square" stroke-linejoin="round" fill="none" stroke="#0d1b19" d="M228.2475 4.32V146.232"/>
</g>
<g clip-path="url(#clip_41)">
<path transform="matrix(1,0,0,-1,0,172.42075)" stroke-width="1.8" stroke-linecap="square" stroke-linejoin="round" fill="none" stroke="#0d1b19" d="M283.3275 4.32V146.232"/>
</g>
<g clip-path="url(#clip_42)">
<path transform="matrix(1,0,0,-1,0,172.42075)" stroke-width="1.8" stroke-linecap="square" stroke-linejoin="round" fill="none" stroke="#0d1b19" d="M338.4075 4.32V146.232"/>
</g>
<g clip-path="url(#clip_43)">
<path transform="matrix(1,0,0,-1,0,172.42075)" stroke-width="1.8" stroke-linecap="square" stroke-linejoin="round" fill="none" stroke="#0d1b19" d="M393.4875 4.32V146.232"/>
</g>
<g clip-path="url(#clip_44)">
<path transform="matrix(1,0,0,-1,0,172.42075)" stroke-width="1.8" stroke-linecap="square" stroke-linejoin="round" fill="none" stroke="#0d1b19" d="M63.0075 146.232H393.4875"/>
</g>
<g clip-path="url(#clip_45)">
<path transform="matrix(1,0,0,-1,0,172.42075)" stroke-width="1.8" stroke-linecap="square" stroke-linejoin="round" fill="none" stroke="#0d1b19" d="M63.0075 117.8496H393.4875"/>
</g>
<g clip-path="url(#clip_46)">
<path transform="matrix(1,0,0,-1,0,172.42075)" stroke-width="1.8" stroke-linecap="square" stroke-linejoin="round" fill="none" stroke="#0d1b19" d="M63.0075 89.4672H393.4875"/>
</g>
<g clip-path="url(#clip_47)">
<path transform="matrix(1,0,0,-1,0,172.42075)" stroke-width="1.8" stroke-linecap="square" stroke-linejoin="round" fill="none" stroke="#0d1b19" d="M63.0075 61.0848H393.4875"/>
</g>
<g clip-path="url(#clip_48)">
<path transform="matrix(1,0,0,-1,0,172.42075)" stroke-width="1.8" stroke-linecap="square" stroke-linejoin="round" fill="none" stroke="#0d1b19" d="M63.0075 32.7024H393.4875"/>
</g>
<g clip-path="url(#clip_49)">
<path transform="matrix(1,0,0,-1,0,172.42075)" stroke-width="1.8" stroke-linecap="square" stroke-linejoin="round" fill="none" stroke="#0d1b19" d="M63.0075 4.32H393.4875"/>
</g>
</svg>
