<svg xmlns="http://www.w3.org/2000/svg" xmlns:xlink="http://www.w3.org/1999/xlink" xmlns:inkscape="http://www.inkscape.org/namespaces/inkscape" version="1.1" width="377.92" height="171.05675" viewBox="0 0 377.92 171.05675">
<defs>
<clipPath id="clip_1">
<path transform="matrix(1,0,0,-1,0,171.05675)" d="M78.95812 32.34875H369.11814V168.17676H78.95812Z"/>
</clipPath>
<path id="font_2_10" d="M.45996095 .3647461C.45996095 .45589195 .45141603 .5201009 .43432618 .55737307 .41723634 .5946452 .38850913 .61328127 .34814454 .61328127 .30777995 .61328127 .27897135 .5946452 .26171876 .55737307 .24446614 .5201009 .23583985 .45589195 .23583985 .3647461 .23583985 .2726237 .24446614 .2076823 .26171876 .16992188 .27897135 .13216146 .30777995 .11328125 .34814454 .11328125 .3881836 .11328125 .41682945 .13216146 .43408204 .16992188 .45133464 .2076823 .45996095 .2726237 .45996095 .3647461M.6479492 .3635254C.6479492 .24267578 .62190756 .1494344 .5698242 .08380127 .5177409 .01816813 .44384767-.0146484379 .34814454-.0146484379 .25211589-.0146484379 .17805989 .01816813 .12597656 .08380127 .07389323 .1494344 .047851564 .24267578 .047851564 .3635254 .047851564 .48470054 .07389323 .5781047 .12597656 .6437378 .17805989 .7093709 .25211589 .7421875 .34814454 .7421875 .44384767 .7421875 .5177409 .7093709 .5698242 .6437378 .62190756 .5781047 .6479492 .48470054 .6479492 .3635254Z"/>
<clipPath id="clip_3">
<path transform="matrix(1,0,0,-1,0,171.05675)" d="M78.95812 32.34875H369.11814V168.17676H78.95812Z"/>
</clipPath>
<path id="font_2_11" d="M.1171875 .12988281H.28320313V.6015625L.11279297 .56640627V.69433596L.28222657 .7294922H.4609375V.12988281H.6269531V0H.1171875V.12988281Z"/>
<clipPath id="clip_4">
<path transform="matrix(1,0,0,-1,0,171.05675)" d="M78.95812 32.34875H369.11814V168.17676H78.95812Z"/>
</clipPath>
<path id="font_2_12" d="M.28808595 .13867188H.6088867V0H.07910156V.13867188L.34521485 .37324525C.36897788 .39466859 .386556 .41560365 .39794923 .43605042 .40934245 .4564972 .41503907 .47775779 .41503907 .49983216 .41503907 .5339203 .40356446 .5613505 .38061524 .5821228 .35766603 .6028951 .32714845 .61328127 .2890625 .61328127 .25976563 .61328127 .22770183 .60705569 .1928711 .5946045 .15804036 .5821533 .12076823 .56363937 .08105469 .5390625V.69921877C.1233724 .7132161 .16520183 .72387698 .20654297 .7312012 .24788411 .7385254 .28841148 .7421875 .328125 .7421875 .4153646 .7421875 .4831543 .72299197 .53149417 .68460085 .579834 .6462199 .6040039 .5927124 .6040039 .52407839 .6040039 .48438517 .59375 .44737754 .5732422 .41305543 .5527344 .3787435 .50960287 .3327993 .44384767 .27522279L.28808595 .13867188Z"/>
<clipPath id="clip_5">
<path transform="matrix(1,0,0,-1,0,171.05675)" d="M78.95812 32.34875H369.11814V168.17676H78.95812Z"/>
</clipPath>
<path id="font_2_13" d="M.4658203 .39257813C.51497396 .3798828 .55232748 .35782878 .57788088 .32641603 .60343429 .29500328 .61621096 .25504557 .61621096 .20654297 .61621096 .13427735 .5885417 .0793457 .5332031 .041748048 .4778646 .0041503908 .3971354-.0146484379 .29101563-.0146484379 .25358073-.0146484379 .21606446-.01163737 .1784668-.0056152346 .14086914 .00040690104 .10367838 .0094401049 .06689453 .021484375V.16699219C.10205078 .1492513 .13696289 .13586426 .17163086 .12683106 .20629883 .11779785 .24039714 .11328125 .27392579 .11328125 .32373048 .11328125 .3618978 .121907558 .38842774 .13916016 .41495768 .15641277 .42822267 .18115235 .42822267 .2133789 .42822267 .24658203 .41463218 .27172853 .38745118 .28881837 .36027018 .3059082 .32014976 .31445313 .26708985 .31445313H.19189453V.43554688H.2709961C.31819663 .43554688 .35335288 .44295249 .37646485 .45776368 .3995768 .47257487 .4111328 .4951172 .4111328 .5253906 .4111328 .55338546 .39990235 .57503256 .3774414 .59033206 .35498048 .60563156 .3232422 .61328127 .28222657 .61328127 .25195313 .61328127 .22135417 .6098226 .19042969 .6029053 .1595052 .595988 .12874349 .5857747 .09814453 .5722656V.70996096C.1352539 .7207031 .17203777 .72875979 .2084961 .73413088 .24495442 .73950198 .28076173 .7421875 .31591798 .7421875 .41064454 .7421875 .4815267 .72661849 .52856448 .69548037 .57560226 .6643524 .5991211 .61749777 .5991211 .5549164 .5991211 .5122121 .5878906 .47724916 .5654297 .45002748 .54296877 .42281596 .5097656 .40366618 .4658203 .39257813Z"/>
<clipPath id="clip_6">
<path transform="matrix(1,0,0,-1,0,171.05675)" d="M78.95812 32.34875H369.11814V168.17676H78.95812Z"/>
</clipPath>
<path id="font_2_14" d="M.36816407 .57470706 .16210938 .26953126H.36816407V.57470706M.33691407 .7294922H.54589846V.26953126H.64990237V.1328125H.54589846V0H.36816407V.1328125H.044921876V.29408265L.33691407 .7294922Z"/>
<clipPath id="clip_7">
<path transform="matrix(1,0,0,-1,0,171.05675)" d="M78.95812 32.34875H369.11814V168.17676H78.95812Z"/>
</clipPath>
<path id="font_2_15" d="M.10595703 .7294922H.5732422V.5908203H.25585938V.47798158C.27018229 .48189799 .28458659 .48491923 .29907228 .4870453 .31355796 .48917137 .32861329 .49023438 .34423829 .49023438 .43310548 .49023438 .5022786 .46799723 .5517578 .42352296 .601237 .37904869 .62597659 .31705729 .62597659 .23754883 .62597659 .1586914 .59903976 .096944179 .545166 .05230713 .49129234 .0076700847 .4165039-.0146484379 .32080079-.0146484379 .27945964-.0146484379 .23852539-.010701497 .19799805-.0028076173 .1574707 .005086263 .1171875 .017089844 .07714844 .033203126V.18164063C.11686198 .15885417 .15454102 .14176433 .19018555 .1303711 .22583008 .11897787 .2594401 .11328125 .29101563 .11328125 .33658854 .11328125 .3724772 .124430339 .39868165 .14672852 .42488609 .16902669 .43798829 .19921875 .43798829 .23730469 .43798829 .27571617 .42488609 .3059896 .39868165 .328125 .3724772 .3502604 .33658854 .36132813 .29101563 .36132813 .2639974 .36132813 .2351888 .35782878 .20458985 .35083009 .17399089 .3438314 .14111328 .3330078 .10595703 .31835938V.7294922Z"/>
<path id="font_2_20" d="M.5991211 .7059326V.55078127C.55908206 .56884768 .52001956 .5824788 .4819336 .5916748 .44384767 .6008708 .4078776 .60546877 .37402345 .60546877 .32910157 .60546877 .29589845 .59927877 .27441407 .5868988 .2529297 .574529 .2421875 .5553131 .2421875 .5292511 .2421875 .50970968 .24943035 .4944814 .26391603 .48356629 .2784017 .47265116 .3046875 .46328736 .34277345 .45547486L.42285157 .4394226C.50390627 .42314659 .56152346 .39840699 .5957031 .36520387 .6298828 .3320109 .64697268 .28481547 .64697268 .22361756 .64697268 .14321392 .62312826 .08339945 .57543948 .044174196 .5277507 .0049591066 .45491538-.0146484379 .3569336-.0146484379 .31070964-.0146484379 .2643229-.010238647 .21777344-.0014190674 .17122396 .0074005129 .12467448 .020467123 .078125 .03778076V.19726563C.12467448 .17236328 .16967774 .15360515 .21313477 .14099121 .2565918 .12837728 .2985026 .12207031 .3388672 .12207031 .3798828 .12207031 .41129557 .12891133 .43310548 .14259339 .45491538 .15627544 .4658203 .17582195 .4658203 .20123291 .4658203 .22402954 .4584147 .24161785 .44360353 .2539978 .42879234 .26637779 .3992513 .27745567 .35498048 .28723146L.28222657 .30326844C.20930989 .31889344 .15600586 .34379069 .12231445 .3779602 .08862305 .4121399 .071777347 .45820109 .071777347 .5161438 .071777347 .5887248 .095214847 .64454147 .14208985 .68359377 .18896485 .72265627 .25634767 .7421875 .34423829 .7421875 .38427735 .7421875 .42545573 .73916628 .46777345 .7331238 .5100911 .7270813 .5538737 .7180176 .5991211 .7059326Z"/>
<path id="font_2_29" d="M.63378909 .33338929V0H.4580078V.054260255 .25419618C.4580078 .3020986 .45694987 .3350118 .45483399 .3529358 .4527181 .37085978 .449056 .38405863 .44384767 .39253236 .43701173 .40394593 .42773438 .41282655 .41601563 .4191742 .40429688 .425532 .39095054 .42871095 .37597657 .42871095 .33951823 .42871095 .3108724 .4146169 .29003907 .38642884 .26920573 .35824076 .25878907 .31921388 .25878907 .26934815V0H.083984378V.7597656H.25878907V.46679688C.28515626 .4988607 .31315104 .52250167 .34277345 .5377197 .37239585 .5529378 .4051107 .5605469 .44091798 .5605469 .50406906 .5605469 .55200198 .5411682 .5847168 .5024109 .61743167 .46365357 .63378909 .40731303 .63378909 .33338929Z"/>
<path id="font_2_22" d="M.32910157 .24511719C.29264323 .24511719 .2652181 .23895264 .24682617 .22662354 .22843425 .21429444 .21923828 .1961263 .21923828 .17211914 .21923828 .15006511 .22664388 .13279216 .24145508 .12030029 .25626628 .10780843 .27685548 .1015625 .30322267 .1015625 .33610026 .1015625 .36376954 .11332194 .38623048 .13684082 .4086914 .1603597 .41992188 .189799 .41992188 .22515869V.24511719H.32910157M.5961914 .31134034V0H.41992188V.08105469C.39648438 .04767863 .3701172 .023381552 .3408203 .008163452 .31152345-.007044474 .2758789-.0146484379 .23388672-.0146484379 .1772461-.0146484379 .13126628 .0018717448 .095947269 .03491211 .060628255 .06795248 .04296875 .110839847 .04296875 .16357422 .04296875 .22770183 .06502279 .2747396 .10913086 .3046875 .15323894 .3346354 .22249349 .34960938 .31689454 .34960938H.41992188V.3635559C.41992188 .39146934 .40901695 .411911 .38720704 .42488099 .36539714 .43785096 .33138023 .44433595 .28515626 .44433595 .24772136 .44433595 .21289063 .44059245 .18066406 .43310548 .1484375 .4256185 .118489589 .41438804 .09082031 .39941407V.5332031C.1282552 .54215499 .16585286 .5489502 .20361328 .55358889 .2413737 .55822756 .27913413 .5605469 .31689454 .5605469 .41552735 .5605469 .48673503 .54100546 .5305176 .5019226 .5743001 .46283976 .5961914 .39931236 .5961914 .31134034Z"/>
<path id="font_2_36" d="M.49023438 .39746095C.4749349 .40478517 .4597168 .41019694 .44458009 .4136963 .42944337 .41719566 .41422526 .4189453 .39892579 .4189453 .3540039 .4189453 .31941734 .4045156 .29516603 .37565614 .2709147 .34679667 .25878907 .3054606 .25878907 .25164796V0H.083984378V.546875H.25878907V.45703126C.28125 .49301148 .30704753 .5192566 .33618165 .5357666 .36531578 .5522868 .40022788 .5605469 .44091798 .5605469 .44677735 .5605469 .453125 .56029257 .45996095 .55978396 .46679688 .55928549 .47672526 .55819198 .4897461 .5565033L.49023438 .39746095Z"/>
<path id="font_2_26" d="M.6298828 .2756195V.22558594H.2211914C.22542317 .1842448 .24023438 .15323894 .265625 .13256836 .29101563 .11189779 .3264974 .1015625 .3720703 .1015625 .40885417 .1015625 .4465332 .107055667 .48510743 .11804199 .52368167 .12902832 .5633138 .14567058 .6040039 .16796875V.033203126C.5626628 .017415366 .5213216 .005493164 .47998048-.0025634766 .4386393-.010620117 .3972982-.0146484379 .35595704-.0146484379 .2569987-.0146484379 .1800944 .010538737 .12524414 .060913087 .07039388 .11129761 .04296875 .18197632 .04296875 .27294923 .04296875 .36229453 .0699056 .43256126 .1237793 .4837494 .177653 .5349477 .25179038 .5605469 .3461914 .5605469 .4321289 .5605469 .5008952 .5346883 .55249026 .4829712 .60408529 .43125407 .6298828 .36213685 .6298828 .2756195M.4501953 .33398438C.4501953 .36704508 .44051109 .39370219 .42114259 .4139557 .40177409 .4342092 .37646485 .44433595 .34521485 .44433595 .3113607 .44433595 .28385417 .43485514 .2626953 .41589356 .24153646 .39693199 .22835286 .3696289 .22314453 .33398438H.4501953Z"/>
<path id="font_2_3" d=""/>
<path id="font_2_34" d="M.34423829 .43554688C.3055013 .43554688 .2759603 .42159019 .25561524 .39367677 .23527019 .36576335 .22509766 .32552085 .22509766 .27294923 .22509766 .22037761 .23527019 .18013509 .25561524 .15222168 .2759603 .124308269 .3055013 .11035156 .34423829 .11035156 .38232423 .11035156 .41145835 .124308269 .43164063 .15222168 .4518229 .18013509 .46191407 .22037761 .46191407 .27294923 .46191407 .32552085 .4518229 .36576335 .43164063 .39367677 .41145835 .42159019 .38232423 .43554688 .34423829 .43554688M.34423829 .5605469C.4383138 .5605469 .5118001 .5351105 .56469729 .48423768 .6175944 .43337504 .64404299 .36294557 .64404299 .27294923 .64404299 .18295288 .6175944 .11251831 .56469729 .061645509 .5118001 .010782878 .4383138-.0146484379 .34423829-.0146484379 .24983724-.0146484379 .17602539 .010782878 .122802738 .061645509 .06958008 .11251831 .04296875 .18295288 .04296875 .27294923 .04296875 .36294557 .06958008 .43337504 .122802738 .48423768 .17602539 .5351105 .24983724 .5605469 .34423829 .5605469Z"/>
<path id="font_2_27" d="M.44384767 .7597656V.64453127H.34716798C.32242839 .64453127 .30517579 .6400757 .29541017 .63116458 .28564454 .6222636 .28076173 .60680136 .28076173 .58477786V.546875H.43017579V.421875H.28076173V0H.10595703V.421875H.019042969V.546875H.10595703V.58477786C.10595703 .6444092 .122558597 .6884816 .15576172 .71699526 .18896485 .74550887 .24039714 .7597656 .3100586 .7597656H.44384767Z"/>
<path id="font_2_32" d="M.5908203 .45619203C.61295577 .49015809 .6392415 .51604208 .66967776 .533844 .70011398 .55164596 .7335612 .5605469 .77001956 .5605469 .83284506 .5605469 .8806966 .5411682 .9135742 .5024109 .94645187 .46365357 .9628906 .40731303 .9628906 .33338929V0H.7871094V.28547669C.7874349 .28970848 .787679 .29410807 .7878418 .29867555 .7880046 .303243 .78808596 .30976359 .78808596 .3182373 .78808596 .35701499 .78238937 .38512168 .7709961 .40255738 .75960287 .41999308 .74121096 .42871095 .7158203 .42871095 .6826172 .42871095 .6569824 .4150238 .638916 .38764955 .6208496 .36027528 .6114909 .3206787 .61083987 .26885987V0H.4350586V.28547669C.4350586 .34609477 .42985026 .38512168 .4194336 .40255738 .40901695 .41999308 .39046226 .42871095 .36376954 .42871095 .33024089 .42871095 .30436198 .4149424 .2861328 .3874054 .26790367 .35986839 .25878907 .32051597 .25878907 .26934815V0H.08300781V.546875H.25878907V.46679688C.28027345 .49788413 .30493165 .52128097 .33276368 .5369873 .3605957 .55269369 .39127604 .5605469 .4248047 .5605469 .4625651 .5605469 .495931 .5514018 .52490237 .5331116 .5538737 .51482138 .5758464 .48918153 .5908203 .45619203Z"/>
<path id="font_2_39" d="M.078125 .21289063V.546875H.25390626V.4921875C.25390626 .4625651 .2537435 .42537437 .25341798 .38061524 .25309245 .3358561 .2529297 .3059896 .2529297 .29101563 .2529297 .24707031 .254069 .2154134 .25634767 .19604492 .2586263 .17667644 .26253257 .16259766 .2680664 .1538086 .27522788 .14241536 .28458659 .1336263 .29614259 .1274414 .30769859 .12125651 .32096354 .11816406 .3359375 .11816406 .37239585 .11816406 .40104167 .13216146 .421875 .16015625 .44270835 .18815105 .453125 .22705078 .453125 .27685548V.546875H.6279297V0H.453125V.07910156C.4267578 .04703776 .3988444 .02339681 .36938478 .008178711 .33992515-.007039388 .30745445-.0146484379 .27197267-.0146484379 .20882161-.0146484379 .1607259 .004760742 .12768555 .0435791 .09464518 .08239746 .078125 .13883464 .078125 .21289063Z"/>
<path id="font_2_31" d="M.083984378 .7597656H.25878907V0H.083984378V.7597656Z"/>
<path id="font_2_38" d="M.27490235 .70214846V.546875H.45507813V.421875H.27490235V.1899414C.27490235 .16455078 .2799479 .14737956 .29003907 .13842774 .30013023 .1294759 .32014976 .125 .35009767 .125H.4399414V0H.29003907C.22102864 0 .17211914 .014404297 .14331055 .04321289 .11450195 .072021488 .100097659 .12093099 .100097659 .1899414V.421875H.013183594V.546875H.100097659V.70214846H.27490235Z"/>
<path id="font_2_30" d="M.083984378 .546875H.25878907V0H.083984378V.546875M.083984378 .7597656H.25878907V.6171875H.083984378V.7597656Z"/>
<path id="font_2_8" d="M.05419922 .359375H.36083985V.21679688H.05419922V.359375Z"/>
<path id="font_2_28" d="M.4560547 .09277344C.43196617 .060872396 .4054362 .037434896 .37646485 .022460938 .3474935 .007486979 .31396485 0 .2758789 0 .20914714 0 .15397136 .026306153 .11035156 .07891846 .06673177 .13154094 .044921876 .19857788 .044921876 .2800293 .044921876 .36180625 .06673177 .4288381 .11035156 .48112489 .15397136 .5334218 .20914714 .5595703 .2758789 .5595703 .31396485 .5595703 .3474935 .55204269 .37646485 .5369873 .4054362 .52194216 .43196617 .49821983 .4560547 .4658203V.546875H.63183596V.05517578C.63183596-.032714845 .60408529-.099853519 .548584-.14624024 .49308268-.19262696 .41259767-.21582031 .3071289-.21582031 .27294923-.21582031 .23990886-.21317546 .20800781-.20788574 .17610677-.20259603 .14404297-.1944987 .111816409-.18359375V-.046875C.14241536-.06461588 .17236328-.07784017 .20166016-.08654785 .23095703-.09525553 .26041667-.099609378 .29003907-.099609378 .34733073-.099609378 .3893229-.08711243 .41601563-.06211853 .44270835-.037134809 .4560547 .0019632977 .4560547 .05517578V.09277344M.3408203 .43359376C.3046875 .43359376 .27652995 .42022706 .25634767 .39349366 .23616536 .36676026 .22607422 .3289388 .22607422 .2800293 .22607422 .2298177 .23583985 .19175212 .2553711 .16583252 .27490235 .13991292 .3033854 .12695313 .3408203 .12695313 .37727867 .12695313 .40559898 .14031983 .42578126 .16705323 .44596354 .19378662 .4560547 .23144531 .4560547 .2800293 .4560547 .3289388 .44596354 .36676026 .42578126 .39349366 .40559898 .42022706 .37727867 .43359376 .3408203 .43359376Z"/>
<path id="font_2_33" d="M.63378909 .33338929V0H.4580078V.054260255 .25517274C.4580078 .3024241 .45694987 .3350118 .45483399 .3529358 .4527181 .37085978 .449056 .38405863 .44384767 .39253236 .43701173 .40394593 .42773438 .41282655 .41601563 .4191742 .40429688 .425532 .39095054 .42871095 .37597657 .42871095 .33951823 .42871095 .3108724 .4146169 .29003907 .38642884 .26920573 .35824076 .25878907 .31921388 .25878907 .26934815V0H.083984378V.546875H.25878907V.46679688C.28515626 .4988607 .31315104 .52250167 .34277345 .5377197 .37239585 .5529378 .4051107 .5605469 .44091798 .5605469 .50406906 .5605469 .55200198 .5411682 .5847168 .5024109 .61743167 .46365357 .63378909 .40731303 .63378909 .33338929Z"/>
<path id="font_2_25" d="M.4560547 .46679688V.7597656H.63183596V0H.4560547V.07910156C.43196617 .04670207 .4054362 .02297465 .37646485 .0079193119 .3474935-.0071258547 .31396485-.0146484379 .2758789-.0146484379 .2084961-.0146484379 .15315755 .012171428 .10986328 .06581116 .06656901 .11945089 .044921876 .1884969 .044921876 .27294923 .044921876 .35740153 .06656901 .42644755 .10986328 .48008729 .15315755 .533727 .2084961 .5605469 .2758789 .5605469 .3136393 .5605469 .34708659 .5529378 .3762207 .5377197 .40535484 .52250167 .43196617 .4988607 .4560547 .46679688M.3408203 .11230469C.37825523 .11230469 .40681968 .12601726 .42651368 .15344239 .44620768 .18086751 .4560547 .22070313 .4560547 .27294923 .4560547 .3251953 .44620768 .3650309 .42651368 .39245606 .40681968 .4198812 .37825523 .43359376 .3408203 .43359376 .30371095 .43359376 .27530924 .4198812 .25561524 .39245606 .23592122 .3650309 .22607422 .3251953 .22607422 .27294923 .22607422 .22070313 .23592122 .18086751 .25561524 .15344239 .27530924 .12601726 .30371095 .11230469 .3408203 .11230469Z"/>
<path id="font_2_23" d="M.375 .11230469C.4124349 .11230469 .44099937 .12601726 .46069337 .15344239 .48038737 .18086751 .49023438 .22070313 .49023438 .27294923 .49023438 .3251953 .48038737 .3650309 .46069337 .39245606 .44099937 .4198812 .4124349 .43359376 .375 .43359376 .3375651 .43359376 .3088379 .4197998 .28881837 .3922119 .26879884 .36462403 .25878907 .32486979 .25878907 .27294923 .25878907 .22102864 .26879884 .18127442 .28881837 .15368653 .3088379 .12609864 .3375651 .11230469 .375 .11230469M.25878907 .46679688C.2828776 .4988607 .3095703 .52250167 .3388672 .5377197 .36816407 .5529378 .40185548 .5605469 .4399414 .5605469 .5073242 .5605469 .5626628 .533727 .60595706 .48008729 .6492513 .42644755 .67089846 .35740153 .67089846 .27294923 .67089846 .1884969 .6492513 .11945089 .60595706 .06581116 .5626628 .012171428 .5073242-.0146484379 .4399414-.0146484379 .40185548-.0146484379 .36816407-.007039388 .3388672 .008178711 .3095703 .02339681 .2828776 .04703776 .25878907 .07910156V0H.083984378V.7597656H.25878907V.46679688Z"/>
<path id="font_2_37" d="M.51123049 .53027346V.39746095C.47379557 .41308595 .43766276 .4248047 .40283204 .4326172 .3680013 .4404297 .3351237 .44433595 .30419923 .44433595 .2709961 .44433595 .24633789 .44017539 .23022461 .43185426 .21411133 .4235433 .20605469 .41074119 .20605469 .39344789 .20605469 .37941996 .2121582 .36865235 .22436524 .36114503 .23657227 .35364787 .25846354 .34810386 .29003907 .34451295L.32080079 .34010316C.410319 .32868959 .47054038 .30993144 .50146487 .28382875 .53238937 .2577362 .54785159 .21679688 .54785159 .16101074 .54785159 .102620448 .5263672 .058746339 .48339845 .029388428 .4404297 .000030517579 .3763021-.0146484379 .29101563-.0146484379 .2548828-.0146484379 .2175293-.01180013 .17895508-.0061035158 .14038086-.00040690104 .100748699 .0081380209 .060058595 .01953125V.15234375C.09488932 .13541667 .13061524 .12272135 .16723633 .11425781 .20385742 .10579427 .24104817 .1015625 .2788086 .1015625 .31298829 .1015625 .33870445 .106292728 .35595704 .115753177 .37320964 .12521363 .38183595 .13924153 .38183595 .15783692 .38183595 .17349243 .37589518 .18515015 .36401368 .19281006 .35213218 .20048015 .32845054 .20643616 .29296876 .2106781L.26220704 .21459961C.18440755 .22438558 .12988281 .2424876 .09863281 .26890565 .06738281 .29533387 .051757814 .33545939 .051757814 .38928224 .051757814 .44734703 .071614589 .49040733 .111328128 .51846316 .15104167 .546519 .21191406 .5605469 .2939453 .5605469 .32617188 .5605469 .36002604 .55810549 .3955078 .55322268 .4309896 .54833987 .4695638 .5406901 .51123049 .53027346Z"/>
<path id="font_2_6" d="M.37695313-.13183594H.2319336C.1821289-.051432294 .14534505 .024983725 .12158203 .09741211 .09781901 .1698405 .0859375 .24169922 .0859375 .31298829 .0859375 .38427735 .09790039 .45646159 .12182617 .529541 .14575196 .6026204 .18245442 .67903646 .2319336 .75878909H.37695313C.33528648 .6816406 .30403648 .6062012 .28320313 .5324707 .26236979 .45874024 .25195313 .38590495 .25195313 .31396485 .25195313 .24202474 .26228843 .16910808 .28295899 .095214847 .30362956 .021321616 .33496095-.05436198 .37695313-.13183594Z"/>
<path id="font_2_4" d="M.77490237 .30078126C.75179037 .30078126 .7338867 .29075114 .7211914 .27069093 .7084961 .2506307 .70214846 .2220052 .70214846 .18481446 .70214846 .14729817 .70841476 .118509929 .72094729 .09844971 .7334798 .07838949 .75146487 .068359378 .77490237 .068359378 .79833987 .068359378 .81624349 .07838949 .8286133 .09844971 .8409831 .118509929 .84716799 .14729817 .84716799 .18481446 .84716799 .2220052 .8409017 .2506307 .82836917 .27069093 .8158366 .29075114 .79801437 .30078126 .77490237 .30078126M.77490237 .3828125C.8354492 .3828125 .883138 .36521403 .91796877 .3300171 .9527995 .29482017 .97021487 .24641927 .97021487 .18481446 .97021487 .12321981 .9527995 .07457479 .91796877 .038879396 .883138 .003194173 .8354492-.0146484379 .77490237-.0146484379 .71435549-.0146484379 .66658529 .003194173 .6315918 .038879396 .5965983 .07457479 .57910159 .12321981 .57910159 .18481446 .57910159 .24608357 .5965983 .29439799 .6315918 .3297577 .66658529 .36512757 .71435549 .3828125 .77490237 .3828125M.32714845-.0146484379H.21923828L.6748047 .7421875H.7832031L.32714845-.0146484379M.22705078 .7421875C.28759767 .7421875 .33520509 .72450259 .36987306 .6891327 .40454103 .653773 .421875 .60529586 .421875 .5437012 .421875 .48210655 .40454103 .43354289 .36987306 .39801026 .33520509 .3624878 .28759767 .34472657 .22705078 .34472657 .1665039 .34472657 .118896488 .3624878 .084228519 .39801026 .049560548 .43354289 .032226564 .48210655 .032226564 .5437012 .032226564 .60529586 .049560548 .653773 .084228519 .6891327 .118896488 .72450259 .1665039 .7421875 .22705078 .7421875M.22705078 .66015627C.20361328 .66015627 .18554688 .6500651 .17285156 .6298828 .16015625 .6097005 .1538086 .5810547 .1538086 .5439453 .1538086 .50651046 .16015625 .47762046 .17285156 .4572754 .18554688 .43693034 .20361328 .4267578 .22705078 .4267578 .25048829 .4267578 .2684733 .43693034 .28100587 .4572754 .29353843 .47762046 .2998047 .50651046 .2998047 .5439453 .2998047 .5810547 .29345704 .6097005 .28076173 .6298828 .2680664 .6500651 .25016276 .66015627 .22705078 .66015627Z"/>
<path id="font_2_7" d="M.080078128-.13183594C.12174479-.05436198 .1529948 .021321616 .17382813 .095214847 .19466146 .16910808 .20507813 .24202474 .20507813 .31396485 .20507813 .38590495 .19466146 .45874024 .17382813 .5324707 .1529948 .6062012 .12174479 .6816406 .080078128 .75878909H.22509766C.2745768 .67903646 .3112793 .6026204 .33520509 .529541 .35913087 .45646159 .37109376 .38427735 .37109376 .31298829 .37109376 .24169922 .35921226 .1698405 .33544923 .09741211 .3116862 .024983725 .27490235-.051432294 .22509766-.13183594H.080078128Z"/>
<path id="font_2_35" d="M.25878907 .07910156V-.20800781H.083984378V.546875H.25878907V.46679688C.2828776 .4988607 .3095703 .52250167 .3388672 .5377197 .36816407 .5529378 .40185548 .5605469 .4399414 .5605469 .5073242 .5605469 .5626628 .533727 .60595706 .48008729 .6492513 .42644755 .67089846 .35740153 .67089846 .27294923 .67089846 .1884969 .6492513 .11945089 .60595706 .06581116 .5626628 .012171428 .5073242-.0146484379 .4399414-.0146484379 .40185548-.0146484379 .36816407-.007039388 .3388672 .008178711 .3095703 .02339681 .2828776 .04703776 .25878907 .07910156M.375 .43359376C.3375651 .43359376 .3088379 .4197998 .28881837 .3922119 .26879884 .36462403 .25878907 .32486979 .25878907 .27294923 .25878907 .22102864 .26879884 .18127442 .28881837 .15368653 .3088379 .12609864 .3375651 .11230469 .375 .11230469 .4124349 .11230469 .44099937 .12601726 .46069337 .15344239 .48038737 .18086751 .49023438 .22070313 .49023438 .27294923 .49023438 .3251953 .48038737 .3650309 .46069337 .39245606 .44099937 .4198812 .4124349 .43359376 .375 .43359376Z"/>
<path id="font_2_24" d="M.5258789 .53027346V.3876953C.5021159 .40397135 .47827149 .41601563 .4543457 .42382813 .43041993 .43164063 .40559898 .43554688 .3798828 .43554688 .3310547 .43554688 .29305015 .42125956 .26586915 .39268495 .23868816 .36412049 .22509766 .3242086 .22509766 .27294923 .22509766 .22168987 .23868816 .18177288 .26586915 .15319824 .29305015 .12463379 .3310547 .11035156 .3798828 .11035156 .40722657 .11035156 .43318687 .114461269 .45776368 .122680667 .48234049 .13090007 .5050456 .1430664 .5258789 .15917969V.015625C.49853517 .005533854 .47078453-.0020345052 .44262696-.007080078 .4144694-.012125651 .38623048-.0146484379 .35791017-.0146484379 .25927735-.0146484379 .1821289 .010701497 .12646485 .061401369 .07080078 .11211141 .04296875 .18262737 .04296875 .27294923 .04296875 .3632711 .07080078 .43378196 .12646485 .4844818 .1821289 .53519186 .25927735 .5605469 .35791017 .5605469 .386556 .5605469 .41479493 .5580241 .44262696 .5529785 .47045899 .5479329 .49820964 .54036459 .5258789 .53027346Z"/>
<path id="font_2_5" d="M.39013673 .48420716 .58984377 .26412965C.6070964 .2869873 .62019857 .31261698 .6291504 .34101869 .63810226 .36942039 .6433919 .4015808 .64501956 .4375H.796875C.7919922 .37808229 .7805176 .32519023 .7624512 .27882386 .74438479 .23245748 .7192383 .19180806 .6870117 .15687561L.8300781 0H.6230469L.5751953 .052993776C.5410156 .030115763 .5050456 .013122559 .46728517 .0020141602 .42952476-.009094238 .3894857-.0146484379 .34716798-.0146484379 .261556-.0146484379 .19230144 .00793457 .1394043 .053100587 .086507167 .09827677 .060058595 .15657552 .060058595 .22799683 .060058595 .2756144 .07169596 .31776939 .0949707 .35446168 .118245448 .39115397 .15625 .42678324 .20898438 .4613495 .1953125 .47858177 .18522136 .49580894 .17871094 .513031 .17220052 .53026327 .16894531 .54830428 .16894531 .56715396 .16894531 .62013247 .18961589 .6625468 .23095703 .694397 .2722982 .7262573 .3273112 .7421875 .3959961 .7421875 .4256185 .7421875 .45646159 .73982748 .4885254 .7351074 .5205892 .7303874 .55403646 .7233073 .5888672 .7138672V.578125C.55826827 .59375 .5292969 .60530599 .5019531 .61279299 .47460938 .62027999 .44791667 .62402346 .421875 .62402346 .3968099 .62402346 .37736003 .6192322 .3635254 .60964968 .34969078 .60006716 .34277345 .58650717 .34277345 .5689697 .34277345 .55793258 .34676109 .5453491 .35473634 .5312195 .36271159 .51708987 .37451173 .50141909 .39013673 .48420716M.29296876 .36305238C.2718099 .3477122 .25585938 .33032737 .24511719 .31089784 .234375 .2914683 .2290039 .27016197 .2290039 .24697876 .2290039 .20943196 .24283855 .17743428 .2705078 .15098572 .2981771 .124547328 .33138023 .111328128 .3701172 .111328128 .3919271 .111328128 .41227214 .11467489 .43115235 .12136841 .45003257 .12806194 .4676107 .13810222 .48388673 .15148926L.29296876 .36305238Z"/>
<path id="font_2_40" d="M.012207031 .546875H.18701172L.33398438 .17578125 .45898438 .546875H.63378909L.4038086-.05130005C.38069663-.112345378 .35375978-.15502422 .32299806-.17933655 .29223634-.20365906 .2516276-.21582031 .20117188-.21582031H.100097659V-.10058594H.15478516C.18440755-.10058594 .20597331-.09588623 .21948242-.08648682 .23299153-.07709757 .24348958-.060256959 .25097657-.035964967L.25585938-.020828248 .012207031 .546875Z"/>
<path id="font_2_19" d="M.091796878 .7294922H.27978517V0H.091796878V.7294922Z"/>
<path id="font_2_21" d="M.0048828127 .7294922H.19384766L.38720704 .19104004 .5800781 .7294922H.76904299L.49902345 0H.27490235L.0048828127 .7294922Z"/>
<clipPath id="clip_8">
<path transform="matrix(1,0,0,-1,0,171.05675)" d="M78.95812 32.34875H369.11814V168.17676H78.95812Z"/>
</clipPath>
<clipPath id="clip_9">
<path transform="matrix(1,0,0,-1,0,171.05675)" d="M78.95812 32.34875H369.11814V168.17676H78.95812Z"/>
</clipPath>
<clipPath id="clip_10">
<path transform="matrix(1,0,0,-1,0,171.05675)" d="M78.95812 32.34875H369.11814V168.17676H78.95812Z"/>
</clipPath>
<path id="font_2_9" d="M.10205078 .18945313H.27783204V0H.10205078V.18945313Z"/>
<path id="font_2_17" d="M.34814454 .32617188C.31298829 .32617188 .28597007 .31654869 .26708985 .29730226 .24820964 .27805583 .23876953 .25048829 .23876953 .21459961 .23876953 .17871094 .24820964 .15122478 .26708985 .13214112 .28597007 .11305746 .31298829 .103515628 .34814454 .103515628 .38297526 .103515628 .40966798 .11305746 .42822267 .13214112 .44677735 .15122478 .4560547 .17871094 .4560547 .21459961 .4560547 .2508138 .44677735 .27846275 .42822267 .2975464 .40966798 .31663005 .38297526 .32617188 .34814454 .32617188M.2109375 .388443C.16666667 .40177918 .13330078 .42227174 .110839847 .44992066 .088378909 .47756959 .07714844 .5120494 .07714844 .55336 .07714844 .6148427 .100097659 .6616821 .1459961 .6938782 .19189453 .7260844 .25927735 .7421875 .34814454 .7421875 .4363607 .7421875 .50341799 .7261658 .5493164 .6941223 .59521487 .66208907 .61816409 .6151683 .61816409 .55336 .61816409 .5120494 .60685226 .47756959 .5842285 .44992066 .5616048 .42227174 .52815756 .40177918 .48388673 .388443 .5333659 .37475077 .5707194 .3524933 .59594729 .32167054 .6211751 .29084779 .63378909 .25195823 .63378909 .20500183 .63378909 .1325938 .6097819 .07788086 .5617676 .040863038 .51375326 .0038553875 .44254557-.0146484379 .34814454-.0146484379 .25341798-.0146484379 .18188477 .0038553875 .13354492 .040863038 .08520508 .07788086 .061035158 .1325938 .061035158 .20500183 .061035158 .25195823 .073649089 .29084779 .09887695 .32167054 .12410482 .3524933 .16145833 .37475077 .2109375 .388443M.2548828 .5344238C.2548828 .5055339 .26293946 .48329673 .27905274 .4677124 .29516603 .45212809 .31819663 .44433595 .34814454 .44433595 .3774414 .44433595 .4000651 .45212809 .41601563 .4677124 .43196617 .48329673 .4399414 .5055339 .4399414 .5344238 .4399414 .5633138 .43196617 .58546957 .41601563 .6008911 .4000651 .6163127 .3774414 .62402346 .34814454 .62402346 .31819663 .62402346 .29516603 .61623129 .27905274 .600647 .26293946 .5850627 .2548828 .5629883 .2548828 .5344238Z"/>
<path id="font_2_16" d="M.3618164 .359375C.3289388 .359375 .3042806 .3487142 .2878418 .32739259 .27140299 .30607096 .2631836 .27408854 .2631836 .23144531 .2631836 .18880208 .27140299 .15681966 .2878418 .13549805 .3042806 .11417643 .3289388 .103515628 .3618164 .103515628 .39501954 .103515628 .41984049 .11417643 .4362793 .13549805 .4527181 .15681966 .4609375 .18880208 .4609375 .23144531 .4609375 .27408854 .4527181 .30607096 .4362793 .32739259 .41984049 .3487142 .39501954 .359375 .3618164 .359375M.5942383 .70996096V.5751953C.5633138 .58984377 .5341797 .6006673 .50683596 .607666 .4794922 .61466476 .45279948 .61816409 .4267578 .61816409 .37076823 .61816409 .32714845 .6025798 .29589845 .57141116 .26464845 .5402425 .24641927 .49397788 .24121094 .4326172 .2626953 .44856773 .28597007 .4605306 .31103517 .46850587 .33610026 .4764811 .363444 .48046876 .3930664 .48046876 .4676107 .48046876 .5277507 .45865885 .5734863 .41503907 .619222 .37141929 .64208987 .31429038 .64208987 .24365235 .64208987 .16552735 .61653646 .10294596 .5654297 .055908204 .51432296 .008870442 .44580079-.0146484379 .35986329-.0146484379 .26513673-.0146484379 .19181316 .01735433 .13989258 .08135986 .08797201 .1453654 .06201172 .23616536 .06201172 .35375978 .06201172 .47427369 .09236654 .5689748 .15307617 .63786318 .21378581 .70676168 .29703776 .74121096 .40283204 .74121096 .4363607 .74121096 .46891276 .73860678 .5004883 .73339846 .5320638 .7281901 .5633138 .7203776 .5942383 .70996096Z"/>
<path id="font_2_18" d="M.100097659 .015625V.15039063C.13004558 .13639324 .1586914 .12589519 .18603516 .118896488 .2133789 .11189779 .24039714 .10839844 .26708985 .10839844 .32307945 .10839844 .36669923 .12398275 .39794923 .15515137 .42919923 .18631999 .44759117 .23258464 .453125 .2939453 .4309896 .27766929 .4073893 .26546226 .38232423 .25732423 .35725913 .2491862 .33007813 .24511719 .30078126 .24511719 .22623699 .24511719 .166097 .2668457 .12036133 .31030274 .07462565 .35375978 .051757814 .41097007 .051757814 .4819336 .051757814 .5603841 .07722982 .62320968 .12817383 .67041018 .17911785 .71761068 .24739583 .74121096 .3330078 .74121096 .4280599 .74121096 .5016276 .7091268 .55371096 .6449585 .60579428 .5807902 .63183596 .49007163 .63183596 .37280274 .63183596 .25228883 .6013997 .1575826 .54052737 .08868408 .47965495 .019795737 .39615885-.0146484379 .29003907-.0146484379 .25585938-.0146484379 .22314453-.012125651 .19189453-.007080078 .16064453-.0020345052 .13004558 .005533854 .100097659 .015625M.33203126 .3671875C.36490885 .3671875 .38964845 .3778483 .40625 .39916993 .42285157 .42049156 .43115235 .45247398 .43115235 .4951172 .43115235 .5374349 .42285157 .56933596 .40625 .5908203 .38964845 .6123047 .36490885 .6230469 .33203126 .6230469 .29915367 .6230469 .27441407 .6123047 .2578125 .5908203 .24121094 .56933596 .23291016 .5374349 .23291016 .4951172 .23291016 .45247398 .24121094 .42049156 .2578125 .39916993 .27441407 .3778483 .29915367 .3671875 .33203126 .3671875Z"/>
</defs>
<path transform="matrix(1,0,0,-1,0,171.05675)" d="M0 0H377.92V171.05675H0Z" fill="#ffffff"/>
<path transform="matrix(1,0,0,-1,0,171.05675)" d="M78.95812 32.34875H369.11814V168.17675H78.95812Z" fill="#ffffff"/>
<g clip-path="url(#clip_1)">
<path transform="matrix(1,0,0,-1,0,171.05675)" stroke-width=".5" stroke-linecap="square" stroke-linejoin="round" fill="none" stroke="#e5e7eb" stroke-opacity=".8" d="M78.95812 32.34875V168.17675"/>
</g>
<path transform="matrix(1,0,0,-1,0,171.05675)" d="M78.95812 32.34875V28.84875" fill="#1f2937"/>
<path transform="matrix(1,0,0,-1,0,171.05675)" stroke-width=".8" stroke-linecap="butt" stroke-linejoin="round" fill="none" stroke="#1f2937" d="M78.95812 32.34875V28.84875"/>
<use data-text="0" xlink:href="#font_2_10" transform="matrix(8.5,0,0,-8.5,75.997188,152.55175)" fill="#1f2937"/>
<g clip-path="url(#clip_3)">
<path transform="matrix(1,0,0,-1,0,171.05675)" stroke-width=".5" stroke-linecap="square" stroke-linejoin="round" fill="none" stroke="#e5e7eb" stroke-opacity=".8" d="M136.99013 32.34875V168.17675"/>
</g>
<path transform="matrix(1,0,0,-1,0,171.05675)" d="M136.99013 32.34875V28.84875" fill="#1f2937"/>
<path transform="matrix(1,0,0,-1,0,171.05675)" stroke-width=".8" stroke-linecap="butt" stroke-linejoin="round" fill="none" stroke="#1f2937" d="M136.99013 32.34875V28.84875"/>
<use data-text="1" xlink:href="#font_2_11" transform="matrix(8.5,0,0,-8.5,131.06826,152.55175)" fill="#1f2937"/>
<use data-text="0" xlink:href="#font_2_10" transform="matrix(8.5,0,0,-8.5,136.98426,152.55175)" fill="#1f2937"/>
<g clip-path="url(#clip_4)">
<path transform="matrix(1,0,0,-1,0,171.05675)" stroke-width=".5" stroke-linecap="square" stroke-linejoin="round" fill="none" stroke="#e5e7eb" stroke-opacity=".8" d="M195.02213 32.34875V168.17675"/>
</g>
<path transform="matrix(1,0,0,-1,0,171.05675)" d="M195.02213 32.34875V28.84875" fill="#1f2937"/>
<path transform="matrix(1,0,0,-1,0,171.05675)" stroke-width=".8" stroke-linecap="butt" stroke-linejoin="round" fill="none" stroke="#1f2937" d="M195.02213 32.34875V28.84875"/>
<use data-text="2" xlink:href="#font_2_12" transform="matrix(8.5,0,0,-8.5,189.10025,152.55175)" fill="#1f2937"/>
<use data-text="0" xlink:href="#font_2_10" transform="matrix(8.5,0,0,-8.5,195.01625,152.55175)" fill="#1f2937"/>
<g clip-path="url(#clip_5)">
<path transform="matrix(1,0,0,-1,0,171.05675)" stroke-width=".5" stroke-linecap="square" stroke-linejoin="round" fill="none" stroke="#e5e7eb" stroke-opacity=".8" d="M253.05413 32.34875V168.17675"/>
</g>
<path transform="matrix(1,0,0,-1,0,171.05675)" d="M253.05413 32.34875V28.84875" fill="#1f2937"/>
<path transform="matrix(1,0,0,-1,0,171.05675)" stroke-width=".8" stroke-linecap="butt" stroke-linejoin="round" fill="none" stroke="#1f2937" d="M253.05413 32.34875V28.84875"/>
<use data-text="3" xlink:href="#font_2_13" transform="matrix(8.5,0,0,-8.5,247.13225,152.55175)" fill="#1f2937"/>
<use data-text="0" xlink:href="#font_2_10" transform="matrix(8.5,0,0,-8.5,253.04825,152.55175)" fill="#1f2937"/>
<g clip-path="url(#clip_6)">
<path transform="matrix(1,0,0,-1,0,171.05675)" stroke-width=".5" stroke-linecap="square" stroke-linejoin="round" fill="none" stroke="#e5e7eb" stroke-opacity=".8" d="M311.08613 32.34875V168.17675"/>
</g>
<path transform="matrix(1,0,0,-1,0,171.05675)" d="M311.08613 32.34875V28.84875" fill="#1f2937"/>
<path transform="matrix(1,0,0,-1,0,171.05675)" stroke-width=".8" stroke-linecap="butt" stroke-linejoin="round" fill="none" stroke="#1f2937" d="M311.08613 32.34875V28.84875"/>
<use data-text="4" xlink:href="#font_2_14" transform="matrix(8.5,0,0,-8.5,305.16426,152.55175)" fill="#1f2937"/>
<use data-text="0" xlink:href="#font_2_10" transform="matrix(8.5,0,0,-8.5,311.08027,152.55175)" fill="#1f2937"/>
<g clip-path="url(#clip_7)">
<path transform="matrix(1,0,0,-1,0,171.05675)" stroke-width=".5" stroke-linecap="square" stroke-linejoin="round" fill="none" stroke="#e5e7eb" stroke-opacity=".8" d="M369.11814 32.34875V168.17675"/>
</g>
<path transform="matrix(1,0,0,-1,0,171.05675)" d="M369.11814 32.34875V28.84875" fill="#1f2937"/>
<path transform="matrix(1,0,0,-1,0,171.05675)" stroke-width=".8" stroke-linecap="butt" stroke-linejoin="round" fill="none" stroke="#1f2937" d="M369.11814 32.34875V28.84875"/>
<use data-text="5" xlink:href="#font_2_15" transform="matrix(8.5,0,0,-8.5,363.19627,152.55175)" fill="#1f2937"/>
<use data-text="0" xlink:href="#font_2_10" transform="matrix(8.5,0,0,-8.5,369.11225,152.55175)" fill="#1f2937"/>
<use data-text="S" xlink:href="#font_2_20" transform="matrix(10,0,0,-10,109.68656,166.0205)" fill="#1f2937"/>
<use data-text="h" xlink:href="#font_2_29" transform="matrix(10,0,0,-10,116.88656,166.0205)" fill="#1f2937"/>
<use data-text="a" xlink:href="#font_2_22" transform="matrix(10,0,0,-10,124.00656,166.0205)" fill="#1f2937"/>
<use data-text="r" xlink:href="#font_2_36" transform="matrix(10,0,0,-10,130.75656,166.0205)" fill="#1f2937"/>
<use data-text="e" xlink:href="#font_2_26" transform="matrix(10,0,0,-10,135.68656,166.0205)" fill="#1f2937"/>
<use data-text=" " xlink:href="#font_2_3" transform="matrix(10,0,0,-10,142.46656,166.0205)" fill="#1f2937"/>
<use data-text="o" xlink:href="#font_2_34" transform="matrix(10,0,0,-10,145.94657,166.0205)" fill="#1f2937"/>
<use data-text="f" xlink:href="#font_2_27" transform="matrix(10,0,0,-10,152.81656,166.0205)" fill="#1f2937"/>
<use data-text=" " xlink:href="#font_2_3" transform="matrix(10,0,0,-10,157.16657,166.0205)" fill="#1f2937"/>
<use data-text="m" xlink:href="#font_2_32" transform="matrix(10,0,0,-10,160.64656,166.0205)" fill="#1f2937"/>
<use data-text="u" xlink:href="#font_2_39" transform="matrix(10,0,0,-10,171.06656,166.0205)" fill="#1f2937"/>
<use data-text="l" xlink:href="#font_2_31" transform="matrix(10,0,0,-10,178.18656,166.0205)" fill="#1f2937"/>
<use data-text="t" xlink:href="#font_2_38" transform="matrix(10,0,0,-10,181.61656,166.0205)" fill="#1f2937"/>
<use data-text="i" xlink:href="#font_2_30" transform="matrix(10,0,0,-10,186.39656,166.0205)" fill="#1f2937"/>
<use data-text="-" xlink:href="#font_2_8" transform="matrix(10,0,0,-10,189.82657,166.0205)" fill="#1f2937"/>
<use data-text="a" xlink:href="#font_2_22" transform="matrix(10,0,0,-10,193.97657,166.0205)" fill="#1f2937"/>
<use data-text="g" xlink:href="#font_2_28" transform="matrix(10,0,0,-10,200.72657,166.0205)" fill="#1f2937"/>
<use data-text="e" xlink:href="#font_2_26" transform="matrix(10,0,0,-10,207.88657,166.0205)" fill="#1f2937"/>
<use data-text="n" xlink:href="#font_2_33" transform="matrix(10,0,0,-10,214.66657,166.0205)" fill="#1f2937"/>
<use data-text="t" xlink:href="#font_2_38" transform="matrix(10,0,0,-10,221.78656,166.0205)" fill="#1f2937"/>
<use data-text=" " xlink:href="#font_2_3" transform="matrix(10,0,0,-10,226.56656,166.0205)" fill="#1f2937"/>
<use data-text="d" xlink:href="#font_2_25" transform="matrix(10,0,0,-10,230.04657,166.0205)" fill="#1f2937"/>
<use data-text="e" xlink:href="#font_2_26" transform="matrix(10,0,0,-10,237.20658,166.0205)" fill="#1f2937"/>
<use data-text="b" xlink:href="#font_2_23" transform="matrix(10,0,0,-10,243.98657,166.0205)" fill="#1f2937"/>
<use data-text="a" xlink:href="#font_2_22" transform="matrix(10,0,0,-10,251.14658,166.0205)" fill="#1f2937"/>
<use data-text="t" xlink:href="#font_2_38" transform="matrix(10,0,0,-10,257.89659,166.0205)" fill="#1f2937"/>
<use data-text="e" xlink:href="#font_2_26" transform="matrix(10,0,0,-10,262.67658,166.0205)" fill="#1f2937"/>
<use data-text=" " xlink:href="#font_2_3" transform="matrix(10,0,0,-10,269.45658,166.0205)" fill="#1f2937"/>
<use data-text="f" xlink:href="#font_2_27" transform="matrix(10,0,0,-10,272.93659,166.0205)" fill="#1f2937"/>
<use data-text="a" xlink:href="#font_2_22" transform="matrix(10,0,0,-10,277.2866,166.0205)" fill="#1f2937"/>
<use data-text="i" xlink:href="#font_2_30" transform="matrix(10,0,0,-10,284.0366,166.0205)" fill="#1f2937"/>
<use data-text="l" xlink:href="#font_2_31" transform="matrix(10,0,0,-10,287.46659,166.0205)" fill="#1f2937"/>
<use data-text="u" xlink:href="#font_2_39" transform="matrix(10,0,0,-10,290.89659,166.0205)" fill="#1f2937"/>
<use data-text="r" xlink:href="#font_2_36" transform="matrix(10,0,0,-10,298.01658,166.0205)" fill="#1f2937"/>
<use data-text="e" xlink:href="#font_2_26" transform="matrix(10,0,0,-10,302.94657,166.0205)" fill="#1f2937"/>
<use data-text="s" xlink:href="#font_2_37" transform="matrix(10,0,0,-10,309.72657,166.0205)" fill="#1f2937"/>
<use data-text=" " xlink:href="#font_2_3" transform="matrix(10,0,0,-10,315.67658,166.0205)" fill="#1f2937"/>
<use data-text="(" xlink:href="#font_2_6" transform="matrix(10,0,0,-10,319.15657,166.0205)" fill="#1f2937"/>
<use data-text="%" xlink:href="#font_2_4" transform="matrix(10,0,0,-10,323.72657,166.0205)" fill="#1f2937"/>
<use data-text=")" xlink:href="#font_2_7" transform="matrix(10,0,0,-10,333.74659,166.0205)" fill="#1f2937"/>
<use data-text="S" xlink:href="#font_2_20" transform="matrix(8.5,0,0,-8.5,2.88,22.72673)" fill="#1f2937"/>
<use data-text="p" xlink:href="#font_2_35" transform="matrix(8.5,0,0,-8.5,9,22.72673)" fill="#1f2937"/>
<use data-text="e" xlink:href="#font_2_26" transform="matrix(8.5,0,0,-8.5,15.086,22.72673)" fill="#1f2937"/>
<use data-text="c" xlink:href="#font_2_24" transform="matrix(8.5,0,0,-8.5,20.849003,22.72673)" fill="#1f2937"/>
<use data-text="i" xlink:href="#font_2_30" transform="matrix(8.5,0,0,-8.5,25.889504,22.72673)" fill="#1f2937"/>
<use data-text="f" xlink:href="#font_2_27" transform="matrix(8.5,0,0,-8.5,28.805005,22.72673)" fill="#1f2937"/>
<use data-text="i" xlink:href="#font_2_30" transform="matrix(8.5,0,0,-8.5,32.502504,22.72673)" fill="#1f2937"/>
<use data-text="c" xlink:href="#font_2_24" transform="matrix(8.5,0,0,-8.5,35.418004,22.72673)" fill="#1f2937"/>
<use data-text="a" xlink:href="#font_2_22" transform="matrix(8.5,0,0,-8.5,40.458505,22.72673)" fill="#1f2937"/>
<use data-text="t" xlink:href="#font_2_38" transform="matrix(8.5,0,0,-8.5,46.196004,22.72673)" fill="#1f2937"/>
<use data-text="i" xlink:href="#font_2_30" transform="matrix(8.5,0,0,-8.5,50.259004,22.72673)" fill="#1f2937"/>
<use data-text="o" xlink:href="#font_2_34" transform="matrix(8.5,0,0,-8.5,53.174505,22.72673)" fill="#1f2937"/>
<use data-text="n" xlink:href="#font_2_33" transform="matrix(8.5,0,0,-8.5,59.014005,22.72673)" fill="#1f2937"/>
<use data-text=" " xlink:href="#font_2_3" transform="matrix(8.5,0,0,-8.5,65.066,22.72673)" fill="#1f2937"/>
<use data-text="&amp;" xlink:href="#font_2_5" transform="matrix(8.5,0,0,-8.5,68.024,22.72673)" fill="#1f2937"/>
<use data-text="s" xlink:href="#font_2_37" transform="matrix(8.5,0,0,-8.5,6.1925,32.814226)" fill="#1f2937"/>
<use data-text="y" xlink:href="#font_2_40" transform="matrix(8.5,0,0,-8.5,11.25,32.814226)" fill="#1f2937"/>
<use data-text="s" xlink:href="#font_2_37" transform="matrix(8.5,0,0,-8.5,16.792,32.814226)" fill="#1f2937"/>
<use data-text="t" xlink:href="#font_2_38" transform="matrix(8.5,0,0,-8.5,21.849503,32.814226)" fill="#1f2937"/>
<use data-text="e" xlink:href="#font_2_26" transform="matrix(8.5,0,0,-8.5,25.912503,32.814226)" fill="#1f2937"/>
<use data-text="m" xlink:href="#font_2_32" transform="matrix(8.5,0,0,-8.5,31.675503,32.814226)" fill="#1f2937"/>
<use data-text=" " xlink:href="#font_2_3" transform="matrix(8.5,0,0,-8.5,40.532506,32.814226)" fill="#1f2937"/>
<use data-text="d" xlink:href="#font_2_25" transform="matrix(8.5,0,0,-8.5,43.490507,32.814226)" fill="#1f2937"/>
<use data-text="e" xlink:href="#font_2_26" transform="matrix(8.5,0,0,-8.5,49.576505,32.814226)" fill="#1f2937"/>
<use data-text="s" xlink:href="#font_2_37" transform="matrix(8.5,0,0,-8.5,55.339506,32.814226)" fill="#1f2937"/>
<use data-text="i" xlink:href="#font_2_30" transform="matrix(8.5,0,0,-8.5,60.397005,32.814226)" fill="#1f2937"/>
<use data-text="g" xlink:href="#font_2_28" transform="matrix(8.5,0,0,-8.5,63.312505,32.814226)" fill="#1f2937"/>
<use data-text="n" xlink:href="#font_2_33" transform="matrix(8.5,0,0,-8.5,69.3985,32.814226)" fill="#1f2937"/>
<use data-text="I" xlink:href="#font_2_19" transform="matrix(8.5,0,0,-8.5,21.020625,69.794)" fill="#1f2937"/>
<use data-text="n" xlink:href="#font_2_33" transform="matrix(8.5,0,0,-8.5,24.182625,69.794)" fill="#1f2937"/>
<use data-text="t" xlink:href="#font_2_38" transform="matrix(8.5,0,0,-8.5,30.234625,69.794)" fill="#1f2937"/>
<use data-text="e" xlink:href="#font_2_26" transform="matrix(8.5,0,0,-8.5,34.297624,69.794)" fill="#1f2937"/>
<use data-text="r" xlink:href="#font_2_36" transform="matrix(8.5,0,0,-8.5,40.060625,69.794)" fill="#1f2937"/>
<use data-text="-" xlink:href="#font_2_8" transform="matrix(8.5,0,0,-8.5,44.251127,69.794)" fill="#1f2937"/>
<use data-text="a" xlink:href="#font_2_22" transform="matrix(8.5,0,0,-8.5,47.778627,69.794)" fill="#1f2937"/>
<use data-text="g" xlink:href="#font_2_28" transform="matrix(8.5,0,0,-8.5,53.51613,69.794)" fill="#1f2937"/>
<use data-text="e" xlink:href="#font_2_26" transform="matrix(8.5,0,0,-8.5,59.602128,69.794)" fill="#1f2937"/>
<use data-text="n" xlink:href="#font_2_33" transform="matrix(8.5,0,0,-8.5,65.36513,69.794)" fill="#1f2937"/>
<use data-text="t" xlink:href="#font_2_38" transform="matrix(8.5,0,0,-8.5,71.41712,69.794)" fill="#1f2937"/>
<use data-text="m" xlink:href="#font_2_32" transform="matrix(8.5,0,0,-8.5,10.176875,79.944)" fill="#1f2937"/>
<use data-text="i" xlink:href="#font_2_30" transform="matrix(8.5,0,0,-8.5,19.033875,79.944)" fill="#1f2937"/>
<use data-text="s" xlink:href="#font_2_37" transform="matrix(8.5,0,0,-8.5,21.949376,79.944)" fill="#1f2937"/>
<use data-text="a" xlink:href="#font_2_22" transform="matrix(8.5,0,0,-8.5,27.006878,79.944)" fill="#1f2937"/>
<use data-text="l" xlink:href="#font_2_31" transform="matrix(8.5,0,0,-8.5,32.744379,79.944)" fill="#1f2937"/>
<use data-text="i" xlink:href="#font_2_30" transform="matrix(8.5,0,0,-8.5,35.659879,79.944)" fill="#1f2937"/>
<use data-text="g" xlink:href="#font_2_28" transform="matrix(8.5,0,0,-8.5,38.57538,79.944)" fill="#1f2937"/>
<use data-text="n" xlink:href="#font_2_33" transform="matrix(8.5,0,0,-8.5,44.661378,79.944)" fill="#1f2937"/>
<use data-text="m" xlink:href="#font_2_32" transform="matrix(8.5,0,0,-8.5,50.713376,79.944)" fill="#1f2937"/>
<use data-text="e" xlink:href="#font_2_26" transform="matrix(8.5,0,0,-8.5,59.570379,79.944)" fill="#1f2937"/>
<use data-text="n" xlink:href="#font_2_33" transform="matrix(8.5,0,0,-8.5,65.333377,79.944)" fill="#1f2937"/>
<use data-text="t" xlink:href="#font_2_38" transform="matrix(8.5,0,0,-8.5,71.385379,79.944)" fill="#1f2937"/>
<use data-text="V" xlink:href="#font_2_21" transform="matrix(8.5,0,0,-8.5,9.864375,116.98627)" fill="#1f2937"/>
<use data-text="e" xlink:href="#font_2_26" transform="matrix(8.5,0,0,-8.5,15.990251,116.98627)" fill="#1f2937"/>
<use data-text="r" xlink:href="#font_2_36" transform="matrix(8.5,0,0,-8.5,21.75325,116.98627)" fill="#1f2937"/>
<use data-text="i" xlink:href="#font_2_30" transform="matrix(8.5,0,0,-8.5,25.943753,116.98627)" fill="#1f2937"/>
<use data-text="f" xlink:href="#font_2_27" transform="matrix(8.5,0,0,-8.5,28.859253,116.98627)" fill="#1f2937"/>
<use data-text="i" xlink:href="#font_2_30" transform="matrix(8.5,0,0,-8.5,32.55675,116.98627)" fill="#1f2937"/>
<use data-text="c" xlink:href="#font_2_24" transform="matrix(8.5,0,0,-8.5,35.47225,116.98627)" fill="#1f2937"/>
<use data-text="a" xlink:href="#font_2_22" transform="matrix(8.5,0,0,-8.5,40.512754,116.98627)" fill="#1f2937"/>
<use data-text="t" xlink:href="#font_2_38" transform="matrix(8.5,0,0,-8.5,46.250257,116.98627)" fill="#1f2937"/>
<use data-text="i" xlink:href="#font_2_30" transform="matrix(8.5,0,0,-8.5,50.313257,116.98627)" fill="#1f2937"/>
<use data-text="o" xlink:href="#font_2_34" transform="matrix(8.5,0,0,-8.5,53.228757,116.98627)" fill="#1f2937"/>
<use data-text="n" xlink:href="#font_2_33" transform="matrix(8.5,0,0,-8.5,59.068258,116.98627)" fill="#1f2937"/>
<use data-text=" " xlink:href="#font_2_3" transform="matrix(8.5,0,0,-8.5,65.120258,116.98627)" fill="#1f2937"/>
<use data-text="&amp;" xlink:href="#font_2_5" transform="matrix(8.5,0,0,-8.5,68.078258,116.98627)" fill="#1f2937"/>
<use data-text="t" xlink:href="#font_2_38" transform="matrix(8.5,0,0,-8.5,19.005,127.07377)" fill="#1f2937"/>
<use data-text="e" xlink:href="#font_2_26" transform="matrix(8.5,0,0,-8.5,23.067999,127.07377)" fill="#1f2937"/>
<use data-text="r" xlink:href="#font_2_36" transform="matrix(8.5,0,0,-8.5,28.831,127.07377)" fill="#1f2937"/>
<use data-text="m" xlink:href="#font_2_32" transform="matrix(8.5,0,0,-8.5,33.0215,127.07377)" fill="#1f2937"/>
<use data-text="i" xlink:href="#font_2_30" transform="matrix(8.5,0,0,-8.5,41.8785,127.07377)" fill="#1f2937"/>
<use data-text="n" xlink:href="#font_2_33" transform="matrix(8.5,0,0,-8.5,44.794,127.07377)" fill="#1f2937"/>
<use data-text="a" xlink:href="#font_2_22" transform="matrix(8.5,0,0,-8.5,50.846,127.07377)" fill="#1f2937"/>
<use data-text="t" xlink:href="#font_2_38" transform="matrix(8.5,0,0,-8.5,56.583505,127.07377)" fill="#1f2937"/>
<use data-text="i" xlink:href="#font_2_30" transform="matrix(8.5,0,0,-8.5,60.6465,127.07377)" fill="#1f2937"/>
<use data-text="o" xlink:href="#font_2_34" transform="matrix(8.5,0,0,-8.5,63.562005,127.07377)" fill="#1f2937"/>
<use data-text="n" xlink:href="#font_2_33" transform="matrix(8.5,0,0,-8.5,69.401508,127.07377)" fill="#1f2937"/>
<g clip-path="url(#clip_8)">
<path transform="matrix(1,0,0,-1,0,171.05675)" d="M78.95812 132.78229H321.5319V162.00275H78.95812Z" fill="#1f6f6f"/>
<path transform="matrix(1,0,0,-1,0,171.05675)" stroke-width="1" stroke-linecap="butt" stroke-miterlimit="10" stroke-linejoin="miter" fill="none" stroke="#ffffff" d="M78.95812 132.78229H321.5319V162.00275H78.95812Z"/>
</g>
<g clip-path="url(#clip_9)">
<path transform="matrix(1,0,0,-1,0,171.05675)" d="M78.95812 85.65252H293.0962V114.87298H78.95812Z" fill="#c75146"/>
<path transform="matrix(1,0,0,-1,0,171.05675)" stroke-width="1" stroke-linecap="butt" stroke-miterlimit="10" stroke-linejoin="miter" fill="none" stroke="#ffffff" d="M78.95812 85.65252H293.0962V114.87298H78.95812Z"/>
</g>
<g clip-path="url(#clip_10)">
<path transform="matrix(1,0,0,-1,0,171.05675)" d="M78.95812 38.52275H202.56629V67.74321H78.95812Z" fill="#d4a017"/>
<path transform="matrix(1,0,0,-1,0,171.05675)" stroke-width="1" stroke-linecap="butt" stroke-miterlimit="10" stroke-linejoin="miter" fill="none" stroke="#ffffff" d="M78.95812 38.52275H202.56629V67.74321H78.95812Z"/>
</g>
<path transform="matrix(1,0,0,-1,0,171.05675)" stroke-width=".7" stroke-linecap="square" stroke-miterlimit="10" stroke-linejoin="miter" fill="none" stroke="#9ca3af" d="M78.95812 32.34875H369.11814"/>
<use data-text="4" xlink:href="#font_2_14" transform="matrix(9,0,0,-9,326.17445,26.148606)" fill="#1f6f6f"/>
<use data-text="1" xlink:href="#font_2_11" transform="matrix(9,0,0,-9,332.43846,26.148606)" fill="#1f6f6f"/>
<use data-text="." xlink:href="#font_2_9" transform="matrix(9,0,0,-9,338.70246,26.148606)" fill="#1f6f6f"/>
<use data-text="8" xlink:href="#font_2_17" transform="matrix(9,0,0,-9,342.12245,26.148606)" fill="#1f6f6f"/>
<use data-text="%" xlink:href="#font_2_4" transform="matrix(9,0,0,-9,348.38645,26.148606)" fill="#1f6f6f"/>
<use data-text="3" xlink:href="#font_2_13" transform="matrix(9,0,0,-9,297.73878,73.27837)" fill="#c75146"/>
<use data-text="6" xlink:href="#font_2_16" transform="matrix(9,0,0,-9,304.00279,73.27837)" fill="#c75146"/>
<use data-text="." xlink:href="#font_2_9" transform="matrix(9,0,0,-9,310.26679,73.27837)" fill="#c75146"/>
<use data-text="9" xlink:href="#font_2_18" transform="matrix(9,0,0,-9,313.68678,73.27837)" fill="#c75146"/>
<use data-text="%" xlink:href="#font_2_4" transform="matrix(9,0,0,-9,319.95079,73.27837)" fill="#c75146"/>
<use data-text="2" xlink:href="#font_2_12" transform="matrix(9,0,0,-9,207.20885,120.40814)" fill="#d4a017"/>
<use data-text="1" xlink:href="#font_2_11" transform="matrix(9,0,0,-9,213.47286,120.40814)" fill="#d4a017"/>
<use data-text="." xlink:href="#font_2_9" transform="matrix(9,0,0,-9,219.73685,120.40814)" fill="#d4a017"/>
<use data-text="3" xlink:href="#font_2_13" transform="matrix(9,0,0,-9,223.15685,120.40814)" fill="#d4a017"/>
<use data-text="%" xlink:href="#font_2_4" transform="matrix(9,0,0,-9,229.42086,120.40814)" fill="#d4a017"/>
</svg>
