<svg xmlns="http://www.w3.org/2000/svg" xmlns:xlink="http://www.w3.org/1999/xlink" xmlns:inkscape="http://www.inkscape.org/namespaces/inkscape" version="1.1" width="289.56065" height="220.82263" viewBox="0 0 289.56065 220.82263">
<defs>
<clipPath id="clip_1">
<path transform="matrix(1,0,0,-1,0,220.82263)" d="M51.960626 35.710626H285.24064V216.50263H51.960626Z"/>
</clipPath>
<path id="font_2_10" d="M.1171875 .12988281H.28320313V.6015625L.11279297 .56640627V.69433596L.28222657 .7294922H.4609375V.12988281H.6269531V0H.1171875V.12988281Z"/>
<path id="font_2_8" d="M.10205078 .18945313H.27783204V0H.10205078V.18945313Z"/>
<path id="font_2_15" d="M.06689453 .7294922H.61621096V.62345889L.33203126 0H.14892578L.41796876 .5908203H.06689453V.7294922Z"/>
<path id="font_2_12" d="M.4658203 .39257813C.51497396 .3798828 .55232748 .35782878 .57788088 .32641603 .60343429 .29500328 .61621096 .25504557 .61621096 .20654297 .61621096 .13427735 .5885417 .0793457 .5332031 .041748048 .4778646 .0041503908 .3971354-.0146484379 .29101563-.0146484379 .25358073-.0146484379 .21606446-.01163737 .1784668-.0056152346 .14086914 .00040690104 .10367838 .0094401049 .06689453 .021484375V.16699219C.10205078 .1492513 .13696289 .13586426 .17163086 .12683106 .20629883 .11779785 .24039714 .11328125 .27392579 .11328125 .32373048 .11328125 .3618978 .121907558 .38842774 .13916016 .41495768 .15641277 .42822267 .18115235 .42822267 .2133789 .42822267 .24658203 .41463218 .27172853 .38745118 .28881837 .36027018 .3059082 .32014976 .31445313 .26708985 .31445313H.19189453V.43554688H.2709961C.31819663 .43554688 .35335288 .44295249 .37646485 .45776368 .3995768 .47257487 .4111328 .4951172 .4111328 .5253906 .4111328 .55338546 .39990235 .57503256 .3774414 .59033206 .35498048 .60563156 .3232422 .61328127 .28222657 .61328127 .25195313 .61328127 .22135417 .6098226 .19042969 .6029053 .1595052 .595988 .12874349 .5857747 .09814453 .5722656V.70996096C.1352539 .7207031 .17203777 .72875979 .2084961 .73413088 .24495442 .73950198 .28076173 .7421875 .31591798 .7421875 .41064454 .7421875 .4815267 .72661849 .52856448 .69548037 .57560226 .6643524 .5991211 .61749777 .5991211 .5549164 .5991211 .5122121 .5878906 .47724916 .5654297 .45002748 .54296877 .42281596 .5097656 .40366618 .4658203 .39257813Z"/>
<path id="font_2_16" d="M.34814454 .32617188C.31298829 .32617188 .28597007 .31654869 .26708985 .29730226 .24820964 .27805583 .23876953 .25048829 .23876953 .21459961 .23876953 .17871094 .24820964 .15122478 .26708985 .13214112 .28597007 .11305746 .31298829 .103515628 .34814454 .103515628 .38297526 .103515628 .40966798 .11305746 .42822267 .13214112 .44677735 .15122478 .4560547 .17871094 .4560547 .21459961 .4560547 .2508138 .44677735 .27846275 .42822267 .2975464 .40966798 .31663005 .38297526 .32617188 .34814454 .32617188M.2109375 .388443C.16666667 .40177918 .13330078 .42227174 .110839847 .44992066 .088378909 .47756959 .07714844 .5120494 .07714844 .55336 .07714844 .6148427 .100097659 .6616821 .1459961 .6938782 .19189453 .7260844 .25927735 .7421875 .34814454 .7421875 .4363607 .7421875 .50341799 .7261658 .5493164 .6941223 .59521487 .66208907 .61816409 .6151683 .61816409 .55336 .61816409 .5120494 .60685226 .47756959 .5842285 .44992066 .5616048 .42227174 .52815756 .40177918 .48388673 .388443 .5333659 .37475077 .5707194 .3524933 .59594729 .32167054 .6211751 .29084779 .63378909 .25195823 .63378909 .20500183 .63378909 .1325938 .6097819 .07788086 .5617676 .040863038 .51375326 .0038553875 .44254557-.0146484379 .34814454-.0146484379 .25341798-.0146484379 .18188477 .0038553875 .13354492 .040863038 .08520508 .07788086 .061035158 .1325938 .061035158 .20500183 .061035158 .25195823 .073649089 .29084779 .09887695 .32167054 .12410482 .3524933 .16145833 .37475077 .2109375 .388443M.2548828 .5344238C.2548828 .5055339 .26293946 .48329673 .27905274 .4677124 .29516603 .45212809 .31819663 .44433595 .34814454 .44433595 .3774414 .44433595 .4000651 .45212809 .41601563 .4677124 .43196617 .48329673 .4399414 .5055339 .4399414 .5344238 .4399414 .5633138 .43196617 .58546957 .41601563 .6008911 .4000651 .6163127 .3774414 .62402346 .34814454 .62402346 .31819663 .62402346 .29516603 .61623129 .27905274 .600647 .26293946 .5850627 .2548828 .5629883 .2548828 .5344238Z"/>
<path id="font_2_13" d="M.36816407 .57470706 .16210938 .26953126H.36816407V.57470706M.33691407 .7294922H.54589846V.26953126H.64990237V.1328125H.54589846V0H.36816407V.1328125H.044921876V.29408265L.33691407 .7294922Z"/>
<path id="font_2_9" d="M.45996095 .3647461C.45996095 .45589195 .45141603 .5201009 .43432618 .55737307 .41723634 .5946452 .38850913 .61328127 .34814454 .61328127 .30777995 .61328127 .27897135 .5946452 .26171876 .55737307 .24446614 .5201009 .23583985 .45589195 .23583985 .3647461 .23583985 .2726237 .24446614 .2076823 .26171876 .16992188 .27897135 .13216146 .30777995 .11328125 .34814454 .11328125 .3881836 .11328125 .41682945 .13216146 .43408204 .16992188 .45133464 .2076823 .45996095 .2726237 .45996095 .3647461M.6479492 .3635254C.6479492 .24267578 .62190756 .1494344 .5698242 .08380127 .5177409 .01816813 .44384767-.0146484379 .34814454-.0146484379 .25211589-.0146484379 .17805989 .01816813 .12597656 .08380127 .07389323 .1494344 .047851564 .24267578 .047851564 .3635254 .047851564 .48470054 .07389323 .5781047 .12597656 .6437378 .17805989 .7093709 .25211589 .7421875 .34814454 .7421875 .44384767 .7421875 .5177409 .7093709 .5698242 .6437378 .62190756 .5781047 .6479492 .48470054 .6479492 .3635254Z"/>
<path id="font_2_14" d="M.10595703 .7294922H.5732422V.5908203H.25585938V.47798158C.27018229 .48189799 .28458659 .48491923 .29907228 .4870453 .31355796 .48917137 .32861329 .49023438 .34423829 .49023438 .43310548 .49023438 .5022786 .46799723 .5517578 .42352296 .601237 .37904869 .62597659 .31705729 .62597659 .23754883 .62597659 .1586914 .59903976 .096944179 .545166 .05230713 .49129234 .0076700847 .4165039-.0146484379 .32080079-.0146484379 .27945964-.0146484379 .23852539-.010701497 .19799805-.0028076173 .1574707 .005086263 .1171875 .017089844 .07714844 .033203126V.18164063C.11686198 .15885417 .15454102 .14176433 .19018555 .1303711 .22583008 .11897787 .2594401 .11328125 .29101563 .11328125 .33658854 .11328125 .3724772 .124430339 .39868165 .14672852 .42488609 .16902669 .43798829 .19921875 .43798829 .23730469 .43798829 .27571617 .42488609 .3059896 .39868165 .328125 .3724772 .3502604 .33658854 .36132813 .29101563 .36132813 .2639974 .36132813 .2351888 .35782878 .20458985 .35083009 .17399089 .3438314 .14111328 .3330078 .10595703 .31835938V.7294922Z"/>
<path id="font_2_28" d="M.091796878 .7294922H.3310547L.4970703 .33935548 .6640625 .7294922H.90283206V0H.72509768V.5336914L.5571289 .140625H.43798829L.27001954 .5336914V0H.091796878V.7294922Z"/>
<path id="font_2_45" d="M.34423829 .43554688C.3055013 .43554688 .2759603 .42159019 .25561524 .39367677 .23527019 .36576335 .22509766 .32552085 .22509766 .27294923 .22509766 .22037761 .23527019 .18013509 .25561524 .15222168 .2759603 .124308269 .3055013 .11035156 .34423829 .11035156 .38232423 .11035156 .41145835 .124308269 .43164063 .15222168 .4518229 .18013509 .46191407 .22037761 .46191407 .27294923 .46191407 .32552085 .4518229 .36576335 .43164063 .39367677 .41145835 .42159019 .38232423 .43554688 .34423829 .43554688M.34423829 .5605469C.4383138 .5605469 .5118001 .5351105 .56469729 .48423768 .6175944 .43337504 .64404299 .36294557 .64404299 .27294923 .64404299 .18295288 .6175944 .11251831 .56469729 .061645509 .5118001 .010782878 .4383138-.0146484379 .34423829-.0146484379 .24983724-.0146484379 .17602539 .010782878 .122802738 .061645509 .06958008 .11251831 .04296875 .18295288 .04296875 .27294923 .04296875 .36294557 .06958008 .43337504 .122802738 .48423768 .17602539 .5351105 .24983724 .5605469 .34423829 .5605469Z"/>
<path id="font_2_39" d="M.4560547 .46679688V.7597656H.63183596V0H.4560547V.07910156C.43196617 .04670207 .4054362 .02297465 .37646485 .0079193119 .3474935-.0071258547 .31396485-.0146484379 .2758789-.0146484379 .2084961-.0146484379 .15315755 .012171428 .10986328 .06581116 .06656901 .11945089 .044921876 .1884969 .044921876 .27294923 .044921876 .35740153 .06656901 .42644755 .10986328 .48008729 .15315755 .533727 .2084961 .5605469 .2758789 .5605469 .3136393 .5605469 .34708659 .5529378 .3762207 .5377197 .40535484 .52250167 .43196617 .4988607 .4560547 .46679688M.3408203 .11230469C.37825523 .11230469 .40681968 .12601726 .42651368 .15344239 .44620768 .18086751 .4560547 .22070313 .4560547 .27294923 .4560547 .3251953 .44620768 .3650309 .42651368 .39245606 .40681968 .4198812 .37825523 .43359376 .3408203 .43359376 .30371095 .43359376 .27530924 .4198812 .25561524 .39245606 .23592122 .3650309 .22607422 .3251953 .22607422 .27294923 .22607422 .22070313 .23592122 .18086751 .25561524 .15344239 .27530924 .12601726 .30371095 .11230469 .3408203 .11230469Z"/>
<path id="font_2_40" d="M.6298828 .2756195V.22558594H.2211914C.22542317 .1842448 .24023438 .15323894 .265625 .13256836 .29101563 .11189779 .3264974 .1015625 .3720703 .1015625 .40885417 .1015625 .4465332 .107055667 .48510743 .11804199 .52368167 .12902832 .5633138 .14567058 .6040039 .16796875V.033203126C.5626628 .017415366 .5213216 .005493164 .47998048-.0025634766 .4386393-.010620117 .3972982-.0146484379 .35595704-.0146484379 .2569987-.0146484379 .1800944 .010538737 .12524414 .060913087 .07039388 .11129761 .04296875 .18197632 .04296875 .27294923 .04296875 .36229453 .0699056 .43256126 .1237793 .4837494 .177653 .5349477 .25179038 .5605469 .3461914 .5605469 .4321289 .5605469 .5008952 .5346883 .55249026 .4829712 .60408529 .43125407 .6298828 .36213685 .6298828 .2756195M.4501953 .33398438C.4501953 .36704508 .44051109 .39370219 .42114259 .4139557 .40177409 .4342092 .37646485 .44433595 .34521485 .44433595 .3113607 .44433595 .28385417 .43485514 .2626953 .41589356 .24153646 .39693199 .22835286 .3696289 .22314453 .33398438H.4501953Z"/>
<path id="font_2_43" d="M.083984378 .7597656H.25878907V0H.083984378V.7597656Z"/>
<path id="font_2_3" d=""/>
<path id="font_2_48" d="M.51123049 .53027346V.39746095C.47379557 .41308595 .43766276 .4248047 .40283204 .4326172 .3680013 .4404297 .3351237 .44433595 .30419923 .44433595 .2709961 .44433595 .24633789 .44017539 .23022461 .43185426 .21411133 .4235433 .20605469 .41074119 .20605469 .39344789 .20605469 .37941996 .2121582 .36865235 .22436524 .36114503 .23657227 .35364787 .25846354 .34810386 .29003907 .34451295L.32080079 .34010316C.410319 .32868959 .47054038 .30993144 .50146487 .28382875 .53238937 .2577362 .54785159 .21679688 .54785159 .16101074 .54785159 .102620448 .5263672 .058746339 .48339845 .029388428 .4404297 .000030517579 .3763021-.0146484379 .29101563-.0146484379 .2548828-.0146484379 .2175293-.01180013 .17895508-.0061035158 .14038086-.00040690104 .100748699 .0081380209 .060058595 .01953125V.15234375C.09488932 .13541667 .13061524 .12272135 .16723633 .11425781 .20385742 .10579427 .24104817 .1015625 .2788086 .1015625 .31298829 .1015625 .33870445 .106292728 .35595704 .115753177 .37320964 .12521363 .38183595 .13924153 .38183595 .15783692 .38183595 .17349243 .37589518 .18515015 .36401368 .19281006 .35213218 .20048015 .32845054 .20643616 .29296876 .2106781L.26220704 .21459961C.18440755 .22438558 .12988281 .2424876 .09863281 .26890565 .06738281 .29533387 .051757814 .33545939 .051757814 .38928224 .051757814 .44734703 .071614589 .49040733 .111328128 .51846316 .15104167 .546519 .21191406 .5605469 .2939453 .5605469 .32617188 .5605469 .36002604 .55810549 .3955078 .55322268 .4309896 .54833987 .4695638 .5406901 .51123049 .53027346Z"/>
<path id="font_2_42" d="M.083984378 .546875H.25878907V0H.083984378V.546875M.083984378 .7597656H.25878907V.6171875H.083984378V.7597656Z"/>
<path id="font_2_53" d="M.057128908 .546875H.5341797V.4248047L.24609375 .125H.5341797V0H.044921876V.12207031L.3330078 .421875H.057128908V.546875Z"/>
<path id="font_2_4" d="M.37695313-.13183594H.2319336C.1821289-.051432294 .14534505 .024983725 .12158203 .09741211 .09781901 .1698405 .0859375 .24169922 .0859375 .31298829 .0859375 .38427735 .09790039 .45646159 .12182617 .529541 .14575196 .6026204 .18245442 .67903646 .2319336 .75878909H.37695313C.33528648 .6816406 .30403648 .6062012 .28320313 .5324707 .26236979 .45874024 .25195313 .38590495 .25195313 .31396485 .25195313 .24202474 .26228843 .16910808 .28295899 .095214847 .30362956 .021321616 .33496095-.05436198 .37695313-.13183594Z"/>
<path id="font_2_19" d="M.38378907 .44726563C.41341148 .44726563 .4358724 .45377604 .45117188 .46679688 .46647135 .47981773 .4741211 .49902345 .4741211 .52441409 .4741211 .5494792 .46647135 .5686035 .45117188 .5817871 .4358724 .5949707 .41341148 .6015625 .38378907 .6015625H.27978517V.44726563H.38378907M.39013673 .12792969C.42789714 .12792969 .45629884 .1359253 .4753418 .1519165 .49438478 .16790772 .50390627 .1920573 .50390627 .22436524 .50390627 .25602214 .49446617 .2797648 .47558595 .29559327 .45670573 .31142173 .42822267 .31933595 .39013673 .31933595H.27978517V.12792969H.39013673M.5649414 .390625C.60530599 .3788961 .63655599 .3572235 .6586914 .3256073 .68082687 .2939911 .69189456 .25520326 .69189456 .20924378 .69189456 .13883972 .66813156 .086364749 .62060549 .051818849 .5730794 .01727295 .5008138 0 .4038086 0H.091796878V.7294922H.37402345C.4752604 .7294922 .548584 .7141927 .59399417 .68359377 .6394043 .6529948 .6621094 .6040039 .6621094 .5366211 .6621094 .50113937 .6538086 .47094728 .63720706 .44604493 .62060549 .42114259 .5965169 .40266929 .5649414 .390625Z"/>
<path id="font_2_46" d="M.25878907 .07910156V-.20800781H.083984378V.546875H.25878907V.46679688C.2828776 .4988607 .3095703 .52250167 .3388672 .5377197 .36816407 .5529378 .40185548 .5605469 .4399414 .5605469 .5073242 .5605469 .5626628 .533727 .60595706 .48008729 .6492513 .42644755 .67089846 .35740153 .67089846 .27294923 .67089846 .1884969 .6492513 .11945089 .60595706 .06581116 .5626628 .012171428 .5073242-.0146484379 .4399414-.0146484379 .40185548-.0146484379 .36816407-.007039388 .3388672 .008178711 .3095703 .02339681 .2828776 .04703776 .25878907 .07910156M.375 .43359376C.3375651 .43359376 .3088379 .4197998 .28881837 .3922119 .26879884 .36462403 .25878907 .32486979 .25878907 .27294923 .25878907 .22102864 .26879884 .18127442 .28881837 .15368653 .3088379 .12609864 .3375651 .11230469 .375 .11230469 .4124349 .11230469 .44099937 .12601726 .46069337 .15344239 .48038737 .18086751 .49023438 .22070313 .49023438 .27294923 .49023438 .3251953 .48038737 .3650309 .46069337 .39245606 .44099937 .4198812 .4124349 .43359376 .375 .43359376Z"/>
<path id="font_2_36" d="M.32910157 .24511719C.29264323 .24511719 .2652181 .23895264 .24682617 .22662354 .22843425 .21429444 .21923828 .1961263 .21923828 .17211914 .21923828 .15006511 .22664388 .13279216 .24145508 .12030029 .25626628 .10780843 .27685548 .1015625 .30322267 .1015625 .33610026 .1015625 .36376954 .11332194 .38623048 .13684082 .4086914 .1603597 .41992188 .189799 .41992188 .22515869V.24511719H.32910157M.5961914 .31134034V0H.41992188V.08105469C.39648438 .04767863 .3701172 .023381552 .3408203 .008163452 .31152345-.007044474 .2758789-.0146484379 .23388672-.0146484379 .1772461-.0146484379 .13126628 .0018717448 .095947269 .03491211 .060628255 .06795248 .04296875 .110839847 .04296875 .16357422 .04296875 .22770183 .06502279 .2747396 .10913086 .3046875 .15323894 .3346354 .22249349 .34960938 .31689454 .34960938H.41992188V.3635559C.41992188 .39146934 .40901695 .411911 .38720704 .42488099 .36539714 .43785096 .33138023 .44433595 .28515626 .44433595 .24772136 .44433595 .21289063 .44059245 .18066406 .43310548 .1484375 .4256185 .118489589 .41438804 .09082031 .39941407V.5332031C.1282552 .54215499 .16585286 .5489502 .20361328 .55358889 .2413737 .55822756 .27913413 .5605469 .31689454 .5605469 .41552735 .5605469 .48673503 .54100546 .5305176 .5019226 .5743001 .46283976 .5961914 .39931236 .5961914 .31134034Z"/>
<path id="font_2_47" d="M.49023438 .39746095C.4749349 .40478517 .4597168 .41019694 .44458009 .4136963 .42944337 .41719566 .41422526 .4189453 .39892579 .4189453 .3540039 .4189453 .31941734 .4045156 .29516603 .37565614 .2709147 .34679667 .25878907 .3054606 .25878907 .25164796V0H.083984378V.546875H.25878907V.45703126C.28125 .49301148 .30704753 .5192566 .33618165 .5357666 .36531578 .5522868 .40022788 .5605469 .44091798 .5605469 .44677735 .5605469 .453125 .56029257 .45996095 .55978396 .46679688 .55928549 .47672526 .55819198 .4897461 .5565033L.49023438 .39746095Z"/>
<path id="font_2_44" d="M.5908203 .45619203C.61295577 .49015809 .6392415 .51604208 .66967776 .533844 .70011398 .55164596 .7335612 .5605469 .77001956 .5605469 .83284506 .5605469 .8806966 .5411682 .9135742 .5024109 .94645187 .46365357 .9628906 .40731303 .9628906 .33338929V0H.7871094V.28547669C.7874349 .28970848 .787679 .29410807 .7878418 .29867555 .7880046 .303243 .78808596 .30976359 .78808596 .3182373 .78808596 .35701499 .78238937 .38512168 .7709961 .40255738 .75960287 .41999308 .74121096 .42871095 .7158203 .42871095 .6826172 .42871095 .6569824 .4150238 .638916 .38764955 .6208496 .36027528 .6114909 .3206787 .61083987 .26885987V0H.4350586V.28547669C.4350586 .34609477 .42985026 .38512168 .4194336 .40255738 .40901695 .41999308 .39046226 .42871095 .36376954 .42871095 .33024089 .42871095 .30436198 .4149424 .2861328 .3874054 .26790367 .35986839 .25878907 .32051597 .25878907 .26934815V0H.08300781V.546875H.25878907V.46679688C.28027345 .49788413 .30493165 .52128097 .33276368 .5369873 .3605957 .55269369 .39127604 .5605469 .4248047 .5605469 .4625651 .5605469 .495931 .5514018 .52490237 .5331116 .5538737 .51482138 .5758464 .48918153 .5908203 .45619203Z"/>
<path id="font_2_6" d="M.10205078 .18945313H.27783204V.040527345L.15722656-.14160156H.053222658L.10205078 .040527345V.18945313Z"/>
<path id="font_2_41" d="M.4560547 .09277344C.43196617 .060872396 .4054362 .037434896 .37646485 .022460938 .3474935 .007486979 .31396485 0 .2758789 0 .20914714 0 .15397136 .026306153 .11035156 .07891846 .06673177 .13154094 .044921876 .19857788 .044921876 .2800293 .044921876 .36180625 .06673177 .4288381 .11035156 .48112489 .15397136 .5334218 .20914714 .5595703 .2758789 .5595703 .31396485 .5595703 .3474935 .55204269 .37646485 .5369873 .4054362 .52194216 .43196617 .49821983 .4560547 .4658203V.546875H.63183596V.05517578C.63183596-.032714845 .60408529-.099853519 .548584-.14624024 .49308268-.19262696 .41259767-.21582031 .3071289-.21582031 .27294923-.21582031 .23990886-.21317546 .20800781-.20788574 .17610677-.20259603 .14404297-.1944987 .111816409-.18359375V-.046875C.14241536-.06461588 .17236328-.07784017 .20166016-.08654785 .23095703-.09525553 .26041667-.099609378 .29003907-.099609378 .34733073-.099609378 .3893229-.08711243 .41601563-.06211853 .44270835-.037134809 .4560547 .0019632977 .4560547 .05517578V.09277344M.3408203 .43359376C.3046875 .43359376 .27652995 .42022706 .25634767 .39349366 .23616536 .36676026 .22607422 .3289388 .22607422 .2800293 .22607422 .2298177 .23583985 .19175212 .2553711 .16583252 .27490235 .13991292 .3033854 .12695313 .3408203 .12695313 .37727867 .12695313 .40559898 .14031983 .42578126 .16705323 .44596354 .19378662 .4560547 .23144531 .4560547 .2800293 .4560547 .3289388 .44596354 .36676026 .42578126 .39349366 .40559898 .42022706 .37727867 .43359376 .3408203 .43359376Z"/>
<path id="font_2_5" d="M.080078128-.13183594C.12174479-.05436198 .1529948 .021321616 .17382813 .095214847 .19466146 .16910808 .20507813 .24202474 .20507813 .31396485 .20507813 .38590495 .19466146 .45874024 .17382813 .5324707 .1529948 .6062012 .12174479 .6816406 .080078128 .75878909H.22509766C.2745768 .67903646 .3112793 .6026204 .33520509 .529541 .35913087 .45646159 .37109376 .38427735 .37109376 .31298829 .37109376 .24169922 .35921226 .1698405 .33544923 .09741211 .3116862 .024983725 .27490235-.051432294 .22509766-.13183594H.080078128Z"/>
<clipPath id="clip_3">
<path transform="matrix(1,0,0,-1,0,220.82263)" d="M51.960626 35.710626H285.24064V216.50263H51.960626Z"/>
</clipPath>
<clipPath id="clip_4">
<path transform="matrix(1,0,0,-1,0,220.82263)" d="M51.960626 35.710626H285.24064V216.50263H51.960626Z"/>
</clipPath>
<path id="font_2_17" d="M.100097659 .015625V.15039063C.13004558 .13639324 .1586914 .12589519 .18603516 .118896488 .2133789 .11189779 .24039714 .10839844 .26708985 .10839844 .32307945 .10839844 .36669923 .12398275 .39794923 .15515137 .42919923 .18631999 .44759117 .23258464 .453125 .2939453 .4309896 .27766929 .4073893 .26546226 .38232423 .25732423 .35725913 .2491862 .33007813 .24511719 .30078126 .24511719 .22623699 .24511719 .166097 .2668457 .12036133 .31030274 .07462565 .35375978 .051757814 .41097007 .051757814 .4819336 .051757814 .5603841 .07722982 .62320968 .12817383 .67041018 .17911785 .71761068 .24739583 .74121096 .3330078 .74121096 .4280599 .74121096 .5016276 .7091268 .55371096 .6449585 .60579428 .5807902 .63183596 .49007163 .63183596 .37280274 .63183596 .25228883 .6013997 .1575826 .54052737 .08868408 .47965495 .019795737 .39615885-.0146484379 .29003907-.0146484379 .25585938-.0146484379 .22314453-.012125651 .19189453-.007080078 .16064453-.0020345052 .13004558 .005533854 .100097659 .015625M.33203126 .3671875C.36490885 .3671875 .38964845 .3778483 .40625 .39916993 .42285157 .42049156 .43115235 .45247398 .43115235 .4951172 .43115235 .5374349 .42285157 .56933596 .40625 .5908203 .38964845 .6123047 .36490885 .6230469 .33203126 .6230469 .29915367 .6230469 .27441407 .6123047 .2578125 .5908203 .24121094 .56933596 .23291016 .5374349 .23291016 .4951172 .23291016 .45247398 .24121094 .42049156 .2578125 .39916993 .27441407 .3778483 .29915367 .3671875 .33203126 .3671875Z"/>
<clipPath id="clip_5">
<path transform="matrix(1,0,0,-1,0,220.82263)" d="M51.960626 35.710626H285.24064V216.50263H51.960626Z"/>
</clipPath>
<clipPath id="clip_6">
<path transform="matrix(1,0,0,-1,0,220.82263)" d="M51.960626 35.710626H285.24064V216.50263H51.960626Z"/>
</clipPath>
<clipPath id="clip_7">
<path transform="matrix(1,0,0,-1,0,220.82263)" d="M51.960626 35.710626H285.24064V216.50263H51.960626Z"/>
</clipPath>
<clipPath id="clip_8">
<path transform="matrix(1,0,0,-1,0,220.82263)" d="M51.960626 35.710626H285.24064V216.50263H51.960626Z"/>
</clipPath>
<clipPath id="clip_9">
<path transform="matrix(1,0,0,-1,0,220.82263)" d="M51.960626 35.710626H285.24064V216.50263H51.960626Z"/>
</clipPath>
<path id="font_2_32" d="M.44482423-.013671875H.43017579C.3100586-.013671875 .21663411 .019551596 .14990235 .085998538 .08317057 .15244548 .049804689 .24495442 .049804689 .3635254 .049804689 .48176066 .083089198 .5744273 .1496582 .64152529 .21622722 .7086334 .30794273 .7421875 .4248047 .7421875 .54296877 .7421875 .63500979 .70896407 .70092776 .6425171 .7668457 .5760803 .7998047 .48309837 .7998047 .36357118 .7998047 .28149925 .7823079 .2108256 .74731448 .1515503 .712321 .092274989 .6619466 .0476532 .5961914 .017684937L.74316409-.14648438H.56396487L.44482423-.013671875M.4248047 .60546877C.36751304 .60546877 .32307945 .58433029 .2915039 .5420532 .25992839 .4997762 .24414063 .44026695 .24414063 .3635254 .24414063 .28548179 .25960288 .22572835 .29052735 .18426514 .3214518 .14280193 .36621095 .12207031 .4248047 .12207031 .48242188 .12207031 .52701827 .14320882 .55859377 .18548584 .59016928 .22776287 .60595706 .28710938 .60595706 .3635254 .60595706 .44026695 .59016928 .4997762 .55859377 .5420532 .52701827 .58433029 .48242188 .60546877 .4248047 .60546877Z"/>
<path id="font_2_50" d="M.078125 .21289063V.546875H.25390626V.4921875C.25390626 .4625651 .2537435 .42537437 .25341798 .38061524 .25309245 .3358561 .2529297 .3059896 .2529297 .29101563 .2529297 .24707031 .254069 .2154134 .25634767 .19604492 .2586263 .17667644 .26253257 .16259766 .2680664 .1538086 .27522788 .14241536 .28458659 .1336263 .29614259 .1274414 .30769859 .12125651 .32096354 .11816406 .3359375 .11816406 .37239585 .11816406 .40104167 .13216146 .421875 .16015625 .44270835 .18815105 .453125 .22705078 .453125 .27685548V.546875H.6279297V0H.453125V.07910156C.4267578 .04703776 .3988444 .02339681 .36938478 .008178711 .33992515-.007039388 .30745445-.0146484379 .27197267-.0146484379 .20882161-.0146484379 .1607259 .004760742 .12768555 .0435791 .09464518 .08239746 .078125 .13883464 .078125 .21289063Z"/>
<path id="font_2_49" d="M.27490235 .70214846V.546875H.45507813V.421875H.27490235V.1899414C.27490235 .16455078 .2799479 .14737956 .29003907 .13842774 .30013023 .1294759 .32014976 .125 .35009767 .125H.4399414V0H.29003907C.22102864 0 .17211914 .014404297 .14331055 .04321289 .11450195 .072021488 .100097659 .12093099 .100097659 .1899414V.421875H.013183594V.546875H.100097659V.70214846H.27490235Z"/>
<path id="font_2_52" d="M.012207031 .546875H.18701172L.33398438 .17578125 .45898438 .546875H.63378909L.4038086-.05130005C.38069663-.112345378 .35375978-.15502422 .32299806-.17933655 .29223634-.20365906 .2516276-.21582031 .20117188-.21582031H.100097659V-.10058594H.15478516C.18440755-.10058594 .20597331-.09588623 .21948242-.08648682 .23299153-.07709757 .24348958-.060256959 .25097657-.035964967L.25585938-.020828248 .012207031 .546875Z"/>
<path id="font_2_51" d="M.015136719 .546875H.1899414L.32617188 .16894531 .46191407 .546875H.63720706L.421875 0H.22998047L.015136719 .546875Z"/>
<clipPath id="clip_10">
<path transform="matrix(1,0,0,-1,0,220.82263)" d="M51.960626 35.710626H285.24064V216.50263H51.960626Z"/>
</clipPath>
<path id="font_2_24" d="M.7470703 .053955079C.7001953 .03108724 .65152999 .01393636 .6010742 .0025024415 .55061849-.008931478 .49853517-.0146484379 .44482423-.0146484379 .32340495-.0146484379 .22721355 .019307455 .15625 .08721924 .08528646 .15514119 .049804689 .24724324 .049804689 .3635254 .049804689 .48110963 .0859375 .57361349 .15820313 .641037 .23046875 .70847067 .3294271 .7421875 .45507813 .7421875 .50358077 .7421875 .5500488 .73760989 .5944824 .7284546 .638916 .7193095 .68082687 .7057546 .72021487 .6877899V.5361328C.6795247 .55940756 .6390788 .5767822 .59887698 .58825686 .5586751 .59973147 .5183919 .60546877 .47802735 .60546877 .40315757 .60546877 .34545899 .5845744 .30493165 .54278567 .2644043 .5009969 .24414063 .4412435 .24414063 .3635254 .24414063 .28645835 .26367188 .22694905 .30273438 .18499756 .34179688 .14304607 .3972982 .12207031 .46923829 .12207031 .48876954 .12207031 .5069173 .123291019 .52368167 .12573242 .540446 .128184 .5555013 .13202413 .56884768 .13725281V.27929688H.45410157V.40527345H.7470703V.053955079Z"/>
<path id="font_2_31" d="M.091796878 .7294922H.4038086C.49658204 .7294922 .56778976 .70888265 .61743167 .6676636 .66707357 .6264445 .69189456 .5677083 .69189456 .49145509 .69189456 .4148763 .66707357 .3559774 .61743167 .3147583 .56778976 .27353923 .49658204 .2529297 .4038086 .2529297H.27978517V0H.091796878V.7294922M.27978517 .59277346V.38964845H.38378907C.4202474 .38964845 .44840495 .39849855 .46826173 .41619874 .4881185 .43389894 .49804688 .45898438 .49804688 .49145509 .49804688 .5239258 .4881185 .54892989 .46826173 .5664673 .44840495 .5840047 .4202474 .59277346 .38378907 .59277346H.27978517Z"/>
<path id="font_2_35" d="M.0048828127 .7294922H.6767578V.58691409H.4350586V0H.24707031V.58691409H.0048828127V.7294922Z"/>
<path id="font_2_7" d="M.05419922 .359375H.36083985V.21679688H.05419922V.359375Z"/>
<path id="font_2_38" d="M.5258789 .53027346V.3876953C.5021159 .40397135 .47827149 .41601563 .4543457 .42382813 .43041993 .43164063 .40559898 .43554688 .3798828 .43554688 .3310547 .43554688 .29305015 .42125956 .26586915 .39268495 .23868816 .36412049 .22509766 .3242086 .22509766 .27294923 .22509766 .22168987 .23868816 .18177288 .26586915 .15319824 .29305015 .12463379 .3310547 .11035156 .3798828 .11035156 .40722657 .11035156 .43318687 .114461269 .45776368 .122680667 .48234049 .13090007 .5050456 .1430664 .5258789 .15917969V.015625C.49853517 .005533854 .47078453-.0020345052 .44262696-.007080078 .4144694-.012125651 .38623048-.0146484379 .35791017-.0146484379 .25927735-.0146484379 .1821289 .010701497 .12646485 .061401369 .07080078 .11211141 .04296875 .18262737 .04296875 .27294923 .04296875 .3632711 .07080078 .43378196 .12646485 .4844818 .1821289 .53519186 .25927735 .5605469 .35791017 .5605469 .386556 .5605469 .41479493 .5580241 .44262696 .5529785 .47045899 .5479329 .49820964 .54036459 .5258789 .53027346Z"/>
<clipPath id="clip_11">
<path transform="matrix(1,0,0,-1,0,220.82263)" d="M51.960626 35.710626H285.24064V216.50263H51.960626Z"/>
</clipPath>
<path id="font_2_34" d="M.5991211 .7059326V.55078127C.55908206 .56884768 .52001956 .5824788 .4819336 .5916748 .44384767 .6008708 .4078776 .60546877 .37402345 .60546877 .32910157 .60546877 .29589845 .59927877 .27441407 .5868988 .2529297 .574529 .2421875 .5553131 .2421875 .5292511 .2421875 .50970968 .24943035 .4944814 .26391603 .48356629 .2784017 .47265116 .3046875 .46328736 .34277345 .45547486L.42285157 .4394226C.50390627 .42314659 .56152346 .39840699 .5957031 .36520387 .6298828 .3320109 .64697268 .28481547 .64697268 .22361756 .64697268 .14321392 .62312826 .08339945 .57543948 .044174196 .5277507 .0049591066 .45491538-.0146484379 .3569336-.0146484379 .31070964-.0146484379 .2643229-.010238647 .21777344-.0014190674 .17122396 .0074005129 .12467448 .020467123 .078125 .03778076V.19726563C.12467448 .17236328 .16967774 .15360515 .21313477 .14099121 .2565918 .12837728 .2985026 .12207031 .3388672 .12207031 .3798828 .12207031 .41129557 .12891133 .43310548 .14259339 .45491538 .15627544 .4658203 .17582195 .4658203 .20123291 .4658203 .22402954 .4584147 .24161785 .44360353 .2539978 .42879234 .26637779 .3992513 .27745567 .35498048 .28723146L.28222657 .30326844C.20930989 .31889344 .15600586 .34379069 .12231445 .3779602 .08862305 .4121399 .071777347 .45820109 .071777347 .5161438 .071777347 .5887248 .095214847 .64454147 .14208985 .68359377 .18896485 .72265627 .25634767 .7421875 .34423829 .7421875 .38427735 .7421875 .42545573 .73916628 .46777345 .7331238 .5100911 .7270813 .5538737 .7180176 .5991211 .7059326Z"/>
<path id="font_2_23" d="M.091796878 .7294922H.5991211V.58691409H.27978517V.45214845H.5800781V.3095703H.27978517V0H.091796878V.7294922Z"/>
<path id="font_2_33" d="M.35888673 .40625C.39827476 .40625 .42651368 .41355387 .44360353 .42816163 .46069337 .44276939 .46923829 .46679688 .46923829 .50024417 .46923829 .5333557 .46069337 .5570526 .44360353 .57133486 .42651368 .58562728 .39827476 .59277346 .35888673 .59277346H.27978517V.40625H.35888673M.27978517 .2763672V0H.091796878V.7294922H.37890626C.4749349 .7294922 .5453288 .7133789 .5900879 .68115237 .634847 .6489258 .65722659 .59798178 .65722659 .5283203 .65722659 .48014323 .6455892 .44059245 .62231448 .40966798 .59903976 .3787435 .56396487 .35595704 .51708987 .3413086 .54280599 .33543907 .5658366 .3221588 .58618167 .3014679 .6065267 .28078715 .6271159 .24943035 .6479492 .20739746L.75 0H.5498047L.4609375 .18147278C.44303385 .21799214 .42488609 .24293518 .40649415 .25630189 .3881022 .26967875 .36360679 .2763672 .3330078 .2763672H.27978517Z"/>
<path id="font_2_27" d="M.091796878 .7294922H.27978517V.14257813H.6098633V0H.091796878V.7294922Z"/>
<path id="font_2_37" d="M.375 .11230469C.4124349 .11230469 .44099937 .12601726 .46069337 .15344239 .48038737 .18086751 .49023438 .22070313 .49023438 .27294923 .49023438 .3251953 .48038737 .3650309 .46069337 .39245606 .44099937 .4198812 .4124349 .43359376 .375 .43359376 .3375651 .43359376 .3088379 .4197998 .28881837 .3922119 .26879884 .36462403 .25878907 .32486979 .25878907 .27294923 .25878907 .22102864 .26879884 .18127442 .28881837 .15368653 .3088379 .12609864 .3375651 .11230469 .375 .11230469M.25878907 .46679688C.2828776 .4988607 .3095703 .52250167 .3388672 .5377197 .36816407 .5529378 .40185548 .5605469 .4399414 .5605469 .5073242 .5605469 .5626628 .533727 .60595706 .48008729 .6492513 .42644755 .67089846 .35740153 .67089846 .27294923 .67089846 .1884969 .6492513 .11945089 .60595706 .06581116 .5626628 .012171428 .5073242-.0146484379 .4399414-.0146484379 .40185548-.0146484379 .36816407-.007039388 .3388672 .008178711 .3095703 .02339681 .2828776 .04703776 .25878907 .07910156V0H.083984378V.7597656H.25878907V.46679688Z"/>
<path id="font_2_25" d="M.091796878 .7294922H.27978517V0H.091796878V.7294922Z"/>
<path id="font_2_29" d="M.091796878 .7294922H.3017578L.56689456 .2291565V.7294922H.7451172V0H.53515627L.27001954 .5003357V0H.091796878V.7294922Z"/>
<path id="font_2_22" d="M.091796878 .7294922H.5991211V.58691409H.27978517V.45214845H.5800781V.3095703H.27978517V.14257813H.6098633V0H.091796878V.7294922Z"/>
<path id="font_2_20" d="M.6699219 .039749147C.6354167 .021784464 .5994466 .008229573 .5620117-.00091552737 .52457687-.010070801 .4855143-.0146484379 .44482423-.0146484379 .32340495-.0146484379 .22721355 .019307455 .15625 .08721924 .08528646 .15514119 .049804689 .24724324 .049804689 .3635254 .049804689 .48013307 .08528646 .57239279 .15625 .64030459 .22721355 .7082265 .32340495 .7421875 .44482423 .7421875 .4855143 .7421875 .52457687 .73760989 .5620117 .7284546 .5994466 .7193095 .6354167 .7057546 .6699219 .6877899V.5361328C.6350911 .5600688 .6007487 .5776062 .56689456 .5887451 .53304037 .5998942 .49739585 .60546877 .45996095 .60546877 .39290367 .60546877 .34016929 .5840047 .3017578 .54107668 .26334635 .49815879 .24414063 .438975 .24414063 .3635254 .24414063 .28840129 .26334635 .2293752 .3017578 .18644715 .34016929 .14352925 .39290367 .12207031 .45996095 .12207031 .49739585 .12207031 .53304037 .12763977 .56689456 .13877869 .6007487 .14992778 .6350911 .16747029 .6699219 .19140625V.039749147Z"/>
<path id="font_2_30" d="M.4248047 .60546877C.36751304 .60546877 .32307945 .58433029 .2915039 .5420532 .25992839 .4997762 .24414063 .44026695 .24414063 .3635254 .24414063 .28710938 .25992839 .22776287 .2915039 .18548584 .32307945 .14320882 .36751304 .12207031 .4248047 .12207031 .48242188 .12207031 .52701827 .14320882 .55859377 .18548584 .59016928 .22776287 .60595706 .28710938 .60595706 .3635254 .60595706 .44026695 .59016928 .4997762 .55859377 .5420532 .52701827 .58433029 .48242188 .60546877 .4248047 .60546877M.4248047 .7421875C.5419922 .7421875 .63378909 .7086334 .7001953 .64152529 .76660159 .5744273 .7998047 .48176066 .7998047 .3635254 .7998047 .24561565 .76660159 .15310669 .7001953 .085998538 .63378909 .018900553 .5419922-.0146484379 .4248047-.0146484379 .30794273-.0146484379 .21622722 .018900553 .1496582 .085998538 .083089198 .15310669 .049804689 .24561565 .049804689 .3635254 .049804689 .48176066 .083089198 .5744273 .1496582 .64152529 .21622722 .7086334 .30794273 .7421875 .4248047 .7421875Z"/>
<path id="font_2_26" d="M.091796878 .7294922H.27978517V.07128906C.27978517-.01969401 .25512696-.08768717 .20581055-.13269043 .15649414-.17769368 .08186849-.20019531-.018066407-.20019531H-.056152345V-.057617189H-.026855469C.012207031-.057617189 .041748048-.04671224 .061767579-.024902344 .08178711-.003092448 .091796878 .028971354 .091796878 .07128906V.7294922Z"/>
<path id="font_2_21" d="M.27978517 .58691409V.14257813H.34716798C.42399089 .14257813 .48266603 .16160076 .52319338 .199646 .5637207 .23769124 .5839844 .29296876 .5839844 .36547853 .5839844 .43766276 .56380209 .49261476 .5234375 .5303345 .4830729 .5680542 .4243164 .58691409 .34716798 .58691409H.27978517M.091796878 .7294922H.29003907C.40071617 .7294922 .4831543 .7215932 .5373535 .7057953 .59155276 .6899974 .6380208 .66320297 .6767578 .625412 .7109375 .59251406 .7363281 .5545654 .7529297 .51156619 .76953127 .46857707 .77783206 .4198812 .77783206 .36547853 .77783206 .3104248 .76953127 .26131694 .7529297 .2181549 .7363281 .17500305 .7109375 .13697815 .6767578 .1040802 .6376953 .06628927 .5908203 .03949483 .5361328 .0236969 .4814453 .007898967 .39941407 0 .29003907 0H.091796878V.7294922Z"/>
<path id="font_2_11" d="M.28808595 .13867188H.6088867V0H.07910156V.13867188L.34521485 .37324525C.36897788 .39466859 .386556 .41560365 .39794923 .43605042 .40934245 .4564972 .41503907 .47775779 .41503907 .49983216 .41503907 .5339203 .40356446 .5613505 .38061524 .5821228 .35766603 .6028951 .32714845 .61328127 .2890625 .61328127 .25976563 .61328127 .22770183 .60705569 .1928711 .5946045 .15804036 .5821533 .12076823 .56363937 .08105469 .5390625V.69921877C.1233724 .7132161 .16520183 .72387698 .20654297 .7312012 .24788411 .7385254 .28841148 .7421875 .328125 .7421875 .4153646 .7421875 .4831543 .72299197 .53149417 .68460085 .579834 .6462199 .6040039 .5927124 .6040039 .52407839 .6040039 .48438517 .59375 .44737754 .5732422 .41305543 .5527344 .3787435 .50960287 .3327993 .44384767 .27522279L.28808595 .13867188Z"/>
<path id="font_2_18" d="M.5341797 .1328125H.24023438L.19384766 0H.0048828127L.27490235 .7294922H.49902345L.76904299 0H.5800781L.5341797 .1328125M.28710938 .2685547H.4868164L.38720704 .55859377 .28710938 .2685547Z"/>
</defs>
<path transform="matrix(1,0,0,-1,0,220.82263)" d="M0 0H289.56065V220.82263H0Z" fill="#ffffff"/>
<path transform="matrix(1,0,0,-1,0,220.82263)" d="M51.960626 35.710626H285.24064V216.50263H51.960626Z" fill="#ffffff"/>
<g clip-path="url(#clip_1)">
<g>
<path transform="matrix(1,0,0,-1,0,220.82263)" d="M51.960626 112.813098H285.24064V227.13745H51.960626Z" fill="#1f6f6f" fill-opacity=".06"/>
<path transform="matrix(1,0,0,-1,0,220.82263)" stroke-width="1" stroke-linecap="butt" stroke-miterlimit="10" stroke-linejoin="miter" fill="none" stroke="#1f6f6f" stroke-opacity=".06" d="M51.960626 112.813098H285.24064V227.13745H51.960626Z"/>
</g>
</g>
<path transform="matrix(1,0,0,-1,0,220.82263)" d="M62.405588 35.710626V32.710626" fill="#1f2937"/>
<path transform="matrix(1,0,0,-1,0,220.82263)" stroke-width=".7" stroke-linecap="butt" stroke-linejoin="round" fill="none" stroke="#1f2937" d="M62.405588 35.710626V32.710626"/>
<use data-text="1" xlink:href="#font_2_10" transform="matrix(9.5,0,0,-9.5,53.991525,198.70575)" fill="#1f2937"/>
<use data-text="." xlink:href="#font_2_8" transform="matrix(9.5,0,0,-9.5,60.603525,198.70575)" fill="#1f2937"/>
<use data-text="7" xlink:href="#font_2_15" transform="matrix(9.5,0,0,-9.5,64.213527,198.70575)" fill="#1f2937"/>
<path transform="matrix(1,0,0,-1,0,220.82263)" d="M93.72416 35.710626V32.710626" fill="#1f2937"/>
<path transform="matrix(1,0,0,-1,0,220.82263)" stroke-width=".7" stroke-linecap="butt" stroke-linejoin="round" fill="none" stroke="#1f2937" d="M93.72416 35.710626V32.710626"/>
<use data-text="3" xlink:href="#font_2_12" transform="matrix(9.5,0,0,-9.5,85.3101,198.70575)" fill="#1f2937"/>
<use data-text="." xlink:href="#font_2_8" transform="matrix(9.5,0,0,-9.5,91.9221,198.70575)" fill="#1f2937"/>
<use data-text="8" xlink:href="#font_2_16" transform="matrix(9.5,0,0,-9.5,95.5321,198.70575)" fill="#1f2937"/>
<path transform="matrix(1,0,0,-1,0,220.82263)" d="M117.51014 35.710626V32.710626" fill="#1f2937"/>
<path transform="matrix(1,0,0,-1,0,220.82263)" stroke-width=".7" stroke-linecap="butt" stroke-linejoin="round" fill="none" stroke="#1f2937" d="M117.51014 35.710626V32.710626"/>
<use data-text="7" xlink:href="#font_2_15" transform="matrix(9.5,0,0,-9.5,114.20545,198.70575)" fill="#1f2937"/>
<path transform="matrix(1,0,0,-1,0,220.82263)" d="M144.4981 35.710626V32.710626" fill="#1f2937"/>
<path transform="matrix(1,0,0,-1,0,220.82263)" stroke-width=".7" stroke-linecap="butt" stroke-linejoin="round" fill="none" stroke="#1f2937" d="M144.4981 35.710626V32.710626"/>
<use data-text="1" xlink:href="#font_2_10" transform="matrix(9.5,0,0,-9.5,137.88872,198.70575)" fill="#1f2937"/>
<use data-text="4" xlink:href="#font_2_13" transform="matrix(9.5,0,0,-9.5,144.50072,198.70575)" fill="#1f2937"/>
<path transform="matrix(1,0,0,-1,0,220.82263)" d="M207.16219 35.710626V32.710626" fill="#1f2937"/>
<path transform="matrix(1,0,0,-1,0,220.82263)" stroke-width=".7" stroke-linecap="butt" stroke-linejoin="round" fill="none" stroke="#1f2937" d="M207.16219 35.710626V32.710626"/>
<use data-text="7" xlink:href="#font_2_15" transform="matrix(9.5,0,0,-9.5,200.55281,198.70575)" fill="#1f2937"/>
<use data-text="0" xlink:href="#font_2_9" transform="matrix(9.5,0,0,-9.5,207.16481,198.70575)" fill="#1f2937"/>
<path transform="matrix(1,0,0,-1,0,220.82263)" d="M242.83832 35.710626V32.710626" fill="#1f2937"/>
<path transform="matrix(1,0,0,-1,0,220.82263)" stroke-width=".7" stroke-linecap="butt" stroke-linejoin="round" fill="none" stroke="#1f2937" d="M242.83832 35.710626V32.710626"/>
<use data-text="1" xlink:href="#font_2_10" transform="matrix(9.5,0,0,-9.5,232.92426,198.70575)" fill="#1f2937"/>
<use data-text="7" xlink:href="#font_2_15" transform="matrix(9.5,0,0,-9.5,239.53626,198.70575)" fill="#1f2937"/>
<use data-text="5" xlink:href="#font_2_14" transform="matrix(9.5,0,0,-9.5,246.14826,198.70575)" fill="#1f2937"/>
<path transform="matrix(1,0,0,-1,0,220.82263)" d="M68.73332 35.710626V33.710626" fill="#1f2937"/>
<path transform="matrix(1,0,0,-1,0,220.82263)" stroke-width=".6" stroke-linecap="butt" stroke-linejoin="round" fill="none" stroke="#1f2937" d="M68.73332 35.710626V33.710626"/>
<path transform="matrix(1,0,0,-1,0,220.82263)" d="M84.52026 35.710626V33.710626" fill="#1f2937"/>
<path transform="matrix(1,0,0,-1,0,220.82263)" stroke-width=".6" stroke-linecap="butt" stroke-linejoin="round" fill="none" stroke="#1f2937" d="M84.52026 35.710626V33.710626"/>
<path transform="matrix(1,0,0,-1,0,220.82263)" d="M95.72128 35.710626V33.710626" fill="#1f2937"/>
<path transform="matrix(1,0,0,-1,0,220.82263)" stroke-width=".6" stroke-linecap="butt" stroke-linejoin="round" fill="none" stroke="#1f2937" d="M95.72128 35.710626V33.710626"/>
<path transform="matrix(1,0,0,-1,0,220.82263)" d="M104.40946 35.710626V33.710626" fill="#1f2937"/>
<path transform="matrix(1,0,0,-1,0,220.82263)" stroke-width=".6" stroke-linecap="butt" stroke-linejoin="round" fill="none" stroke="#1f2937" d="M104.40946 35.710626V33.710626"/>
<path transform="matrix(1,0,0,-1,0,220.82263)" d="M111.508228 35.710626V33.710626" fill="#1f2937"/>
<path transform="matrix(1,0,0,-1,0,220.82263)" stroke-width=".6" stroke-linecap="butt" stroke-linejoin="round" fill="none" stroke="#1f2937" d="M111.508228 35.710626V33.710626"/>
<path transform="matrix(1,0,0,-1,0,220.82263)" d="M122.709239 35.710626V33.710626" fill="#1f2937"/>
<path transform="matrix(1,0,0,-1,0,220.82263)" stroke-width=".6" stroke-linecap="butt" stroke-linejoin="round" fill="none" stroke="#1f2937" d="M122.709239 35.710626V33.710626"/>
<path transform="matrix(1,0,0,-1,0,220.82263)" d="M127.295169 35.710626V33.710626" fill="#1f2937"/>
<path transform="matrix(1,0,0,-1,0,220.82263)" stroke-width=".6" stroke-linecap="butt" stroke-linejoin="round" fill="none" stroke="#1f2937" d="M127.295169 35.710626V33.710626"/>
<path transform="matrix(1,0,0,-1,0,220.82263)" d="M158.38538 35.710626V33.710626" fill="#1f2937"/>
<path transform="matrix(1,0,0,-1,0,220.82263)" stroke-width=".6" stroke-linecap="butt" stroke-linejoin="round" fill="none" stroke="#1f2937" d="M158.38538 35.710626V33.710626"/>
<path transform="matrix(1,0,0,-1,0,220.82263)" d="M174.17232 35.710626V33.710626" fill="#1f2937"/>
<path transform="matrix(1,0,0,-1,0,220.82263)" stroke-width=".6" stroke-linecap="butt" stroke-linejoin="round" fill="none" stroke="#1f2937" d="M174.17232 35.710626V33.710626"/>
<path transform="matrix(1,0,0,-1,0,220.82263)" d="M185.37332 35.710626V33.710626" fill="#1f2937"/>
<path transform="matrix(1,0,0,-1,0,220.82263)" stroke-width=".6" stroke-linecap="butt" stroke-linejoin="round" fill="none" stroke="#1f2937" d="M185.37332 35.710626V33.710626"/>
<path transform="matrix(1,0,0,-1,0,220.82263)" d="M194.06151 35.710626V33.710626" fill="#1f2937"/>
<path transform="matrix(1,0,0,-1,0,220.82263)" stroke-width=".6" stroke-linecap="butt" stroke-linejoin="round" fill="none" stroke="#1f2937" d="M194.06151 35.710626V33.710626"/>
<path transform="matrix(1,0,0,-1,0,220.82263)" d="M201.16027 35.710626V33.710626" fill="#1f2937"/>
<path transform="matrix(1,0,0,-1,0,220.82263)" stroke-width=".6" stroke-linecap="butt" stroke-linejoin="round" fill="none" stroke="#1f2937" d="M201.16027 35.710626V33.710626"/>
<path transform="matrix(1,0,0,-1,0,220.82263)" d="M212.36128 35.710626V33.710626" fill="#1f2937"/>
<path transform="matrix(1,0,0,-1,0,220.82263)" stroke-width=".6" stroke-linecap="butt" stroke-linejoin="round" fill="none" stroke="#1f2937" d="M212.36128 35.710626V33.710626"/>
<path transform="matrix(1,0,0,-1,0,220.82263)" d="M216.9472 35.710626V33.710626" fill="#1f2937"/>
<path transform="matrix(1,0,0,-1,0,220.82263)" stroke-width=".6" stroke-linecap="butt" stroke-linejoin="round" fill="none" stroke="#1f2937" d="M216.9472 35.710626V33.710626"/>
<path transform="matrix(1,0,0,-1,0,220.82263)" d="M248.03742 35.710626V33.710626" fill="#1f2937"/>
<path transform="matrix(1,0,0,-1,0,220.82263)" stroke-width=".6" stroke-linecap="butt" stroke-linejoin="round" fill="none" stroke="#1f2937" d="M248.03742 35.710626V33.710626"/>
<path transform="matrix(1,0,0,-1,0,220.82263)" d="M263.82438 35.710626V33.710626" fill="#1f2937"/>
<path transform="matrix(1,0,0,-1,0,220.82263)" stroke-width=".6" stroke-linecap="butt" stroke-linejoin="round" fill="none" stroke="#1f2937" d="M263.82438 35.710626V33.710626"/>
<path transform="matrix(1,0,0,-1,0,220.82263)" d="M275.02537 35.710626V33.710626" fill="#1f2937"/>
<path transform="matrix(1,0,0,-1,0,220.82263)" stroke-width=".6" stroke-linecap="butt" stroke-linejoin="round" fill="none" stroke="#1f2937" d="M275.02537 35.710626V33.710626"/>
<path transform="matrix(1,0,0,-1,0,220.82263)" d="M283.71357 35.710626V33.710626" fill="#1f2937"/>
<path transform="matrix(1,0,0,-1,0,220.82263)" stroke-width=".6" stroke-linecap="butt" stroke-linejoin="round" fill="none" stroke="#1f2937" d="M283.71357 35.710626V33.710626"/>
<use data-text="M" xlink:href="#font_2_28" transform="matrix(12,0,0,-12,78.569377,213.90888)" fill="#1f2937"/>
<use data-text="o" xlink:href="#font_2_45" transform="matrix(12,0,0,-12,90.50938,213.90888)" fill="#1f2937"/>
<use data-text="d" xlink:href="#font_2_39" transform="matrix(12,0,0,-12,98.75337,213.90888)" fill="#1f2937"/>
<use data-text="e" xlink:href="#font_2_40" transform="matrix(12,0,0,-12,107.345378,213.90888)" fill="#1f2937"/>
<use data-text="l" xlink:href="#font_2_43" transform="matrix(12,0,0,-12,115.48138,213.90888)" fill="#1f2937"/>
<use data-text=" " xlink:href="#font_2_3" transform="matrix(12,0,0,-12,119.59738,213.90888)" fill="#1f2937"/>
<use data-text="s" xlink:href="#font_2_48" transform="matrix(12,0,0,-12,123.77338,213.90888)" fill="#1f2937"/>
<use data-text="i" xlink:href="#font_2_42" transform="matrix(12,0,0,-12,130.91338,213.90888)" fill="#1f2937"/>
<use data-text="z" xlink:href="#font_2_53" transform="matrix(12,0,0,-12,135.02938,213.90888)" fill="#1f2937"/>
<use data-text="e" xlink:href="#font_2_40" transform="matrix(12,0,0,-12,142.01338,213.90888)" fill="#1f2937"/>
<use data-text=" " xlink:href="#font_2_3" transform="matrix(12,0,0,-12,150.14939,213.90888)" fill="#1f2937"/>
<use data-text="(" xlink:href="#font_2_4" transform="matrix(12,0,0,-12,154.32538,213.90888)" fill="#1f2937"/>
<use data-text="B" xlink:href="#font_2_19" transform="matrix(12,0,0,-12,159.80939,213.90888)" fill="#1f2937"/>
<use data-text=" " xlink:href="#font_2_3" transform="matrix(12,0,0,-12,168.95337,213.90888)" fill="#1f2937"/>
<use data-text="p" xlink:href="#font_2_46" transform="matrix(12,0,0,-12,173.12938,213.90888)" fill="#1f2937"/>
<use data-text="a" xlink:href="#font_2_36" transform="matrix(12,0,0,-12,181.72138,213.90888)" fill="#1f2937"/>
<use data-text="r" xlink:href="#font_2_47" transform="matrix(12,0,0,-12,189.82138,213.90888)" fill="#1f2937"/>
<use data-text="a" xlink:href="#font_2_36" transform="matrix(12,0,0,-12,195.73738,213.90888)" fill="#1f2937"/>
<use data-text="m" xlink:href="#font_2_44" transform="matrix(12,0,0,-12,203.83737,213.90888)" fill="#1f2937"/>
<use data-text="s" xlink:href="#font_2_48" transform="matrix(12,0,0,-12,216.34137,213.90888)" fill="#1f2937"/>
<use data-text="," xlink:href="#font_2_6" transform="matrix(12,0,0,-12,223.48139,213.90888)" fill="#1f2937"/>
<use data-text=" " xlink:href="#font_2_3" transform="matrix(12,0,0,-12,228.04138,213.90888)" fill="#1f2937"/>
<use data-text="l" xlink:href="#font_2_43" transform="matrix(12,0,0,-12,232.21738,213.90888)" fill="#1f2937"/>
<use data-text="o" xlink:href="#font_2_45" transform="matrix(12,0,0,-12,236.33338,213.90888)" fill="#1f2937"/>
<use data-text="g" xlink:href="#font_2_41" transform="matrix(12,0,0,-12,244.57736,213.90888)" fill="#1f2937"/>
<use data-text=")" xlink:href="#font_2_5" transform="matrix(12,0,0,-12,253.16938,213.90888)" fill="#1f2937"/>
<g clip-path="url(#clip_3)">
<path transform="matrix(1,0,0,-1,0,220.82263)" stroke-width=".5" stroke-linecap="square" stroke-linejoin="round" fill="none" stroke="#e5e7eb" stroke-opacity=".5" d="M51.960626 41.028039H285.24064"/>
</g>
<path transform="matrix(1,0,0,-1,0,220.82263)" d="M51.960626 41.028039H48.960626" fill="#1f2937"/>
<path transform="matrix(1,0,0,-1,0,220.82263)" stroke-width=".7" stroke-linecap="butt" stroke-linejoin="round" fill="none" stroke="#1f2937" d="M51.960626 41.028039H48.960626"/>
<use data-text="0" xlink:href="#font_2_9" transform="matrix(10.5,0,0,-10.5,20.03875,183.97428)" fill="#1f2937"/>
<use data-text="." xlink:href="#font_2_8" transform="matrix(10.5,0,0,-10.5,27.34675,183.97428)" fill="#1f2937"/>
<use data-text="8" xlink:href="#font_2_16" transform="matrix(10.5,0,0,-10.5,31.33675,183.97428)" fill="#1f2937"/>
<use data-text="5" xlink:href="#font_2_14" transform="matrix(10.5,0,0,-10.5,38.644754,183.97428)" fill="#1f2937"/>
<g clip-path="url(#clip_4)">
<path transform="matrix(1,0,0,-1,0,220.82263)" stroke-width=".5" stroke-linecap="square" stroke-linejoin="round" fill="none" stroke="#e5e7eb" stroke-opacity=".5" d="M51.960626 67.6151H285.24064"/>
</g>
<path transform="matrix(1,0,0,-1,0,220.82263)" d="M51.960626 67.6151H48.960626" fill="#1f2937"/>
<path transform="matrix(1,0,0,-1,0,220.82263)" stroke-width=".7" stroke-linecap="butt" stroke-linejoin="round" fill="none" stroke="#1f2937" d="M51.960626 67.6151H48.960626"/>
<use data-text="0" xlink:href="#font_2_9" transform="matrix(10.5,0,0,-10.5,20.03875,157.38722)" fill="#1f2937"/>
<use data-text="." xlink:href="#font_2_8" transform="matrix(10.5,0,0,-10.5,27.34675,157.38722)" fill="#1f2937"/>
<use data-text="9" xlink:href="#font_2_17" transform="matrix(10.5,0,0,-10.5,31.33675,157.38722)" fill="#1f2937"/>
<use data-text="0" xlink:href="#font_2_9" transform="matrix(10.5,0,0,-10.5,38.644754,157.38722)" fill="#1f2937"/>
<g clip-path="url(#clip_5)">
<path transform="matrix(1,0,0,-1,0,220.82263)" stroke-width=".5" stroke-linecap="square" stroke-linejoin="round" fill="none" stroke="#e5e7eb" stroke-opacity=".5" d="M51.960626 94.202159H285.24064"/>
</g>
<path transform="matrix(1,0,0,-1,0,220.82263)" d="M51.960626 94.202159H48.960626" fill="#1f2937"/>
<path transform="matrix(1,0,0,-1,0,220.82263)" stroke-width=".7" stroke-linecap="butt" stroke-linejoin="round" fill="none" stroke="#1f2937" d="M51.960626 94.202159H48.960626"/>
<use data-text="0" xlink:href="#font_2_9" transform="matrix(10.5,0,0,-10.5,20.03875,130.80017)" fill="#1f2937"/>
<use data-text="." xlink:href="#font_2_8" transform="matrix(10.5,0,0,-10.5,27.34675,130.80017)" fill="#1f2937"/>
<use data-text="9" xlink:href="#font_2_17" transform="matrix(10.5,0,0,-10.5,31.33675,130.80017)" fill="#1f2937"/>
<use data-text="5" xlink:href="#font_2_14" transform="matrix(10.5,0,0,-10.5,38.644754,130.80017)" fill="#1f2937"/>
<g clip-path="url(#clip_6)">
<path transform="matrix(1,0,0,-1,0,220.82263)" stroke-width=".5" stroke-linecap="square" stroke-linejoin="round" fill="none" stroke="#e5e7eb" stroke-opacity=".5" d="M51.960626 120.789218H285.24064"/>
</g>
<path transform="matrix(1,0,0,-1,0,220.82263)" d="M51.960626 120.789218H48.960626" fill="#1f2937"/>
<path transform="matrix(1,0,0,-1,0,220.82263)" stroke-width=".7" stroke-linecap="butt" stroke-linejoin="round" fill="none" stroke="#1f2937" d="M51.960626 120.789218H48.960626"/>
<use data-text="1" xlink:href="#font_2_10" transform="matrix(10.5,0,0,-10.5,20.03875,104.213108)" fill="#1f2937"/>
<use data-text="." xlink:href="#font_2_8" transform="matrix(10.5,0,0,-10.5,27.34675,104.213108)" fill="#1f2937"/>
<use data-text="0" xlink:href="#font_2_9" transform="matrix(10.5,0,0,-10.5,31.33675,104.213108)" fill="#1f2937"/>
<use data-text="0" xlink:href="#font_2_9" transform="matrix(10.5,0,0,-10.5,38.644754,104.213108)" fill="#1f2937"/>
<g clip-path="url(#clip_7)">
<path transform="matrix(1,0,0,-1,0,220.82263)" stroke-width=".5" stroke-linecap="square" stroke-linejoin="round" fill="none" stroke="#e5e7eb" stroke-opacity=".5" d="M51.960626 147.37627H285.24064"/>
</g>
<path transform="matrix(1,0,0,-1,0,220.82263)" d="M51.960626 147.37627H48.960626" fill="#1f2937"/>
<path transform="matrix(1,0,0,-1,0,220.82263)" stroke-width=".7" stroke-linecap="butt" stroke-linejoin="round" fill="none" stroke="#1f2937" d="M51.960626 147.37627H48.960626"/>
<use data-text="1" xlink:href="#font_2_10" transform="matrix(10.5,0,0,-10.5,20.03875,77.62605)" fill="#1f2937"/>
<use data-text="." xlink:href="#font_2_8" transform="matrix(10.5,0,0,-10.5,27.34675,77.62605)" fill="#1f2937"/>
<use data-text="0" xlink:href="#font_2_9" transform="matrix(10.5,0,0,-10.5,31.33675,77.62605)" fill="#1f2937"/>
<use data-text="5" xlink:href="#font_2_14" transform="matrix(10.5,0,0,-10.5,38.644754,77.62605)" fill="#1f2937"/>
<g clip-path="url(#clip_8)">
<path transform="matrix(1,0,0,-1,0,220.82263)" stroke-width=".5" stroke-linecap="square" stroke-linejoin="round" fill="none" stroke="#e5e7eb" stroke-opacity=".5" d="M51.960626 173.96334H285.24064"/>
</g>
<path transform="matrix(1,0,0,-1,0,220.82263)" d="M51.960626 173.96334H48.960626" fill="#1f2937"/>
<path transform="matrix(1,0,0,-1,0,220.82263)" stroke-width=".7" stroke-linecap="butt" stroke-linejoin="round" fill="none" stroke="#1f2937" d="M51.960626 173.96334H48.960626"/>
<use data-text="1" xlink:href="#font_2_10" transform="matrix(10.5,0,0,-10.5,20.03875,51.038988)" fill="#1f2937"/>
<use data-text="." xlink:href="#font_2_8" transform="matrix(10.5,0,0,-10.5,27.34675,51.038988)" fill="#1f2937"/>
<use data-text="1" xlink:href="#font_2_10" transform="matrix(10.5,0,0,-10.5,31.33675,51.038988)" fill="#1f2937"/>
<use data-text="0" xlink:href="#font_2_9" transform="matrix(10.5,0,0,-10.5,38.644754,51.038988)" fill="#1f2937"/>
<g clip-path="url(#clip_9)">
<path transform="matrix(1,0,0,-1,0,220.82263)" stroke-width=".5" stroke-linecap="square" stroke-linejoin="round" fill="none" stroke="#e5e7eb" stroke-opacity=".5" d="M51.960626 200.55039H285.24064"/>
</g>
<path transform="matrix(1,0,0,-1,0,220.82263)" d="M51.960626 200.55039H48.960626" fill="#1f2937"/>
<path transform="matrix(1,0,0,-1,0,220.82263)" stroke-width=".7" stroke-linecap="butt" stroke-linejoin="round" fill="none" stroke="#1f2937" d="M51.960626 200.55039H48.960626"/>
<use data-text="1" xlink:href="#font_2_10" transform="matrix(10.5,0,0,-10.5,20.03875,24.451935)" fill="#1f2937"/>
<use data-text="." xlink:href="#font_2_8" transform="matrix(10.5,0,0,-10.5,27.34675,24.451935)" fill="#1f2937"/>
<use data-text="1" xlink:href="#font_2_10" transform="matrix(10.5,0,0,-10.5,31.33675,24.451935)" fill="#1f2937"/>
<use data-text="5" xlink:href="#font_2_14" transform="matrix(10.5,0,0,-10.5,38.644754,24.451935)" fill="#1f2937"/>
<use data-text="Q" xlink:href="#font_2_32" transform="matrix(0,-12,-12,-0,13.445,171.52069)" fill="#1f2937"/>
<use data-text="u" xlink:href="#font_2_50" transform="matrix(0,-12,-12,-0,13.445,161.3207)" fill="#1f2937"/>
<use data-text="a" xlink:href="#font_2_36" transform="matrix(0,-12,-12,-0,13.445,152.77669)" fill="#1f2937"/>
<use data-text="l" xlink:href="#font_2_43" transform="matrix(0,-12,-12,-0,13.445,144.6767)" fill="#1f2937"/>
<use data-text="i" xlink:href="#font_2_42" transform="matrix(0,-12,-12,-0,13.445,140.56069)" fill="#1f2937"/>
<use data-text="t" xlink:href="#font_2_49" transform="matrix(0,-12,-12,-0,13.445,136.44469)" fill="#1f2937"/>
<use data-text="y" xlink:href="#font_2_52" transform="matrix(0,-12,-12,-0,13.445,130.70868)" fill="#1f2937"/>
<use data-text=" " xlink:href="#font_2_3" transform="matrix(0,-12,-12,-0,13.445,122.88469)" fill="#1f2937"/>
<use data-text="v" xlink:href="#font_2_51" transform="matrix(0,-12,-12,-0,13.445,118.70869)" fill="#1f2937"/>
<use data-text="s" xlink:href="#font_2_48" transform="matrix(0,-12,-12,-0,13.445,110.88469)" fill="#1f2937"/>
<use data-text="." xlink:href="#font_2_8" transform="matrix(0,-12,-12,-0,13.445,103.74468)" fill="#1f2937"/>
<use data-text=" " xlink:href="#font_2_3" transform="matrix(0,-12,-12,-0,13.445,99.184688)" fill="#1f2937"/>
<use data-text="p" xlink:href="#font_2_46" transform="matrix(0,-12,-12,-0,13.445,95.00868)" fill="#1f2937"/>
<use data-text="r" xlink:href="#font_2_47" transform="matrix(0,-12,-12,-0,13.445,86.41668)" fill="#1f2937"/>
<use data-text="o" xlink:href="#font_2_45" transform="matrix(0,-12,-12,-0,13.445,80.50068)" fill="#1f2937"/>
<use data-text="p" xlink:href="#font_2_46" transform="matrix(0,-12,-12,-0,13.445,72.256679)" fill="#1f2937"/>
<use data-text="r" xlink:href="#font_2_47" transform="matrix(0,-12,-12,-0,13.445,63.664674)" fill="#1f2937"/>
<use data-text="i" xlink:href="#font_2_42" transform="matrix(0,-12,-12,-0,13.445,57.748674)" fill="#1f2937"/>
<use data-text="e" xlink:href="#font_2_40" transform="matrix(0,-12,-12,-0,13.445,53.632677)" fill="#1f2937"/>
<use data-text="t" xlink:href="#font_2_49" transform="matrix(0,-12,-12,-0,13.445,45.496675)" fill="#1f2937"/>
<use data-text="a" xlink:href="#font_2_36" transform="matrix(0,-12,-12,-0,13.445,39.76068)" fill="#1f2937"/>
<use data-text="r" xlink:href="#font_2_47" transform="matrix(0,-12,-12,-0,13.445,31.660676)" fill="#1f2937"/>
<use data-text="y" xlink:href="#font_2_52" transform="matrix(0,-12,-12,-0,13.445,25.744675)" fill="#1f2937"/>
<g clip-path="url(#clip_10)">
<path transform="matrix(1,0,0,-1,0,220.82263)" stroke-width="1" stroke-linecap="butt" stroke-dasharray="5,2.5" stroke-linejoin="round" fill="none" stroke="#9ca3af" d="M51.960626 120.789218H285.24064"/>
</g>
<path transform="matrix(1,0,0,-1,0,220.82263)" stroke-width=".7" stroke-linecap="square" stroke-miterlimit="10" stroke-linejoin="miter" fill="none" stroke="#9ca3af" d="M51.960626 35.710626V216.50263"/>
<path transform="matrix(1,0,0,-1,0,220.82263)" stroke-width=".7" stroke-linecap="square" stroke-miterlimit="10" stroke-linejoin="miter" fill="none" stroke="#9ca3af" d="M51.960626 35.710626H285.24064"/>
<use data-text="G" xlink:href="#font_2_24" transform="matrix(7.7,0,0,-7.7,218.22895,86.36154)" fill="#0d4747"/>
<use data-text="P" xlink:href="#font_2_31" transform="matrix(7.7,0,0,-7.7,224.55065,86.36154)" fill="#0d4747"/>
<use data-text="T" xlink:href="#font_2_35" transform="matrix(7.7,0,0,-7.7,230.19475,86.36154)" fill="#0d4747"/>
<use data-text="-" xlink:href="#font_2_7" transform="matrix(7.7,0,0,-7.7,234.32114,86.36154)" fill="#0d4747"/>
<use data-text="4" xlink:href="#font_2_13" transform="matrix(7.7,0,0,-7.7,237.51665,86.36154)" fill="#0d4747"/>
<use data-text=" " xlink:href="#font_2_3" transform="matrix(7.7,0,0,-7.7,242.87584,86.36154)" fill="#0d4747"/>
<use data-text="c" xlink:href="#font_2_38" transform="matrix(7.7,0,0,-7.7,245.55545,86.36154)" fill="#0d4747"/>
<use data-text="l" xlink:href="#font_2_43" transform="matrix(7.7,0,0,-7.7,250.12155,86.36154)" fill="#0d4747"/>
<use data-text="a" xlink:href="#font_2_36" transform="matrix(7.7,0,0,-7.7,252.76265,86.36154)" fill="#0d4747"/>
<use data-text="s" xlink:href="#font_2_48" transform="matrix(7.7,0,0,-7.7,257.96015,86.36154)" fill="#0d4747"/>
<use data-text="s" xlink:href="#font_2_48" transform="matrix(7.7,0,0,-7.7,262.54167,86.36154)" fill="#0d4747"/>
<path transform="matrix(1,0,0,-1,0,220.82263)" d="M57.043687 94.15766H67.76749V104.88147H57.043687Z" fill="#d4a017"/>
<path transform="matrix(1,0,0,-1,0,220.82263)" stroke-width="1.3" stroke-linecap="butt" stroke-linejoin="round" fill="none" stroke="#ffffff" d="M57.043687 94.15766H67.76749V104.88147H57.043687Z"/>
<path transform="matrix(1,0,0,-1,0,220.82263)" d="M84.52026 129.15857 92.10314 136.74146 84.52026 144.32433 76.93739 136.74146Z" fill="#c75146"/>
<path transform="matrix(1,0,0,-1,0,220.82263)" stroke-width="1.3" stroke-linecap="butt" stroke-linejoin="round" fill="none" stroke="#ffffff" d="M84.52026 129.15857 92.10314 136.74146 84.52026 144.32433 76.93739 136.74146Z"/>
<path transform="matrix(1,0,0,-1,0,220.82263)" d="M93.72416 152.6492C95.14615 152.6492 96.51009 153.21416 97.515598 154.21967 98.521099 155.22516 99.08606 156.5891 99.08606 158.0111 99.08606 159.43309 98.521099 160.79703 97.515598 161.80254 96.51009 162.80803 95.14615 163.373 93.72416 163.373 92.30216 163.373 90.93822 162.80803 89.93272 161.80254 88.927219 160.79703 88.36225 159.43309 88.36225 158.0111 88.36225 156.5891 88.927219 155.22516 89.93272 154.21967 90.93822 153.21416 92.30216 152.6492 93.72416 152.6492Z" fill="#1f6f6f"/>
<path transform="matrix(1,0,0,-1,0,220.82263)" stroke-width="1.3" stroke-linecap="butt" stroke-linejoin="round" fill="none" stroke="#ffffff" d="M93.72416 152.6492C95.14615 152.6492 96.51009 153.21416 97.515598 154.21967 98.521099 155.22516 99.08606 156.5891 99.08606 158.0111 99.08606 159.43309 98.521099 160.79703 97.515598 161.80254 96.51009 162.80803 95.14615 163.373 93.72416 163.373 92.30216 163.373 90.93822 162.80803 89.93272 161.80254 88.927219 160.79703 88.36225 159.43309 88.36225 158.0111 88.36225 156.5891 88.927219 155.22516 89.93272 154.21967 90.93822 153.21416 92.30216 152.6492 93.72416 152.6492Z"/>
<path transform="matrix(1,0,0,-1,0,220.82263)" d="M117.51014 67.5706C118.93213 67.5706 120.296077 68.13557 121.301578 69.14107 122.307079 70.14657 122.87204 71.51051 122.87204 72.93251 122.87204 74.3545 122.307079 75.718448 121.301578 76.723949 120.296077 77.72945 118.93213 78.29441 117.51014 78.29441 116.08814 78.29441 114.7242 77.72945 113.7187 76.723949 112.713199 75.718448 112.14823 74.3545 112.14823 72.93251 112.14823 71.51051 112.713199 70.14657 113.7187 69.14107 114.7242 68.13557 116.08814 67.5706 117.51014 67.5706Z" fill="#1f6f6f"/>
<path transform="matrix(1,0,0,-1,0,220.82263)" stroke-width="1.3" stroke-linecap="butt" stroke-linejoin="round" fill="none" stroke="#ffffff" d="M117.51014 67.5706C118.93213 67.5706 120.296077 68.13557 121.301578 69.14107 122.307079 70.14657 122.87204 71.51051 122.87204 72.93251 122.87204 74.3545 122.307079 75.718448 121.301578 76.723949 120.296077 77.72945 118.93213 78.29441 117.51014 78.29441 116.08814 78.29441 114.7242 77.72945 113.7187 76.723949 112.713199 75.718448 112.14823 74.3545 112.14823 72.93251 112.14823 71.51051 112.713199 70.14657 113.7187 69.14107 114.7242 68.13557 116.08814 67.5706 117.51014 67.5706Z"/>
<path transform="matrix(1,0,0,-1,0,220.82263)" d="M117.51014 115.427318C118.93213 115.427318 120.296077 115.99227 121.301578 116.99777 122.307079 118.00328 122.87204 119.36722 122.87204 120.789218 122.87204 122.211208 122.307079 123.57515 121.301578 124.58065 120.296077 125.58615 118.93213 126.151119 117.51014 126.151119 116.08814 126.151119 114.7242 125.58615 113.7187 124.58065 112.713199 123.57515 112.14823 122.211208 112.14823 120.789218 112.14823 119.36722 112.713199 118.00328 113.7187 116.99777 114.7242 115.99227 116.08814 115.427318 117.51014 115.427318Z" fill="#1f6f6f"/>
<path transform="matrix(1,0,0,-1,0,220.82263)" stroke-width="1.3" stroke-linecap="butt" stroke-linejoin="round" fill="none" stroke="#ffffff" d="M117.51014 115.427318C118.93213 115.427318 120.296077 115.99227 121.301578 116.99777 122.307079 118.00328 122.87204 119.36722 122.87204 120.789218 122.87204 122.211208 122.307079 123.57515 121.301578 124.58065 120.296077 125.58615 118.93213 126.151119 117.51014 126.151119 116.08814 126.151119 114.7242 125.58615 113.7187 124.58065 112.713199 123.57515 112.14823 122.211208 112.14823 120.789218 112.14823 119.36722 112.713199 118.00328 113.7187 116.99777 114.7242 115.99227 116.08814 115.427318 117.51014 115.427318Z"/>
<path transform="matrix(1,0,0,-1,0,220.82263)" d="M122.709239 161.06305 130.29212 168.64592 122.709239 176.22879 115.12636 168.64592Z" fill="#c75146"/>
<path transform="matrix(1,0,0,-1,0,220.82263)" stroke-width="1.3" stroke-linecap="butt" stroke-linejoin="round" fill="none" stroke="#ffffff" d="M122.709239 161.06305 130.29212 168.64592 122.709239 176.22879 115.12636 168.64592Z"/>
<path transform="matrix(1,0,0,-1,0,220.82263)" d="M144.4981 139.7934 152.08097 147.37627 144.4981 154.95915 136.91522 147.37627Z" fill="#c75146"/>
<path transform="matrix(1,0,0,-1,0,220.82263)" stroke-width="1.3" stroke-linecap="butt" stroke-linejoin="round" fill="none" stroke="#ffffff" d="M144.4981 139.7934 152.08097 147.37627 144.4981 154.95915 136.91522 147.37627Z"/>
<path transform="matrix(1,0,0,-1,0,220.82263)" d="M165.48413 126.06213C166.90613 126.06213 168.27007 126.6271 169.27558 127.6326 170.28107 128.6381 170.84604 130.00205 170.84604 131.42404 170.84604 132.84603 170.28107 134.20998 169.27558 135.21547 168.27007 136.22098 166.90613 136.78594 165.48413 136.78594 164.06214 136.78594 162.6982 136.22098 161.69269 135.21547 160.6872 134.20998 160.12223 132.84603 160.12223 131.42404 160.12223 130.00205 160.6872 128.6381 161.69269 127.6326 162.6982 126.6271 164.06214 126.06213 165.48413 126.06213Z" fill="#1f6f6f"/>
<path transform="matrix(1,0,0,-1,0,220.82263)" stroke-width="1.3" stroke-linecap="butt" stroke-linejoin="round" fill="none" stroke="#ffffff" d="M165.48413 126.06213C166.90613 126.06213 168.27007 126.6271 169.27558 127.6326 170.28107 128.6381 170.84604 130.00205 170.84604 131.42404 170.84604 132.84603 170.28107 134.20998 169.27558 135.21547 168.27007 136.22098 166.90613 136.78594 165.48413 136.78594 164.06214 136.78594 162.6982 136.22098 161.69269 135.21547 160.6872 134.20998 160.12223 132.84603 160.12223 131.42404 160.12223 130.00205 160.6872 128.6381 161.69269 127.6326 162.6982 126.6271 164.06214 126.06213 165.48413 126.06213Z"/>
<g clip-path="url(#clip_11)">
<path transform="matrix(1,0,0,-1,0,220.82263)" d="M240.93804 115.08833H244.73862V118.88892H248.5392V122.68951H244.73862V126.49009H240.93804V122.68951H237.13744V118.88892H240.93804Z" fill="#0d4747"/>
<path transform="matrix(1,0,0,-1,0,220.82263)" stroke-width="1.3" stroke-linecap="butt" stroke-linejoin="round" fill="none" stroke="#ffffff" d="M240.93804 115.08833H244.73862V118.88892H248.5392V122.68951H244.73862V126.49009H240.93804V122.68951H237.13744V118.88892H240.93804Z"/>
</g>
<path transform="matrix(1,0,0,-1,0,220.82263)" stroke-width="1.5" stroke-linecap="square" stroke-linejoin="round" fill="none" stroke="#ffffff" d="M229.11875 72.8075H236.71875 244.31876"/>
<path transform="matrix(1,0,0,-1,0,220.82263)" d="M236.71875 68.8075C237.77956 68.8075 238.79708 69.228969 239.54718 69.97907 240.29729 70.72918 240.71875 71.74669 240.71875 72.8075 240.71875 73.86831 240.29729 74.88582 239.54718 75.635929 238.79708 76.38603 237.77956 76.8075 236.71875 76.8075 235.65795 76.8075 234.64043 76.38603 233.89032 75.635929 233.14022 74.88582 232.71875 73.86831 232.71875 72.8075 232.71875 71.74669 233.14022 70.72918 233.89032 69.97907 234.64043 69.228969 235.65795 68.8075 236.71875 68.8075Z" fill="#1f6f6f"/>
<path transform="matrix(1,0,0,-1,0,220.82263)" stroke-width="1" stroke-linecap="butt" stroke-linejoin="round" fill="none" stroke="#ffffff" d="M236.71875 68.8075C237.77956 68.8075 238.79708 69.228969 239.54718 69.97907 240.29729 70.72918 240.71875 71.74669 240.71875 72.8075 240.71875 73.86831 240.29729 74.88582 239.54718 75.635929 238.79708 76.38603 237.77956 76.8075 236.71875 76.8075 235.65795 76.8075 234.64043 76.38603 233.89032 75.635929 233.14022 74.88582 232.71875 73.86831 232.71875 72.8075 232.71875 71.74669 233.14022 70.72918 233.89032 69.97907 234.64043 69.228969 235.65795 68.8075 236.71875 68.8075Z"/>
<use data-text="S" xlink:href="#font_2_34" transform="matrix(9.5,0,0,-9.5,246.21875,151.34014)" fill="#1f2937"/>
<use data-text="F" xlink:href="#font_2_23" transform="matrix(9.5,0,0,-9.5,253.05875,151.34014)" fill="#1f2937"/>
<use data-text="T" xlink:href="#font_2_35" transform="matrix(9.5,0,0,-9.5,259.54725,151.34014)" fill="#1f2937"/>
<path transform="matrix(1,0,0,-1,0,220.82263)" stroke-width="1.5" stroke-linecap="square" stroke-linejoin="round" fill="none" stroke="#ffffff" d="M229.11875 60.760625H236.71875 244.31876"/>
<path transform="matrix(1,0,0,-1,0,220.82263)" d="M236.71875 55.10377 242.37561 60.760625 236.71875 66.41748 231.06189 60.760625Z" fill="#c75146"/>
<path transform="matrix(1,0,0,-1,0,220.82263)" stroke-width="1" stroke-linecap="butt" stroke-miterlimit="10" stroke-linejoin="miter" fill="none" stroke="#ffffff" d="M236.71875 55.10377 242.37561 60.760625 236.71875 66.41748 231.06189 60.760625Z"/>
<use data-text="R" xlink:href="#font_2_33" transform="matrix(9.5,0,0,-9.5,246.21875,163.38701)" fill="#1f2937"/>
<use data-text="L" xlink:href="#font_2_27" transform="matrix(9.5,0,0,-9.5,253.53376,163.38701)" fill="#1f2937"/>
<path transform="matrix(1,0,0,-1,0,220.82263)" stroke-width="1.5" stroke-linecap="square" stroke-linejoin="round" fill="none" stroke="#ffffff" d="M229.11875 48.71375H236.71875 244.31876"/>
<path transform="matrix(1,0,0,-1,0,220.82263)" d="M232.71875 44.71375H240.71875V52.71375H232.71875Z" fill="#d4a017"/>
<path transform="matrix(1,0,0,-1,0,220.82263)" stroke-width="1" stroke-linecap="butt" stroke-miterlimit="10" stroke-linejoin="miter" fill="none" stroke="#ffffff" d="M232.71875 44.71375H240.71875V52.71375H232.71875Z"/>
<use data-text="P" xlink:href="#font_2_31" transform="matrix(9.5,0,0,-9.5,246.21875,175.43389)" fill="#1f2937"/>
<use data-text="r" xlink:href="#font_2_47" transform="matrix(9.5,0,0,-9.5,253.18225,175.43389)" fill="#1f2937"/>
<use data-text="o" xlink:href="#font_2_45" transform="matrix(9.5,0,0,-9.5,257.86576,175.43389)" fill="#1f2937"/>
<use data-text="b" xlink:href="#font_2_37" transform="matrix(9.5,0,0,-9.5,264.39225,175.43389)" fill="#1f2937"/>
<use data-text="e" xlink:href="#font_2_40" transform="matrix(9.5,0,0,-9.5,271.19425,175.43389)" fill="#1f2937"/>
<use data-text="I" xlink:href="#font_2_25" transform="matrix(7.7,0,0,-7.7,37.67121,141.3812)" fill="#1f2937"/>
<use data-text="N" xlink:href="#font_2_29" transform="matrix(7.7,0,0,-7.7,40.53561,141.3812)" fill="#1f2937"/>
<use data-text="S" xlink:href="#font_2_34" transform="matrix(7.7,0,0,-7.7,46.98051,141.3812)" fill="#1f2937"/>
<use data-text="P" xlink:href="#font_2_31" transform="matrix(7.7,0,0,-7.7,52.524515,141.3812)" fill="#1f2937"/>
<use data-text="E" xlink:href="#font_2_22" transform="matrix(7.7,0,0,-7.7,58.16861,141.3812)" fill="#1f2937"/>
<use data-text="C" xlink:href="#font_2_20" transform="matrix(7.7,0,0,-7.7,63.42771,141.3812)" fill="#1f2937"/>
<use data-text="T" xlink:href="#font_2_35" transform="matrix(7.7,0,0,-7.7,69.07951,141.3812)" fill="#1f2937"/>
<use data-text="O" xlink:href="#font_2_30" transform="matrix(7.7,0,0,-7.7,74.33091,141.3812)" fill="#1f2937"/>
<use data-text="R" xlink:href="#font_2_33" transform="matrix(7.7,0,0,-7.7,80.87591,141.3812)" fill="#1f2937"/>
<use data-text="J" xlink:href="#font_2_26" transform="matrix(7.7,0,0,-7.7,55.574956,69.3468)" fill="#1f2937"/>
<use data-text="u" xlink:href="#font_2_50" transform="matrix(7.7,0,0,-7.7,58.439355,69.3468)" fill="#1f2937"/>
<use data-text="d" xlink:href="#font_2_39" transform="matrix(7.7,0,0,-7.7,63.921754,69.3468)" fill="#1f2937"/>
<use data-text="g" xlink:href="#font_2_41" transform="matrix(7.7,0,0,-7.7,69.43495,69.3468)" fill="#1f2937"/>
<use data-text="e" xlink:href="#font_2_40" transform="matrix(7.7,0,0,-7.7,74.94815,69.3468)" fill="#1f2937"/>
<use data-text="L" xlink:href="#font_2_27" transform="matrix(7.7,0,0,-7.7,80.168758,69.3468)" fill="#1f2937"/>
<use data-text="R" xlink:href="#font_2_33" transform="matrix(7.7,0,0,-7.7,85.073657,69.3468)" fill="#1f2937"/>
<use data-text="M" xlink:href="#font_2_28" transform="matrix(7.7,0,0,-7.7,91.002658,69.3468)" fill="#1f2937"/>
<use data-text="-" xlink:href="#font_2_7" transform="matrix(7.7,0,0,-7.7,98.664157,69.3468)" fill="#1f2937"/>
<use data-text="3" xlink:href="#font_2_12" transform="matrix(7.7,0,0,-7.7,101.85965,69.3468)" fill="#1f2937"/>
<use data-text="B" xlink:href="#font_2_19" transform="matrix(7.7,0,0,-7.7,107.21886,69.3468)" fill="#1f2937"/>
<use data-text="G" xlink:href="#font_2_24" transform="matrix(7.7,0,0,-7.7,103.72415,64.01466)" fill="#1f2937"/>
<use data-text="L" xlink:href="#font_2_27" transform="matrix(7.7,0,0,-7.7,110.04585,64.01466)" fill="#1f2937"/>
<use data-text="I" xlink:href="#font_2_25" transform="matrix(7.7,0,0,-7.7,114.95075,64.01466)" fill="#1f2937"/>
<use data-text="D" xlink:href="#font_2_21" transform="matrix(7.7,0,0,-7.7,117.815158,64.01466)" fill="#1f2937"/>
<use data-text="E" xlink:href="#font_2_22" transform="matrix(7.7,0,0,-7.7,124.206157,64.01466)" fill="#1f2937"/>
<use data-text="R" xlink:href="#font_2_33" transform="matrix(7.7,0,0,-7.7,129.46526,64.01466)" fill="#1f2937"/>
<use data-text="J" xlink:href="#font_2_26" transform="matrix(7.7,0,0,-7.7,91.5492,167.96825)" fill="#1f2937"/>
<use data-text="u" xlink:href="#font_2_50" transform="matrix(7.7,0,0,-7.7,94.413608,167.96825)" fill="#1f2937"/>
<use data-text="d" xlink:href="#font_2_39" transform="matrix(7.7,0,0,-7.7,99.896,167.96825)" fill="#1f2937"/>
<use data-text="g" xlink:href="#font_2_41" transform="matrix(7.7,0,0,-7.7,105.4092,167.96825)" fill="#1f2937"/>
<use data-text="e" xlink:href="#font_2_40" transform="matrix(7.7,0,0,-7.7,110.9224,167.96825)" fill="#1f2937"/>
<use data-text="L" xlink:href="#font_2_27" transform="matrix(7.7,0,0,-7.7,116.143009,167.96825)" fill="#1f2937"/>
<use data-text="M" xlink:href="#font_2_28" transform="matrix(7.7,0,0,-7.7,121.0479,167.96825)" fill="#1f2937"/>
<use data-text="-" xlink:href="#font_2_7" transform="matrix(7.7,0,0,-7.7,128.7094,167.96825)" fill="#1f2937"/>
<use data-text="7" xlink:href="#font_2_15" transform="matrix(7.7,0,0,-7.7,131.9049,167.96825)" fill="#1f2937"/>
<use data-text="B" xlink:href="#font_2_19" transform="matrix(7.7,0,0,-7.7,137.2641,167.96825)" fill="#1f2937"/>
<use data-text="P" xlink:href="#font_2_31" transform="matrix(7.7,0,0,-7.7,127.51014,102.23654)" fill="#1f2937"/>
<use data-text="r" xlink:href="#font_2_47" transform="matrix(7.7,0,0,-7.7,133.15424,102.23654)" fill="#1f2937"/>
<use data-text="o" xlink:href="#font_2_45" transform="matrix(7.7,0,0,-7.7,136.95035,102.23654)" fill="#1f2937"/>
<use data-text="m" xlink:href="#font_2_44" transform="matrix(7.7,0,0,-7.7,142.24024,102.23654)" fill="#1f2937"/>
<use data-text="." xlink:href="#font_2_8" transform="matrix(7.7,0,0,-7.7,150.26364,102.23654)" fill="#1f2937"/>
<use data-text=" " xlink:href="#font_2_3" transform="matrix(7.7,0,0,-7.7,153.18964,102.23654)" fill="#1f2937"/>
<use data-text="2" xlink:href="#font_2_11" transform="matrix(7.7,0,0,-7.7,155.86925,102.23654)" fill="#1f2937"/>
<use data-text="J" xlink:href="#font_2_26" transform="matrix(7.7,0,0,-7.7,108.3108,37.504838)" fill="#1f2937"/>
<use data-text="1" xlink:href="#font_2_10" transform="matrix(7.7,0,0,-7.7,111.1752,37.504838)" fill="#1f2937"/>
<use data-text="-" xlink:href="#font_2_7" transform="matrix(7.7,0,0,-7.7,116.5344,37.504838)" fill="#1f2937"/>
<use data-text="8" xlink:href="#font_2_16" transform="matrix(7.7,0,0,-7.7,119.7299,37.504838)" fill="#1f2937"/>
<use data-text="B" xlink:href="#font_2_19" transform="matrix(7.7,0,0,-7.7,125.089099,37.504838)" fill="#1f2937"/>
<use data-text="J" xlink:href="#font_2_26" transform="matrix(7.7,0,0,-7.7,154.4981,73.61824)" fill="#1f2937"/>
<use data-text="u" xlink:href="#font_2_50" transform="matrix(7.7,0,0,-7.7,157.36249,73.61824)" fill="#1f2937"/>
<use data-text="d" xlink:href="#font_2_39" transform="matrix(7.7,0,0,-7.7,162.8449,73.61824)" fill="#1f2937"/>
<use data-text="g" xlink:href="#font_2_41" transform="matrix(7.7,0,0,-7.7,168.3581,73.61824)" fill="#1f2937"/>
<use data-text="e" xlink:href="#font_2_40" transform="matrix(7.7,0,0,-7.7,173.87129,73.61824)" fill="#1f2937"/>
<use data-text="L" xlink:href="#font_2_27" transform="matrix(7.7,0,0,-7.7,179.09189,73.61824)" fill="#1f2937"/>
<use data-text="R" xlink:href="#font_2_33" transform="matrix(7.7,0,0,-7.7,183.9968,73.61824)" fill="#1f2937"/>
<use data-text="M" xlink:href="#font_2_28" transform="matrix(7.7,0,0,-7.7,189.9258,73.61824)" fill="#1f2937"/>
<use data-text="-" xlink:href="#font_2_7" transform="matrix(7.7,0,0,-7.7,197.5873,73.61824)" fill="#1f2937"/>
<use data-text="1" xlink:href="#font_2_10" transform="matrix(7.7,0,0,-7.7,200.78279,73.61824)" fill="#1f2937"/>
<use data-text="4" xlink:href="#font_2_13" transform="matrix(7.7,0,0,-7.7,206.142,73.61824)" fill="#1f2937"/>
<use data-text="B" xlink:href="#font_2_19" transform="matrix(7.7,0,0,-7.7,211.50119,73.61824)" fill="#1f2937"/>
<use data-text="F" xlink:href="#font_2_23" transform="matrix(7.7,0,0,-7.7,175.48413,90.601718)" fill="#1f2937"/>
<use data-text="L" xlink:href="#font_2_27" transform="matrix(7.7,0,0,-7.7,180.74323,90.601718)" fill="#1f2937"/>
<use data-text="A" xlink:href="#font_2_18" transform="matrix(7.7,0,0,-7.7,185.64813,90.601718)" fill="#1f2937"/>
<use data-text="M" xlink:href="#font_2_28" transform="matrix(7.7,0,0,-7.7,191.60793,90.601718)" fill="#1f2937"/>
<use data-text="e" xlink:href="#font_2_40" transform="matrix(7.7,0,0,-7.7,199.26944,90.601718)" fill="#1f2937"/>
<use data-text="-" xlink:href="#font_2_7" transform="matrix(7.7,0,0,-7.7,204.49004,90.601718)" fill="#1f2937"/>
<use data-text="R" xlink:href="#font_2_33" transform="matrix(7.7,0,0,-7.7,207.68553,90.601718)" fill="#1f2937"/>
<use data-text="M" xlink:href="#font_2_28" transform="matrix(7.7,0,0,-7.7,213.61454,90.601718)" fill="#1f2937"/>
</svg>
