<svg xmlns="http://www.w3.org/2000/svg" xmlns:xlink="http://www.w3.org/1999/xlink" xmlns:inkscape="http://www.inkscape.org/namespaces/inkscape" version="1.1" width="307.0656" height="221.79138" viewBox="0 0 307.0656 221.79138">
<rect width=\"100%\" height=\"100%\" fill=\"white\"/>
<defs>
<path id="font_1_7" d="M.45996095 .3647461C.45996095 .45589195 .45141603 .5201009 .43432618 .55737307 .41723634 .5946452 .38850913 .61328127 .34814454 .61328127 .30777995 .61328127 .27897135 .5946452 .26171876 .55737307 .24446614 .5201009 .23583985 .45589195 .23583985 .3647461 .23583985 .2726237 .24446614 .2076823 .26171876 .16992188 .27897135 .13216146 .30777995 .11328125 .34814454 .11328125 .3881836 .11328125 .41682945 .13216146 .43408204 .16992188 .45133464 .2076823 .45996095 .2726237 .45996095 .3647461M.6479492 .3635254C.6479492 .24267578 .62190756 .1494344 .5698242 .08380127 .5177409 .01816813 .44384767-.0146484379 .34814454-.0146484379 .25211589-.0146484379 .17805989 .01816813 .12597656 .08380127 .07389323 .1494344 .047851564 .24267578 .047851564 .3635254 .047851564 .48470054 .07389323 .5781047 .12597656 .6437378 .17805989 .7093709 .25211589 .7421875 .34814454 .7421875 .44384767 .7421875 .5177409 .7093709 .5698242 .6437378 .62190756 .5781047 .6479492 .48470054 .6479492 .3635254Z"/>
<path id="font_1_12" d="M.10595703 .7294922H.5732422V.5908203H.25585938V.47798158C.27018229 .48189799 .28458659 .48491923 .29907228 .4870453 .31355796 .48917137 .32861329 .49023438 .34423829 .49023438 .43310548 .49023438 .5022786 .46799723 .5517578 .42352296 .601237 .37904869 .62597659 .31705729 .62597659 .23754883 .62597659 .1586914 .59903976 .096944179 .545166 .05230713 .49129234 .0076700847 .4165039-.0146484379 .32080079-.0146484379 .27945964-.0146484379 .23852539-.010701497 .19799805-.0028076173 .1574707 .005086263 .1171875 .017089844 .07714844 .033203126V.18164063C.11686198 .15885417 .15454102 .14176433 .19018555 .1303711 .22583008 .11897787 .2594401 .11328125 .29101563 .11328125 .33658854 .11328125 .3724772 .124430339 .39868165 .14672852 .42488609 .16902669 .43798829 .19921875 .43798829 .23730469 .43798829 .27571617 .42488609 .3059896 .39868165 .328125 .3724772 .3502604 .33658854 .36132813 .29101563 .36132813 .2639974 .36132813 .2351888 .35782878 .20458985 .35083009 .17399089 .3438314 .14111328 .3330078 .10595703 .31835938V.7294922Z"/>
<path id="font_1_8" d="M.1171875 .12988281H.28320313V.6015625L.11279297 .56640627V.69433596L.28222657 .7294922H.4609375V.12988281H.6269531V0H.1171875V.12988281Z"/>
<path id="font_1_9" d="M.28808595 .13867188H.6088867V0H.07910156V.13867188L.34521485 .37324525C.36897788 .39466859 .386556 .41560365 .39794923 .43605042 .40934245 .4564972 .41503907 .47775779 .41503907 .49983216 .41503907 .5339203 .40356446 .5613505 .38061524 .5821228 .35766603 .6028951 .32714845 .61328127 .2890625 .61328127 .25976563 .61328127 .22770183 .60705569 .1928711 .5946045 .15804036 .5821533 .12076823 .56363937 .08105469 .5390625V.69921877C.1233724 .7132161 .16520183 .72387698 .20654297 .7312012 .24788411 .7385254 .28841148 .7421875 .328125 .7421875 .4153646 .7421875 .4831543 .72299197 .53149417 .68460085 .579834 .6462199 .6040039 .5927124 .6040039 .52407839 .6040039 .48438517 .59375 .44737754 .5732422 .41305543 .5527344 .3787435 .50960287 .3327993 .44384767 .27522279L.28808595 .13867188Z"/>
<path id="font_1_18" d="M.6699219 .039749147C.6354167 .021784464 .5994466 .008229573 .5620117-.00091552737 .52457687-.010070801 .4855143-.0146484379 .44482423-.0146484379 .32340495-.0146484379 .22721355 .019307455 .15625 .08721924 .08528646 .15514119 .049804689 .24724324 .049804689 .3635254 .049804689 .48013307 .08528646 .57239279 .15625 .64030459 .22721355 .7082265 .32340495 .7421875 .44482423 .7421875 .4855143 .7421875 .52457687 .73760989 .5620117 .7284546 .5994466 .7193095 .6354167 .7057546 .6699219 .6877899V.5361328C.6350911 .5600688 .6007487 .5776062 .56689456 .5887451 .53304037 .5998942 .49739585 .60546877 .45996095 .60546877 .39290367 .60546877 .34016929 .5840047 .3017578 .54107668 .26334635 .49815879 .24414063 .438975 .24414063 .3635254 .24414063 .28840129 .26334635 .2293752 .3017578 .18644715 .34016929 .14352925 .39290367 .12207031 .45996095 .12207031 .49739585 .12207031 .53304037 .12763977 .56689456 .13877869 .6007487 .14992778 .6350911 .16747029 .6699219 .19140625V.039749147Z"/>
<path id="font_1_32" d="M.34423829 .43554688C.3055013 .43554688 .2759603 .42159019 .25561524 .39367677 .23527019 .36576335 .22509766 .32552085 .22509766 .27294923 .22509766 .22037761 .23527019 .18013509 .25561524 .15222168 .2759603 .124308269 .3055013 .11035156 .34423829 .11035156 .38232423 .11035156 .41145835 .124308269 .43164063 .15222168 .4518229 .18013509 .46191407 .22037761 .46191407 .27294923 .46191407 .32552085 .4518229 .36576335 .43164063 .39367677 .41145835 .42159019 .38232423 .43554688 .34423829 .43554688M.34423829 .5605469C.4383138 .5605469 .5118001 .5351105 .56469729 .48423768 .6175944 .43337504 .64404299 .36294557 .64404299 .27294923 .64404299 .18295288 .6175944 .11251831 .56469729 .061645509 .5118001 .010782878 .4383138-.0146484379 .34423829-.0146484379 .24983724-.0146484379 .17602539 .010782878 .122802738 .061645509 .06958008 .11251831 .04296875 .18295288 .04296875 .27294923 .04296875 .36294557 .06958008 .43337504 .122802738 .48423768 .17602539 .5351105 .24983724 .5605469 .34423829 .5605469Z"/>
<path id="font_1_20" d="M.0048828127 .7294922H.6767578V.58691409H.4350586V0H.24707031V.58691409H.0048828127V.7294922Z"/>
<path id="font_1_3" d=""/>
<path id="font_1_30" d="M.083984378 .7597656H.25878907V0H.083984378V.7597656Z"/>
<path id="font_1_24" d="M.6298828 .2756195V.22558594H.2211914C.22542317 .1842448 .24023438 .15323894 .265625 .13256836 .29101563 .11189779 .3264974 .1015625 .3720703 .1015625 .40885417 .1015625 .4465332 .107055667 .48510743 .11804199 .52368167 .12902832 .5633138 .14567058 .6040039 .16796875V.033203126C.5626628 .017415366 .5213216 .005493164 .47998048-.0025634766 .4386393-.010620117 .3972982-.0146484379 .35595704-.0146484379 .2569987-.0146484379 .1800944 .010538737 .12524414 .060913087 .07039388 .11129761 .04296875 .18197632 .04296875 .27294923 .04296875 .36229453 .0699056 .43256126 .1237793 .4837494 .177653 .5349477 .25179038 .5605469 .3461914 .5605469 .4321289 .5605469 .5008952 .5346883 .55249026 .4829712 .60408529 .43125407 .6298828 .36213685 .6298828 .2756195M.4501953 .33398438C.4501953 .36704508 .44051109 .39370219 .42114259 .4139557 .40177409 .4342092 .37646485 .44433595 .34521485 .44433595 .3113607 .44433595 .28385417 .43485514 .2626953 .41589356 .24153646 .39693199 .22835286 .3696289 .22314453 .33398438H.4501953Z"/>
<path id="font_1_31" d="M.63378909 .33338929V0H.4580078V.054260255 .25517274C.4580078 .3024241 .45694987 .3350118 .45483399 .3529358 .4527181 .37085978 .449056 .38405863 .44384767 .39253236 .43701173 .40394593 .42773438 .41282655 .41601563 .4191742 .40429688 .425532 .39095054 .42871095 .37597657 .42871095 .33951823 .42871095 .3108724 .4146169 .29003907 .38642884 .26920573 .35824076 .25878907 .31921388 .25878907 .26934815V0H.083984378V.546875H.25878907V.46679688C.28515626 .4988607 .31315104 .52250167 .34277345 .5377197 .37239585 .5529378 .4051107 .5605469 .44091798 .5605469 .50406906 .5605469 .55200198 .5411682 .5847168 .5024109 .61743167 .46365357 .63378909 .40731303 .63378909 .33338929Z"/>
<path id="font_1_25" d="M.4560547 .09277344C.43196617 .060872396 .4054362 .037434896 .37646485 .022460938 .3474935 .007486979 .31396485 0 .2758789 0 .20914714 0 .15397136 .026306153 .11035156 .07891846 .06673177 .13154094 .044921876 .19857788 .044921876 .2800293 .044921876 .36180625 .06673177 .4288381 .11035156 .48112489 .15397136 .5334218 .20914714 .5595703 .2758789 .5595703 .31396485 .5595703 .3474935 .55204269 .37646485 .5369873 .4054362 .52194216 .43196617 .49821983 .4560547 .4658203V.546875H.63183596V.05517578C.63183596-.032714845 .60408529-.099853519 .548584-.14624024 .49308268-.19262696 .41259767-.21582031 .3071289-.21582031 .27294923-.21582031 .23990886-.21317546 .20800781-.20788574 .17610677-.20259603 .14404297-.1944987 .111816409-.18359375V-.046875C.14241536-.06461588 .17236328-.07784017 .20166016-.08654785 .23095703-.09525553 .26041667-.099609378 .29003907-.099609378 .34733073-.099609378 .3893229-.08711243 .41601563-.06211853 .44270835-.037134809 .4560547 .0019632977 .4560547 .05517578V.09277344M.3408203 .43359376C.3046875 .43359376 .27652995 .42022706 .25634767 .39349366 .23616536 .36676026 .22607422 .3289388 .22607422 .2800293 .22607422 .2298177 .23583985 .19175212 .2553711 .16583252 .27490235 .13991292 .3033854 .12695313 .3408203 .12695313 .37727867 .12695313 .40559898 .14031983 .42578126 .16705323 .44596354 .19378662 .4560547 .23144531 .4560547 .2800293 .4560547 .3289388 .44596354 .36676026 .42578126 .39349366 .40559898 .42022706 .37727867 .43359376 .3408203 .43359376Z"/>
<path id="font_1_36" d="M.27490235 .70214846V.546875H.45507813V.421875H.27490235V.1899414C.27490235 .16455078 .2799479 .14737956 .29003907 .13842774 .30013023 .1294759 .32014976 .125 .35009767 .125H.4399414V0H.29003907C.22102864 0 .17211914 .014404297 .14331055 .04321289 .11450195 .072021488 .100097659 .12093099 .100097659 .1899414V.421875H.013183594V.546875H.100097659V.70214846H.27490235Z"/>
<path id="font_1_26" d="M.63378909 .33338929V0H.4580078V.054260255 .25419618C.4580078 .3020986 .45694987 .3350118 .45483399 .3529358 .4527181 .37085978 .449056 .38405863 .44384767 .39253236 .43701173 .40394593 .42773438 .41282655 .41601563 .4191742 .40429688 .425532 .39095054 .42871095 .37597657 .42871095 .33951823 .42871095 .3108724 .4146169 .29003907 .38642884 .26920573 .35824076 .25878907 .31921388 .25878907 .26934815V0H.083984378V.7597656H.25878907V.46679688C.28515626 .4988607 .31315104 .52250167 .34277345 .5377197 .37239585 .5529378 .4051107 .5605469 .44091798 .5605469 .50406906 .5605469 .55200198 .5411682 .5847168 .5024109 .61743167 .46365357 .63378909 .40731303 .63378909 .33338929Z"/>
<path id="font_1_4" d="M.37695313-.13183594H.2319336C.1821289-.051432294 .14534505 .024983725 .12158203 .09741211 .09781901 .1698405 .0859375 .24169922 .0859375 .31298829 .0859375 .38427735 .09790039 .45646159 .12182617 .529541 .14575196 .6026204 .18245442 .67903646 .2319336 .75878909H.37695313C.33528648 .6816406 .30403648 .6062012 .28320313 .5324707 .26236979 .45874024 .25195313 .38590495 .25195313 .31396485 .25195313 .24202474 .26228843 .16910808 .28295899 .095214847 .30362956 .021321616 .33496095-.05436198 .37695313-.13183594Z"/>
<path id="font_1_29" d="M.083984378 .7597656H.25878907V.3461914L.45996095 .546875H.66308596L.3959961 .29589845 .68408206 0H.47216798L.25878907 .22802735V0H.083984378V.7597656Z"/>
<path id="font_1_35" d="M.51123049 .53027346V.39746095C.47379557 .41308595 .43766276 .4248047 .40283204 .4326172 .3680013 .4404297 .3351237 .44433595 .30419923 .44433595 .2709961 .44433595 .24633789 .44017539 .23022461 .43185426 .21411133 .4235433 .20605469 .41074119 .20605469 .39344789 .20605469 .37941996 .2121582 .36865235 .22436524 .36114503 .23657227 .35364787 .25846354 .34810386 .29003907 .34451295L.32080079 .34010316C.410319 .32868959 .47054038 .30993144 .50146487 .28382875 .53238937 .2577362 .54785159 .21679688 .54785159 .16101074 .54785159 .102620448 .5263672 .058746339 .48339845 .029388428 .4404297 .000030517579 .3763021-.0146484379 .29101563-.0146484379 .2548828-.0146484379 .2175293-.01180013 .17895508-.0061035158 .14038086-.00040690104 .100748699 .0081380209 .060058595 .01953125V.15234375C.09488932 .13541667 .13061524 .12272135 .16723633 .11425781 .20385742 .10579427 .24104817 .1015625 .2788086 .1015625 .31298829 .1015625 .33870445 .106292728 .35595704 .115753177 .37320964 .12521363 .38183595 .13924153 .38183595 .15783692 .38183595 .17349243 .37589518 .18515015 .36401368 .19281006 .35213218 .20048015 .32845054 .20643616 .29296876 .2106781L.26220704 .21459961C.18440755 .22438558 .12988281 .2424876 .09863281 .26890565 .06738281 .29533387 .051757814 .33545939 .051757814 .38928224 .051757814 .44734703 .071614589 .49040733 .111328128 .51846316 .15104167 .546519 .21191406 .5605469 .2939453 .5605469 .32617188 .5605469 .36002604 .55810549 .3955078 .55322268 .4309896 .54833987 .4695638 .5406901 .51123049 .53027346Z"/>
<path id="font_1_5" d="M.080078128-.13183594C.12174479-.05436198 .1529948 .021321616 .17382813 .095214847 .19466146 .16910808 .20507813 .24202474 .20507813 .31396485 .20507813 .38590495 .19466146 .45874024 .17382813 .5324707 .1529948 .6062012 .12174479 .6816406 .080078128 .75878909H.22509766C.2745768 .67903646 .3112793 .6026204 .33520509 .529541 .35913087 .45646159 .37109376 .38427735 .37109376 .31298829 .37109376 .24169922 .35921226 .1698405 .33544923 .09741211 .3116862 .024983725 .27490235-.051432294 .22509766-.13183594H.080078128Z"/>
<clipPath id="clip_2">
<path transform="matrix(1,0,0,-1,0,221.79138)" d="M51.960626 36.679376H288.12065V217.47138H51.960626Z"/>
</clipPath>
<path id="font_1_6" d="M.10205078 .18945313H.27783204V0H.10205078V.18945313Z"/>
<path id="font_1_13" d="M.3618164 .359375C.3289388 .359375 .3042806 .3487142 .2878418 .32739259 .27140299 .30607096 .2631836 .27408854 .2631836 .23144531 .2631836 .18880208 .27140299 .15681966 .2878418 .13549805 .3042806 .11417643 .3289388 .103515628 .3618164 .103515628 .39501954 .103515628 .41984049 .11417643 .4362793 .13549805 .4527181 .15681966 .4609375 .18880208 .4609375 .23144531 .4609375 .27408854 .4527181 .30607096 .4362793 .32739259 .41984049 .3487142 .39501954 .359375 .3618164 .359375M.5942383 .70996096V.5751953C.5633138 .58984377 .5341797 .6006673 .50683596 .607666 .4794922 .61466476 .45279948 .61816409 .4267578 .61816409 .37076823 .61816409 .32714845 .6025798 .29589845 .57141116 .26464845 .5402425 .24641927 .49397788 .24121094 .4326172 .2626953 .44856773 .28597007 .4605306 .31103517 .46850587 .33610026 .4764811 .363444 .48046876 .3930664 .48046876 .4676107 .48046876 .5277507 .45865885 .5734863 .41503907 .619222 .37141929 .64208987 .31429038 .64208987 .24365235 .64208987 .16552735 .61653646 .10294596 .5654297 .055908204 .51432296 .008870442 .44580079-.0146484379 .35986329-.0146484379 .26513673-.0146484379 .19181316 .01735433 .13989258 .08135986 .08797201 .1453654 .06201172 .23616536 .06201172 .35375978 .06201172 .47427369 .09236654 .5689748 .15307617 .63786318 .21378581 .70676168 .29703776 .74121096 .40283204 .74121096 .4363607 .74121096 .46891276 .73860678 .5004883 .73339846 .5320638 .7281901 .5633138 .7203776 .5942383 .70996096Z"/>
<clipPath id="clip_3">
<path transform="matrix(1,0,0,-1,0,221.79138)" d="M51.960626 36.679376H288.12065V217.47138H51.960626Z"/>
</clipPath>
<clipPath id="clip_4">
<path transform="matrix(1,0,0,-1,0,221.79138)" d="M51.960626 36.679376H288.12065V217.47138H51.960626Z"/>
</clipPath>
<path id="font_1_14" d="M.06689453 .7294922H.61621096V.62345889L.33203126 0H.14892578L.41796876 .5908203H.06689453V.7294922Z"/>
<clipPath id="clip_5">
<path transform="matrix(1,0,0,-1,0,221.79138)" d="M51.960626 36.679376H288.12065V217.47138H51.960626Z"/>
</clipPath>
<clipPath id="clip_6">
<path transform="matrix(1,0,0,-1,0,221.79138)" d="M51.960626 36.679376H288.12065V217.47138H51.960626Z"/>
</clipPath>
<path id="font_1_15" d="M.34814454 .32617188C.31298829 .32617188 .28597007 .31654869 .26708985 .29730226 .24820964 .27805583 .23876953 .25048829 .23876953 .21459961 .23876953 .17871094 .24820964 .15122478 .26708985 .13214112 .28597007 .11305746 .31298829 .103515628 .34814454 .103515628 .38297526 .103515628 .40966798 .11305746 .42822267 .13214112 .44677735 .15122478 .4560547 .17871094 .4560547 .21459961 .4560547 .2508138 .44677735 .27846275 .42822267 .2975464 .40966798 .31663005 .38297526 .32617188 .34814454 .32617188M.2109375 .388443C.16666667 .40177918 .13330078 .42227174 .110839847 .44992066 .088378909 .47756959 .07714844 .5120494 .07714844 .55336 .07714844 .6148427 .100097659 .6616821 .1459961 .6938782 .19189453 .7260844 .25927735 .7421875 .34814454 .7421875 .4363607 .7421875 .50341799 .7261658 .5493164 .6941223 .59521487 .66208907 .61816409 .6151683 .61816409 .55336 .61816409 .5120494 .60685226 .47756959 .5842285 .44992066 .5616048 .42227174 .52815756 .40177918 .48388673 .388443 .5333659 .37475077 .5707194 .3524933 .59594729 .32167054 .6211751 .29084779 .63378909 .25195823 .63378909 .20500183 .63378909 .1325938 .6097819 .07788086 .5617676 .040863038 .51375326 .0038553875 .44254557-.0146484379 .34814454-.0146484379 .25341798-.0146484379 .18188477 .0038553875 .13354492 .040863038 .08520508 .07788086 .061035158 .1325938 .061035158 .20500183 .061035158 .25195823 .073649089 .29084779 .09887695 .32167054 .12410482 .3524933 .16145833 .37475077 .2109375 .388443M.2548828 .5344238C.2548828 .5055339 .26293946 .48329673 .27905274 .4677124 .29516603 .45212809 .31819663 .44433595 .34814454 .44433595 .3774414 .44433595 .4000651 .45212809 .41601563 .4677124 .43196617 .48329673 .4399414 .5055339 .4399414 .5344238 .4399414 .5633138 .43196617 .58546957 .41601563 .6008911 .4000651 .6163127 .3774414 .62402346 .34814454 .62402346 .31819663 .62402346 .29516603 .61623129 .27905274 .600647 .26293946 .5850627 .2548828 .5629883 .2548828 .5344238Z"/>
<clipPath id="clip_7">
<path transform="matrix(1,0,0,-1,0,221.79138)" d="M51.960626 36.679376H288.12065V217.47138H51.960626Z"/>
</clipPath>
<clipPath id="clip_8">
<path transform="matrix(1,0,0,-1,0,221.79138)" d="M51.960626 36.679376H288.12065V217.47138H51.960626Z"/>
</clipPath>
<path id="font_1_16" d="M.100097659 .015625V.15039063C.13004558 .13639324 .1586914 .12589519 .18603516 .118896488 .2133789 .11189779 .24039714 .10839844 .26708985 .10839844 .32307945 .10839844 .36669923 .12398275 .39794923 .15515137 .42919923 .18631999 .44759117 .23258464 .453125 .2939453 .4309896 .27766929 .4073893 .26546226 .38232423 .25732423 .35725913 .2491862 .33007813 .24511719 .30078126 .24511719 .22623699 .24511719 .166097 .2668457 .12036133 .31030274 .07462565 .35375978 .051757814 .41097007 .051757814 .4819336 .051757814 .5603841 .07722982 .62320968 .12817383 .67041018 .17911785 .71761068 .24739583 .74121096 .3330078 .74121096 .4280599 .74121096 .5016276 .7091268 .55371096 .6449585 .60579428 .5807902 .63183596 .49007163 .63183596 .37280274 .63183596 .25228883 .6013997 .1575826 .54052737 .08868408 .47965495 .019795737 .39615885-.0146484379 .29003907-.0146484379 .25585938-.0146484379 .22314453-.012125651 .19189453-.007080078 .16064453-.0020345052 .13004558 .005533854 .100097659 .015625M.33203126 .3671875C.36490885 .3671875 .38964845 .3778483 .40625 .39916993 .42285157 .42049156 .43115235 .45247398 .43115235 .4951172 .43115235 .5374349 .42285157 .56933596 .40625 .5908203 .38964845 .6123047 .36490885 .6230469 .33203126 .6230469 .29915367 .6230469 .27441407 .6123047 .2578125 .5908203 .24121094 .56933596 .23291016 .5374349 .23291016 .4951172 .23291016 .45247398 .24121094 .42049156 .2578125 .39916993 .27441407 .3778483 .29915367 .3671875 .33203126 .3671875Z"/>
<clipPath id="clip_9">
<path transform="matrix(1,0,0,-1,0,221.79138)" d="M51.960626 36.679376H288.12065V217.47138H51.960626Z"/>
</clipPath>
<path id="font_1_19" d="M.091796878 .7294922H.27978517V.07128906C.27978517-.01969401 .25512696-.08768717 .20581055-.13269043 .15649414-.17769368 .08186849-.20019531-.018066407-.20019531H-.056152345V-.057617189H-.026855469C.012207031-.057617189 .041748048-.04671224 .061767579-.024902344 .08178711-.003092448 .091796878 .028971354 .091796878 .07128906V.7294922Z"/>
<path id="font_1_37" d="M.078125 .21289063V.546875H.25390626V.4921875C.25390626 .4625651 .2537435 .42537437 .25341798 .38061524 .25309245 .3358561 .2529297 .3059896 .2529297 .29101563 .2529297 .24707031 .254069 .2154134 .25634767 .19604492 .2586263 .17667644 .26253257 .16259766 .2680664 .1538086 .27522788 .14241536 .28458659 .1336263 .29614259 .1274414 .30769859 .12125651 .32096354 .11816406 .3359375 .11816406 .37239585 .11816406 .40104167 .13216146 .421875 .16015625 .44270835 .18815105 .453125 .22705078 .453125 .27685548V.546875H.6279297V0H.453125V.07910156C.4267578 .04703776 .3988444 .02339681 .36938478 .008178711 .33992515-.007039388 .30745445-.0146484379 .27197267-.0146484379 .20882161-.0146484379 .1607259 .004760742 .12768555 .0435791 .09464518 .08239746 .078125 .13883464 .078125 .21289063Z"/>
<path id="font_1_23" d="M.4560547 .46679688V.7597656H.63183596V0H.4560547V.07910156C.43196617 .04670207 .4054362 .02297465 .37646485 .0079193119 .3474935-.0071258547 .31396485-.0146484379 .2758789-.0146484379 .2084961-.0146484379 .15315755 .012171428 .10986328 .06581116 .06656901 .11945089 .044921876 .1884969 .044921876 .27294923 .044921876 .35740153 .06656901 .42644755 .10986328 .48008729 .15315755 .533727 .2084961 .5605469 .2758789 .5605469 .3136393 .5605469 .34708659 .5529378 .3762207 .5377197 .40535484 .52250167 .43196617 .4988607 .4560547 .46679688M.3408203 .11230469C.37825523 .11230469 .40681968 .12601726 .42651368 .15344239 .44620768 .18086751 .4560547 .22070313 .4560547 .27294923 .4560547 .3251953 .44620768 .3650309 .42651368 .39245606 .40681968 .4198812 .37825523 .43359376 .3408203 .43359376 .30371095 .43359376 .27530924 .4198812 .25561524 .39245606 .23592122 .3650309 .22607422 .3251953 .22607422 .27294923 .22607422 .22070313 .23592122 .18086751 .25561524 .15344239 .27530924 .12601726 .30371095 .11230469 .3408203 .11230469Z"/>
<path id="font_1_27" d="M.083984378 .546875H.25878907V0H.083984378V.546875M.083984378 .7597656H.25878907V.6171875H.083984378V.7597656Z"/>
<path id="font_1_21" d="M.32910157 .24511719C.29264323 .24511719 .2652181 .23895264 .24682617 .22662354 .22843425 .21429444 .21923828 .1961263 .21923828 .17211914 .21923828 .15006511 .22664388 .13279216 .24145508 .12030029 .25626628 .10780843 .27685548 .1015625 .30322267 .1015625 .33610026 .1015625 .36376954 .11332194 .38623048 .13684082 .4086914 .1603597 .41992188 .189799 .41992188 .22515869V.24511719H.32910157M.5961914 .31134034V0H.41992188V.08105469C.39648438 .04767863 .3701172 .023381552 .3408203 .008163452 .31152345-.007044474 .2758789-.0146484379 .23388672-.0146484379 .1772461-.0146484379 .13126628 .0018717448 .095947269 .03491211 .060628255 .06795248 .04296875 .110839847 .04296875 .16357422 .04296875 .22770183 .06502279 .2747396 .10913086 .3046875 .15323894 .3346354 .22249349 .34960938 .31689454 .34960938H.41992188V.3635559C.41992188 .39146934 .40901695 .411911 .38720704 .42488099 .36539714 .43785096 .33138023 .44433595 .28515626 .44433595 .24772136 .44433595 .21289063 .44059245 .18066406 .43310548 .1484375 .4256185 .118489589 .41438804 .09082031 .39941407V.5332031C.1282552 .54215499 .16585286 .5489502 .20361328 .55358889 .2413737 .55822756 .27913413 .5605469 .31689454 .5605469 .41552735 .5605469 .48673503 .54100546 .5305176 .5019226 .5743001 .46283976 .5961914 .39931236 .5961914 .31134034Z"/>
<path id="font_1_22" d="M.5258789 .53027346V.3876953C.5021159 .40397135 .47827149 .41601563 .4543457 .42382813 .43041993 .43164063 .40559898 .43554688 .3798828 .43554688 .3310547 .43554688 .29305015 .42125956 .26586915 .39268495 .23868816 .36412049 .22509766 .3242086 .22509766 .27294923 .22509766 .22168987 .23868816 .18177288 .26586915 .15319824 .29305015 .12463379 .3310547 .11035156 .3798828 .11035156 .40722657 .11035156 .43318687 .114461269 .45776368 .122680667 .48234049 .13090007 .5050456 .1430664 .5258789 .15917969V.015625C.49853517 .005533854 .47078453-.0020345052 .44262696-.007080078 .4144694-.012125651 .38623048-.0146484379 .35791017-.0146484379 .25927735-.0146484379 .1821289 .010701497 .12646485 .061401369 .07080078 .11211141 .04296875 .18262737 .04296875 .27294923 .04296875 .3632711 .07080078 .43378196 .12646485 .4844818 .1821289 .53519186 .25927735 .5605469 .35791017 .5605469 .386556 .5605469 .41479493 .5580241 .44262696 .5529785 .47045899 .5479329 .49820964 .54036459 .5258789 .53027346Z"/>
<path id="font_1_34" d="M.49023438 .39746095C.4749349 .40478517 .4597168 .41019694 .44458009 .4136963 .42944337 .41719566 .41422526 .4189453 .39892579 .4189453 .3540039 .4189453 .31941734 .4045156 .29516603 .37565614 .2709147 .34679667 .25878907 .3054606 .25878907 .25164796V0H.083984378V.546875H.25878907V.45703126C.28125 .49301148 .30704753 .5192566 .33618165 .5357666 .36531578 .5522868 .40022788 .5605469 .44091798 .5605469 .44677735 .5605469 .453125 .56029257 .45996095 .55978396 .46679688 .55928549 .47672526 .55819198 .4897461 .5565033L.49023438 .39746095Z"/>
<path id="font_1_39" d="M.012207031 .546875H.18701172L.33398438 .17578125 .45898438 .546875H.63378909L.4038086-.05130005C.38069663-.112345378 .35375978-.15502422 .32299806-.17933655 .29223634-.20365906 .2516276-.21582031 .20117188-.21582031H.100097659V-.10058594H.15478516C.18440755-.10058594 .20597331-.09588623 .21948242-.08648682 .23299153-.07709757 .24348958-.060256959 .25097657-.035964967L.25585938-.020828248 .012207031 .546875Z"/>
<clipPath id="clip_10">
<path transform="matrix(1,0,0,-1,0,221.79138)" d="M51.960626 36.679376H288.12065V217.47138H51.960626Z"/>
</clipPath>
<clipPath id="clip_11">
<path transform="matrix(1,0,0,-1,0,221.79138)" d="M51.960626 36.679376H288.12065V217.47138H51.960626Z"/>
</clipPath>
<clipPath id="clip_12">
<path transform="matrix(1,0,0,-1,0,221.79138)" d="M51.960626 36.679376H288.12065V217.47138H51.960626Z"/>
</clipPath>
<clipPath id="clip_13">
<path transform="matrix(1,0,0,-1,0,221.79138)" d="M51.960626 36.679376H288.12065V217.47138H51.960626Z"/>
</clipPath>
<clipPath id="clip_14">
<path transform="matrix(1,0,0,-1,0,221.79138)" d="M51.960626 36.679376H288.12065V217.47138H51.960626Z"/>
</clipPath>
<path id="font_1_38" d="M.03515625 .546875H.20507813L.296875 .16992188 .38916017 .546875H.53515627L.6269531 .17382813 .7192383 .546875H.88916018L.7451172 0H.5541992L.46191407 .37597657 .3701172 0H.17919922L.03515625 .546875Z"/>
<path id="font_1_33" d="M.25878907 .07910156V-.20800781H.083984378V.546875H.25878907V.46679688C.2828776 .4988607 .3095703 .52250167 .3388672 .5377197 .36816407 .5529378 .40185548 .5605469 .4399414 .5605469 .5073242 .5605469 .5626628 .533727 .60595706 .48008729 .6492513 .42644755 .67089846 .35740153 .67089846 .27294923 .67089846 .1884969 .6492513 .11945089 .60595706 .06581116 .5626628 .012171428 .5073242-.0146484379 .4399414-.0146484379 .40185548-.0146484379 .36816407-.007039388 .3388672 .008178711 .3095703 .02339681 .2828776 .04703776 .25878907 .07910156M.375 .43359376C.3375651 .43359376 .3088379 .4197998 .28881837 .3922119 .26879884 .36462403 .25878907 .32486979 .25878907 .27294923 .25878907 .22102864 .26879884 .18127442 .28881837 .15368653 .3088379 .12609864 .3375651 .11230469 .375 .11230469 .4124349 .11230469 .44099937 .12601726 .46069337 .15344239 .48038737 .18086751 .49023438 .22070313 .49023438 .27294923 .49023438 .3251953 .48038737 .3650309 .46069337 .39245606 .44099937 .4198812 .4124349 .43359376 .375 .43359376Z"/>
<path id="font_15_9" d="M.067871097 .21289063 .13183594 .546875H.3071289L.25195313 .26220704C.24804688 .24365235 .24511719 .22786458 .24316406 .21484375 .24121094 .20182292 .24023438 .19156902 .24023438 .18408203 .24023438 .16357422 .24593099 .1476237 .25732423 .13623047 .26871745 .12483724 .2849935 .119140628 .30615235 .119140628 .34228517 .119140628 .3733724 .13313802 .39941407 .16113281 .42545573 .18912761 .44335938 .22802735 .453125 .27783204L.5058594 .546875H.68115237L.5751953 0H.39892579L.41503907 .080078128C.38509117 .048339845 .35367839 .024617514 .32080079 .008911133 .2879232-.0067952477 .25325523-.0146484379 .21679688-.0146484379 .16699219-.0146484379 .12841797-.0014394125 .10107422 .024978638 .07373047 .05140686 .060058595 .088760379 .060058595 .13703919 .060058595 .14846294 .060709638 .16053264 .06201172 .17324829 .063313808 .18597412 .06526693 .19918823 .067871097 .21289063Z"/>
<path id="font_15_6" d="M.64501956 .33338929 .5800781 0H.40478517L.45996095 .28547669C.4638672 .30405174 .46687828 .31977336 .46899415 .3326416 .47111003 .34552003 .47216798 .3557078 .47216798 .36320497 .47216798 .38405863 .46638999 .40018717 .45483399 .41159059 .44327799 .42300416 .42692057 .42871095 .40576173 .42871095 .3696289 .42871095 .33862306 .4146169 .31274415 .38642884 .28686524 .35824076 .26888023 .31921388 .25878907 .26934815L.20605469 0H.030761719L.13720703 .546875H.31298829L.296875 .46713258C.32910157 .49875895 .36149089 .52223208 .39404298 .5375519 .42659507 .5528819 .46061198 .5605469 .49609376 .5605469 .5465495 .5605469 .5854492 .5473582 .61279299 .52098086 .6401367 .49460349 .6538086 .45747376 .6538086 .40959168 .6538086 .39917503 .6530762 .38761393 .6516113 .37490846 .6501465 .36221314 .6479492 .3483734 .64501956 .33338929Z"/>
<path id="font_15_4" d="M.3071289 .11230469C.35205079 .11230469 .38859049 .1330363 .41674806 .17449951 .4449056 .2159729 .45898438 .27017723 .45898438 .33711244 .45898438 .36747743 .45109049 .3911489 .43530274 .40812684 .41951499 .42510478 .39746095 .43359376 .36914063 .43359376 .32486979 .43359376 .28841148 .4131063 .25976563 .37213136 .2311198 .3311564 .21679688 .27866618 .21679688 .21466065 .21679688 .18135579 .224528 .15597026 .23999024 .13850403 .25545249 .1210378 .27783204 .11230469 .3071289 .11230469M.49121095 .46728517 .54785159 .7597656H.7241211L.5761719 0H.39990235L.41601563 .07876587C.3893229 .046813966 .36132813 .023254395 .33203126 .008087158 .30273438-.0070699059 .27067057-.0146484379 .23583985-.0146484379 .1743164-.0146484379 .12565105 .00491333 .08984375 .044036867 .054036458 .08317057 .036132814 .13648479 .036132814 .20397949 .036132814 .24604289 .04239909 .28696696 .05493164 .3267517 .067464198 .36653648 .08544922 .40273033 .10888672 .43533326 .13850911 .47642008 .17195638 .50755819 .20922852 .52874758 .24650066 .5499471 .28645835 .5605469 .32910157 .5605469 .36653648 .5605469 .3983561 .5529785 .42456056 .5378418 .45076499 .5227051 .47298179 .4991862 .49121095 .46728517Z"/>
<path id="font_15_5" d="M.62890627 .25354005 .6230469 .22558594H.21386719C.21386719 .22361247 .21370442 .22073873 .2133789 .21696472 .21305339 .21320088 .21289063 .21033223 .21289063 .20835877 .21289063 .17259217 .22355144 .14584859 .24487305 .12812805 .26619468 .11041769 .2981771 .1015625 .3408203 .1015625 .37760417 .1015625 .41642253 .10713705 .4572754 .11828613 .49812828 .12943523 .5410156 .1459961 .5859375 .16796875L.55908206 .032226564C.5164388 .016438803 .4740397 .004679362 .43188478-.0030517579 .38972984-.010782878 .34684245-.0146484379 .30322267-.0146484379 .2179362-.0146484379 .15209961 .0050760905 .10571289 .044525148 .059326173 .083984378 .036132814 .13974507 .036132814 .21180725 .036132814 .25354515 .04353841 .29405723 .05834961 .3333435 .073160808 .37263999 .09472656 .40859477 .123046878 .4412079 .15657552 .48033143 .19669597 .5099996 .2434082 .5302124 .29012046 .55043539 .34195964 .5605469 .39892579 .5605469 .472819 .5605469 .53149417 .540858 .5749512 .5014801 .6184082 .46211244 .6401367 .40907798 .6401367 .3423767 .6401367 .32935588 .6392415 .31560264 .6374512 .30111695 .6356608 .28664146 .6328125 .27078248 .62890627 .25354005M.4638672 .33398438C.46484376 .3381958 .46557618 .34248863 .46606446 .3468628 .46655274 .35123698 .46679688 .35553489 .46679688 .35975648 .46679688 .38567607 .45898438 .40625 .44335938 .42147828 .42773438 .4367167 .40657554 .44433595 .3798828 .44433595 .34570313 .44433595 .3166504 .4350179 .2927246 .41638185 .26879884 .39774577 .25048829 .37027995 .23779297 .33398438H.4638672Z"/>
<path id="font_15_8" d="M.51416018 .39746095C.5021159 .40445964 .48876954 .40979005 .4741211 .41345216 .45947267 .41711427 .4436849 .4189453 .4267578 .4189453 .38216148 .4189453 .34513346 .40459696 .31567384 .37590028 .2862142 .34720359 .26627604 .30578614 .25585938 .25164796L.20605469 0H.030761719L.13720703 .546875H.31298829L.2939453 .453125C.31705729 .4877828 .34594728 .5143483 .38061524 .53282168 .4152832 .5513051 .45377604 .5605469 .49609376 .5605469 .5022786 .5605469 .50927737 .5602112 .51708987 .5595398 .52490237 .5588684 .5341797 .55785629 .5449219 .5565033L.51416018 .39746095Z"/>
<path id="font_15_7" d="M.375 .43554688C.3297526 .43554688 .29248048 .41497804 .2631836 .37384034 .23388672 .33270265 .21923828 .28029887 .21923828 .21662903 .21923828 .1820221 .22713216 .1556549 .24291992 .13752747 .25870768 .119410198 .28173829 .11035156 .31201173 .11035156 .35725913 .11035156 .39453126 .13100179 .42382813 .17230225 .453125 .2136027 .46777345 .2662506 .46777345 .33024598 .46777345 .36452738 .45987956 .39064536 .4440918 .40859986 .42830406 .42656455 .40527345 .43554688 .375 .43554688M.38916017 .5605469C.47054038 .5605469 .5345052 .5398407 .5810547 .49842835 .6276042 .457016 .6508789 .40060426 .6508789 .32919313 .6508789 .28778077 .6435547 .24758911 .62890627 .20861817 .6142578 .1696574 .5929362 .13403829 .5649414 .101760867 .5317383 .06328837 .49251304 .034266157 .44726563 .014694214 .40201823-.0048675539 .3515625-.0146484379 .29589845-.0146484379 .2154948-.0146484379 .15209961 .0060577394 .10571289 .047470094 .059326173 .08888245 .036132814 .14529419 .036132814 .21670532 .036132814 .25779215 .043619794 .29797874 .05859375 .337265 .07356771 .3765615 .095052089 .4125112 .123046878 .44511415 .15559896 .48293559 .19441732 .5116272 .23950196 .53118899 .28458659 .5507609 .33447267 .5605469 .38916017 .5605469Z"/>
<path id="font_15_10" d="M.06298828 .546875H.2241211L.29492188 .16503906 .50097659 .546875H.67822268L.3569336 0H.171875L.06298828 .546875Z"/>
<path id="font_1_10" d="M.4658203 .39257813C.51497396 .3798828 .55232748 .35782878 .57788088 .32641603 .60343429 .29500328 .61621096 .25504557 .61621096 .20654297 .61621096 .13427735 .5885417 .0793457 .5332031 .041748048 .4778646 .0041503908 .3971354-.0146484379 .29101563-.0146484379 .25358073-.0146484379 .21606446-.01163737 .1784668-.0056152346 .14086914 .00040690104 .10367838 .0094401049 .06689453 .021484375V.16699219C.10205078 .1492513 .13696289 .13586426 .17163086 .12683106 .20629883 .11779785 .24039714 .11328125 .27392579 .11328125 .32373048 .11328125 .3618978 .121907558 .38842774 .13916016 .41495768 .15641277 .42822267 .18115235 .42822267 .2133789 .42822267 .24658203 .41463218 .27172853 .38745118 .28881837 .36027018 .3059082 .32014976 .31445313 .26708985 .31445313H.19189453V.43554688H.2709961C.31819663 .43554688 .35335288 .44295249 .37646485 .45776368 .3995768 .47257487 .4111328 .4951172 .4111328 .5253906 .4111328 .55338546 .39990235 .57503256 .3774414 .59033206 .35498048 .60563156 .3232422 .61328127 .28222657 .61328127 .25195313 .61328127 .22135417 .6098226 .19042969 .6029053 .1595052 .595988 .12874349 .5857747 .09814453 .5722656V.70996096C.1352539 .7207031 .17203777 .72875979 .2084961 .73413088 .24495442 .73950198 .28076173 .7421875 .31591798 .7421875 .41064454 .7421875 .4815267 .72661849 .52856448 .69548037 .57560226 .6643524 .5991211 .61749777 .5991211 .5549164 .5991211 .5122121 .5878906 .47724916 .5654297 .45002748 .54296877 .42281596 .5097656 .40366618 .4658203 .39257813Z"/>
<path id="font_1_17" d="M.38378907 .44726563C.41341148 .44726563 .4358724 .45377604 .45117188 .46679688 .46647135 .47981773 .4741211 .49902345 .4741211 .52441409 .4741211 .5494792 .46647135 .5686035 .45117188 .5817871 .4358724 .5949707 .41341148 .6015625 .38378907 .6015625H.27978517V.44726563H.38378907M.39013673 .12792969C.42789714 .12792969 .45629884 .1359253 .4753418 .1519165 .49438478 .16790772 .50390627 .1920573 .50390627 .22436524 .50390627 .25602214 .49446617 .2797648 .47558595 .29559327 .45670573 .31142173 .42822267 .31933595 .39013673 .31933595H.27978517V.12792969H.39013673M.5649414 .390625C.60530599 .3788961 .63655599 .3572235 .6586914 .3256073 .68082687 .2939911 .69189456 .25520326 .69189456 .20924378 .69189456 .13883972 .66813156 .086364749 .62060549 .051818849 .5730794 .01727295 .5008138 0 .4038086 0H.091796878V.7294922H.37402345C.4752604 .7294922 .548584 .7141927 .59399417 .68359377 .6394043 .6529948 .6621094 .6040039 .6621094 .5366211 .6621094 .50113937 .6538086 .47094728 .63720706 .44604493 .62060549 .42114259 .5965169 .40266929 .5649414 .390625Z"/>
<path id="font_1_28" d="M.083984378 .546875H.25878907V.010177612C.25878907-.063196819 .24121094-.11920675 .20605469-.15785218 .17089844-.1964976 .11995443-.21582031 .053222658-.21582031H-.033203126V-.10058594H-.0029296876C.030273438-.10058594 .053059896-.09310404 .06542969-.07814026 .07779948-.063176479 .083984378-.033737184 .083984378 .010177612V.546875M.083984378 .7597656H.25878907V.6171875H.083984378V.7597656Z"/>
<path id="font_1_11" d="M.36816407 .57470706 .16210938 .26953126H.36816407V.57470706M.33691407 .7294922H.54589846V.26953126H.64990237V.1328125H.54589846V0H.36816407V.1328125H.044921876V.29408265L.33691407 .7294922Z"/>
</defs>
<path transform="matrix(1,0,0,-1,0,221.79138)" d="M0 0H307.0656V221.79138H0Z" fill="#ffffff"/>
<path transform="matrix(1,0,0,-1,0,221.79138)" d="M51.960626 36.679376H288.12065V217.47138H51.960626Z" fill="#ffffff"/>
<path transform="matrix(1,0,0,-1,0,221.79138)" d="M51.960626 36.679376V33.679376" fill="#1f2937"/>
<path transform="matrix(1,0,0,-1,0,221.79138)" stroke-width=".7" stroke-linecap="butt" stroke-linejoin="round" fill="none" stroke="#1f2937" d="M51.960626 36.679376V33.679376"/>
<use data-text="0" xlink:href="#font_1_7" transform="matrix(10.5,0,0,-10.5,48.304376,199.47138)" fill="#1f2937"/>
<path transform="matrix(1,0,0,-1,0,221.79138)" d="M111.000629 36.679376V33.679376" fill="#1f2937"/>
<path transform="matrix(1,0,0,-1,0,221.79138)" stroke-width=".7" stroke-linecap="butt" stroke-linejoin="round" fill="none" stroke="#1f2937" d="M111.000629 36.679376V33.679376"/>
<use data-text="5" xlink:href="#font_1_12" transform="matrix(10.5,0,0,-10.5,100.031879,199.47138)" fill="#1f2937"/>
<use data-text="0" xlink:href="#font_1_7" transform="matrix(10.5,0,0,-10.5,107.339878,199.47138)" fill="#1f2937"/>
<use data-text="0" xlink:href="#font_1_7" transform="matrix(10.5,0,0,-10.5,114.64787,199.47138)" fill="#1f2937"/>
<path transform="matrix(1,0,0,-1,0,221.79138)" d="M170.04062 36.679376V33.679376" fill="#1f2937"/>
<path transform="matrix(1,0,0,-1,0,221.79138)" stroke-width=".7" stroke-linecap="butt" stroke-linejoin="round" fill="none" stroke="#1f2937" d="M170.04062 36.679376V33.679376"/>
<use data-text="1" xlink:href="#font_1_8" transform="matrix(10.5,0,0,-10.5,155.41562,199.47138)" fill="#1f2937"/>
<use data-text="0" xlink:href="#font_1_7" transform="matrix(10.5,0,0,-10.5,162.72362,199.47138)" fill="#1f2937"/>
<use data-text="0" xlink:href="#font_1_7" transform="matrix(10.5,0,0,-10.5,170.03162,199.47138)" fill="#1f2937"/>
<use data-text="0" xlink:href="#font_1_7" transform="matrix(10.5,0,0,-10.5,177.33962,199.47138)" fill="#1f2937"/>
<path transform="matrix(1,0,0,-1,0,221.79138)" d="M229.08063 36.679376V33.679376" fill="#1f2937"/>
<path transform="matrix(1,0,0,-1,0,221.79138)" stroke-width=".7" stroke-linecap="butt" stroke-linejoin="round" fill="none" stroke="#1f2937" d="M229.08063 36.679376V33.679376"/>
<use data-text="1" xlink:href="#font_1_8" transform="matrix(10.5,0,0,-10.5,214.45563,199.47138)" fill="#1f2937"/>
<use data-text="5" xlink:href="#font_1_12" transform="matrix(10.5,0,0,-10.5,221.76363,199.47138)" fill="#1f2937"/>
<use data-text="0" xlink:href="#font_1_7" transform="matrix(10.5,0,0,-10.5,229.07163,199.47138)" fill="#1f2937"/>
<use data-text="0" xlink:href="#font_1_7" transform="matrix(10.5,0,0,-10.5,236.37963,199.47138)" fill="#1f2937"/>
<path transform="matrix(1,0,0,-1,0,221.79138)" d="M288.12065 36.679376V33.679376" fill="#1f2937"/>
<path transform="matrix(1,0,0,-1,0,221.79138)" stroke-width=".7" stroke-linecap="butt" stroke-linejoin="round" fill="none" stroke="#1f2937" d="M288.12065 36.679376V33.679376"/>
<use data-text="2" xlink:href="#font_1_9" transform="matrix(10.5,0,0,-10.5,273.49565,199.47138)" fill="#1f2937"/>
<use data-text="0" xlink:href="#font_1_7" transform="matrix(10.5,0,0,-10.5,280.80366,199.47138)" fill="#1f2937"/>
<use data-text="0" xlink:href="#font_1_7" transform="matrix(10.5,0,0,-10.5,288.11164,199.47138)" fill="#1f2937"/>
<use data-text="0" xlink:href="#font_1_7" transform="matrix(10.5,0,0,-10.5,295.41966,199.47138)" fill="#1f2937"/>
<use data-text="C" xlink:href="#font_1_18" transform="matrix(12,0,0,-12,103.2125,214.87763)" fill="#1f2937"/>
<use data-text="o" xlink:href="#font_1_32" transform="matrix(12,0,0,-12,112.0205,214.87763)" fill="#1f2937"/>
<use data-text="T" xlink:href="#font_1_20" transform="matrix(12,0,0,-12,120.2645,214.87763)" fill="#1f2937"/>
<use data-text=" " xlink:href="#font_1_3" transform="matrix(12,0,0,-12,128.4485,214.87763)" fill="#1f2937"/>
<use data-text="l" xlink:href="#font_1_30" transform="matrix(12,0,0,-12,132.62451,214.87763)" fill="#1f2937"/>
<use data-text="e" xlink:href="#font_1_24" transform="matrix(12,0,0,-12,136.74051,214.87763)" fill="#1f2937"/>
<use data-text="n" xlink:href="#font_1_31" transform="matrix(12,0,0,-12,144.87651,214.87763)" fill="#1f2937"/>
<use data-text="g" xlink:href="#font_1_25" transform="matrix(12,0,0,-12,153.4205,214.87763)" fill="#1f2937"/>
<use data-text="t" xlink:href="#font_1_36" transform="matrix(12,0,0,-12,162.01251,214.87763)" fill="#1f2937"/>
<use data-text="h" xlink:href="#font_1_26" transform="matrix(12,0,0,-12,167.7485,214.87763)" fill="#1f2937"/>
<use data-text=" " xlink:href="#font_1_3" transform="matrix(12,0,0,-12,176.29251,214.87763)" fill="#1f2937"/>
<use data-text="(" xlink:href="#font_1_4" transform="matrix(12,0,0,-12,180.4685,214.87763)" fill="#1f2937"/>
<use data-text="t" xlink:href="#font_1_36" transform="matrix(12,0,0,-12,185.95252,214.87763)" fill="#1f2937"/>
<use data-text="o" xlink:href="#font_1_32" transform="matrix(12,0,0,-12,191.6885,214.87763)" fill="#1f2937"/>
<use data-text="k" xlink:href="#font_1_29" transform="matrix(12,0,0,-12,199.93253,214.87763)" fill="#1f2937"/>
<use data-text="e" xlink:href="#font_1_24" transform="matrix(12,0,0,-12,207.60002,214.87763)" fill="#1f2937"/>
<use data-text="n" xlink:href="#font_1_31" transform="matrix(12,0,0,-12,215.73603,214.87763)" fill="#1f2937"/>
<use data-text="s" xlink:href="#font_1_35" transform="matrix(12,0,0,-12,224.28003,214.87763)" fill="#1f2937"/>
<use data-text=")" xlink:href="#font_1_5" transform="matrix(12,0,0,-12,231.42002,214.87763)" fill="#1f2937"/>
<g clip-path="url(#clip_2)">
<path transform="matrix(1,0,0,-1,0,221.79138)" stroke-width=".5" stroke-linecap="square" stroke-linejoin="round" fill="none" stroke="#e5e7eb" stroke-opacity=".5" d="M51.960626 45.95076H288.12065"/>
</g>
<path transform="matrix(1,0,0,-1,0,221.79138)" d="M51.960626 45.95076H48.960626" fill="#1f2937"/>
<path transform="matrix(1,0,0,-1,0,221.79138)" stroke-width=".7" stroke-linecap="butt" stroke-linejoin="round" fill="none" stroke="#1f2937" d="M51.960626 45.95076H48.960626"/>
<use data-text="0" xlink:href="#font_1_7" transform="matrix(10.5,0,0,-10.5,20.03875,180.02031)" fill="#1f2937"/>
<use data-text="." xlink:href="#font_1_6" transform="matrix(10.5,0,0,-10.5,27.34675,180.02031)" fill="#1f2937"/>
<use data-text="6" xlink:href="#font_1_13" transform="matrix(10.5,0,0,-10.5,31.33675,180.02031)" fill="#1f2937"/>
<use data-text="0" xlink:href="#font_1_7" transform="matrix(10.5,0,0,-10.5,38.644754,180.02031)" fill="#1f2937"/>
<g clip-path="url(#clip_3)">
<path transform="matrix(1,0,0,-1,0,221.79138)" stroke-width=".5" stroke-linecap="square" stroke-linejoin="round" fill="none" stroke="#e5e7eb" stroke-opacity=".5" d="M51.960626 69.12922H288.12065"/>
</g>
<path transform="matrix(1,0,0,-1,0,221.79138)" d="M51.960626 69.12922H48.960626" fill="#1f2937"/>
<path transform="matrix(1,0,0,-1,0,221.79138)" stroke-width=".7" stroke-linecap="butt" stroke-linejoin="round" fill="none" stroke="#1f2937" d="M51.960626 69.12922H48.960626"/>
<use data-text="0" xlink:href="#font_1_7" transform="matrix(10.5,0,0,-10.5,20.03875,156.84186)" fill="#1f2937"/>
<use data-text="." xlink:href="#font_1_6" transform="matrix(10.5,0,0,-10.5,27.34675,156.84186)" fill="#1f2937"/>
<use data-text="6" xlink:href="#font_1_13" transform="matrix(10.5,0,0,-10.5,31.33675,156.84186)" fill="#1f2937"/>
<use data-text="5" xlink:href="#font_1_12" transform="matrix(10.5,0,0,-10.5,38.644754,156.84186)" fill="#1f2937"/>
<g clip-path="url(#clip_4)">
<path transform="matrix(1,0,0,-1,0,221.79138)" stroke-width=".5" stroke-linecap="square" stroke-linejoin="round" fill="none" stroke="#e5e7eb" stroke-opacity=".5" d="M51.960626 92.307689H288.12065"/>
</g>
<path transform="matrix(1,0,0,-1,0,221.79138)" d="M51.960626 92.307689H48.960626" fill="#1f2937"/>
<path transform="matrix(1,0,0,-1,0,221.79138)" stroke-width=".7" stroke-linecap="butt" stroke-linejoin="round" fill="none" stroke="#1f2937" d="M51.960626 92.307689H48.960626"/>
<use data-text="0" xlink:href="#font_1_7" transform="matrix(10.5,0,0,-10.5,20.03875,133.66339)" fill="#1f2937"/>
<use data-text="." xlink:href="#font_1_6" transform="matrix(10.5,0,0,-10.5,27.34675,133.66339)" fill="#1f2937"/>
<use data-text="7" xlink:href="#font_1_14" transform="matrix(10.5,0,0,-10.5,31.33675,133.66339)" fill="#1f2937"/>
<use data-text="0" xlink:href="#font_1_7" transform="matrix(10.5,0,0,-10.5,38.644754,133.66339)" fill="#1f2937"/>
<g clip-path="url(#clip_5)">
<path transform="matrix(1,0,0,-1,0,221.79138)" stroke-width=".5" stroke-linecap="square" stroke-linejoin="round" fill="none" stroke="#e5e7eb" stroke-opacity=".5" d="M51.960626 115.486148H288.12065"/>
</g>
<path transform="matrix(1,0,0,-1,0,221.79138)" d="M51.960626 115.486148H48.960626" fill="#1f2937"/>
<path transform="matrix(1,0,0,-1,0,221.79138)" stroke-width=".7" stroke-linecap="butt" stroke-linejoin="round" fill="none" stroke="#1f2937" d="M51.960626 115.486148H48.960626"/>
<use data-text="0" xlink:href="#font_1_7" transform="matrix(10.5,0,0,-10.5,20.03875,110.484928)" fill="#1f2937"/>
<use data-text="." xlink:href="#font_1_6" transform="matrix(10.5,0,0,-10.5,27.34675,110.484928)" fill="#1f2937"/>
<use data-text="7" xlink:href="#font_1_14" transform="matrix(10.5,0,0,-10.5,31.33675,110.484928)" fill="#1f2937"/>
<use data-text="5" xlink:href="#font_1_12" transform="matrix(10.5,0,0,-10.5,38.644754,110.484928)" fill="#1f2937"/>
<g clip-path="url(#clip_6)">
<path transform="matrix(1,0,0,-1,0,221.79138)" stroke-width=".5" stroke-linecap="square" stroke-linejoin="round" fill="none" stroke="#e5e7eb" stroke-opacity=".5" d="M51.960626 138.66461H288.12065"/>
</g>
<path transform="matrix(1,0,0,-1,0,221.79138)" d="M51.960626 138.66461H48.960626" fill="#1f2937"/>
<path transform="matrix(1,0,0,-1,0,221.79138)" stroke-width=".7" stroke-linecap="butt" stroke-linejoin="round" fill="none" stroke="#1f2937" d="M51.960626 138.66461H48.960626"/>
<use data-text="0" xlink:href="#font_1_7" transform="matrix(10.5,0,0,-10.5,20.03875,87.30646)" fill="#1f2937"/>
<use data-text="." xlink:href="#font_1_6" transform="matrix(10.5,0,0,-10.5,27.34675,87.30646)" fill="#1f2937"/>
<use data-text="8" xlink:href="#font_1_15" transform="matrix(10.5,0,0,-10.5,31.33675,87.30646)" fill="#1f2937"/>
<use data-text="0" xlink:href="#font_1_7" transform="matrix(10.5,0,0,-10.5,38.644754,87.30646)" fill="#1f2937"/>
<g clip-path="url(#clip_7)">
<path transform="matrix(1,0,0,-1,0,221.79138)" stroke-width=".5" stroke-linecap="square" stroke-linejoin="round" fill="none" stroke="#e5e7eb" stroke-opacity=".5" d="M51.960626 161.84307H288.12065"/>
</g>
<path transform="matrix(1,0,0,-1,0,221.79138)" d="M51.960626 161.84307H48.960626" fill="#1f2937"/>
<path transform="matrix(1,0,0,-1,0,221.79138)" stroke-width=".7" stroke-linecap="butt" stroke-linejoin="round" fill="none" stroke="#1f2937" d="M51.960626 161.84307H48.960626"/>
<use data-text="0" xlink:href="#font_1_7" transform="matrix(10.5,0,0,-10.5,20.03875,64.128009)" fill="#1f2937"/>
<use data-text="." xlink:href="#font_1_6" transform="matrix(10.5,0,0,-10.5,27.34675,64.128009)" fill="#1f2937"/>
<use data-text="8" xlink:href="#font_1_15" transform="matrix(10.5,0,0,-10.5,31.33675,64.128009)" fill="#1f2937"/>
<use data-text="5" xlink:href="#font_1_12" transform="matrix(10.5,0,0,-10.5,38.644754,64.128009)" fill="#1f2937"/>
<g clip-path="url(#clip_8)">
<path transform="matrix(1,0,0,-1,0,221.79138)" stroke-width=".5" stroke-linecap="square" stroke-linejoin="round" fill="none" stroke="#e5e7eb" stroke-opacity=".5" d="M51.960626 185.02153H288.12065"/>
</g>
<path transform="matrix(1,0,0,-1,0,221.79138)" d="M51.960626 185.02153H48.960626" fill="#1f2937"/>
<path transform="matrix(1,0,0,-1,0,221.79138)" stroke-width=".7" stroke-linecap="butt" stroke-linejoin="round" fill="none" stroke="#1f2937" d="M51.960626 185.02153H48.960626"/>
<use data-text="0" xlink:href="#font_1_7" transform="matrix(10.5,0,0,-10.5,20.03875,40.94954)" fill="#1f2937"/>
<use data-text="." xlink:href="#font_1_6" transform="matrix(10.5,0,0,-10.5,27.34675,40.94954)" fill="#1f2937"/>
<use data-text="9" xlink:href="#font_1_16" transform="matrix(10.5,0,0,-10.5,31.33675,40.94954)" fill="#1f2937"/>
<use data-text="0" xlink:href="#font_1_7" transform="matrix(10.5,0,0,-10.5,38.644754,40.94954)" fill="#1f2937"/>
<g clip-path="url(#clip_9)">
<path transform="matrix(1,0,0,-1,0,221.79138)" stroke-width=".5" stroke-linecap="square" stroke-linejoin="round" fill="none" stroke="#e5e7eb" stroke-opacity=".5" d="M51.960626 208.2H288.12065"/>
</g>
<path transform="matrix(1,0,0,-1,0,221.79138)" d="M51.960626 208.2H48.960626" fill="#1f2937"/>
<path transform="matrix(1,0,0,-1,0,221.79138)" stroke-width=".7" stroke-linecap="butt" stroke-linejoin="round" fill="none" stroke="#1f2937" d="M51.960626 208.2H48.960626"/>
<use data-text="0" xlink:href="#font_1_7" transform="matrix(10.5,0,0,-10.5,20.03875,17.771073)" fill="#1f2937"/>
<use data-text="." xlink:href="#font_1_6" transform="matrix(10.5,0,0,-10.5,27.34675,17.771073)" fill="#1f2937"/>
<use data-text="9" xlink:href="#font_1_16" transform="matrix(10.5,0,0,-10.5,31.33675,17.771073)" fill="#1f2937"/>
<use data-text="5" xlink:href="#font_1_12" transform="matrix(10.5,0,0,-10.5,38.644754,17.771073)" fill="#1f2937"/>
<use data-text="J" xlink:href="#font_1_19" transform="matrix(0,-12,-12,-0,13.445,152.43476)" fill="#1f2937"/>
<use data-text="u" xlink:href="#font_1_37" transform="matrix(0,-12,-12,-0,13.445,147.97075)" fill="#1f2937"/>
<use data-text="d" xlink:href="#font_1_23" transform="matrix(0,-12,-12,-0,13.445,139.42676)" fill="#1f2937"/>
<use data-text="g" xlink:href="#font_1_25" transform="matrix(0,-12,-12,-0,13.445,130.83475)" fill="#1f2937"/>
<use data-text="i" xlink:href="#font_1_27" transform="matrix(0,-12,-12,-0,13.445,122.24275)" fill="#1f2937"/>
<use data-text="n" xlink:href="#font_1_31" transform="matrix(0,-12,-12,-0,13.445,118.126758)" fill="#1f2937"/>
<use data-text="g" xlink:href="#font_1_25" transform="matrix(0,-12,-12,-0,13.445,109.58275)" fill="#1f2937"/>
<use data-text=" " xlink:href="#font_1_3" transform="matrix(0,-12,-12,-0,13.445,100.99075)" fill="#1f2937"/>
<use data-text="a" xlink:href="#font_1_21" transform="matrix(0,-12,-12,-0,13.445,96.81475)" fill="#1f2937"/>
<use data-text="c" xlink:href="#font_1_22" transform="matrix(0,-12,-12,-0,13.445,88.71475)" fill="#1f2937"/>
<use data-text="c" xlink:href="#font_1_22" transform="matrix(0,-12,-12,-0,13.445,81.598758)" fill="#1f2937"/>
<use data-text="u" xlink:href="#font_1_37" transform="matrix(0,-12,-12,-0,13.445,74.48276)" fill="#1f2937"/>
<use data-text="r" xlink:href="#font_1_34" transform="matrix(0,-12,-12,-0,13.445,65.93876)" fill="#1f2937"/>
<use data-text="a" xlink:href="#font_1_21" transform="matrix(0,-12,-12,-0,13.445,60.02276)" fill="#1f2937"/>
<use data-text="c" xlink:href="#font_1_22" transform="matrix(0,-12,-12,-0,13.445,51.92276)" fill="#1f2937"/>
<use data-text="y" xlink:href="#font_1_39" transform="matrix(0,-12,-12,-0,13.445,44.806764)" fill="#1f2937"/>
<g clip-path="url(#clip_10)">
<g>
<path transform="matrix(1,0,0,-1,0,221.79138)" d="M51.960626 36.679376H81.48062V217.47138H51.960626Z" fill="#5a8c4a" fill-opacity=".08"/>
<path transform="matrix(1,0,0,-1,0,221.79138)" stroke-width="1" stroke-linecap="butt" stroke-miterlimit="10" stroke-linejoin="miter" fill="none" stroke="#5a8c4a" stroke-opacity=".08" d="M51.960626 36.679376H81.48062V217.47138H51.960626Z"/>
</g>
</g>
<g clip-path="url(#clip_11)">
<g>
<path transform="matrix(1,0,0,-1,0,221.79138)" d="M229.08063 36.679376H288.12065V217.47138H229.08063Z" fill="#c75146" fill-opacity=".08"/>
<path transform="matrix(1,0,0,-1,0,221.79138)" stroke-width="1" stroke-linecap="butt" stroke-miterlimit="10" stroke-linejoin="miter" fill="none" stroke="#c75146" stroke-opacity=".08" d="M229.08063 36.679376H288.12065V217.47138H229.08063Z"/>
</g>
</g>
<g clip-path="url(#clip_12)">
<g>
<path transform="matrix(1,0,0,-1,0,221.79138)" d="M51.960626 55.222146V36.679376H52.552507 53.144384 53.736265 54.328145 54.920026 55.5119 56.103784 56.695665 57.28754 57.87942 58.471303 59.063184 59.65506 60.24694 60.83882 61.4307 62.02258 62.61446 63.20634 63.798219 64.3901 64.98198 65.57386 66.16574 66.757617 67.349498 67.941379 68.53326 69.12514 69.71702 70.3089 70.90077 71.49265 72.08453 72.676418 73.268299 73.860179 74.45206 75.04393 75.63581 76.22769 76.81957 77.41145 78.003337 78.59521 79.18709 79.77897 80.37085 80.96273 81.55461 82.14649 82.73837 83.330249 83.92213 84.51401 85.10589 85.69777 86.28965 86.88153 87.473407 88.065288 88.657169 89.24905 89.84093 90.43281 91.02469 91.61656 92.20844 92.80032 93.392208 93.984088 94.575969 95.16785 95.75972 96.3516 96.94348 97.53536 98.12724 98.719127 99.311008 99.90288 100.49476 101.08664 101.67852 102.2704 102.86228 103.45416 104.046039 104.63792 105.2298 105.82168 106.41356 107.00544 107.59732 108.18919 108.781078 109.372959 109.964839 110.55672 111.1486 111.74048 112.33235 112.92423 113.51611 114.107997 114.699878 115.291759 115.88364 116.47551 117.06739 117.65927 118.25115 118.84303 119.43491 120.02679 120.61867 121.21055 121.80243 122.39431 122.98619 123.57807 124.169948 124.761829 125.35371 125.94559 126.53747 127.12935 127.72123 128.31311 128.90499 129.49687 130.08875 130.68062 131.2725 131.86438 132.45627 133.04814 133.64003 134.2319 134.82378 135.41567 136.00754 136.59943 137.1913 137.78319 138.37506 138.96694 139.55883 140.1507 140.74259 141.33446 141.92635 142.51822 143.11009 143.70198 144.29386 144.88574 145.47762 146.0695 146.66138 147.25325 147.84514 148.43701 149.0289 149.62078 150.21266 150.80454 151.39641 151.9883 152.58017 153.17206 153.76393 154.35582 154.9477 155.53957 156.13146 156.72333 157.31522 157.90709 158.49898 159.09085 159.68273 160.27462 160.86649 161.45838 162.05025 162.64214 163.23401 163.82588 164.41777 165.00965 165.60153 166.1934 166.7853 167.37717 167.96904 168.56093 169.1528 169.74469 170.33657 170.92845 171.52033 172.1122 172.70409 173.29596 173.88785 174.47972 175.07161 175.66349 176.25536 176.84725 177.43912 178.031 178.62288 179.21477 179.80664 180.39852 180.9904 181.58228 182.17417 182.76604 183.35793 183.9498 184.54167 185.13356 185.72544 186.31732 186.9092 187.50109 188.09296 188.68483 189.27672 189.86859 190.46048 191.05236 191.64424 192.23612 192.82799 193.41988 194.01175 194.60364 195.19551 195.7874 196.37928 196.97115 197.56304 198.1549 198.7468 199.33867 199.93056 200.52243 201.1143 201.70619 202.29807 202.88996 203.48183 204.07372 204.66559 205.25746 205.84935 206.44123 207.03311 207.62499 208.21688 208.80875 209.40062 209.99251 210.58438 211.17627 211.76815 212.36002 212.9519 213.54378 214.13567 214.72754 215.31943 215.9113 216.50318 217.09506 217.68694 218.27883 218.8707 219.46259 220.05446 220.64633 221.23822 221.8301 222.42198 223.01386 223.60575 224.19762 224.78949 225.38138 225.97325 226.56514 227.15702 227.7489 228.34078 228.93265 229.52454 230.11641 230.7083 231.30017 231.89206 232.48394 233.0758 233.6677 234.25957 234.85146 235.44333 236.03522 236.62709 237.21897 237.81085 238.40273 238.99462 239.58649 240.17838 240.77025 241.36212 241.95401 242.54589 243.13777 243.72965 244.32154 244.9134 245.50528 246.09717 246.68904 247.28093 247.8728 248.46469 249.05657 249.64844 250.24033 250.8322 251.42409 252.01596 252.60785 253.19972 253.7916 254.38349 254.97536 255.56725 256.15913 256.751 257.3429 257.93476 258.52665 259.11854 259.7104 260.30229 260.89418 261.48606 262.0779 262.6698 263.2617 263.85356 264.44544 265.03733 265.62919 266.22108 266.81297 267.40486 267.9967 268.5886 269.18049 269.77235 270.36424 270.95613 271.548 272.13987 272.73176 273.32365 273.9155 274.5074 275.09928 275.69117 276.28303 276.8749 277.4668 278.05867 278.65055 279.24244 279.83433 280.42619 281.01808 281.60997 282.2018 282.7937 283.3856 283.97749 284.56935 285.16123 285.7531 286.345 286.93687 287.52876 288.12065V64.924419L287.52876 64.99413 286.93687 65.06436 286.345 65.135089 285.7531 65.20632 285.16123 65.27807 284.56935 65.35033 283.97749 65.4231 283.3856 65.496417 282.7937 65.570247 282.2018 65.6446 281.60997 65.7195 281.01808 65.79493 280.42619 65.8709 279.83433 65.947429 279.24244 66.02449 278.65055 66.10212 278.05867 66.1803 277.4668 66.25904 276.8749 66.33835 276.28303 66.41823 275.69117 66.49868 275.09928 66.57971 274.5074 66.66132 273.9155 66.74352 273.32365 66.82631 272.73176 66.90969 272.13987 66.993679 271.548 67.078258 270.95613 67.16345 270.36424 67.24925 269.77235 67.33568 269.18049 67.422718 268.5886 67.51038 267.9967 67.59868 267.40486 67.68761 266.81297 67.777179 266.22108 67.867389 265.62919 67.958248 265.03733 68.04976 264.44544 68.14193 263.85356 68.23476 263.2617 68.328258 262.6698 68.422428 262.0779 68.51727 261.48606 68.61279 260.89418 68.70901 260.30229 68.80591 259.7104 68.9035 259.11854 69.00181 258.52665 69.10081 257.93476 69.20052 257.3429 69.30096 256.751 69.40211 256.15913 69.50398 255.56725 69.60659 254.97536 69.70994 254.38349 69.814029 253.7916 69.91885 253.19972 70.024448 252.60785 70.13078 252.01596 70.23789 251.42409 70.34577 250.8322 70.454418 250.24033 70.56384 249.64844 70.67406 249.05657 70.785068 248.46469 70.896869 247.8728 71.00947 247.28093 71.12288 246.68904 71.2371 246.09717 71.35214 245.50528 71.46801 244.9134 71.58471 244.32154 71.70225 243.72965 71.820629 243.13777 71.93985 242.54589 72.05994 241.95401 72.18088 241.36212 72.30269 240.77025 72.42537 240.17838 72.548938 239.58649 72.673389 238.99462 72.79872 238.40273 72.92496 237.81085 73.0521 237.21897 73.18015 236.62709 73.30913 236.03522 73.43902 235.44333 73.56985 234.85146 73.70161 234.25957 73.83431 233.6677 73.96797 233.0758 74.102588 232.48394 74.23816 231.89206 74.3747 231.30017 74.51223 230.7083 74.65074 230.11641 74.79024 229.52454 74.93073 228.93265 75.07224 228.34078 75.21475 227.7489 75.35829 227.15702 75.50285 226.56514 75.648448 225.97325 75.79508 225.38138 75.942768 224.78949 76.0915 224.19762 76.2413 223.60575 76.39218 223.01386 76.54413 222.42198 76.69717 221.8301 76.851299 221.23822 77.00652 220.64633 77.16286 220.05446 77.32031 219.46259 77.47889 218.8707 77.638599 218.27883 77.79944 217.68694 77.96143 217.09506 78.12459 216.50318 78.288898 215.9113 78.454387 215.31943 78.62104 214.72754 78.788898 214.13567 78.95794 213.54378 79.12819 212.9519 79.299648 212.36002 79.47233 211.76815 79.64623 211.17627 79.82138 210.58438 79.99777 209.99251 80.175418 209.40062 80.354328 208.80875 80.5345 208.21688 80.71596 207.62499 80.898708 207.03311 81.08274 206.44123 81.26809 205.84935 81.45475 205.25746 81.64273 204.66559 81.83205 204.07372 82.022708 203.48183 82.214717 202.88996 82.40808 202.29807 82.60281 201.70619 82.79892 201.1143 82.996417 200.52243 83.195308 199.93056 83.3956 199.33867 83.597309 198.7468 83.80044 198.1549 84.005 197.56304 84.211009 196.97115 84.41846 196.37928 84.62737 195.7874 84.83775 195.19551 85.049617 194.60364 85.26296 194.01175 85.477809 193.41988 85.69416 192.82799 85.912029 192.23612 86.131427 191.64424 86.352359 191.05236 86.57483 190.46048 86.79886 189.86859 87.02445 189.27672 87.25162 188.68483 87.48037 188.09296 87.71072 187.50109 87.942668 186.9092 88.17622 186.31732 88.41141 185.72544 88.64822 185.13356 88.88667 184.54167 89.12678 183.9498 89.368549 183.35793 89.611988 182.76604 89.8571 182.17417 90.103908 181.58228 90.35241 180.9904 90.60262 180.39852 90.85455 179.80664 91.108219 179.21477 91.36361 178.62288 91.62075 178.031 91.87965 177.43912 92.14031 176.84725 92.40275 176.25536 92.66697 175.66349 92.93298 175.07161 93.2008 174.47972 93.47042 173.88785 93.74187 173.29596 94.015148 172.70409 94.29025 172.1122 94.567218 171.52033 94.84602 170.92845 95.1267 170.33657 95.409259 169.74469 95.69368 169.1528 95.979999 168.56093 96.26821 167.96904 96.55833 167.37717 96.85036 166.7853 97.1443 166.1934 97.44018 165.60153 97.73799 165.00965 98.03774 164.41777 98.33944 163.82588 98.64309 163.23401 98.94871 162.64214 99.25629 162.05025 99.56584 161.45838 99.87737 160.86649 100.19089 160.27462 100.5064 159.68273 100.8239 159.09085 101.1434 158.49898 101.464908 157.90709 101.788417 157.31522 102.11394 156.72333 102.441478 156.13146 102.77103 155.53957 103.1026 154.9477 103.436199 154.35582 103.77182 153.76393 104.10946 153.17206 104.44913 152.58017 104.790828 151.9883 105.134548 151.39641 105.480289 150.80454 105.82806 150.21266 106.17785 149.62078 106.529659 149.0289 106.88348 148.43701 107.23932 147.84514 107.59716 147.25325 107.95701 146.66138 108.31885 146.0695 108.68268 145.47762 109.0485 144.88574 109.41629 144.29386 109.78604 143.70198 110.15775 143.11009 110.5314 142.51822 110.90699 141.92635 111.28449 141.33446 111.6639 140.74259 112.045207 140.1507 112.42838 139.55883 112.81341 138.96694 113.20028 138.37506 113.58897 137.78319 113.97945 137.1913 114.371707 136.59943 114.76571 136.00754 115.161449 135.41567 115.558879 134.82378 115.95797 134.2319 116.35871 133.64003 116.761058 133.04814 117.16497 132.45627 117.57042 131.86438 117.97737 131.2725 118.38579 130.68062 118.795619 130.08875 119.206829 129.49687 119.619358 128.90499 120.03317 128.31311 120.44821 127.72123 120.864429 127.12935 121.28177 126.53747 121.700168 125.94559 122.11956 125.35371 122.539897 124.761829 122.9611 124.169948 123.383098 123.57807 123.80582 122.98619 124.22919 122.39431 124.65312 121.80243 125.077548 121.21055 125.50236 120.61867 125.92747 120.02679 126.35279 119.43491 126.77821 118.84303 127.20364 118.25115 127.62897 117.65927 128.05408 117.06739 128.47884 116.47551 128.90314 115.88364 129.32686 115.291759 129.74985 114.699878 130.17197 114.107997 130.59308 113.51611 131.01303 112.92423 131.43167 112.33235 131.84883 111.74048 132.26433 111.1486 132.67801 110.55672 133.08966 109.964839 133.49912 109.372959 133.90616 108.781078 134.3106 108.18919 134.71219 107.59732 135.11074 107.00544 135.506 106.41356 135.89772 105.82168 136.28566 105.2298 136.66954 104.63792 137.04912 104.046039 137.42409 103.45416 137.79416 102.86228 138.15903 102.2704 138.51839 101.67852 138.87189 101.08664 138.74536 100.49476 138.48584 99.90288 138.21898 99.311008 137.94458 98.719127 137.66243 98.12724 137.37232 97.53536 137.07402 96.94348 136.76729 96.3516 136.45189 95.75972 136.1276 95.16785 135.79415 94.575969 135.45128 93.984088 135.09873 93.392208 134.7362 92.80032 134.36347 92.20844 133.9802 91.61656 133.5861 91.02469 133.18088 90.43281 132.7642 89.84093 132.33579 89.24905 131.89525 88.657169 131.44228 88.065288 130.97652 87.473407 130.4976 86.88153 130.00516 86.28965 129.49883 85.69777 128.97818 85.10589 128.44283 84.51401 127.892368 83.92213 127.32636 83.330249 126.74437 82.73837 126.14594 82.14649 125.530628 81.55461 124.89792 80.96273 124.24735 80.37085 123.578418 79.77897 122.89059 79.18709 122.18334 78.59521 121.456119 78.003337 120.70836 77.41145 119.93948 76.81957 119.148899 76.22769 118.33598 75.63581 117.500118 75.04393 116.64065 74.45206 115.756908 73.860179 114.848209 73.268299 113.91385 72.676418 112.9531 72.08453 111.96523 71.49265 110.94946 70.90077 109.90501 70.3089 108.83106 69.71702 107.72678 69.12514 106.59133 68.53326 105.423809 67.941379 104.22331 67.349498 102.98892 66.757617 101.71967 66.16574 100.41458 65.57386 99.07264 64.98198 97.692798 64.3901 96.27399 63.798219 94.81512 63.20634 93.31505 62.61446 91.77262 62.02258 90.18664 61.4307 88.55587 60.83882 86.87905 60.24694 85.15488 59.65506 83.38202 59.063184 81.55909 58.471303 79.68469 57.87942 77.75736 57.28754 75.775608 56.695665 73.737888 56.103784 71.64262 55.5119 69.48819 54.920026 67.27292 54.328145 64.995098 53.736265 62.652948 53.144384 60.24466 52.552507 57.768369 51.960626 55.222146Z" fill="#1f6f6f" fill-opacity=".06"/>
<path transform="matrix(1,0,0,-1,0,221.79138)" stroke-width="1" stroke-linecap="butt" stroke-linejoin="round" fill="none" stroke="#1f6f6f" stroke-opacity=".06" d="M51.960626 55.222146V36.679376H52.552507 53.144384 53.736265 54.328145 54.920026 55.5119 56.103784 56.695665 57.28754 57.87942 58.471303 59.063184 59.65506 60.24694 60.83882 61.4307 62.02258 62.61446 63.20634 63.798219 64.3901 64.98198 65.57386 66.16574 66.757617 67.349498 67.941379 68.53326 69.12514 69.71702 70.3089 70.90077 71.49265 72.08453 72.676418 73.268299 73.860179 74.45206 75.04393 75.63581 76.22769 76.81957 77.41145 78.003337 78.59521 79.18709 79.77897 80.37085 80.96273 81.55461 82.14649 82.73837 83.330249 83.92213 84.51401 85.10589 85.69777 86.28965 86.88153 87.473407 88.065288 88.657169 89.24905 89.84093 90.43281 91.02469 91.61656 92.20844 92.80032 93.392208 93.984088 94.575969 95.16785 95.75972 96.3516 96.94348 97.53536 98.12724 98.719127 99.311008 99.90288 100.49476 101.08664 101.67852 102.2704 102.86228 103.45416 104.046039 104.63792 105.2298 105.82168 106.41356 107.00544 107.59732 108.18919 108.781078 109.372959 109.964839 110.55672 111.1486 111.74048 112.33235 112.92423 113.51611 114.107997 114.699878 115.291759 115.88364 116.47551 117.06739 117.65927 118.25115 118.84303 119.43491 120.02679 120.61867 121.21055 121.80243 122.39431 122.98619 123.57807 124.169948 124.761829 125.35371 125.94559 126.53747 127.12935 127.72123 128.31311 128.90499 129.49687 130.08875 130.68062 131.2725 131.86438 132.45627 133.04814 133.64003 134.2319 134.82378 135.41567 136.00754 136.59943 137.1913 137.78319 138.37506 138.96694 139.55883 140.1507 140.74259 141.33446 141.92635 142.51822 143.11009 143.70198 144.29386 144.88574 145.47762 146.0695 146.66138 147.25325 147.84514 148.43701 149.0289 149.62078 150.21266 150.80454 151.39641 151.9883 152.58017 153.17206 153.76393 154.35582 154.9477 155.53957 156.13146 156.72333 157.31522 157.90709 158.49898 159.09085 159.68273 160.27462 160.86649 161.45838 162.05025 162.64214 163.23401 163.82588 164.41777 165.00965 165.60153 166.1934 166.7853 167.37717 167.96904 168.56093 169.1528 169.74469 170.33657 170.92845 171.52033 172.1122 172.70409 173.29596 173.88785 174.47972 175.07161 175.66349 176.25536 176.84725 177.43912 178.031 178.62288 179.21477 179.80664 180.39852 180.9904 181.58228 182.17417 182.76604 183.35793 183.9498 184.54167 185.13356 185.72544 186.31732 186.9092 187.50109 188.09296 188.68483 189.27672 189.86859 190.46048 191.05236 191.64424 192.23612 192.82799 193.41988 194.01175 194.60364 195.19551 195.7874 196.37928 196.97115 197.56304 198.1549 198.7468 199.33867 199.93056 200.52243 201.1143 201.70619 202.29807 202.88996 203.48183 204.07372 204.66559 205.25746 205.84935 206.44123 207.03311 207.62499 208.21688 208.80875 209.40062 209.99251 210.58438 211.17627 211.76815 212.36002 212.9519 213.54378 214.13567 214.72754 215.31943 215.9113 216.50318 217.09506 217.68694 218.27883 218.8707 219.46259 220.05446 220.64633 221.23822 221.8301 222.42198 223.01386 223.60575 224.19762 224.78949 225.38138 225.97325 226.56514 227.15702 227.7489 228.34078 228.93265 229.52454 230.11641 230.7083 231.30017 231.89206 232.48394 233.0758 233.6677 234.25957 234.85146 235.44333 236.03522 236.62709 237.21897 237.81085 238.40273 238.99462 239.58649 240.17838 240.77025 241.36212 241.95401 242.54589 243.13777 243.72965 244.32154 244.9134 245.50528 246.09717 246.68904 247.28093 247.8728 248.46469 249.05657 249.64844 250.24033 250.8322 251.42409 252.01596 252.60785 253.19972 253.7916 254.38349 254.97536 255.56725 256.15913 256.751 257.3429 257.93476 258.52665 259.11854 259.7104 260.30229 260.89418 261.48606 262.0779 262.6698 263.2617 263.85356 264.44544 265.03733 265.62919 266.22108 266.81297 267.40486 267.9967 268.5886 269.18049 269.77235 270.36424 270.95613 271.548 272.13987 272.73176 273.32365 273.9155 274.5074 275.09928 275.69117 276.28303 276.8749 277.4668 278.05867 278.65055 279.24244 279.83433 280.42619 281.01808 281.60997 282.2018 282.7937 283.3856 283.97749 284.56935 285.16123 285.7531 286.345 286.93687 287.52876 288.12065V64.924419L287.52876 64.99413 286.93687 65.06436 286.345 65.135089 285.7531 65.20632 285.16123 65.27807 284.56935 65.35033 283.97749 65.4231 283.3856 65.496417 282.7937 65.570247 282.2018 65.6446 281.60997 65.7195 281.01808 65.79493 280.42619 65.8709 279.83433 65.947429 279.24244 66.02449 278.65055 66.10212 278.05867 66.1803 277.4668 66.25904 276.8749 66.33835 276.28303 66.41823 275.69117 66.49868 275.09928 66.57971 274.5074 66.66132 273.9155 66.74352 273.32365 66.82631 272.73176 66.90969 272.13987 66.993679 271.548 67.078258 270.95613 67.16345 270.36424 67.24925 269.77235 67.33568 269.18049 67.422718 268.5886 67.51038 267.9967 67.59868 267.40486 67.68761 266.81297 67.777179 266.22108 67.867389 265.62919 67.958248 265.03733 68.04976 264.44544 68.14193 263.85356 68.23476 263.2617 68.328258 262.6698 68.422428 262.0779 68.51727 261.48606 68.61279 260.89418 68.70901 260.30229 68.80591 259.7104 68.9035 259.11854 69.00181 258.52665 69.10081 257.93476 69.20052 257.3429 69.30096 256.751 69.40211 256.15913 69.50398 255.56725 69.60659 254.97536 69.70994 254.38349 69.814029 253.7916 69.91885 253.19972 70.024448 252.60785 70.13078 252.01596 70.23789 251.42409 70.34577 250.8322 70.454418 250.24033 70.56384 249.64844 70.67406 249.05657 70.785068 248.46469 70.896869 247.8728 71.00947 247.28093 71.12288 246.68904 71.2371 246.09717 71.35214 245.50528 71.46801 244.9134 71.58471 244.32154 71.70225 243.72965 71.820629 243.13777 71.93985 242.54589 72.05994 241.95401 72.18088 241.36212 72.30269 240.77025 72.42537 240.17838 72.548938 239.58649 72.673389 238.99462 72.79872 238.40273 72.92496 237.81085 73.0521 237.21897 73.18015 236.62709 73.30913 236.03522 73.43902 235.44333 73.56985 234.85146 73.70161 234.25957 73.83431 233.6677 73.96797 233.0758 74.102588 232.48394 74.23816 231.89206 74.3747 231.30017 74.51223 230.7083 74.65074 230.11641 74.79024 229.52454 74.93073 228.93265 75.07224 228.34078 75.21475 227.7489 75.35829 227.15702 75.50285 226.56514 75.648448 225.97325 75.79508 225.38138 75.942768 224.78949 76.0915 224.19762 76.2413 223.60575 76.39218 223.01386 76.54413 222.42198 76.69717 221.8301 76.851299 221.23822 77.00652 220.64633 77.16286 220.05446 77.32031 219.46259 77.47889 218.8707 77.638599 218.27883 77.79944 217.68694 77.96143 217.09506 78.12459 216.50318 78.288898 215.9113 78.454387 215.31943 78.62104 214.72754 78.788898 214.13567 78.95794 213.54378 79.12819 212.9519 79.299648 212.36002 79.47233 211.76815 79.64623 211.17627 79.82138 210.58438 79.99777 209.99251 80.175418 209.40062 80.354328 208.80875 80.5345 208.21688 80.71596 207.62499 80.898708 207.03311 81.08274 206.44123 81.26809 205.84935 81.45475 205.25746 81.64273 204.66559 81.83205 204.07372 82.022708 203.48183 82.214717 202.88996 82.40808 202.29807 82.60281 201.70619 82.79892 201.1143 82.996417 200.52243 83.195308 199.93056 83.3956 199.33867 83.597309 198.7468 83.80044 198.1549 84.005 197.56304 84.211009 196.97115 84.41846 196.37928 84.62737 195.7874 84.83775 195.19551 85.049617 194.60364 85.26296 194.01175 85.477809 193.41988 85.69416 192.82799 85.912029 192.23612 86.131427 191.64424 86.352359 191.05236 86.57483 190.46048 86.79886 189.86859 87.02445 189.27672 87.25162 188.68483 87.48037 188.09296 87.71072 187.50109 87.942668 186.9092 88.17622 186.31732 88.41141 185.72544 88.64822 185.13356 88.88667 184.54167 89.12678 183.9498 89.368549 183.35793 89.611988 182.76604 89.8571 182.17417 90.103908 181.58228 90.35241 180.9904 90.60262 180.39852 90.85455 179.80664 91.108219 179.21477 91.36361 178.62288 91.62075 178.031 91.87965 177.43912 92.14031 176.84725 92.40275 176.25536 92.66697 175.66349 92.93298 175.07161 93.2008 174.47972 93.47042 173.88785 93.74187 173.29596 94.015148 172.70409 94.29025 172.1122 94.567218 171.52033 94.84602 170.92845 95.1267 170.33657 95.409259 169.74469 95.69368 169.1528 95.979999 168.56093 96.26821 167.96904 96.55833 167.37717 96.85036 166.7853 97.1443 166.1934 97.44018 165.60153 97.73799 165.00965 98.03774 164.41777 98.33944 163.82588 98.64309 163.23401 98.94871 162.64214 99.25629 162.05025 99.56584 161.45838 99.87737 160.86649 100.19089 160.27462 100.5064 159.68273 100.8239 159.09085 101.1434 158.49898 101.464908 157.90709 101.788417 157.31522 102.11394 156.72333 102.441478 156.13146 102.77103 155.53957 103.1026 154.9477 103.436199 154.35582 103.77182 153.76393 104.10946 153.17206 104.44913 152.58017 104.790828 151.9883 105.134548 151.39641 105.480289 150.80454 105.82806 150.21266 106.17785 149.62078 106.529659 149.0289 106.88348 148.43701 107.23932 147.84514 107.59716 147.25325 107.95701 146.66138 108.31885 146.0695 108.68268 145.47762 109.0485 144.88574 109.41629 144.29386 109.78604 143.70198 110.15775 143.11009 110.5314 142.51822 110.90699 141.92635 111.28449 141.33446 111.6639 140.74259 112.045207 140.1507 112.42838 139.55883 112.81341 138.96694 113.20028 138.37506 113.58897 137.78319 113.97945 137.1913 114.371707 136.59943 114.76571 136.00754 115.161449 135.41567 115.558879 134.82378 115.95797 134.2319 116.35871 133.64003 116.761058 133.04814 117.16497 132.45627 117.57042 131.86438 117.97737 131.2725 118.38579 130.68062 118.795619 130.08875 119.206829 129.49687 119.619358 128.90499 120.03317 128.31311 120.44821 127.72123 120.864429 127.12935 121.28177 126.53747 121.700168 125.94559 122.11956 125.35371 122.539897 124.761829 122.9611 124.169948 123.383098 123.57807 123.80582 122.98619 124.22919 122.39431 124.65312 121.80243 125.077548 121.21055 125.50236 120.61867 125.92747 120.02679 126.35279 119.43491 126.77821 118.84303 127.20364 118.25115 127.62897 117.65927 128.05408 117.06739 128.47884 116.47551 128.90314 115.88364 129.32686 115.291759 129.74985 114.699878 130.17197 114.107997 130.59308 113.51611 131.01303 112.92423 131.43167 112.33235 131.84883 111.74048 132.26433 111.1486 132.67801 110.55672 133.08966 109.964839 133.49912 109.372959 133.90616 108.781078 134.3106 108.18919 134.71219 107.59732 135.11074 107.00544 135.506 106.41356 135.89772 105.82168 136.28566 105.2298 136.66954 104.63792 137.04912 104.046039 137.42409 103.45416 137.79416 102.86228 138.15903 102.2704 138.51839 101.67852 138.87189 101.08664 138.74536 100.49476 138.48584 99.90288 138.21898 99.311008 137.94458 98.719127 137.66243 98.12724 137.37232 97.53536 137.07402 96.94348 136.76729 96.3516 136.45189 95.75972 136.1276 95.16785 135.79415 94.575969 135.45128 93.984088 135.09873 93.392208 134.7362 92.80032 134.36347 92.20844 133.9802 91.61656 133.5861 91.02469 133.18088 90.43281 132.7642 89.84093 132.33579 89.24905 131.89525 88.657169 131.44228 88.065288 130.97652 87.473407 130.4976 86.88153 130.00516 86.28965 129.49883 85.69777 128.97818 85.10589 128.44283 84.51401 127.892368 83.92213 127.32636 83.330249 126.74437 82.73837 126.14594 82.14649 125.530628 81.55461 124.89792 80.96273 124.24735 80.37085 123.578418 79.77897 122.89059 79.18709 122.18334 78.59521 121.456119 78.003337 120.70836 77.41145 119.93948 76.81957 119.148899 76.22769 118.33598 75.63581 117.500118 75.04393 116.64065 74.45206 115.756908 73.860179 114.848209 73.268299 113.91385 72.676418 112.9531 72.08453 111.96523 71.49265 110.94946 70.90077 109.90501 70.3089 108.83106 69.71702 107.72678 69.12514 106.59133 68.53326 105.423809 67.941379 104.22331 67.349498 102.98892 66.757617 101.71967 66.16574 100.41458 65.57386 99.07264 64.98198 97.692798 64.3901 96.27399 63.798219 94.81512 63.20634 93.31505 62.61446 91.77262 62.02258 90.18664 61.4307 88.55587 60.83882 86.87905 60.24694 85.15488 59.65506 83.38202 59.063184 81.55909 58.471303 79.68469 57.87942 77.75736 57.28754 75.775608 56.695665 73.737888 56.103784 71.64262 55.5119 69.48819 54.920026 67.27292 54.328145 64.995098 53.736265 62.652948 53.144384 60.24466 52.552507 57.768369 51.960626 55.222146Z"/>
</g>
</g>
<g clip-path="url(#clip_13)">
<path transform="matrix(1,0,0,-1,0,221.79138)" stroke-width="2.4" stroke-linecap="butt" stroke-dasharray="12,6" stroke-linejoin="round" fill="none" stroke="#c75146" d="M51.960626 73.764919 54.920026 82.84456 57.87942 91.24022 60.83882 99.00341 63.798219 106.18178 66.757617 112.81939 69.71702 118.95698 72.676418 124.6322 75.63581 129.8799 78.59521 134.73229 81.55461 139.21912 84.51401 143.36795 88.065288 147.9361 91.61656 152.09447 95.16785 155.87982 98.719127 159.3256 102.2704 162.4623 105.82168 165.31763 109.372959 167.91681 113.51611 170.656 117.65927 173.11074 121.80243 175.31053 125.94559 177.28188 130.68062 179.28543 135.41567 181.05301 140.74259 182.79393 146.0695 184.30596 151.9883 185.75395 158.49898 187.10549 165.60153 188.33713 173.29596 189.43442 181.58228 190.39115 187.50109 190.95687 188.09296 190.78365 205.25746 181.06182 217.68694 174.28397 228.93265 168.40634 239.58649 163.08579 250.24033 158.01662 260.89418 153.20134 271.548 148.63729 282.2018 144.31847 288.12065 142.02213"/>
</g>
<g clip-path="url(#clip_14)">
<path transform="matrix(1,0,0,-1,0,221.79138)" stroke-width="2.4" stroke-linecap="butt" stroke-dasharray="12,6" stroke-linejoin="round" fill="none" stroke="#1f6f6f" d="M51.960626 55.222146 54.328145 64.995098 56.695665 73.737888 59.063184 81.55909 61.4307 88.55587 63.798219 94.81512 66.16574 100.41458 68.53326 105.423809 70.90077 109.90501 73.268299 113.91385 75.63581 117.500118 78.003337 120.70836 80.37085 123.578418 82.73837 126.14594 85.10589 128.44283 88.065288 130.97652 91.02469 133.18088 93.984088 135.09873 96.94348 136.76729 100.49476 138.48584 101.08664 138.74536 101.67852 138.87189 105.82168 136.28566 111.1486 132.67801 120.61867 125.92747 131.86438 117.97737 139.55883 112.81341 146.66138 108.31885 153.17206 104.44913 159.68273 100.8239 166.1934 97.44018 172.70409 94.29025 179.80664 91.108219 186.9092 88.17622 194.01175 85.477809 201.70619 82.79892 209.40062 80.354328 217.68694 77.96143 225.97325 75.79508 234.85146 73.70161 244.32154 71.70225 254.38349 69.814029 265.03733 68.04976 276.28303 66.41823 288.12065 64.924419"/>
</g>
<path transform="matrix(1,0,0,-1,0,221.79138)" stroke-width=".7" stroke-linecap="square" stroke-miterlimit="10" stroke-linejoin="miter" fill="none" stroke="#9ca3af" d="M51.960626 36.679376V217.47138"/>
<path transform="matrix(1,0,0,-1,0,221.79138)" stroke-width=".7" stroke-linecap="square" stroke-miterlimit="10" stroke-linejoin="miter" fill="none" stroke="#9ca3af" d="M51.960626 36.679376H288.12065"/>
<use data-text="s" xlink:href="#font_1_35" transform="matrix(8.5,0,0,-8.5,107.55422,71.919498)" fill="#1f6f6f"/>
<use data-text="w" xlink:href="#font_1_38" transform="matrix(8.5,0,0,-8.5,112.611728,71.919498)" fill="#1f6f6f"/>
<use data-text="e" xlink:href="#font_1_24" transform="matrix(8.5,0,0,-8.5,120.46572,71.919498)" fill="#1f6f6f"/>
<use data-text="e" xlink:href="#font_1_24" transform="matrix(8.5,0,0,-8.5,126.22872,71.919498)" fill="#1f6f6f"/>
<use data-text="t" xlink:href="#font_1_36" transform="matrix(8.5,0,0,-8.5,131.99173,71.919498)" fill="#1f6f6f"/>
<use data-text=" " xlink:href="#font_1_3" transform="matrix(8.5,0,0,-8.5,136.05472,71.919498)" fill="#1f6f6f"/>
<use data-text="s" xlink:href="#font_1_35" transform="matrix(8.5,0,0,-8.5,139.01273,71.919498)" fill="#1f6f6f"/>
<use data-text="p" xlink:href="#font_1_33" transform="matrix(8.5,0,0,-8.5,144.07022,71.919498)" fill="#1f6f6f"/>
<use data-text="o" xlink:href="#font_1_32" transform="matrix(8.5,0,0,-8.5,150.15622,71.919498)" fill="#1f6f6f"/>
<use data-text="t" xlink:href="#font_1_36" transform="matrix(8.5,0,0,-8.5,155.99573,71.919498)" fill="#1f6f6f"/>
<use data-text="s" xlink:href="#font_1_35" transform="matrix(8.5,0,0,-8.5,161.49481,19.834519)" fill="#c75146"/>
<use data-text="w" xlink:href="#font_1_38" transform="matrix(8.5,0,0,-8.5,166.5523,19.834519)" fill="#c75146"/>
<use data-text="e" xlink:href="#font_1_24" transform="matrix(8.5,0,0,-8.5,174.40631,19.834519)" fill="#c75146"/>
<use data-text="e" xlink:href="#font_1_24" transform="matrix(8.5,0,0,-8.5,180.16931,19.834519)" fill="#c75146"/>
<use data-text="t" xlink:href="#font_1_36" transform="matrix(8.5,0,0,-8.5,185.93231,19.834519)" fill="#c75146"/>
<use data-text=" " xlink:href="#font_1_3" transform="matrix(8.5,0,0,-8.5,189.99532,19.834519)" fill="#c75146"/>
<use data-text="s" xlink:href="#font_1_35" transform="matrix(8.5,0,0,-8.5,192.95331,19.834519)" fill="#c75146"/>
<use data-text="p" xlink:href="#font_1_33" transform="matrix(8.5,0,0,-8.5,198.01082,19.834519)" fill="#c75146"/>
<use data-text="o" xlink:href="#font_1_32" transform="matrix(8.5,0,0,-8.5,204.09682,19.834519)" fill="#c75146"/>
<use data-text="t" xlink:href="#font_1_36" transform="matrix(8.5,0,0,-8.5,209.93631,19.834519)" fill="#c75146"/>
<use data-text="u" xlink:href="#font_15_9" transform="matrix(8.5,0,0,-8.5,52.658128,178.15848)" fill="#5a8c4a"/>
<use data-text="n" xlink:href="#font_15_6" transform="matrix(8.5,0,0,-8.5,58.71013,178.15848)" fill="#5a8c4a"/>
<use data-text="d" xlink:href="#font_15_4" transform="matrix(8.5,0,0,-8.5,64.76213,178.15848)" fill="#5a8c4a"/>
<use data-text="e" xlink:href="#font_15_5" transform="matrix(8.5,0,0,-8.5,70.84813,178.15848)" fill="#5a8c4a"/>
<use data-text="r" xlink:href="#font_15_8" transform="matrix(8.5,0,0,-8.5,76.61113,178.15848)" fill="#5a8c4a"/>
<use data-text="o" xlink:href="#font_15_7" transform="matrix(8.5,0,0,-8.5,247.92876,178.15848)" fill="#c75146"/>
<use data-text="v" xlink:href="#font_15_10" transform="matrix(8.5,0,0,-8.5,253.76825,178.15848)" fill="#c75146"/>
<use data-text="e" xlink:href="#font_15_5" transform="matrix(8.5,0,0,-8.5,259.31025,178.15848)" fill="#c75146"/>
<use data-text="r" xlink:href="#font_15_8" transform="matrix(8.5,0,0,-8.5,265.07325,178.15848)" fill="#c75146"/>
<path transform="matrix(1,0,0,-1,0,221.79138)" d="M101.55422 134.9989C102.58135 134.9989 103.56655 135.40699 104.29284 136.13327 105.01913 136.85956 105.42721 137.84476 105.42721 138.87189 105.42721 139.89902 105.01913 140.88422 104.29284 141.6105 103.56655 142.33679 102.58135 142.74488 101.55422 142.74488 100.5271 142.74488 99.5419 142.33679 98.81561 141.6105 98.089328 140.88422 97.681247 139.89902 97.681247 138.87189 97.681247 137.84476 98.089328 136.85956 98.81561 136.13327 99.5419 135.40699 100.5271 134.9989 101.55422 134.9989Z" fill="#1f6f6f"/>
<path transform="matrix(1,0,0,-1,0,221.79138)" stroke-width="1.4" stroke-linecap="butt" stroke-linejoin="round" fill="none" stroke="#ffffff" d="M101.55422 134.9989C102.58135 134.9989 103.56655 135.40699 104.29284 136.13327 105.01913 136.85956 105.42721 137.84476 105.42721 138.87189 105.42721 139.89902 105.01913 140.88422 104.29284 141.6105 103.56655 142.33679 102.58135 142.74488 101.55422 142.74488 100.5271 142.74488 99.5419 142.33679 98.81561 141.6105 98.089328 140.88422 97.681247 139.89902 97.681247 138.87189 97.681247 137.84476 98.089328 136.85956 98.81561 136.13327 99.5419 135.40699 100.5271 134.9989 101.55422 134.9989Z"/>
<path transform="matrix(1,0,0,-1,0,221.79138)" d="M187.75263 187.08388C188.77976 187.08388 189.76496 187.49196 190.49124 188.21825 191.21753 188.94454 191.62561 189.92974 191.62561 190.95687 191.62561 191.98398 191.21753 192.96918 190.49124 193.69547 189.76496 194.42176 188.77976 194.82984 187.75263 194.82984 186.7255 194.82984 185.7403 194.42176 185.014 193.69547 184.28772 192.96918 183.87964 191.98398 183.87964 190.95687 183.87964 189.92974 184.28772 188.94454 185.014 188.21825 185.7403 187.49196 186.7255 187.08388 187.75263 187.08388Z" fill="#c75146"/>
<path transform="matrix(1,0,0,-1,0,221.79138)" stroke-width="1.4" stroke-linecap="butt" stroke-linejoin="round" fill="none" stroke="#ffffff" d="M187.75263 187.08388C188.77976 187.08388 189.76496 187.49196 190.49124 188.21825 191.21753 188.94454 191.62561 189.92974 191.62561 190.95687 191.62561 191.98398 191.21753 192.96918 190.49124 193.69547 189.76496 194.42176 188.77976 194.82984 187.75263 194.82984 186.7255 194.82984 185.7403 194.42176 185.014 193.69547 184.28772 192.96918 183.87964 191.98398 183.87964 190.95687 183.87964 189.92974 184.28772 188.94454 185.014 188.21825 185.7403 187.49196 186.7255 187.08388 187.75263 187.08388Z"/>
<path transform="matrix(1,0,0,-1,0,221.79138)" stroke-width="2.4" stroke-linecap="butt" stroke-dasharray="12,6" stroke-linejoin="round" fill="none" stroke="#1f6f6f" d="M131.35469 63.310625H138.95468 146.55469"/>
<use data-text="3" xlink:href="#font_1_10" transform="matrix(9.5,0,0,-9.5,151.30469,161.80576)" fill="#1f2937"/>
<use data-text="." xlink:href="#font_1_6" transform="matrix(9.5,0,0,-9.5,157.91669,161.80576)" fill="#1f2937"/>
<use data-text="8" xlink:href="#font_1_15" transform="matrix(9.5,0,0,-9.5,161.52669,161.80576)" fill="#1f2937"/>
<use data-text="B" xlink:href="#font_1_17" transform="matrix(9.5,0,0,-9.5,168.13869,161.80576)" fill="#1f2937"/>
<use data-text=" " xlink:href="#font_1_3" transform="matrix(9.5,0,0,-9.5,175.37769,161.80576)" fill="#1f2937"/>
<use data-text="j" xlink:href="#font_1_28" transform="matrix(9.5,0,0,-9.5,178.68369,161.80576)" fill="#1f2937"/>
<use data-text="u" xlink:href="#font_1_37" transform="matrix(9.5,0,0,-9.5,181.94219,161.80576)" fill="#1f2937"/>
<use data-text="d" xlink:href="#font_1_23" transform="matrix(9.5,0,0,-9.5,188.70619,161.80576)" fill="#1f2937"/>
<use data-text="g" xlink:href="#font_1_25" transform="matrix(9.5,0,0,-9.5,195.50818,161.80576)" fill="#1f2937"/>
<use data-text="e" xlink:href="#font_1_24" transform="matrix(9.5,0,0,-9.5,202.31018,161.80576)" fill="#1f2937"/>
<path transform="matrix(1,0,0,-1,0,221.79138)" stroke-width="2.4" stroke-linecap="butt" stroke-dasharray="12,6" stroke-linejoin="round" fill="none" stroke="#c75146" d="M131.35469 49.760625H138.95468 146.55469"/>
<use data-text="1" xlink:href="#font_1_8" transform="matrix(9.5,0,0,-9.5,151.30469,175.35576)" fill="#1f2937"/>
<use data-text="4" xlink:href="#font_1_11" transform="matrix(9.5,0,0,-9.5,157.91669,175.35576)" fill="#1f2937"/>
<use data-text="B" xlink:href="#font_1_17" transform="matrix(9.5,0,0,-9.5,164.52869,175.35576)" fill="#1f2937"/>
<use data-text=" " xlink:href="#font_1_3" transform="matrix(9.5,0,0,-9.5,171.76769,175.35576)" fill="#1f2937"/>
<use data-text="j" xlink:href="#font_1_28" transform="matrix(9.5,0,0,-9.5,175.07369,175.35576)" fill="#1f2937"/>
<use data-text="u" xlink:href="#font_1_37" transform="matrix(9.5,0,0,-9.5,178.33219,175.35576)" fill="#1f2937"/>
<use data-text="d" xlink:href="#font_1_23" transform="matrix(9.5,0,0,-9.5,185.09619,175.35576)" fill="#1f2937"/>
<use data-text="g" xlink:href="#font_1_25" transform="matrix(9.5,0,0,-9.5,191.8982,175.35576)" fill="#1f2937"/>
<use data-text="e" xlink:href="#font_1_24" transform="matrix(9.5,0,0,-9.5,198.7002,175.35576)" fill="#1f2937"/>
</svg>
