<svg xmlns="http://www.w3.org/2000/svg" xmlns:xlink="http://www.w3.org/1999/xlink" xmlns:inkscape="http://www.inkscape.org/namespaces/inkscape" version="1.1" width="314.67903" height="180.504" viewBox="0 0 314.67903 180.504">
<rect width=\"100%\" height=\"100%\" fill=\"white\"/>
<defs>
<clipPath id="clip_1">
<path transform="matrix(1,0,0,-1,0,180.504)" d="M51.960626 4.32H285.24064V176.184H51.960626Z"/>
</clipPath>
<clipPath id="clip_2">
<path transform="matrix(1,0,0,-1,0,180.504)" d="M51.960626 4.32H285.24064V176.184H51.960626Z"/>
</clipPath>
<clipPath id="clip_3">
<path transform="matrix(1,0,0,-1,0,180.504)" d="M51.960626 4.32H285.24064V176.184H51.960626Z"/>
</clipPath>
<clipPath id="clip_4">
<path transform="matrix(1,0,0,-1,0,180.504)" d="M51.960626 4.32H285.24064V176.184H51.960626Z"/>
</clipPath>
<path id="font_5_5" d="M.45996095 .3647461C.45996095 .45589195 .45141603 .5201009 .43432618 .55737307 .41723634 .5946452 .38850913 .61328127 .34814454 .61328127 .30777995 .61328127 .27897135 .5946452 .26171876 .55737307 .24446614 .5201009 .23583985 .45589195 .23583985 .3647461 .23583985 .2726237 .24446614 .2076823 .26171876 .16992188 .27897135 .13216146 .30777995 .11328125 .34814454 .11328125 .3881836 .11328125 .41682945 .13216146 .43408204 .16992188 .45133464 .2076823 .45996095 .2726237 .45996095 .3647461M.6479492 .3635254C.6479492 .24267578 .62190756 .1494344 .5698242 .08380127 .5177409 .01816813 .44384767-.0146484379 .34814454-.0146484379 .25211589-.0146484379 .17805989 .01816813 .12597656 .08380127 .07389323 .1494344 .047851564 .24267578 .047851564 .3635254 .047851564 .48470054 .07389323 .5781047 .12597656 .6437378 .17805989 .7093709 .25211589 .7421875 .34814454 .7421875 .44384767 .7421875 .5177409 .7093709 .5698242 .6437378 .62190756 .5781047 .6479492 .48470054 .6479492 .3635254Z"/>
<path id="font_5_4" d="M.10205078 .18945313H.27783204V0H.10205078V.18945313Z"/>
<path id="font_5_7" d="M.10595703 .7294922H.5732422V.5908203H.25585938V.47798158C.27018229 .48189799 .28458659 .48491923 .29907228 .4870453 .31355796 .48917137 .32861329 .49023438 .34423829 .49023438 .43310548 .49023438 .5022786 .46799723 .5517578 .42352296 .601237 .37904869 .62597659 .31705729 .62597659 .23754883 .62597659 .1586914 .59903976 .096944179 .545166 .05230713 .49129234 .0076700847 .4165039-.0146484379 .32080079-.0146484379 .27945964-.0146484379 .23852539-.010701497 .19799805-.0028076173 .1574707 .005086263 .1171875 .017089844 .07714844 .033203126V.18164063C.11686198 .15885417 .15454102 .14176433 .19018555 .1303711 .22583008 .11897787 .2594401 .11328125 .29101563 .11328125 .33658854 .11328125 .3724772 .124430339 .39868165 .14672852 .42488609 .16902669 .43798829 .19921875 .43798829 .23730469 .43798829 .27571617 .42488609 .3059896 .39868165 .328125 .3724772 .3502604 .33658854 .36132813 .29101563 .36132813 .2639974 .36132813 .2351888 .35782878 .20458985 .35083009 .17399089 .3438314 .14111328 .3330078 .10595703 .31835938V.7294922Z"/>
<clipPath id="clip_6">
<path transform="matrix(1,0,0,-1,0,180.504)" d="M51.960626 4.32H285.24064V176.184H51.960626Z"/>
</clipPath>
<path id="font_5_8" d="M.06689453 .7294922H.61621096V.62345889L.33203126 0H.14892578L.41796876 .5908203H.06689453V.7294922Z"/>
<clipPath id="clip_7">
<path transform="matrix(1,0,0,-1,0,180.504)" d="M51.960626 4.32H285.24064V176.184H51.960626Z"/>
</clipPath>
<path id="font_5_6" d="M.1171875 .12988281H.28320313V.6015625L.11279297 .56640627V.69433596L.28222657 .7294922H.4609375V.12988281H.6269531V0H.1171875V.12988281Z"/>
<path id="font_5_15" d="M.44482423-.013671875H.43017579C.3100586-.013671875 .21663411 .019551596 .14990235 .085998538 .08317057 .15244548 .049804689 .24495442 .049804689 .3635254 .049804689 .48176066 .083089198 .5744273 .1496582 .64152529 .21622722 .7086334 .30794273 .7421875 .4248047 .7421875 .54296877 .7421875 .63500979 .70896407 .70092776 .6425171 .7668457 .5760803 .7998047 .48309837 .7998047 .36357118 .7998047 .28149925 .7823079 .2108256 .74731448 .1515503 .712321 .092274989 .6619466 .0476532 .5961914 .017684937L.74316409-.14648438H.56396487L.44482423-.013671875M.4248047 .60546877C.36751304 .60546877 .32307945 .58433029 .2915039 .5420532 .25992839 .4997762 .24414063 .44026695 .24414063 .3635254 .24414063 .28548179 .25960288 .22572835 .29052735 .18426514 .3214518 .14280193 .36621095 .12207031 .4248047 .12207031 .48242188 .12207031 .52701827 .14320882 .55859377 .18548584 .59016928 .22776287 .60595706 .28710938 .60595706 .3635254 .60595706 .44026695 .59016928 .4997762 .55859377 .5420532 .52701827 .58433029 .48242188 .60546877 .4248047 .60546877Z"/>
<path id="font_5_33" d="M.078125 .21289063V.546875H.25390626V.4921875C.25390626 .4625651 .2537435 .42537437 .25341798 .38061524 .25309245 .3358561 .2529297 .3059896 .2529297 .29101563 .2529297 .24707031 .254069 .2154134 .25634767 .19604492 .2586263 .17667644 .26253257 .16259766 .2680664 .1538086 .27522788 .14241536 .28458659 .1336263 .29614259 .1274414 .30769859 .12125651 .32096354 .11816406 .3359375 .11816406 .37239585 .11816406 .40104167 .13216146 .421875 .16015625 .44270835 .18815105 .453125 .22705078 .453125 .27685548V.546875H.6279297V0H.453125V.07910156C.4267578 .04703776 .3988444 .02339681 .36938478 .008178711 .33992515-.007039388 .30745445-.0146484379 .27197267-.0146484379 .20882161-.0146484379 .1607259 .004760742 .12768555 .0435791 .09464518 .08239746 .078125 .13883464 .078125 .21289063Z"/>
<path id="font_5_17" d="M.32910157 .24511719C.29264323 .24511719 .2652181 .23895264 .24682617 .22662354 .22843425 .21429444 .21923828 .1961263 .21923828 .17211914 .21923828 .15006511 .22664388 .13279216 .24145508 .12030029 .25626628 .10780843 .27685548 .1015625 .30322267 .1015625 .33610026 .1015625 .36376954 .11332194 .38623048 .13684082 .4086914 .1603597 .41992188 .189799 .41992188 .22515869V.24511719H.32910157M.5961914 .31134034V0H.41992188V.08105469C.39648438 .04767863 .3701172 .023381552 .3408203 .008163452 .31152345-.007044474 .2758789-.0146484379 .23388672-.0146484379 .1772461-.0146484379 .13126628 .0018717448 .095947269 .03491211 .060628255 .06795248 .04296875 .110839847 .04296875 .16357422 .04296875 .22770183 .06502279 .2747396 .10913086 .3046875 .15323894 .3346354 .22249349 .34960938 .31689454 .34960938H.41992188V.3635559C.41992188 .39146934 .40901695 .411911 .38720704 .42488099 .36539714 .43785096 .33138023 .44433595 .28515626 .44433595 .24772136 .44433595 .21289063 .44059245 .18066406 .43310548 .1484375 .4256185 .118489589 .41438804 .09082031 .39941407V.5332031C.1282552 .54215499 .16585286 .5489502 .20361328 .55358889 .2413737 .55822756 .27913413 .5605469 .31689454 .5605469 .41552735 .5605469 .48673503 .54100546 .5305176 .5019226 .5743001 .46283976 .5961914 .39931236 .5961914 .31134034Z"/>
<path id="font_5_27" d="M.083984378 .7597656H.25878907V0H.083984378V.7597656Z"/>
<path id="font_5_25" d="M.083984378 .546875H.25878907V0H.083984378V.546875M.083984378 .7597656H.25878907V.6171875H.083984378V.7597656Z"/>
<path id="font_5_32" d="M.27490235 .70214846V.546875H.45507813V.421875H.27490235V.1899414C.27490235 .16455078 .2799479 .14737956 .29003907 .13842774 .30013023 .1294759 .32014976 .125 .35009767 .125H.4399414V0H.29003907C.22102864 0 .17211914 .014404297 .14331055 .04321289 .11450195 .072021488 .100097659 .12093099 .100097659 .1899414V.421875H.013183594V.546875H.100097659V.70214846H.27490235Z"/>
<path id="font_5_35" d="M.012207031 .546875H.18701172L.33398438 .17578125 .45898438 .546875H.63378909L.4038086-.05130005C.38069663-.112345378 .35375978-.15502422 .32299806-.17933655 .29223634-.20365906 .2516276-.21582031 .20117188-.21582031H.100097659V-.10058594H.15478516C.18440755-.10058594 .20597331-.09588623 .21948242-.08648682 .23299153-.07709757 .24348958-.060256959 .25097657-.035964967L.25585938-.020828248 .012207031 .546875Z"/>
<path id="font_5_3" d=""/>
<path id="font_5_34" d="M.015136719 .546875H.1899414L.32617188 .16894531 .46191407 .546875H.63720706L.421875 0H.22998047L.015136719 .546875Z"/>
<path id="font_5_31" d="M.51123049 .53027346V.39746095C.47379557 .41308595 .43766276 .4248047 .40283204 .4326172 .3680013 .4404297 .3351237 .44433595 .30419923 .44433595 .2709961 .44433595 .24633789 .44017539 .23022461 .43185426 .21411133 .4235433 .20605469 .41074119 .20605469 .39344789 .20605469 .37941996 .2121582 .36865235 .22436524 .36114503 .23657227 .35364787 .25846354 .34810386 .29003907 .34451295L.32080079 .34010316C.410319 .32868959 .47054038 .30993144 .50146487 .28382875 .53238937 .2577362 .54785159 .21679688 .54785159 .16101074 .54785159 .102620448 .5263672 .058746339 .48339845 .029388428 .4404297 .000030517579 .3763021-.0146484379 .29101563-.0146484379 .2548828-.0146484379 .2175293-.01180013 .17895508-.0061035158 .14038086-.00040690104 .100748699 .0081380209 .060058595 .01953125V.15234375C.09488932 .13541667 .13061524 .12272135 .16723633 .11425781 .20385742 .10579427 .24104817 .1015625 .2788086 .1015625 .31298829 .1015625 .33870445 .106292728 .35595704 .115753177 .37320964 .12521363 .38183595 .13924153 .38183595 .15783692 .38183595 .17349243 .37589518 .18515015 .36401368 .19281006 .35213218 .20048015 .32845054 .20643616 .29296876 .2106781L.26220704 .21459961C.18440755 .22438558 .12988281 .2424876 .09863281 .26890565 .06738281 .29533387 .051757814 .33545939 .051757814 .38928224 .051757814 .44734703 .071614589 .49040733 .111328128 .51846316 .15104167 .546519 .21191406 .5605469 .2939453 .5605469 .32617188 .5605469 .36002604 .55810549 .3955078 .55322268 .4309896 .54833987 .4695638 .5406901 .51123049 .53027346Z"/>
<path id="font_5_12" d="M.091796878 .7294922H.27978517V.14257813H.6098633V0H.091796878V.7294922Z"/>
<path id="font_5_13" d="M.091796878 .7294922H.3310547L.4970703 .33935548 .6640625 .7294922H.90283206V0H.72509768V.5336914L.5571289 .140625H.43798829L.27001954 .5336914V0H.091796878V.7294922Z"/>
<path id="font_5_26" d="M.083984378 .546875H.25878907V.010177612C.25878907-.063196819 .24121094-.11920675 .20605469-.15785218 .17089844-.1964976 .11995443-.21582031 .053222658-.21582031H-.033203126V-.10058594H-.0029296876C.030273438-.10058594 .053059896-.09310404 .06542969-.07814026 .07779948-.063176479 .083984378-.033737184 .083984378 .010177612V.546875M.083984378 .7597656H.25878907V.6171875H.083984378V.7597656Z"/>
<path id="font_5_20" d="M.4560547 .46679688V.7597656H.63183596V0H.4560547V.07910156C.43196617 .04670207 .4054362 .02297465 .37646485 .0079193119 .3474935-.0071258547 .31396485-.0146484379 .2758789-.0146484379 .2084961-.0146484379 .15315755 .012171428 .10986328 .06581116 .06656901 .11945089 .044921876 .1884969 .044921876 .27294923 .044921876 .35740153 .06656901 .42644755 .10986328 .48008729 .15315755 .533727 .2084961 .5605469 .2758789 .5605469 .3136393 .5605469 .34708659 .5529378 .3762207 .5377197 .40535484 .52250167 .43196617 .4988607 .4560547 .46679688M.3408203 .11230469C.37825523 .11230469 .40681968 .12601726 .42651368 .15344239 .44620768 .18086751 .4560547 .22070313 .4560547 .27294923 .4560547 .3251953 .44620768 .3650309 .42651368 .39245606 .40681968 .4198812 .37825523 .43359376 .3408203 .43359376 .30371095 .43359376 .27530924 .4198812 .25561524 .39245606 .23592122 .3650309 .22607422 .3251953 .22607422 .27294923 .22607422 .22070313 .23592122 .18086751 .25561524 .15344239 .27530924 .12601726 .30371095 .11230469 .3408203 .11230469Z"/>
<path id="font_5_23" d="M.4560547 .09277344C.43196617 .060872396 .4054362 .037434896 .37646485 .022460938 .3474935 .007486979 .31396485 0 .2758789 0 .20914714 0 .15397136 .026306153 .11035156 .07891846 .06673177 .13154094 .044921876 .19857788 .044921876 .2800293 .044921876 .36180625 .06673177 .4288381 .11035156 .48112489 .15397136 .5334218 .20914714 .5595703 .2758789 .5595703 .31396485 .5595703 .3474935 .55204269 .37646485 .5369873 .4054362 .52194216 .43196617 .49821983 .4560547 .4658203V.546875H.63183596V.05517578C.63183596-.032714845 .60408529-.099853519 .548584-.14624024 .49308268-.19262696 .41259767-.21582031 .3071289-.21582031 .27294923-.21582031 .23990886-.21317546 .20800781-.20788574 .17610677-.20259603 .14404297-.1944987 .111816409-.18359375V-.046875C.14241536-.06461588 .17236328-.07784017 .20166016-.08654785 .23095703-.09525553 .26041667-.099609378 .29003907-.099609378 .34733073-.099609378 .3893229-.08711243 .41601563-.06211853 .44270835-.037134809 .4560547 .0019632977 .4560547 .05517578V.09277344M.3408203 .43359376C.3046875 .43359376 .27652995 .42022706 .25634767 .39349366 .23616536 .36676026 .22607422 .3289388 .22607422 .2800293 .22607422 .2298177 .23583985 .19175212 .2553711 .16583252 .27490235 .13991292 .3033854 .12695313 .3408203 .12695313 .37727867 .12695313 .40559898 .14031983 .42578126 .16705323 .44596354 .19378662 .4560547 .23144531 .4560547 .2800293 .4560547 .3289388 .44596354 .36676026 .42578126 .39349366 .40559898 .42022706 .37727867 .43359376 .3408203 .43359376Z"/>
<path id="font_5_21" d="M.6298828 .2756195V.22558594H.2211914C.22542317 .1842448 .24023438 .15323894 .265625 .13256836 .29101563 .11189779 .3264974 .1015625 .3720703 .1015625 .40885417 .1015625 .4465332 .107055667 .48510743 .11804199 .52368167 .12902832 .5633138 .14567058 .6040039 .16796875V.033203126C.5626628 .017415366 .5213216 .005493164 .47998048-.0025634766 .4386393-.010620117 .3972982-.0146484379 .35595704-.0146484379 .2569987-.0146484379 .1800944 .010538737 .12524414 .060913087 .07039388 .11129761 .04296875 .18197632 .04296875 .27294923 .04296875 .36229453 .0699056 .43256126 .1237793 .4837494 .177653 .5349477 .25179038 .5605469 .3461914 .5605469 .4321289 .5605469 .5008952 .5346883 .55249026 .4829712 .60408529 .43125407 .6298828 .36213685 .6298828 .2756195M.4501953 .33398438C.4501953 .36704508 .44051109 .39370219 .42114259 .4139557 .40177409 .4342092 .37646485 .44433595 .34521485 .44433595 .3113607 .44433595 .28385417 .43485514 .2626953 .41589356 .24153646 .39693199 .22835286 .3696289 .22314453 .33398438H.4501953Z"/>
<clipPath id="clip_8">
<path transform="matrix(1,0,0,-1,0,180.504)" d="M51.960626 4.32H285.24064V176.184H51.960626Z"/>
</clipPath>
<clipPath id="clip_9">
<path transform="matrix(1,0,0,-1,0,180.504)" d="M51.960626 4.32H285.24064V176.184H51.960626Z"/>
</clipPath>
<clipPath id="clip_10">
<path transform="matrix(1,0,0,-1,0,180.504)" d="M51.960626 4.32H285.24064V176.184H51.960626Z"/>
</clipPath>
<path id="font_11_5" d="M.16308594 .7294922H.35107423L.2368164 .14257813H.56591799L.5390625 0H.020996094L.16308594 .7294922Z"/>
<path id="font_11_6" d="M.16308594 .7294922H.39404298L.48779298 .34202577 .7338867 .7294922H.9741211L.83203127 0H.6538086L.7578125 .53845217 .5048828 .14022827H.4038086L.30322267 .53845217 .19921875 0H.020996094L.16308594 .7294922Z"/>
<path id="font_11_4" d="M.053222658 .359375H.35986329L.33203126 .21679688H.024902344L.053222658 .359375Z"/>
<path id="font_11_15" d="M.13720703 .546875H.31298829L.20800781 .010177612C.19303386-.0664622 .16512044-.12328593 .12426758-.16029358 .08341471-.1973114 .028320313-.21582031-.041015626-.21582031H-.12792969L-.10595703-.10058594H-.07519531C-.042317708-.10058594-.018310547-.093185428-.0031738282-.0783844 .011962891-.063583377 .023763022-.034062704 .032226564 .010177612L.13720703 .546875M.17822266 .7597656H.3540039L.32617188 .6171875H.14990235L.17822266 .7597656Z"/>
<path id="font_11_21" d="M.067871097 .21289063 .13183594 .546875H.3071289L.25195313 .26220704C.24804688 .24365235 .24511719 .22786458 .24316406 .21484375 .24121094 .20182292 .24023438 .19156902 .24023438 .18408203 .24023438 .16357422 .24593099 .1476237 .25732423 .13623047 .26871745 .12483724 .2849935 .119140628 .30615235 .119140628 .34228517 .119140628 .3733724 .13313802 .39941407 .16113281 .42545573 .18912761 .44335938 .22802735 .453125 .27783204L.5058594 .546875H.68115237L.5751953 0H.39892579L.41503907 .080078128C.38509117 .048339845 .35367839 .024617514 .32080079 .008911133 .2879232-.0067952477 .25325523-.0146484379 .21679688-.0146484379 .16699219-.0146484379 .12841797-.0014394125 .10107422 .024978638 .07373047 .05140686 .060058595 .088760379 .060058595 .13703919 .060058595 .14846294 .060709638 .16053264 .06201172 .17324829 .063313808 .18597412 .06526693 .19918823 .067871097 .21289063Z"/>
<path id="font_11_10" d="M.3071289 .11230469C.35205079 .11230469 .38859049 .1330363 .41674806 .17449951 .4449056 .2159729 .45898438 .27017723 .45898438 .33711244 .45898438 .36747743 .45109049 .3911489 .43530274 .40812684 .41951499 .42510478 .39746095 .43359376 .36914063 .43359376 .32486979 .43359376 .28841148 .4131063 .25976563 .37213136 .2311198 .3311564 .21679688 .27866618 .21679688 .21466065 .21679688 .18135579 .224528 .15597026 .23999024 .13850403 .25545249 .1210378 .27783204 .11230469 .3071289 .11230469M.49121095 .46728517 .54785159 .7597656H.7241211L.5761719 0H.39990235L.41601563 .07876587C.3893229 .046813966 .36132813 .023254395 .33203126 .008087158 .30273438-.0070699059 .27067057-.0146484379 .23583985-.0146484379 .1743164-.0146484379 .12565105 .00491333 .08984375 .044036867 .054036458 .08317057 .036132814 .13648479 .036132814 .20397949 .036132814 .24604289 .04239909 .28696696 .05493164 .3267517 .067464198 .36653648 .08544922 .40273033 .10888672 .43533326 .13850911 .47642008 .17195638 .50755819 .20922852 .52874758 .24650066 .5499471 .28645835 .5605469 .32910157 .5605469 .36653648 .5605469 .3983561 .5529785 .42456056 .5378418 .45076499 .5227051 .47298179 .4991862 .49121095 .46728517Z"/>
<path id="font_11_13" d="M.41796876 .09277344C.38997398 .060872396 .36149089 .037434896 .33251954 .022460938 .3035482 .007486979 .27197267 0 .23779297 0 .17594402 0 .1270345 .01995341 .09106445 .05986023 .055094404 .09977722 .037109376 .15427144 .037109376 .2233429 .037109376 .26015727 .043375654 .297053 .055908204 .33403016 .06844076 .3710073 .08642578 .40578715 .10986328 .43836976 .13850911 .4777883 .17138672 .507843 .2084961 .52853396 .24560547 .54922488 .28548179 .5595703 .328125 .5595703 .36653648 .5595703 .3988444 .5520732 .42504884 .53707888 .45125328 .52208456 .47330729 .4984487 .49121095 .46617127L.5058594 .546875H.6821289L.58984377 .071777347C.57096359-.026204428 .53059896-.09863281 .46875-.14550781 .40690104-.19238281 .32096354-.21582031 .2109375-.21582031 .17708333-.21582031 .14444988-.21317546 .11303711-.20788574 .08162435-.20259603 .05061849-.1944987 .020019532-.18359375L.045898439-.046875C.07356771-.06461588 .10123698-.07784017 .12890625-.08654785 .15657552-.09525553 .18489583-.099609378 .21386719-.099609378 .2718099-.099609378 .31632487-.087275188 .3474121-.06260681 .37849937-.03794861 .39941407 .0013122559 .41015626 .05517578L.41796876 .09277344M.36914063 .43359376C.32617188 .43359376 .29044596 .41419474 .2619629 .37539674 .23347982 .33659873 .21923828 .28785707 .21923828 .22917176 .21923828 .1959076 .22688802 .17055257 .2421875 .15310669 .25748698 .13567098 .27978517 .12695313 .30908204 .12695313 .35172526 .12695313 .38736979 .14627075 .41601563 .184906 .44466148 .22354126 .45898438 .27171327 .45898438 .329422 .45898438 .36332704 .45133464 .38916526 .43603517 .40693666 .4207357 .42470805 .3984375 .43359376 .36914063 .43359376Z"/>
<path id="font_11_11" d="M.62890627 .25354005 .6230469 .22558594H.21386719C.21386719 .22361247 .21370442 .22073873 .2133789 .21696472 .21305339 .21320088 .21289063 .21033223 .21289063 .20835877 .21289063 .17259217 .22355144 .14584859 .24487305 .12812805 .26619468 .11041769 .2981771 .1015625 .3408203 .1015625 .37760417 .1015625 .41642253 .10713705 .4572754 .11828613 .49812828 .12943523 .5410156 .1459961 .5859375 .16796875L.55908206 .032226564C.5164388 .016438803 .4740397 .004679362 .43188478-.0030517579 .38972984-.010782878 .34684245-.0146484379 .30322267-.0146484379 .2179362-.0146484379 .15209961 .0050760905 .10571289 .044525148 .059326173 .083984378 .036132814 .13974507 .036132814 .21180725 .036132814 .25354515 .04353841 .29405723 .05834961 .3333435 .073160808 .37263999 .09472656 .40859477 .123046878 .4412079 .15657552 .48033143 .19669597 .5099996 .2434082 .5302124 .29012046 .55043539 .34195964 .5605469 .39892579 .5605469 .472819 .5605469 .53149417 .540858 .5749512 .5014801 .6184082 .46211244 .6401367 .40907798 .6401367 .3423767 .6401367 .32935588 .6392415 .31560264 .6374512 .30111695 .6356608 .28664146 .6328125 .27078248 .62890627 .25354005M.4638672 .33398438C.46484376 .3381958 .46557618 .34248863 .46606446 .3468628 .46655274 .35123698 .46679688 .35553489 .46679688 .35975648 .46679688 .38567607 .45898438 .40625 .44335938 .42147828 .42773438 .4367167 .40657554 .44433595 .3798828 .44433595 .34570313 .44433595 .3166504 .4350179 .2927246 .41638185 .26879884 .39774577 .25048829 .37027995 .23779297 .33398438H.4638672Z"/>
<path id="font_11_3" d=""/>
<path id="font_11_17" d="M.22216797 .07861328 .16601563-.20800781H-.009765625L.13720703 .546875H.31298829L.296875 .46714784C.32356773 .49909974 .3515625 .52265426 .38085938 .5378113 .41015626 .5529683 .44222007 .5605469 .47705079 .5605469 .5385742 .5605469 .58723959 .54098007 .6230469 .5018463 .6588542 .46272279 .6767578 .40941368 .6767578 .34191896 .6767578 .29985557 .6704915 .2589315 .657959 .21914673 .64542648 .17936199 .6274414 .14316814 .6040039 .110565189 .57438156 .069478359 .54093429 .038335165 .5036621 .01713562 .46638999-.0040537517 .42643229-.0146484379 .38378907-.0146484379 .34635417-.0146484379 .31453453-.007080078 .28833009 .008056641 .26212565 .02319336 .24007161 .04671224 .22216797 .07861328M.40576173 .43359376C.36083985 .43359376 .32413737 .41277568 .2956543 .37113954 .26717124 .32951356 .2529297 .27539573 .2529297 .20878601 .2529297 .17874654 .26098634 .15515645 .2770996 .13801575 .2932129 .12087504 .31559245 .11230469 .34423829 .11230469 .3881836 .11230469 .42447917 .13279216 .453125 .17376709 .48177085 .21474202 .49609376 .26723228 .49609376 .3312378 .49609376 .36454264 .48836265 .3899282 .4729004 .4073944 .45743815 .42486064 .4350586 .43359376 .40576173 .43359376Z"/>
<path id="font_11_7" d="M.32910157 .24511719C.28548179 .24511719 .2525228 .23838298 .23022461 .22491455 .20792644 .2114563 .19677735 .19158936 .19677735 .16531372 .19677735 .14551799 .20336914 .12994385 .21655274 .11859131 .22973633 .10723877 .24788411 .1015625 .2709961 .1015625 .30680339 .1015625 .3367513 .112345378 .36083985 .13391114 .38492839 .15548706 .40104167 .18590291 .4091797 .22515869L.41308595 .24511719H.32910157M.6020508 .31134034 .5410156 0H.36621095L.38085938 .08067322C.35221354 .048080446 .3219401 .024042765 .29003907 .008560181 .25813804-.0069122316 .22347005-.0146484379 .18603516-.0146484379 .13427735-.0146484379 .093180339-.0012207031 .06274414 .025634766 .03230794 .052490236 .017089844 .08870443 .017089844 .13427735 .017089844 .2039388 .04402669 .25724284 .09790039 .29418946 .1517741 .33113609 .22949219 .34960938 .3310547 .34960938H.43408204L.43603517 .3635559C.43701173 .3681539 .4375814 .37143455 .43774415 .37339784 .4379069 .3753713 .43798829 .377182 .43798829 .37882997 .43798829 .40049745 .42781578 .41682945 .4074707 .42782594 .38712565 .4388326 .3569336 .44433595 .31689454 .44433595 .28076173 .44433595 .24576824 .44059245 .21191406 .43310548 .17805989 .4256185 .14534505 .41438804 .11376953 .39941407L.14013672 .5332031C.17659505 .54215499 .21394857 .5489502 .25219728 .55358889 .29044596 .55822756 .33007813 .5605469 .37109376 .5605469 .45214845 .5605469 .5123698 .54656478 .5517578 .51860049 .5911458 .4906362 .61083987 .44803874 .61083987 .3908081 .61083987 .37968955 .6101074 .36750794 .6086426 .3542633 .60717776 .34101869 .60498049 .32671104 .6020508 .31134034Z"/>
<path id="font_11_18" d="M.51416018 .39746095C.5021159 .40445964 .48876954 .40979005 .4741211 .41345216 .45947267 .41711427 .4436849 .4189453 .4267578 .4189453 .38216148 .4189453 .34513346 .40459696 .31567384 .37590028 .2862142 .34720359 .26627604 .30578614 .25585938 .25164796L.20605469 0H.030761719L.13720703 .546875H.31298829L.2939453 .453125C.31705729 .4877828 .34594728 .5143483 .38061524 .53282168 .4152832 .5513051 .45377604 .5605469 .49609376 .5605469 .5022786 .5605469 .50927737 .5602112 .51708987 .5595398 .52490237 .5588684 .5341797 .55785629 .5449219 .5565033L.51416018 .39746095Z"/>
<path id="font_11_14" d="M.13720703 .546875H.31298829L.20605469 0H.030761719L.13720703 .546875M.17822266 .7597656H.3540039L.32617188 .6171875H.14990235L.17822266 .7597656Z"/>
<path id="font_11_20" d="M.35986329 .70214846 .33007813 .546875H.50878909L.48388673 .421875H.30517579L.2602539 .19042969C.2589518 .18522136 .25805665 .18082683 .25756837 .1772461 .25708009 .17366536 .25683595 .17024739 .25683595 .16699219 .25683595 .15201824 .26180015 .14127605 .27172853 .13476563 .2816569 .1282552 .29833985 .125 .32177735 .125H.41210938L.38720704 0H.24023438C.1875 0 .14729817 .011067708 .119628909 .033203126 .09195963 .055338544 .078125 .087239589 .078125 .12890625 .078125 .13802083 .07861328 .14778646 .079589847 .15820313 .080566409 .1686198 .08203125 .17919922 .083984378 .1899414L.12890625 .421875H.04296875L.06689453 .546875H.1538086L.18408203 .70214846H.35986329Z"/>
<path id="font_11_23" d="M.06591797 .546875H.23095703L.30615235 .16796875 .5 .546875H.6870117L.3408203-.05130005C.30208335-.11886597 .26627604-.16317749 .23339844-.18423462 .20052083-.20529175 .15804036-.21582031 .10595703-.21582031H0L.018066407-.10058594H.07324219C.10188802-.10058594 .12410482-.09580485 .13989258-.086242679 .15568035-.076690677 .16975911-.05993144 .1821289-.035964967L.19824219-.0066833498 .06591797 .546875Z"/>
<path id="font_11_22" d="M.06298828 .546875H.2241211L.29492188 .16503906 .50097659 .546875H.67822268L.3569336 0H.171875L.06298828 .546875Z"/>
<path id="font_11_12" d="M.54003909 .7597656 .51708987 .64453127H.42089845C.39648438 .64453127 .3786621 .6400757 .36743165 .63116458 .35620118 .6222636 .34847007 .60695907 .34423829 .58525088L.3359375 .546875H.48388673L.45996095 .421875H.31201173L.22998047 0H.05419922L.13623047 .421875H.049804689L.07421875 .546875H.16015625L.16796875 .58477786C.18001302 .64538577 .20507813 .68970236 .24316406 .71772769 .28125 .745753 .33544923 .7597656 .40576173 .7597656H.54003909Z"/>
<path id="font_11_8" d="M.40576173 .43359376C.36083985 .43359376 .32413737 .41277568 .2956543 .37113954 .26717124 .32951356 .2529297 .27539573 .2529297 .20878601 .2529297 .17874654 .26098634 .15515645 .2770996 .13801575 .2932129 .12087504 .31559245 .11230469 .34423829 .11230469 .3881836 .11230469 .42447917 .13279216 .453125 .17376709 .48177085 .21474202 .49609376 .26723228 .49609376 .3312378 .49609376 .36454264 .48836265 .3899282 .4729004 .4073944 .45743815 .42486064 .4350586 .43359376 .40576173 .43359376M.22216797 .07876587 .20605469 0H.030761719L.17822266 .7597656H.3540039L.296875 .46728517C.32356773 .4991862 .3515625 .5227051 .38085938 .5378418 .41015626 .5529785 .44222007 .5605469 .47705079 .5605469 .5385742 .5605469 .58723959 .54098007 .6230469 .5018463 .6588542 .46272279 .6767578 .40941368 .6767578 .34191896 .6767578 .29985557 .6704915 .2589315 .657959 .21914673 .64542648 .17936199 .6274414 .14316814 .6040039 .110565189 .57438156 .069478359 .54093429 .038335165 .5036621 .01713562 .46638999-.0040537517 .42643229-.0146484379 .38378907-.0146484379 .34635417-.0146484379 .31453453-.0070699059 .28833009 .008087158 .26212565 .023254395 .24007161 .046813966 .22216797 .07876587Z"/>
<path id="font_11_16" d="M.17822266 .7597656H.3540039L.20605469 0H.030761719L.17822266 .7597656Z"/>
<path id="font_5_36" d="M.7890625 .34765626V.27929688L.59716799 .08691406 .5263672 .15792847 .6230469 .2548828H.057128908V.3720703H.6230469L.5263672 .46902467 .59716799 .54003909 .7890625 .34765626Z"/>
<path id="font_11_19" d="M.5600586 .53027346 .5341797 .39453126C.5 .41080729 .46598307 .4231771 .4321289 .43164063 .39827476 .44010417 .36621095 .44433595 .3359375 .44433595 .30143229 .44433595 .27482096 .43985496 .25610353 .43089295 .23738607 .42193095 .22802735 .40914408 .22802735 .39253236 .22802735 .38275657 .23323567 .37493388 .24365235 .36906434 .254069 .36320497 .2745768 .35701499 .30517579 .35049439L.33691407 .34461976C.4075521 .3296051 .45703126 .31026713 .48535157 .28660584 .5136719 .2629547 .52783206 .2300822 .52783206 .18798828 .52783206 .12435913 .5029297 .07467651 .453125 .03894043 .4033203 .0032145184 .33365885-.0146484379 .24414063-.0146484379 .20670574-.0146484379 .16845703-.01171875 .12939453-.005859375 .09033203 0 .05045573 .0087890629 .009765625 .020507813L.036132814 .15820313C.067708339 .13948567 .10148112 .12536621 .13745117 .11584473 .17342122 .10632324 .21028646 .1015625 .24804688 .1015625 .28483073 .1015625 .3125 .10598246 .3310547 .11482239 .34960938 .123662319 .35888673 .13659668 .35888673 .15362549 .35888673 .16541545 .35367839 .17458089 .34326173 .18112183 .33284507 .18767293 .3113607 .1943868 .2788086 .20126343L.24707031 .20713806C.18457031 .22016907 .13997396 .23939514 .11328125 .26481629 .08658854 .29023744 .07324219 .32543437 .07324219 .3704071 .07324219 .43134056 .09627279 .47826133 .14233399 .51116946 .18839519 .5440877 .25423179 .5605469 .33984376 .5605469 .37727867 .5605469 .4141439 .5580241 .45043946 .5529785 .48673503 .5479329 .5232747 .54036459 .5600586 .53027346Z"/>
<path id="font_11_9" d="M.5810547 .53027346 .55322268 .3876953C.52978518 .4033203 .50667318 .4152018 .48388673 .42333985 .46110026 .43147788 .4388021 .43554688 .4169922 .43554688 .36002604 .43554688 .31347657 .41636149 .27734376 .37799073 .24121094 .33963014 .22314453 .29057823 .22314453 .23083496 .22314453 .19262696 .234375 .16299439 .25683595 .14193726 .27929688 .12088013 .31103517 .11035156 .35205079 .11035156 .37939454 .11035156 .40625 .114461269 .4326172 .122680667 .45898438 .13090007 .48404948 .1430664 .5078125 .15917969L.48095704 .015625C.4519857 .005533854 .42285157-.0020345052 .3935547-.007080078 .3642578-.012125651 .3347982-.0146484379 .30517579-.0146484379 .21923828-.0146484379 .15307617 .0046691896 .10668945 .043304445 .060302736 .08194987 .037109376 .13681539 .037109376 .207901 .037109376 .25256858 .045654298 .29593406 .06274414 .33799745 .079833988 .38006083 .10432943 .41788737 .13623047 .45147706 .17171224 .48832194 .21240235 .5157115 .25830079 .53364565 .30419923 .5515798 .35709635 .5605469 .4169922 .5605469 .44466148 .5605469 .47216798 .5580241 .49951173 .5529785 .52685549 .5479329 .55403646 .54036459 .5810547 .53027346Z"/>
<path id="font_5_24" d="M.63378909 .33338929V0H.4580078V.054260255 .25419618C.4580078 .3020986 .45694987 .3350118 .45483399 .3529358 .4527181 .37085978 .449056 .38405863 .44384767 .39253236 .43701173 .40394593 .42773438 .41282655 .41601563 .4191742 .40429688 .425532 .39095054 .42871095 .37597657 .42871095 .33951823 .42871095 .3108724 .4146169 .29003907 .38642884 .26920573 .35824076 .25878907 .31921388 .25878907 .26934815V0H.083984378V.7597656H.25878907V.46679688C.28515626 .4988607 .31315104 .52250167 .34277345 .5377197 .37239585 .5529378 .4051107 .5605469 .44091798 .5605469 .50406906 .5605469 .55200198 .5411682 .5847168 .5024109 .61743167 .46365357 .63378909 .40731303 .63378909 .33338929Z"/>
<path id="font_5_10" d="M.6699219 .039749147C.6354167 .021784464 .5994466 .008229573 .5620117-.00091552737 .52457687-.010070801 .4855143-.0146484379 .44482423-.0146484379 .32340495-.0146484379 .22721355 .019307455 .15625 .08721924 .08528646 .15514119 .049804689 .24724324 .049804689 .3635254 .049804689 .48013307 .08528646 .57239279 .15625 .64030459 .22721355 .7082265 .32340495 .7421875 .44482423 .7421875 .4855143 .7421875 .52457687 .73760989 .5620117 .7284546 .5994466 .7193095 .6354167 .7057546 .6699219 .6877899V.5361328C.6350911 .5600688 .6007487 .5776062 .56689456 .5887451 .53304037 .5998942 .49739585 .60546877 .45996095 .60546877 .39290367 .60546877 .34016929 .5840047 .3017578 .54107668 .26334635 .49815879 .24414063 .438975 .24414063 .3635254 .24414063 .28840129 .26334635 .2293752 .3017578 .18644715 .34016929 .14352925 .39290367 .12207031 .45996095 .12207031 .49739585 .12207031 .53304037 .12763977 .56689456 .13877869 .6007487 .14992778 .6350911 .16747029 .6699219 .19140625V.039749147Z"/>
<path id="font_5_29" d="M.34423829 .43554688C.3055013 .43554688 .2759603 .42159019 .25561524 .39367677 .23527019 .36576335 .22509766 .32552085 .22509766 .27294923 .22509766 .22037761 .23527019 .18013509 .25561524 .15222168 .2759603 .124308269 .3055013 .11035156 .34423829 .11035156 .38232423 .11035156 .41145835 .124308269 .43164063 .15222168 .4518229 .18013509 .46191407 .22037761 .46191407 .27294923 .46191407 .32552085 .4518229 .36576335 .43164063 .39367677 .41145835 .42159019 .38232423 .43554688 .34423829 .43554688M.34423829 .5605469C.4383138 .5605469 .5118001 .5351105 .56469729 .48423768 .6175944 .43337504 .64404299 .36294557 .64404299 .27294923 .64404299 .18295288 .6175944 .11251831 .56469729 .061645509 .5118001 .010782878 .4383138-.0146484379 .34423829-.0146484379 .24983724-.0146484379 .17602539 .010782878 .122802738 .061645509 .06958008 .11251831 .04296875 .18295288 .04296875 .27294923 .04296875 .36294557 .06958008 .43337504 .122802738 .48423768 .17602539 .5351105 .24983724 .5605469 .34423829 .5605469Z"/>
<path id="font_5_11" d="M.091796878 .7294922H.5991211V.58691409H.27978517V.45214845H.5800781V.3095703H.27978517V0H.091796878V.7294922Z"/>
<path id="font_5_19" d="M.5258789 .53027346V.3876953C.5021159 .40397135 .47827149 .41601563 .4543457 .42382813 .43041993 .43164063 .40559898 .43554688 .3798828 .43554688 .3310547 .43554688 .29305015 .42125956 .26586915 .39268495 .23868816 .36412049 .22509766 .3242086 .22509766 .27294923 .22509766 .22168987 .23868816 .18177288 .26586915 .15319824 .29305015 .12463379 .3310547 .11035156 .3798828 .11035156 .40722657 .11035156 .43318687 .114461269 .45776368 .122680667 .48234049 .13090007 .5050456 .1430664 .5258789 .15917969V.015625C.49853517 .005533854 .47078453-.0020345052 .44262696-.007080078 .4144694-.012125651 .38623048-.0146484379 .35791017-.0146484379 .25927735-.0146484379 .1821289 .010701497 .12646485 .061401369 .07080078 .11211141 .04296875 .18262737 .04296875 .27294923 .04296875 .3632711 .07080078 .43378196 .12646485 .4844818 .1821289 .53519186 .25927735 .5605469 .35791017 .5605469 .386556 .5605469 .41479493 .5580241 .44262696 .5529785 .47045899 .5479329 .49820964 .54036459 .5258789 .53027346Z"/>
<path id="font_5_9" d="M.5341797 .1328125H.24023438L.19384766 0H.0048828127L.27490235 .7294922H.49902345L.76904299 0H.5800781L.5341797 .1328125M.28710938 .2685547H.4868164L.38720704 .55859377 .28710938 .2685547Z"/>
<path id="font_5_16" d="M.5991211 .7059326V.55078127C.55908206 .56884768 .52001956 .5824788 .4819336 .5916748 .44384767 .6008708 .4078776 .60546877 .37402345 .60546877 .32910157 .60546877 .29589845 .59927877 .27441407 .5868988 .2529297 .574529 .2421875 .5553131 .2421875 .5292511 .2421875 .50970968 .24943035 .4944814 .26391603 .48356629 .2784017 .47265116 .3046875 .46328736 .34277345 .45547486L.42285157 .4394226C.50390627 .42314659 .56152346 .39840699 .5957031 .36520387 .6298828 .3320109 .64697268 .28481547 .64697268 .22361756 .64697268 .14321392 .62312826 .08339945 .57543948 .044174196 .5277507 .0049591066 .45491538-.0146484379 .3569336-.0146484379 .31070964-.0146484379 .2643229-.010238647 .21777344-.0014190674 .17122396 .0074005129 .12467448 .020467123 .078125 .03778076V.19726563C.12467448 .17236328 .16967774 .15360515 .21313477 .14099121 .2565918 .12837728 .2985026 .12207031 .3388672 .12207031 .3798828 .12207031 .41129557 .12891133 .43310548 .14259339 .45491538 .15627544 .4658203 .17582195 .4658203 .20123291 .4658203 .22402954 .4584147 .24161785 .44360353 .2539978 .42879234 .26637779 .3992513 .27745567 .35498048 .28723146L.28222657 .30326844C.20930989 .31889344 .15600586 .34379069 .12231445 .3779602 .08862305 .4121399 .071777347 .45820109 .071777347 .5161438 .071777347 .5887248 .095214847 .64454147 .14208985 .68359377 .18896485 .72265627 .25634767 .7421875 .34423829 .7421875 .38427735 .7421875 .42545573 .73916628 .46777345 .7331238 .5100911 .7270813 .5538737 .7180176 .5991211 .7059326Z"/>
<path id="font_5_22" d="M.44384767 .7597656V.64453127H.34716798C.32242839 .64453127 .30517579 .6400757 .29541017 .63116458 .28564454 .6222636 .28076173 .60680136 .28076173 .58477786V.546875H.43017579V.421875H.28076173V0H.10595703V.421875H.019042969V.546875H.10595703V.58477786C.10595703 .6444092 .122558597 .6884816 .15576172 .71699526 .18896485 .74550887 .24039714 .7597656 .3100586 .7597656H.44384767Z"/>
<path id="font_5_28" d="M.63378909 .33338929V0H.4580078V.054260255 .25517274C.4580078 .3024241 .45694987 .3350118 .45483399 .3529358 .4527181 .37085978 .449056 .38405863 .44384767 .39253236 .43701173 .40394593 .42773438 .41282655 .41601563 .4191742 .40429688 .425532 .39095054 .42871095 .37597657 .42871095 .33951823 .42871095 .3108724 .4146169 .29003907 .38642884 .26920573 .35824076 .25878907 .31921388 .25878907 .26934815V0H.083984378V.546875H.25878907V.46679688C.28515626 .4988607 .31315104 .52250167 .34277345 .5377197 .37239585 .5529378 .4051107 .5605469 .44091798 .5605469 .50406906 .5605469 .55200198 .5411682 .5847168 .5024109 .61743167 .46365357 .63378909 .40731303 .63378909 .33338929Z"/>
<path id="font_5_30" d="M.49023438 .39746095C.4749349 .40478517 .4597168 .41019694 .44458009 .4136963 .42944337 .41719566 .41422526 .4189453 .39892579 .4189453 .3540039 .4189453 .31941734 .4045156 .29516603 .37565614 .2709147 .34679667 .25878907 .3054606 .25878907 .25164796V0H.083984378V.546875H.25878907V.45703126C.28125 .49301148 .30704753 .5192566 .33618165 .5357666 .36531578 .5522868 .40022788 .5605469 .44091798 .5605469 .44677735 .5605469 .453125 .56029257 .45996095 .55978396 .46679688 .55928549 .47672526 .55819198 .4897461 .5565033L.49023438 .39746095Z"/>
<path id="font_5_14" d="M.091796878 .7294922H.4038086C.49658204 .7294922 .56778976 .70888265 .61743167 .6676636 .66707357 .6264445 .69189456 .5677083 .69189456 .49145509 .69189456 .4148763 .66707357 .3559774 .61743167 .3147583 .56778976 .27353923 .49658204 .2529297 .4038086 .2529297H.27978517V0H.091796878V.7294922M.27978517 .59277346V.38964845H.38378907C.4202474 .38964845 .44840495 .39849855 .46826173 .41619874 .4881185 .43389894 .49804688 .45898438 .49804688 .49145509 .49804688 .5239258 .4881185 .54892989 .46826173 .5664673 .44840495 .5840047 .4202474 .59277346 .38378907 .59277346H.27978517Z"/>
<path id="font_5_18" d="M.375 .11230469C.4124349 .11230469 .44099937 .12601726 .46069337 .15344239 .48038737 .18086751 .49023438 .22070313 .49023438 .27294923 .49023438 .3251953 .48038737 .3650309 .46069337 .39245606 .44099937 .4198812 .4124349 .43359376 .375 .43359376 .3375651 .43359376 .3088379 .4197998 .28881837 .3922119 .26879884 .36462403 .25878907 .32486979 .25878907 .27294923 .25878907 .22102864 .26879884 .18127442 .28881837 .15368653 .3088379 .12609864 .3375651 .11230469 .375 .11230469M.25878907 .46679688C.2828776 .4988607 .3095703 .52250167 .3388672 .5377197 .36816407 .5529378 .40185548 .5605469 .4399414 .5605469 .5073242 .5605469 .5626628 .533727 .60595706 .48008729 .6492513 .42644755 .67089846 .35740153 .67089846 .27294923 .67089846 .1884969 .6492513 .11945089 .60595706 .06581116 .5626628 .012171428 .5073242-.0146484379 .4399414-.0146484379 .40185548-.0146484379 .36816407-.007039388 .3388672 .008178711 .3095703 .02339681 .2828776 .04703776 .25878907 .07910156V0H.083984378V.7597656H.25878907V.46679688Z"/>
</defs>
<path transform="matrix(1,0,0,-1,0,180.504)" d="M0 0H314.67903V180.504H0Z" fill="#ffffff"/>
<path transform="matrix(1,0,0,-1,0,180.504)" d="M51.960626 4.32H285.24064V176.184H51.960626Z" fill="#ffffff"/>
<g clip-path="url(#clip_1)">
<g>
<path transform="matrix(1,0,0,-1,0,180.504)" d="M51.960626 4.32H118.61205V176.184H51.960626Z" fill="#1f6f6f" fill-opacity=".06"/>
<path transform="matrix(1,0,0,-1,0,180.504)" stroke-width="1" stroke-linecap="butt" stroke-miterlimit="10" stroke-linejoin="miter" fill="none" stroke="#1f6f6f" stroke-opacity=".06" d="M51.960626 4.32H118.61205V176.184H51.960626Z"/>
</g>
</g>
<g clip-path="url(#clip_2)">
<g>
<path transform="matrix(1,0,0,-1,0,180.504)" d="M118.61205 4.32H218.5892V176.184H118.61205Z" fill="#d4a017" fill-opacity=".06"/>
<path transform="matrix(1,0,0,-1,0,180.504)" stroke-width="1" stroke-linecap="butt" stroke-miterlimit="10" stroke-linejoin="miter" fill="none" stroke="#d4a017" stroke-opacity=".06" d="M118.61205 4.32H218.5892V176.184H118.61205Z"/>
</g>
</g>
<g clip-path="url(#clip_3)">
<g>
<path transform="matrix(1,0,0,-1,0,180.504)" d="M218.5892 4.32H285.24064V176.184H218.5892Z" fill="#c75146" fill-opacity=".06"/>
<path transform="matrix(1,0,0,-1,0,180.504)" stroke-width="1" stroke-linecap="butt" stroke-miterlimit="10" stroke-linejoin="miter" fill="none" stroke="#c75146" stroke-opacity=".06" d="M218.5892 4.32H285.24064V176.184H218.5892Z"/>
</g>
</g>
<g clip-path="url(#clip_4)">
<path transform="matrix(1,0,0,-1,0,180.504)" stroke-width=".5" stroke-linecap="square" stroke-linejoin="round" fill="none" stroke="#e5e7eb" stroke-opacity=".5" d="M51.960626 28.19H285.24064"/>
</g>
<path transform="matrix(1,0,0,-1,0,180.504)" d="M51.960626 28.19H48.960626" fill="#1f2937"/>
<path transform="matrix(1,0,0,-1,0,180.504)" stroke-width=".7" stroke-linecap="butt" stroke-linejoin="round" fill="none" stroke="#1f2937" d="M51.960626 28.19H48.960626"/>
<use data-text="0" xlink:href="#font_5_5" transform="matrix(10.5,0,0,-10.5,20.03875,156.49369)" fill="#1f2937"/>
<use data-text="." xlink:href="#font_5_4" transform="matrix(10.5,0,0,-10.5,27.34675,156.49369)" fill="#1f2937"/>
<use data-text="5" xlink:href="#font_5_7" transform="matrix(10.5,0,0,-10.5,31.33675,156.49369)" fill="#1f2937"/>
<use data-text="0" xlink:href="#font_5_5" transform="matrix(10.5,0,0,-10.5,38.644754,156.49369)" fill="#1f2937"/>
<g clip-path="url(#clip_6)">
<path transform="matrix(1,0,0,-1,0,180.504)" stroke-width=".5" stroke-linecap="square" stroke-linejoin="round" fill="none" stroke="#e5e7eb" stroke-opacity=".5" d="M51.960626 87.865H285.24064"/>
</g>
<path transform="matrix(1,0,0,-1,0,180.504)" d="M51.960626 87.865H48.960626" fill="#1f2937"/>
<path transform="matrix(1,0,0,-1,0,180.504)" stroke-width=".7" stroke-linecap="butt" stroke-linejoin="round" fill="none" stroke="#1f2937" d="M51.960626 87.865H48.960626"/>
<use data-text="0" xlink:href="#font_5_5" transform="matrix(10.5,0,0,-10.5,20.03875,96.81869)" fill="#1f2937"/>
<use data-text="." xlink:href="#font_5_4" transform="matrix(10.5,0,0,-10.5,27.34675,96.81869)" fill="#1f2937"/>
<use data-text="7" xlink:href="#font_5_8" transform="matrix(10.5,0,0,-10.5,31.33675,96.81869)" fill="#1f2937"/>
<use data-text="5" xlink:href="#font_5_7" transform="matrix(10.5,0,0,-10.5,38.644754,96.81869)" fill="#1f2937"/>
<g clip-path="url(#clip_7)">
<path transform="matrix(1,0,0,-1,0,180.504)" stroke-width=".5" stroke-linecap="square" stroke-linejoin="round" fill="none" stroke="#e5e7eb" stroke-opacity=".5" d="M51.960626 147.54H285.24064"/>
</g>
<path transform="matrix(1,0,0,-1,0,180.504)" d="M51.960626 147.54H48.960626" fill="#1f2937"/>
<path transform="matrix(1,0,0,-1,0,180.504)" stroke-width=".7" stroke-linecap="butt" stroke-linejoin="round" fill="none" stroke="#1f2937" d="M51.960626 147.54H48.960626"/>
<use data-text="1" xlink:href="#font_5_6" transform="matrix(10.5,0,0,-10.5,20.03875,37.143693)" fill="#1f2937"/>
<use data-text="." xlink:href="#font_5_4" transform="matrix(10.5,0,0,-10.5,27.34675,37.143693)" fill="#1f2937"/>
<use data-text="0" xlink:href="#font_5_5" transform="matrix(10.5,0,0,-10.5,31.33675,37.143693)" fill="#1f2937"/>
<use data-text="0" xlink:href="#font_5_5" transform="matrix(10.5,0,0,-10.5,38.644754,37.143693)" fill="#1f2937"/>
<use data-text="Q" xlink:href="#font_5_15" transform="matrix(0,-12,-12,-0,13.445,163.1895)" fill="#1f2937"/>
<use data-text="u" xlink:href="#font_5_33" transform="matrix(0,-12,-12,-0,13.445,152.9895)" fill="#1f2937"/>
<use data-text="a" xlink:href="#font_5_17" transform="matrix(0,-12,-12,-0,13.445,144.4455)" fill="#1f2937"/>
<use data-text="l" xlink:href="#font_5_27" transform="matrix(0,-12,-12,-0,13.445,136.34549)" fill="#1f2937"/>
<use data-text="i" xlink:href="#font_5_25" transform="matrix(0,-12,-12,-0,13.445,132.22949)" fill="#1f2937"/>
<use data-text="t" xlink:href="#font_5_32" transform="matrix(0,-12,-12,-0,13.445,128.1135)" fill="#1f2937"/>
<use data-text="y" xlink:href="#font_5_35" transform="matrix(0,-12,-12,-0,13.445,122.377498)" fill="#1f2937"/>
<use data-text=" " xlink:href="#font_5_3" transform="matrix(0,-12,-12,-0,13.445,114.5535)" fill="#1f2937"/>
<use data-text="v" xlink:href="#font_5_34" transform="matrix(0,-12,-12,-0,13.445,110.377498)" fill="#1f2937"/>
<use data-text="s" xlink:href="#font_5_31" transform="matrix(0,-12,-12,-0,13.445,102.5535)" fill="#1f2937"/>
<use data-text="." xlink:href="#font_5_4" transform="matrix(0,-12,-12,-0,13.445,95.41349)" fill="#1f2937"/>
<use data-text=" " xlink:href="#font_5_3" transform="matrix(0,-12,-12,-0,13.445,90.85349)" fill="#1f2937"/>
<use data-text="L" xlink:href="#font_5_12" transform="matrix(0,-12,-12,-0,13.445,86.67749)" fill="#1f2937"/>
<use data-text="L" xlink:href="#font_5_12" transform="matrix(0,-12,-12,-0,13.445,79.03349)" fill="#1f2937"/>
<use data-text="M" xlink:href="#font_5_13" transform="matrix(0,-12,-12,-0,13.445,71.389499)" fill="#1f2937"/>
<use data-text=" " xlink:href="#font_5_3" transform="matrix(0,-12,-12,-0,13.445,59.449495)" fill="#1f2937"/>
<use data-text="j" xlink:href="#font_5_26" transform="matrix(0,-12,-12,-0,13.445,55.27349)" fill="#1f2937"/>
<use data-text="u" xlink:href="#font_5_33" transform="matrix(0,-12,-12,-0,13.445,51.157495)" fill="#1f2937"/>
<use data-text="d" xlink:href="#font_5_20" transform="matrix(0,-12,-12,-0,13.445,42.613496)" fill="#1f2937"/>
<use data-text="g" xlink:href="#font_5_23" transform="matrix(0,-12,-12,-0,13.445,34.0215)" fill="#1f2937"/>
<use data-text="e" xlink:href="#font_5_21" transform="matrix(0,-12,-12,-0,13.445,25.429505)" fill="#1f2937"/>
<g clip-path="url(#clip_8)">
<path transform="matrix(1,0,0,-1,0,180.504)" stroke-width="1" stroke-linecap="butt" stroke-dasharray="5,2.5" stroke-linejoin="round" fill="none" stroke="#9ca3af" d="M51.960626 147.54H285.24064"/>
</g>
<g clip-path="url(#clip_9)">
<g>
<path transform="matrix(1,0,0,-1,0,180.504)" d="M68.62348 147.54V4.32H69.29223 69.96097 70.629718 71.298458 71.9672 72.63594 73.30469 73.97343 74.64217 75.31091 75.97966 76.6484 77.31715 77.98589 78.65463 79.32338 79.99212 80.660869 81.329608 81.99835 82.66709 83.33584 84.00458 84.673328 85.34207 86.01081 86.67956 87.3483 88.017047 88.68578 89.35453 90.02327 90.69202 91.360759 92.0295 92.69824 93.36699 94.035739 94.704479 95.37322 96.04196 96.71071 97.37945 98.048198 98.716938 99.38568 100.05442 100.72317 101.39191 102.06065 102.7294 103.39814 104.06689 104.73563 105.40437 106.07311 106.74186 107.4106 108.079349 108.748088 109.41683 110.08557 110.75432 111.423069 112.091808 112.76055 113.42929 114.09804 114.76678 115.435527 116.10426 116.77301 117.44175 118.1105 118.779239 119.44798 120.11673 120.78547 121.454219 122.122959 122.7917 123.46044 124.12919 124.79793 125.466678 126.135417 126.80416 127.4729 128.14165 128.8104 129.47914 130.14788 130.81662 131.48537 132.15412 132.82285 133.4916 134.16034 134.82909 135.49782 136.16657 136.83531 137.50406 138.1728 138.84154 139.51029 140.17903 140.84778 141.51651 142.18526 142.854 143.52275 144.19149 144.86023 145.52898 146.19773 146.86647 147.5352 148.20395 148.8727 149.54145 150.21018 150.87892 151.54767 152.21642 152.88515 153.5539 154.22264 154.89139 155.56014 156.22887 156.89762 157.56636 158.2351 158.90384 159.57259 160.24134 160.91008 161.57881 162.24756 162.9163 163.58506 164.2538 164.92253 165.59128 166.26003 166.92877 167.5975 168.26625 168.935 169.60375 170.27249 170.94123 171.60997 172.27872 172.94747 173.6162 174.28495 174.95369 175.62244 176.29117 176.95992 177.62866 178.29741 178.96614 179.63489 180.30364 180.97238 181.64113 182.30986 182.9786 183.64736 184.3161 184.98484 185.65358 186.32233 186.99108 187.65982 188.32855 188.9973 189.66605 190.3348 191.00353 191.67227 192.34102 193.00977 193.6785 194.34725 195.01599 195.68474 196.35347 197.02222 197.69097 198.35971 199.02846 199.69719 200.36594 201.03469 201.70343 202.37216 203.04091 203.70966 204.3784 205.04714 205.71588 206.38463 207.05338 207.72212 208.39086 209.0596 209.72835 210.3971 211.06583 211.73458 212.40332 213.07207 213.74082 214.40955 215.0783 215.74704 216.41579 217.08452 217.75327 218.42201 219.09076 219.75949 220.42824 221.09699 221.76573 222.43447 223.10321 223.77196 224.4407 225.10945 225.77819 226.44693 227.11568 227.78443 228.45316 229.1219 229.79065 230.4594 231.12815 231.79688 232.46562 233.13437 233.80312 234.47185 235.1406 235.80934 236.47809 237.14682 237.81557 238.48432 239.15306 239.8218 240.49054 241.15929 241.82804 242.49678 243.16551 243.83426 244.503 245.17176 245.84049 246.50923 247.17798 247.84673 248.51548 249.1842 249.85295 250.5217 251.19045 251.85918 252.52793 253.19667 253.86542 254.53415 255.2029 255.87165 256.54039 257.20915 257.87788 258.54664 259.21537 259.8841 260.55287 261.2216 261.89033 262.55909 263.2278 263.89659 264.5653 265.23405 265.9028 266.57154 267.2403 267.90904 268.57777V23.416L267.90904 23.751299 267.2403 24.086596 266.57154 24.421893 265.9028 24.75719 265.23405 25.092488 264.5653 25.427786 263.89659 25.763085 263.2278 26.098381 262.55909 26.43368 261.89033 26.768977 261.2216 27.104275 260.55287 27.439572 259.8841 27.77487 259.21537 28.110167 258.54664 28.445466 257.87788 28.780764 257.20915 29.11606 256.54039 29.451359 255.87165 29.786656 255.2029 30.121953 254.53415 30.45725 253.86542 30.792548 253.19667 31.127846 252.52793 31.463145 251.85918 31.79844 251.19045 32.13374 250.5217 32.469038 249.85295 32.804334 249.1842 33.139635 248.51548 33.47493 247.84673 33.810228 247.17798 34.145528 246.50923 34.480825 245.84049 34.81612 245.17176 35.151418 244.503 35.486719 243.83426 35.822015 243.16551 36.15731 242.49678 36.492609 241.82804 36.827909 241.15929 37.163206 240.49054 37.4985 239.8218 37.833799 239.15306 38.169099 238.48432 38.504396 237.81557 38.83969 237.14682 39.17499 236.47809 39.51029 235.80934 39.845586 235.1406 40.244749 234.47185 40.963247 233.80312 41.68174 233.13437 42.400236 232.46562 43.11873 231.79688 43.837224 231.12815 44.555719 230.4594 45.274217 229.79065 45.99271 229.1219 46.711206 228.45316 47.4297 227.78443 48.148195 227.11568 48.866689 226.44693 49.585184 225.77819 50.30368 225.10945 51.022176 224.4407 51.74067 223.77196 52.459165 223.10321 53.177659 222.43447 53.896154 221.76573 54.61465 221.09699 55.333147 220.42824 56.05164 219.75949 56.770135 219.09076 57.48863 218.42201 58.207124 217.75327 58.925619 217.08452 59.644117 216.41579 60.36261 215.74704 61.081106 215.0783 61.7996 214.40955 62.518095 213.74082 63.236589 213.07207 63.955087 212.40332 64.67358 211.73458 65.392078 211.06583 66.110569 210.3971 66.82906 209.72835 67.54756 209.0596 68.26605 208.39086 68.98455 207.72212 69.70304 207.05338 70.42154 206.38463 71.14003 205.71588 71.85853 205.04714 72.57703 204.3784 73.29552 203.70966 74.014019 203.04091 74.732509 202.37216 75.451007 201.70343 75.993869 201.03469 76.18546 200.36594 76.37707 199.69719 76.568668 199.02846 76.76026 198.35971 76.95186 197.69097 77.143459 197.02222 77.33506 196.35347 77.52666 195.68474 77.718257 195.01599 77.90985 194.34725 78.101459 193.6785 78.29305 193.00977 78.48465 192.34102 78.67625 191.67227 78.86784 191.00353 79.05945 190.3348 79.251049 189.66605 79.44264 188.9973 79.63424 188.32855 79.825839 187.65982 80.01744 186.99108 80.20904 186.32233 80.400638 185.65358 80.59223 184.98484 80.78384 184.3161 80.97543 183.64736 81.16703 182.9786 81.35863 182.30986 81.550228 181.64113 81.74183 180.97238 81.933429 180.30364 82.12502 179.63489 82.31662 178.96614 82.508228 178.29741 82.69982 177.62866 82.89142 176.95992 83.083019 176.29117 83.27461 175.62244 83.46622 174.95369 83.657817 174.28495 83.84941 173.6162 84.04101 172.94747 84.23261 172.27872 84.42421 171.60997 84.61581 170.94123 84.8074 170.27249 84.999 169.60375 85.190608 168.935 85.3822 168.26625 85.8133 167.5975 86.483898 166.92877 87.15449 166.26003 87.82508 165.59128 88.49568 164.92253 89.166278 164.2538 89.83687 163.58506 90.50746 162.9163 91.17806 162.24756 91.848659 161.57881 92.51925 160.91008 93.18984 160.24134 93.86044 159.57259 94.53104 158.90384 95.20163 158.2351 95.87223 157.56636 96.54282 156.89762 97.21342 156.22887 97.88401 155.56014 98.55461 154.89139 99.225208 154.22264 99.8958 153.5539 100.5664 152.88515 101.23699 152.21642 101.907588 151.54767 102.57818 150.87892 103.24878 150.21018 103.91937 149.54145 104.589969 148.8727 105.26056 148.20395 105.93116 147.5352 106.60175 146.86647 107.27235 146.19773 107.94294 145.52898 108.61354 144.86023 109.284137 144.19149 109.95473 143.52275 110.62532 142.854 111.29592 142.18526 111.966518 141.51651 112.63711 140.84778 113.30771 140.17903 113.9783 139.51029 114.648899 138.84154 115.31949 138.1728 115.99009 137.50406 116.66068 136.83531 117.331279 136.16657 118.00187 135.49782 118.67247 134.82909 119.21533 134.16034 119.69433 133.4916 120.173328 132.82285 120.65232 132.15412 121.13132 131.48537 121.61031 130.81662 122.08931 130.14788 122.568309 129.47914 123.0473 128.8104 123.5263 128.14165 124.005298 127.4729 124.48429 126.80416 124.96329 126.135417 125.44229 125.466678 125.92129 124.79793 126.40028 124.12919 126.87928 123.46044 127.35828 122.7917 127.83727 122.122959 128.31627 121.454219 128.79526 120.78547 129.27426 120.11673 129.75327 119.44798 130.23226 118.779239 130.71126 118.1105 131.19025 117.44175 131.66925 116.77301 132.14824 116.10426 132.62725 115.435527 133.10623 114.76678 133.58524 114.09804 134.06423 113.42929 134.54323 112.76055 135.02222 112.091808 135.50122 111.423069 135.98021 110.75432 136.45922 110.08557 136.9382 109.41683 137.4172 108.748088 137.8962 108.079349 138.3752 107.4106 138.85419 106.74186 139.33319 106.07311 139.81218 105.40437 140.29119 104.73563 140.77019 104.06689 141.24918 103.39814 141.72818 102.7294 142.20717 102.06065 142.68618 101.39191 142.84584 100.72317 142.94164 100.05442 143.03743 99.38568 143.13323 98.716938 143.22904 98.048198 143.32483 97.37945 143.42063 96.71071 143.51644 96.04196 143.61223 95.37322 143.70803 94.704479 143.80384 94.035739 143.89963 93.36699 143.99542 92.69824 144.09122 92.0295 144.18703 91.360759 144.28282 90.69202 144.37862 90.02327 144.47443 89.35453 144.57022 88.68578 144.66602 88.017047 144.76183 87.3483 144.85762 86.67956 144.95342 86.01081 145.04921 85.34207 145.14502 84.673328 145.24082 84.00458 145.33661 83.33584 145.43242 82.66709 145.52822 81.99835 145.62401 81.329608 145.71982 80.660869 145.81562 79.99212 145.9114 79.32338 146.00722 78.65463 146.10301 77.98589 146.1988 77.31715 146.2946 76.6484 146.39041 75.97966 146.4862 75.31091 146.582 74.64217 146.67781 73.97343 146.7736 73.30469 146.8694 72.63594 146.96521 71.9672 147.061 71.298458 147.1568 70.629718 147.25261 69.96097 147.3484 69.29223 147.4442 68.62348 147.54Z" fill="#1f6f6f" fill-opacity=".05"/>
<path transform="matrix(1,0,0,-1,0,180.504)" stroke-width="1" stroke-linecap="butt" stroke-linejoin="round" fill="none" stroke="#1f6f6f" stroke-opacity=".05" d="M68.62348 147.54V4.32H69.29223 69.96097 70.629718 71.298458 71.9672 72.63594 73.30469 73.97343 74.64217 75.31091 75.97966 76.6484 77.31715 77.98589 78.65463 79.32338 79.99212 80.660869 81.329608 81.99835 82.66709 83.33584 84.00458 84.673328 85.34207 86.01081 86.67956 87.3483 88.017047 88.68578 89.35453 90.02327 90.69202 91.360759 92.0295 92.69824 93.36699 94.035739 94.704479 95.37322 96.04196 96.71071 97.37945 98.048198 98.716938 99.38568 100.05442 100.72317 101.39191 102.06065 102.7294 103.39814 104.06689 104.73563 105.40437 106.07311 106.74186 107.4106 108.079349 108.748088 109.41683 110.08557 110.75432 111.423069 112.091808 112.76055 113.42929 114.09804 114.76678 115.435527 116.10426 116.77301 117.44175 118.1105 118.779239 119.44798 120.11673 120.78547 121.454219 122.122959 122.7917 123.46044 124.12919 124.79793 125.466678 126.135417 126.80416 127.4729 128.14165 128.8104 129.47914 130.14788 130.81662 131.48537 132.15412 132.82285 133.4916 134.16034 134.82909 135.49782 136.16657 136.83531 137.50406 138.1728 138.84154 139.51029 140.17903 140.84778 141.51651 142.18526 142.854 143.52275 144.19149 144.86023 145.52898 146.19773 146.86647 147.5352 148.20395 148.8727 149.54145 150.21018 150.87892 151.54767 152.21642 152.88515 153.5539 154.22264 154.89139 155.56014 156.22887 156.89762 157.56636 158.2351 158.90384 159.57259 160.24134 160.91008 161.57881 162.24756 162.9163 163.58506 164.2538 164.92253 165.59128 166.26003 166.92877 167.5975 168.26625 168.935 169.60375 170.27249 170.94123 171.60997 172.27872 172.94747 173.6162 174.28495 174.95369 175.62244 176.29117 176.95992 177.62866 178.29741 178.96614 179.63489 180.30364 180.97238 181.64113 182.30986 182.9786 183.64736 184.3161 184.98484 185.65358 186.32233 186.99108 187.65982 188.32855 188.9973 189.66605 190.3348 191.00353 191.67227 192.34102 193.00977 193.6785 194.34725 195.01599 195.68474 196.35347 197.02222 197.69097 198.35971 199.02846 199.69719 200.36594 201.03469 201.70343 202.37216 203.04091 203.70966 204.3784 205.04714 205.71588 206.38463 207.05338 207.72212 208.39086 209.0596 209.72835 210.3971 211.06583 211.73458 212.40332 213.07207 213.74082 214.40955 215.0783 215.74704 216.41579 217.08452 217.75327 218.42201 219.09076 219.75949 220.42824 221.09699 221.76573 222.43447 223.10321 223.77196 224.4407 225.10945 225.77819 226.44693 227.11568 227.78443 228.45316 229.1219 229.79065 230.4594 231.12815 231.79688 232.46562 233.13437 233.80312 234.47185 235.1406 235.80934 236.47809 237.14682 237.81557 238.48432 239.15306 239.8218 240.49054 241.15929 241.82804 242.49678 243.16551 243.83426 244.503 245.17176 245.84049 246.50923 247.17798 247.84673 248.51548 249.1842 249.85295 250.5217 251.19045 251.85918 252.52793 253.19667 253.86542 254.53415 255.2029 255.87165 256.54039 257.20915 257.87788 258.54664 259.21537 259.8841 260.55287 261.2216 261.89033 262.55909 263.2278 263.89659 264.5653 265.23405 265.9028 266.57154 267.2403 267.90904 268.57777V23.416L267.90904 23.751299 267.2403 24.086596 266.57154 24.421893 265.9028 24.75719 265.23405 25.092488 264.5653 25.427786 263.89659 25.763085 263.2278 26.098381 262.55909 26.43368 261.89033 26.768977 261.2216 27.104275 260.55287 27.439572 259.8841 27.77487 259.21537 28.110167 258.54664 28.445466 257.87788 28.780764 257.20915 29.11606 256.54039 29.451359 255.87165 29.786656 255.2029 30.121953 254.53415 30.45725 253.86542 30.792548 253.19667 31.127846 252.52793 31.463145 251.85918 31.79844 251.19045 32.13374 250.5217 32.469038 249.85295 32.804334 249.1842 33.139635 248.51548 33.47493 247.84673 33.810228 247.17798 34.145528 246.50923 34.480825 245.84049 34.81612 245.17176 35.151418 244.503 35.486719 243.83426 35.822015 243.16551 36.15731 242.49678 36.492609 241.82804 36.827909 241.15929 37.163206 240.49054 37.4985 239.8218 37.833799 239.15306 38.169099 238.48432 38.504396 237.81557 38.83969 237.14682 39.17499 236.47809 39.51029 235.80934 39.845586 235.1406 40.244749 234.47185 40.963247 233.80312 41.68174 233.13437 42.400236 232.46562 43.11873 231.79688 43.837224 231.12815 44.555719 230.4594 45.274217 229.79065 45.99271 229.1219 46.711206 228.45316 47.4297 227.78443 48.148195 227.11568 48.866689 226.44693 49.585184 225.77819 50.30368 225.10945 51.022176 224.4407 51.74067 223.77196 52.459165 223.10321 53.177659 222.43447 53.896154 221.76573 54.61465 221.09699 55.333147 220.42824 56.05164 219.75949 56.770135 219.09076 57.48863 218.42201 58.207124 217.75327 58.925619 217.08452 59.644117 216.41579 60.36261 215.74704 61.081106 215.0783 61.7996 214.40955 62.518095 213.74082 63.236589 213.07207 63.955087 212.40332 64.67358 211.73458 65.392078 211.06583 66.110569 210.3971 66.82906 209.72835 67.54756 209.0596 68.26605 208.39086 68.98455 207.72212 69.70304 207.05338 70.42154 206.38463 71.14003 205.71588 71.85853 205.04714 72.57703 204.3784 73.29552 203.70966 74.014019 203.04091 74.732509 202.37216 75.451007 201.70343 75.993869 201.03469 76.18546 200.36594 76.37707 199.69719 76.568668 199.02846 76.76026 198.35971 76.95186 197.69097 77.143459 197.02222 77.33506 196.35347 77.52666 195.68474 77.718257 195.01599 77.90985 194.34725 78.101459 193.6785 78.29305 193.00977 78.48465 192.34102 78.67625 191.67227 78.86784 191.00353 79.05945 190.3348 79.251049 189.66605 79.44264 188.9973 79.63424 188.32855 79.825839 187.65982 80.01744 186.99108 80.20904 186.32233 80.400638 185.65358 80.59223 184.98484 80.78384 184.3161 80.97543 183.64736 81.16703 182.9786 81.35863 182.30986 81.550228 181.64113 81.74183 180.97238 81.933429 180.30364 82.12502 179.63489 82.31662 178.96614 82.508228 178.29741 82.69982 177.62866 82.89142 176.95992 83.083019 176.29117 83.27461 175.62244 83.46622 174.95369 83.657817 174.28495 83.84941 173.6162 84.04101 172.94747 84.23261 172.27872 84.42421 171.60997 84.61581 170.94123 84.8074 170.27249 84.999 169.60375 85.190608 168.935 85.3822 168.26625 85.8133 167.5975 86.483898 166.92877 87.15449 166.26003 87.82508 165.59128 88.49568 164.92253 89.166278 164.2538 89.83687 163.58506 90.50746 162.9163 91.17806 162.24756 91.848659 161.57881 92.51925 160.91008 93.18984 160.24134 93.86044 159.57259 94.53104 158.90384 95.20163 158.2351 95.87223 157.56636 96.54282 156.89762 97.21342 156.22887 97.88401 155.56014 98.55461 154.89139 99.225208 154.22264 99.8958 153.5539 100.5664 152.88515 101.23699 152.21642 101.907588 151.54767 102.57818 150.87892 103.24878 150.21018 103.91937 149.54145 104.589969 148.8727 105.26056 148.20395 105.93116 147.5352 106.60175 146.86647 107.27235 146.19773 107.94294 145.52898 108.61354 144.86023 109.284137 144.19149 109.95473 143.52275 110.62532 142.854 111.29592 142.18526 111.966518 141.51651 112.63711 140.84778 113.30771 140.17903 113.9783 139.51029 114.648899 138.84154 115.31949 138.1728 115.99009 137.50406 116.66068 136.83531 117.331279 136.16657 118.00187 135.49782 118.67247 134.82909 119.21533 134.16034 119.69433 133.4916 120.173328 132.82285 120.65232 132.15412 121.13132 131.48537 121.61031 130.81662 122.08931 130.14788 122.568309 129.47914 123.0473 128.8104 123.5263 128.14165 124.005298 127.4729 124.48429 126.80416 124.96329 126.135417 125.44229 125.466678 125.92129 124.79793 126.40028 124.12919 126.87928 123.46044 127.35828 122.7917 127.83727 122.122959 128.31627 121.454219 128.79526 120.78547 129.27426 120.11673 129.75327 119.44798 130.23226 118.779239 130.71126 118.1105 131.19025 117.44175 131.66925 116.77301 132.14824 116.10426 132.62725 115.435527 133.10623 114.76678 133.58524 114.09804 134.06423 113.42929 134.54323 112.76055 135.02222 112.091808 135.50122 111.423069 135.98021 110.75432 136.45922 110.08557 136.9382 109.41683 137.4172 108.748088 137.8962 108.079349 138.3752 107.4106 138.85419 106.74186 139.33319 106.07311 139.81218 105.40437 140.29119 104.73563 140.77019 104.06689 141.24918 103.39814 141.72818 102.7294 142.20717 102.06065 142.68618 101.39191 142.84584 100.72317 142.94164 100.05442 143.03743 99.38568 143.13323 98.716938 143.22904 98.048198 143.32483 97.37945 143.42063 96.71071 143.51644 96.04196 143.61223 95.37322 143.70803 94.704479 143.80384 94.035739 143.89963 93.36699 143.99542 92.69824 144.09122 92.0295 144.18703 91.360759 144.28282 90.69202 144.37862 90.02327 144.47443 89.35453 144.57022 88.68578 144.66602 88.017047 144.76183 87.3483 144.85762 86.67956 144.95342 86.01081 145.04921 85.34207 145.14502 84.673328 145.24082 84.00458 145.33661 83.33584 145.43242 82.66709 145.52822 81.99835 145.62401 81.329608 145.71982 80.660869 145.81562 79.99212 145.9114 79.32338 146.00722 78.65463 146.10301 77.98589 146.1988 77.31715 146.2946 76.6484 146.39041 75.97966 146.4862 75.31091 146.582 74.64217 146.67781 73.97343 146.7736 73.30469 146.8694 72.63594 146.96521 71.9672 147.061 71.298458 147.1568 70.629718 147.25261 69.96097 147.3484 69.29223 147.4442 68.62348 147.54Z"/>
</g>
</g>
<g clip-path="url(#clip_10)">
<path transform="matrix(1,0,0,-1,0,180.504)" stroke-width="1.6" stroke-linecap="butt" stroke-dasharray="8,4" stroke-linejoin="round" fill="none" stroke="#9ca3af" d="M68.62348 147.54 102.06065 142.68618 135.49782 118.67247 168.26625 85.8133 168.935 85.3822 201.70343 75.993869 202.37216 75.451007 235.1406 40.244749 237.14682 39.17499 268.57777 23.416"/>
</g>
<path transform="matrix(1,0,0,-1,0,180.504)" stroke-width=".7" stroke-linecap="square" stroke-miterlimit="10" stroke-linejoin="miter" fill="none" stroke="#9ca3af" d="M51.960626 4.32V176.184"/>
<use data-text="L" xlink:href="#font_11_5" transform="matrix(7.5,0,0,-7.5,210.1893,27.22963)" fill="#9ca3af"/>
<use data-text="L" xlink:href="#font_11_5" transform="matrix(7.5,0,0,-7.5,214.9668,27.22963)" fill="#9ca3af"/>
<use data-text="M" xlink:href="#font_11_6" transform="matrix(7.5,0,0,-7.5,219.7443,27.22963)" fill="#9ca3af"/>
<use data-text="-" xlink:href="#font_11_4" transform="matrix(7.5,0,0,-7.5,227.2068,27.22963)" fill="#9ca3af"/>
<use data-text="j" xlink:href="#font_11_15" transform="matrix(7.5,0,0,-7.5,230.3193,27.22963)" fill="#9ca3af"/>
<use data-text="u" xlink:href="#font_11_21" transform="matrix(7.5,0,0,-7.5,232.8918,27.22963)" fill="#9ca3af"/>
<use data-text="d" xlink:href="#font_11_10" transform="matrix(7.5,0,0,-7.5,238.2318,27.22963)" fill="#9ca3af"/>
<use data-text="g" xlink:href="#font_11_13" transform="matrix(7.5,0,0,-7.5,243.6018,27.22963)" fill="#9ca3af"/>
<use data-text="e" xlink:href="#font_11_11" transform="matrix(7.5,0,0,-7.5,248.9718,27.22963)" fill="#9ca3af"/>
<use data-text=" " xlink:href="#font_11_3" transform="matrix(7.5,0,0,-7.5,254.0568,27.22963)" fill="#9ca3af"/>
<use data-text="p" xlink:href="#font_11_17" transform="matrix(7.5,0,0,-7.5,256.6668,27.22963)" fill="#9ca3af"/>
<use data-text="a" xlink:href="#font_11_7" transform="matrix(7.5,0,0,-7.5,262.0368,27.22963)" fill="#9ca3af"/>
<use data-text="r" xlink:href="#font_11_18" transform="matrix(7.5,0,0,-7.5,267.0993,27.22963)" fill="#9ca3af"/>
<use data-text="i" xlink:href="#font_11_14" transform="matrix(7.5,0,0,-7.5,270.7968,27.22963)" fill="#9ca3af"/>
<use data-text="t" xlink:href="#font_11_20" transform="matrix(7.5,0,0,-7.5,273.3693,27.22963)" fill="#9ca3af"/>
<use data-text="y" xlink:href="#font_11_23" transform="matrix(7.5,0,0,-7.5,276.95429,27.22963)" fill="#9ca3af"/>
<path transform="matrix(1,0,0,-1,0,180.504)" stroke-width="1.2" stroke-linecap="round" stroke-linejoin="round" fill="none" stroke="#9ca3af" d="M157.27306 12.6745C195.93032 12.6745 234.14035 12.6745 271.9032 12.6745"/>
<path transform="matrix(1,0,0,-1,0,180.504)" d="M267.50318 14.8745 271.9032 12.6745 267.50318 10.4745Z" fill="#9ca3af"/>
<path transform="matrix(1,0,0,-1,0,180.504)" stroke-width="1.2" stroke-linecap="round" stroke-linejoin="round" fill="none" stroke="#9ca3af" d="M267.50318 14.8745 271.9032 12.6745 267.50318 10.4745Z"/>
<use data-text="v" xlink:href="#font_11_22" transform="matrix(7.5,0,0,-7.5,165.75662,160.13362)" fill="#9ca3af"/>
<use data-text="e" xlink:href="#font_11_11" transform="matrix(7.5,0,0,-7.5,170.64554,160.13362)" fill="#9ca3af"/>
<use data-text="r" xlink:href="#font_11_18" transform="matrix(7.5,0,0,-7.5,175.73221,160.13362)" fill="#9ca3af"/>
<use data-text="i" xlink:href="#font_11_14" transform="matrix(7.5,0,0,-7.5,179.43094,160.13362)" fill="#9ca3af"/>
<use data-text="f" xlink:href="#font_11_12" transform="matrix(7.5,0,0,-7.5,182.00174,160.13362)" fill="#9ca3af"/>
<use data-text="i" xlink:href="#font_11_14" transform="matrix(7.5,0,0,-7.5,185.26468,160.13362)" fill="#9ca3af"/>
<use data-text="a" xlink:href="#font_11_7" transform="matrix(7.5,0,0,-7.5,187.83548,160.13362)" fill="#9ca3af"/>
<use data-text="b" xlink:href="#font_11_8" transform="matrix(7.5,0,0,-7.5,192.89652,160.13362)" fill="#9ca3af"/>
<use data-text="l" xlink:href="#font_11_16" transform="matrix(7.5,0,0,-7.5,198.26517,160.13362)" fill="#9ca3af"/>
<use data-text="e" xlink:href="#font_11_11" transform="matrix(7.5,0,0,-7.5,200.83597,160.13362)" fill="#9ca3af"/>
<use data-text=" " xlink:href="#font_11_3" transform="matrix(7.5,0,0,-7.5,205.92264,160.13362)" fill="#9ca3af"/>
<use data-text="&#x2192;" xlink:href="#font_5_36" transform="matrix(7.5,0,0,-7.5,210.09671,160.13362)" fill="#9ca3af"/>
<use data-text=" " xlink:href="#font_11_3" transform="matrix(7.5,0,0,-7.5,217.94388,160.13362)" fill="#9ca3af"/>
<use data-text="s" xlink:href="#font_11_19" transform="matrix(7.5,0,0,-7.5,220.55496,160.13362)" fill="#9ca3af"/>
<use data-text="u" xlink:href="#font_11_21" transform="matrix(7.5,0,0,-7.5,225.01908,160.13362)" fill="#9ca3af"/>
<use data-text="b" xlink:href="#font_11_8" transform="matrix(7.5,0,0,-7.5,230.35843,160.13362)" fill="#9ca3af"/>
<use data-text="j" xlink:href="#font_11_15" transform="matrix(7.5,0,0,-7.5,235.72708,160.13362)" fill="#9ca3af"/>
<use data-text="e" xlink:href="#font_11_11" transform="matrix(7.5,0,0,-7.5,238.29788,160.13362)" fill="#9ca3af"/>
<use data-text="c" xlink:href="#font_11_9" transform="matrix(7.5,0,0,-7.5,243.38455,160.13362)" fill="#9ca3af"/>
<use data-text="t" xlink:href="#font_11_20" transform="matrix(7.5,0,0,-7.5,247.83036,160.13362)" fill="#9ca3af"/>
<use data-text="i" xlink:href="#font_11_14" transform="matrix(7.5,0,0,-7.5,251.41556,160.13362)" fill="#9ca3af"/>
<use data-text="v" xlink:href="#font_11_22" transform="matrix(7.5,0,0,-7.5,253.98636,160.13362)" fill="#9ca3af"/>
<use data-text="e" xlink:href="#font_11_11" transform="matrix(7.5,0,0,-7.5,258.87528,160.13362)" fill="#9ca3af"/>
<path transform="matrix(1,0,0,-1,0,180.504)" d="M68.62348 142.29596C70.01422 142.29596 71.34818 142.8485 72.33158 143.8319 73.31498 144.8153 73.86752 146.14926 73.86752 147.54 73.86752 148.93074 73.31498 150.2647 72.33158 151.2481 71.34818 152.2315 70.01422 152.78404 68.62348 152.78404 67.23274 152.78404 65.89878 152.2315 64.91538 151.2481 63.931985 150.2647 63.379438 148.93074 63.379438 147.54 63.379438 146.14926 63.931985 144.8153 64.91538 143.8319 65.89878 142.8485 67.23274 142.29596 68.62348 142.29596Z" fill="#1f6f6f"/>
<path transform="matrix(1,0,0,-1,0,180.504)" stroke-width="1.3" stroke-linecap="butt" stroke-linejoin="round" fill="none" stroke="#ffffff" d="M68.62348 142.29596C70.01422 142.29596 71.34818 142.8485 72.33158 143.8319 73.31498 144.8153 73.86752 146.14926 73.86752 147.54 73.86752 148.93074 73.31498 150.2647 72.33158 151.2481 71.34818 152.2315 70.01422 152.78404 68.62348 152.78404 67.23274 152.78404 65.89878 152.2315 64.91538 151.2481 63.931985 150.2647 63.379438 148.93074 63.379438 147.54 63.379438 146.14926 63.931985 144.8153 64.91538 143.8319 65.89878 142.8485 67.23274 142.29596 68.62348 142.29596Z"/>
<path transform="matrix(1,0,0,-1,0,180.504)" d="M101.949199 137.52196C103.339939 137.52196 104.6739 138.0745 105.657299 139.0579 106.64069 140.0413 107.19324 141.37526 107.19324 142.766 107.19324 144.15674 106.64069 145.4907 105.657299 146.4741 104.6739 147.4575 103.339939 148.01004 101.949199 148.01004 100.55846 148.01004 99.224498 147.4575 98.2411 146.4741 97.2577 145.4907 96.705158 144.15674 96.705158 142.766 96.705158 141.37526 97.2577 140.0413 98.2411 139.0579 99.224498 138.0745 100.55846 137.52196 101.949199 137.52196Z" fill="#1f6f6f"/>
<path transform="matrix(1,0,0,-1,0,180.504)" stroke-width="1.3" stroke-linecap="butt" stroke-linejoin="round" fill="none" stroke="#ffffff" d="M101.949199 137.52196C103.339939 137.52196 104.6739 138.0745 105.657299 139.0579 106.64069 140.0413 107.19324 141.37526 107.19324 142.766 107.19324 144.15674 106.64069 145.4907 105.657299 146.4741 104.6739 147.4575 103.339939 148.01004 101.949199 148.01004 100.55846 148.01004 99.224498 147.4575 98.2411 146.4741 97.2577 145.4907 96.705158 144.15674 96.705158 142.766 96.705158 141.37526 97.2577 140.0413 98.2411 139.0579 99.224498 138.0745 100.55846 137.52196 101.949199 137.52196Z"/>
<path transform="matrix(1,0,0,-1,0,180.504)" d="M135.27492 113.651958C136.66565 113.651958 137.99962 114.2045 138.98302 115.187908 139.96642 116.1713 140.51895 117.505268 140.51895 118.896 140.51895 120.286739 139.96642 121.6207 138.98302 122.604099 137.99962 123.5875 136.66565 124.140048 135.27492 124.140048 133.88417 124.140048 132.55022 123.5875 131.56682 122.604099 130.5834 121.6207 130.03087 120.286739 130.03087 118.896 130.03087 117.505268 130.5834 116.1713 131.56682 115.187908 132.55022 114.2045 133.88417 113.651958 135.27492 113.651958Z" fill="#3b6ea5"/>
<path transform="matrix(1,0,0,-1,0,180.504)" stroke-width="1.3" stroke-linecap="butt" stroke-linejoin="round" fill="none" stroke="#ffffff" d="M135.27492 113.651958C136.66565 113.651958 137.99962 114.2045 138.98302 115.187908 139.96642 116.1713 140.51895 117.505268 140.51895 118.896 140.51895 120.286739 139.96642 121.6207 138.98302 122.604099 137.99962 123.5875 136.66565 124.140048 135.27492 124.140048 133.88417 124.140048 132.55022 123.5875 131.56682 122.604099 130.5834 121.6207 130.03087 120.286739 130.03087 118.896 130.03087 117.505268 130.5834 116.1713 131.56682 115.187908 132.55022 114.2045 133.88417 113.651958 135.27492 113.651958Z"/>
<path transform="matrix(1,0,0,-1,0,180.504)" d="M168.60063 80.233959C169.99137 80.233959 171.32532 80.7865 172.30873 81.7699 173.29213 82.7533 173.84467 84.087268 173.84467 85.478 173.84467 86.86874 173.29213 88.2027 172.30873 89.1861 171.32532 90.1695 169.99137 90.722049 168.60063 90.722049 167.20989 90.722049 165.87593 90.1695 164.89253 89.1861 163.90912 88.2027 163.35659 86.86874 163.35659 85.478 163.35659 84.087268 163.90912 82.7533 164.89253 81.7699 165.87593 80.7865 167.20989 80.233959 168.60063 80.233959Z" fill="#d4a017"/>
<path transform="matrix(1,0,0,-1,0,180.504)" stroke-width="1.3" stroke-linecap="butt" stroke-linejoin="round" fill="none" stroke="#ffffff" d="M168.60063 80.233959C169.99137 80.233959 171.32532 80.7865 172.30873 81.7699 173.29213 82.7533 173.84467 84.087268 173.84467 85.478 173.84467 86.86874 173.29213 88.2027 172.30873 89.1861 171.32532 90.1695 169.99137 90.722049 168.60063 90.722049 167.20989 90.722049 165.87593 90.1695 164.89253 89.1861 163.90912 88.2027 163.35659 86.86874 163.35659 85.478 163.35659 84.087268 163.90912 82.7533 164.89253 81.7699 165.87593 80.7865 167.20989 80.233959 168.60063 80.233959Z"/>
<path transform="matrix(1,0,0,-1,0,180.504)" d="M201.92635 70.68596C203.31708 70.68596 204.65103 71.2385 205.63445 72.2219 206.61785 73.2053 207.17038 74.53926 207.17038 75.93 207.17038 77.32074 206.61785 78.6547 205.63445 79.6381 204.65103 80.6215 203.31708 81.17404 201.92635 81.17404 200.5356 81.17404 199.20165 80.6215 198.21825 79.6381 197.23485 78.6547 196.6823 77.32074 196.6823 75.93 196.6823 74.53926 197.23485 73.2053 198.21825 72.2219 199.20165 71.2385 200.5356 70.68596 201.92635 70.68596Z" fill="#d4a017"/>
<path transform="matrix(1,0,0,-1,0,180.504)" stroke-width="1.3" stroke-linecap="butt" stroke-linejoin="round" fill="none" stroke="#ffffff" d="M201.92635 70.68596C203.31708 70.68596 204.65103 71.2385 205.63445 72.2219 206.61785 73.2053 207.17038 74.53926 207.17038 75.93 207.17038 77.32074 206.61785 78.6547 205.63445 79.6381 204.65103 80.6215 203.31708 81.17404 201.92635 81.17404 200.5356 81.17404 199.20165 80.6215 198.21825 79.6381 197.23485 78.6547 196.6823 77.32074 196.6823 75.93 196.6823 74.53926 197.23485 73.2053 198.21825 72.2219 199.20165 71.2385 200.5356 70.68596 201.92635 70.68596Z"/>
<path transform="matrix(1,0,0,-1,0,180.504)" d="M235.25206 34.880956C236.64279 34.880956 237.97675 35.433504 238.96016 36.4169 239.94356 37.4003 240.4961 38.734266 240.4961 40.125 240.4961 41.515737 239.94356 42.8497 238.96016 43.8331 237.97675 44.816499 236.64279 45.369047 235.25206 45.369047 233.86132 45.369047 232.52736 44.816499 231.54396 43.8331 230.56056 42.8497 230.00801 41.515737 230.00801 40.125 230.00801 38.734266 230.56056 37.4003 231.54396 36.4169 232.52736 35.433504 233.86132 34.880956 235.25206 34.880956Z" fill="#c75146"/>
<path transform="matrix(1,0,0,-1,0,180.504)" stroke-width="1.3" stroke-linecap="butt" stroke-linejoin="round" fill="none" stroke="#ffffff" d="M235.25206 34.880956C236.64279 34.880956 237.97675 35.433504 238.96016 36.4169 239.94356 37.4003 240.4961 38.734266 240.4961 40.125 240.4961 41.515737 239.94356 42.8497 238.96016 43.8331 237.97675 44.816499 236.64279 45.369047 235.25206 45.369047 233.86132 45.369047 232.52736 44.816499 231.54396 43.8331 230.56056 42.8497 230.00801 41.515737 230.00801 40.125 230.00801 38.734266 230.56056 37.4003 231.54396 36.4169 232.52736 35.433504 233.86132 34.880956 235.25206 34.880956Z"/>
<path transform="matrix(1,0,0,-1,0,180.504)" d="M268.57777 18.171956C269.9685 18.171956 271.30247 18.7245 272.28587 19.707901 273.26927 20.6913 273.8218 22.025263 273.8218 23.416 273.8218 24.806738 273.26927 26.1407 272.28587 27.1241 271.30247 28.107499 269.9685 28.660044 268.57777 28.660044 267.18705 28.660044 265.85307 28.107499 264.86967 27.1241 263.88627 26.1407 263.3337 24.806738 263.3337 23.416 263.3337 22.025263 263.88627 20.6913 264.86967 19.707901 265.85307 18.7245 267.18705 18.171956 268.57777 18.171956Z" fill="#c75146"/>
<path transform="matrix(1,0,0,-1,0,180.504)" stroke-width="1.3" stroke-linecap="butt" stroke-linejoin="round" fill="none" stroke="#ffffff" d="M268.57777 18.171956C269.9685 18.171956 271.30247 18.7245 272.28587 19.707901 273.26927 20.6913 273.8218 22.025263 273.8218 23.416 273.8218 24.806738 273.26927 26.1407 272.28587 27.1241 271.30247 28.107499 269.9685 28.660044 268.57777 28.660044 267.18705 28.660044 265.85307 28.107499 264.86967 27.1241 263.88627 26.1407 263.3337 24.806738 263.3337 23.416 263.3337 22.025263 263.88627 20.6913 264.86967 19.707901 265.85307 18.7245 267.18705 18.171956 268.57777 18.171956Z"/>
<use data-text="M" xlink:href="#font_5_13" transform="matrix(8,0,0,-8,57.170358,24.16713)" fill="#1f6f6f"/>
<use data-text="a" xlink:href="#font_5_17" transform="matrix(8,0,0,-8,65.130359,24.16713)" fill="#1f6f6f"/>
<use data-text="t" xlink:href="#font_5_32" transform="matrix(8,0,0,-8,70.53036,24.16713)" fill="#1f6f6f"/>
<use data-text="h" xlink:href="#font_5_24" transform="matrix(8,0,0,-8,74.354358,24.16713)" fill="#1f6f6f"/>
<use data-text="C" xlink:href="#font_5_10" transform="matrix(8,0,0,-8,90.68357,54.941125)" fill="#1f6f6f"/>
<use data-text="o" xlink:href="#font_5_29" transform="matrix(8,0,0,-8,96.55557,54.941125)" fill="#1f6f6f"/>
<use data-text="d" xlink:href="#font_5_20" transform="matrix(8,0,0,-8,102.051578,54.941125)" fill="#1f6f6f"/>
<use data-text="e" xlink:href="#font_5_21" transform="matrix(8,0,0,-8,107.77957,54.941125)" fill="#1f6f6f"/>
<use data-text="F" xlink:href="#font_5_11" transform="matrix(8,0,0,-8,120.86866,48.240037)" fill="#3b6ea5"/>
<use data-text="a" xlink:href="#font_5_17" transform="matrix(8,0,0,-8,125.86391,48.240037)" fill="#3b6ea5"/>
<use data-text="c" xlink:href="#font_5_19" transform="matrix(8,0,0,-8,131.26392,48.240037)" fill="#3b6ea5"/>
<use data-text="t" xlink:href="#font_5_32" transform="matrix(8,0,0,-8,136.0079,48.240037)" fill="#3b6ea5"/>
<use data-text="u" xlink:href="#font_5_33" transform="matrix(8,0,0,-8,139.83191,48.240037)" fill="#3b6ea5"/>
<use data-text="a" xlink:href="#font_5_17" transform="matrix(8,0,0,-8,145.52791,48.240037)" fill="#3b6ea5"/>
<use data-text="l" xlink:href="#font_5_27" transform="matrix(8,0,0,-8,150.92792,48.240037)" fill="#3b6ea5"/>
<use data-text="Q" xlink:href="#font_5_15" transform="matrix(8,0,0,-8,130.78273,55.382219)" fill="#3b6ea5"/>
<use data-text="A" xlink:href="#font_5_9" transform="matrix(8,0,0,-8,137.58274,55.382219)" fill="#3b6ea5"/>
<use data-text="S" xlink:href="#font_5_16" transform="matrix(8,0,0,-8,130.47563,99.197879)" fill="#d4a017"/>
<use data-text="a" xlink:href="#font_5_17" transform="matrix(8,0,0,-8,136.23563,99.197879)" fill="#d4a017"/>
<use data-text="f" xlink:href="#font_5_22" transform="matrix(8,0,0,-8,141.63564,99.197879)" fill="#d4a017"/>
<use data-text="e" xlink:href="#font_5_21" transform="matrix(8,0,0,-8,145.11563,99.197879)" fill="#d4a017"/>
<use data-text="t" xlink:href="#font_5_32" transform="matrix(8,0,0,-8,150.53963,99.197879)" fill="#d4a017"/>
<use data-text="y" xlink:href="#font_5_35" transform="matrix(8,0,0,-8,154.36363,99.197879)" fill="#d4a017"/>
<use data-text="M" xlink:href="#font_5_13" transform="matrix(8,0,0,-8,183.43416,121.74587)" fill="#d4a017"/>
<use data-text="u" xlink:href="#font_5_33" transform="matrix(8,0,0,-8,191.39417,121.74587)" fill="#d4a017"/>
<use data-text="l" xlink:href="#font_5_27" transform="matrix(8,0,0,-8,197.09017,121.74587)" fill="#d4a017"/>
<use data-text="t" xlink:href="#font_5_32" transform="matrix(8,0,0,-8,199.83415,121.74587)" fill="#d4a017"/>
<use data-text="i" xlink:href="#font_5_25" transform="matrix(8,0,0,-8,203.65816,121.74587)" fill="#d4a017"/>
<use data-text="l" xlink:href="#font_5_27" transform="matrix(8,0,0,-8,206.40216,121.74587)" fill="#d4a017"/>
<use data-text="i" xlink:href="#font_5_25" transform="matrix(8,0,0,-8,209.14615,121.74587)" fill="#d4a017"/>
<use data-text="n" xlink:href="#font_5_28" transform="matrix(8,0,0,-8,211.89015,121.74587)" fill="#d4a017"/>
<use data-text="g" xlink:href="#font_5_23" transform="matrix(8,0,0,-8,217.58615,121.74587)" fill="#d4a017"/>
<use data-text="." xlink:href="#font_5_4" transform="matrix(8,0,0,-8,223.31415,121.74587)" fill="#d4a017"/>
<use data-text="C" xlink:href="#font_5_10" transform="matrix(8,0,0,-8,243.25206,138.58213)" fill="#c75146"/>
<use data-text="r" xlink:href="#font_5_30" transform="matrix(8,0,0,-8,249.12406,138.58213)" fill="#c75146"/>
<use data-text="e" xlink:href="#font_5_21" transform="matrix(8,0,0,-8,253.06806,138.58213)" fill="#c75146"/>
<use data-text="a" xlink:href="#font_5_17" transform="matrix(8,0,0,-8,258.49208,138.58213)" fill="#c75146"/>
<use data-text="t" xlink:href="#font_5_32" transform="matrix(8,0,0,-8,263.89207,138.58213)" fill="#c75146"/>
<use data-text="i" xlink:href="#font_5_25" transform="matrix(8,0,0,-8,267.71607,138.58213)" fill="#c75146"/>
<use data-text="v" xlink:href="#font_5_34" transform="matrix(8,0,0,-8,270.46006,138.58213)" fill="#c75146"/>
<use data-text="e" xlink:href="#font_5_21" transform="matrix(8,0,0,-8,275.67607,138.58213)" fill="#c75146"/>
<use data-text="M" xlink:href="#font_5_13" transform="matrix(8,0,0,-8,275.57777,168.29113)" fill="#c75146"/>
<use data-text="e" xlink:href="#font_5_21" transform="matrix(8,0,0,-8,283.53776,168.29113)" fill="#c75146"/>
<use data-text="d" xlink:href="#font_5_20" transform="matrix(8,0,0,-8,288.96177,168.29113)" fill="#c75146"/>
<use data-text="i" xlink:href="#font_5_25" transform="matrix(8,0,0,-8,294.68977,168.29113)" fill="#c75146"/>
<use data-text="c" xlink:href="#font_5_19" transform="matrix(8,0,0,-8,297.43376,168.29113)" fill="#c75146"/>
<use data-text="a" xlink:href="#font_5_17" transform="matrix(8,0,0,-8,302.17778,168.29113)" fill="#c75146"/>
<use data-text="l" xlink:href="#font_5_27" transform="matrix(8,0,0,-8,307.57777,168.29113)" fill="#c75146"/>
<path transform="matrix(1,0,0,-1,0,180.504)" stroke-width="1.5" stroke-linecap="square" stroke-linejoin="round" fill="none" stroke="#ffffff" d="M55.252828 20.117096H61.252828 67.25282"/>
<path transform="matrix(1,0,0,-1,0,180.504)" d="M61.252828 16.117096C62.313638 16.117096 63.331144 16.53856 64.08125 17.288668 64.83136 18.038777 65.25282 19.056284 65.25282 20.117096 65.25282 21.177908 64.83136 22.195414 64.08125 22.945523 63.331144 23.69563 62.313638 24.117096 61.252828 24.117096 60.192014 24.117096 59.174509 23.69563 58.424398 22.945523 57.67429 22.195414 57.252828 21.177908 57.252828 20.117096 57.252828 19.056284 57.67429 18.038777 58.424398 17.288668 59.174509 16.53856 60.192014 16.117096 61.252828 16.117096Z" fill="#1f6f6f"/>
<path transform="matrix(1,0,0,-1,0,180.504)" stroke-width="1" stroke-linecap="butt" stroke-linejoin="round" fill="none" stroke="#ffffff" d="M61.252828 16.117096C62.313638 16.117096 63.331144 16.53856 64.08125 17.288668 64.83136 18.038777 65.25282 19.056284 65.25282 20.117096 65.25282 21.177908 64.83136 22.195414 64.08125 22.945523 63.331144 23.69563 62.313638 24.117096 61.252828 24.117096 60.192014 24.117096 59.174509 23.69563 58.424398 22.945523 57.67429 22.195414 57.252828 21.177908 57.252828 20.117096 57.252828 19.056284 57.67429 18.038777 58.424398 17.288668 59.174509 16.53856 60.192014 16.117096 61.252828 16.117096Z"/>
<use data-text="F" xlink:href="#font_5_11" transform="matrix(7.5,0,0,-7.5,68.75282,163.0119)" fill="#1f2937"/>
<use data-text="u" xlink:href="#font_5_33" transform="matrix(7.5,0,0,-7.5,73.515949,163.0119)" fill="#1f2937"/>
<use data-text="l" xlink:href="#font_5_27" transform="matrix(7.5,0,0,-7.5,78.85595,163.0119)" fill="#1f2937"/>
<use data-text="l" xlink:href="#font_5_27" transform="matrix(7.5,0,0,-7.5,81.42845,163.0119)" fill="#1f2937"/>
<path transform="matrix(1,0,0,-1,0,180.504)" stroke-width="1.5" stroke-linecap="square" stroke-linejoin="round" fill="none" stroke="#ffffff" d="M55.252828 10.867095H61.252828 67.25282"/>
<path transform="matrix(1,0,0,-1,0,180.504)" d="M61.252828 6.867095C62.313638 6.867095 63.331144 7.28856 64.08125 8.038668 64.83136 8.788776 65.25282 9.806283 65.25282 10.867095 65.25282 11.927907 64.83136 12.945414 64.08125 13.695522 63.331144 14.44563 62.313638 14.867095 61.252828 14.867095 60.192014 14.867095 59.174509 14.44563 58.424398 13.695522 57.67429 12.945414 57.252828 11.927907 57.252828 10.867095 57.252828 9.806283 57.67429 8.788776 58.424398 8.038668 59.174509 7.28856 60.192014 6.867095 61.252828 6.867095Z" fill="#3b6ea5"/>
<path transform="matrix(1,0,0,-1,0,180.504)" stroke-width="1" stroke-linecap="butt" stroke-linejoin="round" fill="none" stroke="#ffffff" d="M61.252828 6.867095C62.313638 6.867095 63.331144 7.28856 64.08125 8.038668 64.83136 8.788776 65.25282 9.806283 65.25282 10.867095 65.25282 11.927907 64.83136 12.945414 64.08125 13.695522 63.331144 14.44563 62.313638 14.867095 61.252828 14.867095 60.192014 14.867095 59.174509 14.44563 58.424398 13.695522 57.67429 12.945414 57.252828 11.927907 57.252828 10.867095 57.252828 9.806283 57.67429 8.788776 58.424398 8.038668 59.174509 7.28856 60.192014 6.867095 61.252828 6.867095Z"/>
<use data-text="M" xlink:href="#font_5_13" transform="matrix(7.5,0,0,-7.5,68.75282,172.2619)" fill="#1f2937"/>
<use data-text="o" xlink:href="#font_5_29" transform="matrix(7.5,0,0,-7.5,76.215328,172.2619)" fill="#1f2937"/>
<use data-text="s" xlink:href="#font_5_31" transform="matrix(7.5,0,0,-7.5,81.36782,172.2619)" fill="#1f2937"/>
<use data-text="t" xlink:href="#font_5_32" transform="matrix(7.5,0,0,-7.5,85.83032,172.2619)" fill="#1f2937"/>
<use data-text="l" xlink:href="#font_5_27" transform="matrix(7.5,0,0,-7.5,89.41533,172.2619)" fill="#1f2937"/>
<use data-text="y" xlink:href="#font_5_35" transform="matrix(7.5,0,0,-7.5,91.98782,172.2619)" fill="#1f2937"/>
<path transform="matrix(1,0,0,-1,0,180.504)" stroke-width="1.5" stroke-linecap="square" stroke-linejoin="round" fill="none" stroke="#ffffff" d="M102.15907 20.117096H108.15907 114.15907"/>
<path transform="matrix(1,0,0,-1,0,180.504)" d="M108.15907 16.117096C109.21989 16.117096 110.2374 16.53856 110.9875 17.288668 111.73761 18.038777 112.15907 19.056284 112.15907 20.117096 112.15907 21.177908 111.73761 22.195414 110.9875 22.945523 110.2374 23.69563 109.21989 24.117096 108.15907 24.117096 107.09827 24.117096 106.08076 23.69563 105.33065 22.945523 104.58054 22.195414 104.15907 21.177908 104.15907 20.117096 104.15907 19.056284 104.58054 18.038777 105.33065 17.288668 106.08076 16.53856 107.09827 16.117096 108.15907 16.117096Z" fill="#d4a017"/>
<path transform="matrix(1,0,0,-1,0,180.504)" stroke-width="1" stroke-linecap="butt" stroke-linejoin="round" fill="none" stroke="#ffffff" d="M108.15907 16.117096C109.21989 16.117096 110.2374 16.53856 110.9875 17.288668 111.73761 18.038777 112.15907 19.056284 112.15907 20.117096 112.15907 21.177908 111.73761 22.195414 110.9875 22.945523 110.2374 23.69563 109.21989 24.117096 108.15907 24.117096 107.09827 24.117096 106.08076 23.69563 105.33065 22.945523 104.58054 22.195414 104.15907 21.177908 104.15907 20.117096 104.15907 19.056284 104.58054 18.038777 105.33065 17.288668 106.08076 16.53856 107.09827 16.117096 108.15907 16.117096Z"/>
<use data-text="P" xlink:href="#font_5_14" transform="matrix(7.5,0,0,-7.5,115.65907,163.0119)" fill="#1f2937"/>
<use data-text="a" xlink:href="#font_5_17" transform="matrix(7.5,0,0,-7.5,120.96907,163.0119)" fill="#1f2937"/>
<use data-text="r" xlink:href="#font_5_30" transform="matrix(7.5,0,0,-7.5,126.03157,163.0119)" fill="#1f2937"/>
<use data-text="t" xlink:href="#font_5_32" transform="matrix(7.5,0,0,-7.5,129.72908,163.0119)" fill="#1f2937"/>
<use data-text="i" xlink:href="#font_5_25" transform="matrix(7.5,0,0,-7.5,133.31407,163.0119)" fill="#1f2937"/>
<use data-text="a" xlink:href="#font_5_17" transform="matrix(7.5,0,0,-7.5,135.88657,163.0119)" fill="#1f2937"/>
<use data-text="l" xlink:href="#font_5_27" transform="matrix(7.5,0,0,-7.5,140.94907,163.0119)" fill="#1f2937"/>
<path transform="matrix(1,0,0,-1,0,180.504)" stroke-width="1.5" stroke-linecap="square" stroke-linejoin="round" fill="none" stroke="#ffffff" d="M102.15907 10.867095H108.15907 114.15907"/>
<path transform="matrix(1,0,0,-1,0,180.504)" d="M108.15907 6.867095C109.21989 6.867095 110.2374 7.28856 110.9875 8.038668 111.73761 8.788776 112.15907 9.806283 112.15907 10.867095 112.15907 11.927907 111.73761 12.945414 110.9875 13.695522 110.2374 14.44563 109.21989 14.867095 108.15907 14.867095 107.09827 14.867095 106.08076 14.44563 105.33065 13.695522 104.58054 12.945414 104.15907 11.927907 104.15907 10.867095 104.15907 9.806283 104.58054 8.788776 105.33065 8.038668 106.08076 7.28856 107.09827 6.867095 108.15907 6.867095Z" fill="#c75146"/>
<path transform="matrix(1,0,0,-1,0,180.504)" stroke-width="1" stroke-linecap="butt" stroke-linejoin="round" fill="none" stroke="#ffffff" d="M108.15907 6.867095C109.21989 6.867095 110.2374 7.28856 110.9875 8.038668 111.73761 8.788776 112.15907 9.806283 112.15907 10.867095 112.15907 11.927907 111.73761 12.945414 110.9875 13.695522 110.2374 14.44563 109.21989 14.867095 108.15907 14.867095 107.09827 14.867095 106.08076 14.44563 105.33065 13.695522 104.58054 12.945414 104.15907 11.927907 104.15907 10.867095 104.15907 9.806283 104.58054 8.788776 105.33065 8.038668 106.08076 7.28856 107.09827 6.867095 108.15907 6.867095Z"/>
<use data-text="S" xlink:href="#font_5_16" transform="matrix(7.5,0,0,-7.5,115.65907,172.2619)" fill="#1f2937"/>
<use data-text="u" xlink:href="#font_5_33" transform="matrix(7.5,0,0,-7.5,121.059078,172.2619)" fill="#1f2937"/>
<use data-text="b" xlink:href="#font_5_18" transform="matrix(7.5,0,0,-7.5,126.39907,172.2619)" fill="#1f2937"/>
<use data-text="j" xlink:href="#font_5_26" transform="matrix(7.5,0,0,-7.5,131.76908,172.2619)" fill="#1f2937"/>
<use data-text="." xlink:href="#font_5_4" transform="matrix(7.5,0,0,-7.5,134.34157,172.2619)" fill="#1f2937"/>
</svg>
