<svg xmlns="http://www.w3.org/2000/svg" xmlns:xlink="http://www.w3.org/1999/xlink" xmlns:inkscape="http://www.inkscape.org/namespaces/inkscape" version="1.1" width="415.7415" height="211.4585" viewBox="0 0 415.7415 211.4585">
<defs>
<path id="font_1_15" d="M.27978517 .58691409V.14257813H.34716798C.42399089 .14257813 .48266603 .16160076 .52319338 .199646 .5637207 .23769124 .5839844 .29296876 .5839844 .36547853 .5839844 .43766276 .56380209 .49261476 .5234375 .5303345 .4830729 .5680542 .4243164 .58691409 .34716798 .58691409H.27978517M.091796878 .7294922H.29003907C.40071617 .7294922 .4831543 .7215932 .5373535 .7057953 .59155276 .6899974 .6380208 .66320297 .6767578 .625412 .7109375 .59251406 .7363281 .5545654 .7529297 .51156619 .76953127 .46857707 .77783206 .4198812 .77783206 .36547853 .77783206 .3104248 .76953127 .26131694 .7529297 .2181549 .7363281 .17500305 .7109375 .13697815 .6767578 .1040802 .6376953 .06628927 .5908203 .03949483 .5361328 .0236969 .4814453 .007898967 .39941407 0 .29003907 0H.091796878V.7294922Z"/>
<path id="font_1_30" d="M.083984378 .546875H.25878907V0H.083984378V.546875M.083984378 .7597656H.25878907V.6171875H.083984378V.7597656Z"/>
<path id="font_1_39" d="M.51123049 .53027346V.39746095C.47379557 .41308595 .43766276 .4248047 .40283204 .4326172 .3680013 .4404297 .3351237 .44433595 .30419923 .44433595 .2709961 .44433595 .24633789 .44017539 .23022461 .43185426 .21411133 .4235433 .20605469 .41074119 .20605469 .39344789 .20605469 .37941996 .2121582 .36865235 .22436524 .36114503 .23657227 .35364787 .25846354 .34810386 .29003907 .34451295L.32080079 .34010316C.410319 .32868959 .47054038 .30993144 .50146487 .28382875 .53238937 .2577362 .54785159 .21679688 .54785159 .16101074 .54785159 .102620448 .5263672 .058746339 .48339845 .029388428 .4404297 .000030517579 .3763021-.0146484379 .29101563-.0146484379 .2548828-.0146484379 .2175293-.01180013 .17895508-.0061035158 .14038086-.00040690104 .100748699 .0081380209 .060058595 .01953125V.15234375C.09488932 .13541667 .13061524 .12272135 .16723633 .11425781 .20385742 .10579427 .24104817 .1015625 .2788086 .1015625 .31298829 .1015625 .33870445 .106292728 .35595704 .115753177 .37320964 .12521363 .38183595 .13924153 .38183595 .15783692 .38183595 .17349243 .37589518 .18515015 .36401368 .19281006 .35213218 .20048015 .32845054 .20643616 .29296876 .2106781L.26220704 .21459961C.18440755 .22438558 .12988281 .2424876 .09863281 .26890565 .06738281 .29533387 .051757814 .33545939 .051757814 .38928224 .051757814 .44734703 .071614589 .49040733 .111328128 .51846316 .15104167 .546519 .21191406 .5605469 .2939453 .5605469 .32617188 .5605469 .36002604 .55810549 .3955078 .55322268 .4309896 .54833987 .4695638 .5406901 .51123049 .53027346Z"/>
<path id="font_1_40" d="M.27490235 .70214846V.546875H.45507813V.421875H.27490235V.1899414C.27490235 .16455078 .2799479 .14737956 .29003907 .13842774 .30013023 .1294759 .32014976 .125 .35009767 .125H.4399414V0H.29003907C.22102864 0 .17211914 .014404297 .14331055 .04321289 .11450195 .072021488 .100097659 .12093099 .100097659 .1899414V.421875H.013183594V.546875H.100097659V.70214846H.27490235Z"/>
<path id="font_1_32" d="M.083984378 .7597656H.25878907V0H.083984378V.7597656Z"/>
<path id="font_1_24" d="M.32910157 .24511719C.29264323 .24511719 .2652181 .23895264 .24682617 .22662354 .22843425 .21429444 .21923828 .1961263 .21923828 .17211914 .21923828 .15006511 .22664388 .13279216 .24145508 .12030029 .25626628 .10780843 .27685548 .1015625 .30322267 .1015625 .33610026 .1015625 .36376954 .11332194 .38623048 .13684082 .4086914 .1603597 .41992188 .189799 .41992188 .22515869V.24511719H.32910157M.5961914 .31134034V0H.41992188V.08105469C.39648438 .04767863 .3701172 .023381552 .3408203 .008163452 .31152345-.007044474 .2758789-.0146484379 .23388672-.0146484379 .1772461-.0146484379 .13126628 .0018717448 .095947269 .03491211 .060628255 .06795248 .04296875 .110839847 .04296875 .16357422 .04296875 .22770183 .06502279 .2747396 .10913086 .3046875 .15323894 .3346354 .22249349 .34960938 .31689454 .34960938H.41992188V.3635559C.41992188 .39146934 .40901695 .411911 .38720704 .42488099 .36539714 .43785096 .33138023 .44433595 .28515626 .44433595 .24772136 .44433595 .21289063 .44059245 .18066406 .43310548 .1484375 .4256185 .118489589 .41438804 .09082031 .39941407V.5332031C.1282552 .54215499 .16585286 .5489502 .20361328 .55358889 .2413737 .55822756 .27913413 .5605469 .31689454 .5605469 .41552735 .5605469 .48673503 .54100546 .5305176 .5019226 .5743001 .46283976 .5961914 .39931236 .5961914 .31134034Z"/>
<path id="font_1_35" d="M.34423829 .43554688C.3055013 .43554688 .2759603 .42159019 .25561524 .39367677 .23527019 .36576335 .22509766 .32552085 .22509766 .27294923 .22509766 .22037761 .23527019 .18013509 .25561524 .15222168 .2759603 .124308269 .3055013 .11035156 .34423829 .11035156 .38232423 .11035156 .41145835 .124308269 .43164063 .15222168 .4518229 .18013509 .46191407 .22037761 .46191407 .27294923 .46191407 .32552085 .4518229 .36576335 .43164063 .39367677 .41145835 .42159019 .38232423 .43554688 .34423829 .43554688M.34423829 .5605469C.4383138 .5605469 .5118001 .5351105 .56469729 .48423768 .6175944 .43337504 .64404299 .36294557 .64404299 .27294923 .64404299 .18295288 .6175944 .11251831 .56469729 .061645509 .5118001 .010782878 .4383138-.0146484379 .34423829-.0146484379 .24983724-.0146484379 .17602539 .010782878 .122802738 .061645509 .06958008 .11251831 .04296875 .18295288 .04296875 .27294923 .04296875 .36294557 .06958008 .43337504 .122802738 .48423768 .17602539 .5351105 .24983724 .5605469 .34423829 .5605469Z"/>
<path id="font_1_34" d="M.63378909 .33338929V0H.4580078V.054260255 .25517274C.4580078 .3024241 .45694987 .3350118 .45483399 .3529358 .4527181 .37085978 .449056 .38405863 .44384767 .39253236 .43701173 .40394593 .42773438 .41282655 .41601563 .4191742 .40429688 .425532 .39095054 .42871095 .37597657 .42871095 .33951823 .42871095 .3108724 .4146169 .29003907 .38642884 .26920573 .35824076 .25878907 .31921388 .25878907 .26934815V0H.083984378V.546875H.25878907V.46679688C.28515626 .4988607 .31315104 .52250167 .34277345 .5377197 .37239585 .5529378 .4051107 .5605469 .44091798 .5605469 .50406906 .5605469 .55200198 .5411682 .5847168 .5024109 .61743167 .46365357 .63378909 .40731303 .63378909 .33338929Z"/>
<path id="font_1_22" d="M.5991211 .7059326V.55078127C.55908206 .56884768 .52001956 .5824788 .4819336 .5916748 .44384767 .6008708 .4078776 .60546877 .37402345 .60546877 .32910157 .60546877 .29589845 .59927877 .27441407 .5868988 .2529297 .574529 .2421875 .5553131 .2421875 .5292511 .2421875 .50970968 .24943035 .4944814 .26391603 .48356629 .2784017 .47265116 .3046875 .46328736 .34277345 .45547486L.42285157 .4394226C.50390627 .42314659 .56152346 .39840699 .5957031 .36520387 .6298828 .3320109 .64697268 .28481547 .64697268 .22361756 .64697268 .14321392 .62312826 .08339945 .57543948 .044174196 .5277507 .0049591066 .45491538-.0146484379 .3569336-.0146484379 .31070964-.0146484379 .2643229-.010238647 .21777344-.0014190674 .17122396 .0074005129 .12467448 .020467123 .078125 .03778076V.19726563C.12467448 .17236328 .16967774 .15360515 .21313477 .14099121 .2565918 .12837728 .2985026 .12207031 .3388672 .12207031 .3798828 .12207031 .41129557 .12891133 .43310548 .14259339 .45491538 .15627544 .4658203 .17582195 .4658203 .20123291 .4658203 .22402954 .4584147 .24161785 .44360353 .2539978 .42879234 .26637779 .3992513 .27745567 .35498048 .28723146L.28222657 .30326844C.20930989 .31889344 .15600586 .34379069 .12231445 .3779602 .08862305 .4121399 .071777347 .45820109 .071777347 .5161438 .071777347 .5887248 .095214847 .64454147 .14208985 .68359377 .18896485 .72265627 .25634767 .7421875 .34423829 .7421875 .38427735 .7421875 .42545573 .73916628 .46777345 .7331238 .5100911 .7270813 .5538737 .7180176 .5991211 .7059326Z"/>
<path id="font_1_16" d="M.091796878 .7294922H.5991211V.58691409H.27978517V.45214845H.5800781V.3095703H.27978517V0H.091796878V.7294922Z"/>
<path id="font_1_23" d="M.0048828127 .7294922H.6767578V.58691409H.4350586V0H.24707031V.58691409H.0048828127V.7294922Z"/>
<path id="font_1_21" d="M.35888673 .40625C.39827476 .40625 .42651368 .41355387 .44360353 .42816163 .46069337 .44276939 .46923829 .46679688 .46923829 .50024417 .46923829 .5333557 .46069337 .5570526 .44360353 .57133486 .42651368 .58562728 .39827476 .59277346 .35888673 .59277346H.27978517V.40625H.35888673M.27978517 .2763672V0H.091796878V.7294922H.37890626C.4749349 .7294922 .5453288 .7133789 .5900879 .68115237 .634847 .6489258 .65722659 .59798178 .65722659 .5283203 .65722659 .48014323 .6455892 .44059245 .62231448 .40966798 .59903976 .3787435 .56396487 .35595704 .51708987 .3413086 .54280599 .33543907 .5658366 .3221588 .58618167 .3014679 .6065267 .28078715 .6271159 .24943035 .6479492 .20739746L.75 0H.5498047L.4609375 .18147278C.44303385 .21799214 .42488609 .24293518 .40649415 .25630189 .3881022 .26967875 .36360679 .2763672 .3330078 .2763672H.27978517Z"/>
<path id="font_1_18" d="M.091796878 .7294922H.27978517V.14257813H.6098633V0H.091796878V.7294922Z"/>
<path id="font_1_3" d=""/>
<path id="font_1_4" d="M.37695313-.13183594H.2319336C.1821289-.051432294 .14534505 .024983725 .12158203 .09741211 .09781901 .1698405 .0859375 .24169922 .0859375 .31298829 .0859375 .38427735 .09790039 .45646159 .12182617 .529541 .14575196 .6026204 .18245442 .67903646 .2319336 .75878909H.37695313C.33528648 .6816406 .30403648 .6062012 .28320313 .5324707 .26236979 .45874024 .25195313 .38590495 .25195313 .31396485 .25195313 .24202474 .26228843 .16910808 .28295899 .095214847 .30362956 .021321616 .33496095-.05436198 .37695313-.13183594Z"/>
<path id="font_1_17" d="M.7470703 .053955079C.7001953 .03108724 .65152999 .01393636 .6010742 .0025024415 .55061849-.008931478 .49853517-.0146484379 .44482423-.0146484379 .32340495-.0146484379 .22721355 .019307455 .15625 .08721924 .08528646 .15514119 .049804689 .24724324 .049804689 .3635254 .049804689 .48110963 .0859375 .57361349 .15820313 .641037 .23046875 .70847067 .3294271 .7421875 .45507813 .7421875 .50358077 .7421875 .5500488 .73760989 .5944824 .7284546 .638916 .7193095 .68082687 .7057546 .72021487 .6877899V.5361328C.6795247 .55940756 .6390788 .5767822 .59887698 .58825686 .5586751 .59973147 .5183919 .60546877 .47802735 .60546877 .40315757 .60546877 .34545899 .5845744 .30493165 .54278567 .2644043 .5009969 .24414063 .4412435 .24414063 .3635254 .24414063 .28645835 .26367188 .22694905 .30273438 .18499756 .34179688 .14304607 .3972982 .12207031 .46923829 .12207031 .48876954 .12207031 .5069173 .123291019 .52368167 .12573242 .540446 .128184 .5555013 .13202413 .56884768 .13725281V.27929688H.45410157V.40527345H.7470703V.053955079Z"/>
<path id="font_1_20" d="M.091796878 .7294922H.4038086C.49658204 .7294922 .56778976 .70888265 .61743167 .6676636 .66707357 .6264445 .69189456 .5677083 .69189456 .49145509 .69189456 .4148763 .66707357 .3559774 .61743167 .3147583 .56778976 .27353923 .49658204 .2529297 .4038086 .2529297H.27978517V0H.091796878V.7294922M.27978517 .59277346V.38964845H.38378907C.4202474 .38964845 .44840495 .39849855 .46826173 .41619874 .4881185 .43389894 .49804688 .45898438 .49804688 .49145509 .49804688 .5239258 .4881185 .54892989 .46826173 .5664673 .44840495 .5840047 .4202474 .59277346 .38378907 .59277346H.27978517Z"/>
<path id="font_1_19" d="M.4248047 .60546877C.36751304 .60546877 .32307945 .58433029 .2915039 .5420532 .25992839 .4997762 .24414063 .44026695 .24414063 .3635254 .24414063 .28710938 .25992839 .22776287 .2915039 .18548584 .32307945 .14320882 .36751304 .12207031 .4248047 .12207031 .48242188 .12207031 .52701827 .14320882 .55859377 .18548584 .59016928 .22776287 .60595706 .28710938 .60595706 .3635254 .60595706 .44026695 .59016928 .4997762 .55859377 .5420532 .52701827 .58433029 .48242188 .60546877 .4248047 .60546877M.4248047 .7421875C.5419922 .7421875 .63378909 .7086334 .7001953 .64152529 .76660159 .5744273 .7998047 .48176066 .7998047 .3635254 .7998047 .24561565 .76660159 .15310669 .7001953 .085998538 .63378909 .018900553 .5419922-.0146484379 .4248047-.0146484379 .30794273-.0146484379 .21622722 .018900553 .1496582 .085998538 .083089198 .15310669 .049804689 .24561565 .049804689 .3635254 .049804689 .48176066 .083089198 .5744273 .1496582 .64152529 .21622722 .7086334 .30794273 .7421875 .4248047 .7421875Z"/>
<path id="font_1_5" d="M.080078128-.13183594C.12174479-.05436198 .1529948 .021321616 .17382813 .095214847 .19466146 .16910808 .20507813 .24202474 .20507813 .31396485 .20507813 .38590495 .19466146 .45874024 .17382813 .5324707 .1529948 .6062012 .12174479 .6816406 .080078128 .75878909H.22509766C.2745768 .67903646 .3112793 .6026204 .33520509 .529541 .35913087 .45646159 .37109376 .38427735 .37109376 .31298829 .37109376 .24169922 .35921226 .1698405 .33544923 .09741211 .3116862 .024983725 .27490235-.051432294 .22509766-.13183594H.080078128Z"/>
<path id="font_1_38" d="M.49023438 .39746095C.4749349 .40478517 .4597168 .41019694 .44458009 .4136963 .42944337 .41719566 .41422526 .4189453 .39892579 .4189453 .3540039 .4189453 .31941734 .4045156 .29516603 .37565614 .2709147 .34679667 .25878907 .3054606 .25878907 .25164796V0H.083984378V.546875H.25878907V.45703126C.28125 .49301148 .30704753 .5192566 .33618165 .5357666 .36531578 .5522868 .40022788 .5605469 .44091798 .5605469 .44677735 .5605469 .453125 .56029257 .45996095 .55978396 .46679688 .55928549 .47672526 .55819198 .4897461 .5565033L.49023438 .39746095Z"/>
<path id="font_1_25" d="M.375 .11230469C.4124349 .11230469 .44099937 .12601726 .46069337 .15344239 .48038737 .18086751 .49023438 .22070313 .49023438 .27294923 .49023438 .3251953 .48038737 .3650309 .46069337 .39245606 .44099937 .4198812 .4124349 .43359376 .375 .43359376 .3375651 .43359376 .3088379 .4197998 .28881837 .3922119 .26879884 .36462403 .25878907 .32486979 .25878907 .27294923 .25878907 .22102864 .26879884 .18127442 .28881837 .15368653 .3088379 .12609864 .3375651 .11230469 .375 .11230469M.25878907 .46679688C.2828776 .4988607 .3095703 .52250167 .3388672 .5377197 .36816407 .5529378 .40185548 .5605469 .4399414 .5605469 .5073242 .5605469 .5626628 .533727 .60595706 .48008729 .6492513 .42644755 .67089846 .35740153 .67089846 .27294923 .67089846 .1884969 .6492513 .11945089 .60595706 .06581116 .5626628 .012171428 .5073242-.0146484379 .4399414-.0146484379 .40185548-.0146484379 .36816407-.007039388 .3388672 .008178711 .3095703 .02339681 .2828776 .04703776 .25878907 .07910156V0H.083984378V.7597656H.25878907V.46679688Z"/>
<path id="font_1_29" d="M.4560547 .09277344C.43196617 .060872396 .4054362 .037434896 .37646485 .022460938 .3474935 .007486979 .31396485 0 .2758789 0 .20914714 0 .15397136 .026306153 .11035156 .07891846 .06673177 .13154094 .044921876 .19857788 .044921876 .2800293 .044921876 .36180625 .06673177 .4288381 .11035156 .48112489 .15397136 .5334218 .20914714 .5595703 .2758789 .5595703 .31396485 .5595703 .3474935 .55204269 .37646485 .5369873 .4054362 .52194216 .43196617 .49821983 .4560547 .4658203V.546875H.63183596V.05517578C.63183596-.032714845 .60408529-.099853519 .548584-.14624024 .49308268-.19262696 .41259767-.21582031 .3071289-.21582031 .27294923-.21582031 .23990886-.21317546 .20800781-.20788574 .17610677-.20259603 .14404297-.1944987 .111816409-.18359375V-.046875C.14241536-.06461588 .17236328-.07784017 .20166016-.08654785 .23095703-.09525553 .26041667-.099609378 .29003907-.099609378 .34733073-.099609378 .3893229-.08711243 .41601563-.06211853 .44270835-.037134809 .4560547 .0019632977 .4560547 .05517578V.09277344M.3408203 .43359376C.3046875 .43359376 .27652995 .42022706 .25634767 .39349366 .23616536 .36676026 .22607422 .3289388 .22607422 .2800293 .22607422 .2298177 .23583985 .19175212 .2553711 .16583252 .27490235 .13991292 .3033854 .12695313 .3408203 .12695313 .37727867 .12695313 .40559898 .14031983 .42578126 .16705323 .44596354 .19378662 .4560547 .23144531 .4560547 .2800293 .4560547 .3289388 .44596354 .36676026 .42578126 .39349366 .40559898 .42022706 .37727867 .43359376 .3408203 .43359376Z"/>
<path id="font_1_36" d="M.25878907 .07910156V-.20800781H.083984378V.546875H.25878907V.46679688C.2828776 .4988607 .3095703 .52250167 .3388672 .5377197 .36816407 .5529378 .40185548 .5605469 .4399414 .5605469 .5073242 .5605469 .5626628 .533727 .60595706 .48008729 .6492513 .42644755 .67089846 .35740153 .67089846 .27294923 .67089846 .1884969 .6492513 .11945089 .60595706 .06581116 .5626628 .012171428 .5073242-.0146484379 .4399414-.0146484379 .40185548-.0146484379 .36816407-.007039388 .3388672 .008178711 .3095703 .02339681 .2828776 .04703776 .25878907 .07910156M.375 .43359376C.3375651 .43359376 .3088379 .4197998 .28881837 .3922119 .26879884 .36462403 .25878907 .32486979 .25878907 .27294923 .25878907 .22102864 .26879884 .18127442 .28881837 .15368653 .3088379 .12609864 .3375651 .11230469 .375 .11230469 .4124349 .11230469 .44099937 .12601726 .46069337 .15344239 .48038737 .18086751 .49023438 .22070313 .49023438 .27294923 .49023438 .3251953 .48038737 .3650309 .46069337 .39245606 .44099937 .4198812 .4124349 .43359376 .375 .43359376Z"/>
<path id="font_1_27" d="M.4560547 .46679688V.7597656H.63183596V0H.4560547V.07910156C.43196617 .04670207 .4054362 .02297465 .37646485 .0079193119 .3474935-.0071258547 .31396485-.0146484379 .2758789-.0146484379 .2084961-.0146484379 .15315755 .012171428 .10986328 .06581116 .06656901 .11945089 .044921876 .1884969 .044921876 .27294923 .044921876 .35740153 .06656901 .42644755 .10986328 .48008729 .15315755 .533727 .2084961 .5605469 .2758789 .5605469 .3136393 .5605469 .34708659 .5529378 .3762207 .5377197 .40535484 .52250167 .43196617 .4988607 .4560547 .46679688M.3408203 .11230469C.37825523 .11230469 .40681968 .12601726 .42651368 .15344239 .44620768 .18086751 .4560547 .22070313 .4560547 .27294923 .4560547 .3251953 .44620768 .3650309 .42651368 .39245606 .40681968 .4198812 .37825523 .43359376 .3408203 .43359376 .30371095 .43359376 .27530924 .4198812 .25561524 .39245606 .23592122 .3650309 .22607422 .3251953 .22607422 .27294923 .22607422 .22070313 .23592122 .18086751 .25561524 .15344239 .27530924 .12601726 .30371095 .11230469 .3408203 .11230469Z"/>
<path id="font_1_33" d="M.5908203 .45619203C.61295577 .49015809 .6392415 .51604208 .66967776 .533844 .70011398 .55164596 .7335612 .5605469 .77001956 .5605469 .83284506 .5605469 .8806966 .5411682 .9135742 .5024109 .94645187 .46365357 .9628906 .40731303 .9628906 .33338929V0H.7871094V.28547669C.7874349 .28970848 .787679 .29410807 .7878418 .29867555 .7880046 .303243 .78808596 .30976359 .78808596 .3182373 .78808596 .35701499 .78238937 .38512168 .7709961 .40255738 .75960287 .41999308 .74121096 .42871095 .7158203 .42871095 .6826172 .42871095 .6569824 .4150238 .638916 .38764955 .6208496 .36027528 .6114909 .3206787 .61083987 .26885987V0H.4350586V.28547669C.4350586 .34609477 .42985026 .38512168 .4194336 .40255738 .40901695 .41999308 .39046226 .42871095 .36376954 .42871095 .33024089 .42871095 .30436198 .4149424 .2861328 .3874054 .26790367 .35986839 .25878907 .32051597 .25878907 .26934815V0H.08300781V.546875H.25878907V.46679688C.28027345 .49788413 .30493165 .52128097 .33276368 .5369873 .3605957 .55269369 .39127604 .5605469 .4248047 .5605469 .4625651 .5605469 .495931 .5514018 .52490237 .5331116 .5538737 .51482138 .5758464 .48918153 .5908203 .45619203Z"/>
<path id="font_1_28" d="M.6298828 .2756195V.22558594H.2211914C.22542317 .1842448 .24023438 .15323894 .265625 .13256836 .29101563 .11189779 .3264974 .1015625 .3720703 .1015625 .40885417 .1015625 .4465332 .107055667 .48510743 .11804199 .52368167 .12902832 .5633138 .14567058 .6040039 .16796875V.033203126C.5626628 .017415366 .5213216 .005493164 .47998048-.0025634766 .4386393-.010620117 .3972982-.0146484379 .35595704-.0146484379 .2569987-.0146484379 .1800944 .010538737 .12524414 .060913087 .07039388 .11129761 .04296875 .18197632 .04296875 .27294923 .04296875 .36229453 .0699056 .43256126 .1237793 .4837494 .177653 .5349477 .25179038 .5605469 .3461914 .5605469 .4321289 .5605469 .5008952 .5346883 .55249026 .4829712 .60408529 .43125407 .6298828 .36213685 .6298828 .2756195M.4501953 .33398438C.4501953 .36704508 .44051109 .39370219 .42114259 .4139557 .40177409 .4342092 .37646485 .44433595 .34521485 .44433595 .3113607 .44433595 .28385417 .43485514 .2626953 .41589356 .24153646 .39693199 .22835286 .3696289 .22314453 .33398438H.4501953Z"/>
<path id="font_1_26" d="M.5258789 .53027346V.3876953C.5021159 .40397135 .47827149 .41601563 .4543457 .42382813 .43041993 .43164063 .40559898 .43554688 .3798828 .43554688 .3310547 .43554688 .29305015 .42125956 .26586915 .39268495 .23868816 .36412049 .22509766 .3242086 .22509766 .27294923 .22509766 .22168987 .23868816 .18177288 .26586915 .15319824 .29305015 .12463379 .3310547 .11035156 .3798828 .11035156 .40722657 .11035156 .43318687 .114461269 .45776368 .122680667 .48234049 .13090007 .5050456 .1430664 .5258789 .15917969V.015625C.49853517 .005533854 .47078453-.0020345052 .44262696-.007080078 .4144694-.012125651 .38623048-.0146484379 .35791017-.0146484379 .25927735-.0146484379 .1821289 .010701497 .12646485 .061401369 .07080078 .11211141 .04296875 .18262737 .04296875 .27294923 .04296875 .3632711 .07080078 .43378196 .12646485 .4844818 .1821289 .53519186 .25927735 .5605469 .35791017 .5605469 .386556 .5605469 .41479493 .5580241 .44262696 .5529785 .47045899 .5479329 .49820964 .54036459 .5258789 .53027346Z"/>
<path id="font_1_41" d="M.078125 .21289063V.546875H.25390626V.4921875C.25390626 .4625651 .2537435 .42537437 .25341798 .38061524 .25309245 .3358561 .2529297 .3059896 .2529297 .29101563 .2529297 .24707031 .254069 .2154134 .25634767 .19604492 .2586263 .17667644 .26253257 .16259766 .2680664 .1538086 .27522788 .14241536 .28458659 .1336263 .29614259 .1274414 .30769859 .12125651 .32096354 .11816406 .3359375 .11816406 .37239585 .11816406 .40104167 .13216146 .421875 .16015625 .44270835 .18815105 .453125 .22705078 .453125 .27685548V.546875H.6279297V0H.453125V.07910156C.4267578 .04703776 .3988444 .02339681 .36938478 .008178711 .33992515-.007039388 .30745445-.0146484379 .27197267-.0146484379 .20882161-.0146484379 .1607259 .004760742 .12768555 .0435791 .09464518 .08239746 .078125 .13883464 .078125 .21289063Z"/>
<path id="font_1_42" d="M.015136719 .546875H.1899414L.32617188 .16894531 .46191407 .546875H.63720706L.421875 0H.22998047L.015136719 .546875Z"/>
<clipPath id="clip_2">
<path transform="matrix(1,0,0,-1,0,211.4585)" d="M38.63 51.7985H382.71803V208.57849H38.63Z"/>
</clipPath>
<path id="font_1_8" d="M.45996095 .3647461C.45996095 .45589195 .45141603 .5201009 .43432618 .55737307 .41723634 .5946452 .38850913 .61328127 .34814454 .61328127 .30777995 .61328127 .27897135 .5946452 .26171876 .55737307 .24446614 .5201009 .23583985 .45589195 .23583985 .3647461 .23583985 .2726237 .24446614 .2076823 .26171876 .16992188 .27897135 .13216146 .30777995 .11328125 .34814454 .11328125 .3881836 .11328125 .41682945 .13216146 .43408204 .16992188 .45133464 .2076823 .45996095 .2726237 .45996095 .3647461M.6479492 .3635254C.6479492 .24267578 .62190756 .1494344 .5698242 .08380127 .5177409 .01816813 .44384767-.0146484379 .34814454-.0146484379 .25211589-.0146484379 .17805989 .01816813 .12597656 .08380127 .07389323 .1494344 .047851564 .24267578 .047851564 .3635254 .047851564 .48470054 .07389323 .5781047 .12597656 .6437378 .17805989 .7093709 .25211589 .7421875 .34814454 .7421875 .44384767 .7421875 .5177409 .7093709 .5698242 .6437378 .62190756 .5781047 .6479492 .48470054 .6479492 .3635254Z"/>
<path id="font_1_7" d="M.10205078 .18945313H.27783204V0H.10205078V.18945313Z"/>
<clipPath id="clip_3">
<path transform="matrix(1,0,0,-1,0,211.4585)" d="M38.63 51.7985H382.71803V208.57849H38.63Z"/>
</clipPath>
<path id="font_1_10" d="M.28808595 .13867188H.6088867V0H.07910156V.13867188L.34521485 .37324525C.36897788 .39466859 .386556 .41560365 .39794923 .43605042 .40934245 .4564972 .41503907 .47775779 .41503907 .49983216 .41503907 .5339203 .40356446 .5613505 .38061524 .5821228 .35766603 .6028951 .32714845 .61328127 .2890625 .61328127 .25976563 .61328127 .22770183 .60705569 .1928711 .5946045 .15804036 .5821533 .12076823 .56363937 .08105469 .5390625V.69921877C.1233724 .7132161 .16520183 .72387698 .20654297 .7312012 .24788411 .7385254 .28841148 .7421875 .328125 .7421875 .4153646 .7421875 .4831543 .72299197 .53149417 .68460085 .579834 .6462199 .6040039 .5927124 .6040039 .52407839 .6040039 .48438517 .59375 .44737754 .5732422 .41305543 .5527344 .3787435 .50960287 .3327993 .44384767 .27522279L.28808595 .13867188Z"/>
<clipPath id="clip_4">
<path transform="matrix(1,0,0,-1,0,211.4585)" d="M38.63 51.7985H382.71803V208.57849H38.63Z"/>
</clipPath>
<path id="font_1_11" d="M.36816407 .57470706 .16210938 .26953126H.36816407V.57470706M.33691407 .7294922H.54589846V.26953126H.64990237V.1328125H.54589846V0H.36816407V.1328125H.044921876V.29408265L.33691407 .7294922Z"/>
<clipPath id="clip_5">
<path transform="matrix(1,0,0,-1,0,211.4585)" d="M38.63 51.7985H382.71803V208.57849H38.63Z"/>
</clipPath>
<path id="font_1_12" d="M.3618164 .359375C.3289388 .359375 .3042806 .3487142 .2878418 .32739259 .27140299 .30607096 .2631836 .27408854 .2631836 .23144531 .2631836 .18880208 .27140299 .15681966 .2878418 .13549805 .3042806 .11417643 .3289388 .103515628 .3618164 .103515628 .39501954 .103515628 .41984049 .11417643 .4362793 .13549805 .4527181 .15681966 .4609375 .18880208 .4609375 .23144531 .4609375 .27408854 .4527181 .30607096 .4362793 .32739259 .41984049 .3487142 .39501954 .359375 .3618164 .359375M.5942383 .70996096V.5751953C.5633138 .58984377 .5341797 .6006673 .50683596 .607666 .4794922 .61466476 .45279948 .61816409 .4267578 .61816409 .37076823 .61816409 .32714845 .6025798 .29589845 .57141116 .26464845 .5402425 .24641927 .49397788 .24121094 .4326172 .2626953 .44856773 .28597007 .4605306 .31103517 .46850587 .33610026 .4764811 .363444 .48046876 .3930664 .48046876 .4676107 .48046876 .5277507 .45865885 .5734863 .41503907 .619222 .37141929 .64208987 .31429038 .64208987 .24365235 .64208987 .16552735 .61653646 .10294596 .5654297 .055908204 .51432296 .008870442 .44580079-.0146484379 .35986329-.0146484379 .26513673-.0146484379 .19181316 .01735433 .13989258 .08135986 .08797201 .1453654 .06201172 .23616536 .06201172 .35375978 .06201172 .47427369 .09236654 .5689748 .15307617 .63786318 .21378581 .70676168 .29703776 .74121096 .40283204 .74121096 .4363607 .74121096 .46891276 .73860678 .5004883 .73339846 .5320638 .7281901 .5633138 .7203776 .5942383 .70996096Z"/>
<clipPath id="clip_6">
<path transform="matrix(1,0,0,-1,0,211.4585)" d="M38.63 51.7985H382.71803V208.57849H38.63Z"/>
</clipPath>
<path id="font_1_13" d="M.34814454 .32617188C.31298829 .32617188 .28597007 .31654869 .26708985 .29730226 .24820964 .27805583 .23876953 .25048829 .23876953 .21459961 .23876953 .17871094 .24820964 .15122478 .26708985 .13214112 .28597007 .11305746 .31298829 .103515628 .34814454 .103515628 .38297526 .103515628 .40966798 .11305746 .42822267 .13214112 .44677735 .15122478 .4560547 .17871094 .4560547 .21459961 .4560547 .2508138 .44677735 .27846275 .42822267 .2975464 .40966798 .31663005 .38297526 .32617188 .34814454 .32617188M.2109375 .388443C.16666667 .40177918 .13330078 .42227174 .110839847 .44992066 .088378909 .47756959 .07714844 .5120494 .07714844 .55336 .07714844 .6148427 .100097659 .6616821 .1459961 .6938782 .19189453 .7260844 .25927735 .7421875 .34814454 .7421875 .4363607 .7421875 .50341799 .7261658 .5493164 .6941223 .59521487 .66208907 .61816409 .6151683 .61816409 .55336 .61816409 .5120494 .60685226 .47756959 .5842285 .44992066 .5616048 .42227174 .52815756 .40177918 .48388673 .388443 .5333659 .37475077 .5707194 .3524933 .59594729 .32167054 .6211751 .29084779 .63378909 .25195823 .63378909 .20500183 .63378909 .1325938 .6097819 .07788086 .5617676 .040863038 .51375326 .0038553875 .44254557-.0146484379 .34814454-.0146484379 .25341798-.0146484379 .18188477 .0038553875 .13354492 .040863038 .08520508 .07788086 .061035158 .1325938 .061035158 .20500183 .061035158 .25195823 .073649089 .29084779 .09887695 .32167054 .12410482 .3524933 .16145833 .37475077 .2109375 .388443M.2548828 .5344238C.2548828 .5055339 .26293946 .48329673 .27905274 .4677124 .29516603 .45212809 .31819663 .44433595 .34814454 .44433595 .3774414 .44433595 .4000651 .45212809 .41601563 .4677124 .43196617 .48329673 .4399414 .5055339 .4399414 .5344238 .4399414 .5633138 .43196617 .58546957 .41601563 .6008911 .4000651 .6163127 .3774414 .62402346 .34814454 .62402346 .31819663 .62402346 .29516603 .61623129 .27905274 .600647 .26293946 .5850627 .2548828 .5629883 .2548828 .5344238Z"/>
<clipPath id="clip_7">
<path transform="matrix(1,0,0,-1,0,211.4585)" d="M38.63 51.7985H382.71803V208.57849H38.63Z"/>
</clipPath>
<path id="font_1_9" d="M.1171875 .12988281H.28320313V.6015625L.11279297 .56640627V.69433596L.28222657 .7294922H.4609375V.12988281H.6269531V0H.1171875V.12988281Z"/>
<path id="font_1_43" d="M.22216797 .27978517 .024902344 .546875H.20996094L.32177735 .38476563 .4350586 .546875H.6201172L.42285157 .28076173 .6298828 0H.44482423L.32177735 .17285156 .20019531 0H.015136719L.22216797 .27978517Z"/>
<clipPath id="clip_8">
<path transform="matrix(1,0,0,-1,54.270364,14.493332)" d="M-10.5-10.5H10.5V10.5H-10.5Z"/>
</clipPath>
<clipPath id="clip_9">
<path transform="matrix(1,0,0,-1,158.53946,55.14)" d="M-10.5-10.5H10.5V10.5H-10.5Z"/>
</clipPath>
<clipPath id="clip_10">
<path transform="matrix(1,0,0,-1,262.80854,98.69)" d="M-10.5-10.5H10.5V10.5H-10.5Z"/>
</clipPath>
<clipPath id="clip_11">
<path transform="matrix(1,0,0,-1,367.07765,142.24)" d="M-10.5-10.5H10.5V10.5H-10.5Z"/>
</clipPath>
<clipPath id="clip_12">
<path transform="matrix(1,0,0,-1,54.270364,116.10999)" d="M-12.156855-12.156855H12.156855V12.156855H-12.156855Z"/>
</clipPath>
<clipPath id="clip_13">
<path transform="matrix(1,0,0,-1,158.53946,94.33499)" d="M-12.156855-12.156855H12.156855V12.156855H-12.156855Z"/>
</clipPath>
<clipPath id="clip_14">
<path transform="matrix(1,0,0,-1,262.80854,21.751656)" d="M-12.156855-12.156855H12.156855V12.156855H-12.156855Z"/>
</clipPath>
<clipPath id="clip_15">
<path transform="matrix(1,0,0,-1,367.07765,72.55999)" d="M-12.156855-12.156855H12.156855V12.156855H-12.156855Z"/>
</clipPath>
<clipPath id="clip_16">
<path transform="matrix(1,0,0,-1,54.270364,130.62667)" d="M-10.5-10.5H10.5V10.5H-10.5Z"/>
</clipPath>
<clipPath id="clip_17">
<path transform="matrix(1,0,0,-1,158.53946,94.33499)" d="M-10.5-10.5H10.5V10.5H-10.5Z"/>
</clipPath>
<clipPath id="clip_18">
<path transform="matrix(1,0,0,-1,262.80854,43.526659)" d="M-10.5-10.5H10.5V10.5H-10.5Z"/>
</clipPath>
<clipPath id="clip_19">
<path transform="matrix(1,0,0,-1,367.07765,21.751658)" d="M-10.5-10.5H10.5V10.5H-10.5Z"/>
</clipPath>
<path id="font_1_37" d="M.3408203 .43359376C.30371095 .43359376 .27530924 .4198812 .25561524 .39245606 .23592122 .3650309 .22607422 .3251953 .22607422 .27294923 .22607422 .22070313 .23592122 .18086751 .25561524 .15344239 .27530924 .12601726 .30371095 .11230469 .3408203 .11230469 .37825523 .11230469 .40681968 .12601726 .42651368 .15344239 .44620768 .18086751 .4560547 .22070313 .4560547 .27294923 .4560547 .3251953 .44620768 .3650309 .42651368 .39245606 .40681968 .4198812 .37825523 .43359376 .3408203 .43359376M.4560547 .07910156C.43196617 .04670207 .4054362 .02297465 .37646485 .0079193119 .3474935-.0071258547 .31396485-.0146484379 .2758789-.0146484379 .2084961-.0146484379 .15315755 .012171428 .10986328 .06581116 .06656901 .11945089 .044921876 .1884969 .044921876 .27294923 .044921876 .35740153 .06656901 .4262848 .10986328 .479599 .15315755 .5329132 .2084961 .5595703 .2758789 .5595703 .31396485 .5595703 .3474935 .55204269 .37646485 .5369873 .4054362 .52194216 .43196617 .49821983 .4560547 .4658203V.546875H.63183596V-.20800781H.4560547V.07910156Z"/>
<path id="font_1_31" d="M.083984378 .546875H.25878907V.010177612C.25878907-.063196819 .24121094-.11920675 .20605469-.15785218 .17089844-.1964976 .11995443-.21582031 .053222658-.21582031H-.033203126V-.10058594H-.0029296876C.030273438-.10058594 .053059896-.09310404 .06542969-.07814026 .07779948-.063176479 .083984378-.033737184 .083984378 .010177612V.546875M.083984378 .7597656H.25878907V.6171875H.083984378V.7597656Z"/>
<path id="font_1_44" d="M.057128908 .546875H.5341797V.4248047L.24609375 .125H.5341797V0H.044921876V.12207031L.3330078 .421875H.057128908V.546875Z"/>
<path id="font_1_14" d="M.38378907 .44726563C.41341148 .44726563 .4358724 .45377604 .45117188 .46679688 .46647135 .47981773 .4741211 .49902345 .4741211 .52441409 .4741211 .5494792 .46647135 .5686035 .45117188 .5817871 .4358724 .5949707 .41341148 .6015625 .38378907 .6015625H.27978517V.44726563H.38378907M.39013673 .12792969C.42789714 .12792969 .45629884 .1359253 .4753418 .1519165 .49438478 .16790772 .50390627 .1920573 .50390627 .22436524 .50390627 .25602214 .49446617 .2797648 .47558595 .29559327 .45670573 .31142173 .42822267 .31933595 .39013673 .31933595H.27978517V.12792969H.39013673M.5649414 .390625C.60530599 .3788961 .63655599 .3572235 .6586914 .3256073 .68082687 .2939911 .69189456 .25520326 .69189456 .20924378 .69189456 .13883972 .66813156 .086364749 .62060549 .051818849 .5730794 .01727295 .5008138 0 .4038086 0H.091796878V.7294922H.37402345C.4752604 .7294922 .548584 .7141927 .59399417 .68359377 .6394043 .6529948 .6621094 .6040039 .6621094 .5366211 .6621094 .50113937 .6538086 .47094728 .63720706 .44604493 .62060549 .42114259 .5965169 .40266929 .5649414 .390625Z"/>
<path id="font_1_6" d="M.05419922 .359375H.36083985V.21679688H.05419922V.359375Z"/>
</defs>
<path transform="matrix(1,0,0,-1,0,211.4585)" d="M0 0H415.7415V211.4585H0Z" fill="#0d1b19"/>
<path transform="matrix(1,0,0,-1,0,211.4585)" d="M38.63 51.7985H382.718V208.5785H38.63Z" fill="#0d1b19"/>
<path transform="matrix(1,0,0,-1,0,211.4585)" d="M54.270364 51.7985V48.2985" fill="#d0e8e0"/>
<path transform="matrix(1,0,0,-1,0,211.4585)" stroke-width=".8" stroke-linecap="butt" stroke-linejoin="round" fill="none" stroke="#d0e8e0" d="M54.270364 51.7985V48.2985"/>
<use data-text="D" xlink:href="#font_1_15" transform="matrix(8.5,0,0,-8.5,28.028176,173.50376)" fill="#d0e8e0"/>
<use data-text="i" xlink:href="#font_1_30" transform="matrix(8.5,0,0,-8.5,35.083177,173.50376)" fill="#d0e8e0"/>
<use data-text="s" xlink:href="#font_1_39" transform="matrix(8.5,0,0,-8.5,37.998678,173.50376)" fill="#d0e8e0"/>
<use data-text="t" xlink:href="#font_1_40" transform="matrix(8.5,0,0,-8.5,43.056177,173.50376)" fill="#d0e8e0"/>
<use data-text="i" xlink:href="#font_1_30" transform="matrix(8.5,0,0,-8.5,47.11918,173.50376)" fill="#d0e8e0"/>
<use data-text="l" xlink:href="#font_1_32" transform="matrix(8.5,0,0,-8.5,50.034677,173.50376)" fill="#d0e8e0"/>
<use data-text="l" xlink:href="#font_1_32" transform="matrix(8.5,0,0,-8.5,52.95018,173.50376)" fill="#d0e8e0"/>
<use data-text="a" xlink:href="#font_1_24" transform="matrix(8.5,0,0,-8.5,55.865678,173.50376)" fill="#d0e8e0"/>
<use data-text="t" xlink:href="#font_1_40" transform="matrix(8.5,0,0,-8.5,61.60318,173.50376)" fill="#d0e8e0"/>
<use data-text="i" xlink:href="#font_1_30" transform="matrix(8.5,0,0,-8.5,65.66618,173.50376)" fill="#d0e8e0"/>
<use data-text="o" xlink:href="#font_1_35" transform="matrix(8.5,0,0,-8.5,68.58168,173.50376)" fill="#d0e8e0"/>
<use data-text="n" xlink:href="#font_1_34" transform="matrix(8.5,0,0,-8.5,74.42118,173.50376)" fill="#d0e8e0"/>
<path transform="matrix(1,0,0,-1,0,211.4585)" d="M158.53946 51.7985V48.2985" fill="#d0e8e0"/>
<path transform="matrix(1,0,0,-1,0,211.4585)" stroke-width=".8" stroke-linecap="butt" stroke-linejoin="round" fill="none" stroke="#d0e8e0" d="M158.53946 51.7985V48.2985"/>
<use data-text="S" xlink:href="#font_1_22" transform="matrix(8.5,0,0,-8.5,149.67227,173.50376)" fill="#d0e8e0"/>
<use data-text="F" xlink:href="#font_1_16" transform="matrix(8.5,0,0,-8.5,155.79227,173.50376)" fill="#d0e8e0"/>
<use data-text="T" xlink:href="#font_1_23" transform="matrix(8.5,0,0,-8.5,161.59778,173.50376)" fill="#d0e8e0"/>
<path transform="matrix(1,0,0,-1,0,211.4585)" d="M262.80854 51.7985V48.2985" fill="#d0e8e0"/>
<path transform="matrix(1,0,0,-1,0,211.4585)" stroke-width=".8" stroke-linecap="butt" stroke-linejoin="round" fill="none" stroke="#d0e8e0" d="M262.80854 51.7985V48.2985"/>
<use data-text="R" xlink:href="#font_1_21" transform="matrix(8.5,0,0,-8.5,237.95699,173.50376)" fill="#d0e8e0"/>
<use data-text="L" xlink:href="#font_1_18" transform="matrix(8.5,0,0,-8.5,244.50199,173.50376)" fill="#d0e8e0"/>
<use data-text=" " xlink:href="#font_1_3" transform="matrix(8.5,0,0,-8.5,249.91649,173.50376)" fill="#d0e8e0"/>
<use data-text="(" xlink:href="#font_1_4" transform="matrix(8.5,0,0,-8.5,252.87448,173.50376)" fill="#d0e8e0"/>
<use data-text="G" xlink:href="#font_1_17" transform="matrix(8.5,0,0,-8.5,256.75898,173.50376)" fill="#d0e8e0"/>
<use data-text="R" xlink:href="#font_1_21" transform="matrix(8.5,0,0,-8.5,263.7375,173.50376)" fill="#d0e8e0"/>
<use data-text="P" xlink:href="#font_1_20" transform="matrix(8.5,0,0,-8.5,270.2825,173.50376)" fill="#d0e8e0"/>
<use data-text="O" xlink:href="#font_1_19" transform="matrix(8.5,0,0,-8.5,276.513,173.50376)" fill="#d0e8e0"/>
<use data-text=")" xlink:href="#font_1_5" transform="matrix(8.5,0,0,-8.5,283.73799,173.50376)" fill="#d0e8e0"/>
<path transform="matrix(1,0,0,-1,0,211.4585)" d="M367.07765 51.7985V48.2985" fill="#d0e8e0"/>
<path transform="matrix(1,0,0,-1,0,211.4585)" stroke-width=".8" stroke-linecap="butt" stroke-linejoin="round" fill="none" stroke="#d0e8e0" d="M367.07765 51.7985V48.2985"/>
<use data-text="P" xlink:href="#font_1_20" transform="matrix(8.5,0,0,-8.5,348.38233,173.50376)" fill="#d0e8e0"/>
<use data-text="r" xlink:href="#font_1_38" transform="matrix(8.5,0,0,-8.5,354.61283,173.50376)" fill="#d0e8e0"/>
<use data-text="o" xlink:href="#font_1_35" transform="matrix(8.5,0,0,-8.5,358.8033,173.50376)" fill="#d0e8e0"/>
<use data-text="b" xlink:href="#font_1_25" transform="matrix(8.5,0,0,-8.5,364.64283,173.50376)" fill="#d0e8e0"/>
<use data-text="i" xlink:href="#font_1_30" transform="matrix(8.5,0,0,-8.5,370.72883,173.50376)" fill="#d0e8e0"/>
<use data-text="n" xlink:href="#font_1_34" transform="matrix(8.5,0,0,-8.5,373.64433,173.50376)" fill="#d0e8e0"/>
<use data-text="g" xlink:href="#font_1_29" transform="matrix(8.5,0,0,-8.5,379.69633,173.50376)" fill="#d0e8e0"/>
<use data-text="T" xlink:href="#font_1_23" transform="matrix(10,0,0,-10,87.549,187.035)" fill="#d0e8e0"/>
<use data-text="r" xlink:href="#font_1_38" transform="matrix(10,0,0,-10,93.27525,187.035)" fill="#d0e8e0"/>
<use data-text="a" xlink:href="#font_1_24" transform="matrix(10,0,0,-10,98.20525,187.035)" fill="#d0e8e0"/>
<use data-text="i" xlink:href="#font_1_30" transform="matrix(10,0,0,-10,104.95525,187.035)" fill="#d0e8e0"/>
<use data-text="n" xlink:href="#font_1_34" transform="matrix(10,0,0,-10,108.385257,187.035)" fill="#d0e8e0"/>
<use data-text="i" xlink:href="#font_1_30" transform="matrix(10,0,0,-10,115.50525,187.035)" fill="#d0e8e0"/>
<use data-text="n" xlink:href="#font_1_34" transform="matrix(10,0,0,-10,118.93526,187.035)" fill="#d0e8e0"/>
<use data-text="g" xlink:href="#font_1_29" transform="matrix(10,0,0,-10,126.05525,187.035)" fill="#d0e8e0"/>
<use data-text=" " xlink:href="#font_1_3" transform="matrix(10,0,0,-10,133.21526,187.035)" fill="#d0e8e0"/>
<use data-text="p" xlink:href="#font_1_36" transform="matrix(10,0,0,-10,136.69525,187.035)" fill="#d0e8e0"/>
<use data-text="a" xlink:href="#font_1_24" transform="matrix(10,0,0,-10,143.85526,187.035)" fill="#d0e8e0"/>
<use data-text="r" xlink:href="#font_1_38" transform="matrix(10,0,0,-10,150.60526,187.035)" fill="#d0e8e0"/>
<use data-text="a" xlink:href="#font_1_24" transform="matrix(10,0,0,-10,155.53525,187.035)" fill="#d0e8e0"/>
<use data-text="d" xlink:href="#font_1_27" transform="matrix(10,0,0,-10,162.28525,187.035)" fill="#d0e8e0"/>
<use data-text="i" xlink:href="#font_1_30" transform="matrix(10,0,0,-10,169.44525,187.035)" fill="#d0e8e0"/>
<use data-text="g" xlink:href="#font_1_29" transform="matrix(10,0,0,-10,172.87526,187.035)" fill="#d0e8e0"/>
<use data-text="m" xlink:href="#font_1_33" transform="matrix(10,0,0,-10,180.03527,187.035)" fill="#d0e8e0"/>
<use data-text=" " xlink:href="#font_1_3" transform="matrix(10,0,0,-10,190.45526,187.035)" fill="#d0e8e0"/>
<use data-text="(" xlink:href="#font_1_4" transform="matrix(10,0,0,-10,193.93527,187.035)" fill="#d0e8e0"/>
<use data-text="d" xlink:href="#font_1_27" transform="matrix(10,0,0,-10,198.50527,187.035)" fill="#d0e8e0"/>
<use data-text="e" xlink:href="#font_1_28" transform="matrix(10,0,0,-10,205.66527,187.035)" fill="#d0e8e0"/>
<use data-text="c" xlink:href="#font_1_26" transform="matrix(10,0,0,-10,212.44527,187.035)" fill="#d0e8e0"/>
<use data-text="r" xlink:href="#font_1_38" transform="matrix(10,0,0,-10,218.37528,187.035)" fill="#d0e8e0"/>
<use data-text="e" xlink:href="#font_1_28" transform="matrix(10,0,0,-10,223.30527,187.035)" fill="#d0e8e0"/>
<use data-text="a" xlink:href="#font_1_24" transform="matrix(10,0,0,-10,230.08527,187.035)" fill="#d0e8e0"/>
<use data-text="s" xlink:href="#font_1_39" transform="matrix(10,0,0,-10,236.83527,187.035)" fill="#d0e8e0"/>
<use data-text="i" xlink:href="#font_1_30" transform="matrix(10,0,0,-10,242.78525,187.035)" fill="#d0e8e0"/>
<use data-text="n" xlink:href="#font_1_34" transform="matrix(10,0,0,-10,246.21527,187.035)" fill="#d0e8e0"/>
<use data-text="g" xlink:href="#font_1_29" transform="matrix(10,0,0,-10,253.33527,187.035)" fill="#d0e8e0"/>
<use data-text=" " xlink:href="#font_1_3" transform="matrix(10,0,0,-10,260.49528,187.035)" fill="#d0e8e0"/>
<use data-text="s" xlink:href="#font_1_39" transform="matrix(10,0,0,-10,263.97526,187.035)" fill="#d0e8e0"/>
<use data-text="u" xlink:href="#font_1_41" transform="matrix(10,0,0,-10,269.92527,187.035)" fill="#d0e8e0"/>
<use data-text="p" xlink:href="#font_1_36" transform="matrix(10,0,0,-10,277.04527,187.035)" fill="#d0e8e0"/>
<use data-text="e" xlink:href="#font_1_28" transform="matrix(10,0,0,-10,284.20527,187.035)" fill="#d0e8e0"/>
<use data-text="r" xlink:href="#font_1_38" transform="matrix(10,0,0,-10,290.98527,187.035)" fill="#d0e8e0"/>
<use data-text="v" xlink:href="#font_1_42" transform="matrix(10,0,0,-10,295.91526,187.035)" fill="#d0e8e0"/>
<use data-text="i" xlink:href="#font_1_30" transform="matrix(10,0,0,-10,302.43525,187.035)" fill="#d0e8e0"/>
<use data-text="s" xlink:href="#font_1_39" transform="matrix(10,0,0,-10,305.86528,187.035)" fill="#d0e8e0"/>
<use data-text="i" xlink:href="#font_1_30" transform="matrix(10,0,0,-10,311.81526,187.035)" fill="#d0e8e0"/>
<use data-text="o" xlink:href="#font_1_35" transform="matrix(10,0,0,-10,315.24528,187.035)" fill="#d0e8e0"/>
<use data-text="n" xlink:href="#font_1_34" transform="matrix(10,0,0,-10,322.11528,187.035)" fill="#d0e8e0"/>
<use data-text=")" xlink:href="#font_1_5" transform="matrix(10,0,0,-10,329.23527,187.035)" fill="#d0e8e0"/>
<g clip-path="url(#clip_2)">
<path transform="matrix(1,0,0,-1,0,211.4585)" stroke-width=".5" stroke-linecap="square" stroke-linejoin="round" fill="none" stroke="#1a3a34" stroke-opacity=".5" d="M38.63 51.7985H382.718"/>
</g>
<path transform="matrix(1,0,0,-1,0,211.4585)" d="M38.63 51.7985H35.13" fill="#d0e8e0"/>
<path transform="matrix(1,0,0,-1,0,211.4585)" stroke-width=".8" stroke-linecap="butt" stroke-linejoin="round" fill="none" stroke="#d0e8e0" d="M38.63 51.7985H35.13"/>
<use data-text="0" xlink:href="#font_1_8" transform="matrix(8.5,0,0,-8.5,16.551875,163.08188)" fill="#d0e8e0"/>
<use data-text="." xlink:href="#font_1_7" transform="matrix(8.5,0,0,-8.5,22.467875,163.08188)" fill="#d0e8e0"/>
<use data-text="0" xlink:href="#font_1_8" transform="matrix(8.5,0,0,-8.5,25.697876,163.08188)" fill="#d0e8e0"/>
<g clip-path="url(#clip_3)">
<path transform="matrix(1,0,0,-1,0,211.4585)" stroke-width=".5" stroke-linecap="square" stroke-linejoin="round" fill="none" stroke="#1a3a34" stroke-opacity=".5" d="M38.63 80.83183H382.718"/>
</g>
<path transform="matrix(1,0,0,-1,0,211.4585)" d="M38.63 80.83183H35.13" fill="#d0e8e0"/>
<path transform="matrix(1,0,0,-1,0,211.4585)" stroke-width=".8" stroke-linecap="butt" stroke-linejoin="round" fill="none" stroke="#d0e8e0" d="M38.63 80.83183H35.13"/>
<use data-text="0" xlink:href="#font_1_8" transform="matrix(8.5,0,0,-8.5,16.551875,134.04854)" fill="#d0e8e0"/>
<use data-text="." xlink:href="#font_1_7" transform="matrix(8.5,0,0,-8.5,22.467875,134.04854)" fill="#d0e8e0"/>
<use data-text="2" xlink:href="#font_1_10" transform="matrix(8.5,0,0,-8.5,25.697876,134.04854)" fill="#d0e8e0"/>
<g clip-path="url(#clip_4)">
<path transform="matrix(1,0,0,-1,0,211.4585)" stroke-width=".5" stroke-linecap="square" stroke-linejoin="round" fill="none" stroke="#1a3a34" stroke-opacity=".5" d="M38.63 109.865169H382.718"/>
</g>
<path transform="matrix(1,0,0,-1,0,211.4585)" d="M38.63 109.865169H35.13" fill="#d0e8e0"/>
<path transform="matrix(1,0,0,-1,0,211.4585)" stroke-width=".8" stroke-linecap="butt" stroke-linejoin="round" fill="none" stroke="#d0e8e0" d="M38.63 109.865169H35.13"/>
<use data-text="0" xlink:href="#font_1_8" transform="matrix(8.5,0,0,-8.5,16.551875,105.015209)" fill="#d0e8e0"/>
<use data-text="." xlink:href="#font_1_7" transform="matrix(8.5,0,0,-8.5,22.467875,105.015209)" fill="#d0e8e0"/>
<use data-text="4" xlink:href="#font_1_11" transform="matrix(8.5,0,0,-8.5,25.697876,105.015209)" fill="#d0e8e0"/>
<g clip-path="url(#clip_5)">
<path transform="matrix(1,0,0,-1,0,211.4585)" stroke-width=".5" stroke-linecap="square" stroke-linejoin="round" fill="none" stroke="#1a3a34" stroke-opacity=".5" d="M38.63 138.8985H382.718"/>
</g>
<path transform="matrix(1,0,0,-1,0,211.4585)" d="M38.63 138.8985H35.13" fill="#d0e8e0"/>
<path transform="matrix(1,0,0,-1,0,211.4585)" stroke-width=".8" stroke-linecap="butt" stroke-linejoin="round" fill="none" stroke="#d0e8e0" d="M38.63 138.8985H35.13"/>
<use data-text="0" xlink:href="#font_1_8" transform="matrix(8.5,0,0,-8.5,16.551875,75.98187)" fill="#d0e8e0"/>
<use data-text="." xlink:href="#font_1_7" transform="matrix(8.5,0,0,-8.5,22.467875,75.98187)" fill="#d0e8e0"/>
<use data-text="6" xlink:href="#font_1_12" transform="matrix(8.5,0,0,-8.5,25.697876,75.98187)" fill="#d0e8e0"/>
<g clip-path="url(#clip_6)">
<path transform="matrix(1,0,0,-1,0,211.4585)" stroke-width=".5" stroke-linecap="square" stroke-linejoin="round" fill="none" stroke="#1a3a34" stroke-opacity=".5" d="M38.63 167.93184H382.718"/>
</g>
<path transform="matrix(1,0,0,-1,0,211.4585)" d="M38.63 167.93184H35.13" fill="#d0e8e0"/>
<path transform="matrix(1,0,0,-1,0,211.4585)" stroke-width=".8" stroke-linecap="butt" stroke-linejoin="round" fill="none" stroke="#d0e8e0" d="M38.63 167.93184H35.13"/>
<use data-text="0" xlink:href="#font_1_8" transform="matrix(8.5,0,0,-8.5,16.551875,46.948534)" fill="#d0e8e0"/>
<use data-text="." xlink:href="#font_1_7" transform="matrix(8.5,0,0,-8.5,22.467875,46.948534)" fill="#d0e8e0"/>
<use data-text="8" xlink:href="#font_1_13" transform="matrix(8.5,0,0,-8.5,25.697876,46.948534)" fill="#d0e8e0"/>
<g clip-path="url(#clip_7)">
<path transform="matrix(1,0,0,-1,0,211.4585)" stroke-width=".5" stroke-linecap="square" stroke-linejoin="round" fill="none" stroke="#1a3a34" stroke-opacity=".5" d="M38.63 196.96517H382.718"/>
</g>
<path transform="matrix(1,0,0,-1,0,211.4585)" d="M38.63 196.96517H35.13" fill="#d0e8e0"/>
<path transform="matrix(1,0,0,-1,0,211.4585)" stroke-width=".8" stroke-linecap="butt" stroke-linejoin="round" fill="none" stroke="#d0e8e0" d="M38.63 196.96517H35.13"/>
<use data-text="1" xlink:href="#font_1_9" transform="matrix(8.5,0,0,-8.5,16.551875,17.915207)" fill="#d0e8e0"/>
<use data-text="." xlink:href="#font_1_7" transform="matrix(8.5,0,0,-8.5,22.467875,17.915207)" fill="#d0e8e0"/>
<use data-text="0" xlink:href="#font_1_8" transform="matrix(8.5,0,0,-8.5,25.697876,17.915207)" fill="#d0e8e0"/>
<use data-text="R" xlink:href="#font_1_21" transform="matrix(0,-10,-10,-0,10.47375,121.55906)" fill="#d0e8e0"/>
<use data-text="e" xlink:href="#font_1_28" transform="matrix(0,-10,-10,-0,10.47375,113.85906)" fill="#d0e8e0"/>
<use data-text="l" xlink:href="#font_1_32" transform="matrix(0,-10,-10,-0,10.47375,107.079059)" fill="#d0e8e0"/>
<use data-text="a" xlink:href="#font_1_24" transform="matrix(0,-10,-10,-0,10.47375,103.64906)" fill="#d0e8e0"/>
<use data-text="t" xlink:href="#font_1_40" transform="matrix(0,-10,-10,-0,10.47375,96.89906)" fill="#d0e8e0"/>
<use data-text="i" xlink:href="#font_1_30" transform="matrix(0,-10,-10,-0,10.47375,92.11906)" fill="#d0e8e0"/>
<use data-text="v" xlink:href="#font_1_42" transform="matrix(0,-10,-10,-0,10.47375,88.68906)" fill="#d0e8e0"/>
<use data-text="e" xlink:href="#font_1_28" transform="matrix(0,-10,-10,-0,10.47375,82.16905)" fill="#d0e8e0"/>
<use data-text=" " xlink:href="#font_1_3" transform="matrix(0,-10,-10,-0,10.47375,75.38905)" fill="#d0e8e0"/>
<use data-text="i" xlink:href="#font_1_30" transform="matrix(0,-10,-10,-0,10.47375,71.90906)" fill="#d0e8e0"/>
<use data-text="n" xlink:href="#font_1_34" transform="matrix(0,-10,-10,-0,10.47375,68.47906)" fill="#d0e8e0"/>
<use data-text="d" xlink:href="#font_1_27" transform="matrix(0,-10,-10,-0,10.47375,61.35906)" fill="#d0e8e0"/>
<use data-text="e" xlink:href="#font_1_28" transform="matrix(0,-10,-10,-0,10.47375,54.19906)" fill="#d0e8e0"/>
<use data-text="x" xlink:href="#font_1_43" transform="matrix(0,-10,-10,-0,10.47375,47.41906)" fill="#d0e8e0"/>
<path transform="matrix(1,0,0,-1,0,211.4585)" stroke-width="2" stroke-linecap="butt" stroke-dasharray="10,5" stroke-linejoin="round" fill="none" stroke="#6b8f85" d="M54.270364 196.96517 158.53946 156.3185 262.80854 112.7685 367.07765 69.2185"/>
<g clip-path="url(#clip_8)">
<path transform="matrix(1,0,0,-1,54.270364,14.493332)" d="M0-4C1.060812-4 2.078319-3.578535 2.828427-2.828427 3.578535-2.078319 4-1.060812 4 0 4 1.060812 3.578535 2.078319 2.828427 2.828427 2.078319 3.578535 1.060812 4 0 4-1.060812 4-2.078319 3.578535-2.828427 2.828427-3.578535 2.078319-4 1.060812-4 0-4-1.060812-3.578535-2.078319-2.828427-2.828427-2.078319-3.578535-1.060812-4 0-4Z" fill="#6b8f85"/>
<path transform="matrix(1,0,0,-1,54.270364,14.493332)" stroke-width="1.3" stroke-linecap="butt" stroke-linejoin="round" fill="none" stroke="#0d1b19" d="M0-4C1.060812-4 2.078319-3.578535 2.828427-2.828427 3.578535-2.078319 4-1.060812 4 0 4 1.060812 3.578535 2.078319 2.828427 2.828427 2.078319 3.578535 1.060812 4 0 4-1.060812 4-2.078319 3.578535-2.828427 2.828427-3.578535 2.078319-4 1.060812-4 0-4-1.060812-3.578535-2.078319-2.828427-2.828427-2.078319-3.578535-1.060812-4 0-4Z"/>
</g>
<g clip-path="url(#clip_9)">
<path transform="matrix(1,0,0,-1,158.53946,55.14)" d="M0-4C1.060812-4 2.078319-3.578535 2.828427-2.828427 3.578535-2.078319 4-1.060812 4 0 4 1.060812 3.578535 2.078319 2.828427 2.828427 2.078319 3.578535 1.060812 4 0 4-1.060812 4-2.078319 3.578535-2.828427 2.828427-3.578535 2.078319-4 1.060812-4 0-4-1.060812-3.578535-2.078319-2.828427-2.828427-2.078319-3.578535-1.060812-4 0-4Z" fill="#6b8f85"/>
<path transform="matrix(1,0,0,-1,158.53946,55.14)" stroke-width="1.3" stroke-linecap="butt" stroke-linejoin="round" fill="none" stroke="#0d1b19" d="M0-4C1.060812-4 2.078319-3.578535 2.828427-2.828427 3.578535-2.078319 4-1.060812 4 0 4 1.060812 3.578535 2.078319 2.828427 2.828427 2.078319 3.578535 1.060812 4 0 4-1.060812 4-2.078319 3.578535-2.828427 2.828427-3.578535 2.078319-4 1.060812-4 0-4-1.060812-3.578535-2.078319-2.828427-2.828427-2.078319-3.578535-1.060812-4 0-4Z"/>
</g>
<g clip-path="url(#clip_10)">
<path transform="matrix(1,0,0,-1,262.80854,98.69)" d="M0-4C1.060812-4 2.078319-3.578535 2.828427-2.828427 3.578535-2.078319 4-1.060812 4 0 4 1.060812 3.578535 2.078319 2.828427 2.828427 2.078319 3.578535 1.060812 4 0 4-1.060812 4-2.078319 3.578535-2.828427 2.828427-3.578535 2.078319-4 1.060812-4 0-4-1.060812-3.578535-2.078319-2.828427-2.828427-2.078319-3.578535-1.060812-4 0-4Z" fill="#6b8f85"/>
<path transform="matrix(1,0,0,-1,262.80854,98.69)" stroke-width="1.3" stroke-linecap="butt" stroke-linejoin="round" fill="none" stroke="#0d1b19" d="M0-4C1.060812-4 2.078319-3.578535 2.828427-2.828427 3.578535-2.078319 4-1.060812 4 0 4 1.060812 3.578535 2.078319 2.828427 2.828427 2.078319 3.578535 1.060812 4 0 4-1.060812 4-2.078319 3.578535-2.828427 2.828427-3.578535 2.078319-4 1.060812-4 0-4-1.060812-3.578535-2.078319-2.828427-2.828427-2.078319-3.578535-1.060812-4 0-4Z"/>
</g>
<g clip-path="url(#clip_11)">
<path transform="matrix(1,0,0,-1,367.07765,142.24)" d="M0-4C1.060812-4 2.078319-3.578535 2.828427-2.828427 3.578535-2.078319 4-1.060812 4 0 4 1.060812 3.578535 2.078319 2.828427 2.828427 2.078319 3.578535 1.060812 4 0 4-1.060812 4-2.078319 3.578535-2.828427 2.828427-3.578535 2.078319-4 1.060812-4 0-4-1.060812-3.578535-2.078319-2.828427-2.828427-2.078319-3.578535-1.060812-4 0-4Z" fill="#6b8f85"/>
<path transform="matrix(1,0,0,-1,367.07765,142.24)" stroke-width="1.3" stroke-linecap="butt" stroke-linejoin="round" fill="none" stroke="#0d1b19" d="M0-4C1.060812-4 2.078319-3.578535 2.828427-2.828427 3.578535-2.078319 4-1.060812 4 0 4 1.060812 3.578535 2.078319 2.828427 2.828427 2.078319 3.578535 1.060812 4 0 4-1.060812 4-2.078319 3.578535-2.828427 2.828427-3.578535 2.078319-4 1.060812-4 0-4-1.060812-3.578535-2.078319-2.828427-2.828427-2.078319-3.578535-1.060812-4 0-4Z"/>
</g>
<path transform="matrix(1,0,0,-1,0,211.4585)" stroke-width="2" stroke-linecap="butt" stroke-dasharray="10,5" stroke-linejoin="round" fill="none" stroke="#c75146" d="M54.270364 95.3485 158.53946 117.1235 262.80854 189.70684 367.07765 138.8985"/>
<g clip-path="url(#clip_12)">
<path transform="matrix(1,0,0,-1,54.270364,116.10999)" d="M0-5.656854 5.656854 0 0 5.656854-5.656854 0Z" fill="#c75146"/>
<path transform="matrix(1,0,0,-1,54.270364,116.10999)" stroke-width="1.3" stroke-linecap="butt" stroke-miterlimit="10" stroke-linejoin="miter" fill="none" stroke="#0d1b19" d="M0-5.656854 5.656854 0 0 5.656854-5.656854 0Z"/>
</g>
<g clip-path="url(#clip_13)">
<path transform="matrix(1,0,0,-1,158.53946,94.33499)" d="M0-5.656854 5.656854 0 0 5.656854-5.656854 0Z" fill="#c75146"/>
<path transform="matrix(1,0,0,-1,158.53946,94.33499)" stroke-width="1.3" stroke-linecap="butt" stroke-miterlimit="10" stroke-linejoin="miter" fill="none" stroke="#0d1b19" d="M0-5.656854 5.656854 0 0 5.656854-5.656854 0Z"/>
</g>
<g clip-path="url(#clip_14)">
<path transform="matrix(1,0,0,-1,262.80854,21.751656)" d="M0-5.656854 5.656854 0 0 5.656854-5.656854 0Z" fill="#c75146"/>
<path transform="matrix(1,0,0,-1,262.80854,21.751656)" stroke-width="1.3" stroke-linecap="butt" stroke-miterlimit="10" stroke-linejoin="miter" fill="none" stroke="#0d1b19" d="M0-5.656854 5.656854 0 0 5.656854-5.656854 0Z"/>
</g>
<g clip-path="url(#clip_15)">
<path transform="matrix(1,0,0,-1,367.07765,72.55999)" d="M0-5.656854 5.656854 0 0 5.656854-5.656854 0Z" fill="#c75146"/>
<path transform="matrix(1,0,0,-1,367.07765,72.55999)" stroke-width="1.3" stroke-linecap="butt" stroke-miterlimit="10" stroke-linejoin="miter" fill="none" stroke="#0d1b19" d="M0-5.656854 5.656854 0 0 5.656854-5.656854 0Z"/>
</g>
<path transform="matrix(1,0,0,-1,0,211.4585)" stroke-width="2" stroke-linecap="butt" stroke-dasharray="10,5" stroke-linejoin="round" fill="none" stroke="#1f6f6f" d="M54.270364 80.83183 158.53946 117.1235 262.80854 167.93184 367.07765 189.70684"/>
<g clip-path="url(#clip_16)">
<path transform="matrix(1,0,0,-1,54.270364,130.62667)" d="M-4-4H4V4H-4Z" fill="#1f6f6f"/>
<path transform="matrix(1,0,0,-1,54.270364,130.62667)" stroke-width="1.3" stroke-linecap="butt" stroke-miterlimit="10" stroke-linejoin="miter" fill="none" stroke="#0d1b19" d="M-4-4H4V4H-4Z"/>
</g>
<g clip-path="url(#clip_17)">
<path transform="matrix(1,0,0,-1,158.53946,94.33499)" d="M-4-4H4V4H-4Z" fill="#1f6f6f"/>
<path transform="matrix(1,0,0,-1,158.53946,94.33499)" stroke-width="1.3" stroke-linecap="butt" stroke-miterlimit="10" stroke-linejoin="miter" fill="none" stroke="#0d1b19" d="M-4-4H4V4H-4Z"/>
</g>
<g clip-path="url(#clip_18)">
<path transform="matrix(1,0,0,-1,262.80854,43.526659)" d="M-4-4H4V4H-4Z" fill="#1f6f6f"/>
<path transform="matrix(1,0,0,-1,262.80854,43.526659)" stroke-width="1.3" stroke-linecap="butt" stroke-miterlimit="10" stroke-linejoin="miter" fill="none" stroke="#0d1b19" d="M-4-4H4V4H-4Z"/>
</g>
<g clip-path="url(#clip_19)">
<path transform="matrix(1,0,0,-1,367.07765,21.751658)" d="M-4-4H4V4H-4Z" fill="#1f6f6f"/>
<path transform="matrix(1,0,0,-1,367.07765,21.751658)" stroke-width="1.3" stroke-linecap="butt" stroke-miterlimit="10" stroke-linejoin="miter" fill="none" stroke="#0d1b19" d="M-4-4H4V4H-4Z"/>
</g>
<path transform="matrix(1,0,0,-1,0,211.4585)" stroke-width=".7" stroke-linecap="square" stroke-miterlimit="10" stroke-linejoin="miter" fill="none" stroke="#6b8f85" d="M38.63 51.7985V208.5785"/>
<path transform="matrix(1,0,0,-1,0,211.4585)" stroke-width=".7" stroke-linecap="square" stroke-miterlimit="10" stroke-linejoin="miter" fill="none" stroke="#6b8f85" d="M38.63 51.7985H382.718"/>
<path transform="matrix(1,0,0,-1,0,211.4585)" stroke-width="2" stroke-linecap="butt" stroke-dasharray="10,5" stroke-linejoin="round" fill="none" stroke="#6b8f85" d="M11.4865 10.239375H18.2365 24.9865"/>
<path transform="matrix(1,0,0,-1,0,211.4585)" d="M18.2365 6.239375C19.297312 6.239375 20.31482 6.66084 21.064927 7.410948 21.815035 8.161056 22.2365 9.178563 22.2365 10.239375 22.2365 11.300187 21.815035 12.317694 21.064927 13.067802 20.31482 13.81791 19.297312 14.239375 18.2365 14.239375 17.175688 14.239375 16.15818 13.81791 15.408073 13.067802 14.657965 12.317694 14.2365 11.300187 14.2365 10.239375 14.2365 9.178563 14.657965 8.161056 15.408073 7.410948 16.15818 6.66084 17.175688 6.239375 18.2365 6.239375Z" fill="#6b8f85"/>
<path transform="matrix(1,0,0,-1,0,211.4585)" stroke-width="1.3" stroke-linecap="butt" stroke-linejoin="round" fill="none" stroke="#0d1b19" d="M18.2365 6.239375C19.297312 6.239375 20.31482 6.66084 21.064927 7.410948 21.815035 8.161056 22.2365 9.178563 22.2365 10.239375 22.2365 11.300187 21.815035 12.317694 21.064927 13.067802 20.31482 13.81791 19.297312 14.239375 18.2365 14.239375 17.175688 14.239375 16.15818 13.81791 15.408073 13.067802 14.657965 12.317694 14.2365 11.300187 14.2365 10.239375 14.2365 9.178563 14.657965 8.161056 15.408073 7.410948 16.15818 6.66084 17.175688 6.239375 18.2365 6.239375Z"/>
<use data-text="S" xlink:href="#font_1_22" transform="matrix(7.5,0,0,-7.5,27.9865,203.84412)" fill="#d0e8e0"/>
<use data-text="u" xlink:href="#font_1_41" transform="matrix(7.5,0,0,-7.5,33.3865,203.84412)" fill="#d0e8e0"/>
<use data-text="p" xlink:href="#font_1_36" transform="matrix(7.5,0,0,-7.5,38.7265,203.84412)" fill="#d0e8e0"/>
<use data-text="e" xlink:href="#font_1_28" transform="matrix(7.5,0,0,-7.5,44.0965,203.84412)" fill="#d0e8e0"/>
<use data-text="r" xlink:href="#font_1_38" transform="matrix(7.5,0,0,-7.5,49.1815,203.84412)" fill="#d0e8e0"/>
<use data-text="v" xlink:href="#font_1_42" transform="matrix(7.5,0,0,-7.5,52.878999,203.84412)" fill="#d0e8e0"/>
<use data-text="i" xlink:href="#font_1_30" transform="matrix(7.5,0,0,-7.5,57.768999,203.84412)" fill="#d0e8e0"/>
<use data-text="s" xlink:href="#font_1_39" transform="matrix(7.5,0,0,-7.5,60.3415,203.84412)" fill="#d0e8e0"/>
<use data-text="i" xlink:href="#font_1_30" transform="matrix(7.5,0,0,-7.5,64.804,203.84412)" fill="#d0e8e0"/>
<use data-text="o" xlink:href="#font_1_35" transform="matrix(7.5,0,0,-7.5,67.376499,203.84412)" fill="#d0e8e0"/>
<use data-text="n" xlink:href="#font_1_34" transform="matrix(7.5,0,0,-7.5,72.529,203.84412)" fill="#d0e8e0"/>
<use data-text=" " xlink:href="#font_1_3" transform="matrix(7.5,0,0,-7.5,77.869,203.84412)" fill="#d0e8e0"/>
<use data-text="r" xlink:href="#font_1_38" transform="matrix(7.5,0,0,-7.5,80.479007,203.84412)" fill="#d0e8e0"/>
<use data-text="e" xlink:href="#font_1_28" transform="matrix(7.5,0,0,-7.5,84.1765,203.84412)" fill="#d0e8e0"/>
<use data-text="q" xlink:href="#font_1_37" transform="matrix(7.5,0,0,-7.5,89.261508,203.84412)" fill="#d0e8e0"/>
<use data-text="u" xlink:href="#font_1_41" transform="matrix(7.5,0,0,-7.5,94.6315,203.84412)" fill="#d0e8e0"/>
<use data-text="i" xlink:href="#font_1_30" transform="matrix(7.5,0,0,-7.5,99.9715,203.84412)" fill="#d0e8e0"/>
<use data-text="r" xlink:href="#font_1_38" transform="matrix(7.5,0,0,-7.5,102.54401,203.84412)" fill="#d0e8e0"/>
<use data-text="e" xlink:href="#font_1_28" transform="matrix(7.5,0,0,-7.5,106.2415,203.84412)" fill="#d0e8e0"/>
<use data-text="d" xlink:href="#font_1_27" transform="matrix(7.5,0,0,-7.5,111.32651,203.84412)" fill="#d0e8e0"/>
<path transform="matrix(1,0,0,-1,0,211.4585)" stroke-width="2" stroke-linecap="butt" stroke-dasharray="10,5" stroke-linejoin="round" fill="none" stroke="#c75146" d="M125.799 10.239375H132.549 139.299"/>
<path transform="matrix(1,0,0,-1,0,211.4585)" d="M132.549 4.582521 138.20586 10.239375 132.549 15.896229 126.89214 10.239375Z" fill="#c75146"/>
<path transform="matrix(1,0,0,-1,0,211.4585)" stroke-width="1.3" stroke-linecap="butt" stroke-miterlimit="10" stroke-linejoin="miter" fill="none" stroke="#0d1b19" d="M132.549 4.582521 138.20586 10.239375 132.549 15.896229 126.89214 10.239375Z"/>
<use data-text="D" xlink:href="#font_1_15" transform="matrix(7.5,0,0,-7.5,142.299,203.84412)" fill="#d0e8e0"/>
<use data-text="i" xlink:href="#font_1_30" transform="matrix(7.5,0,0,-7.5,148.524,203.84412)" fill="#d0e8e0"/>
<use data-text="r" xlink:href="#font_1_38" transform="matrix(7.5,0,0,-7.5,151.0965,203.84412)" fill="#d0e8e0"/>
<use data-text="e" xlink:href="#font_1_28" transform="matrix(7.5,0,0,-7.5,154.79399,203.84412)" fill="#d0e8e0"/>
<use data-text="c" xlink:href="#font_1_26" transform="matrix(7.5,0,0,-7.5,159.879,203.84412)" fill="#d0e8e0"/>
<use data-text="t" xlink:href="#font_1_40" transform="matrix(7.5,0,0,-7.5,164.32649,203.84412)" fill="#d0e8e0"/>
<use data-text=" " xlink:href="#font_1_3" transform="matrix(7.5,0,0,-7.5,167.9115,203.84412)" fill="#d0e8e0"/>
<use data-text="o" xlink:href="#font_1_35" transform="matrix(7.5,0,0,-7.5,170.5215,203.84412)" fill="#d0e8e0"/>
<use data-text="b" xlink:href="#font_1_25" transform="matrix(7.5,0,0,-7.5,175.674,203.84412)" fill="#d0e8e0"/>
<use data-text="j" xlink:href="#font_1_31" transform="matrix(7.5,0,0,-7.5,181.044,203.84412)" fill="#d0e8e0"/>
<use data-text="e" xlink:href="#font_1_28" transform="matrix(7.5,0,0,-7.5,183.6165,203.84412)" fill="#d0e8e0"/>
<use data-text="c" xlink:href="#font_1_26" transform="matrix(7.5,0,0,-7.5,188.7015,203.84412)" fill="#d0e8e0"/>
<use data-text="t" xlink:href="#font_1_40" transform="matrix(7.5,0,0,-7.5,193.149,203.84412)" fill="#d0e8e0"/>
<use data-text="i" xlink:href="#font_1_30" transform="matrix(7.5,0,0,-7.5,196.73401,203.84412)" fill="#d0e8e0"/>
<use data-text="v" xlink:href="#font_1_42" transform="matrix(7.5,0,0,-7.5,199.3065,203.84412)" fill="#d0e8e0"/>
<use data-text="e" xlink:href="#font_1_28" transform="matrix(7.5,0,0,-7.5,204.1965,203.84412)" fill="#d0e8e0"/>
<use data-text=" " xlink:href="#font_1_3" transform="matrix(7.5,0,0,-7.5,209.2815,203.84412)" fill="#d0e8e0"/>
<use data-text="o" xlink:href="#font_1_35" transform="matrix(7.5,0,0,-7.5,211.89151,203.84412)" fill="#d0e8e0"/>
<use data-text="p" xlink:href="#font_1_36" transform="matrix(7.5,0,0,-7.5,217.044,203.84412)" fill="#d0e8e0"/>
<use data-text="t" xlink:href="#font_1_40" transform="matrix(7.5,0,0,-7.5,222.414,203.84412)" fill="#d0e8e0"/>
<use data-text="i" xlink:href="#font_1_30" transform="matrix(7.5,0,0,-7.5,225.99901,203.84412)" fill="#d0e8e0"/>
<use data-text="m" xlink:href="#font_1_33" transform="matrix(7.5,0,0,-7.5,228.5715,203.84412)" fill="#d0e8e0"/>
<use data-text="i" xlink:href="#font_1_30" transform="matrix(7.5,0,0,-7.5,236.3865,203.84412)" fill="#d0e8e0"/>
<use data-text="z" xlink:href="#font_1_44" transform="matrix(7.5,0,0,-7.5,238.95902,203.84412)" fill="#d0e8e0"/>
<use data-text="a" xlink:href="#font_1_24" transform="matrix(7.5,0,0,-7.5,243.324,203.84412)" fill="#d0e8e0"/>
<use data-text="t" xlink:href="#font_1_40" transform="matrix(7.5,0,0,-7.5,248.3865,203.84412)" fill="#d0e8e0"/>
<use data-text="i" xlink:href="#font_1_30" transform="matrix(7.5,0,0,-7.5,251.97151,203.84412)" fill="#d0e8e0"/>
<use data-text="o" xlink:href="#font_1_35" transform="matrix(7.5,0,0,-7.5,254.544,203.84412)" fill="#d0e8e0"/>
<use data-text="n" xlink:href="#font_1_34" transform="matrix(7.5,0,0,-7.5,259.69654,203.84412)" fill="#d0e8e0"/>
<path transform="matrix(1,0,0,-1,0,211.4585)" stroke-width="2" stroke-linecap="butt" stroke-dasharray="10,5" stroke-linejoin="round" fill="none" stroke="#1f6f6f" d="M274.174 10.239375H280.924 287.674"/>
<path transform="matrix(1,0,0,-1,0,211.4585)" d="M276.924 6.239375H284.924V14.239375H276.924Z" fill="#1f6f6f"/>
<path transform="matrix(1,0,0,-1,0,211.4585)" stroke-width="1.3" stroke-linecap="butt" stroke-miterlimit="10" stroke-linejoin="miter" fill="none" stroke="#0d1b19" d="M276.924 6.239375H284.924V14.239375H276.924Z"/>
<use data-text="B" xlink:href="#font_1_14" transform="matrix(7.5,0,0,-7.5,290.674,203.84412)" fill="#d0e8e0"/>
<use data-text="i" xlink:href="#font_1_30" transform="matrix(7.5,0,0,-7.5,296.389,203.84412)" fill="#d0e8e0"/>
<use data-text="a" xlink:href="#font_1_24" transform="matrix(7.5,0,0,-7.5,298.96153,203.84412)" fill="#d0e8e0"/>
<use data-text="s" xlink:href="#font_1_39" transform="matrix(7.5,0,0,-7.5,304.02403,203.84412)" fill="#d0e8e0"/>
<use data-text="-" xlink:href="#font_1_6" transform="matrix(7.5,0,0,-7.5,308.4865,203.84412)" fill="#d0e8e0"/>
<use data-text="p" xlink:href="#font_1_36" transform="matrix(7.5,0,0,-7.5,311.599,203.84412)" fill="#d0e8e0"/>
<use data-text="r" xlink:href="#font_1_38" transform="matrix(7.5,0,0,-7.5,316.96903,203.84412)" fill="#d0e8e0"/>
<use data-text="o" xlink:href="#font_1_35" transform="matrix(7.5,0,0,-7.5,320.6665,203.84412)" fill="#d0e8e0"/>
<use data-text="p" xlink:href="#font_1_36" transform="matrix(7.5,0,0,-7.5,325.819,203.84412)" fill="#d0e8e0"/>
<use data-text="a" xlink:href="#font_1_24" transform="matrix(7.5,0,0,-7.5,331.18904,203.84412)" fill="#d0e8e0"/>
<use data-text="g" xlink:href="#font_1_29" transform="matrix(7.5,0,0,-7.5,336.25154,203.84412)" fill="#d0e8e0"/>
<use data-text="a" xlink:href="#font_1_24" transform="matrix(7.5,0,0,-7.5,341.62153,203.84412)" fill="#d0e8e0"/>
<use data-text="t" xlink:href="#font_1_40" transform="matrix(7.5,0,0,-7.5,346.68403,203.84412)" fill="#d0e8e0"/>
<use data-text="i" xlink:href="#font_1_30" transform="matrix(7.5,0,0,-7.5,350.269,203.84412)" fill="#d0e8e0"/>
<use data-text="o" xlink:href="#font_1_35" transform="matrix(7.5,0,0,-7.5,352.8415,203.84412)" fill="#d0e8e0"/>
<use data-text="n" xlink:href="#font_1_34" transform="matrix(7.5,0,0,-7.5,357.99403,203.84412)" fill="#d0e8e0"/>
<use data-text=" " xlink:href="#font_1_3" transform="matrix(7.5,0,0,-7.5,363.33399,203.84412)" fill="#d0e8e0"/>
<use data-text="r" xlink:href="#font_1_38" transform="matrix(7.5,0,0,-7.5,365.944,203.84412)" fill="#d0e8e0"/>
<use data-text="e" xlink:href="#font_1_28" transform="matrix(7.5,0,0,-7.5,369.6415,203.84412)" fill="#d0e8e0"/>
<use data-text="s" xlink:href="#font_1_39" transform="matrix(7.5,0,0,-7.5,374.7265,203.84412)" fill="#d0e8e0"/>
<use data-text="i" xlink:href="#font_1_30" transform="matrix(7.5,0,0,-7.5,379.189,203.84412)" fill="#d0e8e0"/>
<use data-text="s" xlink:href="#font_1_39" transform="matrix(7.5,0,0,-7.5,381.7615,203.84412)" fill="#d0e8e0"/>
<use data-text="t" xlink:href="#font_1_40" transform="matrix(7.5,0,0,-7.5,386.224,203.84412)" fill="#d0e8e0"/>
<use data-text="a" xlink:href="#font_1_24" transform="matrix(7.5,0,0,-7.5,389.80903,203.84412)" fill="#d0e8e0"/>
<use data-text="n" xlink:href="#font_1_34" transform="matrix(7.5,0,0,-7.5,394.87153,203.84412)" fill="#d0e8e0"/>
<use data-text="c" xlink:href="#font_1_26" transform="matrix(7.5,0,0,-7.5,400.2115,203.84412)" fill="#d0e8e0"/>
<use data-text="e" xlink:href="#font_1_28" transform="matrix(7.5,0,0,-7.5,404.659,203.84412)" fill="#d0e8e0"/>
</svg>
