<svg xmlns="http://www.w3.org/2000/svg" xmlns:xlink="http://www.w3.org/1999/xlink" xmlns:inkscape="http://www.inkscape.org/namespaces/inkscape" version="1.1" width="372.82414" height="221.60082" viewBox="0 0 372.82414 221.60082">
<defs>
<clipPath id="clip_1">
<path transform="matrix(1,0,0,-1,0,221.60082)" d="M44.648126 36.773126H368.50413V213.10114H44.648126Z"/>
</clipPath>
<path id="font_2_35" d="M.63378909 .33338929V0H.4580078V.054260255 .25517274C.4580078 .3024241 .45694987 .3350118 .45483399 .3529358 .4527181 .37085978 .449056 .38405863 .44384767 .39253236 .43701173 .40394593 .42773438 .41282655 .41601563 .4191742 .40429688 .425532 .39095054 .42871095 .37597657 .42871095 .33951823 .42871095 .3108724 .4146169 .29003907 .38642884 .26920573 .35824076 .25878907 .31921388 .25878907 .26934815V0H.083984378V.546875H.25878907V.46679688C.28515626 .4988607 .31315104 .52250167 .34277345 .5377197 .37239585 .5529378 .4051107 .5605469 .44091798 .5605469 .50406906 .5605469 .55200198 .5411682 .5847168 .5024109 .61743167 .46365357 .63378909 .40731303 .63378909 .33338929Z"/>
<path id="font_2_36" d="M.34423829 .43554688C.3055013 .43554688 .2759603 .42159019 .25561524 .39367677 .23527019 .36576335 .22509766 .32552085 .22509766 .27294923 .22509766 .22037761 .23527019 .18013509 .25561524 .15222168 .2759603 .124308269 .3055013 .11035156 .34423829 .11035156 .38232423 .11035156 .41145835 .124308269 .43164063 .15222168 .4518229 .18013509 .46191407 .22037761 .46191407 .27294923 .46191407 .32552085 .4518229 .36576335 .43164063 .39367677 .41145835 .42159019 .38232423 .43554688 .34423829 .43554688M.34423829 .5605469C.4383138 .5605469 .5118001 .5351105 .56469729 .48423768 .6175944 .43337504 .64404299 .36294557 .64404299 .27294923 .64404299 .18295288 .6175944 .11251831 .56469729 .061645509 .5118001 .010782878 .4383138-.0146484379 .34423829-.0146484379 .24983724-.0146484379 .17602539 .010782878 .122802738 .061645509 .06958008 .11251831 .04296875 .18295288 .04296875 .27294923 .04296875 .36294557 .06958008 .43337504 .122802738 .48423768 .17602539 .5351105 .24983724 .5605469 .34423829 .5605469Z"/>
<path id="font_2_28" d="M.6298828 .2756195V.22558594H.2211914C.22542317 .1842448 .24023438 .15323894 .265625 .13256836 .29101563 .11189779 .3264974 .1015625 .3720703 .1015625 .40885417 .1015625 .4465332 .107055667 .48510743 .11804199 .52368167 .12902832 .5633138 .14567058 .6040039 .16796875V.033203126C.5626628 .017415366 .5213216 .005493164 .47998048-.0025634766 .4386393-.010620117 .3972982-.0146484379 .35595704-.0146484379 .2569987-.0146484379 .1800944 .010538737 .12524414 .060913087 .07039388 .11129761 .04296875 .18197632 .04296875 .27294923 .04296875 .36229453 .0699056 .43256126 .1237793 .4837494 .177653 .5349477 .25179038 .5605469 .3461914 .5605469 .4321289 .5605469 .5008952 .5346883 .55249026 .4829712 .60408529 .43125407 .6298828 .36213685 .6298828 .2756195M.4501953 .33398438C.4501953 .36704508 .44051109 .39370219 .42114259 .4139557 .40177409 .4342092 .37646485 .44433595 .34521485 .44433595 .3113607 .44433595 .28385417 .43485514 .2626953 .41589356 .24153646 .39693199 .22835286 .3696289 .22314453 .33398438H.4501953Z"/>
<clipPath id="clip_3">
<path transform="matrix(1,0,0,-1,0,221.60082)" d="M44.648126 36.773126H368.50413V213.10114H44.648126Z"/>
</clipPath>
<path id="font_2_34" d="M.5908203 .45619203C.61295577 .49015809 .6392415 .51604208 .66967776 .533844 .70011398 .55164596 .7335612 .5605469 .77001956 .5605469 .83284506 .5605469 .8806966 .5411682 .9135742 .5024109 .94645187 .46365357 .9628906 .40731303 .9628906 .33338929V0H.7871094V.28547669C.7874349 .28970848 .787679 .29410807 .7878418 .29867555 .7880046 .303243 .78808596 .30976359 .78808596 .3182373 .78808596 .35701499 .78238937 .38512168 .7709961 .40255738 .75960287 .41999308 .74121096 .42871095 .7158203 .42871095 .6826172 .42871095 .6569824 .4150238 .638916 .38764955 .6208496 .36027528 .6114909 .3206787 .61083987 .26885987V0H.4350586V.28547669C.4350586 .34609477 .42985026 .38512168 .4194336 .40255738 .40901695 .41999308 .39046226 .42871095 .36376954 .42871095 .33024089 .42871095 .30436198 .4149424 .2861328 .3874054 .26790367 .35986839 .25878907 .32051597 .25878907 .26934815V0H.08300781V.546875H.25878907V.46679688C.28027345 .49788413 .30493165 .52128097 .33276368 .5369873 .3605957 .55269369 .39127604 .5605469 .4248047 .5605469 .4625651 .5605469 .495931 .5514018 .52490237 .5331116 .5538737 .51482138 .5758464 .48918153 .5908203 .45619203Z"/>
<path id="font_2_27" d="M.4560547 .46679688V.7597656H.63183596V0H.4560547V.07910156C.43196617 .04670207 .4054362 .02297465 .37646485 .0079193119 .3474935-.0071258547 .31396485-.0146484379 .2758789-.0146484379 .2084961-.0146484379 .15315755 .012171428 .10986328 .06581116 .06656901 .11945089 .044921876 .1884969 .044921876 .27294923 .044921876 .35740153 .06656901 .42644755 .10986328 .48008729 .15315755 .533727 .2084961 .5605469 .2758789 .5605469 .3136393 .5605469 .34708659 .5529378 .3762207 .5377197 .40535484 .52250167 .43196617 .4988607 .4560547 .46679688M.3408203 .11230469C.37825523 .11230469 .40681968 .12601726 .42651368 .15344239 .44620768 .18086751 .4560547 .22070313 .4560547 .27294923 .4560547 .3251953 .44620768 .3650309 .42651368 .39245606 .40681968 .4198812 .37825523 .43359376 .3408203 .43359376 .30371095 .43359376 .27530924 .4198812 .25561524 .39245606 .23592122 .3650309 .22607422 .3251953 .22607422 .27294923 .22607422 .22070313 .23592122 .18086751 .25561524 .15344239 .27530924 .12601726 .30371095 .11230469 .3408203 .11230469Z"/>
<path id="font_2_32" d="M.083984378 .546875H.25878907V0H.083984378V.546875M.083984378 .7597656H.25878907V.6171875H.083984378V.7597656Z"/>
<path id="font_2_41" d="M.078125 .21289063V.546875H.25390626V.4921875C.25390626 .4625651 .2537435 .42537437 .25341798 .38061524 .25309245 .3358561 .2529297 .3059896 .2529297 .29101563 .2529297 .24707031 .254069 .2154134 .25634767 .19604492 .2586263 .17667644 .26253257 .16259766 .2680664 .1538086 .27522788 .14241536 .28458659 .1336263 .29614259 .1274414 .30769859 .12125651 .32096354 .11816406 .3359375 .11816406 .37239585 .11816406 .40104167 .13216146 .421875 .16015625 .44270835 .18815105 .453125 .22705078 .453125 .27685548V.546875H.6279297V0H.453125V.07910156C.4267578 .04703776 .3988444 .02339681 .36938478 .008178711 .33992515-.007039388 .30745445-.0146484379 .27197267-.0146484379 .20882161-.0146484379 .1607259 .004760742 .12768555 .0435791 .09464518 .08239746 .078125 .13883464 .078125 .21289063Z"/>
<clipPath id="clip_4">
<path transform="matrix(1,0,0,-1,0,221.60082)" d="M44.648126 36.773126H368.50413V213.10114H44.648126Z"/>
</clipPath>
<path id="font_2_31" d="M.63378909 .33338929V0H.4580078V.054260255 .25419618C.4580078 .3020986 .45694987 .3350118 .45483399 .3529358 .4527181 .37085978 .449056 .38405863 .44384767 .39253236 .43701173 .40394593 .42773438 .41282655 .41601563 .4191742 .40429688 .425532 .39095054 .42871095 .37597657 .42871095 .33951823 .42871095 .3108724 .4146169 .29003907 .38642884 .26920573 .35824076 .25878907 .31921388 .25878907 .26934815V0H.083984378V.7597656H.25878907V.46679688C.28515626 .4988607 .31315104 .52250167 .34277345 .5377197 .37239585 .5529378 .4051107 .5605469 .44091798 .5605469 .50406906 .5605469 .55200198 .5411682 .5847168 .5024109 .61743167 .46365357 .63378909 .40731303 .63378909 .33338929Z"/>
<path id="font_2_30" d="M.4560547 .09277344C.43196617 .060872396 .4054362 .037434896 .37646485 .022460938 .3474935 .007486979 .31396485 0 .2758789 0 .20914714 0 .15397136 .026306153 .11035156 .07891846 .06673177 .13154094 .044921876 .19857788 .044921876 .2800293 .044921876 .36180625 .06673177 .4288381 .11035156 .48112489 .15397136 .5334218 .20914714 .5595703 .2758789 .5595703 .31396485 .5595703 .3474935 .55204269 .37646485 .5369873 .4054362 .52194216 .43196617 .49821983 .4560547 .4658203V.546875H.63183596V.05517578C.63183596-.032714845 .60408529-.099853519 .548584-.14624024 .49308268-.19262696 .41259767-.21582031 .3071289-.21582031 .27294923-.21582031 .23990886-.21317546 .20800781-.20788574 .17610677-.20259603 .14404297-.1944987 .111816409-.18359375V-.046875C.14241536-.06461588 .17236328-.07784017 .20166016-.08654785 .23095703-.09525553 .26041667-.099609378 .29003907-.099609378 .34733073-.099609378 .3893229-.08711243 .41601563-.06211853 .44270835-.037134809 .4560547 .0019632977 .4560547 .05517578V.09277344M.3408203 .43359376C.3046875 .43359376 .27652995 .42022706 .25634767 .39349366 .23616536 .36676026 .22607422 .3289388 .22607422 .2800293 .22607422 .2298177 .23583985 .19175212 .2553711 .16583252 .27490235 .13991292 .3033854 .12695313 .3408203 .12695313 .37727867 .12695313 .40559898 .14031983 .42578126 .16705323 .44596354 .19378662 .4560547 .23144531 .4560547 .2800293 .4560547 .3289388 .44596354 .36676026 .42578126 .39349366 .40559898 .42022706 .37727867 .43359376 .3408203 .43359376Z"/>
<path id="font_2_23" d="M.0048828127 .7294922H.6767578V.58691409H.4350586V0H.24707031V.58691409H.0048828127V.7294922Z"/>
<path id="font_2_38" d="M.49023438 .39746095C.4749349 .40478517 .4597168 .41019694 .44458009 .4136963 .42944337 .41719566 .41422526 .4189453 .39892579 .4189453 .3540039 .4189453 .31941734 .4045156 .29516603 .37565614 .2709147 .34679667 .25878907 .3054606 .25878907 .25164796V0H.083984378V.546875H.25878907V.45703126C.28125 .49301148 .30704753 .5192566 .33618165 .5357666 .36531578 .5522868 .40022788 .5605469 .44091798 .5605469 .44677735 .5605469 .453125 .56029257 .45996095 .55978396 .46679688 .55928549 .47672526 .55819198 .4897461 .5565033L.49023438 .39746095Z"/>
<path id="font_2_24" d="M.32910157 .24511719C.29264323 .24511719 .2652181 .23895264 .24682617 .22662354 .22843425 .21429444 .21923828 .1961263 .21923828 .17211914 .21923828 .15006511 .22664388 .13279216 .24145508 .12030029 .25626628 .10780843 .27685548 .1015625 .30322267 .1015625 .33610026 .1015625 .36376954 .11332194 .38623048 .13684082 .4086914 .1603597 .41992188 .189799 .41992188 .22515869V.24511719H.32910157M.5961914 .31134034V0H.41992188V.08105469C.39648438 .04767863 .3701172 .023381552 .3408203 .008163452 .31152345-.007044474 .2758789-.0146484379 .23388672-.0146484379 .1772461-.0146484379 .13126628 .0018717448 .095947269 .03491211 .060628255 .06795248 .04296875 .110839847 .04296875 .16357422 .04296875 .22770183 .06502279 .2747396 .10913086 .3046875 .15323894 .3346354 .22249349 .34960938 .31689454 .34960938H.41992188V.3635559C.41992188 .39146934 .40901695 .411911 .38720704 .42488099 .36539714 .43785096 .33138023 .44433595 .28515626 .44433595 .24772136 .44433595 .21289063 .44059245 .18066406 .43310548 .1484375 .4256185 .118489589 .41438804 .09082031 .39941407V.5332031C.1282552 .54215499 .16585286 .5489502 .20361328 .55358889 .2413737 .55822756 .27913413 .5605469 .31689454 .5605469 .41552735 .5605469 .48673503 .54100546 .5305176 .5019226 .5743001 .46283976 .5961914 .39931236 .5961914 .31134034Z"/>
<path id="font_2_3" d=""/>
<path id="font_2_26" d="M.5258789 .53027346V.3876953C.5021159 .40397135 .47827149 .41601563 .4543457 .42382813 .43041993 .43164063 .40559898 .43554688 .3798828 .43554688 .3310547 .43554688 .29305015 .42125956 .26586915 .39268495 .23868816 .36412049 .22509766 .3242086 .22509766 .27294923 .22509766 .22168987 .23868816 .18177288 .26586915 .15319824 .29305015 .12463379 .3310547 .11035156 .3798828 .11035156 .40722657 .11035156 .43318687 .114461269 .45776368 .122680667 .48234049 .13090007 .5050456 .1430664 .5258789 .15917969V.015625C.49853517 .005533854 .47078453-.0020345052 .44262696-.007080078 .4144694-.012125651 .38623048-.0146484379 .35791017-.0146484379 .25927735-.0146484379 .1821289 .010701497 .12646485 .061401369 .07080078 .11211141 .04296875 .18262737 .04296875 .27294923 .04296875 .3632711 .07080078 .43378196 .12646485 .4844818 .1821289 .53519186 .25927735 .5605469 .35791017 .5605469 .386556 .5605469 .41479493 .5580241 .44262696 .5529785 .47045899 .5479329 .49820964 .54036459 .5258789 .53027346Z"/>
<path id="font_2_39" d="M.51123049 .53027346V.39746095C.47379557 .41308595 .43766276 .4248047 .40283204 .4326172 .3680013 .4404297 .3351237 .44433595 .30419923 .44433595 .2709961 .44433595 .24633789 .44017539 .23022461 .43185426 .21411133 .4235433 .20605469 .41074119 .20605469 .39344789 .20605469 .37941996 .2121582 .36865235 .22436524 .36114503 .23657227 .35364787 .25846354 .34810386 .29003907 .34451295L.32080079 .34010316C.410319 .32868959 .47054038 .30993144 .50146487 .28382875 .53238937 .2577362 .54785159 .21679688 .54785159 .16101074 .54785159 .102620448 .5263672 .058746339 .48339845 .029388428 .4404297 .000030517579 .3763021-.0146484379 .29101563-.0146484379 .2548828-.0146484379 .2175293-.01180013 .17895508-.0061035158 .14038086-.00040690104 .100748699 .0081380209 .060058595 .01953125V.15234375C.09488932 .13541667 .13061524 .12272135 .16723633 .11425781 .20385742 .10579427 .24104817 .1015625 .2788086 .1015625 .31298829 .1015625 .33870445 .106292728 .35595704 .115753177 .37320964 .12521363 .38183595 .13924153 .38183595 .15783692 .38183595 .17349243 .37589518 .18515015 .36401368 .19281006 .35213218 .20048015 .32845054 .20643616 .29296876 .2106781L.26220704 .21459961C.18440755 .22438558 .12988281 .2424876 .09863281 .26890565 .06738281 .29533387 .051757814 .33545939 .051757814 .38928224 .051757814 .44734703 .071614589 .49040733 .111328128 .51846316 .15104167 .546519 .21191406 .5605469 .2939453 .5605469 .32617188 .5605469 .36002604 .55810549 .3955078 .55322268 .4309896 .54833987 .4695638 .5406901 .51123049 .53027346Z"/>
<path id="font_2_40" d="M.27490235 .70214846V.546875H.45507813V.421875H.27490235V.1899414C.27490235 .16455078 .2799479 .14737956 .29003907 .13842774 .30013023 .1294759 .32014976 .125 .35009767 .125H.4399414V0H.29003907C.22102864 0 .17211914 .014404297 .14331055 .04321289 .11450195 .072021488 .100097659 .12093099 .100097659 .1899414V.421875H.013183594V.546875H.100097659V.70214846H.27490235Z"/>
<clipPath id="clip_5">
<path transform="matrix(1,0,0,-1,0,221.60082)" d="M44.648126 36.773126H368.50413V213.10114H44.648126Z"/>
</clipPath>
<path id="font_2_8" d="M.45996095 .3647461C.45996095 .45589195 .45141603 .5201009 .43432618 .55737307 .41723634 .5946452 .38850913 .61328127 .34814454 .61328127 .30777995 .61328127 .27897135 .5946452 .26171876 .55737307 .24446614 .5201009 .23583985 .45589195 .23583985 .3647461 .23583985 .2726237 .24446614 .2076823 .26171876 .16992188 .27897135 .13216146 .30777995 .11328125 .34814454 .11328125 .3881836 .11328125 .41682945 .13216146 .43408204 .16992188 .45133464 .2076823 .45996095 .2726237 .45996095 .3647461M.6479492 .3635254C.6479492 .24267578 .62190756 .1494344 .5698242 .08380127 .5177409 .01816813 .44384767-.0146484379 .34814454-.0146484379 .25211589-.0146484379 .17805989 .01816813 .12597656 .08380127 .07389323 .1494344 .047851564 .24267578 .047851564 .3635254 .047851564 .48470054 .07389323 .5781047 .12597656 .6437378 .17805989 .7093709 .25211589 .7421875 .34814454 .7421875 .44384767 .7421875 .5177409 .7093709 .5698242 .6437378 .62190756 .5781047 .6479492 .48470054 .6479492 .3635254Z"/>
<path id="font_2_7" d="M.10205078 .18945313H.27783204V0H.10205078V.18945313Z"/>
<clipPath id="clip_6">
<path transform="matrix(1,0,0,-1,0,221.60082)" d="M44.648126 36.773126H368.50413V213.10114H44.648126Z"/>
</clipPath>
<path id="font_2_10" d="M.28808595 .13867188H.6088867V0H.07910156V.13867188L.34521485 .37324525C.36897788 .39466859 .386556 .41560365 .39794923 .43605042 .40934245 .4564972 .41503907 .47775779 .41503907 .49983216 .41503907 .5339203 .40356446 .5613505 .38061524 .5821228 .35766603 .6028951 .32714845 .61328127 .2890625 .61328127 .25976563 .61328127 .22770183 .60705569 .1928711 .5946045 .15804036 .5821533 .12076823 .56363937 .08105469 .5390625V.69921877C.1233724 .7132161 .16520183 .72387698 .20654297 .7312012 .24788411 .7385254 .28841148 .7421875 .328125 .7421875 .4153646 .7421875 .4831543 .72299197 .53149417 .68460085 .579834 .6462199 .6040039 .5927124 .6040039 .52407839 .6040039 .48438517 .59375 .44737754 .5732422 .41305543 .5527344 .3787435 .50960287 .3327993 .44384767 .27522279L.28808595 .13867188Z"/>
<clipPath id="clip_7">
<path transform="matrix(1,0,0,-1,0,221.60082)" d="M44.648126 36.773126H368.50413V213.10114H44.648126Z"/>
</clipPath>
<path id="font_2_11" d="M.36816407 .57470706 .16210938 .26953126H.36816407V.57470706M.33691407 .7294922H.54589846V.26953126H.64990237V.1328125H.54589846V0H.36816407V.1328125H.044921876V.29408265L.33691407 .7294922Z"/>
<clipPath id="clip_8">
<path transform="matrix(1,0,0,-1,0,221.60082)" d="M44.648126 36.773126H368.50413V213.10114H44.648126Z"/>
</clipPath>
<path id="font_2_12" d="M.3618164 .359375C.3289388 .359375 .3042806 .3487142 .2878418 .32739259 .27140299 .30607096 .2631836 .27408854 .2631836 .23144531 .2631836 .18880208 .27140299 .15681966 .2878418 .13549805 .3042806 .11417643 .3289388 .103515628 .3618164 .103515628 .39501954 .103515628 .41984049 .11417643 .4362793 .13549805 .4527181 .15681966 .4609375 .18880208 .4609375 .23144531 .4609375 .27408854 .4527181 .30607096 .4362793 .32739259 .41984049 .3487142 .39501954 .359375 .3618164 .359375M.5942383 .70996096V.5751953C.5633138 .58984377 .5341797 .6006673 .50683596 .607666 .4794922 .61466476 .45279948 .61816409 .4267578 .61816409 .37076823 .61816409 .32714845 .6025798 .29589845 .57141116 .26464845 .5402425 .24641927 .49397788 .24121094 .4326172 .2626953 .44856773 .28597007 .4605306 .31103517 .46850587 .33610026 .4764811 .363444 .48046876 .3930664 .48046876 .4676107 .48046876 .5277507 .45865885 .5734863 .41503907 .619222 .37141929 .64208987 .31429038 .64208987 .24365235 .64208987 .16552735 .61653646 .10294596 .5654297 .055908204 .51432296 .008870442 .44580079-.0146484379 .35986329-.0146484379 .26513673-.0146484379 .19181316 .01735433 .13989258 .08135986 .08797201 .1453654 .06201172 .23616536 .06201172 .35375978 .06201172 .47427369 .09236654 .5689748 .15307617 .63786318 .21378581 .70676168 .29703776 .74121096 .40283204 .74121096 .4363607 .74121096 .46891276 .73860678 .5004883 .73339846 .5320638 .7281901 .5633138 .7203776 .5942383 .70996096Z"/>
<clipPath id="clip_9">
<path transform="matrix(1,0,0,-1,0,221.60082)" d="M44.648126 36.773126H368.50413V213.10114H44.648126Z"/>
</clipPath>
<path id="font_2_13" d="M.34814454 .32617188C.31298829 .32617188 .28597007 .31654869 .26708985 .29730226 .24820964 .27805583 .23876953 .25048829 .23876953 .21459961 .23876953 .17871094 .24820964 .15122478 .26708985 .13214112 .28597007 .11305746 .31298829 .103515628 .34814454 .103515628 .38297526 .103515628 .40966798 .11305746 .42822267 .13214112 .44677735 .15122478 .4560547 .17871094 .4560547 .21459961 .4560547 .2508138 .44677735 .27846275 .42822267 .2975464 .40966798 .31663005 .38297526 .32617188 .34814454 .32617188M.2109375 .388443C.16666667 .40177918 .13330078 .42227174 .110839847 .44992066 .088378909 .47756959 .07714844 .5120494 .07714844 .55336 .07714844 .6148427 .100097659 .6616821 .1459961 .6938782 .19189453 .7260844 .25927735 .7421875 .34814454 .7421875 .4363607 .7421875 .50341799 .7261658 .5493164 .6941223 .59521487 .66208907 .61816409 .6151683 .61816409 .55336 .61816409 .5120494 .60685226 .47756959 .5842285 .44992066 .5616048 .42227174 .52815756 .40177918 .48388673 .388443 .5333659 .37475077 .5707194 .3524933 .59594729 .32167054 .6211751 .29084779 .63378909 .25195823 .63378909 .20500183 .63378909 .1325938 .6097819 .07788086 .5617676 .040863038 .51375326 .0038553875 .44254557-.0146484379 .34814454-.0146484379 .25341798-.0146484379 .18188477 .0038553875 .13354492 .040863038 .08520508 .07788086 .061035158 .1325938 .061035158 .20500183 .061035158 .25195823 .073649089 .29084779 .09887695 .32167054 .12410482 .3524933 .16145833 .37475077 .2109375 .388443M.2548828 .5344238C.2548828 .5055339 .26293946 .48329673 .27905274 .4677124 .29516603 .45212809 .31819663 .44433595 .34814454 .44433595 .3774414 .44433595 .4000651 .45212809 .41601563 .4677124 .43196617 .48329673 .4399414 .5055339 .4399414 .5344238 .4399414 .5633138 .43196617 .58546957 .41601563 .6008911 .4000651 .6163127 .3774414 .62402346 .34814454 .62402346 .31819663 .62402346 .29516603 .61623129 .27905274 .600647 .26293946 .5850627 .2548828 .5629883 .2548828 .5344238Z"/>
<clipPath id="clip_10">
<path transform="matrix(1,0,0,-1,0,221.60082)" d="M44.648126 36.773126H368.50413V213.10114H44.648126Z"/>
</clipPath>
<path id="font_2_9" d="M.1171875 .12988281H.28320313V.6015625L.11279297 .56640627V.69433596L.28222657 .7294922H.4609375V.12988281H.6269531V0H.1171875V.12988281Z"/>
<path id="font_2_14" d="M.38378907 .44726563C.41341148 .44726563 .4358724 .45377604 .45117188 .46679688 .46647135 .47981773 .4741211 .49902345 .4741211 .52441409 .4741211 .5494792 .46647135 .5686035 .45117188 .5817871 .4358724 .5949707 .41341148 .6015625 .38378907 .6015625H.27978517V.44726563H.38378907M.39013673 .12792969C.42789714 .12792969 .45629884 .1359253 .4753418 .1519165 .49438478 .16790772 .50390627 .1920573 .50390627 .22436524 .50390627 .25602214 .49446617 .2797648 .47558595 .29559327 .45670573 .31142173 .42822267 .31933595 .39013673 .31933595H.27978517V.12792969H.39013673M.5649414 .390625C.60530599 .3788961 .63655599 .3572235 .6586914 .3256073 .68082687 .2939911 .69189456 .25520326 .69189456 .20924378 .69189456 .13883972 .66813156 .086364749 .62060549 .051818849 .5730794 .01727295 .5008138 0 .4038086 0H.091796878V.7294922H.37402345C.4752604 .7294922 .548584 .7141927 .59399417 .68359377 .6394043 .6529948 .6621094 .6040039 .6621094 .5366211 .6621094 .50113937 .6538086 .47094728 .63720706 .44604493 .62060549 .42114259 .5965169 .40266929 .5649414 .390625Z"/>
<path id="font_2_6" d="M.05419922 .359375H.36083985V.21679688H.05419922V.359375Z"/>
<path id="font_2_19" d="M.4248047 .60546877C.36751304 .60546877 .32307945 .58433029 .2915039 .5420532 .25992839 .4997762 .24414063 .44026695 .24414063 .3635254 .24414063 .28710938 .25992839 .22776287 .2915039 .18548584 .32307945 .14320882 .36751304 .12207031 .4248047 .12207031 .48242188 .12207031 .52701827 .14320882 .55859377 .18548584 .59016928 .22776287 .60595706 .28710938 .60595706 .3635254 .60595706 .44026695 .59016928 .4997762 .55859377 .5420532 .52701827 .58433029 .48242188 .60546877 .4248047 .60546877M.4248047 .7421875C.5419922 .7421875 .63378909 .7086334 .7001953 .64152529 .76660159 .5744273 .7998047 .48176066 .7998047 .3635254 .7998047 .24561565 .76660159 .15310669 .7001953 .085998538 .63378909 .018900553 .5419922-.0146484379 .4248047-.0146484379 .30794273-.0146484379 .21622722 .018900553 .1496582 .085998538 .083089198 .15310669 .049804689 .24561565 .049804689 .3635254 .049804689 .48176066 .083089198 .5744273 .1496582 .64152529 .21622722 .7086334 .30794273 .7421875 .4248047 .7421875Z"/>
<path id="font_2_29" d="M.44384767 .7597656V.64453127H.34716798C.32242839 .64453127 .30517579 .6400757 .29541017 .63116458 .28564454 .6222636 .28076173 .60680136 .28076173 .58477786V.546875H.43017579V.421875H.28076173V0H.10595703V.421875H.019042969V.546875H.10595703V.58477786C.10595703 .6444092 .122558597 .6884816 .15576172 .71699526 .18896485 .74550887 .24039714 .7597656 .3100586 .7597656H.44384767Z"/>
<path id="font_2_33" d="M.083984378 .7597656H.25878907V0H.083984378V.7597656Z"/>
<path id="font_2_22" d="M.5991211 .7059326V.55078127C.55908206 .56884768 .52001956 .5824788 .4819336 .5916748 .44384767 .6008708 .4078776 .60546877 .37402345 .60546877 .32910157 .60546877 .29589845 .59927877 .27441407 .5868988 .2529297 .574529 .2421875 .5553131 .2421875 .5292511 .2421875 .50970968 .24943035 .4944814 .26391603 .48356629 .2784017 .47265116 .3046875 .46328736 .34277345 .45547486L.42285157 .4394226C.50390627 .42314659 .56152346 .39840699 .5957031 .36520387 .6298828 .3320109 .64697268 .28481547 .64697268 .22361756 .64697268 .14321392 .62312826 .08339945 .57543948 .044174196 .5277507 .0049591066 .45491538-.0146484379 .3569336-.0146484379 .31070964-.0146484379 .2643229-.010238647 .21777344-.0014190674 .17122396 .0074005129 .12467448 .020467123 .078125 .03778076V.19726563C.12467448 .17236328 .16967774 .15360515 .21313477 .14099121 .2565918 .12837728 .2985026 .12207031 .3388672 .12207031 .3798828 .12207031 .41129557 .12891133 .43310548 .14259339 .45491538 .15627544 .4658203 .17582195 .4658203 .20123291 .4658203 .22402954 .4584147 .24161785 .44360353 .2539978 .42879234 .26637779 .3992513 .27745567 .35498048 .28723146L.28222657 .30326844C.20930989 .31889344 .15600586 .34379069 .12231445 .3779602 .08862305 .4121399 .071777347 .45820109 .071777347 .5161438 .071777347 .5887248 .095214847 .64454147 .14208985 .68359377 .18896485 .72265627 .25634767 .7421875 .34423829 .7421875 .38427735 .7421875 .42545573 .73916628 .46777345 .7331238 .5100911 .7270813 .5538737 .7180176 .5991211 .7059326Z"/>
<path id="font_2_16" d="M.091796878 .7294922H.5991211V.58691409H.27978517V.45214845H.5800781V.3095703H.27978517V0H.091796878V.7294922Z"/>
<path id="font_2_4" d="M.37695313-.13183594H.2319336C.1821289-.051432294 .14534505 .024983725 .12158203 .09741211 .09781901 .1698405 .0859375 .24169922 .0859375 .31298829 .0859375 .38427735 .09790039 .45646159 .12182617 .529541 .14575196 .6026204 .18245442 .67903646 .2319336 .75878909H.37695313C.33528648 .6816406 .30403648 .6062012 .28320313 .5324707 .26236979 .45874024 .25195313 .38590495 .25195313 .31396485 .25195313 .24202474 .26228843 .16910808 .28295899 .095214847 .30362956 .021321616 .33496095-.05436198 .37695313-.13183594Z"/>
<path id="font_2_5" d="M.080078128-.13183594C.12174479-.05436198 .1529948 .021321616 .17382813 .095214847 .19466146 .16910808 .20507813 .24202474 .20507813 .31396485 .20507813 .38590495 .19466146 .45874024 .17382813 .5324707 .1529948 .6062012 .12174479 .6816406 .080078128 .75878909H.22509766C.2745768 .67903646 .3112793 .6026204 .33520509 .529541 .35913087 .45646159 .37109376 .38427735 .37109376 .31298829 .37109376 .24169922 .35921226 .1698405 .33544923 .09741211 .3116862 .024983725 .27490235-.051432294 .22509766-.13183594H.080078128Z"/>
<path id="font_2_25" d="M.375 .11230469C.4124349 .11230469 .44099937 .12601726 .46069337 .15344239 .48038737 .18086751 .49023438 .22070313 .49023438 .27294923 .49023438 .3251953 .48038737 .3650309 .46069337 .39245606 .44099937 .4198812 .4124349 .43359376 .375 .43359376 .3375651 .43359376 .3088379 .4197998 .28881837 .3922119 .26879884 .36462403 .25878907 .32486979 .25878907 .27294923 .25878907 .22102864 .26879884 .18127442 .28881837 .15368653 .3088379 .12609864 .3375651 .11230469 .375 .11230469M.25878907 .46679688C.2828776 .4988607 .3095703 .52250167 .3388672 .5377197 .36816407 .5529378 .40185548 .5605469 .4399414 .5605469 .5073242 .5605469 .5626628 .533727 .60595706 .48008729 .6492513 .42644755 .67089846 .35740153 .67089846 .27294923 .67089846 .1884969 .6492513 .11945089 .60595706 .06581116 .5626628 .012171428 .5073242-.0146484379 .4399414-.0146484379 .40185548-.0146484379 .36816407-.007039388 .3388672 .008178711 .3095703 .02339681 .2828776 .04703776 .25878907 .07910156V0H.083984378V.7597656H.25878907V.46679688Z"/>
<path id="font_2_15" d="M.27978517 .58691409V.14257813H.34716798C.42399089 .14257813 .48266603 .16160076 .52319338 .199646 .5637207 .23769124 .5839844 .29296876 .5839844 .36547853 .5839844 .43766276 .56380209 .49261476 .5234375 .5303345 .4830729 .5680542 .4243164 .58691409 .34716798 .58691409H.27978517M.091796878 .7294922H.29003907C.40071617 .7294922 .4831543 .7215932 .5373535 .7057953 .59155276 .6899974 .6380208 .66320297 .6767578 .625412 .7109375 .59251406 .7363281 .5545654 .7529297 .51156619 .76953127 .46857707 .77783206 .4198812 .77783206 .36547853 .77783206 .3104248 .76953127 .26131694 .7529297 .2181549 .7363281 .17500305 .7109375 .13697815 .6767578 .1040802 .6376953 .06628927 .5908203 .03949483 .5361328 .0236969 .4814453 .007898967 .39941407 0 .29003907 0H.091796878V.7294922Z"/>
<path id="font_2_20" d="M.091796878 .7294922H.4038086C.49658204 .7294922 .56778976 .70888265 .61743167 .6676636 .66707357 .6264445 .69189456 .5677083 .69189456 .49145509 .69189456 .4148763 .66707357 .3559774 .61743167 .3147583 .56778976 .27353923 .49658204 .2529297 .4038086 .2529297H.27978517V0H.091796878V.7294922M.27978517 .59277346V.38964845H.38378907C.4202474 .38964845 .44840495 .39849855 .46826173 .41619874 .4881185 .43389894 .49804688 .45898438 .49804688 .49145509 .49804688 .5239258 .4881185 .54892989 .46826173 .5664673 .44840495 .5840047 .4202474 .59277346 .38378907 .59277346H.27978517Z"/>
<path id="font_2_21" d="M.35888673 .40625C.39827476 .40625 .42651368 .41355387 .44360353 .42816163 .46069337 .44276939 .46923829 .46679688 .46923829 .50024417 .46923829 .5333557 .46069337 .5570526 .44360353 .57133486 .42651368 .58562728 .39827476 .59277346 .35888673 .59277346H.27978517V.40625H.35888673M.27978517 .2763672V0H.091796878V.7294922H.37890626C.4749349 .7294922 .5453288 .7133789 .5900879 .68115237 .634847 .6489258 .65722659 .59798178 .65722659 .5283203 .65722659 .48014323 .6455892 .44059245 .62231448 .40966798 .59903976 .3787435 .56396487 .35595704 .51708987 .3413086 .54280599 .33543907 .5658366 .3221588 .58618167 .3014679 .6065267 .28078715 .6271159 .24943035 .6479492 .20739746L.75 0H.5498047L.4609375 .18147278C.44303385 .21799214 .42488609 .24293518 .40649415 .25630189 .3881022 .26967875 .36360679 .2763672 .3330078 .2763672H.27978517Z"/>
<path id="font_2_18" d="M.091796878 .7294922H.27978517V.14257813H.6098633V0H.091796878V.7294922Z"/>
<path id="font_2_17" d="M.7470703 .053955079C.7001953 .03108724 .65152999 .01393636 .6010742 .0025024415 .55061849-.008931478 .49853517-.0146484379 .44482423-.0146484379 .32340495-.0146484379 .22721355 .019307455 .15625 .08721924 .08528646 .15514119 .049804689 .24724324 .049804689 .3635254 .049804689 .48110963 .0859375 .57361349 .15820313 .641037 .23046875 .70847067 .3294271 .7421875 .45507813 .7421875 .50358077 .7421875 .5500488 .73760989 .5944824 .7284546 .638916 .7193095 .68082687 .7057546 .72021487 .6877899V.5361328C.6795247 .55940756 .6390788 .5767822 .59887698 .58825686 .5586751 .59973147 .5183919 .60546877 .47802735 .60546877 .40315757 .60546877 .34545899 .5845744 .30493165 .54278567 .2644043 .5009969 .24414063 .4412435 .24414063 .3635254 .24414063 .28645835 .26367188 .22694905 .30273438 .18499756 .34179688 .14304607 .3972982 .12207031 .46923829 .12207031 .48876954 .12207031 .5069173 .123291019 .52368167 .12573242 .540446 .128184 .5555013 .13202413 .56884768 .13725281V.27929688H.45410157V.40527345H.7470703V.053955079Z"/>
<path id="font_2_37" d="M.25878907 .07910156V-.20800781H.083984378V.546875H.25878907V.46679688C.2828776 .4988607 .3095703 .52250167 .3388672 .5377197 .36816407 .5529378 .40185548 .5605469 .4399414 .5605469 .5073242 .5605469 .5626628 .533727 .60595706 .48008729 .6492513 .42644755 .67089846 .35740153 .67089846 .27294923 .67089846 .1884969 .6492513 .11945089 .60595706 .06581116 .5626628 .012171428 .5073242-.0146484379 .4399414-.0146484379 .40185548-.0146484379 .36816407-.007039388 .3388672 .008178711 .3095703 .02339681 .2828776 .04703776 .25878907 .07910156M.375 .43359376C.3375651 .43359376 .3088379 .4197998 .28881837 .3922119 .26879884 .36462403 .25878907 .32486979 .25878907 .27294923 .25878907 .22102864 .26879884 .18127442 .28881837 .15368653 .3088379 .12609864 .3375651 .11230469 .375 .11230469 .4124349 .11230469 .44099937 .12601726 .46069337 .15344239 .48038737 .18086751 .49023438 .22070313 .49023438 .27294923 .49023438 .3251953 .48038737 .3650309 .46069337 .39245606 .44099937 .4198812 .4124349 .43359376 .375 .43359376Z"/>
<path id="font_11_8" d="M.17822266 .7597656H.3540039L.20605469 0H.030761719L.17822266 .7597656Z"/>
<path id="font_11_6" d="M.62890627 .25354005 .6230469 .22558594H.21386719C.21386719 .22361247 .21370442 .22073873 .2133789 .21696472 .21305339 .21320088 .21289063 .21033223 .21289063 .20835877 .21289063 .17259217 .22355144 .14584859 .24487305 .12812805 .26619468 .11041769 .2981771 .1015625 .3408203 .1015625 .37760417 .1015625 .41642253 .10713705 .4572754 .11828613 .49812828 .12943523 .5410156 .1459961 .5859375 .16796875L.55908206 .032226564C.5164388 .016438803 .4740397 .004679362 .43188478-.0030517579 .38972984-.010782878 .34684245-.0146484379 .30322267-.0146484379 .2179362-.0146484379 .15209961 .0050760905 .10571289 .044525148 .059326173 .083984378 .036132814 .13974507 .036132814 .21180725 .036132814 .25354515 .04353841 .29405723 .05834961 .3333435 .073160808 .37263999 .09472656 .40859477 .123046878 .4412079 .15657552 .48033143 .19669597 .5099996 .2434082 .5302124 .29012046 .55043539 .34195964 .5605469 .39892579 .5605469 .472819 .5605469 .53149417 .540858 .5749512 .5014801 .6184082 .46211244 .6401367 .40907798 .6401367 .3423767 .6401367 .32935588 .6392415 .31560264 .6374512 .30111695 .6356608 .28664146 .6328125 .27078248 .62890627 .25354005M.4638672 .33398438C.46484376 .3381958 .46557618 .34248863 .46606446 .3468628 .46655274 .35123698 .46679688 .35553489 .46679688 .35975648 .46679688 .38567607 .45898438 .40625 .44335938 .42147828 .42773438 .4367167 .40657554 .44433595 .3798828 .44433595 .34570313 .44433595 .3166504 .4350179 .2927246 .41638185 .26879884 .39774577 .25048829 .37027995 .23779297 .33398438H.4638672Z"/>
<path id="font_11_14" d="M.5600586 .53027346 .5341797 .39453126C.5 .41080729 .46598307 .4231771 .4321289 .43164063 .39827476 .44010417 .36621095 .44433595 .3359375 .44433595 .30143229 .44433595 .27482096 .43985496 .25610353 .43089295 .23738607 .42193095 .22802735 .40914408 .22802735 .39253236 .22802735 .38275657 .23323567 .37493388 .24365235 .36906434 .254069 .36320497 .2745768 .35701499 .30517579 .35049439L.33691407 .34461976C.4075521 .3296051 .45703126 .31026713 .48535157 .28660584 .5136719 .2629547 .52783206 .2300822 .52783206 .18798828 .52783206 .12435913 .5029297 .07467651 .453125 .03894043 .4033203 .0032145184 .33365885-.0146484379 .24414063-.0146484379 .20670574-.0146484379 .16845703-.01171875 .12939453-.005859375 .09033203 0 .05045573 .0087890629 .009765625 .020507813L.036132814 .15820313C.067708339 .13948567 .10148112 .12536621 .13745117 .11584473 .17342122 .10632324 .21028646 .1015625 .24804688 .1015625 .28483073 .1015625 .3125 .10598246 .3310547 .11482239 .34960938 .123662319 .35888673 .13659668 .35888673 .15362549 .35888673 .16541545 .35367839 .17458089 .34326173 .18112183 .33284507 .18767293 .3113607 .1943868 .2788086 .20126343L.24707031 .20713806C.18457031 .22016907 .13997396 .23939514 .11328125 .26481629 .08658854 .29023744 .07324219 .32543437 .07324219 .3704071 .07324219 .43134056 .09627279 .47826133 .14233399 .51116946 .18839519 .5440877 .25423179 .5605469 .33984376 .5605469 .37727867 .5605469 .4141439 .5580241 .45043946 .5529785 .48673503 .5479329 .5232747 .54036459 .5600586 .53027346Z"/>
<path id="font_11_3" d=""/>
<path id="font_11_16" d="M.067871097 .21289063 .13183594 .546875H.3071289L.25195313 .26220704C.24804688 .24365235 .24511719 .22786458 .24316406 .21484375 .24121094 .20182292 .24023438 .19156902 .24023438 .18408203 .24023438 .16357422 .24593099 .1476237 .25732423 .13623047 .26871745 .12483724 .2849935 .119140628 .30615235 .119140628 .34228517 .119140628 .3733724 .13313802 .39941407 .16113281 .42545573 .18912761 .44335938 .22802735 .453125 .27783204L.5058594 .546875H.68115237L.5751953 0H.39892579L.41503907 .080078128C.38509117 .048339845 .35367839 .024617514 .32080079 .008911133 .2879232-.0067952477 .25325523-.0146484379 .21679688-.0146484379 .16699219-.0146484379 .12841797-.0014394125 .10107422 .024978638 .07373047 .05140686 .060058595 .088760379 .060058595 .13703919 .060058595 .14846294 .060709638 .16053264 .06201172 .17324829 .063313808 .18597412 .06526693 .19918823 .067871097 .21289063Z"/>
<path id="font_11_12" d="M.22216797 .07861328 .16601563-.20800781H-.009765625L.13720703 .546875H.31298829L.296875 .46714784C.32356773 .49909974 .3515625 .52265426 .38085938 .5378113 .41015626 .5529683 .44222007 .5605469 .47705079 .5605469 .5385742 .5605469 .58723959 .54098007 .6230469 .5018463 .6588542 .46272279 .6767578 .40941368 .6767578 .34191896 .6767578 .29985557 .6704915 .2589315 .657959 .21914673 .64542648 .17936199 .6274414 .14316814 .6040039 .110565189 .57438156 .069478359 .54093429 .038335165 .5036621 .01713562 .46638999-.0040537517 .42643229-.0146484379 .38378907-.0146484379 .34635417-.0146484379 .31453453-.007080078 .28833009 .008056641 .26212565 .02319336 .24007161 .04671224 .22216797 .07861328M.40576173 .43359376C.36083985 .43359376 .32413737 .41277568 .2956543 .37113954 .26717124 .32951356 .2529297 .27539573 .2529297 .20878601 .2529297 .17874654 .26098634 .15515645 .2770996 .13801575 .2932129 .12087504 .31559245 .11230469 .34423829 .11230469 .3881836 .11230469 .42447917 .13279216 .453125 .17376709 .48177085 .21474202 .49609376 .26723228 .49609376 .3312378 .49609376 .36454264 .48836265 .3899282 .4729004 .4073944 .45743815 .42486064 .4350586 .43359376 .40576173 .43359376Z"/>
<path id="font_11_13" d="M.51416018 .39746095C.5021159 .40445964 .48876954 .40979005 .4741211 .41345216 .45947267 .41711427 .4436849 .4189453 .4267578 .4189453 .38216148 .4189453 .34513346 .40459696 .31567384 .37590028 .2862142 .34720359 .26627604 .30578614 .25585938 .25164796L.20605469 0H.030761719L.13720703 .546875H.31298829L.2939453 .453125C.31705729 .4877828 .34594728 .5143483 .38061524 .53282168 .4152832 .5513051 .45377604 .5605469 .49609376 .5605469 .5022786 .5605469 .50927737 .5602112 .51708987 .5595398 .52490237 .5588684 .5341797 .55785629 .5449219 .5565033L.51416018 .39746095Z"/>
<path id="font_11_17" d="M.06298828 .546875H.2241211L.29492188 .16503906 .50097659 .546875H.67822268L.3569336 0H.171875L.06298828 .546875Z"/>
<path id="font_11_7" d="M.13720703 .546875H.31298829L.20605469 0H.030761719L.13720703 .546875M.17822266 .7597656H.3540039L.32617188 .6171875H.14990235L.17822266 .7597656Z"/>
<path id="font_11_11" d="M.375 .43554688C.3297526 .43554688 .29248048 .41497804 .2631836 .37384034 .23388672 .33270265 .21923828 .28029887 .21923828 .21662903 .21923828 .1820221 .22713216 .1556549 .24291992 .13752747 .25870768 .119410198 .28173829 .11035156 .31201173 .11035156 .35725913 .11035156 .39453126 .13100179 .42382813 .17230225 .453125 .2136027 .46777345 .2662506 .46777345 .33024598 .46777345 .36452738 .45987956 .39064536 .4440918 .40859986 .42830406 .42656455 .40527345 .43554688 .375 .43554688M.38916017 .5605469C.47054038 .5605469 .5345052 .5398407 .5810547 .49842835 .6276042 .457016 .6508789 .40060426 .6508789 .32919313 .6508789 .28778077 .6435547 .24758911 .62890627 .20861817 .6142578 .1696574 .5929362 .13403829 .5649414 .101760867 .5317383 .06328837 .49251304 .034266157 .44726563 .014694214 .40201823-.0048675539 .3515625-.0146484379 .29589845-.0146484379 .2154948-.0146484379 .15209961 .0060577394 .10571289 .047470094 .059326173 .08888245 .036132814 .14529419 .036132814 .21670532 .036132814 .25779215 .043619794 .29797874 .05859375 .337265 .07356771 .3765615 .095052089 .4125112 .123046878 .44511415 .15559896 .48293559 .19441732 .5116272 .23950196 .53118899 .28458659 .5507609 .33447267 .5605469 .38916017 .5605469Z"/>
<path id="font_11_10" d="M.64501956 .33338929 .5800781 0H.40478517L.45996095 .28547669C.4638672 .30405174 .46687828 .31977336 .46899415 .3326416 .47111003 .34552003 .47216798 .3557078 .47216798 .36320497 .47216798 .38405863 .46638999 .40018717 .45483399 .41159059 .44327799 .42300416 .42692057 .42871095 .40576173 .42871095 .3696289 .42871095 .33862306 .4146169 .31274415 .38642884 .28686524 .35824076 .26888023 .31921388 .25878907 .26934815L.20605469 0H.030761719L.13720703 .546875H.31298829L.296875 .46713258C.32910157 .49875895 .36149089 .52223208 .39404298 .5375519 .42659507 .5528819 .46061198 .5605469 .49609376 .5605469 .5465495 .5605469 .5854492 .5473582 .61279299 .52098086 .6401367 .49460349 .6538086 .45747376 .6538086 .40959168 .6538086 .39917503 .6530762 .38761393 .6516113 .37490846 .6501465 .36221314 .6479492 .3483734 .64501956 .33338929Z"/>
<path id="font_11_4" d="M.080078128 .18945313H.25585938L.22705078 .040527345 .06982422-.14160156H-.034179689L.05078125 .040527345 .080078128 .18945313Z"/>
<path id="font_11_9" d="M.6269531 .4564209C.6539714 .48999024 .6846517 .5157369 .71899417 .5336609 .7533366 .5515849 .7890625 .5605469 .8261719 .5605469 .875 .5605469 .91349288 .5471141 .9416504 .5202484 .9698079 .49338279 .9838867 .4564972 .9838867 .40959168 .9838867 .39982606 .9831543 .38867188 .98168948 .37612916 .9802246 .3635966 .97802737 .34934999 .97509768 .33338929L.91015627 0H.7338867L.7890625 .28547669 .79052737 .29281617C.7989909 .33322145 .80322268 .35913087 .80322268 .37054444 .80322268 .3884684 .7980957 .40264384 .7878418 .41307069 .7775879 .42349754 .7636719 .42871095 .74609377 .42871095 .7125651 .42871095 .6841634 .4149424 .6608887 .3874054 .63761398 .35986839 .62093099 .32051597 .61083987 .26934815L.55810549 0H.38183595L.43798829 .28547669C.4428711 .30992127 .44628907 .32841493 .4482422 .34095765 .4501953 .35351054 .45117188 .3633728 .45117188 .37054444 .45117188 .38879396 .4461263 .40305076 .43603517 .41331483 .425944 .4235789 .41194663 .42871095 .39404298 .42871095 .3618164 .42871095 .33357749 .41445414 .30932618 .38594056 .28507487 .35742698 .26822917 .31856285 .25878907 .26934815L.20605469 0H.030761719L.13720703 .546875H.31298829L.296875 .46713258C.32421876 .4981079 .35335288 .5214183 .38427735 .5370636 .4152018 .5527191 .44742839 .5605469 .48095704 .5605469 .51871749 .5605469 .55110678 .5508525 .578125 .5314636 .60514327 .51207479 .62141928 .48706056 .6269531 .4564209Z"/>
<path id="font_11_5" d="M.40576173 .43359376C.36083985 .43359376 .32413737 .41277568 .2956543 .37113954 .26717124 .32951356 .2529297 .27539573 .2529297 .20878601 .2529297 .17874654 .26098634 .15515645 .2770996 .13801575 .2932129 .12087504 .31559245 .11230469 .34423829 .11230469 .3881836 .11230469 .42447917 .13279216 .453125 .17376709 .48177085 .21474202 .49609376 .26723228 .49609376 .3312378 .49609376 .36454264 .48836265 .3899282 .4729004 .4073944 .45743815 .42486064 .4350586 .43359376 .40576173 .43359376M.22216797 .07876587 .20605469 0H.030761719L.17822266 .7597656H.3540039L.296875 .46728517C.32356773 .4991862 .3515625 .5227051 .38085938 .5378418 .41015626 .5529785 .44222007 .5605469 .47705079 .5605469 .5385742 .5605469 .58723959 .54098007 .6230469 .5018463 .6588542 .46272279 .6767578 .40941368 .6767578 .34191896 .6767578 .29985557 .6704915 .2589315 .657959 .21914673 .64542648 .17936199 .6274414 .14316814 .6040039 .110565189 .57438156 .069478359 .54093429 .038335165 .5036621 .01713562 .46638999-.0040537517 .42643229-.0146484379 .38378907-.0146484379 .34635417-.0146484379 .31453453-.0070699059 .28833009 .008087158 .26212565 .023254395 .24007161 .046813966 .22216797 .07876587Z"/>
<path id="font_11_15" d="M.35986329 .70214846 .33007813 .546875H.50878909L.48388673 .421875H.30517579L.2602539 .19042969C.2589518 .18522136 .25805665 .18082683 .25756837 .1772461 .25708009 .17366536 .25683595 .17024739 .25683595 .16699219 .25683595 .15201824 .26180015 .14127605 .27172853 .13476563 .2816569 .1282552 .29833985 .125 .32177735 .125H.41210938L.38720704 0H.24023438C.1875 0 .14729817 .011067708 .119628909 .033203126 .09195963 .055338544 .078125 .087239589 .078125 .12890625 .078125 .13802083 .07861328 .14778646 .079589847 .15820313 .080566409 .1686198 .08203125 .17919922 .083984378 .1899414L.12890625 .421875H.04296875L.06689453 .546875H.1538086L.18408203 .70214846H.35986329Z"/>
</defs>
<path transform="matrix(1,0,0,-1,0,221.60082)" d="M0 0H372.82414V221.60082H0Z" fill="#0d1b19"/>
<path transform="matrix(1,0,0,-1,0,221.60082)" d="M44.648126 36.773126H368.50413V213.10112H44.648126Z" fill="#0d1b19"/>
<g clip-path="url(#clip_1)">
<path transform="matrix(1,0,0,-1,0,221.60082)" stroke-width=".5" stroke-linecap="square" stroke-linejoin="round" fill="none" stroke="#1a3a34" stroke-opacity=".5" d="M68.63746 36.773126V213.10112"/>
</g>
<path transform="matrix(1,0,0,-1,0,221.60082)" d="M68.63746 36.773126V33.773126" fill="#d0e8e0"/>
<path transform="matrix(1,0,0,-1,0,221.60082)" stroke-width=".7" stroke-linecap="butt" stroke-linejoin="round" fill="none" stroke="#d0e8e0" d="M68.63746 36.773126V33.773126"/>
<use data-text="n" xlink:href="#font_2_35" transform="matrix(10.5,0,0,-10.5,53.996835,199.18708)" fill="#d0e8e0"/>
<use data-text="o" xlink:href="#font_2_36" transform="matrix(10.5,0,0,-10.5,61.472837,199.18708)" fill="#d0e8e0"/>
<use data-text="n" xlink:href="#font_2_35" transform="matrix(10.5,0,0,-10.5,68.68633,199.18708)" fill="#d0e8e0"/>
<use data-text="e" xlink:href="#font_2_28" transform="matrix(10.5,0,0,-10.5,76.16234,199.18708)" fill="#d0e8e0"/>
<g clip-path="url(#clip_3)">
<path transform="matrix(1,0,0,-1,0,221.60082)" stroke-width=".5" stroke-linecap="square" stroke-linejoin="round" fill="none" stroke="#1a3a34" stroke-opacity=".5" d="M203.57746 36.773126V213.10112"/>
</g>
<path transform="matrix(1,0,0,-1,0,221.60082)" d="M203.57746 36.773126V33.773126" fill="#d0e8e0"/>
<path transform="matrix(1,0,0,-1,0,221.60082)" stroke-width=".7" stroke-linecap="butt" stroke-linejoin="round" fill="none" stroke="#d0e8e0" d="M203.57746 36.773126V33.773126"/>
<use data-text="m" xlink:href="#font_2_34" transform="matrix(10.5,0,0,-10.5,179.78839,199.18708)" fill="#d0e8e0"/>
<use data-text="e" xlink:href="#font_2_28" transform="matrix(10.5,0,0,-10.5,190.72939,199.18708)" fill="#d0e8e0"/>
<use data-text="d" xlink:href="#font_2_27" transform="matrix(10.5,0,0,-10.5,197.84839,199.18708)" fill="#d0e8e0"/>
<use data-text="i" xlink:href="#font_2_32" transform="matrix(10.5,0,0,-10.5,205.3664,199.18708)" fill="#d0e8e0"/>
<use data-text="u" xlink:href="#font_2_41" transform="matrix(10.5,0,0,-10.5,208.9679,199.18708)" fill="#d0e8e0"/>
<use data-text="m" xlink:href="#font_2_34" transform="matrix(10.5,0,0,-10.5,216.4439,199.18708)" fill="#d0e8e0"/>
<g clip-path="url(#clip_4)">
<path transform="matrix(1,0,0,-1,0,221.60082)" stroke-width=".5" stroke-linecap="square" stroke-linejoin="round" fill="none" stroke="#1a3a34" stroke-opacity=".5" d="M338.51747 36.773126V213.10112"/>
</g>
<path transform="matrix(1,0,0,-1,0,221.60082)" d="M338.51747 36.773126V33.773126" fill="#d0e8e0"/>
<path transform="matrix(1,0,0,-1,0,221.60082)" stroke-width=".7" stroke-linecap="butt" stroke-linejoin="round" fill="none" stroke="#d0e8e0" d="M338.51747 36.773126V33.773126"/>
<use data-text="h" xlink:href="#font_2_31" transform="matrix(10.5,0,0,-10.5,325.49403,199.18708)" fill="#d0e8e0"/>
<use data-text="i" xlink:href="#font_2_32" transform="matrix(10.5,0,0,-10.5,332.97004,199.18708)" fill="#d0e8e0"/>
<use data-text="g" xlink:href="#font_2_30" transform="matrix(10.5,0,0,-10.5,336.57154,199.18708)" fill="#d0e8e0"/>
<use data-text="h" xlink:href="#font_2_31" transform="matrix(10.5,0,0,-10.5,344.0895,199.18708)" fill="#d0e8e0"/>
<use data-text="T" xlink:href="#font_2_23" transform="matrix(12,0,0,-12,163.00582,214.68706)" fill="#d0e8e0"/>
<use data-text="r" xlink:href="#font_2_38" transform="matrix(12,0,0,-12,169.87732,214.68706)" fill="#d0e8e0"/>
<use data-text="a" xlink:href="#font_2_24" transform="matrix(12,0,0,-12,175.79332,214.68706)" fill="#d0e8e0"/>
<use data-text="i" xlink:href="#font_2_32" transform="matrix(12,0,0,-12,183.89331,214.68706)" fill="#d0e8e0"/>
<use data-text="n" xlink:href="#font_2_35" transform="matrix(12,0,0,-12,188.00931,214.68706)" fill="#d0e8e0"/>
<use data-text="i" xlink:href="#font_2_32" transform="matrix(12,0,0,-12,196.55332,214.68706)" fill="#d0e8e0"/>
<use data-text="n" xlink:href="#font_2_35" transform="matrix(12,0,0,-12,200.66931,214.68706)" fill="#d0e8e0"/>
<use data-text="g" xlink:href="#font_2_30" transform="matrix(12,0,0,-12,209.21332,214.68706)" fill="#d0e8e0"/>
<use data-text=" " xlink:href="#font_2_3" transform="matrix(12,0,0,-12,217.80532,214.68706)" fill="#d0e8e0"/>
<use data-text="c" xlink:href="#font_2_26" transform="matrix(12,0,0,-12,221.98133,214.68706)" fill="#d0e8e0"/>
<use data-text="o" xlink:href="#font_2_36" transform="matrix(12,0,0,-12,229.09732,214.68706)" fill="#d0e8e0"/>
<use data-text="s" xlink:href="#font_2_39" transform="matrix(12,0,0,-12,237.34131,214.68706)" fill="#d0e8e0"/>
<use data-text="t" xlink:href="#font_2_40" transform="matrix(12,0,0,-12,244.48133,214.68706)" fill="#d0e8e0"/>
<g clip-path="url(#clip_5)">
<path transform="matrix(1,0,0,-1,0,221.60082)" stroke-width=".5" stroke-linecap="square" stroke-linejoin="round" fill="none" stroke="#1a3a34" stroke-opacity=".5" d="M44.648126 36.773126H368.50413"/>
</g>
<path transform="matrix(1,0,0,-1,0,221.60082)" d="M44.648126 36.773126H41.648126" fill="#d0e8e0"/>
<path transform="matrix(1,0,0,-1,0,221.60082)" stroke-width=".7" stroke-linecap="butt" stroke-linejoin="round" fill="none" stroke="#d0e8e0" d="M44.648126 36.773126H41.648126"/>
<use data-text="0" xlink:href="#font_2_8" transform="matrix(10.5,0,0,-10.5,20.03875,189.00739)" fill="#d0e8e0"/>
<use data-text="." xlink:href="#font_2_7" transform="matrix(10.5,0,0,-10.5,27.34675,189.00739)" fill="#d0e8e0"/>
<use data-text="0" xlink:href="#font_2_8" transform="matrix(10.5,0,0,-10.5,31.33675,189.00739)" fill="#d0e8e0"/>
<g clip-path="url(#clip_6)">
<path transform="matrix(1,0,0,-1,0,221.60082)" stroke-width=".5" stroke-linecap="square" stroke-linejoin="round" fill="none" stroke="#1a3a34" stroke-opacity=".5" d="M44.648126 72.03873H368.50413"/>
</g>
<path transform="matrix(1,0,0,-1,0,221.60082)" d="M44.648126 72.03873H41.648126" fill="#d0e8e0"/>
<path transform="matrix(1,0,0,-1,0,221.60082)" stroke-width=".7" stroke-linecap="butt" stroke-linejoin="round" fill="none" stroke="#d0e8e0" d="M44.648126 72.03873H41.648126"/>
<use data-text="0" xlink:href="#font_2_8" transform="matrix(10.5,0,0,-10.5,20.03875,153.74178)" fill="#d0e8e0"/>
<use data-text="." xlink:href="#font_2_7" transform="matrix(10.5,0,0,-10.5,27.34675,153.74178)" fill="#d0e8e0"/>
<use data-text="2" xlink:href="#font_2_10" transform="matrix(10.5,0,0,-10.5,31.33675,153.74178)" fill="#d0e8e0"/>
<g clip-path="url(#clip_7)">
<path transform="matrix(1,0,0,-1,0,221.60082)" stroke-width=".5" stroke-linecap="square" stroke-linejoin="round" fill="none" stroke="#1a3a34" stroke-opacity=".5" d="M44.648126 107.30432H368.50413"/>
</g>
<path transform="matrix(1,0,0,-1,0,221.60082)" d="M44.648126 107.30432H41.648126" fill="#d0e8e0"/>
<path transform="matrix(1,0,0,-1,0,221.60082)" stroke-width=".7" stroke-linecap="butt" stroke-linejoin="round" fill="none" stroke="#d0e8e0" d="M44.648126 107.30432H41.648126"/>
<use data-text="0" xlink:href="#font_2_8" transform="matrix(10.5,0,0,-10.5,20.03875,118.47618)" fill="#d0e8e0"/>
<use data-text="." xlink:href="#font_2_7" transform="matrix(10.5,0,0,-10.5,27.34675,118.47618)" fill="#d0e8e0"/>
<use data-text="4" xlink:href="#font_2_11" transform="matrix(10.5,0,0,-10.5,31.33675,118.47618)" fill="#d0e8e0"/>
<g clip-path="url(#clip_8)">
<path transform="matrix(1,0,0,-1,0,221.60082)" stroke-width=".5" stroke-linecap="square" stroke-linejoin="round" fill="none" stroke="#1a3a34" stroke-opacity=".5" d="M44.648126 142.56993H368.50413"/>
</g>
<path transform="matrix(1,0,0,-1,0,221.60082)" d="M44.648126 142.56993H41.648126" fill="#d0e8e0"/>
<path transform="matrix(1,0,0,-1,0,221.60082)" stroke-width=".7" stroke-linecap="butt" stroke-linejoin="round" fill="none" stroke="#d0e8e0" d="M44.648126 142.56993H41.648126"/>
<use data-text="0" xlink:href="#font_2_8" transform="matrix(10.5,0,0,-10.5,20.03875,83.21057)" fill="#d0e8e0"/>
<use data-text="." xlink:href="#font_2_7" transform="matrix(10.5,0,0,-10.5,27.34675,83.21057)" fill="#d0e8e0"/>
<use data-text="6" xlink:href="#font_2_12" transform="matrix(10.5,0,0,-10.5,31.33675,83.21057)" fill="#d0e8e0"/>
<g clip-path="url(#clip_9)">
<path transform="matrix(1,0,0,-1,0,221.60082)" stroke-width=".5" stroke-linecap="square" stroke-linejoin="round" fill="none" stroke="#1a3a34" stroke-opacity=".5" d="M44.648126 177.83553H368.50413"/>
</g>
<path transform="matrix(1,0,0,-1,0,221.60082)" d="M44.648126 177.83553H41.648126" fill="#d0e8e0"/>
<path transform="matrix(1,0,0,-1,0,221.60082)" stroke-width=".7" stroke-linecap="butt" stroke-linejoin="round" fill="none" stroke="#d0e8e0" d="M44.648126 177.83553H41.648126"/>
<use data-text="0" xlink:href="#font_2_8" transform="matrix(10.5,0,0,-10.5,20.03875,47.944978)" fill="#d0e8e0"/>
<use data-text="." xlink:href="#font_2_7" transform="matrix(10.5,0,0,-10.5,27.34675,47.944978)" fill="#d0e8e0"/>
<use data-text="8" xlink:href="#font_2_13" transform="matrix(10.5,0,0,-10.5,31.33675,47.944978)" fill="#d0e8e0"/>
<g clip-path="url(#clip_10)">
<path transform="matrix(1,0,0,-1,0,221.60082)" stroke-width=".5" stroke-linecap="square" stroke-linejoin="round" fill="none" stroke="#1a3a34" stroke-opacity=".5" d="M44.648126 213.10112H368.50413"/>
</g>
<path transform="matrix(1,0,0,-1,0,221.60082)" d="M44.648126 213.10112H41.648126" fill="#d0e8e0"/>
<path transform="matrix(1,0,0,-1,0,221.60082)" stroke-width=".7" stroke-linecap="butt" stroke-linejoin="round" fill="none" stroke="#d0e8e0" d="M44.648126 213.10112H41.648126"/>
<use data-text="1" xlink:href="#font_2_9" transform="matrix(10.5,0,0,-10.5,20.03875,12.679382)" fill="#d0e8e0"/>
<use data-text="." xlink:href="#font_2_7" transform="matrix(10.5,0,0,-10.5,27.34675,12.679382)" fill="#d0e8e0"/>
<use data-text="0" xlink:href="#font_2_8" transform="matrix(10.5,0,0,-10.5,31.33675,12.679382)" fill="#d0e8e0"/>
<use data-text="B" xlink:href="#font_2_14" transform="matrix(0,-12,-12,-0,13.445,179.55432)" fill="#d0e8e0"/>
<use data-text="i" xlink:href="#font_2_32" transform="matrix(0,-12,-12,-0,13.445,170.41033)" fill="#d0e8e0"/>
<use data-text="a" xlink:href="#font_2_24" transform="matrix(0,-12,-12,-0,13.445,166.29433)" fill="#d0e8e0"/>
<use data-text="s" xlink:href="#font_2_39" transform="matrix(0,-12,-12,-0,13.445,158.19432)" fill="#d0e8e0"/>
<use data-text="-" xlink:href="#font_2_6" transform="matrix(0,-12,-12,-0,13.445,151.05432)" fill="#d0e8e0"/>
<use data-text="m" xlink:href="#font_2_34" transform="matrix(0,-12,-12,-0,13.445,146.07433)" fill="#d0e8e0"/>
<use data-text="i" xlink:href="#font_2_32" transform="matrix(0,-12,-12,-0,13.445,133.57032)" fill="#d0e8e0"/>
<use data-text="t" xlink:href="#font_2_40" transform="matrix(0,-12,-12,-0,13.445,129.45432)" fill="#d0e8e0"/>
<use data-text="i" xlink:href="#font_2_32" transform="matrix(0,-12,-12,-0,13.445,123.71832)" fill="#d0e8e0"/>
<use data-text="g" xlink:href="#font_2_30" transform="matrix(0,-12,-12,-0,13.445,119.60232)" fill="#d0e8e0"/>
<use data-text="a" xlink:href="#font_2_24" transform="matrix(0,-12,-12,-0,13.445,111.010318)" fill="#d0e8e0"/>
<use data-text="t" xlink:href="#font_2_40" transform="matrix(0,-12,-12,-0,13.445,102.91032)" fill="#d0e8e0"/>
<use data-text="i" xlink:href="#font_2_32" transform="matrix(0,-12,-12,-0,13.445,97.17432)" fill="#d0e8e0"/>
<use data-text="o" xlink:href="#font_2_36" transform="matrix(0,-12,-12,-0,13.445,93.05832)" fill="#d0e8e0"/>
<use data-text="n" xlink:href="#font_2_35" transform="matrix(0,-12,-12,-0,13.445,84.814319)" fill="#d0e8e0"/>
<use data-text=" " xlink:href="#font_2_3" transform="matrix(0,-12,-12,-0,13.445,76.27032)" fill="#d0e8e0"/>
<use data-text="s" xlink:href="#font_2_39" transform="matrix(0,-12,-12,-0,13.445,72.094318)" fill="#d0e8e0"/>
<use data-text="t" xlink:href="#font_2_40" transform="matrix(0,-12,-12,-0,13.445,64.954319)" fill="#d0e8e0"/>
<use data-text="r" xlink:href="#font_2_38" transform="matrix(0,-12,-12,-0,13.445,59.218317)" fill="#d0e8e0"/>
<use data-text="e" xlink:href="#font_2_28" transform="matrix(0,-12,-12,-0,13.445,53.302316)" fill="#d0e8e0"/>
<use data-text="n" xlink:href="#font_2_35" transform="matrix(0,-12,-12,-0,13.445,45.16632)" fill="#d0e8e0"/>
<use data-text="g" xlink:href="#font_2_30" transform="matrix(0,-12,-12,-0,13.445,36.622316)" fill="#d0e8e0"/>
<use data-text="t" xlink:href="#font_2_40" transform="matrix(0,-12,-12,-0,13.445,28.03032)" fill="#d0e8e0"/>
<use data-text="h" xlink:href="#font_2_31" transform="matrix(0,-12,-12,-0,13.445,22.294312)" fill="#d0e8e0"/>
<path transform="matrix(1,0,0,-1,0,221.60082)" stroke-width=".7" stroke-linecap="square" stroke-miterlimit="10" stroke-linejoin="miter" fill="none" stroke="#6b8f85" d="M44.648126 36.773126V213.10112"/>
<path transform="matrix(1,0,0,-1,0,221.60082)" stroke-width=".7" stroke-linecap="square" stroke-miterlimit="10" stroke-linejoin="miter" fill="none" stroke="#6b8f85" d="M44.648126 36.773126H368.50413"/>
<use data-text="O" xlink:href="#font_2_19" transform="matrix(8.5,0,0,-8.5,79.63612,171.67926)" fill="#6b8f85"/>
<use data-text="f" xlink:href="#font_2_29" transform="matrix(8.5,0,0,-8.5,86.86112,171.67926)" fill="#6b8f85"/>
<use data-text="f" xlink:href="#font_2_29" transform="matrix(8.5,0,0,-8.5,90.558628,171.67926)" fill="#6b8f85"/>
<use data-text="-" xlink:href="#font_2_6" transform="matrix(8.5,0,0,-8.5,94.1155,171.67926)" fill="#6b8f85"/>
<use data-text="t" xlink:href="#font_2_40" transform="matrix(8.5,0,0,-8.5,97.643,171.67926)" fill="#6b8f85"/>
<use data-text="h" xlink:href="#font_2_31" transform="matrix(8.5,0,0,-8.5,101.706,171.67926)" fill="#6b8f85"/>
<use data-text="e" xlink:href="#font_2_28" transform="matrix(8.5,0,0,-8.5,107.757999,171.67926)" fill="#6b8f85"/>
<use data-text="-" xlink:href="#font_2_6" transform="matrix(8.5,0,0,-8.5,113.520999,171.67926)" fill="#6b8f85"/>
<use data-text="s" xlink:href="#font_2_39" transform="matrix(8.5,0,0,-8.5,117.0485,171.67926)" fill="#6b8f85"/>
<use data-text="h" xlink:href="#font_2_31" transform="matrix(8.5,0,0,-8.5,122.106,171.67926)" fill="#6b8f85"/>
<use data-text="e" xlink:href="#font_2_28" transform="matrix(8.5,0,0,-8.5,128.15799,171.67926)" fill="#6b8f85"/>
<use data-text="l" xlink:href="#font_2_33" transform="matrix(8.5,0,0,-8.5,133.92099,171.67926)" fill="#6b8f85"/>
<use data-text="f" xlink:href="#font_2_29" transform="matrix(8.5,0,0,-8.5,136.8365,171.67926)" fill="#6b8f85"/>
<use data-text="S" xlink:href="#font_2_22" transform="matrix(8.5,0,0,-8.5,181.59079,115.96446)" fill="#3b6ea5"/>
<use data-text="F" xlink:href="#font_2_16" transform="matrix(8.5,0,0,-8.5,187.71079,115.96446)" fill="#3b6ea5"/>
<use data-text="T" xlink:href="#font_2_23" transform="matrix(8.5,0,0,-8.5,193.5163,115.96446)" fill="#3b6ea5"/>
<use data-text=" " xlink:href="#font_2_3" transform="matrix(8.5,0,0,-8.5,199.3133,115.96446)" fill="#3b6ea5"/>
<use data-text="(" xlink:href="#font_2_4" transform="matrix(8.5,0,0,-8.5,202.27129,115.96446)" fill="#3b6ea5"/>
<use data-text="d" xlink:href="#font_2_27" transform="matrix(8.5,0,0,-8.5,206.15579,115.96446)" fill="#3b6ea5"/>
<use data-text="i" xlink:href="#font_2_32" transform="matrix(8.5,0,0,-8.5,212.24179,115.96446)" fill="#3b6ea5"/>
<use data-text="s" xlink:href="#font_2_39" transform="matrix(8.5,0,0,-8.5,215.15729,115.96446)" fill="#3b6ea5"/>
<use data-text="t" xlink:href="#font_2_40" transform="matrix(8.5,0,0,-8.5,220.21479,115.96446)" fill="#3b6ea5"/>
<use data-text="i" xlink:href="#font_2_32" transform="matrix(8.5,0,0,-8.5,224.27779,115.96446)" fill="#3b6ea5"/>
<use data-text="l" xlink:href="#font_2_33" transform="matrix(8.5,0,0,-8.5,227.1933,115.96446)" fill="#3b6ea5"/>
<use data-text="l" xlink:href="#font_2_33" transform="matrix(8.5,0,0,-8.5,230.1088,115.96446)" fill="#3b6ea5"/>
<use data-text=")" xlink:href="#font_2_5" transform="matrix(8.5,0,0,-8.5,233.02429,115.96446)" fill="#3b6ea5"/>
<use data-text="S" xlink:href="#font_2_22" transform="matrix(8.5,0,0,-8.5,196.58412,82.331668)" fill="#3b6ea5"/>
<use data-text="F" xlink:href="#font_2_16" transform="matrix(8.5,0,0,-8.5,202.70412,82.331668)" fill="#3b6ea5"/>
<use data-text="T" xlink:href="#font_2_23" transform="matrix(8.5,0,0,-8.5,208.50963,82.331668)" fill="#3b6ea5"/>
<use data-text=" " xlink:href="#font_2_3" transform="matrix(8.5,0,0,-8.5,214.30663,82.331668)" fill="#3b6ea5"/>
<use data-text="(" xlink:href="#font_2_4" transform="matrix(8.5,0,0,-8.5,217.26462,82.331668)" fill="#3b6ea5"/>
<use data-text="r" xlink:href="#font_2_38" transform="matrix(8.5,0,0,-8.5,221.14913,82.331668)" fill="#3b6ea5"/>
<use data-text="u" xlink:href="#font_2_41" transform="matrix(8.5,0,0,-8.5,225.33963,82.331668)" fill="#3b6ea5"/>
<use data-text="b" xlink:href="#font_2_25" transform="matrix(8.5,0,0,-8.5,231.39163,82.331668)" fill="#3b6ea5"/>
<use data-text="r" xlink:href="#font_2_38" transform="matrix(8.5,0,0,-8.5,237.47763,82.331668)" fill="#3b6ea5"/>
<use data-text="i" xlink:href="#font_2_32" transform="matrix(8.5,0,0,-8.5,241.66812,82.331668)" fill="#3b6ea5"/>
<use data-text="c" xlink:href="#font_2_26" transform="matrix(8.5,0,0,-8.5,244.58362,82.331668)" fill="#3b6ea5"/>
<use data-text=")" xlink:href="#font_2_5" transform="matrix(8.5,0,0,-8.5,249.62412,82.331668)" fill="#3b6ea5"/>
<use data-text="S" xlink:href="#font_2_22" transform="matrix(8.5,0,0,-8.5,39.251417,68.95746)" fill="#d4a017"/>
<use data-text="F" xlink:href="#font_2_16" transform="matrix(8.5,0,0,-8.5,45.371416,68.95746)" fill="#d4a017"/>
<use data-text="T" xlink:href="#font_2_23" transform="matrix(8.5,0,0,-8.5,51.176919,68.95746)" fill="#d4a017"/>
<use data-text=" " xlink:href="#font_2_3" transform="matrix(8.5,0,0,-8.5,56.973917,68.95746)" fill="#d4a017"/>
<use data-text="(" xlink:href="#font_2_4" transform="matrix(8.5,0,0,-8.5,59.931917,68.95746)" fill="#d4a017"/>
<use data-text="s" xlink:href="#font_2_39" transform="matrix(8.5,0,0,-8.5,63.816419,68.95746)" fill="#d4a017"/>
<use data-text="e" xlink:href="#font_2_28" transform="matrix(8.5,0,0,-8.5,68.87392,68.95746)" fill="#d4a017"/>
<use data-text="l" xlink:href="#font_2_33" transform="matrix(8.5,0,0,-8.5,74.63692,68.95746)" fill="#d4a017"/>
<use data-text="f" xlink:href="#font_2_29" transform="matrix(8.5,0,0,-8.5,77.55242,68.95746)" fill="#d4a017"/>
<use data-text="-" xlink:href="#font_2_6" transform="matrix(8.5,0,0,-8.5,81.1093,68.95746)" fill="#d4a017"/>
<use data-text="t" xlink:href="#font_2_40" transform="matrix(8.5,0,0,-8.5,84.636798,68.95746)" fill="#d4a017"/>
<use data-text="a" xlink:href="#font_2_24" transform="matrix(8.5,0,0,-8.5,88.6998,68.95746)" fill="#d4a017"/>
<use data-text="u" xlink:href="#font_2_41" transform="matrix(8.5,0,0,-8.5,94.437297,68.95746)" fill="#d4a017"/>
<use data-text="g" xlink:href="#font_2_30" transform="matrix(8.5,0,0,-8.5,100.48929,68.95746)" fill="#d4a017"/>
<use data-text="h" xlink:href="#font_2_31" transform="matrix(8.5,0,0,-8.5,106.57529,68.95746)" fill="#d4a017"/>
<use data-text="t" xlink:href="#font_2_40" transform="matrix(8.5,0,0,-8.5,112.62729,68.95746)" fill="#d4a017"/>
<use data-text=")" xlink:href="#font_2_5" transform="matrix(8.5,0,0,-8.5,116.69029,68.95746)" fill="#d4a017"/>
<use data-text="D" xlink:href="#font_2_15" transform="matrix(8.5,0,0,-8.5,121.617458,107.14806)" fill="#d4a017"/>
<use data-text="P" xlink:href="#font_2_20" transform="matrix(8.5,0,0,-8.5,128.67246,107.14806)" fill="#d4a017"/>
<use data-text="O" xlink:href="#font_2_19" transform="matrix(8.5,0,0,-8.5,134.90296,107.14806)" fill="#d4a017"/>
<use data-text="R" xlink:href="#font_2_21" transform="matrix(8.5,0,0,-8.5,265.821,42.143419)" fill="#c75146"/>
<use data-text="L" xlink:href="#font_2_18" transform="matrix(8.5,0,0,-8.5,272.36604,42.143419)" fill="#c75146"/>
<use data-text=" " xlink:href="#font_2_3" transform="matrix(8.5,0,0,-8.5,277.78053,42.143419)" fill="#c75146"/>
<use data-text="(" xlink:href="#font_2_4" transform="matrix(8.5,0,0,-8.5,280.73854,42.143419)" fill="#c75146"/>
<use data-text="G" xlink:href="#font_2_17" transform="matrix(8.5,0,0,-8.5,284.62303,42.143419)" fill="#c75146"/>
<use data-text="R" xlink:href="#font_2_21" transform="matrix(8.5,0,0,-8.5,291.6015,42.143419)" fill="#c75146"/>
<use data-text="P" xlink:href="#font_2_20" transform="matrix(8.5,0,0,-8.5,298.1465,42.143419)" fill="#c75146"/>
<use data-text="O" xlink:href="#font_2_19" transform="matrix(8.5,0,0,-8.5,304.377,42.143419)" fill="#c75146"/>
<use data-text=")" xlink:href="#font_2_5" transform="matrix(8.5,0,0,-8.5,311.60203,42.143419)" fill="#c75146"/>
<use data-text="R" xlink:href="#font_2_21" transform="matrix(8.5,0,0,-8.5,88.632129,45.77623)" fill="#1f6f6f"/>
<use data-text="e" xlink:href="#font_2_28" transform="matrix(8.5,0,0,-8.5,95.177127,45.77623)" fill="#1f6f6f"/>
<use data-text="p" xlink:href="#font_2_37" transform="matrix(8.5,0,0,-8.5,100.940128,45.77623)" fill="#1f6f6f"/>
<use data-text="r" xlink:href="#font_2_38" transform="matrix(8.5,0,0,-8.5,107.02612,45.77623)" fill="#1f6f6f"/>
<use data-text="." xlink:href="#font_2_7" transform="matrix(8.5,0,0,-8.5,110.013507,45.77623)" fill="#1f6f6f"/>
<use data-text=" " xlink:href="#font_2_3" transform="matrix(8.5,0,0,-8.5,113.2435,45.77623)" fill="#1f6f6f"/>
<use data-text="p" xlink:href="#font_2_37" transform="matrix(8.5,0,0,-8.5,116.2015,45.77623)" fill="#1f6f6f"/>
<use data-text="r" xlink:href="#font_2_38" transform="matrix(8.5,0,0,-8.5,122.287509,45.77623)" fill="#1f6f6f"/>
<use data-text="o" xlink:href="#font_2_36" transform="matrix(8.5,0,0,-8.5,126.478008,45.77623)" fill="#1f6f6f"/>
<use data-text="b" xlink:href="#font_2_25" transform="matrix(8.5,0,0,-8.5,132.3175,45.77623)" fill="#1f6f6f"/>
<use data-text="e" xlink:href="#font_2_28" transform="matrix(8.5,0,0,-8.5,138.4035,45.77623)" fill="#1f6f6f"/>
<path transform="matrix(1,0,0,-1,0,221.60082)" stroke-width="1.2" stroke-linecap="round" stroke-dasharray="4.8,3" stroke-linejoin="round" fill="none" stroke="#6b8f85" d="M321.59318 107.837C241.91626 129.81682 162.67046 151.67772 83.85577 173.4197"/>
<path transform="matrix(1,0,0,-1,0,221.60082)" d="M87.51228 170.12882 83.85577 173.4197 88.68237 174.37038Z" fill="#6b8f85"/>
<path transform="matrix(1,0,0,-1,0,221.60082)" stroke-width="1.2" stroke-linecap="round" stroke-dasharray="4.8,3" stroke-linejoin="round" fill="none" stroke="#6b8f85" d="M87.51228 170.12882 83.85577 173.4197 88.68237 174.37038Z"/>
<use data-text="l" xlink:href="#font_11_8" transform="matrix(7.940369,-.9749547,-.9749547,-7.940369,148.05387,146.04799)" fill="#6b8f85"/>
<use data-text="e" xlink:href="#font_11_6" transform="matrix(7.940369,-.9749547,-.9749547,-7.940369,150.7774,145.71358)" fill="#6b8f85"/>
<use data-text="s" xlink:href="#font_11_14" transform="matrix(7.940369,-.9749547,-.9749547,-7.940369,156.16098,145.05257)" fill="#6b8f85"/>
<use data-text="s" xlink:href="#font_11_14" transform="matrix(7.940369,-.9749547,-.9749547,-7.940369,160.8855,144.47246)" fill="#6b8f85"/>
<use data-text=" " xlink:href="#font_11_3" transform="matrix(7.940369,-.9749547,-.9749547,-7.940369,165.61002,143.89237)" fill="#6b8f85"/>
<use data-text="s" xlink:href="#font_11_14" transform="matrix(7.940369,-.9749547,-.9749547,-7.940369,168.37326,143.55309)" fill="#6b8f85"/>
<use data-text="u" xlink:href="#font_11_16" transform="matrix(7.940369,-.9749547,-.9749547,-7.940369,173.0978,142.97298)" fill="#6b8f85"/>
<use data-text="p" xlink:href="#font_11_12" transform="matrix(7.940369,-.9749547,-.9749547,-7.940369,178.75133,142.27881)" fill="#6b8f85"/>
<use data-text="e" xlink:href="#font_11_6" transform="matrix(7.940369,-.9749547,-.9749547,-7.940369,184.43665,141.58075)" fill="#6b8f85"/>
<use data-text="r" xlink:href="#font_11_13" transform="matrix(7.940369,-.9749547,-.9749547,-7.940369,189.8202,140.91973)" fill="#6b8f85"/>
<use data-text="v" xlink:href="#font_11_17" transform="matrix(7.940369,-.9749547,-.9749547,-7.940369,193.7348,140.43907)" fill="#6b8f85"/>
<use data-text="i" xlink:href="#font_11_7" transform="matrix(7.940369,-.9749547,-.9749547,-7.940369,198.91193,139.8034)" fill="#6b8f85"/>
<use data-text="s" xlink:href="#font_11_14" transform="matrix(7.940369,-.9749547,-.9749547,-7.940369,201.63547,139.469)" fill="#6b8f85"/>
<use data-text="i" xlink:href="#font_11_7" transform="matrix(7.940369,-.9749547,-.9749547,-7.940369,206.36,138.8889)" fill="#6b8f85"/>
<use data-text="o" xlink:href="#font_11_11" transform="matrix(7.940369,-.9749547,-.9749547,-7.940369,209.08354,138.55449)" fill="#6b8f85"/>
<use data-text="n" xlink:href="#font_11_10" transform="matrix(7.940369,-.9749547,-.9749547,-7.940369,214.53858,137.88469)" fill="#6b8f85"/>
<use data-text="," xlink:href="#font_11_4" transform="matrix(7.940369,-.9749547,-.9749547,-7.940369,220.19211,137.19052)" fill="#6b8f85"/>
<use data-text=" " xlink:href="#font_11_3" transform="matrix(7.940369,-.9749547,-.9749547,-7.940369,223.20946,136.82004)" fill="#6b8f85"/>
<use data-text="m" xlink:href="#font_11_9" transform="matrix(7.940369,-.9749547,-.9749547,-7.940369,225.9727,136.48076)" fill="#6b8f85"/>
<use data-text="o" xlink:href="#font_11_11" transform="matrix(7.940369,-.9749547,-.9749547,-7.940369,234.24657,135.46486)" fill="#6b8f85"/>
<use data-text="r" xlink:href="#font_11_13" transform="matrix(7.940369,-.9749547,-.9749547,-7.940369,239.7016,134.79506)" fill="#6b8f85"/>
<use data-text="e" xlink:href="#font_11_6" transform="matrix(7.940369,-.9749547,-.9749547,-7.940369,243.61621,134.3144)" fill="#6b8f85"/>
<use data-text=" " xlink:href="#font_11_3" transform="matrix(7.940369,-.9749547,-.9749547,-7.940369,248.99979,133.65338)" fill="#6b8f85"/>
<use data-text="r" xlink:href="#font_11_13" transform="matrix(7.940369,-.9749547,-.9749547,-7.940369,251.76303,133.3141)" fill="#6b8f85"/>
<use data-text="o" xlink:href="#font_11_11" transform="matrix(7.940369,-.9749547,-.9749547,-7.940369,255.67763,132.83345)" fill="#6b8f85"/>
<use data-text="b" xlink:href="#font_11_5" transform="matrix(7.940369,-.9749547,-.9749547,-7.940369,261.13267,132.16367)" fill="#6b8f85"/>
<use data-text="u" xlink:href="#font_11_16" transform="matrix(7.940369,-.9749547,-.9749547,-7.940369,266.81797,131.46559)" fill="#6b8f85"/>
<use data-text="s" xlink:href="#font_11_14" transform="matrix(7.940369,-.9749547,-.9749547,-7.940369,272.4715,130.77143)" fill="#6b8f85"/>
<use data-text="t" xlink:href="#font_11_15" transform="matrix(7.940369,-.9749547,-.9749547,-7.940369,277.19606,130.19133)" fill="#6b8f85"/>
<use data-text="n" xlink:href="#font_11_10" transform="matrix(7.940369,-.9749547,-.9749547,-7.940369,280.99153,129.7253)" fill="#6b8f85"/>
<use data-text="e" xlink:href="#font_11_6" transform="matrix(7.940369,-.9749547,-.9749547,-7.940369,286.64509,129.03113)" fill="#6b8f85"/>
<use data-text="s" xlink:href="#font_11_14" transform="matrix(7.940369,-.9749547,-.9749547,-7.940369,292.02864,128.37012)" fill="#6b8f85"/>
<use data-text="s" xlink:href="#font_11_14" transform="matrix(7.940369,-.9749547,-.9749547,-7.940369,296.75315,127.79001)" fill="#6b8f85"/>
<path transform="matrix(1,0,0,-1,0,221.60082)" d="M71.63612 48.489847C73.205089 48.489847 74.71 49.1132 75.81943 50.222627 76.92885 51.33205 77.55221 52.836965 77.55221 54.405927 77.55221 55.974889 76.92885 57.4798 75.81943 58.589227 74.71 59.69865 73.205089 60.322008 71.63612 60.322008 70.06716 60.322008 68.56225 59.69865 67.45283 58.589227 66.3434 57.4798 65.72005 55.974889 65.72005 54.405927 65.72005 52.836965 66.3434 51.33205 67.45283 50.222627 68.56225 49.1132 70.06716 48.489847 71.63612 48.489847Z" fill="#6b8f85"/>
<path transform="matrix(1,0,0,-1,0,221.60082)" stroke-width="1.3" stroke-linecap="butt" stroke-linejoin="round" fill="none" stroke="#0d1b19" d="M71.63612 48.489847C73.205089 48.489847 74.71 49.1132 75.81943 50.222627 76.92885 51.33205 77.55221 52.836965 77.55221 54.405927 77.55221 55.974889 76.92885 57.4798 75.81943 58.589227 74.71 59.69865 73.205089 60.322008 71.63612 60.322008 70.06716 60.322008 68.56225 59.69865 67.45283 58.589227 66.3434 57.4798 65.72005 55.974889 65.72005 54.405927 65.72005 52.836965 66.3434 51.33205 67.45283 50.222627 68.56225 49.1132 70.06716 48.489847 71.63612 48.489847Z"/>
<path transform="matrix(1,0,0,-1,0,221.60082)" d="M173.59079 110.20464C175.15976 110.20464 176.66468 110.828 177.7741 111.93742 178.88352 113.04685 179.50687 114.551769 179.50687 116.12073 179.50687 117.68969 178.88352 119.1946 177.7741 120.30402 176.66468 121.41345 175.15976 122.036808 173.59079 122.036808 172.02184 122.036808 170.51692 121.41345 169.40749 120.30402 168.29807 119.1946 167.67472 117.68969 167.67472 116.12073 167.67472 114.551769 168.29807 113.04685 169.40749 111.93742 170.51692 110.828 172.02184 110.20464 173.59079 110.20464Z" fill="#3b6ea5"/>
<path transform="matrix(1,0,0,-1,0,221.60082)" stroke-width="1.3" stroke-linecap="butt" stroke-linejoin="round" fill="none" stroke="#0d1b19" d="M173.59079 110.20464C175.15976 110.20464 176.66468 110.828 177.7741 111.93742 178.88352 113.04685 179.50687 114.551769 179.50687 116.12073 179.50687 117.68969 178.88352 119.1946 177.7741 120.30402 176.66468 121.41345 175.15976 122.036808 173.59079 122.036808 172.02184 122.036808 170.51692 121.41345 169.40749 120.30402 168.29807 119.1946 167.67472 117.68969 167.67472 116.12073 167.67472 114.551769 168.29807 113.04685 169.40749 111.93742 170.51692 110.828 172.02184 110.20464 173.59079 110.20464Z"/>
<path transform="matrix(1,0,0,-1,0,221.60082)" d="M182.66805 127.83745H194.5002V139.6696H182.66805Z" fill="#3b6ea5"/>
<path transform="matrix(1,0,0,-1,0,221.60082)" stroke-width="1.3" stroke-linecap="butt" stroke-linejoin="round" fill="none" stroke="#0d1b19" d="M182.66805 127.83745H194.5002V139.6696H182.66805Z"/>
<path transform="matrix(1,0,0,-1,0,221.60082)" d="M128.6108 152.01256 122.69471 140.1804H134.52687Z" fill="#d4a017"/>
<path transform="matrix(1,0,0,-1,0,221.60082)" stroke-width="1.3" stroke-linecap="butt" stroke-linejoin="round" fill="none" stroke="#0d1b19" d="M128.6108 152.01256 122.69471 140.1804H134.52687Z"/>
<path transform="matrix(1,0,0,-1,0,221.60082)" d="M113.617458 116.570529 121.98406 124.937129 113.617458 133.30373 105.250858 124.937129Z" fill="#d4a017"/>
<path transform="matrix(1,0,0,-1,0,221.60082)" stroke-width="1.3" stroke-linecap="butt" stroke-linejoin="round" fill="none" stroke="#0d1b19" d="M113.617458 116.570529 121.98406 124.937129 113.617458 133.30373 105.250858 124.937129Z"/>
<path transform="matrix(1,0,0,-1,0,221.60082)" d="M323.52415 183.57517 331.89073 191.94178 323.52415 200.30837 315.15754 191.94178Z" fill="#c75146"/>
<path transform="matrix(1,0,0,-1,0,221.60082)" stroke-width="1.3" stroke-linecap="butt" stroke-linejoin="round" fill="none" stroke="#0d1b19" d="M323.52415 183.57517 331.89073 191.94178 323.52415 200.30837 315.15754 191.94178Z"/>
<path transform="matrix(1,0,0,-1,0,221.60082)" d="M78.660099 168.39289H82.60415V172.33695H86.5482V176.28099H82.60415V180.22505H78.660099V176.28099H74.71604V172.33695H78.660099Z" fill="#1f6f6f"/>
<path transform="matrix(1,0,0,-1,0,221.60082)" stroke-width="1.3" stroke-linecap="butt" stroke-linejoin="round" fill="none" stroke="#0d1b19" d="M78.660099 168.39289H82.60415V172.33695H86.5482V176.28099H82.60415V180.22505H78.660099V176.28099H74.71604V172.33695H78.660099Z"/>
</svg>
