<svg xmlns="http://www.w3.org/2000/svg" xmlns:xlink="http://www.w3.org/1999/xlink" xmlns:inkscape="http://www.inkscape.org/namespaces/inkscape" version="1.1" width="778.415" height="209.964" viewBox="0 0 778.415 209.964">
<defs>
<path id="font_1_4" d="M.21598816 .5676117 .34700013 0H.49699403L.6259918 .5676117V0H.776001V.7285156H.5499878L.42199708 .14889527 .2899933 .7285156H.06599426V0H.21598816V.5676117Z"/>
<path id="font_1_24" d="M.54100039-.00044250489V.54003909H.40098573V.20167542C.40098573 .13760376 .35598756 .09555054 .28799439 .09555054 .22799683 .09555054 .19799805 .127594 .19799805 .19265747V.54003909H.057998659V.16363526C.057998659 .044555665 .12399292-.0234375 .23899842-.0234375 .31199647-.0234375 .36099244 .0035552979 .40098573 .06355286V-.00044250489H.54100039Z"/>
<path id="font_1_16" d="M.20698548 .7285156H.066986087V0H.20698548V.7285156Z"/>
<path id="font_1_23" d="M.30099488 .52853396H.22299195V.6735382H.08299255V.52853396H.01399231V.43554688H.08299255V.1035614C.08299255 .018554688 .12799073-.0234375 .21998596-.0234375 .25099183-.0234375 .27598573-.020446778 .30099488-.012451172V.08555603C.2869873 .08355713 .2789917 .08255005 .2689972 .08255005 .23199463 .08255005 .22299195 .093551639 .22299195 .14155579V.43554688H.30099488V.52853396Z"/>
<path id="font_1_15" d="M.20698548 .53956606H.066986087V0H.20698548V.53956606M.20698548 .7285156H.066986087V.60350039H.20698548V.7285156Z"/>
<path id="font_1_26" d="M.2979889 .34202577H.025985718V.20703125H.2979889V.34202577Z"/>
<path id="font_1_28" d="M.5009918 .14648438 .548996 0H.7029877L.45098878 .7285156H.2849884L.025985718 0H.1789856L.22799683 .14648438H.5009918M.45999146 .27148438H.269989L.36499024 .5566406 .45999146 .27148438Z"/>
<path id="font_1_14" d="M.4079895 .53982546V.45681764C.3659973 .520813 .31999208 .5488281 .2579956 .5488281 .12998963 .5488281 .033996583 .42381288 .033996583 .25668336 .033996583 .08856201 .12199402-.0234375 .25498963-.0234375 .31799317-.0234375 .35598756-.0044403078 .4079895 .05455017V-.018447876C.4079895-.083618167 .35899354-.12875366 .2889862-.12875366 .23599243-.12875366 .20098877-.10668945 .18998719-.06556702H.04499817C.04598999-.10769653 .06199646-.13676453 .09799194-.1667633 .14099121-.20175171 .20098877-.21875 .28399659-.21875 .44699098-.21875 .54100039-.14575196 .54100039-.018447876V.53982546H.4079895M.28799439 .43182374C.35798646 .43182374 .4099884 .35876466 .4099884 .25868226 .4099884 .16061402 .35899354 .093551639 .28599549 .093551639 .21998596 .093551639 .17399597 .16061402 .17399597 .25868226 .17399597 .36076356 .21998596 .43182374 .28799439 .43182374Z"/>
<path id="font_1_13" d="M.5239868 .22558594C.5249939 .23757935 .5249939 .24258423 .5249939 .24957276 .5249939 .3035736 .5169983 .35365296 .5039978 .39172364 .46798707 .4898224 .3809967 .5488281 .27198792 .5488281 .116989139 .5488281 .021987915 .43681336 .021987915 .25558473 .021987915 .08255005 .115997318-.0234375 .2689972-.0234375 .3899994-.0234375 .48799134 .045547487 .5189972 .15156555H.3809967C.3639984 .108566287 .32499696 .08355713 .27398683 .08355713 .23399353 .08355713 .20199585 .10055542 .18199158 .13056946 .16899109 .15057373 .1639862 .1745758 .1619873 .22558594H.5239868M.1639862 .318573C.17298889 .40074159 .20799256 .44181825 .269989 .44181825 .30499269 .44181825 .33699037 .42478944 .35699464 .39672853 .36999513 .37669374 .37599183 .35565187 .3789978 .318573H.1639862Z"/>
<path id="font_1_18" d="M.06298828 .54003909V0H.20298767V.3240204C.20298767 .38783265 .24798584 .42982484 .31599427 .42982484 .37599183 .42982484 .4059906 .39683534 .4059906 .33285523V0H.54599V.36184693C.54599 .4808197 .47999574 .5488281 .36499024 .5488281 .2919922 .5488281 .24299622 .52182009 .20298767 .4618225V.54003909H.06298828Z"/>
<path id="font_1_3" d="M.22898865 .31347657H.5779877V.43847657H.22898865V.60350039H.60598757V.7285156H.07899475V0H.6239929V.125H.22898865V.31347657Z"/>
<path id="font_1_25" d="M.34999085 0 .5359955 .54003909H.3880005L.2789917 .14500427 .1619873 .54003909H.01399231L.20298767 0H.34999085Z"/>
<path id="font_1_9" d="M.5239868 .016555787C.49899293 .03955078 .49198915 .05455017 .49198915 .08255005V.38278199C.49198915 .4928131 .4169922 .5488281 .2709961 .5488281 .125 .5488281 .04899597 .4868164 .039993287 .36175538H.1749878C.18199158 .4178009 .20498657 .43582154 .27398683 .43582154 .32798768 .43582154 .35499574 .4178009 .35499574 .3817749 .35499574 .36376954 .34599305 .3477478 .33099366 .3397522 .31199647 .32974244 .31199647 .32974244 .24299622 .3187256L.18699646 .30871583C.07998657 .29071046 .027999878 .235672 .027999878 .13859558 .027999878 .092559818 .040985109 .05455017 .06599426 .027557373 .09700012-.0044403078 .14399719-.0234375 .19198609-.0234375 .2519989-.0234375 .30699159 .0025482178 .35598756 .05355835 .35598756 .025558472 .35899354 .015548706 .37199403-.00044250489H.5239868V.016555787M.35499574 .21664429C.35499574 .1355896 .31498719 .08955383 .24398804 .08955383 .19699097 .08955383 .16799927 .11457825 .16799927 .15460205 .16799927 .19664002 .18998719 .21664429 .24798584 .22866822L.29599 .2376709C.33299256 .24467469 .33898927 .24667359 .35499574 .25468446V.21664429Z"/>
<path id="font_1_19" d="M.30099488 .5488281C.13598633 .5488281 .034988405 .43981935 .034988405 .26268006 .034988405 .08454895 .13598633-.0234375 .3019867-.0234375 .46598817-.0234375 .56900027 .08555603 .56900027 .25868226 .56900027 .44181825 .46998597 .5488281 .30099488 .5488281M.3019867 .43582154C.3789978 .43582154 .42900086 .36676026 .42900086 .26068116 .42900086 .15960694 .3769989 .08955383 .3019867 .08955383 .22599793 .08955383 .1749878 .15960694 .1749878 .26268006 .1749878 .36576844 .22599793 .43582154 .3019867 .43582154Z"/>
<path id="font_1_7" d="M.6069946 .5070648C.6069946 .57414248 .59199526 .6181946 .55599978 .6582031 .5069885 .712204 .42599488 .74121096 .32099916 .74121096 .1459961 .74121096 .04499817 .6592102 .04499817 .5170746 .04499817 .40393067 .101989749 .3488617 .25 .3208313L.35198976 .30081178C.45199586 .28178407 .4889984 .25375367 .4889984 .19467163 .4889984 .13360596 .43299867 .09655762 .34199525 .09655762 .23999024 .09655762 .18299866 .13960266 .17799378 .2177124H.03199768C.040985109 .061553956 .147995-.0234375 .33399964-.0234375 .5219879-.0234375 .6329956 .06455994 .6329956 .21269226 .6329956 .32783509 .57499697 .38790895 .43998719 .41394044L.32598878 .43597413C.21899414 .45700074 .18798828 .47802735 .18798828 .5310974 .18798828 .5861664 .23699951 .62120059 .31399537 .62120059 .40899659 .62120059 .46199037 .5811615 .46699525 .5070648H.6069946Z"/>
<path id="font_1_21" d="M.06298828 .54003909V0H.20298767V.28701783C.20298767 .3688202 .24398804 .40982057 .32598878 .40982057 .34098817 .40982057 .35099793 .40881349 .36999513 .40582276V.54782107C.3619995 .5488281 .35699464 .5488281 .35299684 .5488281 .2889862 .5488281 .23298645 .5068207 .20298767 .43382264V.54003909H.06298828Z"/>
<path id="font_1_22" d="M.5049896 .36576844C.5029907 .47982789 .4149933 .5488281 .269989 .5488281 .1329956 .5488281 .04798889 .47982789 .04798889 .36875917 .04798889 .33273316 .05899048 .30171205 .07798767 .28070069 .09700012 .26168824 .11399841 .25268556 .1659851 .235672L.33299256 .18362427C.36799623 .17262268 .37998963 .16160584 .37998963 .1395874 .37998963 .10656738 .34098817 .08654785 .27598573 .08654785 .23999024 .08654785 .21099854 .093566898 .19299317 .10557556 .17799378 .11657715 .17199707 .12757874 .1659851 .15660095H.0289917C.032989503 .03855896 .11999512-.0234375 .28399659-.0234375 .35899354-.0234375 .41600038-.007446289 .45599366 .024551392 .49598695 .056549074 .519989 .10656738 .519989 .15960694 .519989 .22966004 .4850006 .27468873 .4139862 .29571534L.23699951 .34675599C.19799805 .35876466 .18798828 .36676026 .18798828 .3887787 .18798828 .41880799 .21998596 .4388275 .2689972 .4388275 .33599855 .4388275 .36898805 .41479493 .36999513 .36576844H.5049896Z"/>
<path id="font_1_17" d="M.05999756 .54003909V0H.19999695V.3240204C.19999695 .38983155 .23599243 .42982484 .29599 .42982484 .34298707 .42982484 .37199403 .40283204 .37199403 .35984803V0H.5119934V.3238678C.5119934 .38983155 .5479889 .42982484 .60798647 .42982484 .6549988 .42982484 .6839905 .40283204 .6839905 .35984803V0H.82398989V.38183595C.82398989 .4868164 .7599945 .5488281 .6519928 .5488281 .58399966 .5488281 .5359955 .52482607 .49398805 .4688263 .46798707 .51982119 .4139862 .5488281 .34700013 .5488281 .2849884 .5490265 .24499512 .5280304 .19898987 .47303773V.54003909H.05999756Z"/>
<path id="font_1_10" d="M.05899048 .7285156V-.00044250489H.19898987V.05455017C.23298645 .0015563965 .27999879-.0234375 .34799195-.0234375 .47698976-.0234375 .57499697 .0995636 .57499697 .2626953 .57499697 .33573915 .5529938 .4098053 .5169983 .4618225 .47999574 .5148163 .4139862 .5488281 .34799195 .5488281 .2809906 .5488281 .23298645 .52381899 .19898987 .46981813V.7285156H.05899048M.31698609 .43182374C.38598634 .43182374 .43499757 .36177064 .43499757 .26168824 .43499757 .16360474 .38598634 .093551639 .31698609 .093551639 .24598694 .093551639 .19898987 .16160584 .19898987 .2646942 .19898987 .36276246 .24699402 .43182374 .31698609 .43182374Z"/>
<path id="font_1_8" d="M.39698792 0 .6469879 .7285156H.49598695L.33699037 .17988587 .1749878 .7285156H.023986817L.269989 0H.39698792Z"/>
<path id="font_1_2" d="M.07699585 0H.3619995C.47299195 0 .54299929 .025985718 .59199526 .084991458 .6499939 .15296936 .68099978 .25186158 .68099978 .3647461 .68099978 .4766388 .6499939 .575531 .59199526 .64450076 .54299929 .70350649 .47399903 .7285156 .3619995 .7285156H.07699585V0M.22698975 .125V.60350039H.3619995C.47499085 .60350039 .5309906 .5245819 .5309906 .36375428 .5309906 .20391846 .47499085 .125 .3619995 .125H.22698975Z"/>
<path id="font_1_1" d="M.6819916 .4820404C.6769867 .54512026 .6639862 .5851593 .6329956 .62620547 .57699587 .7002106 .4869995 .74121096 .37799073 .74121096 .17199707 .74121096 .04399109 .59417727 .04399109 .35787965 .04399109 .12358093 .17098999-.0234375 .37399293-.0234375 .5549927-.0234375 .6759949 .08155823 .68499758 .24873352H.5389862C.5299988 .15562439 .47099305 .10255432 .37799073 .10255432 .2619934 .10255432 .19400025 .19667053 .19400025 .35588075 .19400025 .5170746 .2649994 .61320498 .3829956 .61320498 .43499757 .61320498 .47799684 .5951843 .5059967 .5601349 .5219879 .54011538 .5299988 .52108767 .5389862 .4820404H.6819916Z"/>
<path id="font_1_11" d="M.5219879 .33773805C.5119934 .46981813 .42399598 .5488281 .2889862 .5488281 .12799073 .5488281 .033996583 .44282533 .033996583 .25868226 .033996583 .08055115 .1269989-.0234375 .2869873-.0234375 .41799928-.0234375 .5089874 .057556154 .5219879 .18663025H.3880005C.36999513 .11657715 .34199525 .08955383 .28799439 .08955383 .21699524 .08955383 .17399597 .15361023 .17399597 .25868226 .17399597 .3097229 .18399048 .35775758 .20098877 .38978578 .21699524 .4197998 .24798584 .43582154 .28799439 .43582154 .34498597 .43582154 .37199403 .40879823 .3880005 .33773805H.5219879Z"/>
<path id="font_1_12" d="M.40499879-.00044250489H.54499819V.7285156H.40499879V.46981813C.36999513 .52381899 .32299806 .5488281 .2559967 .5488281 .1269989 .5488281 .0289917 .42481996 .0289917 .26168824 .0289917 .18862915 .050994874 .11457825 .08699036 .062561038 .12399292 .010559082 .18998719-.0234375 .2559967-.0234375 .32299806-.0234375 .36999513 .0015563965 .40499879 .05455017V-.00044250489M.2869873 .43182374C.35798646 .43182374 .40499879 .36276246 .40499879 .25968934 .40499879 .16160584 .35699464 .093551639 .2869873 .093551639 .21699524 .093551639 .16899109 .16261292 .16899109 .26168824 .16899109 .36177064 .21699524 .43182374 .2869873 .43182374Z"/>
<path id="font_1_6" d="M.22999573 .28904725H.4019928C.46699525 .28904725 .49499513 .26304627 .49499513 .20202637 .49499513 .19602967 .49499513 .18603516 .49398805 .17301941 .49299623 .15402222 .49299623 .13601685 .49299623 .12501526 .49299623 .057006837 .49699403 .034988405 .5159912 0H.6769867V.026992798C.6539917 .039993287 .644989 .055007936 .644989 .087005618 .6409912 .30204774 .6369934 .3120575 .5439911 .35205079 .6259918 .38404847 .6669922 .4429779 .6669922 .531723 .6669922 .58955386 .6469879 .64250186 .6119995 .6785126 .57899478 .71250918 .5329895 .7285156 .47099305 .7285156H.07998657V0H.22999573V.28904725M.22999573 .4140625V.60350039H.41099549C.45399476 .60350039 .47200013 .5995178 .48999024 .5845642 .5079956 .5696106 .5169983 .54467776 .5169983 .5107727 .5169983 .47587586 .5069885 .44795228 .48999024 .43299867 .47399903 .41903688 .45399476 .4140625 .41099549 .4140625H.22999573Z"/>
<path id="font_1_5" d="M.22599793 .25975038H.41299439C.5469971 .25975038 .6329956 .3547516 .6329956 .5026245 .6329956 .6485138 .5499878 .7285156 .397995 .7285156H.07598877V0H.22599793V.25975038M.22599793 .38476563V.60350039H.3659973C.44599916 .60350039 .48298646 .5685425 .48298646 .49363709 .48298646 .4197235 .44599916 .38476563 .3659973 .38476563H.22599793Z"/>
<path id="font_1_27" d="M.526001 .37260438V.36260987C.526001 .31959535 .5179901 .28959657 .49598695 .24758911L.37998963 .39160157C.46899415 .45262147 .49699403 .49562074 .49699403 .5676422 .49699403 .66064456 .42599488 .72265627 .31900025 .72265627 .21199036 .72265627 .12998963 .64964297 .12998963 .55563357 .12998963 .518631 .14399719 .48262025 .17199707 .44961549 .18099976 .4386139 .18998719 .4276123 .19999695 .4156189 .20199585 .41362 .20599365 .4086151 .21199036 .40060426 .09498596 .3395996 .054992677 .28659059 .054992677 .19256592 .054992677 .062561038 .1499939-.0234375 .2919922-.0234375 .3600006-.0234375 .4059906-.0054473879 .4869995 .05555725L.5329895-.00044250489H.69400027L.57099917 .15356446C.61099246 .1995697 .6369934 .28059388 .6389923 .3565979V.36160279 .37260438H.526001M.27799989 .31860353 .4139862 .14756775C.36698915 .11155701 .32499696 .092559818 .2939911 .092559818 .23999024 .092559818 .18798828 .14956665 .18798828 .20957947 .18798828 .24258423 .20399475 .2715912 .23098755 .28959657L.27799989 .31860353M.31698609 .46961976C.2669983 .53263857 .2619934 .54063418 .2619934 .5656433 .2619934 .5936432 .28599549 .61364749 .31999208 .61364749 .35598756 .61364749 .3769989 .59265139 .3769989 .55563357 .3769989 .5206299 .35699464 .49162293 .31698609 .46961976Z"/>
<path id="font_1_20" d="M.19799805 .53982546H.057998659V-.21824646H.19799805V.063583377C.23199463 .0035858155 .27999879-.024414063 .34799195-.024414063 .47799684-.024414063 .57398989 .097579959 .57398989 .2617035 .57398989 .3377533 .5519867 .4138031 .5159912 .4638214 .47999574 .5148163 .41299439 .5488281 .34799195 .5488281 .27999879 .5488281 .23199463 .51982119 .19799805 .4598236V.53982546M.31599427 .43182374C.3869934 .43182374 .43399049 .3627777 .43399049 .2597046 .43399049 .1616211 .3849945 .09257507 .31599427 .09257507 .24598694 .09257507 .19799805 .16062927 .19799805 .2617035 .19799805 .3627777 .24598694 .43182374 .31599427 .43182374Z"/>
<path id="font_2_6" d="M.6619873 .5030365C.6329956 .663208 .54100039 .74121096 .3809967 .74121096 .2829895 .74121096 .20399475 .7102051 .1499939 .65019229 .083999637 .57810977 .04798889 .47399903 .04798889 .35588075 .04798889 .23574829 .084991458 .1326294 .1539917 .061553956 .20999146 .0035552979 .28199769-.0234375 .3769989-.0234375 .5549927-.0234375 .6549988 .0725708 .6769867 .2657776H.58099368C.57299807 .21572876 .5629883 .1816864 .5479889 .15264893 .5179901 .09259033 .45599366 .058547975 .37799073 .058547975 .23298645 .058547975 .14099121 .17468262 .14099121 .35687257 .14099121 .54408267 .22898865 .6592102 .36999513 .6592102 .42900086 .6592102 .48399354 .6411743 .5139923 .6131439 .54100039 .5881195 .55599978 .55708315 .5669861 .5030365H.6619873Z"/>
<path id="font_2_30" d="M.068984989 .52441409V0H.15299988V.27220155C.15299988 .34727479 .17199707 .39631654 .21199036 .42533876 .23799134 .4443512 .2630005 .45036317 .32099916 .45135499V.5364075C.30699159 .5380554 .2999878 .5390625 .2889862 .5390625 .23498535 .5390625 .19400025 .50704959 .1459961 .42904664V.52441409H.068984989Z"/>
<path id="font_2_28" d="M.27198792 .5390625C.125 .5390625 .035995485 .434021 .035995485 .25779725 .035995485 .081588748 .12399292-.0234375 .272995-.0234375 .41999818-.0234375 .5099945 .081588748 .5099945 .25379945 .5099945 .43502809 .4229889 .5390625 .27198792 .5390625M.272995 .4620514C.36698915 .4620514 .4229889 .384964 .4229889 .25480653 .4229889 .13165283 .36499024 .05355835 .272995 .05355835 .17999268 .05355835 .12298584 .13064575 .12298584 .25779725 .12298584 .3839569 .17999268 .4620514 .272995 .4620514Z"/>
<path id="font_2_31" d="M.43798829 .37794496C.43699647 .48104859 .36898805 .5390625 .24798584 .5390625 .12599182 .5390625 .04699707 .47605897 .04699707 .37895204 .04699707 .29685975 .08898926 .25779725 .21299744 .22776795L.29100038 .20874024C.34899903 .19473267 .37199403 .17370606 .37199403 .13565064 .37199403 .08659363 .32299806 .05355835 .25 .05355835 .20498657 .05355835 .16699219 .0665741 .1459961 .08859253 .1329956 .10362244 .1269989 .118637088 .12199402 .15568543H.033996583C.037994386 .034561159 .10598755-.0234375 .24299622-.0234375 .375-.0234375 .45899964 .041549684 .45899964 .14266968 .45899964 .22076416 .4149933 .2638092 .31098939 .28884889L.23098755 .30786134C.16299439 .32388307 .13398743 .34591676 .13398743 .3829651 .13398743 .431015 .1769867 .4620514 .24499512 .4620514 .31199647 .4620514 .34799195 .43301393 .34999085 .37794496H.43798829Z"/>
<path id="font_2_3" d="M.28399659 .31222535H.04598999V.24023438H.28399659V.31222535Z"/>
<path id="font_2_9" d="M.18299866 .33203126H.5309906V.41401673H.18299866V.6465149H.57899478V.7285156H.08999634V0H.18299866V.33203126Z"/>
<path id="font_2_16" d="M.5349884 .048553468C.526001 .046554567 .5219879 .046554567 .5169983 .046554567 .48799134 .046554567 .47200013 .061569215 .47200013 .08760071V.39598084C.47200013 .48905946 .4039917 .5390625 .2749939 .5390625 .19898987 .5390625 .13598633 .5170593 .100997928 .47805787 .07699585 .45103456 .066986087 .42100526 .06498718 .36894227H.14898682C.1559906 .43301393 .19400025 .4620514 .27198792 .4620514 .34700013 .4620514 .3889923 .434021 .3889923 .3839569V.36193849C.3889923 .32688905 .36799623 .3118744 .3019867 .30386354 .18399048 .28884889 .1659851 .28483583 .13398743 .27182008 .07299805 .24679566 .041992189 .19973755 .041992189 .13165283 .041992189 .03656006 .10798645-.0234375 .21398926-.0234375 .27999879-.0234375 .33299256-.00044250489 .3919983 .05355835 .397995 .0005493164 .42399598-.0234375 .47799684-.0234375 .49499513-.0234375 .5079956-.021438599 .5349884-.014450073V.048553468M.3889923 .16468811C.3889923 .13665772 .3809967 .119644168 .35598756 .09661865 .32199098 .06556702 .2809906 .049560548 .23199463 .049560548 .16699219 .049560548 .1289978 .080596927 .1289978 .13365174 .1289978 .1887207 .1659851 .2167511 .25498963 .22976685 .34298707 .24179077 .36099244 .24578858 .3889923 .25880433V.16468811Z"/>
<path id="font_2_26" d="M.069992069 .52441409V0H.1539917V.32925416C.1539917 .40504457 .20899964 .4660492 .2769928 .4660492 .33898927 .4660492 .37399293 .4280548 .37399293 .3610382V0H.45799256V.32904054C.45799256 .40504457 .5130005 .4660492 .58099368 .4660492 .6419983 .4660492 .6779938 .42704774 .6779938 .3610382V0H.7619934V.3930359C.7619934 .48706056 .70799258 .5390625 .6100006 .5390625 .5399933 .5390625 .49798585 .51805117 .44898988 .4590454 .41799928 .5150604 .37599183 .5390625 .30799867 .5390625 .23799134 .5390625 .19198609 .5130615 .14698792 .45005799V.52441409H.069992069Z"/>
<path id="font_2_24" d="M.1499939 .5235901H.066986087V0H.1499939V.5235901M.1499939 .7285156H.06599426V.62350466H.1499939V.7285156Z"/>
<path id="font_2_25" d="M.1519928 .7285156H.067993167V0H.1519928V.7285156Z"/>
<path id="font_2_36" d="M.3880005 .52441409 .24299622 .11628723 .10899353 .52441409H.019989014L.19699097-.001739502 .16499329-.08476257C.1519928-.121780399 .1329956-.13578797 .09799194-.13578797 .085998538-.13578797 .07199097-.1337738 .053985597-.129776V-.20478821C.070999149-.21377564 .08799744-.21777344 .10998535-.21777344 .13699341-.21777344 .1659851-.20878601 .18798828-.19277954 .21398926-.17378235 .22898865-.15177918 .24499512-.10977173L.47799684 .52441409H.3880005Z"/>
<path id="font_2_13" d="M.18399048 .30862428H.41299439C.46998597 .30862428 .5149994 .32562257 .55400088 .36061097 .59799197 .4006195 .61698916 .44758607 .61698916 .5145569 .61698916 .6515045 .5359955 .7285156 .3919983 .7285156H.09098816V0H.18399048V.30862428M.18399048 .390625V.6465149H.37799073C.46699525 .6465149 .519989 .598526 .519989 .51856997 .519989 .43859864 .46699525 .390625 .37799073 .390625H.18399048Z"/>
<path id="font_2_27" d="M.069992069 .52441409V0H.1539917V.2892151C.1539917 .39604188 .20999146 .4660492 .29599 .4660492 .3619995 .4660492 .4039917 .42604066 .4039917 .3630371V0H.4869995V.39604188C.4869995 .4830475 .42199708 .5390625 .32099916 .5390625 .24299622 .5390625 .19299317 .50904849 .14698792 .43605042V.52441409H.069992069Z"/>
<path id="font_2_20" d="M.5130005 .23374939C.5130005 .31376649 .5069885 .36186219 .49198915 .40093995 .45799256 .48706056 .37799073 .5390625 .27999879 .5390625 .13398743 .5390625 .039993287 .4269867 .039993287 .25474549 .039993287 .08258057 .1309967-.0234375 .27799989-.0234375 .397995-.0234375 .48098756 .044555665 .5019989 .15867615H.41799928C.394989 .08959961 .34799195 .05355835 .2809906 .05355835 .22799683 .05355835 .18299866 .07757568 .15499878 .12162781 .1349945 .1516571 .12799073 .18170166 .1269989 .23374939H.5130005M.1289978 .3017578C.13598633 .39894105 .19499207 .4620514 .2789917 .4620514 .36099244 .4620514 .42399598 .3939209 .42399598 .30775453 .42399598 .30575563 .42399598 .3037567 .4229889 .3017578H.1289978Z"/>
<path id="font_2_1" d="M.23599243 .7285156C.13598633 .59750369 .07299805 .41551209 .07299805 .2585144 .07299805 .10050964 .13598633-.08149719 .23599243-.2124939H.29100038C.20298767-.069488529 .1539917 .09851074 .1539917 .2585144 .1539917 .417511 .20298767 .5865021 .29100038 .7285156H.23599243Z"/>
<path id="font_2_12" d="M.17298889 .7285156H.07998657V0H.5329895V.08198547H.17298889V.7285156Z"/>
<path id="font_2_2" d="M.09298706-.2124939C.19299317-.08149719 .2559967 .10050964 .2559967 .25750733 .2559967 .41551209 .19299317 .59750369 .09298706 .7285156H.037994386C.12599182 .58551028 .1749878 .417511 .1749878 .25750733 .1749878 .09851074 .12599182-.070495609 .037994386-.2124939H.09298706Z"/>
<path id="font_2_15" d="M.59599307 .51504519C.59498599 .6582031 .49699403 .74121096 .32899476 .74121096 .16899109 .74121096 .069992069 .65919497 .069992069 .52705386 .069992069 .43795777 .116989139 .38189698 .21299744 .35687257L.3939972 .30882264C.48599244 .2848053 .5279999 .24775696 .5279999 .19070435 .5279999 .1516571 .5069885 .11161804 .47599793 .08958435 .44699098 .06956482 .40098573 .058547975 .34199525 .058547975 .2630005 .058547975 .20899964 .07757568 .17399597 .11961365 .14698792 .1516571 .1349945 .18669129 .13598633 .23173523H.04798889C.04899597 .16467285 .06199646 .12062073 .09098816 .080581668 .14099121 .012557983 .22499085-.0234375 .33599855-.0234375 .4229889-.0234375 .49398805-.0034484864 .54100039 .032562257 .58999636 .07156372 .62098696 .13664246 .62098696 .19970703 .62098696 .28981019 .5649872 .35588075 .46598817 .38290406L.2829895 .43196107C.19499207 .4559784 .16299439 .4840088 .16299439 .5400696 .16299439 .614151 .22799683 .663208 .32598878 .663208 .44198609 .663208 .5069885 .6101532 .5079956 .51504519H.59599307Z"/>
<path id="font_2_21" d="M.2579956 .52441409H.17098999V.6064148C.17098999 .64141848 .19099427 .65940859 .22898865 .65940859 .23599243 .65940859 .23899842 .65940859 .2579956 .65841677V.727417C.23899842 .7314148 .22799683 .7324219 .21099854 .7324219 .13398743 .7324219 .08799744 .6884155 .08799744 .6134186V.52441409H.017990113V.45640565H.08799744V0H.17098999V.45640565H.2579956V.52441409Z"/>
<path id="font_2_32" d="M.2539978 .52441409H.16799927V.66841128H.084991458V.52441409H.01399231V.45640565H.084991458V.059570314C.084991458 .0065612795 .12098694-.0234375 .18598938-.0234375 .20599365-.0234375 .22599793-.021438599 .2539978-.016448975V.05355835C.24299622 .05055237 .22999573 .049560548 .21398926 .049560548 .17799378 .049560548 .16799927 .059570314 .16799927 .09664917V.45640565H.2539978V.52441409Z"/>
<path id="font_2_18" d="M.47099305 .34791566C.46699525 .39897157 .45599366 .4320221 .43598939 .46105958 .3999939 .51005557 .33699037 .5390625 .2639923 .5390625 .12298584 .5390625 .0309906 .4270172 .0309906 .25279237 .0309906 .08358765 .12098694-.0234375 .2630005-.0234375 .3880005-.0234375 .46699525 .05155945 .47698976 .17970276H.3929901C.3789978 .09561157 .33599855 .05355835 .2649994 .05355835 .17298889 .05355835 .117996219 .12864685 .117996219 .25279237 .117996219 .3839569 .17199707 .4620514 .2630005 .4620514 .33299256 .4620514 .3769989 .42100526 .3869934 .34791566H.47099305Z"/>
<path id="font_2_10" d="M.19400025 .7285156H.099990848V0H.19400025V.7285156Z"/>
<path id="font_2_34" d="M.2849884 0 .48599244 .52441409H.3919983L.24398804 .09906006 .10398865 .52441409H.009994507L.19400025 0H.2849884Z"/>
<path id="font_2_14" d="M.18598938 .31350709H.42599488C.5089874 .31350709 .54599 .27355958 .54599 .18371582L.54499819 .11882019C.54499819 .073898319 .5529938 .029968262 .56599429 0H.67900088V.022994996C.6439972 .046951295 .6369934 .072906497 .6349945 .16973877 .6339874 .28953553 .61499026 .3255005 .5359955 .35949708 .6179962 .39950563 .651001 .4505005 .651001 .5335083 .651001 .6595154 .57199099 .7285156 .42900086 .7285156H.09298706V0H.18598938V.31350709M.18598938 .3955078V.6465149H.41099549C.46299745 .6465149 .49299623 .638504 .5159912 .61849978 .54100039 .59750369 .55400088 .5644989 .55400088 .5205078 .55400088 .43449403 .5099945 .3955078 .41099549 .3955078H.18598938Z"/>
<path id="font_2_37" d="M.2519989 .52441409H.16499329V.6064148C.16499329 .64141848 .18499756 .65940859 .22299195 .65940859 .22999573 .65940859 .23298645 .65940859 .2519989 .65841677V.727417C.23298645 .7314148 .22200012 .7324219 .20498657 .7324219 .12799073 .7324219 .08198547 .6884155 .08198547 .6134186V.52441409H.011993408V.45640565H.08198547V0H.16499329V.45640565H.2519989V.52441409M.43598939 .52441409H.35299684V0H.43598939V.52441409M.43598939 .7285156H.35299684V.62350466H.43598939V.7285156Z"/>
<path id="font_2_4" d="M.19099427 .10398865H.08699036V0H.19099427V.10398865Z"/>
<path id="font_2_5" d="M.47399903 .21887207 .548996 0H.6529999L.39698792 .7285156H.2769928L.016998291 0H.115997318L.19299317 .21887207H.47399903M.44799806 .296875H.21598816L.33599855 .62857058 .44799806 .296875Z"/>
<path id="font_2_19" d="M.49499513 .7285156H.4119873V.4580536C.3769989 .51104739 .32099916 .5390625 .25099183 .5390625 .114990238 .5390625 .025985718 .43000794 .025985718 .26280213 .025985718 .08558655 .11299133-.0234375 .2539978-.0234375 .32598878-.0234375 .37599183 .0035552979 .42099 .068573V-.00044250489H.49499513V.7285156M.2649994 .46105958C.35499574 .46105958 .4119873 .38095094 .4119873 .25579835 .4119873 .13465882 .35398866 .05455017 .2659912 .05455017 .17399597 .05455017 .11299133 .13565064 .11299133 .25779725 .11299133 .3799591 .17399597 .46105958 .2649994 .46105958Z"/>
<path id="font_2_17" d="M.053985597 .7285156V-.00044250489H.1289978V.0665741C.16899109 .005554199 .22200012-.0234375 .29499818-.0234375 .43299867-.0234375 .522995 .08959961 .522995 .2638092 .522995 .434021 .43699647 .5390625 .29899598 .5390625 .22698975 .5390625 .17599488 .51205447 .13699341 .4530487V.7285156H.053985597M.2829895 .46105958C.37599183 .46105958 .43598939 .3799591 .43598939 .25480653 .43598939 .13565064 .37399293 .05455017 .2829895 .05455017 .19499207 .05455017 .13699341 .13465882 .13699341 .25779725 .13699341 .38095094 .19499207 .46105958 .2829895 .46105958Z"/>
<path id="font_2_29" d="M.053985597-.21824646H.13798523V.05455017C.18199158 .0005493164 .23098755-.0234375 .29899598-.0234375 .43399049-.0234375 .522995 .08558655 .522995 .25279237 .522995 .4290161 .43699647 .5390625 .2979889 .5390625 .22698975 .5390625 .16999817 .50704959 .1309967 .44503785V.52404788H.053985597V-.21824646M.28399659 .46105958C.37599183 .46105958 .43598939 .3799591 .43598939 .25480653 .43598939 .13565064 .375 .05455017 .28399659 .05455017 .19599915 .05455017 .13798523 .13465882 .13798523 .25779725 .13798523 .38095094 .19599915 .46105958 .28399659 .46105958Z"/>
<path id="font_2_33" d="M.48199464-.00044250489V.52441409H.39898683V.22688294C.39898683 .11968994 .34298707 .049560548 .2559967 .049560548 .18998719 .049560548 .147995 .08963013 .147995 .15275574V.52441409H.06498718V.11968994C.06498718 .032562257 .12998963-.0234375 .23199463-.0234375 .30899049-.0234375 .35798646 .0035552979 .40699769 .07260132V-.00044250489H.48199464Z"/>
<path id="font_2_11" d="M.33299256 .7285156V.21554566C.33299256 .157547 .32699586 .124557498 .30999757 .09954834 .2919922 .07154846 .2579956 .05455017 .22099304 .05455017 .15098572 .05455017 .11199951 .10154724 .11199951 .1865387V.23353577H.016998291V.1695404C.016998291 .05155945 .09498596-.0234375 .21998596-.0234375 .34700013-.0234375 .42599488 .05555725 .42599488 .18154907V.7285156H.33299256Z"/>
<path id="font_2_22" d="M.4119873 .52404788V.44804383C.36999513 .51005557 .31900025 .5390625 .2519989 .5390625 .11898804 .5390625 .0289917 .42300416 .0289917 .25279237 .0289917 .16668701 .051986696 .09660339 .09498596 .046554567 .13398743 .0025482178 .18998719-.0234375 .24499512-.0234375 .31098939-.0234375 .35699464 .004562378 .4039917 .0705719V.043548585C.4039917-.027450562 .394989-.07044983 .37399293-.09944153 .35198976-.13044739 .30899049-.1484375 .2579956-.1484375 .21998596-.1484375 .18598938-.138443 .16299439-.12043762 .14399719-.10543823 .13598633-.09144592 .1309967-.060440065H.04598999C.054992677-.15943909 .13198853-.21844483 .25498963-.21844483 .33299256-.21844483 .3999939-.19345093 .43399049-.15144348 .47399903-.10343933 .4889984-.03744507 .4889984 .08560181V.52404788H.4119873M.26098634 .4620514C.35099793 .4620514 .4039917 .3859558 .4039917 .25480653 .4039917 .12965393 .34999085 .05355835 .2619934 .05355835 .17098999 .05355835 .115997318 .13064575 .115997318 .25779725 .115997318 .3839569 .17199707 .4620514 .26098634 .4620514Z"/>
<path id="font_2_8" d="M.18299866 .33203126H.5799866V.41401673H.18299866V.6465149H.59498599V.7285156H.08999634V0H.61299136V.08198547H.18299866V.33203126Z"/>
<path id="font_2_35" d="M.2919922 .27120973 .46798707 .52441409H.37399293L.24798584 .33425904 .12199402 .52441409H.026992798L.20199585 .26719667 .016998291 0H.11199951L.24499512 .20114136 .37599183 0H.47299195L.2919922 .27120973Z"/>
<path id="font_2_23" d="M.069992069 .7285156V0H.15299988V.28903199C.15299988 .39604188 .20899964 .4660492 .29499818 .4660492 .32199098 .4660492 .34899903 .4570465 .36898805 .44204713 .3929901 .42504884 .40299989 .40003968 .40299989 .3630371V0H.48599244V.39604188C.48599244 .48405458 .4229889 .5390625 .32099916 .5390625 .24699402 .5390625 .20199585 .51605227 .15299988 .45205689V.7285156H.069992069Z"/>
<path id="font_2_7" d="M.08898926 0H.36999513C.55400088 0 .6669922 .13793946 .6669922 .3647461 .6669922 .5905609 .5549927 .7285156 .36999513 .7285156H.08898926V0M.18199158 .08198547V.6465149H.35398866C.49798585 .6465149 .57398989 .54959109 .57398989 .36375428 .57398989 .17990113 .49798585 .08198547 .35398866 .08198547H.18199158Z"/>
<path id="font_3_20" d="M.57499697 .52360537C.57598879 .528595 .57699587 .53160098 .57699587 .5325928 .58799746 .568573 .58898928 .5725708 .58898928 .59355166 .58898928 .6725006 .526001 .7285156 .43598939 .7285156 .32398988 .7285156 .22099304 .6375122 .22099304 .53959658 .22099304 .50961306 .22898865 .48562623 .24699402 .46264649 .18699646 .43067933 .1749878 .42268373 .1519928 .396698 .12399292 .36471559 .10398865 .3147583 .10398865 .27378846 .10398865 .23182678 .12098694 .20085144 .16699219 .1618805L.31199647 .037963869C.33999635 .01399231 .34999085-.005004883 .34999085-.033981325 .34999085-.08892822 .29899598-.13589478 .23799134-.13589478 .18798828-.13589478 .15098572-.10392761 .15098572-.05895996 .15098572-.045959474 .15299988-.034973146 .15899658-.01399231H.07398987C.06599426-.04096985 .06298828-.053955079 .06298828-.07495117 .06298828-.15789795 .1269989-.21289063 .22499085-.21289063 .2889862-.21289063 .34799195-.1869049 .3869934-.14189148 .42199708-.10392761 .44198609-.05696106 .44198609-.015991211 .44198609 .017990113 .43399049 .04096985 .4119873 .07093811 .45199586 .0839386 .48399354 .10392761 .5069885 .13090515 .5369873 .1658783 .5589905 .2228241 .5589905 .26679994 .5589905 .2947693 .5509949 .31976319 .5349884 .34173585 .5249939 .35372926 .5159912 .36271668 .48199464 .38970948L.35499574 .4906311C.32099916 .51760867 .31298829 .52960208 .31298829 .5525818 .31298829 .60453799 .3619995 .6515045 .41799928 .6515045 .46798707 .6515045 .5009918 .621521 .5009918 .5745697 .5009918 .5585785 .49798585 .5435791 .4909973 .52360537H.57499697M.23599243 .2288208C.20199585 .25779725 .19198609 .27679444 .19198609 .3087616 .19198609 .35673524 .21699524 .38771058 .2869873 .42767335L.41799928 .32176209C.44999696 .29577638 .47099305 .26080323 .47099305 .2308197 .47099305 .18286133 .43798829 .1408844 .37399293 .107910159L.23599243 .2288208Z"/>
<path id="font_3_4" d="M.25498963 .33203126H.6499939L.66799929 .41401673H.27198792L.32199098 .6465149H.73399356L.7509918 .7285156H.24499512L.08999634 0H.61299136L.6299896 .08198547H.20098877L.25498963 .33203126Z"/>
<path id="font_3_1" d="M.3909912 .7285156C.21699524 .5466156 .11299133 .31877137 .11299133 .11590576 .11299133-.0030212403 .14199829-.12693787 .19099427-.21289063H.24598694C.20899964-.11694336 .19099427-.023010254 .19099427 .07891846 .19099427 .30078126 .27799989 .5226288 .44599916 .7285156H.3909912Z"/>
<path id="font_3_11" d="M.5629883 .23365784 .56599429 .25065614C.57499697 .29866029 .5799866 .34074403 .5799866 .3678131 .5799866 .4640503 .49699403 .5390625 .3889923 .5390625 .3019867 .5390625 .21798706 .49806214 .16799927 .43096925 .12098694 .3678131 .083999637 .2536621 .083999637 .17262268 .083999637 .11859131 .10699463 .063568118 .1459961 .026550293 .18099976-.007446289 .22499085-.0234375 .28199769-.0234375 .4019928-.0234375 .5049896 .05055237 .5359955 .15861511H.45199586C.41600038 .08956909 .36299134 .05355835 .29599 .05355835 .21699524 .05355835 .17199707 .10258484 .17199707 .18763733 .17199707 .20864868 .17298889 .21864319 .1769867 .23365784H.5629883M.19499207 .30566407C.22099304 .39788819 .29499818 .4620514 .37599183 .4620514 .44699098 .4620514 .49198915 .41392518 .49198915 .33874513 .49198915 .3287201 .4909973 .32170106 .4889984 .30566407H.19499207Z"/>
<path id="font_3_14" d="M.18099976 .52441409 .069992069 0H.1539917L.21499634 .2892151C.23899842 .39904786 .30899049 .46705628 .39898683 .46705628 .44898988 .46705628 .48599244 .4320526 .48599244 .38604737 .48599244 .3800354 .48399354 .365036 .47999574 .3490448L.4059906 0H.48999024L.56999209 .3760376C.57299807 .3890381 .57398989 .40104676 .57398989 .41404725 .57398989 .49005128 .5209961 .5390625 .43798829 .5390625 .3619995 .5390625 .29599 .51205447 .24398804 .4590454L.25698854 .52441409H.18099976Z"/>
<path id="font_3_18" d="M.5139923 .37794496C.5189972 .39897157 .519989 .4079895 .519989 .42100526 .519989 .49105836 .45298768 .5390625 .35598756 .5390625 .2849884 .5390625 .22399903 .51805117 .18299866 .47904969 .14698792 .44403077 .12298584 .39196778 .12298584 .34490968 .12298584 .283844 .1579895 .25480653 .26098634 .22776795L.33499146 .20874024C.36799623 .19973755 .3829956 .19372559 .3919983 .18270874 .39898683 .17370606 .40499879 .15867615 .40499879 .14967346 .40499879 .13165283 .3889923 .100616458 .37298585 .08760071 .34799195 .0665741 .30499269 .05355835 .2619934 .05355835 .19299317 .05355835 .1539917 .080581668 .1539917 .13064575 .1539917 .13665772 .15499878 .1456604 .1559906 .15568543H.066986087C.06199646 .13264466 .06098938 .12063599 .06098938 .10461426 .06098938 .024551392 .1309967-.0234375 .24699402-.0234375 .3959961-.0234375 .49299623 .05355835 .49299623 .17269898 .49299623 .2337799 .45999146 .2658081 .37199403 .2878418L.29599 .3068695C.23999024 .32087709 .21099854 .34091188 .21099854 .36694337 .21099854 .3869629 .22299195 .4119873 .24099732 .4290161 .2649994 .45204164 .29499818 .4620514 .33898927 .4620514 .397995 .4620514 .43099977 .43902589 .43099977 .39997865 .43099977 .39297486 .43099977 .3859558 .42999269 .37794496H.5139923Z"/>
<path id="font_3_13" d="M.18199158 .52441409 .070999149 0H.15499878L.22499085 .32925416C.24099732 .40504457 .30899049 .46705628 .37599183 .46705628 .4249878 .46705628 .45799256 .4390564 .45799256 .39804078 .45799256 .38703919 .45700074 .3740387 .45399476 .3610382L.3769989 0H.46099855L.5309906 .32904054C.5469971 .40704347 .6159973 .46705628 .6879883 .46705628 .7350006 .46705628 .7639923 .43804933 .7639923 .39004518 .7639923 .37504579 .7639923 .37504579 .7549896 .34103395L.68299868 0H.7669983L.84599307 .37304688C.848999 .38404847 .85198977 .41705323 .85198977 .4280548 .85198977 .4540558 .83999636 .48205567 .81999209 .50505068 .7979889 .52905276 .7709961 .5390625 .72499087 .5390625 .6599884 .5390625 .6029968 .5130615 .5439911 .4560547 .5279999 .51205447 .4889984 .5390625 .4229889 .5390625 .35499574 .5390625 .30899049 .5190582 .24499512 .4590454L.2579956 .52441409H.18199158Z"/>
<path id="font_3_8" d="M.20899964 .7285156 .053985597-.00044250489H.1289978L.1459961 .07759094C.15899658 .046554567 .16799927 .032562257 .18299866 .017547608 .20899964-.00843811 .25-.0234375 .2939911-.0234375 .36099244-.0234375 .43199159 .0075531008 .47698976 .05455017 .5439911 .12564087 .58799746 .23977661 .58799746 .34291078 .58799746 .4550476 .5119934 .5390625 .41099549 .5390625 .37098695 .5390625 .32598878 .52705386 .29599 .50904849 .2789917 .49806214 .2659912 .48706056 .23498535 .45404054L.29299928 .7285156H.20899964M.3829956 .4620514C.45599366 .4620514 .5 .4099884 .5 .32388307 .5 .2668152 .48298646 .20274353 .45399476 .15467835 .41299439 .08659363 .36099244 .05355835 .29599 .05355835 .22799683 .05355835 .18499756 .10362244 .18499756 .18270874 .18499756 .2447815 .20298767 .3128662 .23098755 .3609314 .269989 .4270172 .32299806 .4620514 .3829956 .4620514Z"/>
<path id="font_3_12" d="M.30699159 .7285156H.22299195L.067993167 0H.1519928L.30699159 .7285156Z"/>
<path id="font_3_2" d="M.04798889-.21289063C.11099243-.14692688 .16999817-.067977908 .21598816 .014968872 .2899933 .14787293 .32499696 .27479554 .32499696 .40670777 .32499696 .51963809 .29499818 .6455536 .24798584 .7285156H.19299317C.23098755 .6315613 .24798584 .5376282 .24798584 .43069459 .24798584 .21482849 .15899658-.010025024-.007003784-.21289063H.04798889Z"/>
<path id="font_3_5" d="M.79299929 .38476563H.4889984L.47099305 .3027649H.69299319L.68699648 .2767334C.6719971 .2106781 .6429901 .16464234 .59199526 .12260437 .5379944 .078567508 .47999574 .057556154 .41099549 .057556154 .33699037 .057556154 .272995 .08557129 .24198914 .13162232 .21899414 .16664124 .20498657 .21968079 .20498657 .2767334 .20498657 .36476136 .23999024 .4678955 .29299928 .53800967 .35398866 .61712649 .43998719 .660202 .5369873 .660202 .59799197 .660202 .647995 .64216616 .68099978 .6071167 .70700076 .58106997 .71699526 .5540314 .71798709 .5079498H.8089905V.5149689 .5189667 .52497866C.8089905 .6582031 .71199038 .74121096 .5549927 .74121096 .43899537 .74121096 .34098817 .7012024 .2630005 .6231384 .16699219 .5269928 .10899353 .39076234 .10899353 .26072694 .10899353 .16664124 .14299011 .080566409 .19898987 .03555298 .24499512-.0024414063 .30999757-.0234375 .37799073-.0234375 .44299317-.0234375 .5119934-.0054473879 .56599429 .025558472 .58999636 .03955078 .60899356 .05355835 .6469879 .08557129L.651001-.0044403078H.70999148L.79299929 .38476563Z"/>
<path id="font_3_10" d="M.6499939 .7285156H.56599429L.5059967 .44804383C.47399903 .5130615 .43399049 .5390625 .36299134 .5390625 .19699097 .5390625 .07299805 .38095094 .07299805 .169693 .07299805 .05255127 .13999939-.0234375 .24398804-.0234375 .2869873-.0234375 .33299256-.00944519 .37298585 .014556885 .40299989 .032562257 .41600038 .047561647 .42999269 .07557678L.4139862-.00044250489H.49499513L.6499939 .7285156M.35499574 .4620514C.42900086 .4620514 .47299195 .4119873 .47299195 .32688905 .47299195 .26782228 .45700074 .20674134 .4269867 .15467835 .3880005 .08760071 .33898927 .05355835 .27799989 .05355835 .20399475 .05355835 .16099549 .10362244 .16099549 .18972779 .16099549 .24578858 .17799378 .3098755 .20498657 .3609314 .24299622 .43000794 .29100038 .4620514 .35499574 .4620514Z"/>
<path id="font_3_7" d="M.5519867 .05055237C.54299929 .048553468 .5389862 .048553468 .5349884 .048553468 .5089874 .048553468 .49699403 .05757141 .49699403 .07759094 .49699403 .081588748 .49699403 .08459473 .49798585 .08760071L.56199648 .3889618C.56799319 .41600038 .56799319 .41600038 .56799319 .42601014 .56799319 .49404908 .49899293 .5390625 .3939972 .5390625 .25498963 .5390625 .16999817 .48005677 .15098572 .36894227H.23498535C.24398804 .39697267 .25099183 .41099549 .2649994 .42500306 .2869873 .44703675 .32899476 .4620514 .37199403 .4620514 .43199159 .4620514 .47799684 .43502809 .47799684 .39797975 .47799684 .39396668 .47698976 .3869629 .47599793 .37895204L.47299195 .3609314C.46398927 .31988526 .44499208 .3088684 .37199403 .30186463 .23799134 .2898407 .19599915 .27983094 .14698792 .24879456 .09498596 .21575928 .06498718 .16268921 .06498718 .10462952 .06498718 .024551392 .11898804-.0234375 .20899964-.0234375 .24398804-.0234375 .28599549-.016448975 .32199098-.0034484864 .35398866 .0075531008 .36898805 .017547608 .4099884 .05355835V.046554567 .042556764C.4099884 .0015563965 .43798829-.0234375 .48599244-.0234375 .49699403-.0234375 .5-.0234375 .5249939-.017440796 .5269928-.016448975 .5329895-.0154418949 .5389862-.014450073L.5519867 .05055237M.43099977 .16369629C.41799928 .101623538 .32998658 .048553468 .24198914 .048553468 .18499756 .048553468 .15299988 .07258606 .15299988 .11463928 .15299988 .14767456 .17199707 .18070984 .20199585 .19873047 .22599793 .21376038 .2559967 .22177124 .30499269 .22877503 .39898683 .24179077 .40699769 .2427826 .45098878 .2578125L.43099977 .16369629Z"/>
<path id="font_3_19" d="M.3659973 .52441409H.2769928L.30799867 .66841128H.22399903L.19299317 .52441409H.12199402L.10798645 .45741273H.1789856L.099990848 .086639408C.09799194 .07661438 .09700012 .065597537 .09700012 .05557251 .09700012 .0065612795 .1309967-.0234375 .18598938-.0234375 .20599365-.0234375 .23699951-.020446778 .25099183-.016448975L.2669983 .05656433C.23599243 .049560548 .23098755 .048553468 .21899414 .048553468 .19699097 .048553468 .18299866 .05958557 .18299866 .0756073 .18299866 .07861328 .18399048 .08363342 .18499756 .089645389L.2630005 .45741273H.35198976L.3659973 .52441409Z"/>
<path id="font_3_3" d="M.08898926 0H.37098695C.47898866 0 .56999209 .04499817 .6429901 .13394165 .71099856 .21687317 .7589874 .3627472 .7589874 .48764039 .7589874 .5605774 .72898867 .6345215 .6819916 .6765137 .6439972 .71051028 .59098818 .7285156 .526001 .7285156H.24398804L.08898926 0M.19999695 .08198547 .32099916 .6465149H.49198915C.598999 .6465149 .6629944 .5835571 .6629944 .47964479 .6629944 .38772584 .6309967 .26783753 .59098818 .20487976 .5389862 .12495422 .46299745 .08198547 .37199403 .08198547H.19999695Z"/>
<path id="font_3_9" d="M.5509949 .34791566 .5519867 .3629303C.5529938 .37794496 .55400088 .3889618 .55400088 .39196778 .55400088 .42500306 .5359955 .46505738 .5099945 .49205018 .47898866 .52404788 .43798829 .5390625 .3809967 .5390625 .29100038 .5390625 .20999146 .50105288 .15699768 .4320221 .10998535 .37094117 .07598877 .2618103 .07598877 .169693 .07598877 .12263489 .09199524 .07357788 .11999512 .03855896 .1539917-.0044403078 .19898987-.0234375 .2630005-.0234375 .34498597-.0234375 .4139862 .005554199 .45999146 .059555055 .48599244 .08959961 .5019989 .12364197 .5179901 .17970276H.43399049C.4039917 .09761047 .34899903 .05355835 .2769928 .05355835 .20799256 .05355835 .1639862 .10261536 .1639862 .18070984 .1639862 .2447815 .18499756 .32087709 .21798706 .37294007 .25498963 .4320221 .30499269 .4620514 .3659973 .4620514 .42900086 .4620514 .46798707 .4270172 .46798707 .36994935 .46798707 .36393739 .46798707 .35691834 .46699525 .34791566H.5509949Z"/>
<path id="font_3_6" d="M.22599793 .24882508 .37998963 .37574769 .5479889 0H.6579895L.45199586 .43070985 .8129883 .7285156H.69299319L.24899292 .35575868 .32798768 .7285156H.23399353L.07899475 0H.17298889L.22599793 .24882508Z"/>
<path id="font_3_16" d="M.0069885256-.21336365H.09098816L.15098572 .06756592C.18199158 .0025482178 .22299195-.0234375 .2939911-.0234375 .37199403-.0234375 .44699098 .012557983 .49798585 .07557678 .5519867 .1416626 .58599856 .24578858 .58599856 .3439026 .58599856 .4640503 .5189972 .5390625 .4119873 .5390625 .36799623 .5390625 .32398988 .526062 .28399659 .50006106 .2519989 .48005677 .23999024 .46705628 .22698975 .44003297L.24499512 .52404788H.1639862L.0069885256-.21336365M.3789978 .4620514C.45399476 .4620514 .49798585 .4099884 .49798585 .32388307 .49798585 .26982118 .48098756 .20474243 .45399476 .15467835 .4169922 .08659363 .36698915 .05355835 .3019867 .05355835 .22898865 .05355835 .18299866 .10362244 .18299866 .18371582 .18299866 .24378968 .19999695 .3088684 .22999573 .3609314 .2669983 .42800904 .31698609 .4620514 .3789978 .4620514Z"/>
<path id="font_3_17" d="M.17999268 .52441409 .068984989 0H.15299988L.21099854 .27220155C.23699951 .39431764 .30799867 .45536805 .41799928 .45135499L.43598939 .5364075C.4229889 .5380554 .4149933 .5390625 .4039917 .5390625 .34599305 .5390625 .30099488 .51304629 .23899842 .44204713L.2559967 .52441409H.17999268Z"/>
<path id="font_3_15" d="M.38398744 .5390625C.29100038 .5390625 .20899964 .49705506 .1579895 .42300416 .11299133 .3589325 .07998657 .24879456 .07998657 .16369629 .07998657 .05255127 .15699768-.0234375 .2689972-.0234375 .36499024-.0234375 .44099427 .015548706 .49699403 .09260559 .54299929 .15568543 .57598879 .26481629 .57598879 .35191346 .57598879 .40498353 .55599978 .45603944 .5209961 .49005128 .4869995 .52305606 .44198609 .5390625 .38398744 .5390625M.37098695 .4620514C.44499208 .4620514 .48799134 .41400147 .48799134 .332901 .48799134 .27381898 .47099305 .20874024 .44400025 .15867615 .4059906 .08959961 .35198976 .05355835 .2829895 .05355835 .21199036 .05355835 .16799927 .10362244 .16799927 .18371582 .16799927 .24078369 .18499756 .3068695 .21199036 .35691834 .24899292 .42500306 .30499269 .4620514 .37098695 .4620514Z"/>
</defs>
<path transform="matrix(1,0,0,-1,389.207,25.085007)" d="M64.65761 20.60194H-64.65761C-66.85855 20.60194-68.64272 18.81778-68.64272 16.61684V-16.61684C-68.64272-18.81778-66.85855-20.60194-64.65761-20.60194H64.65761C66.85855-20.60194 68.64272-18.81778 68.64272-16.61684V16.61684C68.64272 18.81778 66.85855 20.60194 64.65761 20.60194ZM-68.64272-20.60194" fill="#1f6f6f"/>
<path transform="matrix(1,0,0,-1,389.207,25.085007)" stroke-width=".99628" stroke-linecap="butt" stroke-miterlimit="10" stroke-linejoin="miter" fill="none" stroke="#1f6f6f" d="M64.65761 20.60194H-64.65761C-66.85855 20.60194-68.64272 18.81778-68.64272 16.61684V-16.61684C-68.64272-18.81778-66.85855-20.60194-64.65761-20.60194H64.65761C66.85855-20.60194 68.64272-18.81778 68.64272-16.61684V16.61684C68.64272 18.81778 66.85855 20.60194 64.65761 20.60194ZM-68.64272-20.60194"/>
<use data-text="M" xlink:href="#font_1_4" transform="matrix(11.9552,0,0,-11.9552,356.277,21.175004)" fill="#ffffff"/>
<use data-text="u" xlink:href="#font_1_24" transform="matrix(11.9552,0,0,-11.9552,366.2357,21.175004)" fill="#ffffff"/>
<use data-text="l" xlink:href="#font_1_16" transform="matrix(11.9552,0,0,-11.9552,373.5403,21.175004)" fill="#ffffff"/>
<use data-text="t" xlink:href="#font_1_23" transform="matrix(11.9552,0,0,-11.9552,376.86387,21.175004)" fill="#ffffff"/>
<use data-text="i" xlink:href="#font_1_15" transform="matrix(11.9552,0,0,-11.9552,380.84495,21.175004)" fill="#ffffff"/>
<use data-text="-" xlink:href="#font_1_26" transform="matrix(11.9552,0,0,-11.9552,384.1685,21.175004)" fill="#ffffff"/>
<use data-text="A" xlink:href="#font_1_28" transform="matrix(11.9552,0,0,-11.9552,388.14958,21.175004)" fill="#ffffff"/>
<use data-text="g" xlink:href="#font_1_14" transform="matrix(11.9552,0,0,-11.9552,396.78123,21.175004)" fill="#ffffff"/>
<use data-text="e" xlink:href="#font_1_13" transform="matrix(11.9552,0,0,-11.9552,404.20539,21.175004)" fill="#ffffff"/>
<use data-text="n" xlink:href="#font_1_18" transform="matrix(11.9552,0,0,-11.9552,410.85249,21.175004)" fill="#ffffff"/>
<use data-text="t" xlink:href="#font_1_23" transform="matrix(11.9552,0,0,-11.9552,418.1571,21.175004)" fill="#ffffff"/>
<use data-text="E" xlink:href="#font_1_3" transform="matrix(11.9552,0,0,-11.9552,328.536,35.12201)" fill="#ffffff"/>
<use data-text="v" xlink:href="#font_1_25" transform="matrix(11.9552,0,0,-11.9552,336.51014,35.12201)" fill="#ffffff"/>
<use data-text="a" xlink:href="#font_1_9" transform="matrix(11.9552,0,0,-11.9552,342.91813,35.12201)" fill="#ffffff"/>
<use data-text="l" xlink:href="#font_1_16" transform="matrix(11.9552,0,0,-11.9552,349.56523,35.12201)" fill="#ffffff"/>
<use data-text="u" xlink:href="#font_1_24" transform="matrix(11.9552,0,0,-11.9552,352.88877,35.12201)" fill="#ffffff"/>
<use data-text="a" xlink:href="#font_1_9" transform="matrix(11.9552,0,0,-11.9552,360.1934,35.12201)" fill="#ffffff"/>
<use data-text="t" xlink:href="#font_1_23" transform="matrix(11.9552,0,0,-11.9552,366.84049,35.12201)" fill="#ffffff"/>
<use data-text="i" xlink:href="#font_1_15" transform="matrix(11.9552,0,0,-11.9552,370.82157,35.12201)" fill="#ffffff"/>
<use data-text="o" xlink:href="#font_1_19" transform="matrix(11.9552,0,0,-11.9552,374.1451,35.12201)" fill="#ffffff"/>
<use data-text="n" xlink:href="#font_1_18" transform="matrix(11.9552,0,0,-11.9552,381.44975,35.12201)" fill="#ffffff"/>
<use data-text="S" xlink:href="#font_1_7" transform="matrix(11.9552,0,0,-11.9552,392.0779,35.12201)" fill="#ffffff"/>
<use data-text="t" xlink:href="#font_1_23" transform="matrix(11.9552,0,0,-11.9552,400.05204,35.12201)" fill="#ffffff"/>
<use data-text="r" xlink:href="#font_1_21" transform="matrix(11.9552,0,0,-11.9552,404.0331,35.12201)" fill="#ffffff"/>
<use data-text="a" xlink:href="#font_1_9" transform="matrix(11.9552,0,0,-11.9552,408.6837,35.12201)" fill="#ffffff"/>
<use data-text="t" xlink:href="#font_1_23" transform="matrix(11.9552,0,0,-11.9552,415.33079,35.12201)" fill="#ffffff"/>
<use data-text="e" xlink:href="#font_1_13" transform="matrix(11.9552,0,0,-11.9552,419.31187,35.12201)" fill="#ffffff"/>
<use data-text="g" xlink:href="#font_1_14" transform="matrix(11.9552,0,0,-11.9552,425.95896,35.12201)" fill="#ffffff"/>
<use data-text="i" xlink:href="#font_1_15" transform="matrix(11.9552,0,0,-11.9552,433.26359,35.12201)" fill="#ffffff"/>
<use data-text="e" xlink:href="#font_1_13" transform="matrix(11.9552,0,0,-11.9552,436.58714,35.12201)" fill="#ffffff"/>
<use data-text="s" xlink:href="#font_1_22" transform="matrix(11.9552,0,0,-11.9552,443.23423,35.12201)" fill="#ffffff"/>
<path transform="matrix(1,0,0,-1,389.207,25.085007)" d="M-244.93309-66.95313H-333.34208C-335.543-66.95313-337.32716-68.73729-337.32716-70.93823V-96.98418C-337.32716-99.18512-335.543-100.96928-333.34208-100.96928H-244.93309C-242.73217-100.96928-240.94799-99.18512-240.94799-96.98418V-70.93823C-240.94799-68.73729-242.73217-66.95313-244.93309-66.95313ZM-337.32716-100.96928" fill="#1f6f6f"/>
<path transform="matrix(1,0,0,-1,389.207,25.085007)" stroke-width=".99628" stroke-linecap="butt" stroke-miterlimit="10" stroke-linejoin="miter" fill="none" stroke="#1f6f6f" d="M-244.93309-66.95313H-333.34208C-335.543-66.95313-337.32716-68.73729-337.32716-70.93823V-96.98418C-337.32716-99.18512-335.543-100.96928-333.34208-100.96928H-244.93309C-242.73217-100.96928-240.94799-99.18512-240.94799-96.98418V-70.93823C-240.94799-68.73729-242.73217-66.95313-244.93309-66.95313ZM-337.32716-100.96928"/>
<use data-text="E" xlink:href="#font_1_3" transform="matrix(9.9626,0,0,-9.9626,76.59201,105.553)" fill="#ffffff"/>
<use data-text="n" xlink:href="#font_1_18" transform="matrix(9.9626,0,0,-9.9626,83.23707,105.553)" fill="#ffffff"/>
<use data-text="s" xlink:href="#font_1_22" transform="matrix(9.9626,0,0,-9.9626,89.32422,105.553)" fill="#ffffff"/>
<use data-text="e" xlink:href="#font_1_13" transform="matrix(9.9626,0,0,-9.9626,94.86343,105.553)" fill="#ffffff"/>
<use data-text="m" xlink:href="#font_1_17" transform="matrix(9.9626,0,0,-9.9626,100.40263,105.553)" fill="#ffffff"/>
<use data-text="b" xlink:href="#font_1_10" transform="matrix(9.9626,0,0,-9.9626,109.259387,105.553)" fill="#ffffff"/>
<use data-text="l" xlink:href="#font_1_16" transform="matrix(9.9626,0,0,-9.9626,115.24691,105.553)" fill="#ffffff"/>
<use data-text="e" xlink:href="#font_1_13" transform="matrix(9.9626,0,0,-9.9626,118.01651,105.553)" fill="#ffffff"/>
<use data-text="V" xlink:href="#font_1_8" transform="matrix(9.9626,0,0,-9.9626,85.02501,117.508)" fill="#ffffff"/>
<use data-text="o" xlink:href="#font_1_19" transform="matrix(9.9626,0,0,-9.9626,90.77343,117.508)" fill="#ffffff"/>
<use data-text="t" xlink:href="#font_1_23" transform="matrix(9.9626,0,0,-9.9626,96.86058,117.508)" fill="#ffffff"/>
<use data-text="i" xlink:href="#font_1_15" transform="matrix(9.9626,0,0,-9.9626,100.17812,117.508)" fill="#ffffff"/>
<use data-text="n" xlink:href="#font_1_18" transform="matrix(9.9626,0,0,-9.9626,102.94772,117.508)" fill="#ffffff"/>
<use data-text="g" xlink:href="#font_1_14" transform="matrix(9.9626,0,0,-9.9626,109.034877,117.508)" fill="#ffffff"/>
<path transform="matrix(1,0,0,-1,389.207,25.085007)" d="M-52.1747-66.95313H-140.58367C-142.7846-66.95313-144.56877-68.73729-144.56877-70.93823V-96.98418C-144.56877-99.18512-142.7846-100.96928-140.58367-100.96928H-52.1747C-49.97375-100.96928-48.18959-99.18512-48.18959-96.98418V-70.93823C-48.18959-68.73729-49.97375-66.95313-52.1747-66.95313ZM-144.56877-100.96928" fill="#c75146"/>
<path transform="matrix(1,0,0,-1,389.207,25.085007)" stroke-width=".99628" stroke-linecap="butt" stroke-miterlimit="10" stroke-linejoin="miter" fill="none" stroke="#c75146" d="M-52.1747-66.95313H-140.58367C-142.7846-66.95313-144.56877-68.73729-144.56877-70.93823V-96.98418C-144.56877-99.18512-142.7846-100.96928-140.58367-100.96928H-52.1747C-49.97375-100.96928-48.18959-99.18512-48.18959-96.98418V-70.93823C-48.18959-68.73729-49.97375-66.95313-52.1747-66.95313ZM-144.56877-100.96928"/>
<use data-text="M" xlink:href="#font_1_4" transform="matrix(9.9626,0,0,-9.9626,265.388,106.65202)" fill="#ffffff"/>
<use data-text="u" xlink:href="#font_1_24" transform="matrix(9.9626,0,0,-9.9626,273.68687,106.65202)" fill="#ffffff"/>
<use data-text="l" xlink:href="#font_1_16" transform="matrix(9.9626,0,0,-9.9626,279.77403,106.65202)" fill="#ffffff"/>
<use data-text="t" xlink:href="#font_1_23" transform="matrix(9.9626,0,0,-9.9626,282.5436,106.65202)" fill="#ffffff"/>
<use data-text="i" xlink:href="#font_1_15" transform="matrix(9.9626,0,0,-9.9626,285.86116,106.65202)" fill="#ffffff"/>
<use data-text="-" xlink:href="#font_1_26" transform="matrix(9.9626,0,0,-9.9626,288.63075,106.65202)" fill="#ffffff"/>
<use data-text="A" xlink:href="#font_1_28" transform="matrix(9.9626,0,0,-9.9626,291.94828,106.65202)" fill="#ffffff"/>
<use data-text="g" xlink:href="#font_1_14" transform="matrix(9.9626,0,0,-9.9626,299.14128,106.65202)" fill="#ffffff"/>
<use data-text="e" xlink:href="#font_1_13" transform="matrix(9.9626,0,0,-9.9626,305.32807,106.65202)" fill="#ffffff"/>
<use data-text="n" xlink:href="#font_1_18" transform="matrix(9.9626,0,0,-9.9626,310.86729,106.65202)" fill="#ffffff"/>
<use data-text="t" xlink:href="#font_1_23" transform="matrix(9.9626,0,0,-9.9626,316.95445,106.65202)" fill="#ffffff"/>
<use data-text="D" xlink:href="#font_1_2" transform="matrix(9.9626,0,0,-9.9626,276.222,118.607028)" fill="#ffffff"/>
<use data-text="e" xlink:href="#font_1_13" transform="matrix(9.9626,0,0,-9.9626,283.41499,118.607028)" fill="#ffffff"/>
<use data-text="b" xlink:href="#font_1_10" transform="matrix(9.9626,0,0,-9.9626,288.9542,118.607028)" fill="#ffffff"/>
<use data-text="a" xlink:href="#font_1_9" transform="matrix(9.9626,0,0,-9.9626,295.04136,118.607028)" fill="#ffffff"/>
<use data-text="t" xlink:href="#font_1_23" transform="matrix(9.9626,0,0,-9.9626,300.58058,118.607028)" fill="#ffffff"/>
<use data-text="e" xlink:href="#font_1_13" transform="matrix(9.9626,0,0,-9.9626,303.8981,118.607028)" fill="#ffffff"/>
<path transform="matrix(1,0,0,-1,389.207,25.085007)" d="M140.58367-66.95313H52.1747C49.97375-66.95313 48.18959-68.73729 48.18959-70.93823V-96.98418C48.18959-99.18512 49.97375-100.96928 52.1747-100.96928H140.58367C142.7846-100.96928 144.56877-99.18512 144.56877-96.98418V-70.93823C144.56877-68.73729 142.7846-66.95313 140.58367-66.95313ZM48.18959-100.96928" fill="#d4a017"/>
<path transform="matrix(1,0,0,-1,389.207,25.085007)" stroke-width=".99628" stroke-linecap="butt" stroke-miterlimit="10" stroke-linejoin="miter" fill="none" stroke="#d4a017" d="M140.58367-66.95313H52.1747C49.97375-66.95313 48.18959-68.73729 48.18959-70.93823V-96.98418C48.18959-99.18512 49.97375-100.96928 52.1747-100.96928H140.58367C142.7846-100.96928 144.56877-99.18512 144.56877-96.98418V-70.93823C144.56877-68.73729 142.7846-66.95313 140.58367-66.95313ZM48.18959-100.96928"/>
<use data-text="C" xlink:href="#font_1_1" transform="matrix(9.9626,0,0,-9.9626,465.097,105.678)" fill="#ffffff"/>
<use data-text="a" xlink:href="#font_1_9" transform="matrix(9.9626,0,0,-9.9626,472.28999,105.678)" fill="#ffffff"/>
<use data-text="s" xlink:href="#font_1_22" transform="matrix(9.9626,0,0,-9.9626,477.8292,105.678)" fill="#ffffff"/>
<use data-text="c" xlink:href="#font_1_11" transform="matrix(9.9626,0,0,-9.9626,483.3684,105.678)" fill="#ffffff"/>
<use data-text="a" xlink:href="#font_1_9" transform="matrix(9.9626,0,0,-9.9626,488.90763,105.678)" fill="#ffffff"/>
<use data-text="d" xlink:href="#font_1_12" transform="matrix(9.9626,0,0,-9.9626,494.44685,105.678)" fill="#ffffff"/>
<use data-text="e" xlink:href="#font_1_13" transform="matrix(9.9626,0,0,-9.9626,500.534,105.678)" fill="#ffffff"/>
<use data-text="R" xlink:href="#font_1_6" transform="matrix(9.9626,0,0,-9.9626,466.771,117.633)" fill="#ffffff"/>
<use data-text="o" xlink:href="#font_1_19" transform="matrix(9.9626,0,0,-9.9626,473.964,117.633)" fill="#ffffff"/>
<use data-text="u" xlink:href="#font_1_24" transform="matrix(9.9626,0,0,-9.9626,480.05116,117.633)" fill="#ffffff"/>
<use data-text="t" xlink:href="#font_1_23" transform="matrix(9.9626,0,0,-9.9626,486.1383,117.633)" fill="#ffffff"/>
<use data-text="i" xlink:href="#font_1_15" transform="matrix(9.9626,0,0,-9.9626,489.45585,117.633)" fill="#ffffff"/>
<use data-text="n" xlink:href="#font_1_18" transform="matrix(9.9626,0,0,-9.9626,492.22544,117.633)" fill="#ffffff"/>
<use data-text="g" xlink:href="#font_1_14" transform="matrix(9.9626,0,0,-9.9626,498.3126,117.633)" fill="#ffffff"/>
<path transform="matrix(1,0,0,-1,389.207,25.085007)" d="M333.34208-66.95313H244.93309C242.73217-66.95313 240.94799-68.73729 240.94799-70.93823V-96.98418C240.94799-99.18512 242.73217-100.96928 244.93309-100.96928H333.34208C335.543-100.96928 337.32716-99.18512 337.32716-96.98418V-70.93823C337.32716-68.73729 335.543-66.95313 333.34208-66.95313ZM240.94799-100.96928" fill="#3b6ea5"/>
<path transform="matrix(1,0,0,-1,389.207,25.085007)" stroke-width=".99628" stroke-linecap="butt" stroke-miterlimit="10" stroke-linejoin="miter" fill="none" stroke="#3b6ea5" d="M333.34208-66.95313H244.93309C242.73217-66.95313 240.94799-68.73729 240.94799-70.93823V-96.98418C240.94799-99.18512 242.73217-100.96928 244.93309-100.96928H333.34208C335.543-100.96928 337.32716-99.18512 337.32716-96.98418V-70.93823C337.32716-68.73729 335.543-66.95313 333.34208-66.95313ZM240.94799-100.96928"/>
<use data-text="P" xlink:href="#font_1_5" transform="matrix(9.9626,0,0,-9.9626,653.928,105.553)" fill="#ffffff"/>
<use data-text="e" xlink:href="#font_1_13" transform="matrix(9.9626,0,0,-9.9626,660.2742,105.553)" fill="#ffffff"/>
<use data-text="r" xlink:href="#font_1_21" transform="matrix(9.9626,0,0,-9.9626,665.81338,105.553)" fill="#ffffff"/>
<use data-text="s" xlink:href="#font_1_22" transform="matrix(9.9626,0,0,-9.9626,669.53939,105.553)" fill="#ffffff"/>
<use data-text="o" xlink:href="#font_1_19" transform="matrix(9.9626,0,0,-9.9626,675.07858,105.553)" fill="#ffffff"/>
<use data-text="n" xlink:href="#font_1_18" transform="matrix(9.9626,0,0,-9.9626,681.1657,105.553)" fill="#ffffff"/>
<use data-text="a" xlink:href="#font_1_9" transform="matrix(9.9626,0,0,-9.9626,687.25289,105.553)" fill="#ffffff"/>
<use data-text="&amp;" xlink:href="#font_1_27" transform="matrix(9.9626,0,0,-9.9626,695.56167,105.553)" fill="#ffffff"/>
<use data-text="P" xlink:href="#font_1_5" transform="matrix(9.9626,0,0,-9.9626,653.534,117.508)" fill="#ffffff"/>
<use data-text="r" xlink:href="#font_1_21" transform="matrix(9.9626,0,0,-9.9626,660.1791,117.508)" fill="#ffffff"/>
<use data-text="o" xlink:href="#font_1_19" transform="matrix(9.9626,0,0,-9.9626,663.8552,117.508)" fill="#ffffff"/>
<use data-text="m" xlink:href="#font_1_17" transform="matrix(9.9626,0,0,-9.9626,669.9424,117.508)" fill="#ffffff"/>
<use data-text="p" xlink:href="#font_1_20" transform="matrix(9.9626,0,0,-9.9626,678.79916,117.508)" fill="#ffffff"/>
<use data-text="t" xlink:href="#font_1_23" transform="matrix(9.9626,0,0,-9.9626,684.8863,117.508)" fill="#ffffff"/>
<use data-text="i" xlink:href="#font_1_15" transform="matrix(9.9626,0,0,-9.9626,688.20388,117.508)" fill="#ffffff"/>
<use data-text="n" xlink:href="#font_1_18" transform="matrix(9.9626,0,0,-9.9626,690.97348,117.508)" fill="#ffffff"/>
<use data-text="g" xlink:href="#font_1_14" transform="matrix(9.9626,0,0,-9.9626,697.0606,117.508)" fill="#ffffff"/>
<path transform="matrix(1,0,0,-1,389.207,25.085007)" d="M-292.8144-130.21274H-381.83995C-383.49067-130.21274-384.82878-131.55086-384.82878-133.20157V-158.40538C-384.82878-160.05609-383.49067-161.39421-381.83995-161.39421H-292.8144C-291.16368-161.39421-289.82557-160.05609-289.82557-158.40538V-133.20157C-289.82557-131.55086-291.16368-130.21274-292.8144-130.21274ZM-384.82878-161.39421" fill="#edf3f3"/>
<path transform="matrix(1,0,0,-1,389.207,25.085007)" stroke-width=".79701" stroke-linecap="butt" stroke-miterlimit="10" stroke-linejoin="miter" fill="none" stroke="#1f6f6f" d="M-292.8144-130.21274H-381.83995C-383.49067-130.21274-384.82878-131.55086-384.82878-133.20157V-158.40538C-384.82878-160.05609-383.49067-161.39421-381.83995-161.39421H-292.8144C-291.16368-161.39421-289.82557-160.05609-289.82557-158.40538V-133.20157C-289.82557-131.55086-291.16368-130.21274-292.8144-130.21274ZM-384.82878-161.39421"/>
<use data-text="C" xlink:href="#font_2_6" transform="matrix(8.9664,0,0,-8.9664,25.71199,167.77701)" fill="#1f2937"/>
<use data-text="r" xlink:href="#font_2_30" transform="matrix(8.9664,0,0,-8.9664,32.18573,167.77701)" fill="#1f2937"/>
<use data-text="o" xlink:href="#font_2_28" transform="matrix(8.9664,0,0,-8.9664,35.171548,167.77701)" fill="#1f2937"/>
<use data-text="s" xlink:href="#font_2_31" transform="matrix(8.9664,0,0,-8.9664,40.156869,167.77701)" fill="#1f2937"/>
<use data-text="s" xlink:href="#font_2_31" transform="matrix(8.9664,0,0,-8.9664,44.640069,167.77701)" fill="#1f2937"/>
<use data-text="-" xlink:href="#font_2_3" transform="matrix(8.9664,0,0,-8.9664,49.12327,167.77701)" fill="#1f2937"/>
<use data-text="F" xlink:href="#font_2_9" transform="matrix(8.9664,0,0,-8.9664,52.109079,167.77701)" fill="#1f2937"/>
<use data-text="a" xlink:href="#font_2_16" transform="matrix(8.9664,0,0,-8.9664,57.13923,167.77701)" fill="#1f2937"/>
<use data-text="m" xlink:href="#font_2_26" transform="matrix(8.9664,0,0,-8.9664,62.12455,167.77701)" fill="#1f2937"/>
<use data-text="i" xlink:href="#font_2_24" transform="matrix(8.9664,0,0,-8.9664,69.59356,167.77701)" fill="#1f2937"/>
<use data-text="l" xlink:href="#font_2_25" transform="matrix(8.9664,0,0,-8.9664,71.5841,167.77701)" fill="#1f2937"/>
<use data-text="y" xlink:href="#font_2_36" transform="matrix(8.9664,0,0,-8.9664,73.57464,167.77701)" fill="#1f2937"/>
<use data-text="P" xlink:href="#font_2_13" transform="matrix(8.9664,0,0,-8.9664,23.63499,178.735)" fill="#1f2937"/>
<use data-text="a" xlink:href="#font_2_16" transform="matrix(8.9664,0,0,-8.9664,29.256924,178.735)" fill="#1f2937"/>
<use data-text="n" xlink:href="#font_2_27" transform="matrix(8.9664,0,0,-8.9664,34.24224,178.735)" fill="#1f2937"/>
<use data-text="e" xlink:href="#font_2_20" transform="matrix(8.9664,0,0,-8.9664,39.227563,178.735)" fill="#1f2937"/>
<use data-text="l" xlink:href="#font_2_25" transform="matrix(8.9664,0,0,-8.9664,44.212884,178.735)" fill="#1f2937"/>
<use data-text="s" xlink:href="#font_2_31" transform="matrix(8.9664,0,0,-8.9664,46.203424,178.735)" fill="#1f2937"/>
<use data-text="(" xlink:href="#font_2_1" transform="matrix(8.9664,0,0,-8.9664,53.672433,178.735)" fill="#1f2937"/>
<use data-text="P" xlink:href="#font_2_13" transform="matrix(8.9664,0,0,-8.9664,56.65825,178.735)" fill="#1f2937"/>
<use data-text="o" xlink:href="#font_2_28" transform="matrix(8.9664,0,0,-8.9664,62.19052,178.735)" fill="#1f2937"/>
<use data-text="L" xlink:href="#font_2_12" transform="matrix(8.9664,0,0,-8.9664,67.17584,178.735)" fill="#1f2937"/>
<use data-text="L" xlink:href="#font_2_12" transform="matrix(8.9664,0,0,-8.9664,72.16116,178.735)" fill="#1f2937"/>
<use data-text=")" xlink:href="#font_2_2" transform="matrix(8.9664,0,0,-8.9664,77.146488,178.735)" fill="#1f2937"/>
<path transform="matrix(1,0,0,-1,389.207,25.085007)" d="M-196.43521-130.21274H-285.4608C-287.11149-130.21274-288.4496-131.55086-288.4496-133.20157V-158.40538C-288.4496-160.05609-287.11149-161.39421-285.4608-161.39421H-196.43521C-194.7845-161.39421-193.44638-160.05609-193.44638-158.40538V-133.20157C-193.44638-131.55086-194.7845-130.21274-196.43521-130.21274ZM-288.4496-161.39421" fill="#edf3f3"/>
<path transform="matrix(1,0,0,-1,389.207,25.085007)" stroke-width=".79701" stroke-linecap="butt" stroke-miterlimit="10" stroke-linejoin="miter" fill="none" stroke="#1f6f6f" d="M-196.43521-130.21274H-285.4608C-287.11149-130.21274-288.4496-131.55086-288.4496-133.20157V-158.40538C-288.4496-160.05609-287.11149-161.39421-285.4608-161.39421H-196.43521C-194.7845-161.39421-193.44638-160.05609-193.44638-158.40538V-133.20157C-193.44638-131.55086-194.7845-130.21274-196.43521-130.21274ZM-288.4496-161.39421"/>
<use data-text="S" xlink:href="#font_2_15" transform="matrix(8.9664,0,0,-8.9664,139.04502,167.75202)" fill="#1f2937"/>
<use data-text="e" xlink:href="#font_2_20" transform="matrix(8.9664,0,0,-8.9664,145.0256,167.75202)" fill="#1f2937"/>
<use data-text="l" xlink:href="#font_2_25" transform="matrix(8.9664,0,0,-8.9664,150.01093,167.75202)" fill="#1f2937"/>
<use data-text="f" xlink:href="#font_2_21" transform="matrix(8.9664,0,0,-8.9664,152.00147,167.75202)" fill="#1f2937"/>
<use data-text="-" xlink:href="#font_2_3" transform="matrix(8.9664,0,0,-8.9664,154.49413,167.75202)" fill="#1f2937"/>
<use data-text="C" xlink:href="#font_2_6" transform="matrix(8.9664,0,0,-8.9664,123.847019,178.71102)" fill="#1f2937"/>
<use data-text="o" xlink:href="#font_2_28" transform="matrix(8.9664,0,0,-8.9664,130.32076,178.71102)" fill="#1f2937"/>
<use data-text="n" xlink:href="#font_2_27" transform="matrix(8.9664,0,0,-8.9664,135.30608,178.71102)" fill="#1f2937"/>
<use data-text="s" xlink:href="#font_2_31" transform="matrix(8.9664,0,0,-8.9664,140.2914,178.71102)" fill="#1f2937"/>
<use data-text="i" xlink:href="#font_2_24" transform="matrix(8.9664,0,0,-8.9664,144.7746,178.71102)" fill="#1f2937"/>
<use data-text="s" xlink:href="#font_2_31" transform="matrix(8.9664,0,0,-8.9664,146.76514,178.71102)" fill="#1f2937"/>
<use data-text="t" xlink:href="#font_2_32" transform="matrix(8.9664,0,0,-8.9664,151.24834,178.71102)" fill="#1f2937"/>
<use data-text="e" xlink:href="#font_2_20" transform="matrix(8.9664,0,0,-8.9664,153.741,178.71102)" fill="#1f2937"/>
<use data-text="n" xlink:href="#font_2_27" transform="matrix(8.9664,0,0,-8.9664,158.72632,178.71102)" fill="#1f2937"/>
<use data-text="c" xlink:href="#font_2_18" transform="matrix(8.9664,0,0,-8.9664,163.71164,178.71102)" fill="#1f2937"/>
<use data-text="y" xlink:href="#font_2_36" transform="matrix(8.9664,0,0,-8.9664,168.19484,178.71102)" fill="#1f2937"/>
<path transform="matrix(1,0,0,-1,389.207,25.085007)" d="M-100.056-130.21274H-189.08155C-190.73226-130.21274-192.07038-131.55086-192.07038-133.20157V-158.40538C-192.07038-160.05609-190.73226-161.39421-189.08155-161.39421H-100.056C-98.40529-161.39421-97.06717-160.05609-97.06717-158.40538V-133.20157C-97.06717-131.55086-98.40529-130.21274-100.056-130.21274ZM-192.07038-161.39421" fill="#fbf1f0"/>
<path transform="matrix(1,0,0,-1,389.207,25.085007)" stroke-width=".79701" stroke-linecap="butt" stroke-miterlimit="10" stroke-linejoin="miter" fill="none" stroke="#c75146" d="M-100.056-130.21274H-189.08155C-190.73226-130.21274-192.07038-131.55086-192.07038-133.20157V-158.40538C-192.07038-160.05609-190.73226-161.39421-189.08155-161.39421H-100.056C-98.40529-161.39421-97.06717-160.05609-97.06717-158.40538V-133.20157C-97.06717-131.55086-98.40529-130.21274-100.056-130.21274ZM-192.07038-161.39421"/>
<use data-text="I" xlink:href="#font_2_10" transform="matrix(8.9664,0,0,-8.9664,228.851,168.572)" fill="#1f2937"/>
<use data-text="t" xlink:href="#font_2_32" transform="matrix(8.9664,0,0,-8.9664,231.34366,168.572)" fill="#1f2937"/>
<use data-text="e" xlink:href="#font_2_20" transform="matrix(8.9664,0,0,-8.9664,233.83632,168.572)" fill="#1f2937"/>
<use data-text="r" xlink:href="#font_2_30" transform="matrix(8.9664,0,0,-8.9664,238.82164,168.572)" fill="#1f2937"/>
<use data-text="a" xlink:href="#font_2_16" transform="matrix(8.9664,0,0,-8.9664,241.71779,168.572)" fill="#1f2937"/>
<use data-text="t" xlink:href="#font_2_32" transform="matrix(8.9664,0,0,-8.9664,246.70311,168.572)" fill="#1f2937"/>
<use data-text="i" xlink:href="#font_2_24" transform="matrix(8.9664,0,0,-8.9664,249.19577,168.572)" fill="#1f2937"/>
<use data-text="v" xlink:href="#font_2_34" transform="matrix(8.9664,0,0,-8.9664,251.18631,168.572)" fill="#1f2937"/>
<use data-text="e" xlink:href="#font_2_20" transform="matrix(8.9664,0,0,-8.9664,255.44535,168.572)" fill="#1f2937"/>
<use data-text="R" xlink:href="#font_2_14" transform="matrix(8.9664,0,0,-8.9664,221.718,179.531)" fill="#1f2937"/>
<use data-text="e" xlink:href="#font_2_20" transform="matrix(8.9664,0,0,-8.9664,228.19174,179.531)" fill="#1f2937"/>
<use data-text="f" xlink:href="#font_2_37" transform="matrix(8.9664,0,0,-8.9664,233.17707,179.531)" fill="#1f2937"/>
<use data-text="n" xlink:href="#font_2_27" transform="matrix(8.9664,0,0,-8.9664,237.66027,179.531)" fill="#1f2937"/>
<use data-text="e" xlink:href="#font_2_20" transform="matrix(8.9664,0,0,-8.9664,242.64559,179.531)" fill="#1f2937"/>
<use data-text="m" xlink:href="#font_2_26" transform="matrix(8.9664,0,0,-8.9664,247.6309,179.531)" fill="#1f2937"/>
<use data-text="e" xlink:href="#font_2_20" transform="matrix(8.9664,0,0,-8.9664,255.09992,179.531)" fill="#1f2937"/>
<use data-text="n" xlink:href="#font_2_27" transform="matrix(8.9664,0,0,-8.9664,260.08525,179.531)" fill="#1f2937"/>
<use data-text="t" xlink:href="#font_2_32" transform="matrix(8.9664,0,0,-8.9664,265.07057,179.531)" fill="#1f2937"/>
<path transform="matrix(1,0,0,-1,389.207,25.085007)" d="M-3.67682-130.21274H-92.70238C-94.35307-130.21274-95.69121-131.55086-95.69121-133.20157V-158.40538C-95.69121-160.05609-94.35307-161.39421-92.70238-161.39421H-3.67682C-2.02611-161.39421-.68799-160.05609-.68799-158.40538V-133.20157C-.68799-131.55086-2.02611-130.21274-3.67682-130.21274ZM-95.69121-161.39421" fill="#fbf1f0"/>
<path transform="matrix(1,0,0,-1,389.207,25.085007)" stroke-width=".79701" stroke-linecap="butt" stroke-miterlimit="10" stroke-linejoin="miter" fill="none" stroke="#c75146" d="M-3.67682-130.21274H-92.70238C-94.35307-130.21274-95.69121-131.55086-95.69121-133.20157V-158.40538C-95.69121-160.05609-94.35307-161.39421-92.70238-161.39421H-3.67682C-2.02611-161.39421-.68799-160.05609-.68799-158.40538V-133.20157C-.68799-131.55086-2.02611-130.21274-3.67682-130.21274ZM-95.69121-161.39421"/>
<use data-text="R" xlink:href="#font_2_14" transform="matrix(8.9664,0,0,-8.9664,316.083,168.63701)" fill="#1f2937"/>
<use data-text="o" xlink:href="#font_2_28" transform="matrix(8.9664,0,0,-8.9664,322.55677,168.63701)" fill="#1f2937"/>
<use data-text="l" xlink:href="#font_2_25" transform="matrix(8.9664,0,0,-8.9664,327.54209,168.63701)" fill="#1f2937"/>
<use data-text="e" xlink:href="#font_2_20" transform="matrix(8.9664,0,0,-8.9664,329.53263,168.63701)" fill="#1f2937"/>
<use data-text="-" xlink:href="#font_2_3" transform="matrix(8.9664,0,0,-8.9664,334.51795,168.63701)" fill="#1f2937"/>
<use data-text="C" xlink:href="#font_2_6" transform="matrix(8.9664,0,0,-8.9664,337.50376,168.63701)" fill="#1f2937"/>
<use data-text="o" xlink:href="#font_2_28" transform="matrix(8.9664,0,0,-8.9664,343.9775,168.63701)" fill="#1f2937"/>
<use data-text="n" xlink:href="#font_2_27" transform="matrix(8.9664,0,0,-8.9664,348.96284,168.63701)" fill="#1f2937"/>
<use data-text="s" xlink:href="#font_2_31" transform="matrix(8.9664,0,0,-8.9664,353.94816,168.63701)" fill="#1f2937"/>
<use data-text="t" xlink:href="#font_2_32" transform="matrix(8.9664,0,0,-8.9664,358.43135,168.63701)" fill="#1f2937"/>
<use data-text="r" xlink:href="#font_2_30" transform="matrix(8.9664,0,0,-8.9664,360.92399,168.63701)" fill="#1f2937"/>
<use data-text="." xlink:href="#font_2_4" transform="matrix(8.9664,0,0,-8.9664,363.46147,168.63701)" fill="#1f2937"/>
<use data-text="A" xlink:href="#font_2_5" transform="matrix(8.9664,0,0,-8.9664,318.643,179.59601)" fill="#1f2937"/>
<use data-text="d" xlink:href="#font_2_19" transform="matrix(8.9664,0,0,-8.9664,324.6236,179.59601)" fill="#1f2937"/>
<use data-text="v" xlink:href="#font_2_34" transform="matrix(8.9664,0,0,-8.9664,329.60893,179.59601)" fill="#1f2937"/>
<use data-text="e" xlink:href="#font_2_20" transform="matrix(8.9664,0,0,-8.9664,333.86796,179.59601)" fill="#1f2937"/>
<use data-text="r" xlink:href="#font_2_30" transform="matrix(8.9664,0,0,-8.9664,338.85328,179.59601)" fill="#1f2937"/>
<use data-text="s" xlink:href="#font_2_31" transform="matrix(8.9664,0,0,-8.9664,341.83909,179.59601)" fill="#1f2937"/>
<use data-text="a" xlink:href="#font_2_16" transform="matrix(8.9664,0,0,-8.9664,346.32228,179.59601)" fill="#1f2937"/>
<use data-text="r" xlink:href="#font_2_30" transform="matrix(8.9664,0,0,-8.9664,351.3076,179.59601)" fill="#1f2937"/>
<use data-text="i" xlink:href="#font_2_24" transform="matrix(8.9664,0,0,-8.9664,354.4279,179.59601)" fill="#1f2937"/>
<use data-text="a" xlink:href="#font_2_16" transform="matrix(8.9664,0,0,-8.9664,356.41844,179.59601)" fill="#1f2937"/>
<use data-text="l" xlink:href="#font_2_25" transform="matrix(8.9664,0,0,-8.9664,361.40376,179.59601)" fill="#1f2937"/>
<path transform="matrix(1,0,0,-1,389.207,25.085007)" d="M92.70238-130.21274H3.67682C2.02611-130.21274 .68799-131.55086 .68799-133.20157V-158.40538C.68799-160.05609 2.02611-161.39421 3.67682-161.39421H92.70238C94.35307-161.39421 95.69121-160.05609 95.69121-158.40538V-133.20157C95.69121-131.55086 94.35307-130.21274 92.70238-130.21274ZM.68799-161.39421" fill="#fcf7ec"/>
<path transform="matrix(1,0,0,-1,389.207,25.085007)" stroke-width=".79701" stroke-linecap="butt" stroke-miterlimit="10" stroke-linejoin="miter" fill="none" stroke="#d4a017" d="M92.70238-130.21274H3.67682C2.02611-130.21274 .68799-131.55086 .68799-133.20157V-158.40538C.68799-160.05609 2.02611-161.39421 3.67682-161.39421H92.70238C94.35307-161.39421 95.69121-160.05609 95.69121-158.40538V-133.20157C95.69121-131.55086 94.35307-130.21274 92.70238-130.21274ZM.68799-161.39421"/>
<use data-text="C" xlink:href="#font_2_6" transform="matrix(8.9664,0,0,-8.9664,414.721,168.63701)" fill="#1f2937"/>
<use data-text="o" xlink:href="#font_2_28" transform="matrix(8.9664,0,0,-8.9664,421.19477,168.63701)" fill="#1f2937"/>
<use data-text="n" xlink:href="#font_2_27" transform="matrix(8.9664,0,0,-8.9664,426.18009,168.63701)" fill="#1f2937"/>
<use data-text="f" xlink:href="#font_2_37" transform="matrix(8.9664,0,0,-8.9664,431.1654,168.63701)" fill="#1f2937"/>
<use data-text="d" xlink:href="#font_2_19" transform="matrix(8.9664,0,0,-8.9664,435.64863,168.63701)" fill="#1f2937"/>
<use data-text="e" xlink:href="#font_2_20" transform="matrix(8.9664,0,0,-8.9664,440.63395,168.63701)" fill="#1f2937"/>
<use data-text="n" xlink:href="#font_2_27" transform="matrix(8.9664,0,0,-8.9664,445.61927,168.63701)" fill="#1f2937"/>
<use data-text="c" xlink:href="#font_2_18" transform="matrix(8.9664,0,0,-8.9664,450.60459,168.63701)" fill="#1f2937"/>
<use data-text="e" xlink:href="#font_2_20" transform="matrix(8.9664,0,0,-8.9664,455.08778,168.63701)" fill="#1f2937"/>
<use data-text="C" xlink:href="#font_2_6" transform="matrix(8.9664,0,0,-8.9664,417.012,179.59601)" fill="#1f2937"/>
<use data-text="a" xlink:href="#font_2_16" transform="matrix(8.9664,0,0,-8.9664,423.48576,179.59601)" fill="#1f2937"/>
<use data-text="l" xlink:href="#font_2_25" transform="matrix(8.9664,0,0,-8.9664,428.47108,179.59601)" fill="#1f2937"/>
<use data-text="i" xlink:href="#font_2_24" transform="matrix(8.9664,0,0,-8.9664,430.4616,179.59601)" fill="#1f2937"/>
<use data-text="b" xlink:href="#font_2_17" transform="matrix(8.9664,0,0,-8.9664,432.45216,179.59601)" fill="#1f2937"/>
<use data-text="r" xlink:href="#font_2_30" transform="matrix(8.9664,0,0,-8.9664,437.43748,179.59601)" fill="#1f2937"/>
<use data-text="a" xlink:href="#font_2_16" transform="matrix(8.9664,0,0,-8.9664,440.33363,179.59601)" fill="#1f2937"/>
<use data-text="t" xlink:href="#font_2_32" transform="matrix(8.9664,0,0,-8.9664,445.31895,179.59601)" fill="#1f2937"/>
<use data-text="e" xlink:href="#font_2_20" transform="matrix(8.9664,0,0,-8.9664,447.81159,179.59601)" fill="#1f2937"/>
<use data-text="d" xlink:href="#font_2_19" transform="matrix(8.9664,0,0,-8.9664,452.7969,179.59601)" fill="#1f2937"/>
<path transform="matrix(1,0,0,-1,389.207,25.085007)" d="M189.08155-130.21274H100.056C98.40529-130.21274 97.06717-131.55086 97.06717-133.20157V-158.40538C97.06717-160.05609 98.40529-161.39421 100.056-161.39421H189.08155C190.73226-161.39421 192.07038-160.05609 192.07038-158.40538V-133.20157C192.07038-131.55086 190.73226-130.21274 189.08155-130.21274ZM97.06717-161.39421" fill="#fcf7ec"/>
<path transform="matrix(1,0,0,-1,389.207,25.085007)" stroke-width=".79701" stroke-linecap="butt" stroke-miterlimit="10" stroke-linejoin="miter" fill="none" stroke="#d4a017" d="M189.08155-130.21274H100.056C98.40529-130.21274 97.06717-131.55086 97.06717-133.20157V-158.40538C97.06717-160.05609 98.40529-161.39421 100.056-161.39421H189.08155C190.73226-161.39421 192.07038-160.05609 192.07038-158.40538V-133.20157C192.07038-131.55086 190.73226-130.21274 189.08155-130.21274ZM97.06717-161.39421"/>
<use data-text="S" xlink:href="#font_2_15" transform="matrix(8.9664,0,0,-8.9664,510.713,167.714)" fill="#1f2937"/>
<use data-text="p" xlink:href="#font_2_29" transform="matrix(8.9664,0,0,-8.9664,516.6936,167.714)" fill="#1f2937"/>
<use data-text="e" xlink:href="#font_2_20" transform="matrix(8.9664,0,0,-8.9664,521.6789,167.714)" fill="#1f2937"/>
<use data-text="c" xlink:href="#font_2_18" transform="matrix(8.9664,0,0,-8.9664,526.6642,167.714)" fill="#1f2937"/>
<use data-text="u" xlink:href="#font_2_33" transform="matrix(8.9664,0,0,-8.9664,531.1474,167.714)" fill="#1f2937"/>
<use data-text="l" xlink:href="#font_2_25" transform="matrix(8.9664,0,0,-8.9664,536.1327,167.714)" fill="#1f2937"/>
<use data-text="a" xlink:href="#font_2_16" transform="matrix(8.9664,0,0,-8.9664,538.1232,167.714)" fill="#1f2937"/>
<use data-text="t" xlink:href="#font_2_32" transform="matrix(8.9664,0,0,-8.9664,543.1085,167.714)" fill="#1f2937"/>
<use data-text="i" xlink:href="#font_2_24" transform="matrix(8.9664,0,0,-8.9664,545.6012,167.714)" fill="#1f2937"/>
<use data-text="v" xlink:href="#font_2_34" transform="matrix(8.9664,0,0,-8.9664,547.59176,167.714)" fill="#1f2937"/>
<use data-text="e" xlink:href="#font_2_20" transform="matrix(8.9664,0,0,-8.9664,551.85079,167.714)" fill="#1f2937"/>
<use data-text="J" xlink:href="#font_2_11" transform="matrix(8.9664,0,0,-8.9664,518.164,178.673)" fill="#1f2937"/>
<use data-text="u" xlink:href="#font_2_33" transform="matrix(8.9664,0,0,-8.9664,522.4679,178.673)" fill="#1f2937"/>
<use data-text="d" xlink:href="#font_2_19" transform="matrix(8.9664,0,0,-8.9664,527.4532,178.673)" fill="#1f2937"/>
<use data-text="g" xlink:href="#font_2_22" transform="matrix(8.9664,0,0,-8.9664,532.4385,178.673)" fill="#1f2937"/>
<use data-text="i" xlink:href="#font_2_24" transform="matrix(8.9664,0,0,-8.9664,537.42379,178.673)" fill="#1f2937"/>
<use data-text="n" xlink:href="#font_2_27" transform="matrix(8.9664,0,0,-8.9664,539.4143,178.673)" fill="#1f2937"/>
<use data-text="g" xlink:href="#font_2_22" transform="matrix(8.9664,0,0,-8.9664,544.3996,178.673)" fill="#1f2937"/>
<path transform="matrix(1,0,0,-1,389.207,25.085007)" d="M285.4608-130.21274H196.43521C194.7845-130.21274 193.44638-131.55086 193.44638-133.20157V-158.40538C193.44638-160.05609 194.7845-161.39421 196.43521-161.39421H285.4608C287.11149-161.39421 288.4496-160.05609 288.4496-158.40538V-133.20157C288.4496-131.55086 287.11149-130.21274 285.4608-130.21274ZM193.44638-161.39421" fill="#eff3f8"/>
<path transform="matrix(1,0,0,-1,389.207,25.085007)" stroke-width=".79701" stroke-linecap="butt" stroke-miterlimit="10" stroke-linejoin="miter" fill="none" stroke="#3b6ea5" d="M285.4608-130.21274H196.43521C194.7845-130.21274 193.44638-131.55086 193.44638-133.20157V-158.40538C193.44638-160.05609 194.7845-161.39421 196.43521-161.39421H285.4608C287.11149-161.39421 288.4496-160.05609 288.4496-158.40538V-133.20157C288.4496-131.55086 287.11149-130.21274 285.4608-130.21274ZM193.44638-161.39421"/>
<use data-text="E" xlink:href="#font_2_8" transform="matrix(8.9664,0,0,-8.9664,606.305,167.649)" fill="#1f2937"/>
<use data-text="x" xlink:href="#font_2_35" transform="matrix(8.9664,0,0,-8.9664,612.2856,167.649)" fill="#1f2937"/>
<use data-text="p" xlink:href="#font_2_29" transform="matrix(8.9664,0,0,-8.9664,616.7688,167.649)" fill="#1f2937"/>
<use data-text="e" xlink:href="#font_2_20" transform="matrix(8.9664,0,0,-8.9664,621.7541,167.649)" fill="#1f2937"/>
<use data-text="r" xlink:href="#font_2_30" transform="matrix(8.9664,0,0,-8.9664,626.7394,167.649)" fill="#1f2937"/>
<use data-text="t" xlink:href="#font_2_32" transform="matrix(8.9664,0,0,-8.9664,630.08389,167.649)" fill="#1f2937"/>
<use data-text="R" xlink:href="#font_2_14" transform="matrix(8.9664,0,0,-8.9664,635.5624,167.649)" fill="#1f2937"/>
<use data-text="o" xlink:href="#font_2_28" transform="matrix(8.9664,0,0,-8.9664,642.03616,167.649)" fill="#1f2937"/>
<use data-text="l" xlink:href="#font_2_25" transform="matrix(8.9664,0,0,-8.9664,647.0214,167.649)" fill="#1f2937"/>
<use data-text="e" xlink:href="#font_2_20" transform="matrix(8.9664,0,0,-8.9664,649.01199,167.649)" fill="#1f2937"/>
<use data-text="A" xlink:href="#font_2_5" transform="matrix(8.9664,0,0,-8.9664,606.732,178.608)" fill="#1f2937"/>
<use data-text="s" xlink:href="#font_2_31" transform="matrix(8.9664,0,0,-8.9664,612.7126,178.608)" fill="#1f2937"/>
<use data-text="s" xlink:href="#font_2_31" transform="matrix(8.9664,0,0,-8.9664,617.1958,178.608)" fill="#1f2937"/>
<use data-text="i" xlink:href="#font_2_24" transform="matrix(8.9664,0,0,-8.9664,621.679,178.608)" fill="#1f2937"/>
<use data-text="g" xlink:href="#font_2_22" transform="matrix(8.9664,0,0,-8.9664,623.66958,178.608)" fill="#1f2937"/>
<use data-text="n" xlink:href="#font_2_27" transform="matrix(8.9664,0,0,-8.9664,628.65487,178.608)" fill="#1f2937"/>
<use data-text="m" xlink:href="#font_2_26" transform="matrix(8.9664,0,0,-8.9664,633.64016,178.608)" fill="#1f2937"/>
<use data-text="e" xlink:href="#font_2_20" transform="matrix(8.9664,0,0,-8.9664,641.10916,178.608)" fill="#1f2937"/>
<use data-text="n" xlink:href="#font_2_27" transform="matrix(8.9664,0,0,-8.9664,646.0944,178.608)" fill="#1f2937"/>
<use data-text="t" xlink:href="#font_2_32" transform="matrix(8.9664,0,0,-8.9664,651.0797,178.608)" fill="#1f2937"/>
<path transform="matrix(1,0,0,-1,389.207,25.085007)" d="M381.83995-130.21274H292.8144C291.16368-130.21274 289.82557-131.55086 289.82557-133.20157V-158.40538C289.82557-160.05609 291.16368-161.39421 292.8144-161.39421H381.83995C383.49067-161.39421 384.82878-160.05609 384.82878-158.40538V-133.20157C384.82878-131.55086 383.49067-130.21274 381.83995-130.21274ZM289.82557-161.39421" fill="#eff3f8"/>
<path transform="matrix(1,0,0,-1,389.207,25.085007)" stroke-width=".79701" stroke-linecap="butt" stroke-miterlimit="10" stroke-linejoin="miter" fill="none" stroke="#3b6ea5" d="M381.83995-130.21274H292.8144C291.16368-130.21274 289.82557-131.55086 289.82557-133.20157V-158.40538C289.82557-160.05609 291.16368-161.39421 292.8144-161.39421H381.83995C383.49067-161.39421 384.82878-160.05609 384.82878-158.40538V-133.20157C384.82878-131.55086 383.49067-130.21274 381.83995-130.21274ZM289.82557-161.39421"/>
<use data-text="S" xlink:href="#font_2_15" transform="matrix(8.9664,0,0,-8.9664,708.091,168.63701)" fill="#1f2937"/>
<use data-text="y" xlink:href="#font_2_36" transform="matrix(8.9664,0,0,-8.9664,714.0716,168.63701)" fill="#1f2937"/>
<use data-text="n" xlink:href="#font_2_27" transform="matrix(8.9664,0,0,-8.9664,718.5548,168.63701)" fill="#1f2937"/>
<use data-text="t" xlink:href="#font_2_32" transform="matrix(8.9664,0,0,-8.9664,723.5401,168.63701)" fill="#1f2937"/>
<use data-text="h" xlink:href="#font_2_23" transform="matrix(8.9664,0,0,-8.9664,726.0328,168.63701)" fill="#1f2937"/>
<use data-text="e" xlink:href="#font_2_20" transform="matrix(8.9664,0,0,-8.9664,731.01809,168.63701)" fill="#1f2937"/>
<use data-text="t" xlink:href="#font_2_32" transform="matrix(8.9664,0,0,-8.9664,736.00338,168.63701)" fill="#1f2937"/>
<use data-text="i" xlink:href="#font_2_24" transform="matrix(8.9664,0,0,-8.9664,738.49606,168.63701)" fill="#1f2937"/>
<use data-text="c" xlink:href="#font_2_18" transform="matrix(8.9664,0,0,-8.9664,740.4866,168.63701)" fill="#1f2937"/>
<use data-text="D" xlink:href="#font_2_7" transform="matrix(8.9664,0,0,-8.9664,696.429,179.59601)" fill="#1f2937"/>
<use data-text="i" xlink:href="#font_2_24" transform="matrix(8.9664,0,0,-8.9664,702.9028,179.59601)" fill="#1f2937"/>
<use data-text="v" xlink:href="#font_2_34" transform="matrix(8.9664,0,0,-8.9664,704.8933,179.59601)" fill="#1f2937"/>
<use data-text="e" xlink:href="#font_2_20" transform="matrix(8.9664,0,0,-8.9664,709.15237,179.59601)" fill="#1f2937"/>
<use data-text="r" xlink:href="#font_2_30" transform="matrix(8.9664,0,0,-8.9664,714.13766,179.59601)" fill="#1f2937"/>
<use data-text="s" xlink:href="#font_2_31" transform="matrix(8.9664,0,0,-8.9664,717.1235,179.59601)" fill="#1f2937"/>
<use data-text="e" xlink:href="#font_2_20" transform="matrix(8.9664,0,0,-8.9664,721.6067,179.59601)" fill="#1f2937"/>
<use data-text="P" xlink:href="#font_2_13" transform="matrix(8.9664,0,0,-8.9664,729.5778,179.59601)" fill="#1f2937"/>
<use data-text="a" xlink:href="#font_2_16" transform="matrix(8.9664,0,0,-8.9664,735.19979,179.59601)" fill="#1f2937"/>
<use data-text="n" xlink:href="#font_2_27" transform="matrix(8.9664,0,0,-8.9664,740.18508,179.59601)" fill="#1f2937"/>
<use data-text="e" xlink:href="#font_2_20" transform="matrix(8.9664,0,0,-8.9664,745.17037,179.59601)" fill="#1f2937"/>
<use data-text="l" xlink:href="#font_2_25" transform="matrix(8.9664,0,0,-8.9664,750.15567,179.59601)" fill="#1f2937"/>
<use data-text="s" xlink:href="#font_2_31" transform="matrix(8.9664,0,0,-8.9664,752.1462,179.59601)" fill="#1f2937"/>
<use data-text="&#x00a7;" xlink:href="#font_3_20" transform="matrix(6.9738,0,0,-6.9738,28.700989,201.18302)" fill="#1f6f6f"/>
<use data-text="E" xlink:href="#font_3_4" transform="matrix(6.9738,0,0,-6.9738,33.743047,201.18302)" fill="#1f6f6f"/>
<use data-text="(" xlink:href="#font_3_1" transform="matrix(6.9738,0,0,-6.9738,40.333288,201.18302)" fill="#1f6f6f"/>
<use data-text="e" xlink:href="#font_3_11" transform="matrix(6.9738,0,0,-6.9738,42.655565,201.18302)" fill="#1f6f6f"/>
<use data-text="n" xlink:href="#font_3_14" transform="matrix(6.9738,0,0,-6.9738,46.532999,201.18302)" fill="#1f6f6f"/>
<use data-text="s" xlink:href="#font_3_18" transform="matrix(6.9738,0,0,-6.9738,50.41043,201.18302)" fill="#1f6f6f"/>
<use data-text="e" xlink:href="#font_3_11" transform="matrix(6.9738,0,0,-6.9738,53.89733,201.18302)" fill="#1f6f6f"/>
<use data-text="m" xlink:href="#font_3_13" transform="matrix(6.9738,0,0,-6.9738,57.774766,201.18302)" fill="#1f6f6f"/>
<use data-text="b" xlink:href="#font_3_8" transform="matrix(6.9738,0,0,-6.9738,63.583944,201.18302)" fill="#1f6f6f"/>
<use data-text="l" xlink:href="#font_3_12" transform="matrix(6.9738,0,0,-6.9738,67.3219,201.18302)" fill="#1f6f6f"/>
<use data-text="e" xlink:href="#font_3_11" transform="matrix(6.9738,0,0,-6.9738,68.87009,201.18302)" fill="#1f6f6f"/>
<use data-text=")" xlink:href="#font_3_2" transform="matrix(6.9738,0,0,-6.9738,72.74753,201.18302)" fill="#1f6f6f"/>
<use data-text="&#x00a7;" xlink:href="#font_3_20" transform="matrix(6.9738,0,0,-6.9738,225.453,201.20401)" fill="#c75146"/>
<use data-text="G" xlink:href="#font_3_5" transform="matrix(6.9738,0,0,-6.9738,230.49506,201.20401)" fill="#c75146"/>
<use data-text="(" xlink:href="#font_3_1" transform="matrix(6.9738,0,0,-6.9738,237.85939,201.20401)" fill="#c75146"/>
<use data-text="d" xlink:href="#font_3_10" transform="matrix(6.9738,0,0,-6.9738,240.18167,201.20401)" fill="#c75146"/>
<use data-text="e" xlink:href="#font_3_11" transform="matrix(6.9738,0,0,-6.9738,244.0591,201.20401)" fill="#c75146"/>
<use data-text="b" xlink:href="#font_3_8" transform="matrix(6.9738,0,0,-6.9738,247.93653,201.20401)" fill="#c75146"/>
<use data-text="a" xlink:href="#font_3_7" transform="matrix(6.9738,0,0,-6.9738,251.81395,201.20401)" fill="#c75146"/>
<use data-text="t" xlink:href="#font_3_19" transform="matrix(6.9738,0,0,-6.9738,255.69138,201.20401)" fill="#c75146"/>
<use data-text="e" xlink:href="#font_3_11" transform="matrix(6.9738,0,0,-6.9738,257.6301,201.20401)" fill="#c75146"/>
<use data-text=")" xlink:href="#font_3_2" transform="matrix(6.9738,0,0,-6.9738,261.50755,201.20401)" fill="#c75146"/>
<use data-text="&#x00a7;" xlink:href="#font_3_20" transform="matrix(6.9738,0,0,-6.9738,416.082,201.18302)" fill="#d4a017"/>
<use data-text="D" xlink:href="#font_3_3" transform="matrix(6.9738,0,0,-6.9738,421.12406,201.18302)" fill="#d4a017"/>
<use data-text="(" xlink:href="#font_3_1" transform="matrix(6.9738,0,0,-6.9738,428.09788,201.18302)" fill="#d4a017"/>
<use data-text="c" xlink:href="#font_3_9" transform="matrix(6.9738,0,0,-6.9738,430.42015,201.18302)" fill="#d4a017"/>
<use data-text="a" xlink:href="#font_3_7" transform="matrix(6.9738,0,0,-6.9738,433.90705,201.18302)" fill="#d4a017"/>
<use data-text="s" xlink:href="#font_3_18" transform="matrix(6.9738,0,0,-6.9738,437.7845,201.18302)" fill="#d4a017"/>
<use data-text="c" xlink:href="#font_3_9" transform="matrix(6.9738,0,0,-6.9738,441.2714,201.18302)" fill="#d4a017"/>
<use data-text="a" xlink:href="#font_3_7" transform="matrix(6.9738,0,0,-6.9738,444.7583,201.18302)" fill="#d4a017"/>
<use data-text="d" xlink:href="#font_3_10" transform="matrix(6.9738,0,0,-6.9738,448.63575,201.18302)" fill="#d4a017"/>
<use data-text="e" xlink:href="#font_3_11" transform="matrix(6.9738,0,0,-6.9738,452.51319,201.18302)" fill="#d4a017"/>
<use data-text=")" xlink:href="#font_3_2" transform="matrix(6.9738,0,0,-6.9738,456.39064,201.18302)" fill="#d4a017"/>
<use data-text="&#x00a7;" xlink:href="#font_3_20" transform="matrix(6.9738,0,0,-6.9738,609.417,201.18302)" fill="#3b6ea5"/>
<use data-text="K" xlink:href="#font_3_6" transform="matrix(6.9738,0,0,-6.9738,614.45907,201.18302)" fill="#3b6ea5"/>
<use data-text="(" xlink:href="#font_3_1" transform="matrix(6.9738,0,0,-6.9738,621.0493,201.18302)" fill="#3b6ea5"/>
<use data-text="p" xlink:href="#font_3_16" transform="matrix(6.9738,0,0,-6.9738,623.3716,201.18302)" fill="#3b6ea5"/>
<use data-text="e" xlink:href="#font_3_11" transform="matrix(6.9738,0,0,-6.9738,627.249,201.18302)" fill="#3b6ea5"/>
<use data-text="r" xlink:href="#font_3_17" transform="matrix(6.9738,0,0,-6.9738,631.12649,201.18302)" fill="#3b6ea5"/>
<use data-text="s" xlink:href="#font_3_18" transform="matrix(6.9738,0,0,-6.9738,633.4487,201.18302)" fill="#3b6ea5"/>
<use data-text="o" xlink:href="#font_3_15" transform="matrix(6.9738,0,0,-6.9738,636.9356,201.18302)" fill="#3b6ea5"/>
<use data-text="n" xlink:href="#font_3_14" transform="matrix(6.9738,0,0,-6.9738,640.81307,201.18302)" fill="#3b6ea5"/>
<use data-text="a" xlink:href="#font_3_7" transform="matrix(6.9738,0,0,-6.9738,644.6905,201.18302)" fill="#3b6ea5"/>
<use data-text=")" xlink:href="#font_3_2" transform="matrix(6.9738,0,0,-6.9738,648.56796,201.18302)" fill="#3b6ea5"/>
<path transform="matrix(1,0,0,-1,389.207,25.085007)" stroke-width=".99628" stroke-linecap="butt" stroke-miterlimit="10" stroke-linejoin="miter" fill="none" stroke="#9ca3af" d="M0-21.10008V-35.27348H-289.13758V-66.45499"/>
<path transform="matrix(1,0,0,-1,389.207,25.085007)" stroke-width=".99628" stroke-linecap="butt" stroke-miterlimit="10" stroke-linejoin="miter" fill="none" stroke="#9ca3af" d="M0-21.10008V-35.27348H-96.37918V-66.45499"/>
<path transform="matrix(1,0,0,-1,389.207,25.085007)" stroke-width=".99628" stroke-linecap="butt" stroke-miterlimit="10" stroke-linejoin="miter" fill="none" stroke="#9ca3af" d="M0-21.10008V-35.27348H96.37918V-66.45499"/>
<path transform="matrix(1,0,0,-1,389.207,25.085007)" stroke-width=".99628" stroke-linecap="butt" stroke-miterlimit="10" stroke-linejoin="miter" fill="none" stroke="#9ca3af" d="M0-21.10008V-35.27348H289.13758V-66.45499"/>
<path transform="matrix(1,0,0,-1,389.207,25.085007)" stroke-width=".99628" stroke-linecap="butt" stroke-miterlimit="10" stroke-linejoin="miter" fill="none" stroke="#9ca3af" d="M-289.13758-101.46742V-109.97145H-337.32716V-129.81423"/>
<path transform="matrix(1,0,0,-1,389.207,25.085007)" stroke-width=".99628" stroke-linecap="butt" stroke-miterlimit="10" stroke-linejoin="miter" fill="none" stroke="#9ca3af" d="M-289.13758-101.46742V-109.97145H-240.94799V-129.81423"/>
<path transform="matrix(1,0,0,-1,389.207,25.085007)" stroke-width=".99628" stroke-linecap="butt" stroke-miterlimit="10" stroke-linejoin="miter" fill="none" stroke="#9ca3af" d="M-96.37918-101.46742V-109.97145H-144.56877V-129.81423"/>
<path transform="matrix(1,0,0,-1,389.207,25.085007)" stroke-width=".99628" stroke-linecap="butt" stroke-miterlimit="10" stroke-linejoin="miter" fill="none" stroke="#9ca3af" d="M-96.37918-101.46742V-109.97145H-48.18959V-129.81423"/>
<path transform="matrix(1,0,0,-1,389.207,25.085007)" stroke-width=".99628" stroke-linecap="butt" stroke-miterlimit="10" stroke-linejoin="miter" fill="none" stroke="#9ca3af" d="M96.37918-101.46742V-109.97145H48.18959V-129.81423"/>
<path transform="matrix(1,0,0,-1,389.207,25.085007)" stroke-width=".99628" stroke-linecap="butt" stroke-miterlimit="10" stroke-linejoin="miter" fill="none" stroke="#9ca3af" d="M96.37918-101.46742V-109.97145H144.56877V-129.81423"/>
<path transform="matrix(1,0,0,-1,389.207,25.085007)" stroke-width=".99628" stroke-linecap="butt" stroke-miterlimit="10" stroke-linejoin="miter" fill="none" stroke="#9ca3af" d="M289.13758-101.46742V-109.97145H240.94799V-129.81423"/>
<path transform="matrix(1,0,0,-1,389.207,25.085007)" stroke-width=".99628" stroke-linecap="butt" stroke-miterlimit="10" stroke-linejoin="miter" fill="none" stroke="#9ca3af" d="M289.13758-101.46742V-109.97145H337.32716V-129.81423"/>
</svg>
